/* XPM */
static const char *solitaire[] = {
/* columns rows colors chars-per-pixel */
"48 48 75 1 ",
"  c #030202",
". c #0C0000",
"X c #030A0A",
"o c #0A0F0F",
"O c #140000",
"+ c #1B0000",
"@ c #0B1111",
"# c #111616",
"$ c #141B1B",
"% c #240000",
"& c #2B0000",
"* c #2B0B0B",
"= c #350000",
"- c #3C0000",
"; c #3E1F1F",
": c #1A2121",
"> c #3D2B2B",
", c #3B3D3D",
"< c #430000",
"1 c #4D0000",
"2 c #520000",
"3 c #5C0000",
"4 c #6C0000",
"5 c #6A0909",
"6 c #730000",
"7 c #780000",
"8 c #703030",
"9 c #5D4D4D",
"0 c #5E5454",
"q c #7B5656",
"w c #7D6060",
"e c #840000",
"r c #8B0000",
"t c #950000",
"y c #9C0000",
"u c #871212",
"i c #9C1818",
"p c #A20000",
"a c #AC0000",
"s c #B70000",
"d c #BB0000",
"f c #A51B1B",
"g c #AB3333",
"h c #C20101",
"j c #CD0202",
"k c #CD0C0C",
"l c #D40101",
"z c #DE0000",
"x c #D40C0C",
"c c #DD0E0E",
"v c #CD1515",
"b c #CE1C1C",
"n c #D21414",
"m c #DB1313",
"M c #D31C1C",
"N c #D91818",
"B c #E40000",
"V c #E80000",
"C c #E11111",
"Z c #CF2626",
"A c #CC2D2D",
"S c #D32222",
"D c #DA2323",
"F c #D52C2C",
"G c #DB2B2B",
"H c #CE3939",
"J c #D53232",
"K c #DB3232",
"L c #D73B3B",
"P c #DA3C3C",
"I c #854949",
"U c #815D5D",
"Y c #AA4545",
"T c #DD4343",
"R c white",
/* pixels */
"ORRRRRRRRRRRRRRRRRRRRRRRRRRRRRRRRRRRRRRRRRRRRRRR",
"RRRRRRRRRRRRRRRRRRRRRRRRRRRRRRRRRRRRRRRRRRRRRRRR",
"RRRRRRRRRRRRR.+++.RRRRRRRRRRRR   +++ORRRRRRRRRRR",
"RRRRRRRRR@;5phljldt1 RRRRRRRX,Ifslllla4&RRRRRRRR",
"RRRRRRRo9gNCcxxlllzBs=RRRRR@wHCCcxxlzVVzy%RRRRRR",
"RRRRRR:qSmMMMbMkjjlzVl-RRR UGmDSMnljllzzVl-RRRRR",
"RRRRR#USMFJFFSbvkjllzBl%RR>DCGKFSbkjjlzzlBl-RRRR",
"RRRRR0AMJLPLJFMxllllzzVpRXiCGKKGbvkjlzzzBzVl+RRR",
"RRRR$YNFLTTPJSnxllzzzzzB-*mNDFGSbkjllzzzzzzVyRRR",
"RRRR>MSJLPPJSmzlBzzzzBlBt7zmMSMnxkjllzzzzzzBz&RR",
"RRR 8mZALJFDnzlzzzzzzzzBjhxnnvvxlllzBzzBzzzzV4RR",
"RRR unbZZSNczzBzzzzBlzzzlzljjkjlllzBzzzzzzzzVyRR",
"RRRRexbbbnclzBzBzzzzzzzzzllljllzzzzzzzzzzzzBBaRR",
"RRRRyxkkkllzzzzzzzzzzzlBzzllllzzzzzzzzzzzzzzBaRR",
"RRRRtljjjlzzzBlzzzlBzzzBzzzzzzzzzzzzzBzzzBzzVaRR",
"RRRReljjlzBzlBBzzzzzzzzlBllzzzzzzzzBlzzzzzzzBaRR",
"RRRR3BllzzzzzBzzzzzzzzzzzzzzzzzzzzzzzBzzzzzBV6RR",
"RRRR+lBzzzzzzzzzzzzzzzzzzzBlzzzzzzzzzzzzzzzzl&RR",
"RRRRRtVzzzzzzzzzzzzlzzlzzzzzzzzzzzzzzzzzzBzVyRRR",
"RRRRR%lBzzzzzzzzzzzBzzBzlzzBzzzzzzzzzzzzzzzz=RRR",
"RRRRRR7VzzzzzzzzBzzzzzzzzzzzzzzzzzzzBlzzzzVeRRRR",
"RRRRRR sVzzzzzzzzzzzBlzBzzzzzzzzzzzzzzBzzBh.RRRR",
"RRRRRRR=lBzzzzzzzBzzBzzlzlzzzzzzzzzzzzzzBz<RRRRR",
"RRRRRRRR2VzzzzzBzlzzzzzzzBBzzzzzzzzBzzzzV3RRRRRR",
"RRRRRRRRR7VzzzzzzzzzzzzzBzzzzzzzBzzzzzzVrRRRRRRR",
"RRRRRRRRR pVzzzzBzzzzzzzzzzzzzzzzzzzzzVaRRRRRRRR",
"RRRRRRRRRR pVlBzzzzzzBzzzzBzzzzzBzBlBVsORRRRRRRR",
"RRRRRRRRRRR+jBzzzzzBlzzzzzzzzzzzlBzzVsORRRRRRRRR",
"RRRRRRRRRRRR%jBzzzzzzzzzzzzzzzzzBzzBl=RRRRRRRRRR",
"RRRRRRRRRRRRR%lBzzzzBzzzzzzzBzzzBlBl<RRRRRRRRRRR",
"RRRRRRRRRRRRRR2zBzzzzzzzzzzzBlzzzBB<RRRRRRRRRRRR",
"RRRRRRRRRRRRRRR2zzBzzzzzzzzzzBzzzV4RRRRRRRRRRRRR",
"RRRRRRRRRRRRRRRReVzBzBzzzzzzzzzzV7RRRRRRRRRRRRRR",
"RRRRRRRRRRRRRRRRRyVlzzBzzzBzzzzVp RRRRRRRRRRRRRR",
"RRRRRRRRRRRRRRRRROsVzlBzzzzzzzVd.RRRRRRRRRRRRRRR",
"RRRRRRRRRRRRRRRRRR%lBzzzzzzzzBl&RRRRRRRRRRRRRRRR",
"RRRRRRRRRRRRRRRRRRR3BBzzzzzzzV3RRRRRRRRRRRRRRRRR",
"RRRRRRRRRRRRRRRRRRRRrVzBzzBlVtRRRRRRRRRRRRRRRRRR",
"RRRRRRRRRRRRRRRRRRRROhBlzzzBjORRRRRRRRRRRRRRRRRR",
"RRRRRRRRRRRRRRRRRRRRR2VBzBzV2RRRRRRRRRRRRRRRRRRR",
"RRRRRRRRRRRRRRRRRRRRRRyVzzBs RRRRRRRRRRRRRRRRRRR",
"RRRRRRRRRRRRRRRRRRRRRR=zzBl-RRRRRRRRRRRRRRRRRRRR",
"RRRRRRRRRRRRRRRRRRRRRRRyVVpRRRRRRRRRRRRRRRRRRRRR",
"RRRRRRRRRRRRRRRRRRRRRRR=zV2RRRRRRRRRRRRRRRRRRRRR",
"RRRRRRRRRRRRRRRRRRRRRRRRsh RRRRRRRRRRRRRRRRRRRRR",
"RRRRRRRRRRRRRRRRRRRRRRRR6yRRRRRRRRRRRRRRRRRRRRRR",
"RRRRRRRRRRRRRRRRRRRRRRRR&<RRRRRRRRRRRRRRRRRRRRRR",
"RRRRRRRRRRRRRRRRRRRRRRRRRRRRRRRRRRRRRRRRRRRRRRRR"
};
