/* XPM */
static const char *ace_clubs[] = {
/* columns rows colors chars-per-pixel */
"69 100 255 2 ",
"   c black",
".  c #010101",
"X  c #020202",
"o  c gray1",
"O  c #040404",
"+  c gray2",
"@  c #060606",
"#  c #070707",
"$  c gray3",
"%  c #090909",
"&  c gray4",
"*  c #0B0B0B",
"=  c #0C0C0C",
"-  c gray5",
";  c #0E0E0E",
":  c gray6",
">  c #101010",
",  c #111111",
"<  c gray7",
"1  c #131313",
"2  c gray8",
"3  c #151515",
"4  c #161616",
"5  c gray9",
"6  c #181818",
"7  c #191919",
"8  c gray10",
"9  c #1B1B1B",
"0  c gray11",
"q  c #1D1D1D",
"w  c #1E1E1E",
"e  c gray12",
"r  c #202020",
"t  c gray13",
"y  c #222222",
"u  c #232323",
"i  c gray14",
"p  c #252525",
"a  c gray15",
"s  c #272727",
"d  c #282828",
"f  c gray16",
"g  c #2A2A2A",
"h  c gray17",
"j  c #2C2C2C",
"k  c #2D2D2D",
"l  c gray18",
"z  c #2F2F2F",
"x  c gray19",
"c  c #313131",
"v  c #323232",
"b  c gray20",
"n  c #343434",
"m  c #353535",
"M  c gray21",
"N  c #373737",
"B  c gray22",
"V  c #393939",
"C  c #3A3A3A",
"Z  c gray23",
"A  c #3C3C3C",
"S  c gray24",
"D  c #3E3E3E",
"F  c #3F3F3F",
"G  c gray25",
"H  c #414141",
"J  c gray26",
"K  c #434343",
"L  c #444444",
"P  c gray27",
"I  c #464646",
"U  c gray28",
"Y  c #484848",
"T  c #494949",
"R  c gray29",
"E  c #4B4B4B",
"W  c #4C4C4C",
"Q  c gray30",
"!  c gray31",
"~  c #505050",
"^  c #515151",
"/  c gray32",
"(  c #535353",
")  c gray33",
"_  c #555555",
"`  c #565656",
"'  c gray34",
"]  c #585858",
"[  c gray35",
"{  c #5A5A5A",
"}  c #5B5B5B",
"|  c gray36",
" . c #5D5D5D",
".. c gray37",
"X. c #5F5F5F",
"o. c #606060",
"O. c gray38",
"+. c #626262",
"@. c gray39",
"#. c gray40",
"$. c #686868",
"%. c DimGray",
"&. c #6A6A6A",
"*. c gray42",
"=. c #6C6C6C",
"-. c #6D6D6D",
";. c gray43",
":. c #6F6F6F",
">. c #717171",
",. c #727272",
"<. c gray45",
"1. c #747474",
"2. c gray46",
"3. c #767676",
"4. c #777777",
"5. c #797979",
"6. c gray48",
"7. c #7C7C7C",
"8. c gray49",
"9. c #7E7E7E",
"0. c gray50",
"q. c #808080",
"w. c #818081",
"e. c #818181",
"r. c gray51",
"t. c #838383",
"y. c #848484",
"u. c gray52",
"i. c #868686",
"p. c gray53",
"a. c #888788",
"s. c gray54",
"d. c #8B8B8B",
"f. c #8D8D8D",
"g. c #8E8E8E",
"h. c gray57",
"j. c #929292",
"k. c #959595",
"l. c gray59",
"z. c #979797",
"x. c #989898",
"c. c #999899",
"v. c gray60",
"b. c #9A9A9A",
"n. c gray61",
"m. c #9D9D9D",
"M. c #9F9F9F",
"N. c gray63",
"B. c #A2A2A2",
"V. c #A4A4A4",
"C. c #A5A5A5",
"Z. c gray65",
"A. c #A7A7A7",
"S. c gray66",
"D. c #A9A9A9",
"F. c #AAAAAA",
"G. c #ABAAAB",
"H. c gray67",
"J. c #ACACAC",
"K. c #ADACAD",
"L. c gray68",
"P. c #AEAEAE",
"I. c #AFAFAF",
"U. c #B2B2B2",
"Y. c gray70",
"T. c #B4B3B4",
"R. c gray71",
"E. c #B6B6B6",
"W. c #B7B6B7",
"Q. c gray72",
"!. c #B9B8B9",
"~. c gray73",
"^. c #BCBCBC",
"/. c gray74",
"(. c gray75",
"). c #C0C0C0",
"_. c #C1C1C1",
"`. c gray76",
"'. c #C3C3C3",
"]. c gray77",
"[. c #C5C5C5",
"{. c #C6C6C6",
"}. c #C7C6C7",
"|. c gray78",
" X c #C8C7C8",
".X c #C9C8C9",
"XX c #CACACA",
"oX c #CBCACB",
"OX c #CBCBCB",
"+X c #CCCBCC",
"@X c gray80",
"#X c #CDCDCD",
"$X c #CECDCE",
"%X c #D0CFD0",
"&X c #D0D0D0",
"*X c gray82",
"=X c #D2D1D2",
"-X c #D4D3D4",
";X c gray83",
":X c #D5D4D5",
">X c #D6D5D6",
",X c gray84",
"<X c #D7D7D7",
"1X c #D8D7D8",
"2X c #D9D8D9",
"3X c gray85",
"4X c #DBDADB",
"5X c gray86",
"6X c #DCDBDC",
"7X c gainsboro",
"8X c #DDDCDD",
"9X c #DEDDDE",
"0X c #DFDFDF",
"qX c #E3E2E3",
"wX c gray89",
"eX c #E4E3E4",
"rX c #E5E4E5",
"tX c gray90",
"yX c #E6E5E6",
"uX c #E7E6E7",
"iX c #E8E7E8",
"pX c #E9E8E9",
"aX c #EAE9EA",
"sX c #EAEAEA",
"dX c gray92",
"fX c #ECEBEC",
"gX c #ECECEC",
"hX c #EDECED",
"jX c gray93",
"kX c #EEEDEE",
"lX c #EFEEEF",
"zX c #F0EFF0",
"xX c #F2F1F2",
"cX c #F3F2F3",
"vX c #F4F3F4",
"bX c #F4F4F4",
"nX c #F5F4F5",
"mX c gray96",
"MX c #F7F6F7",
"NX c #F8F7F8",
"BX c #F8F8F8",
"VX c #F9F8F9",
"CX c #F9F9F9",
"ZX c #FAF9FA",
"AX c gray98",
"SX c #FBFAFB",
"DX c #FBFBFB",
"FX c #FCFBFC",
"GX c gray99",
"HX c #FDFCFD",
"JX c #FDFDFD",
"KX c #FEFDFE",
"LX c #FEFEFE",
"PX c #FFFEFF",
"IX c white",
/* pixels */
"AX`.OX@X@X@X@X@X@X@X@X@X@X@X@X@X@X@X@X@X@X@X@X@X@X@X@X@X@X@X@X@X@X@X@X@X@X@X@X@X@X@X@X@X@X@X@X@X@X@X@X@X@X@X@X@X@X@X@X@X@X@X@X@X@X@XOX`.AX",
"'.LXIXIXIXIXIXIXIXIXIXIXIXIXIXIXIXIXIXIXIXIXIXIXIXIXIXIXIXIXIXIXIXIXIXIXIXIXIXIXIXIXIXIXIXIXIXIXIXIXIXIXIXIXIXIXIXIXIXIXIXIXIXIXIXIXIXLX].",
"OXIXIXIXIXIXi.: J.IXIXIXIXIXIXIXIXIXIXIXIXIXIXIXIXIXIXIXIXIXIXIXIXIXIXIXIXIXIXIXIXIXIXIXIXIXIXIXIXIXIXIXIXIXIXIXIXIXIXIXIXIXIXIXIXIXIXIXOX",
"OXIXIXIXIXJXu N.L IXIXIXIXIXIXIXIXIXIXIXIXIXIXIXIXIXIXIXIXIXIXIXIXIXIXIXIXIXIXIXIXIXIXIXIXIXIXIXIXIXIXIXIXIXIXIXIXIXIXIXIXIXIXIXIXIXIXIXOX",
"OXIXIXIXIXY.T LXt 7XIXIXIXIXIXIXIXIXIXIXIXIXIXIXIXIXIXIXIXIXIXIXIXIXIXIXIXIXIXIXIXIXIXIXIXIXIXIXIXIXIXIXIXIXIXIXIXIXIXIXIXIXIXIXIXIXIXIXOX",
"OXIXIXIXIXR P.IXe.2.IXIXIXIXIXIXIXIXIXIXIXIXIXIXIXIXIXIXIXIXIXIXIXIXIXIXIXIXIXIXIXIXIXIXIXIXIXIXIXIXIXIXIXIXIXIXIXIXIXIXIXIXIXIXIXIXIXIXOX",
"OXIXIXIX0X7 DXIXwX5 CXIXIXIXIXIXIXIXIXIXIXIXIXIXIXIXIXIXIXIXIXIXIXIXIXIXIXIXIXIXIXIXIXIXIXIXIXIXIXIXIXIXIXIXIXIXIXIXIXIXIXIXIXIXIXIXIXIXOX",
"OXIXIXIX4.# : : : O Z.IXIXIXIXIXIXIXIXIXIXIXIXIXIXIXIXIXIXIXIXIXIXIXIXIXIXIXIXIXIXIXIXIXIXIXIXIXIXIXIXIXIXIXIXIXIXIXIXIXIXIXIXIXIXIXIXIXOX",
"OXIXIXCX3 ,XIXIXIXD.F IXIXIXIXIXIXIXIXIXIXIXIXIXIXIXIXIXIXIXIXIXIXIXIXIXIXIXIXIXIXIXIXIXIXIXIXIXIXIXIXIXIXIXIXIXIXIXIXIXIXIXIXIXIXIXIXIXOX",
"OXIXIXC.z IXIXIXIXmX* <XIXIXIXIXIXIXIXIXIXIXIXIXIXIXIXIXIXIXIXIXIXIXIXIXIXIXIXIXIXIXIXIXIXIXIXIXIXIXIXIXIXIXIXIXIXIXIXIXIXIXIXIXIXIXIXIXOX",
"OXIXIXA p.IXIXIXIXIX' :.IXIXIXIXIXIXIXIXIXIXIXIXIXIXIXIXIXIXIXIXIXIXIXIXIXIXIXIXIXIXIXIXIXIXIXIXIXIXIXIXIXIXIXIXIXIXIXIXIXIXIXIXIXIXIXIXOX",
"OXIXIXIXIXIXIXIXIXIXIXIXIXIXIXIXIXIXIXIXIXIXIXIXIXIXIXIXIXIXIXIXIXIXIXIXIXIXIXIXIXIXIXIXIXIXIXIXIXIXIXIXIXIXIXIXIXIXIXIXIXIXIXIXIXIXIXIXOX",
"OXIXIXIXIXIXtX@XBXIXIXIXIXIXIXIXIXIXIXIXIXIXIXIXIXIXIXIXIXIXIXIXIXIXIXIXIXIXIXIXIXIXIXIXIXIXIXIXIXIXIXIXIXIXIXIXIXIXIXIXIXIXIXIXIXIXIXIXOX",
"OXIXIXIXLX+.    4 '.IXIXIXIXIXIXIXIXIXIXIXIXIXIXIXIXIXIXIXIXIXIXIXIXIXIXIXIXIXIXIXIXIXIXIXIXIXIXIXIXIXIXIXIXIXIXIXIXIXIXIXIXIXIXIXIXIXIXOX",
"OXIXIXIXP.        a IXIXIXIXIXIXIXIXIXIXIXIXIXIXIXIXIXIXIXIXIXIXIXIXIXIXIXIXIXIXIXIXIXIXIXIXIXIXIXIXIXIXIXIXIXIXIXIXIXIXIXIXIXIXIXIXIXIXOX",
"OXIXIXIXg.        # GXIXIXIXIXIXIXIXIXIXIXIXIXIXIXIXIXIXIXIXIXIXIXIXIXIXIXIXIXIXIXIXIXIXIXIXIXIXIXIXIXIXIXIXIXIXIXIXIXIXIXIXIXIXIXIXIXIXOX",
"OXIXIXIX&X.       T IXIXIXIXIXIXIXIXIXIXIXIXIXIXIXIXIXIXIXIXIXIXIXIXIXIXIXIXIXIXIXIXIXIXIXIXIXIXIXIXIXIXIXIXIXIXIXIXIXIXIXIXIXIXIXIXIXIXOX",
"OXIXjXg.8.G     * >.6.!.PXPXPXPXPXPXPXPXPXPXPXPXPXPXPXPXPXPXPXPXPXPXPXPXPXPXPXPXPXPXPXPXPXPXPXPXPXPXPXPXPXPXPXPXPXPXPXPXPXPXPXIXIXIXIXIXOX",
"OXsXq                   w.PXPXPXPXPXPXPXPXPXPXPXPXPXPXPXPXPXPXPXPXPXPXPXPXPXPXPXPXPXPXPXPXPXPXPXPXPXPXPXPXPXPXPXPXPXPXPXPXPXPXIXIXIXIXIXOX",
"OXf.                    & FXPXPXPXPXPXPXPXPXPXPXPXPXPXPXPXPXPXPXPXPXPXPXPXPXPXPXPXPXPXPXPXPXPXPXPXPXPXPXPXPXPXPXPXPXPXPXPXPXPXIXIXIXIXIXOX",
"OXu.        # @         + NXPXPXPXPXPXPXPXPXPXPXPXPXPXPXPXPXPXPXPXPXPXPXPXPXPXPXPXPXPXPXPXPXPXPXPXPXPXPXPXPXPXPXPXPXPXPXPXPXPXIXIXIXIXIXOX",
"OX7X%     . 8.Y M        .PXPXPXPXPXPXPXPXPXPXPXPXPXPXPXPXPXPXPXPXPXPXPXPXPXPXPXPXPXPXPXPXPXPXPXPXPXPXPXPXPXPXPXPXPXPXPXPXPXPXIXIXIXIXIXOX",
"OXIXOX[ U U.K.a xX;.K w.NXPXPXPXPXPXPXPXPXPXPXPXPXPXPXPXPXPXPXPXPXPXPXPXPXPXPXPXPXPXPXPXPXPXPXPXPXPXPXPXPXPXPXPXPXPXPXPXPXPXPXIXIXIXIXIXOX",
"OXIXIXIXIXIX~   .XPXPXPXPXPXPXPXPXPXPXPXPXPXPXPXPXPXPXPXPXPXPXPXPXPXPXPXPXPXPXPXPXPXPXPXPXPXPXPXPXPXPXPXPXPXPXPXPXPXPXPXPXPXPXIXIXIXIXIXOX",
"OXIXIXIXIXjXc.c.W.PXPXPXPXPXPXPXPXPXPXPXPXPXPXPXPXPXPXPXPXPXPXPXPXPXPXPXPXPXPXPXPXPXPXPXPXPXPXPXPXPXPXPXPXPXPXPXPXPXPXPXPXPXPXIXIXIXIXIXOX",
"OXIXIXIXIXIXPXPXPXPXPXPXPXPXPXPXPXPXPXPXPXPXPXPXPXPXPXPXPXPXPXZXuX>X[.-XyXVXPXPXPXPXPXPXPXPXPXPXPXPXPXPXPXPXPXPXPXPXPXPXPXPXPXIXIXIXIXIXOX",
"OXIXIXIXIXIXPXPXPXPXPXPXPXPXPXPXPXPXPXPXPXPXPXPXPXPXPXPXPX%X>.l j a w 5 1 > [ .XPXPXPXPXPXPXPXPXPXPXPXPXPXPXPXPXPXPXPXPXPXPXPXIXIXIXIXIXOX",
"OXIXIXIXIXIXPXPXPXPXPXPXPXPXPXPXPXPXPXPXPXPXPXPXPXPXPXkX;.I R P A z u 8 1 > > , U aXPXPXPXPXPXPXPXPXPXPXPXPXPXPXPXPXPXPXPXPXPXIXIXIXIXIXOX",
"OXIXIXIXIXIXPXPXPXPXPXPXPXPXPXPXPXPXPXPXPXPXPXPXPXPXeXW ` O.X./ H x y 3 ; - : > < 6 >XPXPXPXPXPXPXPXPXPXPXPXPXPXPXPXPXPXPXPXPXIXIXIXIXIXOX",
"OXIXIXIXIXIXPXPXPXPXPXPXPXPXPXPXPXPXPXPXPXPXPXPXPXkXL ` *.4.$./ Z i 1 = * = - : , 1 4 rXPXPXPXPXPXPXPXPXPXPXPXPXPXPXPXPXPXPXPXIXIXIXIXIXOX",
"OXIXIXIXIXIXPXPXPXPXPXPXPXPXPXPXPXPXPXPXPXPXPXPXHX! R ..:.:.{ F e ; % $ % * = ; > < 2 b FXPXPXPXPXPXPXPXPXPXPXPXPXPXPXPXPXPXPXIXIXIXIXIXOX",
"OXIXIXIXIXIXPXPXPXPXPXPXPXPXPXPXPXPXPXPXPXPXPXPX/.b R ] | ) C 7 = $ # # $ % * - : , 2 4 D.PXPXPXPXPXPXPXPXPXPXPXPXPXPXPXPXPXPXIXIXIXIXIXOX",
"OXIXIXIXIXIXPXPXPXPXPXPXPXPXPXPXPXPXPXPXPXPXPXPXb m G I P m 4 = # @ + + @ $ & = : , 1 4 t HXPXPXPXPXPXPXPXPXPXPXPXPXPXPXPXPXPXIXIXIXIXIXOX",
"OXIXIXIXIXIXPXPXPXPXPXPXPXPXPXPXPXPXPXPXPXPXPXpXq x n n j 5 - % @ + o O + # & = ; > 1 3 6 9XPXPXPXPXPXPXPXPXPXPXPXPXPXPXPXPXPXIXIXIXIXIXOX",
"OXIXIXIXIXIXPXPXPXPXPXPXPXPXPXPXPXPXPXPXPXPXPX'.0 a s i 7 : & $ @ O X X O # % * ; > 1 3 5 I.PXPXPXPXPXPXPXPXPXPXPXPXPXPXPXPXPXIXIXIXIXIXOX",
"OXIXIXIXIXIXPXPXPXPXPXPXPXPXPXPXPXPXPXPXPXPXPXI.9 w q 7 , - & $ @ o . X O @ % * ; > < 3 5 l.PXPXPXPXPXPXPXPXPXPXPXPXPXPXPXPXPXIXIXIXIXIXOX",
"OXIXIXIXIXIXPXPXPXPXPXPXPXPXPXPXPXPXPXPXPXPXPX_.7 6 5 1 : - & $ @ O X X O # % * ; > 1 3 5 J.PXPXPXPXPXPXPXPXPXPXPXPXPXPXPXPXPXIXIXIXIXIXOX",
"OXIXIXIXIXIXPXPXPXPXPXPXPXPXPXPXPXPXPXPXPXPXPX1X7 5 3 < : - * % @ + o O + # % = ; > 1 3 5 }.PXPXPXPXPXPXPXPXPXPXPXPXPXPXPXPXPXIXIXIXIXIXOX",
"OXIXIXIXIXIXPXPXPXPXPXPXPXPXPXPXPXPXPXPXPXPXPXMX7 5 3 < > ; * % # @ + + @ $ & = ; , 1 3 6 lXPXPXPXPXPXPXPXPXPXPXPXPXPXPXPXPXPXIXIXIXIXIXOX",
"OXIXIXIXIXIXPXPXPXPXPXPXPXPXPXPXPXPXPXPXPXPXPXPX^ 5 3 1 , ; = & % # # # $ % * - : , 2 4 b PXPXPXPXPXPXPXPXPXPXPXPXPXPXPXPXPXPXIXIXIXIXIXOX",
"OXIXIXIXIXIXPXPXPXPXPXPXPXPXPXPXPXPXPXPXPXPXPXPX.X6 4 1 , : - * & % $ $ % & = ; > < 2 4 R.PXPXPXPXPXPXPXPXPXPXPXPXPXPXPXPXPXPXIXIXIXIXIXOX",
"OXIXIXIXIXIXPXPXPXPXPXPXPXPXPXPXPXPXPXPXPXPXPXPXKXm 4 2 < > ; - * & & & * = - : , 1 3 p HXPXPXPXPXPXPXPXPXPXPXPXPXPXPXPXPXPXPXIXIXIXIXIXOX",
"OXIXIXIXIXIXPXPXPXPXPXPXPXPXPXPXPXPXPXPXPXPXPXPXPX1X5 3 1 , : ; - = * = = - ; > < 2 4  XPXPXPXPXPXPXPXPXPXPXPXPXPXPXPXPXPXPXPXIXIXIXIXIXOX",
"OXIXIXIXIXIXPXPXPXPXPXPXPXPXPXPXPXPXPXPXPXPXPXPXPXPXu.4 2 < , : ; - - - ; : > , 1 3 ;.PXPXPXPXPXPXPXPXPXPXPXPXPXPXPXPXPXPXPXPXIXIXIXIXIXOX",
"OXIXIXIXIXIXPXPXPXPXPXPXPXPXPXPXPXPXPXxX:X).~.{.eXFXKX .3 2 < , > : : : : > , < 2 R HXFXrXXX(.'.:XlXPXPXPXPXPXPXPXPXPXPXPXPXPXIXIXIXIXIXOX",
"OXIXIXIXIXIXPXPXPXPXPXPXPXPXPXPXZX^.o.L Z v f y e q <.$XS 3 1 < , , > > , < 1 2 x +X9.l Z E ( ( Q G Y P.ZXPXPXPXPXPXPXPXPXPXPXIXIXIXIXIXOX",
"OXIXIXIXIXIXPXPXPXPXPXPXPXPXPX:X=.@.} ~ J M h u e q 9 7 L 8 3 2 1 < < < < 1 2 5 P 9 a M L ! _ ` ( E J B B {.PXPXPXPXPXPXPXPXPXIXIXIXIXIXOX",
"OXIXIXIXIXIXPXPXPXPXPXPXPXKXE.>.7.2.#.( H n d y r w 0 8 7 5 4 3 2 2 2 2 2 3 3 5 7 r h m D U W Q E I G Z M b x.PXPXPXPXPXPXPXPXIXIXIXIXIXOX",
"OXIXIXIXIXIXPXPXPXPXPXPXPX`.,.i.g.5.+.W M f a u t e q 0 8 7 6 5 4 3 3 3 4 4 5 6 9 y f x n C S F F S Z N n v n A.PXPXPXPXPXPXPXIXIXIXIXIXOX",
"OXIXIXIXIXIXPXPXPXPXPXPXhX#.3.t.9.%.Q n h d p i y r w q 0 8 7 6 6 5 5 5 5 6 6 7 q r i f j x v n m n b v v v n m rXPXPXPXPXPXPXIXIXIXIXIXOX",
"OXIXIXIXIXIXPXPXPXPXPXPXi.@.=.:.@.R m k g d s p u t r w q 0 9 8 7 7 7 7 7 7 8 9 q e y i a f h j l z z x c b m N O.PXPXPXPXPXPXIXIXIXIXIXOX",
"OXIXIXIXIXIXPXPXPXPXPXvX/ { } ] U M x k h f d a i u t r w q 0 9 9 8 8 8 8 9 0 0 q e r y p p s f h k z x v n M B C fXPXPXPXPXPXIXIXIXIXIXOX",
"OXIXIXIXIXIXPXPXPXPXPXOXW Q W I B b x l j g f s p i y t r e w q 0 0 0 0 0 0 q w e r t u i a s f h k z c b m N V Z ^.PXPXPXPXPXIXIXIXIXIXOX",
"OXIXIXIXIXIXPXPXPXPXPXm.L L J C M b c z k j g d s p i y t r e e w w q q w w e e r t u i p s d g j l x c b m N V A p.PXPXPXPXPXIXIXIXIXIXOX",
"OXIXIXIXIXIXPXPXPXPXPXy.F D Z V M n v x l k h f d a p i u y t r r e e e e r r t y u i p s d g h k z c v n M B C A &.PXPXPXPXPXIXIXIXIXIXOX",
"OXIXIXIXIXIXPXPXPXPXPXq.D A Z V N m b c x l j h f d a p i u y y t t t t t t y y u i p s d f h j l x v b m N V Z S @.PXPXPXPXPXIXIXIXIXIXOX",
"OXIXIXIXIXIXPXPXPXPXPXn.F D A C B M n v c z k j g f d s a p i u u y y y u u u i p a s d f h j l z c b m M B C A D i.PXPXPXPXPXIXIXIXIXIXOX",
"OXIXIXIXIXIXPXPXPXPXPX|.H F S Z V N m n v x z k j g f d s a p p ~ i i i ~ i p a a s d f h j k z x v n M N V Z S F R.PXPXPXPXPXIXIXIXIXIXOX",
"OXIXIXIXIXIXPXPXPXPXPXcXJ G D A C B M m b v x z k j h g f d s a 8Xs a a 9Xa s s d f g h j k z x v b m N B C A D G aXPXPXPXPXPXIXIXIXIXIXOX",
"OXIXIXIXIXIXPXPXPXPXPXPX5.H F S Z V B M n b c x z k j h g f f 4.PXd s s HXh.d f f g h j k z x c b m M B C Z S F @.PXPXPXPXPXPXIXIXIXIXIXOX",
"OXIXIXIXIXIXPXPXPXPXPXPXiXJ G D A Z V N M n b c x z l k j h A VXPXf f f FXFXY g h j k l z x c b n M N V Z A D G 6XPXPXPXPXPXPXIXIXIXIXIXOX",
"OXIXIXIXIXIXPXPXPXPXPXPXPXS.H F S A C B N m n b c x z l k z eXPXSXh g g nXPXhXb k k l z x c b n m N V C A D F k.PXPXPXPXPXPXPXIXIXIXIXIXOX",
"OXIXIXIXIXIXPXPXPXPXPXPXPXKXt.G F S Z C B N m n b v c x v 8XPXPXcXj j j pXPXPXuXb z x c v b n m N B C Z S F 1.HXPXPXPXPXPXPXPXIXIXIXIXIXOX",
"OXIXIXIXIXIXPXPXPXPXPXPXPXPXKXx.G D A Z V B N m n b v W iXPXPXPX4Xl l l oXPXPXPXlX_ c v b n m N B C Z S D s.KXPXPXPXPXPXPXPXPXIXIXIXIXIXOX",
"OXIXIXIXIXIXPXPXPXPXPXPXPXPXPXPXqXo.D A Z V B N M B N.FXPXPXPXPXL.x z z z.PXPXPXPXKXJ.V m M N B V Z A ' 4XPXPXPXPXPXPXPXPXPXPXIXIXIXIXIXOX",
"OXIXIXIXIXIXPXPXPXPXPXPXPXPXPXPXPXPXzX^.b.5.8.M.=XSXPXPXPXPXPXPXo.c c c W PXPXPXPXPXPXFX>XB.0.2.z.Q.fXPXPXPXPXPXPXPXPXPXPXPXPXIXIXIXIXIXOX",
"OXIXIXIXIXIXPXPXPXPXPXPXPXPXPXPXPXPXPXPXPXPXPXPXPXPXPXPXPXPXPXvXb b b b b fXPXPXPXPXPXPXPXPXPXPXPXPXPXPXPXPXPXPXPXPXPXPXPXPXPXIXIXIXIXIXOX",
"OXIXIXIXIXIXPXPXPXPXPXPXPXPXPXPXPXPXPXPXPXPXPXPXPXPXPXPXPXPXPX~.m n n n n Z.PXPXPXPXPXPXPXPXPXPXPXPXPXPXPXPXPXPXPXPXPXPXPXPXPXIXIXIXIXIXOX",
"OXIXIXIXIXIXPXPXPXPXPXPXPXPXPXPXPXPXPXPXPXPXPXPXPXPXPXPXPXPXFXL M M M M M C NXPXPXPXPXPXPXPXPXPXPXPXPXPXPXPXPXPXPXPXPXPXPXPXPXIXIXIXIXIXOX",
"OXIXIXIXIXIXPXPXPXPXPXPXPXPXPXPXPXPXPXPXPXPXPXPXPXPXPXPXPXPXL.B B B B B B B x.PXPXPXPXPXPXPXPXPXPXPXPXPXPXPXPXPXPXPXPXPXPXPXPXIXIXIXIXIXOX",
"OXIXIXIXIXIXPXPXPXPXPXPXPXPXPXPXPXPXPXPXPXPXPXPXPXPXPXPXPXlXS C C V V V V C C yXPXPXPXPXPXPXPXPXPXPXPXPXPXPXPXPXPXPXPXPXPXPXPXIXIXIXIXIXOX",
"OXIXIXIXIXIXPXPXPXPXPXPXPXPXPXPXPXPXPXPXPXPXPXPXPXPXPXPXNX` A Z Z Z Z Z Z Z Z E vXPXPXPXPXPXPXPXPXPXPXPXPXPXPXPXPXPXPXPXPXPXPXIXIXIXIXIXOX",
"OXIXIXIXIXIXPXPXPXPXPXPXPXPXPXPXPXPXPXPXPXPXPXPXPXPXPXPXZXnXnXnXnXnXnXnXnXnXnXnXNXPXPXPXPXPXPXPXPXPXPXPXPXPXPXPXPXPXPXPXPXPXPXIXIXIXIXIXOX",
"OXIXIXIXIXIXPXPXPXPXPXPXPXPXPXPXPXPXPXPXPXPXPXPXPXPXPXPXPXPXPXPXPXPXPXPXPXPXPXPXPXPXPXPXPXPXPXPXPXPXPXPXPXPXPXPXPXPXPXPXPXPXPXIXIXIXIXIXOX",
"OXIXIXIXIXIXPXPXPXPXPXPXPXPXPXPXPXPXPXPXPXPXPXPXPXPXPXPXPXPXPXPXPXPXPXPXPXPXPXPXPXPXPXPXPXPXPXPXPXPXPXPXPXPXPXPXPXPXPXPXPXPXPXIXIXIXIXIXOX",
"OXIXIXIXIXIXPXPXPXPXPXPXPXPXPXPXPXPXPXPXPXPXPXPXPXPXPXPXPXPXPXPXPXPXPXPXPXPXPXPXPXPXPXPXPXPXPXPXPXPXPXPXPXPXPXPXPXPXPXPXT.a.a.dXIXIXIXIXOX",
"OXIXIXIXIXIXPXPXPXPXPXPXPXPXPXPXPXPXPXPXPXPXPXPXPXPXPXPXPXPXPXPXPXPXPXPXPXPXPXPXPXPXPXPXPXPXPXPXPXPXPXPXPXPXPXPXPXPXPXPX2XX ) IXIXIXIXIXOX",
"OXIXIXIXIXIXPXPXPXPXPXPXPXPXPXPXPXPXPXPXPXPXPXPXPXPXPXPXPXPXPXPXPXPXPXPXPXPXPXPXPXPXPXPXPXPXPXPXPXPXPXPXPXPXPXPXcX:.x ` uXn G.V.n J E.IXOX",
"OXIXIXIXIXIXPXPXPXPXPXPXPXPXPXPXPXPXPXPXPXPXPXPXPXPXPXPXPXPXPXPXPXPXPXPXPXPXPXPXPXPXPXPXPXPXPXPXPXPXPXPXPXPXPXPX]       i R -.      o #XOX",
"OXIXIXIXIXIXIXPXPXPXPXPXPXPXPXPXPXPXPXPXPXPXPXPXPXPXPXPXPXPXPXPXPXPXPXPXPXPXPXPXPXPXPXPXPXPXPXPXPXPXPXPXPXPXPXSX@         O O         6.OX",
"OXIXIXIXIXIXIXIXIXIXIXIXIXIXIXIXIXIXIXIXIXIXIXIXIXIXIXIXIXIXIXIXIXIXIXIXIXIXIXIXIXIXIXIXIXIXIXIXIXIXIXIXIXIXIXIX2                     d.OX",
"OXIXIXIXIXIXIXIXIXIXIXIXIXIXIXIXIXIXIXIXIXIXIXIXIXIXIXIXIXIXIXIXIXIXIXIXIXIXIXIXIXIXIXIXIXIXIXIXIXIXIXIXIXIXIXIXv.X     .     .     a jXOX",
"OXIXIXIXIXIXIXIXIXIXIXIXIXIXIXIXIXIXIXIXIXIXIXIXIXIXIXIXIXIXIXIXIXIXIXIXIXIXIXIXIXIXIXIXIXIXIXIXIXIXIXIXIXIXIXIXIX*Xg.r.=     C j.B.bXIXOX",
"OXIXIXIXIXIXIXIXIXIXIXIXIXIXIXIXIXIXIXIXIXIXIXIXIXIXIXIXIXIXIXIXIXIXIXIXIXIXIXIXIXIXIXIXIXIXIXIXIXIXIXIXIXIXIXIXIXIXIXT         _.IXIXIXOX",
"OXIXIXIXIXIXIXIXIXIXIXIXIXIXIXIXIXIXIXIXIXIXIXIXIXIXIXIXIXIXIXIXIXIXIXIXIXIXIXIXIXIXIXIXIXIXIXIXIXIXIXIXIXIXIXIXIXIXIX=         t.IXIXIXOX",
"OXIXIXIXIXIXIXIXIXIXIXIXIXIXIXIXIXIXIXIXIXIXIXIXIXIXIXIXIXIXIXIXIXIXIXIXIXIXIXIXIXIXIXIXIXIXIXIXIXIXIXIXIXIXIXIXIXIXIXN         I.IXIXIXOX",
"OXIXIXIXIXIXIXIXIXIXIXIXIXIXIXIXIXIXIXIXIXIXIXIXIXIXIXIXIXIXIXIXIXIXIXIXIXIXIXIXIXIXIXIXIXIXIXIXIXIXIXIXIXIXIXIXIXIXIX;Xa   X ,.IXIXIXIXOX",
"OXIXIXIXIXIXIXIXIXIXIXIXIXIXIXIXIXIXIXIXIXIXIXIXIXIXIXIXIXIXIXIXIXIXIXIXIXIXIXIXIXIXIXIXIXIXIXIXIXIXIXIXIXIXIXIXIXIXIXIXJX3XgXIXIXIXIXIXOX",
"OXIXIXIXIXIXIXIXIXIXIXIXIXIXIXIXIXIXIXIXIXIXIXIXIXIXIXIXIXIXIXIXIXIXIXIXIXIXIXIXIXIXIXIXIXIXIXIXIXIXIXIXIXIXIXIXIX;.] IXIXIXIXIXi.S IXIXOX",
"OXIXIXIXIXIXIXIXIXIXIXIXIXIXIXIXIXIXIXIXIXIXIXIXIXIXIXIXIXIXIXIXIXIXIXIXIXIXIXIXIXIXIXIXIXIXIXIXIXIXIXIXIXIXIXIXIX,X= mXIXIXIXIXl Z.IXIXOX",
"OXIXIXIXIXIXIXIXIXIXIXIXIXIXIXIXIXIXIXIXIXIXIXIXIXIXIXIXIXIXIXIXIXIXIXIXIXIXIXIXIXIXIXIXIXIXIXIXIXIXIXIXIXIXIXIXIXIXD F.IXIXIX,X4 CXIXIXOX",
"OXIXIXIXIXIXIXIXIXIXIXIXIXIXIXIXIXIXIXIXIXIXIXIXIXIXIXIXIXIXIXIXIXIXIXIXIXIXIXIXIXIXIXIXIXIXIXIXIXIXIXIXIXIXIXIXIXIXC.O : : : # 5.IXIXIXOX",
"OXIXIXIXIXIXIXIXIXIXIXIXIXIXIXIXIXIXIXIXIXIXIXIXIXIXIXIXIXIXIXIXIXIXIXIXIXIXIXIXIXIXIXIXIXIXIXIXIXIXIXIXIXIXIXIXIXIXCX5 wXIXAX7 0XIXIXIXOX",
"OXIXIXIXIXIXIXIXIXIXIXIXIXIXIXIXIXIXIXIXIXIXIXIXIXIXIXIXIXIXIXIXIXIXIXIXIXIXIXIXIXIXIXIXIXIXIXIXIXIXIXIXIXIXIXIXIXIXIX1.r.IXL.E IXIXIXIXOX",
"OXIXIXIXIXIXIXIXIXIXIXIXIXIXIXIXIXIXIXIXIXIXIXIXIXIXIXIXIXIXIXIXIXIXIXIXIXIXIXIXIXIXIXIXIXIXIXIXIXIXIXIXIXIXIXIXIXIXIX5Xt LXY R.IXIXIXIXOX",
"OXIXIXIXIXIXIXIXIXIXIXIXIXIXIXIXIXIXIXIXIXIXIXIXIXIXIXIXIXIXIXIXIXIXIXIXIXIXIXIXIXIXIXIXIXIXIXIXIXIXIXIXIXIXIXIXIXIXIXIXK B.u JXIXIXIXIXOX",
"OXIXIXIXIXIXIXIXIXIXIXIXIXIXIXIXIXIXIXIXIXIXIXIXIXIXIXIXIXIXIXIXIXIXIXIXIXIXIXIXIXIXIXIXIXIXIXIXIXIXIXIXIXIXIXIXIXIXIXIXH.: p.IXIXIXIXIXOX",
"OXIXIXIXIXIXIXIXIXIXIXIXIXIXIXIXIXIXIXIXIXIXIXIXIXIXIXIXIXIXIXIXIXIXIXIXIXIXIXIXIXIXIXIXIXIXIXIXIXIXIXIXIXIXIXIXIXIXIXIXIXIXIXIXIXIXIXIXOX",
"'.LXIXIXIXIXIXIXIXIXIXIXIXIXIXIXIXIXIXIXIXIXIXIXIXIXIXIXIXIXIXIXIXIXIXIXIXIXIXIXIXIXIXIXIXIXIXIXIXIXIXIXIXIXIXIXIXIXIXIXIXIXIXIXIXIXIXLX].",
"AX`.OX@X@X@X@X@X@X@X@X@X@X@X@X@X@X@X@X@X@X@X@X@X@X@X@X@X@X@X@X@X@X@X@X@X@X@X@X@X@X@X@X@X@X@X@X@X@X@X@X@X@X@X@X@X@X@X@X@X@X@X@X@X@X@XOX`.AX"
};
