/* XPM */
static const char *ace_spades[] = {
/* columns rows colors chars-per-pixel */
"69 100 251 2 ",
"   c black",
".  c #010101",
"X  c #020202",
"o  c gray1",
"O  c #040404",
"+  c gray2",
"@  c #060606",
"#  c #070707",
"$  c gray3",
"%  c #090909",
"&  c gray4",
"*  c #0B0B0B",
"=  c #0C0C0C",
"-  c gray5",
";  c #0E0E0E",
":  c gray6",
">  c #101010",
",  c #111111",
"<  c gray7",
"1  c #131313",
"2  c gray8",
"3  c #151515",
"4  c #161616",
"5  c gray9",
"6  c #181818",
"7  c #191919",
"8  c gray10",
"9  c #1B1B1B",
"0  c gray11",
"q  c #1D1D1D",
"w  c #1E1E1E",
"e  c gray12",
"r  c #202020",
"t  c gray13",
"y  c #222222",
"u  c #232323",
"i  c gray14",
"p  c #252525",
"a  c #272727",
"s  c #282828",
"d  c gray16",
"f  c #2A2A2A",
"g  c gray17",
"h  c #2C2C2C",
"j  c #2D2D2D",
"k  c gray18",
"l  c #2F2F2F",
"z  c gray19",
"x  c #313131",
"c  c #323232",
"v  c gray20",
"b  c #343434",
"n  c #353535",
"m  c gray21",
"M  c #373737",
"N  c gray22",
"B  c #393939",
"V  c #3A3A3A",
"C  c gray23",
"Z  c #3C3C3C",
"A  c gray24",
"S  c #3E3E3E",
"D  c #3F3F3F",
"F  c gray25",
"G  c #414141",
"H  c gray26",
"J  c #434343",
"K  c #444444",
"L  c gray27",
"P  c #464646",
"I  c gray28",
"U  c #484848",
"Y  c #494949",
"T  c gray29",
"R  c #4B4B4B",
"E  c #4C4C4C",
"W  c gray30",
"Q  c #4E4E4E",
"!  c gray31",
"~  c #505050",
"^  c #515151",
"/  c gray32",
"(  c #535353",
")  c gray33",
"_  c #555555",
"`  c #565656",
"'  c gray34",
"]  c #585858",
"[  c gray35",
"{  c #5A5A5A",
"}  c #5B5B5B",
"|  c gray36",
" . c #5D5D5D",
".. c gray37",
"X. c #5F5F5F",
"o. c #606060",
"O. c gray38",
"+. c #626262",
"@. c gray39",
"#. c #646464",
"$. c #656565",
"%. c gray40",
"&. c #676767",
"*. c #686868",
"=. c DimGray",
"-. c #6A6A6A",
";. c gray42",
":. c #6C6C6C",
">. c #6D6D6D",
",. c gray43",
"<. c #6F6F6F",
"1. c gray44",
"2. c #717171",
"3. c #727272",
"4. c gray45",
"5. c #747474",
"6. c gray46",
"7. c #767676",
"8. c #777777",
"9. c gray47",
"0. c #797979",
"q. c gray48",
"w. c #7B7B7B",
"e. c #7C7C7C",
"r. c gray49",
"t. c #7E7E7E",
"y. c gray50",
"u. c #808080",
"i. c #818181",
"p. c gray51",
"a. c #838383",
"s. c #848484",
"d. c gray52",
"f. c #868686",
"g. c gray53",
"h. c #888888",
"j. c #898989",
"k. c gray54",
"l. c #8B8B8B",
"z. c gray55",
"x. c #8D8D8D",
"c. c #8E8E8E",
"v. c gray56",
"b. c #909090",
"n. c gray57",
"m. c #929292",
"M. c #939393",
"N. c gray58",
"B. c #959595",
"V. c gray59",
"C. c #979797",
"Z. c #989898",
"A. c gray60",
"S. c #9A9A9A",
"D. c #9B9B9B",
"F. c gray61",
"G. c #9D9D9D",
"H. c #9F9F9F",
"J. c #A0A0A0",
"K. c gray63",
"L. c #A2A2A2",
"P. c gray64",
"I. c #A4A4A4",
"U. c #A5A5A5",
"Y. c gray65",
"T. c #A7A7A7",
"R. c gray66",
"E. c #A9A9A9",
"W. c #AAAAAA",
"Q. c gray67",
"!. c #ACACAC",
"~. c gray68",
"^. c #AEAEAE",
"/. c #AFAFAF",
"(. c gray69",
"). c #B1B1B1",
"_. c #B2B2B2",
"`. c gray70",
"'. c #B4B4B4",
"]. c gray71",
"[. c #B6B6B6",
"{. c #B7B7B7",
"}. c gray72",
"|. c #B9B9B9",
" X c #BBBBBB",
".X c #BCBCBC",
"XX c gray74",
"oX c gray",
"OX c #C0C0C0",
"+X c #C1C1C1",
"@X c gray76",
"#X c #C3C3C3",
"$X c gray77",
"%X c #C5C5C5",
"&X c #C6C6C6",
"*X c gray78",
"=X c #C8C8C8",
"-X c gray79",
";X c #CACACA",
":X c #CBCBCB",
">X c gray80",
",X c #CECECE",
"<X c gray81",
"1X c #D0D0D0",
"2X c gray82",
"3X c #D2D2D2",
"4X c LightGray",
"5X c gray83",
"6X c #D5D5D5",
"7X c gray84",
"8X c #D7D7D7",
"9X c #D8D8D8",
"0X c gray85",
"qX c #DADADA",
"wX c gray86",
"eX c gainsboro",
"rX c #DDDDDD",
"tX c gray87",
"yX c #DFDFDF",
"uX c gray88",
"iX c #E1E1E1",
"pX c #E2E2E2",
"aX c gray89",
"sX c #E4E4E4",
"dX c gray90",
"fX c #E6E6E6",
"gX c #E7E7E7",
"hX c gray91",
"jX c #E9E9E9",
"kX c #EAEAEA",
"lX c gray92",
"zX c #ECECEC",
"xX c gray93",
"cX c #EEEEEE",
"vX c #EFEFEF",
"bX c gray94",
"nX c #F1F1F1",
"mX c gray95",
"MX c #F3F3F3",
"NX c #F4F4F4",
"BX c gray96",
"VX c #F6F6F6",
"CX c gray97",
"ZX c #F8F8F8",
"AX c #F9F9F9",
"SX c gray98",
"DX c #FBFBFB",
"FX c gray99",
"GX c #FDFDFD",
"HX c #FEFEFE",
"JX c white",
/* pixels */
"SX@X:X>X>X>X>X>X>X>X>X>X>X>X>X>X>X>X>X>X>X>X>X>X>X>X>X>X>X>X>X>X>X>X>X>X>X>X>X>X>X>X>X>X>X>X>X>X>X>X>X>X>X>X>X>X>X>X>X>X>X>X>X>X>X>X:X@XSX",
"#XHXJXJXJXJXJXJXJXJXJXJXJXJXJXJXJXJXJXJXJXJXJXJXJXJXJXJXJXJXJXJXJXJXJXJXJXJXJXJXJXJXJXJXJXJXJXJXJXJXJXJXJXJXJXJXJXJXJXJXJXJXJXJXJXJXJXHX$X",
":XJXJXJXJXJXJXJXJXJXJXJXJXJXJXJXJXJXJXJXJXJXJXJXJXJXJXJXJXJXJXJXJXJXJXJXJXJXJXJXJXJXJXJXJXJXJXJXJXJXJXJXJXJXJXJXJXJXJXJXJXJXJXJXJXJXJXJX:X",
":XJXJXJXJXJXf.: !.JXJXJXJXJXJXJXJXJXJXJXJXJXJXJXJXJXJXJXJXJXJXJXJXJXJXJXJXJXJXJXJXJXJXJXJXJXJXJXJXJXJXJXJXJXJXJXJXJXJXJXJXJXJXJXJXJXJXJX:X",
":XJXJXJXJXGXu K.K JXJXJXJXJXJXJXJXJXJXJXJXJXJXJXJXJXJXJXJXJXJXJXJXJXJXJXJXJXJXJXJXJXJXJXJXJXJXJXJXJXJXJXJXJXJXJXJXJXJXJXJXJXJXJXJXJXJXJX:X",
":XJXJXJXJX`.Y HXt eXJXJXJXJXJXJXJXJXJXJXJXJXJXJXJXJXJXJXJXJXJXJXJXJXJXJXJXJXJXJXJXJXJXJXJXJXJXJXJXJXJXJXJXJXJXJXJXJXJXJXJXJXJXJXJXJXJXJX:X",
":XJXJXJXJXT ^.JXi.6.JXJXJXJXJXJXJXJXJXJXJXJXJXJXJXJXJXJXJXJXJXJXJXJXJXJXJXJXJXJXJXJXJXJXJXJXJXJXJXJXJXJXJXJXJXJXJXJXJXJXJXJXJXJXJXJXJXJX:X",
":XJXJXJXyX7 DXJXaX5 AXJXJXJXJXJXJXJXJXJXJXJXJXJXJXJXJXJXJXJXJXJXJXJXJXJXJXJXJXJXJXJXJXJXJXJXJXJXJXJXJXJXJXJXJXJXJXJXJXJXJXJXJXJXJXJXJXJX:X",
":XJXJXJX8.# : : : O Y.JXJXJXJXJXJXJXJXJXJXJXJXJXJXJXJXJXJXJXJXJXJXJXJXJXJXJXJXJXJXJXJXJXJXJXJXJXJXJXJXJXJXJXJXJXJXJXJXJXJXJXJXJXJXJXJXJX:X",
":XJXJXAX3 7XJXJXJXE.D JXJXJXJXJXJXJXJXJXJXJXJXJXJXJXJXJXJXJXJXJXJXJXJXJXJXJXJXJXJXJXJXJXJXJXJXJXJXJXJXJXJXJXJXJXJXJXJXJXJXJXJXJXJXJXJXJX:X",
":XJXJXU.l JXJXJXJXBX* 8XJXJXJXJXJXJXJXJXJXJXJXJXJXJXJXJXJXJXJXJXJXJXJXJXJXJXJXJXJXJXJXJXJXJXJXJXJXJXJXJXJXJXJXJXJXJXJXJXJXJXJXJXJXJXJXJX:X",
":XJXJXZ g.JXJXJXJXJX' <.JXJXJXJXJXJXJXJXJXJXJXJXJXJXJXJXJXJXJXJXJXJXJXJXJXJXJXJXJXJXJXJXJXJXJXJXJXJXJXJXJXJXJXJXJXJXJXJXJXJXJXJXJXJXJXJX:X",
":XJXJXJXJXJXAXmXJXJXJXJXJXJXJXJXJXJXJXJXJXJXJXJXJXJXJXJXJXJXJXJXJXJXJXJXJXJXJXJXJXJXJXJXJXJXJXJXJXJXJXJXJXJXJXJXJXJXJXJXJXJXJXJXJXJXJXJX:X",
":XJXJXJXJXJXf.5.JXJXJXJXJXJXJXJXJXJXJXJXJXJXJXJXJXJXJXJXJXJXJXJXJXJXJXJXJXJXJXJXJXJXJXJXJXJXJXJXJXJXJXJXJXJXJXJXJXJXJXJXJXJXJXJXJXJXJXJX:X",
":XJXJXJXJX#X+ . W.JXJXJXJXJXJXJXJXJXJXJXJXJXJXJXJXJXJXJXJXJXJXJXJXJXJXJXJXJXJXJXJXJXJXJXJXJXJXJXJXJXJXJXJXJXJXJXJXJXJXJXJXJXJXJXJXJXJXJX:X",
":XJXJXJXiX3     = 5XJXJXJXJXJXJXJXJXJXJXJXJXJXJXJXJXJXJXJXJXJXJXJXJXJXJXJXJXJXJXJXJXJXJXJXJXJXJXJXJXJXJXJXJXJXJXJXJXJXJXJXJXJXJXJXJXJXJX:X",
":XJXJXDXB         f BXJXJXJXJXJXJXJXJXJXJXJXJXJXJXJXJXJXJXJXJXJXJXJXJXJXJXJXJXJXJXJXJXJXJXJXJXJXJXJXJXJXJXJXJXJXJXJXJXJXJXJXJXJXJXJXJXJX:X",
":XJXJX8.            %.JXJXJXJXJXJXJXJXJXJXJXJXJXJXJXJXJXJXJXJXJXJXJXJXJXJXJXJXJXJXJXJXJXJXJXJXJXJXJXJXJXJXJXJXJXJXJXJXJXJXJXJXJXJXJXJXJX:X",
":XJX=XX               {.JXJXJXJXJXJXJXJXJXJXJXJXJXJXJXJXJXJXJXJXJXJXJXJXJXJXJXJXJXJXJXJXJXJXJXJXJXJXJXJXJXJXJXJXJXJXJXJXJXJXJXJXJXJXJXJX:X",
":XJXQ                 C JXJXJXJXJXJXJXJXJXJXJXJXJXJXJXJXJXJXJXJXJXJXJXJXJXJXJXJXJXJXJXJXJXJXJXJXJXJXJXJXJXJXJXJXJXJXJXJXJXJXJXJXJXJXJXJX:X",
":XJXq       @ @       & JXJXJXJXJXJXJXJXJXJXJXJXJXJXJXJXJXJXJXJXJXJX'.JXJXJXJXJXJXJXJXJXJXJXJXJXJXJXJXJXJXJXJXJXJXJXJXJXJXJXJXJXJXJXJXJX:X",
":XJX(     i @._ f     H JXJXJXJXJXJXJXJXJXJXJXJXJXJXJXJXJXJXJXJXJXbX< zXJXJXJXJXJXJXJXJXJXJXJXJXJXJXJXJXJXJXJXJXJXJXJXJXJXJXJXJXJXJXJXJX:X",
":XJXvXu.0.kXl q zXr.w.kXJXJXJXJXJXJXJXJXJXJXJXJXJXJXJXJXJXJXJXJXJXx.  h.JXJXJXJXJXJXJXJXJXJXJXJXJXJXJXJXJXJXJXJXJXJXJXJXJXJXJXJXJXJXJXJX:X",
":XJXJXJXJX2X    XXJXJXJXJXJXJXJXJXJXJXJXJXJXJXJXJXJXJXJXJXJXJXJXcX3 , w ZXJXJXJXJXJXJXJXJXJXJXJXJXJXJXJXJXJXJXJXJXJXJXJXJXJXJXJXJXJXJXJX:X",
":XJXJXJXJX).8.8.Y.JXJXJXJXJXJXJXJXJXJXJXJXJXJXJXJXJXJXJXJXJXJXJX+.+ T.  g.JXJXJXJXJXJXJXJXJXJXJXJXJXJXJXJXJXJXJXJXJXJXJXJXJXJXJXJXJXJXJX:X",
":XJXJXJXJXJXJXJXJXJXJXJXJXJXJXJXJXJXJXJXJXJXJXJXJXJXJXJXJXJXJX X. _ VX6 - fXJXJXJXJXJXJXJXJXJXJXJXJXJXJXJXJXJXJXJXJXJXJXJXJXJXJXJXJXJXJX:X",
":XJXJXJXJXJXJXJXJXJXJXJXJXJXJXJXJXJXJXJXJXJXJXJXJXJXJXJXJXJXNXy   v.].>.  ^ JXJXJXJXJXJXJXJXJXJXJXJXJXJXJXJXJXJXJXJXJXJXJXJXJXJXJXJXJXJX:X",
":XJXJXJXJXJXJXJXJXJXJXJXJXJXJXJXJXJXJXJXJXJXJXJXJXJXJXJXJXJX*.  x o.NX4.-   J.JXJXJXJXJXJXJXJXJXJXJXJXJXJXJXJXJXJXJXJXJXJXJXJXJXJXJXJXJX:X",
":XJXJXJXJXJXJXJXJXJXJXJXJXJXJXJXJXJXJXJXJXJXJXJXJXJXJXJXJX!.  X 9.p.VX .&.  : yXJXJXJXJXJXJXJXJXJXJXJXJXJXJXJXJXJXJXJXJXJXJXJXJXJXJXJXJX:X",
":XJXJXJXJXJXJXJXJXJXJXJXJXJXJXJXJXJXJXJXJXJXJXJXJXJXJXJXuX,   X.M xX>.{.| d   c VXJXJXJXJXJXJXJXJXJXJXJXJXJXJXJXJXJXJXJXJXJXJXJXJXJXJXJX:X",
":XJXJXJXJXJXJXJXJXJXJXJXJXJXJXJXJXJXJXJXJXJXJXJXJXJXJXDXC   w o.m.'.X eXQ q.O   o.JXJXJXJXJXJXJXJXJXJXJXJXJXJXJXJXJXJXJXJXJXJXJXJXJXJXJX:X",
":XJXJXJXJXJXJXJXJXJXJXJXJXJXJXJXJXJXJXJXJXJXJXJXJXJXJX-.  $ h.n FXI   6.tX0 ,.    N.JXJXJXJXJXJXJXJXJXJXJXJXJXJXJXJXJXJXJXJXJXJXJXJXJXJX:X",
":XJXJXJXJXJXJXJXJXJXJXJXJXJXJXJXJXJXJXJXJXJXJXJXJXJXM.    k.e R.1X.   q qXe.F X.  O |.JXJXJXJXJXJXJXJXJXJXJXJXJXJXJXJXJXJXJXJXJXJXJXJXJX:X",
":XJXJXJXJXJXJXJXJXJXJXJXJXJXJXJXJXJXJXJXJXJXJXJXJX|.O   %.C ,.L D.      P.=.C +.D   : 5XJXJXJXJXJXJXJXJXJXJXJXJXJXJXJXJXJXJXJXJXJXJXJXJX:X",
":XJXJXJXJXJXJXJXJXJXJXJXJXJXJXJXJXJXJXJXJXJXJXJX7X>   !  .d bXpX~.      ,XdX7X= >.f   r hXJXJXJXJXJXJXJXJXJXJXJXJXJXJXJXJXJXJXJXJXJXJXJX:X",
":XJXJXJXJXJXJXJXJXJXJXJXJXJXJXJXJXJXJXJXJXJXJXxXi   S a.# ;XE y #X    X 0X4 7.l.  e.y   N VXJXJXJXJXJXJXJXJXJXJXJXJXJXJXJXJXJXJXJXJXJXJX:X",
":XJXJXJXJXJXJXJXJXJXJXJXJXJXJXJXJXJXJXJXJXJXSXH   l Z.X a.-.f   P.+   a r.  #./ ! o k.8   ' HXJXJXJXJXJXJXJXJXJXJXJXJXJXJXJXJXJXJXJXJXJX:X",
":XJXJXJXJXJXJXJXJXJXJXJXJXJXJXJXJXJXJXJXJXJX-.  y L.@ U T.) <.  2.x   ] U   c.} 4Xw # N.2   u.JXJXJXJXJXJXJXJXJXJXJXJXJXJXJXJXJXJXJXJXJX:X",
":XJXJXJXJXJXJXJXJXJXJXJXJXJXJXJXJXJXJXJXJXB.  6 T.- 5 hXm.t.yX8 U ;.  z.8 P 7X@.l.%XO : D.; . E.JXJXJXJXJXJXJXJXJXJXJXJXJXJXJXJXJXJXJXJX:X",
":XJXJXJXJXJXJXJXJXJXJXJXJXJXJXJXJXJXJXJXXX+ > W.3 O OX=Xr . N (.y Y.  ).3 ~.> $ g eXg.  7 F.$ % ;XJXJXJXJXJXJXJXJXJXJXJXJXJXJXJXJXJXJXJX:X",
":XJXJXJXJXJXJXJXJXJXJXJXJXJXJXJXJXJXJXwX< & E.e   x.JXCXbX5Xm W f.6XX -XZ.4 =.bXFXJXGXQ   i C.o 0 kXJXJXJXJXJXJXJXJXJXJXJXJXJXJXJXJXJXJX:X",
":XJXJXJXJXJXJXJXJXJXJXJXJXJXJXJXJXJXZXz @ I.g   ` CXo.O   z  XU b.ZXZ AXL a. Xd   p T.nXs   b n.  L GXJXJXJXJXJXJXJXJXJXJXJXJXJXJXJXJXJX:X",
":XJXJXJXJXJXJXJXJXJXJXJXJXJXJXJXJXJX,.  G.C   g MX>.        $ `.N lXc.{.o.`.X         /.9X:   ` 4.  r.JXJXJXJXJXJXJXJXJXJXJXJXJXJXJXJXJX:X",
":XJXJXJXJXJXJXJXJXJXJXJXJXJXJXJXJX`.. <.@.  : T._.&           < ].j.0X+.0X:           H ).T..   y.L X +XJXJXJXJXJXJXJXJXJXJXJXJXJXJXJXJX:X",
":XJXJXJXJXJXJXJXJXJXJXJXJXJXJXJXdX3 j C.  . S.w r.      V ^ *   1.q.FXa.*.  7 :.B     l <.Q 9.  X ~.w i BXJXJXJXJXJXJXJXJXJXJXJXJXJXJXJX:X",
":XJXJXJXJXJXJXJXJXJXJXJXJXJXJXJXL o ~.;   ,.J   O.5     x 7X3X9 > Q.hXoX% z fXW.<     ( E   k.G   r E.  1.JXJXJXJXJXJXJXJXJXJXJXJXJXJXJX:X",
":XJXJXJXJXJXJXJXJXJXJXJXJXJXJX[.  :.R   z t.    * e.X     z./ (.  ].N.L.+ yX] 5.    @ L.+   @ ].6   %.X.O 6XJXJXJXJXJXJXJXJXJXJXJXJXJXJX:X",
":XJXJXJXJXJXJXJXJXJXJXJXJXJXHXv 3 U.  o T.$       t l.[ $.:., HX6 q.9 *.( lX. l._ T g.q       d K.  o oX* R JXJXJXJXJXJXJXJXJXJXJXJXJXJX:X",
":XJXJXJXJXJXJXJXJXJXJXJXJXJX!.  j.j   :.L   =.d.~   X 1 =   t JXK %.r.B >.CX%   u g X % O.x._   d.L   T 5.  OXJXJXJXJXJXJXJXJXJXJXJXJXJX:X",
":XJXJXJXJXJXJXJXJXJXJXJXJXJXG = P.  : E.    i / nXk         z.JXn L nX- / JX-.        >.kXW L   &  X@   {.$ T JXJXJXJXJXJXJXJXJXJXJXJXJX:X",
":XJXJXJXJXJXJXJXJXJXJXJXJXsXX $.A   q.J         3.>.  : #.:XJX<X  u bX  , nXSX~.W o   XXU         =.{   #.] . 9XJXJXJXJXJXJXJXJXJXJXJXJX:X",
":XJXJXJXJXJXJXJXJXJXJXJXJXz.  Z.. X ).          i x.  ^.XX^.z.9   + 3X    N C.(.&Xa.  &X          & (.  & R.  p.JXJXJXJXJXJXJXJXJXJXJXJX:X",
":XJXJXJXJXJXJXJXJXJXJXJXJXN . V.  v e.          : m.  S             K.            x   ].            n.6   T.@ n JXJXJXJXJXJXJXJXJXJXJXJX:X",
":XJXJXJXJXJXJXJXJXJXJXJXCX@ 6 >.  5.k   0 0.l.S i 6.    % X   3   X |.    -   , X     W.X | b.r.6   Q |   ,.l # SXJXJXJXJXJXJXJXJXJXJXJX:X",
":XJXJXJXJXJXJXJXJXJXJXJXtX  v ..  S.@ P 1X[ V x.3XH     j 5 k ~.  c FX& X .X# c 1     k.{.<.s H #Xf 5 d.  ! U   yXJXJXJXJXJXJXJXJXJXJXJX:X",
":XJXJXJXJXJXJXJXJXJXJXJX0X  v )   F.5 5X3 F =.% eXy * i L.  f.r.( o 8.  &./.` o U.5 , ;.=X5 ' y e >X> A.  Y P   5XJXJXJXJXJXJXJXJXJXJXJX:X",
":XJXJXJXJXJXJXJXJXJXJXJXgX  r 5.  F.p.6.) 8.n.=XK.k yXnX .o Z.  a.5   w d.o H.  7.eX2Xo.q.bXQ z.4 n.<.M.  | z   eXJXJXJXJXJXJXJXJXJXJXJX:X",
":XJXJXJXJXJXJXJXJXJXJXJXFXo . n.  t.gX^ g.9 k.Z f.= SXXX. +.F / T q.: r.;.A O.I + <X7Xm +.~ ) ( N 2.dX2.  z.$ . ZXJXJXJXJXJXJXJXJXJXJXJX:X",
":XJXJXJXJXJXJXJXJXJXJXJXJXk   z.X A 3Xu.i J.m >...! 8X4 & C.  (.0.v ..{ 1.V.X T.$ s fXx v.! S E.# F.5Xc . b.  a JXJXJXJXJXJXJXJXJXJXJXJX:X",
":XJXJXJXJXJXJXJXJXJXJXJXJXz.  Y L . !. .P 6 #.b n H.7   z.y T |   e.6 3.  3.y j k.  i U.u N ! - U | }.  L _   9.JXJXJXJXJXJXJXJXJXJXJXJX:X",
":XJXJXJXJXJXJXJXJXJXJXJXJXlX,   c.X ] m i _ L K H     o.! g h..   s ;X%   o h.1 ' -.  X ] ~ P [ B 2.D + z.. $ eXJXJXJXJXJXJXJXJXJXJXJXJX:X",
":XJXJXJXJXJXJXJXJXJXJXJXJXJXB.  e 7.  6.h         X =.) ^ g.O q w.  M   %.> # i.c ( k.2         H 3.  8.y   r.JXJXJXJXJXJXJXJXJXJXJXJXJX:X",
":XJXJXJXJXJXJXJXJXJXJXJXJXJXGX'   g 7.% { 0.,.O.0.q.J k.E   d rXlX    o bX*X: . ] y.m k.g.8.e.e.' < d.l   Y SXJXJXJXJXJXJXJXJXJXJXJXJXJX:X",
":XJXJXJXJXJXJXJXJXJXJXJXJXJXJXAX/   = <.8..._ 3.-.<._ o   E vXJXsX  : 4 JXJXrXB   * #.<.O.P c P x.y.<   G NXJXJXJXJXJXJXJXJXJXJXJXJXJXJX:X",
":XJXJXJXJXJXJXJXJXJXJXJXJXJXJXJXJXC.,     1 f 7 O     j {.JXJXJX#X4 |.O FXJXJXDXA.q     5 S K j +   # i.FXJXJXJXJXJXJXJXJXJXJXJXJXJXJXJX:X",
":XJXJXJXJXJXJXJXJXJXJXJXJXJXJXJXJXJXNXZ.U y 5 f J 6.;XJXJXJXJXJXF.h lX  &XJXJXJXJXZX!.] p , . 9 A r.gXJXJXJXJXJXJXJXJXJXJXJXJXJXJXJXJXJX:X",
":XJXJXJXJXJXJXJXJXJXJXJXJXJXJXJXJXJXJXJXJXJXJXJXJXJXJXJXJXJXJXJX'   (.  r.JXJXJXJXJXJXJXJXJXJXJXJXJXJXJXJXJXJXJXJXJXJXJXJXJXJXJXJXJXJXJX:X",
":XJXJXJXJXJXJXJXJXJXJXJXJXJXJXJXJXJXJXJXJXJXJXJXJXJXJXJXJXJXJXNX:   T.  z JXJXJXJXJXJXJXJXJXJXJXJXJXJXJXJXJXJXJXJXJXJXJXJXJXJXJXJXJXJXJX:X",
":XJXJXJXJXJXJXJXJXJXJXJXJXJXJXJXJXJXJXJXJXJXJXJXJXJXJXJXJXJXJXS.  w #X&   =XJXJXJXJXJXJXJXJXJXJXJXJXJXJXJXJXJXJXJXJXJXJXJXJXJXJXJXJXJXJX:X",
":XJXJXJXJXJXJXJXJXJXJXJXJXJXJXJXJXJXJXJXJXJXJXJXJXJXJXJXJXJXHXk   6.s }   [ JXJXJXJXJXJXJXJXJXJXJXJXJXJXJXJXJXJXJXJXJXJXJXJXJXJXJXJXJXJX:X",
":XJXJXJXJXJXJXJXJXJXJXJXJXJXJXJXJXJXJXJXJXJXJXJXJXJXJXJXJXJX_.  j 6.  Z.# + yXJXJXJXJXJXJXJXJXJXJXJXJXJXJXJXJXJXJXJXJXJXJXJXJXJXJXJXJXJX:X",
":XJXJXJXJXJXJXJXJXJXJXJXJXJXJXJXJXJXJXJXJXJXJXJXJXJXJXJXJXGXc X (.1   ~ r.  ) JXJXJXJXJXJXJXJXJXJXJXJXJXJXJXJXJXJXJXJXJXJXJXJXJXJXJXJXJX:X",
":XJXJXJXJXJXJXJXJXJXJXJXJXJXJXJXJXJXJXJXJXJXJXJXJXJXJXJXJXA.  t.1.v M d !.N   XXJXJXJXJXJXJXJXJXJXJXJXJXJXJXJXJXJXJXJXJXJXJXJXJXJXJXJXJX:X",
":XJXJXJXJXJXJXJXJXJXJXJXJXJXJXJXJXJXJXJXJXJXJXJXJXJXJXJXqX; D R.:.` } -.f.^.8 r jXJXJXJXJXJXJXJXJXJXJXJXJXJXJXJXJXJXJXJXJXJXJXJXJXJXJXJX:X",
":XJXJXJXJXJXJXJXJXJXJXJXJXJXJXJXJXJXJXJXJXJXJXJXJXJXJXiXp   X               .   B VXJXJXJXJXJXJXJXJXJXJXJXJXJXJXJXJXJXJXJXJXJXJXJXJXJXJX:X",
":XJXJXJXJXJXJXJXJXJXJXJXJXJXJXJXJXJXJXJXJXJXJXJXJXJXGXs.%.%.%.%.%.%.%.%.%.%.%.%.%.I.JXJXJXJXJXJXJXJXJXJXJXJXJXJXJXJXJXJX%XW.W.*XJXJXJXJX:X",
":XJXJXJXJXJXJXJXJXJXJXJXJXJXJXJXJXJXJXJXJXJXJXJXJXJXJXJXJXJXJXJXJXJXJXJXJXJXJXJXJXJXJXJXJXJXJXJXJXJXJXJXJXJXJXJXJXJXJXJX/.    {.JXJXJXJX:X",
":XJXJXJXJXJXJXJXJXJXJXJXJXJXJXJXJXJXJXJXJXJXJXJXJXJXJXJXJXJXJXJXJXJXJXJXJXJXJXJXJXJXJXJXJXJXJXJXJXJXJXJXJXJXJXJXJXDXW.E.VX5 0 ZXT.~.FXJX:X",
":XJXJXJXJXJXJXJXJXJXJXJXJXJXJXJXJXJXJXJXJXJXJXJXJXJXJXJXJXJXJXJXJXJXJXJXJXJXJXJXJXJXJXJXJXJXJXJXJXJXJXJXJXJXJXJXJX .    L { O.I     %.JX:X",
":XJXJXJXJXJXJXJXJXJXJXJXJXJXJXJXJXJXJXJXJXJXJXJXJXJXJXJXJXJXJXJXJXJXJXJXJXJXJXJXJXJXJXJXJXJXJXJXJXJXJXJXJXJXJXJXJX,       , <       6 JX:X",
":XJXJXJXJXJXJXJXJXJXJXJXJXJXJXJXJXJXJXJXJXJXJXJXJXJXJXJXJXJXJXJXJXJXJXJXJXJXJXJXJXJXJXJXJXJXJXJXJXJXJXJXJXJXJXJXJXc                 V JX:X",
":XJXJXJXJXJXJXJXJXJXJXJXJXJXJXJXJXJXJXJXJXJXJXJXJXJXJXJXJXJXJXJXJXJXJXJXJXJXJXJXJXJXJXJXJXJXJXJXJXJXJXJXJXJXJXJXJXI.                !.JX:X",
":XJXJXJXJXJXJXJXJXJXJXJXJXJXJXJXJXJXJXJXJXJXJXJXJXJXJXJXJXJXJXJXJXJXJXJXJXJXJXJXJXJXJXJXJXJXJXJXJXJXJXJXJXJXJXJXJXHXQ             / JXJX:X",
":XJXJXJXJXJXJXJXJXJXJXJXJXJXJXJXJXJXJXJXJXJXJXJXJXJXJXJXJXJXJXJXJXJXJXJXJXJXJXJXJXJXJXJXJXJXJXJXJXJXJXJXJXJXJXJXJXJXkX7         0 zXJXJX:X",
":XJXJXJXJXJXJXJXJXJXJXJXJXJXJXJXJXJXJXJXJXJXJXJXJXJXJXJXJXJXJXJXJXJXJXJXJXJXJXJXJXJXJXJXJXJXJXJXJXJXJXJXJXJXJXJXJXJXJXOX+     @ &XJXJXJX:X",
":XJXJXJXJXJXJXJXJXJXJXJXJXJXJXJXJXJXJXJXJXJXJXJXJXJXJXJXJXJXJXJXJXJXJXJXJXJXJXJXJXJXJXJXJXJXJXJXJXJXJXJXJXJXJXJXJXJXJXJXm.    S.JXJXJXJX:X",
":XJXJXJXJXJXJXJXJXJXJXJXJXJXJXJXJXJXJXJXJXJXJXJXJXJXJXJXJXJXJXJXJXJXJXJXJXJXJXJXJXJXJXJXJXJXJXJXJXJXJXJXJXJXJXJXJXJXJXJXJX} @.JXJXJXJXJX:X",
":XJXJXJXJXJXJXJXJXJXJXJXJXJXJXJXJXJXJXJXJXJXJXJXJXJXJXJXJXJXJXJXJXJXJXJXJXJXJXJXJXJXJXJXJXJXJXJXJXJXJXJXJXJXJXJXJXJXJXJXJXkXcXJXJXJXJXJX:X",
":XJXJXJXJXJXJXJXJXJXJXJXJXJXJXJXJXJXJXJXJXJXJXJXJXJXJXJXJXJXJXJXJXJXJXJXJXJXJXJXJXJXJXJXJXJXJXJXJXJXJXJXJXJXJXJXJXJXJXJXJXJXJXJXJXJXJXJX:X",
":XJXJXJXJXJXJXJXJXJXJXJXJXJXJXJXJXJXJXJXJXJXJXJXJXJXJXJXJXJXJXJXJXJXJXJXJXJXJXJXJXJXJXJXJXJXJXJXJXJXJXJXJXJXJXJXJX,.] JXJXJXJXJXf.A JXJX:X",
":XJXJXJXJXJXJXJXJXJXJXJXJXJXJXJXJXJXJXJXJXJXJXJXJXJXJXJXJXJXJXJXJXJXJXJXJXJXJXJXJXJXJXJXJXJXJXJXJXJXJXJXJXJXJXJXJX7X= BXJXJXJXJXk Y.JXJX:X",
":XJXJXJXJXJXJXJXJXJXJXJXJXJXJXJXJXJXJXJXJXJXJXJXJXJXJXJXJXJXJXJXJXJXJXJXJXJXJXJXJXJXJXJXJXJXJXJXJXJXJXJXJXJXJXJXJXJXS W.JXJXJX7X4 AXJXJX:X",
":XJXJXJXJXJXJXJXJXJXJXJXJXJXJXJXJXJXJXJXJXJXJXJXJXJXJXJXJXJXJXJXJXJXJXJXJXJXJXJXJXJXJXJXJXJXJXJXJXJXJXJXJXJXJXJXJXJXU.O : : : # 0.JXJXJX:X",
":XJXJXJXJXJXJXJXJXJXJXJXJXJXJXJXJXJXJXJXJXJXJXJXJXJXJXJXJXJXJXJXJXJXJXJXJXJXJXJXJXJXJXJXJXJXJXJXJXJXJXJXJXJXJXJXJXJXAX5 aXJXSX7 yXJXJXJX:X",
":XJXJXJXJXJXJXJXJXJXJXJXJXJXJXJXJXJXJXJXJXJXJXJXJXJXJXJXJXJXJXJXJXJXJXJXJXJXJXJXJXJXJXJXJXJXJXJXJXJXJXJXJXJXJXJXJXJXJX5.p.JX~.R JXJXJXJX:X",
":XJXJXJXJXJXJXJXJXJXJXJXJXJXJXJXJXJXJXJXJXJXJXJXJXJXJXJXJXJXJXJXJXJXJXJXJXJXJXJXJXJXJXJXJXJXJXJXJXJXJXJXJXJXJXJXJXJXJXwXt HXU ].JXJXJXJX:X",
":XJXJXJXJXJXJXJXJXJXJXJXJXJXJXJXJXJXJXJXJXJXJXJXJXJXJXJXJXJXJXJXJXJXJXJXJXJXJXJXJXJXJXJXJXJXJXJXJXJXJXJXJXJXJXJXJXJXJXJXJ L.u GXJXJXJXJX:X",
":XJXJXJXJXJXJXJXJXJXJXJXJXJXJXJXJXJXJXJXJXJXJXJXJXJXJXJXJXJXJXJXJXJXJXJXJXJXJXJXJXJXJXJXJXJXJXJXJXJXJXJXJXJXJXJXJXJXJXJXQ.: g.JXJXJXJXJX:X",
"#XHXJXJXJXJXJXJXJXJXJXJXJXJXJXJXJXJXJXJXJXJXJXJXJXJXJXJXJXJXJXJXJXJXJXJXJXJXJXJXJXJXJXJXJXJXJXJXJXJXJXJXJXJXJXJXJXJXJXJXJXJXJXJXJXJXJXHX$X",
"SX@X:X>X>X>X>X>X>X>X>X>X>X>X>X>X>X>X>X>X>X>X>X>X>X>X>X>X>X>X>X>X>X>X>X>X>X>X>X>X>X>X>X>X>X>X>X>X>X>X>X>X>X>X>X>X>X>X>X>X>X>X>X>X>X>X:X@XSX"
};
