/* XPM */
static const char *ace_hearts[] = {
/* columns rows colors chars-per-pixel */
"69 100 66 1 ",
"  c #DF0000",
". c #D50E0E",
"X c #DB0C0C",
"o c #D41212",
"O c #DD1616",
"+ c #D51B1B",
"@ c #DC1B1B",
"# c #E00606",
"$ c #E10C0C",
"% c #E11414",
"& c #E21C1C",
"* c #D52424",
"= c #DB2424",
"- c #D52C2C",
"; c #DA2C2C",
": c #D63333",
"> c #DC3434",
", c #D63A3A",
"< c #DB3D3D",
"1 c #E32424",
"2 c #E42C2C",
"3 c #E53434",
"4 c #E63B3B",
"5 c #D74242",
"6 c #DC4444",
"7 c #DB4C4C",
"8 c #DC5454",
"9 c #DD5B5B",
"0 c #E64242",
"q c #E84545",
"w c #E34C4C",
"e c #E84B4B",
"r c #E35454",
"t c #E95252",
"y c #E35C5C",
"u c #EA5A5A",
"i c #DF6161",
"p c #E26464",
"a c #EC6262",
"s c #E56969",
"d c #EC6C6C",
"f c #ED7474",
"g c #EF7B7B",
"h c #EF8181",
"j c #ED8C8C",
"k c #F08585",
"l c #F08B8B",
"z c #F19393",
"x c #F39B9B",
"c c #F3A4A4",
"v c #F4ABAB",
"b c #F6B5B5",
"n c #F7BDBD",
"m c #C3C3C3",
"M c #CBCBCB",
"N c #F7C3C3",
"B c #F8C5C5",
"V c #F6CACA",
"C c #F8CCCC",
"Z c #F5D3D3",
"A c #FAD5D5",
"S c #FADDDD",
"D c #FBE3E3",
"F c #FCECEC",
"G c #FDF3F3",
"H c #FFFFFF",
/* pixels */
"HmMMMMMMMMMMMMMMMMMMMMMMMMMMMMMMMMMMMMMMMMMMMMMMMMMMMMMMMMMMMMMMMMMmG",
"mHHHHHHHHHHHHHHHHHHHHHHHHHHHHHHHHHHHHHHHHHHHHHHHHHHHHHHHHHHHHHHHHHHHm",
"MHHHHHHHHHHHHHHHHHHHHHHHHHHHHHHHHHHHHHHHHHHHHHHHHHHHHHHHHHHHHHHHHHHHM",
"MHHHHHh$vHHHHHHHHHHHHHHHHHHHHHHHHHHHHHHHHHHHHHHHHHHHHHHHHHHHHHHHHHHHM",
"MHHHHH1c0HHHHHHHHHHHHHHHHHHHHHHHHHHHHHHHHHHHHHHHHHHHHHHHHHHHHHHHHHHHM",
"MHHHHvqH&SHHHHHHHHHHHHHHHHHHHHHHHHHHHHHHHHHHHHHHHHHHHHHHHHHHHHHHHHHHM",
"MHHHHevHkfHHHHHHHHHHHHHHHHHHHHHHHHHHHHHHHHHHHHHHHHHHHHHHHHHHHHHHHHHHM",
"MHHHS@HHD%HHHHHHHHHHHHHHHHHHHHHHHHHHHHHHHHHHHHHHHHHHHHHHHHHHHHHHHHHHM",
"MHHHf#%$%#vHHHHHHHHHHHHHHHHHHHHHHHHHHHHHHHHHHHHHHHHHHHHHHHHHHHHHHHHHM",
"MHHH%AHHHc4HHHHHHHHHHHHHHHHHHHHHHHHHHHHHHHHHHHHHHHHHHHHHHHHHHHHHHHHHM",
"MHHc3HHHHG$AHHHHHHHHHHHHHHHHHHHHHHHHHHHHHHHHHHHHHHHHHHHHHHHHHHHHHHHHM",
"MHH4kHHHHHudHHHHHHHHHHHHHHHHHHHHHHHHHHHHHHHHHHHHHHHHHHHHHHHHHHHHHHHHM",
"MHHHHHHHHHHHHHHHHHHHHHHHHHHHHHHHHHHHHHHHHHHHHHHHHHHHHHHHHHHHHHHHHHHHM",
"MHGhugGHxufSHHHHHHHHHHHHHHHHHHHHHHHHHHHHHHHHHHHHHHHHHHHHHHHHHHHHHHHHM",
"MH3   ez   $SHHHHHHHHHHHHHHHHHHHHHHHHHHHHHHHHHHHHHHHHHHHHHHHHHHHHHHHm",
"MN    #%    gHHHHHHHHHHHHHHHHHHHHHHHHHHHHHHHHHHHHHHHHHHHHHHHHHHHHHHHM",
"Mv          dHHHHHHHHHHHHHHHHHHHHHHHHHHHHHHHHHHHHHHHHHHHHHHHHHHHHHHHM",
"MF%         nHHHHHHHHHHHHHHHHHHHHHHHHHHHHHHHHHHHHHHHHHHHHHHHHHHHHHHHM",
"MHv       #aHHHHHHHHHHHHHHHHHHHHHHHHHHHHHHHHHHHHHHHHHHHHHHHHHHHHHHHHM",
"MHHg     #4GHHHHHHHHHHHHHHHHHHHHHHHHHHHHHHHHHHHHHHHHHHHHHHHHHHHHHHHHM",
"MHHHt   #1FHHHHHHHHHHHHHHHHHHHHHHHHHHHHHHHHHHHHHHHHHHHHHHHHHHHHHHHHHM",
"MHHHG3  XAHHHHHHHHHHHHHHHHHHHHHHHHHHHHHHHHHHHHHHHHHHHHHHHHHHHHHHHHHHM",
"MHHHHS$ vHHHHHHHHHHHHHHHHHHHHHHHHHHHHHHHHHHHHHHHHHHHHHHHHHHHHHHHHHHHM",
"MHHHHHjeHHHHHHHHHHHHHHHHHHHHHHHHHHHHHHHHHHHHHHHHHHHHHHHHHHHHHHHHHHHHM",
"MHHHHHFnHHHHHHHHHHHHHHHHHHHHHHHHHHHHHHHHHHHHHHHHHHHHHHHHHHHHHHHHHHHHM",
"MHHHHHHHHHHHHHHHHHHHHHHHHHHHHHHHHHHHHHHHHHHHHHHHHHHHHHHHHHHHHHHHHHHHM",
"MHHHHHHHHHHHHHHHHHHHHGSBNAGHHHHHHHHHHHHHHHFCBCSHHHHHHHHHHHHHHHHHHHHHM",
"MHHHHHHHHHHHHHHHHHSzr332221rvHHHHHHHHHHFjq2;3>34dvGHHHHHHHHHHHHHHHHHM",
"MHHHHHHHHHHHHHHHFg06<<,>-**=&0SHHHHHHHv3>3>>>>>340evHHHHHHHHHHHHHHHHM",
"MHHHHHHHHHHHHHHCy77776,,:-*@@O1CHHHHHj=<66<<,>>>340qfFHHHHHHHHHHHHHHM",
"MHHHHHHHHHHHHHZ88999875,:-*@O&%1DHHHb14ww65,>,>>444qqdGHHHHHHHHHHHHHM",
"MHHHHHHHHHHHHF989ppy975,-;@@%%$%uHHF1=6rw6<,::>><44qqekHHHHHHHHHHHHHM",
"MHHHHHHHHHHHHj9ipssp87<321&%%%$$XNHfO>600,,,:->3340qqeeCHHHHHHHHHHHHM",
"MHHHHHHHHHHHS89ipssy763211&&%%$$#uG%@->,,>:->-;33400qeedHHHHHHHHHHHHM",
"MHHHHHHHHHHHc99ipp9803211&&&%%$$#$xX+-----;-=2334440qeetDHHHHHHHHHHHM",
"MHHHHHHHHHHHi9999880>3222&&%%$$$##3X++*****=22;33440qeetvHHHHHHHHHHHM",
"MHHHHHHHHHHHr8888763222111&%%$$##  .oo++@=1122234400qeetzHHHHHHHHHHHM",
"MHHHHHHHHHHFw87756443322&&&&%%$$#  X.oo+&&&122323440qeetgHHHHHHHHHHHM",
"MHHHHHHHHHHD7877664322212&&%%$$$## XXXOO&&&122243440qeetfHHHHHHHHHHHm",
"MHHHHHHHHHHG7776644322221&&&%%$$###XXO%%&&111223444qqeetkHHHHHHHHHHHM",
"MHHHHHHHHHHHy7700443332111&&%%$$$#$$X%%%&&1122334400eeetxHHHHHHHHHHHM",
"MHHHHHHHHHHHje0q044332221&&&%%%$$$$$$%%&&&1122243440qeetCHHHHHHHHHHHM",
"MHHHHHHHHHHHBeeq0443332111&&%%%$$$$%$%%%&1122233444qqeeaGHHHHHHHHHHHM",
"MHHHHHHHHHHHHse004443222111&&%%%%$%$%%&&&11122234400eetvHHHHHHHHHHHHM",
"MHHHHHHHHHHHHBeqq44433221&1&&&&%%%%%%%&&&1122333440qeeuGHHHHHHHHHHHHM",
"MHHHHHHHHHHHHHgq00443322211&&%%%%%%%%&&&&1112234440qeeBHHHHHHHHHHHHHM",
"mHHHHHHHHHHHHHFtq44433222111&&&&%%%%&&&111222333440qekHHHHHHHHHHHHHHM",
"MHHHHHHHHHHHHHHCq04433322211&&&&&&&&&&&&11223334400qaGHHHHHHHHHHHHHHM",
"MHHHHHHHHHHHHHHHxq4443322211&&&&&&&&&1111122333444qeSHHHHHHHHHHHHHHHM",
"MHHHHHHHHHHHHHHHHf0443332221111&&&&&&&11222233440qqnHHHHHHHHHHHHHHHHM",
"MHHHHHHHHHHHHHHHHGu443332221111&11&111111223334440xHHHHHHHHHHHHHHHHHM",
"MHHHHHHHHHHHHHHHHHDt4433322211211111&211222333444kHHHHHHHHHHHHHHHHHHM",
"MHHHHHHHHHHHHHHHHHHAq443322222111111112222333444fHHHHHHHHHHHHHHHHHHHM",
"MHHHHHHHHHHHHHHHHHHHB44333222222211222222333344aFHHHHHHHHHHHHHHHHHHHM",
"MHHHHHHHHHHHHHHHHHHHHv433332222221222222223344uDHHHHHHHHHHHHHHHHHHHHM",
"MHHHHHHHHHHHHHHHHHHHHHz43333222222222222434440SHHHHHHHHHHHHHHHHHHHHHM",
"MHHHHHHHHHHHHHHHHHHHHHHg443323222222323334340CHHHHHHHHHHHHHHHHHHHHHHM",
"MHHHHHHHHHHHHHHHHHHHHHHHa4333332223233333344bHHHHHHHHHHHHHHHHHHHHHHHM",
"MHHHHHHHHHHHHHHHHHHHHHHHGu43333333333333444xHHHHHHHHHHHHHHHHHHHHHHHHM",
"MHHHHHHHHHHHHHHHHHHHHHHHHDe344333333334344gHHHHHHHHHHHHHHHHHHHHHHHHHM",
"MHHHHHHHHHHHHHHHHHHHHHHHHHN44444433343444uGHHHHHHHHHHHHHHHHHHHHHHHHHM",
"MHHHHHHHHHHHHHHHHHHHHHHHHHHz444444444444qDHHHHHHHHHHHHHHHHHHHHHHHHHHM",
"MHHHHHHHHHHHHHHHHHHHHHHHHHHHf4444444444qnHHHHHHHHHHHHHHHHHHHHHHHHHHHM",
"MHHHHHHHHHHHHHHHHHHHHHHHHHHHFtq4444q44qzHHHHHHHHHHHHHHHHHHHHHHHHHHHHM",
"MHHHHHHHHHHHHHHHHHHHHHHHHHHHHV04400400uHHHHHHHHHHHHHHHHHHHHHHHHHHHHHM",
"MHHHHHHHHHHHHHHHHHHHHHHHHHHHHHjq00000qAHHHHHHHHHHHHHHHHHHHHHHHHHHHHHM",
"MHHHHHHHHHHHHHHHHHHHHHHHHHHHHHFtqqqqqzHHHHHHHHHHHHHHHHHHHHHHHHHHHHHHM",
"MHHHHHHHHHHHHHHHHHHHHHHHHHHHHHHveqqqtFHHHHHHHHHHHHHHHHHHHHHHHHHHHHHHM",
"MHHHHHHHHHHHHHHHHHHHHHHHHHHHHHHHaeeqvHHHHHHHHHHHHHHHHHHHHHHHHHHHHHHHM",
"MHHHHHHHHHHHHHHHHHHHHHHHHHHHHHHHbeeuGHHHHHHHHHHHHHHHHHHHHHHHHHHHHHHHM",
"MHHHHHHHHHHHHHHHHHHHHHHHHHHHHHHHHuexHHHHHHHHHHHHHHHHHHHHHHHHHHHHHHHHM",
"MHHHHHHHHHHHHHHHHHHHHHHHHHHHHHHHHctDHHHHHHHHHHHHHHHHHHHHHHHHHHHHHHHHM",
"MHHHHHHHHHHHHHHHHHHHHHHHHHHHHHHHHSdHHHHHHHHHHHHHHHHHHHHHHHHHHHHHHHHHM",
"MHHHHHHHHHHHHHHHHHHHHHHHHHHHHHHHHHNHHHHHHHHHHHHHHHHHHHHHHHHHHHHHHHHHM",
"MHHHHHHHHHHHHHHHHHHHHHHHHHHHHHHHHHHHHHHHHHHHHHHHHHHHHHHHHHHHHGHHHHHHM",
"MHHHHHHHHHHHHHHHHHHHHHHHHHHHHHHHHHHHHHHHHHHHHHHHHHHHHHHHHHHHHxvHHHHHM",
"MHHHHHHHHHHHHHHHHHHHHHHHHHHHHHHHHHHHHHHHHHHHHHHHHHHHHHHHHHHHH12HHHHHM",
"mHHHHHHHHHHHHHHHHHHHHHHHHHHHHHHHHHHHHHHHHHHHHHHHHHHHHHHHHHHHd  gHHHHM",
"MHHHHHHHHHHHHHHHHHHHHHHHHHHHHHHHHHHHHHHHHHHHHHHHHHHHHHHHHHHx    cHHHM",
"MHHHHHHHHHHHHHHHHHHHHHHHHHHHHHHHHHHHHHHHHHHHHHHHHHHHHHHHHHn#    XCHHM",
"MHHHHHHHHHHHHHHHHHHHHHHHHHHHHHHHHHHHHHHHHHHHHHHHHHHHHHHHHS%      &DHM",
"MHHHHHHHHHHHHHHHHHHHHHHHHHHHHHHHHHHHHHHHHHHHHHHHHHHHHHHHH1#       4HM",
"MHHHHHHHHHHHHHHHHHHHHHHHHHHHHHHHHHHHHHHHHHHHHHHHHHHHHHHHx          bM",
"MHHHHHHHHHHHHHHHHHHHHHHHHHHHHHHHHHHHHHHHHHHHHHHHHHHHHHHHg          jM",
"MHHHHHHHHHHHHHHHHHHHHHHHHHHHHHHHHHHHHHHHHHHHHHHHHHHHHHHHn   #31# # CM",
"MHHHHHHHHHHHHHHHHHHHHHHHHHHHHHHHHHHHHHHHHHHHHHHHHHHHHHHHHf  %Cn# XlHM",
"MHHHHHHHHHHHHHHHHHHHHHHHHHHHHHHHHHHHHHHHHHHHHHHHHHHHHHHHHHFZGHHGCFHHM",
"MHHHHHHHHHHHHHHHHHHHHHHHHHHHHHHHHHHHHHHHHHHHHHHHHHHHHHHHHHHHHHHHHHHHM",
"MHHHHHHHHHHHHHHHHHHHHHHHHHHHHHHHHHHHHHHHHHHHHHHHHHHHHHHHHduHHHHHk4HHM",
"MHHHHHHHHHHHHHHHHHHHHHHHHHHHHHHHHHHHHHHHHHHHHHHHHHHHHHHHHA$GHHHH2vHHM",
"MHHHHHHHHHHHHHHHHHHHHHHHHHHHHHHHHHHHHHHHHHHHHHHHHHHHHHHHHH4vHHHA%HHHM",
"MHHHHHHHHHHHHHHHHHHHHHHHHHHHHHHHHHHHHHHHHHHHHHHHHHHHHHHHHHc#$%$#gHHHM",
"MHHHHHHHHHHHHHHHHHHHHHHHHHHHHHHHHHHHHHHHHHHHHHHHHHHHHHHHHHG%DHH&SHHHM",
"MHHHHHHHHHHHHHHHHHHHHHHHHHHHHHHHHHHHHHHHHHHHHHHHHHHHHHHHHHHfgHveHHHHM",
"MHHHHHHHHHHHHHHHHHHHHHHHHHHHHHHHHHHHHHHHHHHHHHHHHHHHHHHHHHHS1HqbHHHHM",
"MHHHHHHHHHHHHHHHHHHHHHHHHHHHHHHHHHHHHHHHHHHHHHHHHHHHHHHHHHHH0c1HHHHHM",
"MHHHHHHHHHHHHHHHHHHHHHHHHHHHHHHHHHHHHHHHHHHHHHHHHHHHHHHHHHHHv$lHHHHHM",
"MHHHHHHHHHHHHHHHHHHHHHHHHHHHHHHHHHHHHHHHHHHHHHHHHHHHHHHHHHHHHHHHHHHHM",
"mHHHHHHHHHHHHHHHHHHHHHHHHHHHHHHHHHHHHHHHHHHHHHHHHHHHHHHHHHHHHHHHHHHHm",
"GmMMMMMMMMMMMMMMMMMMMMMMMMMMMMMMMMMMMMMMMMMMMMMMMMMMMMMMMMMMMMMMMMMmG"
};
