/* XPM */
static const char *ace_diamonds[] = {
/* columns rows colors chars-per-pixel */
"69 100 66 1 ",
"  c #DF0101",
". c #D30B0B",
"X c #DD0C0C",
"o c #CF1616",
"O c #CD1D1D",
"+ c #D21212",
"@ c #DD1414",
"# c #D61818",
"$ c #DC1C1C",
"% c #E00606",
"& c #E10D0D",
"* c #E11414",
"= c #E21C1C",
"- c #CB2222",
"; c #CE2D2D",
": c #D32525",
"> c #DC2727",
", c #D42E2E",
"< c #DB2A2A",
"1 c #D23434",
"2 c #DB3434",
"3 c #D33C3C",
"4 c #DA3C3C",
"5 c #E32323",
"6 c #E42C2C",
"7 c #E53434",
"8 c #E63C3C",
"9 c #CF4343",
"0 c #D34343",
"q c #D94141",
"w c #D64C4C",
"e c #D84D4D",
"r c #D65151",
"t c #DA5454",
"y c #E74242",
"u c #E84545",
"i c #E74848",
"p c #E84A4A",
"a c #EA5353",
"s c #EA5959",
"d c #DF6262",
"f c #E16262",
"g c #EC6262",
"h c #E56D6D",
"j c #ED6D6D",
"k c #EE7474",
"l c #EE7B7B",
"z c #EF8383",
"x c #F08686",
"c c #F18B8B",
"v c #F29494",
"b c #F39C9C",
"n c #F4A3A3",
"m c #F5ACAC",
"M c #F6B4B4",
"N c #F7BDBD",
"B c #C3C3C3",
"V c #CBCBCB",
"C c #F7C1C1",
"Z c #F9CCCC",
"A c #FAD4D4",
"S c #FBDCDC",
"D c #FBE2E2",
"F c #FCEBEB",
"G c #FDF3F3",
"H c #FFFFFF",
/* pixels */
"HBVVVVVVVVVVVVVVVVVVVVVVVVVVVVVVVVVVVVVVVVVVVVVVVVVVVVVVVVVVVVVVVVVBG",
"BHHHHHHHHHHHHHHHHHHHHHHHHHHHHHHHHHHHHHHHHHHHHHHHHHHHHHHHHHHHHHHHHHHHB",
"VHHHHHHHHHHHHHHHHHHHHHHHHHHHHHHHHHHHHHHHHHHHHHHHHHHHHHHHHHHHHHHHHHHHV",
"VHHHHHz*mHHHHHHHHHHHHHHHHHHHHHHHHHHHHHHHHHHHHHHHHHHHHHHHHHHHHHHHHHHHV",
"VHHHHH5buHHHHHHHHHHHHHHHHHHHHHHHHHHHHHHHHHHHHHHHHHHHHHHHHHHHHHHHHHHHV",
"VHHHHmiH5SHHHHHHHHHHHHHHHHHHHHHHHHHHHHHHHHHHHHHHHHHHHHHHHHHHHHHHHHHHV",
"VHHHHimHlkHHHHHHHHHHHHHHHHHHHHHHHHHHHHHHHHHHHHHHHHHHHHHHHHHHHHHHHHHHV",
"VHHHS$HHD=GHHHHHHHHHHHHHHHHHHHHHHHHHHHHHHHHHHHHHHHHHHHHHHHHHHHHHHHHHV",
"VHHHk&&&&%nHHHHHHHHHHHHHHHHHHHHHHHHHHHHHHHHHHHHHHHHHHHHHHHHHHHHHHHHHV",
"VHHG*AHHHm8HHHHHHHHHHHHHHHHHHHHHHHHHHHHHHHHHHHHHHHHHHHHHHHHHHHHHHHHHV",
"VHHn7HHHHG&SHHHHHHHHHHHHHHHHHHHHHHHHHHHHHHHHHHHHHHHHHHHHHHHHHHHHHHHHV",
"VHH8xHHHHHajHHHHHHHHHHHHHHHHHHHHHHHHHHHHHHHHHHHHHHHHHHHHHHHHHHHHHHHHV",
"VHHHHHCnHHHHHHHHHHHHHHHHHHHHHHHHHHHHHHHHHHHHHHHHHHHHHHHHHHHHHHHHHHHHV",
"VHHHHH8=GHHHHHHHHHHHHHHHHHHHHHHHHHHHHHHHHHHHHHHHHHHHHHHHHHHHHHHHHHHHV",
"VHHHHv  lHHHHHHHHHHHHHHHHHHHHHHHHHHHHHHHHHHHHHHHHHHHHHHHHHHHHHHHHHHHV",
"VHHHS*  &ZHHHHHHHHHHHHHHHHHHHHHHHHHHHHHHHHHHHHHHHHHHHHHHHHHHHHHHHHHHV",
"VHHF6    =SHHHHHHHHHHHHHHHHHHHHHHHHHHHHHHHHHHHHHHHHHHHHHHHHHHHHHHHHHV",
"VHS6      =AHHHHHHHHHHHHHHHHHHHHHHHHHHHHHHHHHHHHHHHHHHHHHHHHHHHHHHHHV",
"VHv        kHHHHHHHHHHHHHHHHHHHHHHHHHHHHHHHHHHHHHHHHHHHHHHHHHHHHHHHHV",
"VHHn      cHHHHHHHHHHHHHHHHHHHHHHHHHHHHHHHHHHHHHHHHHHHHHHHHHHHHHHHHHV",
"VHHHv    lHHHHHHHHHHHHHHHHHHHHHHHHHHHHHHHHHHHHHHHHHHHHHHHHHHHHHHHHHHV",
"VHHHHa  7HHHHHHHHHHHHHHHHHHHHHHHHHHHHHHHHHHHHHHHHHHHHHHHHHHHHHHHHHHHB",
"VHHHHDX ZHHHHHHHHHHHHHHHHHHHHHHHHFGHHHHHHHHHHHHHHHHHHHHHHHHHHHHHHHHHV",
"VHHHHHxjHHHHHHHHHHHHHHHHHHHHHHHHHbbHHHHHHHHHHHHHHHHHHHHHHHHHHHHHHHHHV",
"VHHHHHGSHHHHHHHHHHHHHHHHHHHHHHHHG88GHHHHHHHHHHHHHHHHHHHHHHHHHHHHHHHHV",
"VHHHHHHHHHHHHHHHHHHHHHHHHHHHHHHHn=5mHHHHHHHHHHHHHHHHHHHHHHHHHHHHHHHHV",
"VHHHHHHHHHHHHHHHHHHHHHHHHHHHHHHH8==yHHHHHHHHHHHHHHHHHHHHHHHHHHHHHHHHV",
"VHHHHHHHHHHHHHHHHHHHHHHHHHHHHHHn====mHHHHHHHHHHHHHHHHHHHHHHHHHHHHHHHV",
"VHHHHHHHHHHHHHHHHHHHHHHHHHHHHHG6*=*=7GHHHHHHHHHHHHHHHHHHHHHHHHHHHHHHV",
"VHHHHHHHHHHHHHHHHHHHHHHHHHHHHHc******vHHHHHHHHHHHHHHHHHHHHHHHHHHHHHHV",
"VHHHHHHHHHHHHHHHHHHHHHHHHHHHHF5******5FHHHHHHHHHHHHHHHHHHHHHHHHHHHHHV",
"VGHHHHHHHHHHHHHHHHHHHHHHHHHHHk****&**=lHHHHHHHHHHHHHHHHHHHHHHHHHHHHHV",
"VHHHHHHHHHHHHHHHHHHHHHHHHHHHZ***&X&***=ZHHHHHHHHHHHHHHHHHHHHHHHHHHHHV",
"VHHHHHHHHHHHHHHHHHHHHHHHHHHG8**&X&X&&**uHHHHHHHHHHHHHHHHHHHHHHHHHHHHV",
"VHHHHHHHHHHHHHHHHHHHHHHHHHHx*@@.XX& &**=vHHHHHHHHHHHHHHHHHHHHHHHHHHHV",
"VHHHHHHHHHHHHHHHHHHHHHHHHHZ==@+o.  &&&*==ZHHHHHHHHHHHHHHHHHHHHHHHHHHV",
"VHHHHHHHHHHHHHHHHHHHHHHHHG8=@#Oo+  %&&*==yGHHHHHHHHHHHHHHHHHHHHHHHHHV",
"VHHHHHHHHHHHHHHHHHHHHHHHHg==$:-OoX %%&**=5jHHHHHHHHHHHHHHHHHHHHHHHHHV",
"VHHHHHHHHHHHHHHHHHHHHHHHc55$:,;;OX%%&&**==5bHHHHHHHHHHHHHHHHHHHHHHHHV",
"VHHHHHHHHHHHHHHHHHHHHHHM655<3031:X%%&&*===56NHHHHHHHHHHHHHHHHHHHHHHHV",
"VHHHHHHHHHHHHHHHHHHHHHZ665<qetw3:X&%&&**=5567ZHHHHHHHHHHHHHHHHHHHHHHV",
"VHHHHHHHHHHHHHHHHHHHHA866<qtsft4:@&&&**==5556uSHHHHHHHHHHHHHHHHHHHHHV",
"VHHHHHHHHHHHHHHHHHHHZy762qtdhdt3$XX&&**==55667uAHHHHHHHHHHHHHHHHHHHHV",
"VHHHHHHHHHHHHHHHHHHAu8720rtddt01@*&&**==5556677uAHHHHHHHHHHHHHHHHHHHV",
"VHHHHHHHHHHHHHHHHHZi88339wrtr02=@**@**===5566778uZHHHHHHHHHHHHHHHHHHV",
"VHHHHHHHHHHHHHHHHNiy233390903<$*******==55667788yiNHHHHHHHHHHHHHHHHHV",
"VHHHHHHHHHHHHHHHnii84333332<>===****====55667788yuinHHHHHHHHHHHHHHHHB",
"VHHHHHHHHHHHHHGzpiu8847276655=========5556667778yuipcGHHHHHHHHHHHHHHV",
"VHHHHHHHHHHHHHAsppiy8877766555========5556667788yuiagSHHHHHHHHHHHHHHV",
"VHHHHHHHHHHHHHHFkpiuy8876666655==5==55556667788yyuijFHHHHHHHHHHHHHHHV",
"VHHHHHHHHHHHHHHHGziyy8877666555555=555556667788yuicGHHHHHHHHHHHHHHHHV",
"VHHHHHHHHHHHHHHHHHvuy88877766555555555666677888yubHHHHHHHHHHHHHHHHHHV",
"VHHHHHHHHHHHHHHHHHHnyy887776665655556566777788yybHHHHHHHHHHHHHHHHHHHV",
"VHHHHHHHHHHHHHHHHHHHny888777666656666666677788ynHHHHHHHHHHHHHHHHHHHHV",
"VHHHHHHHHHHHHHHHHHHHHny8877776666666666677888ymHHHHHHHHHHHHHHHHHHHHHV",
"VHHHHHHHHHHHHHHHHHHHHHb8887776766666667777888nHHHHHHHHHHHHHHHHHHHHHHV",
"VHHHHHHHHHHHHHHHHHHHHHHc88777777677676777888cHHHHHHHHHHHHHHHHHHHHHHHV",
"VHHHHHHHHHHHHHHHHHHHHHHGk888877777777778888kHHHHHHHHHHHHHHHHHHHHHHHHV",
"VHHHHHHHHHHHHHHHHHHHHHHHGa8878777777777888sFHHHHHHHHHHHHHHHHHHHHHHHHV",
"VHHHHHHHHHHHHHHHHHHHHHHHHSu88878778778888iSHHHHHHHHHHHHHHHHHHHHHHHHHV",
"VHHHHHHHHHHHHHHHHHHHHHHHHHn888888888888yyMHHHHHHHHHHHHHHHHHHHHHHHHHHV",
"VHHHHHHHHHHHHHHHHHHHHHHHHHHky8y88888888ykHHHHHHHHHHHHHHHHHHHHHHHHHHHV",
"VHHHHHHHHHHHHHHHHHHHHHHHHHHFpy88888y8yyaFHHHHHHHHHHHHHHHHHHHHHHHHHHHV",
"VHHHHHHHHHHHHHHHHHHHHHHHHHHHmuuuyyyyyyyMHHHHHHHHHHHHHHHHHHHHHHHHHHHHV",
"VHHHHHHHHHHHHHHHHHHHHHHHHHHHHhyiuiyuuukHHHHHHHHHHHHHHHHHHHHHHHHHHHHHV",
"VHHHHHHHHHHHHHHHHHHHHHHHHHHHHAiiuiuuiuSHHHHHHHHHHHHHHHHHHHHHHHHHHHHHV",
"VHHHHHHHHHHHHHHHHHHHHHHHHHHHHHzupiipicHHHHHHHHHHHHHHHHHHHHHHHHHHHHHHV",
"VHHHHHHHHHHHHHHHHHHHHHHHHHHHHHDpppppaFHHHHHHHHHHHHHHHHHHHHHHHHHHHHHHV",
"VHHHHHHHHHHHHHHHHHHHHHHHHHHHHHHbpappnHHHHHHHHHHHHHHHHHHHHHHHHHHHHHHHV",
"VHHHHHHHHHHHHHHHHHHHHHHHHHHHHHHFaaasGHHHHHHHHHHHHHHHHHHHHHHHHHHHHHHHV",
"VHHHHHHHHHHHHHHHHHHHHHHHHHHHHHHHnaanHHHHHHHHHHHHHHHHHHHHHHHHHHHHHHHHV",
"VHHHHHHHHHHHHHHHHHHHHHHHHHHHHHHHFssFHHHHHHHHHHHHHHHHHHHHHHHHHHHHHHHHV",
"VHHHHHHHHHHHHHHHHHHHHHHHHHHHHHHHHvnHHHHHHHHHHHHHHHHHHHHHHHHHHHHHHHHHV",
"VHHHHHHHHHHHHHHHHHHHHHHHHHHHHHHHHSDHHHHHHHHHHHHHHHHHHHHHHHHHHHHHHHHHV",
"VHHHHHHHHHHHHHHHHHHHHHHHHHHHHHHHHHHHHHHHHHHHHHHHHHHHHHHHHHHHHHHHHHHHV",
"VHHHHHHHHHHHHHHHHHHHHHHHHHHHHHHHHHHHHHHHHHHHHHHHHHHHHHHHHHHHHGSHHHHHV",
"VHHHHHHHHHHHHHHHHHHHHHHHHHHHHHHHHHHHHHHHHHHHHHHHHHHHHHHHHHHHHnaHHHHHV",
"VHHHHHHHHHHHHHHHHHHHHHHHHHHHHHHHHHHHHHHHHHHHHHHHHHHHHHHHHHHHG= NHHHHV",
"VHHHHHHHHHHHHHHHHHHHHHHHHHHHHHHHHHHHHHHHHHHHHHHHHHHHHHHHHHHHj  5GHHHV",
"VHHHHHHHHHHHHHHHHHHHHHHHHHHHHHHHHHHHHHHHHHHHHHHHHHHHHHHHHHHM    gHHHV",
"VHHHHHHHHHHHHHHHHHHHHHHHHHHHHHHHHHHHHHHHHHHHHHHHHHHHHHHHHHM& %   lHHV",
"VHHHHHHHHHHHHHHHHHHHHHHHHHHHHHHHHHHHHHHHHHHHHHHHHHHHHHHHHm&       gHV",
"VHHHHHHHHHHHHHHHHHHHHHHHHHHHHHHHHHHHHHHHHHHHHHHHHHHHHHHHHD7%     @NHV",
"VHHHHHHHHHHHHHHHHHHHHHHHHHHHHHHHHHHHHHHHHHHHHHHHHHHHHHHHHHG7    XZHHV",
"VHHHHHHHHHHHHHHHHHHHHHHHHHHHHHHHHHHHHHHHHHHHHHHHHHHHHHHHHHHF=   MHHHV",
"VHHHHHHHHHHHHHHHHHHHHHHHHHHHHHHHHHHHHHHHHHHHHHHHHHHHHHHHHHHHm  gHHHHV",
"VHHHHHHHHHHHHHHHHHHHHHHHHHHHHHHHHHHHHHHHHHHHHHHHHHHHHHHHHHHHHi*FHHHHV",
"VHHHHHHHHHHHHHHHHHHHHHHHHHHHHHHHHHHHHHHHHHHHHHHHHHHHHHHHHHHHHAcHHHHHV",
"VHHHHHHHHHHHHHHHHHHHHHHHHHHHHHHHHHHHHHHHHHHHHHHHHHHHHHHHHjsHHHGHx8HHV",
"VHHHHHHHHHHHHHHHHHHHHHHHHHHHHHHHHHHHHHHHHHHHHHHHHHHHHHHHHA&GHHHH7nHHV",
"VHHHHHHHHHHHHHHHHHHHHHHHHHHHHHHHHHHHHHHHHHHHHHHHHHHHHHHHHH8mHHHA*GHHV",
"VHHHHHHHHHHHHHHHHHHHHHHHHHHHHHHHHHHHHHHHHHHHHHHHHHHHHHHHHHn%&*&%lHHHV",
"VHHHHHHHHHHHHHHHHHHHHHHHHHHHHHHHHHHHHHHHHHHHHHHHHHHHHHHHHHG*DHG=SHHHV",
"VHHHHHHHHHHHHHHHHHHHHHHHHHHHHHHHHHHHHHHHHHHHHHHHHHHHHHHHHHHkzHmiHHHHV",
"VHHHHHHHHHHHHHHHHHHHHHHHHHHHHHHHHHHHHHHHHHHHHHHHHHHHHHHHHHHS5HiMHHHHV",
"VHHHHHHHHHHHHHHHHHHHHHHHHHHHHHHHHHHHHHHHHHHHHHHHHHHHHHHHHHHHyn5HHHHHV",
"VHHHHHHHHHHHHHHHHHHHHHHHHHHHHHHHHHHHHHHHHHHHHHHHHHHHHHHHHHHHm&cHHHHHV",
"VHHHHHHHHHHHHHHHHHHHHHHHHHHHHHHHHHHHHHHHHHHHHHHHHHHHHHHHHHHHHHHHHHHHV",
"BHHHHHHHHHHHHHHHHHHHHHHHHHHHHHHHHHHHHHHHHHHHHHHHHHHHHHHHHHHHHHHHHHHHB",
"GBVVVVVVVVVVVVVVVVVVVVVVVVVVVVVVVVVVVVVVVVVVVVVVVVVVVVVVVVVVVVVVVVVBH"
};
