/* XPM */
static const char *black_[] = {
/* columns rows colors chars-per-pixel */
"69 100 66 1 ",
"  c #000000",
". c #0B0B0B",
"X c #141414",
"o c #1B1B1B",
"O c #232323",
"+ c #2B2B2B",
"@ c #343434",
"# c #3C3C3C",
"$ c #434343",
"% c #4D4D4D",
"& c #535353",
"* c #5C5C5C",
"= c #636363",
"- c #6C6C6C",
"; c #757575",
": c #7B7B7B",
"> c #DF0000",
", c #E00606",
"< c #E10C0C",
"1 c #E11111",
"2 c #E31C1C",
"3 c #E42424",
"4 c #E52C2C",
"5 c #E63535",
"6 c #E73C3C",
"7 c #E74242",
"8 c #E84545",
"9 c #E84A4A",
"0 c #E95151",
"q c #EB5D5D",
"w c #EC6666",
"e c #ED6B6B",
"r c #EE7474",
"t c #EE7A7A",
"y c #848484",
"u c #8C8C8C",
"i c #929292",
"p c #9C9C9C",
"a c #A3A3A3",
"s c #ADADAD",
"d c #B4B4B4",
"f c #BCBCBC",
"g c #EF8282",
"h c #F08585",
"j c #F08A8A",
"k c #F29494",
"l c #F29B9B",
"z c #F3A2A2",
"x c #F4AAAA",
"c c #F5B2B2",
"v c #F6BBBB",
"b c #C3C3C3",
"n c #CBCBCB",
"m c #D3D3D3",
"M c #DBDBDB",
"N c #F7C2C2",
"B c #F8CCCC",
"V c #FAD6D6",
"C c #FBDCDC",
"Z c #E4E4E4",
"A c #ECECEC",
"S c #FBE3E3",
"D c #FDEDED",
"F c #F3F3F3",
"G c #FEF2F2",
"H c #FFFFFF",
/* pixels */
"HfnnnnnnnnnnnnnnnnnnnnnnnnnnnnnnnnnnnnnnnnnnnnnnnnnnnnnnnnnnnnnnnnnbH",
"bHHHHo -HHHHHHHHHHHHHHHHHHHHHHHHHHHHHHHHHHHHHHHHHHHHHHHHHHHHHHHHHHHHf",
"nHHHZ  pHHHHHHHHHHHHHHHHHHHHHHHHHHHHHHHHHHHHHHHHHHHHHHHHHHHHHHHHHHHHn",
"nHHHd  nHHHHHHHHHHHHHHHHHHHHHHHHHHHHHHHHHHHHHHHHHHHHHHHHHHHHHHHHHHHHn",
"nHHHy .HHHHHHHHHHHHHHHHHHHHHHHHHHHHHHHHHHHHHHHHHHHHHHHHHHHHHHHHHHHHHn",
"nHHH% @HHHHHHHHHHHHHHHHHHHHHHHHHHHHHHHHHHHHHHHHHHHHHHHHHHHHHHHHHHHHHn",
"nHHHo -HHHHHHHHHHHHHHHHHHHHHHHHHHHHHHHHHHHHHHHHHHHHHHHHHHHHHHHHHHHHHn",
"nHHZ  pHHHHHHHHHHHHHHHHHHHHHHHHHHHHHHHHHHHHHHHHHHHHHHHHHHHHHHHHHHHHHn",
"nHHd  mHHHHHHHHHHHHHHHHHHHHHHHHHHHHHHHHHHHHHHHHHHHHHHHHHHHHHHHHHHHHHn",
"nHHy  HHHHHHHHHHHHHHHHHHHHHHHHHHHHHHHHHHHHHHHHHHHHHHHHHHHHHHHHHHHHHHn",
"bHH$ $HHHHHHHHHHHHHHHHHHHHHHHHHHHHHHHHHHHHHHHHHHHHHHHHHHHHHHHHHHHHHHn",
"nFp  pHHHHHHHHHHHHHHHHHHHHHHHHHHHHHHHHHHHHHHHHHHHHHHHHHHHHHHHHHHHHHHn",
"b   $Hn::FHHHHHHHHHHHHHHHHHHHHHHHHHHHHHHHHHHHHHHHHHHHHHHHHHHHHHHHHHHn",
"p.+yF-.X -HHHHHHHHHHHHHHHHHHHHHHHHHHHHHHHHHHHHHHHHHHHHHHHHHHHHHHHHHHb",
"nHHH;.mb &HHHHHHHHHHHHHHHHHHHHHHHHHHHHHHHHHHHHHHHHHHHHHHHHHHHHHHHHHHn",
"nHHZ =Hn :HHHHHHHHHHHHHHHHHHHHHHHHHHHHHHHHHHHHHHHHHHHHHHHHHHHHHHHHHHn",
"nHHp aHp fHHHHHHHHHHHHHHHHHHHHHHHHHHHHHHHHHHHHHHHHHHHHHHHHHHHHHHHHHHn",
"nHH- dH++HHHHHHHHHHHHHHHHHHHHHHHHHHHHHHHHHHHHHHHHHHHHHHHHHHHHHHHHHHHn",
"nHHy $&XnHHHHHHHHHHHHHHHHHHHHHHHHHHHHHHHHHHHHHHHHHHHHHHHHHHHHHHHHHHHn",
"nHHZ+X-AHHHHHHHHHHHHHHHHHHHHHHHHHHHHHHHHHHHHHHHHHHHHHHHHHHHHHHHHHHHHn",
"nHHHHHAiyHHHHHHHHHHHHHHHHHHHHHHHHHHHHHHHHHHHHHHHHHHHHHHHHHHHHHHHHHHHn",
"nHHHHno :HHHHHHHHHHHHHHHHHHHHHHHHHHHHHHHHHHHHHHHHHHHHHHHHHHHHHHHHHHHn",
"nHHHn.;FHHHHHHHHHHHHHHHHHHHHHHHHHHHHHHHHHHHHHHHHHHHHHHHHHHHHHHHHHHHHn",
"nHHH% AHHHHHHHHHHHHHHHHHHHHHHHHHHHHHHHHHHHHHHHHHHHHHHHHHHHHHHHHHHHHHn",
"nHHF #Hb=fHHHHHHHHHHHHHHHHHHHHHHHHHHHHHHHHHHHHHHHHHHHHHHHHHHHHHHHHHHn",
"nHHf :p  uHHHHHHHHHHHHDvcCHHHHHHHHHHHHHHHHHHHHHHHHHHHHHHHHHHHHHHHHHHn",
"nHHy %.duHHHHHHHHHHHDw>>>>6BHHHHHHHHHHHHHHHHHHHHHHHHHHHHHHHHHHHHHHHHn",
"nHH%  dHHHHHHHHHHHHS3>>>>>>>vHHHHHHHHHHHHHHHHHHHHHHHHHHHHHHHHHHHHHHHn",
"nHHX  ;HHHHHHHHHHHH5>>>>>>>>2GHHHHHHHHHHHHHHHHHHHHHHHHHHHHHHHHHHHHHHn",
"nHM *.XFHHHHHHHHHHx>>>>>>>>>>kHHHHHHHHHHHHHHHHHHHHHHHHHHHHHHHHHHHHHHn",
"nHa p- iHHHHHHHHHHe>>>>>>>>>>9HHHHHHHHHHHHHHHHHHHHHHZba:#ZHHHHHHHHHHn",
"nH-oMm oFHHAHHHHHHe>>>>>>>>>><HHHHHHHHHHHHHHZdu;%@o     @HHHHHHHHHHHn",
"nHmHHH= :HM%HHHHHHz>>>>>>>>>>>DHHHHHHHHHZu%X            *HHHHHHHHHHHn",
"nHHHFi;% $.XHGk08rB2>>>>>>>>>>VHHHHHHHm$                yHHHHHHHHHHHn",
"nHHZ+O pniiZC4>>>>>>>>>>>>>>>>vHHHHHHb.                 aHHHHHHHHHHHn",
"nHH%+y nHHHG3>>>>>>>>>>>>>>>>>xHHHHHAo                  fHHHHHHHHHHHn",
"nHM $.yHHHHr>>>>>>>>>>>>>>>>>>lHHHHHp                   mHHHHHHHHHHHb",
"nHa .aHmHHH>>>>>>>>>>>>>>>>>>>jHHHHH:                   FHHHHHHHHHHHn",
"nH; dH:*HHC>>>>>>>>>>>>>>>>>>>tHHHHHp                  XHHHHHHHHHHHHn",
"nHy #++ZHHV>>>>>>>>>>>>>>>>>>>wHHHHHAX                 +HHHHHHHHHHHHn",
"nHMOX;FHHHH<>>>>>>>>>>>>>>>>>>9HHHHHHd                 %HHHHHHHHHHHHn",
"nHHHHHHHHHHe>>>>>>>>>>>>>>>>>>3HHHHHHHm:*$*-X          ;HHHHHHHHHHHHn",
"nHHHppi-AHHD3>>>>>>>>>>>>>>>>><HHHHHHHHHHHn#           pHHHHHHHHHHHHn",
"nHdo   XHHHHS6>>>>>>>>>>>>>>>>>NHHHHHHHHM&   ;         nHHHHHHHHHHHHn",
"nH;; *b:HHHHHHvr51>>>>>>>>>>>>>hHHHHHHf&    ;y        .HHHHHHHHHHHHHn",
"nHH: bHHHHHHHHHHHHDCBvxlgw93>>>5HHHHA+     .A;        $HHHHHHHHHHHHHn",
"nHH# HHHHHHHHHHHHHHHHHHHHHHHSxw<BHHHHmo    uH-        pHHHHHHHHHHHHHn",
"nHF.$HHHHHHHHHHHHHHHHHHHHHHHHHHDNHHHHHmX  .AHi        ZHHHHHHHHHHHHHn",
"nHd yHHHHHHHHHHHHHHHHHHHHHHHHHHHHHHHHHHmo =HHZ.      :HHHHHHHHHHHHHHn",
"nH;$mHHHHHHHHHHHHHHHHHHHHHHHHHHHHHHHHHHHmXnHHHd.    *HHHHHHHHHHHHM:nn",
"nHFHHHHHHHHHHHHHHHHb;=;bHHHHHHHHHHHHHHHHHmHHHHHZ;$&dHHHHHHHHHHHHH# Fn",
"nHHHHHHHHHHHHHHHHA$     %FHHHHHHHHHHHHHHHHHHHHHHHHHHHHHHHHHHHHHHH.#Hn",
"nHHHHHHHHHHHHHHHH#       $HHHmyHHHHHHHHHHHHHHHHHHHHHHHHHHHHHHHHHb :Hn",
"nHHHHHHHHHHHHHHHu         sHHd uHHHHHHHHHHHHHHHHHHHHHHHHHHHHHHHHy fHn",
"nHHHHHHHHHHHHHHH@         *HH-  uHHHHHHSHHHHHHHHHHHHHHHHHHHHHHfH# mnn",
"nHHHHHHHHHHHHHHH.         @HA.   uHHHHH77lDHHHHHHHHHHHHHHHHHHM o  Xbn",
"nHHHHHHHHHHHHHHHX         @H-  .$;ZHHHHl>>>6rxCHHHHHHHHHHHHHHa.=X-ZHn",
"nHHHHHHHHHHHHHHH*         =a  -ZHHHHHHHG,>>>>>><25887632HHHHHHHHHHHHn",
"nHHHHHHHHHHHHHHHn         & XbHHHHHHHHHH7>>>>>>>>>>>,>>4HHHHHHHHa=aHn",
"nHHHHHHHHHHHHHHHHy         OsayaMHHHHHHHj>>>>>>>>>>>>>,8HHHHHHZ#. .Fn",
"nHHHHHHHHHHHHHHHHHpX             *FHHHHHN>>>>>>>>>>>>>>9HHHHHHO=F* bb",
"nHHHHHHHHHHHHHHHHAa:+             #HHHHHG>>>>>>>>>>>>>>0HHHHHHiHfo An",
"nHHHHHHHHHHHHHHM%                  iHHHHH4>>>>>>>>>>>>>0HHHHHHHu.XoHn",
"nHHHHHHHHHHHHHmX                   @HHHHH0>>>>>>>>>>>>>6HHHHHHp a ;Hn",
"nHHHHHHHHHHHHH@                    .HHHHHe>>>>>>>>>>>>>3HHHMHH$ *OAHn",
"nHHHHHHHHHHHHn          .          .HHHHHt>>>>>>>>>>>>><Hmo  %:X=AHHn",
"nHHHHHHHHHHHHp          o#         $HHHHHj>>>>>>>>>>>>>>Smonf.oZHHHHn",
"nHHHHHHHHHHHHa          #f         sHHHHHj>>>>>>>>>>>>>>xHfHHi *Hb&fn",
"nHHHHHHHHHHHHm          ;Hy       =HHHHHHh>>>>>>>>>>>>>>tHHHHFo Z& An",
"nHHHHHHHHHHHHH$         nHHsO   .iHHHHHHHt>>>>>>>>>>>>>>6HHHHHy :OOHn",
"nHHHHHHHHHHHHHMX       &HHHHHnabHHHHHHHHHq>>>>>>>>>>>>>>>DHHHHA.X *Hn",
"nHHHHHHHHHHHHHHmO     #FHHHHHHHHHHHHHHHHHgetjllheq5<>>>>>zHHHHH*  uHn",
"nHHHHHHHHHHHHHHHFp&$*sHHHHHHHHHHHHHHHHHHHHHHHHHHHHHHBj8<>8HHFZbXo nHn",
"nHHHHHHHHHHHHHHHHHHHHHHHHHHHHHHHHHHHHHHHHHHHHHHHHHHHHHHGz9SH-o.p@.HHn",
"nHHHHHHHHHHHHHHHHHHHHHHHHHHHHHHHHHHHHHHHHHHHHHHHHHHHHHHHHHHF@osF #HHn",
"nHHHHHHHHHHHHHHHHHHHHHHHHHHHHHHHHHHHHHHHHHHHHHHHHHHHHHHHHHHHHHHd yHHn",
"nHHHHHHHHHHHHHHHHHHHHHHHHHHHHHHHHHHHHHHHHHHHHHHHHHHHHHHHHHHHHHH&.ZHHn",
"nHHHHHHHHHHHHHHHHHHHHHHHHHHHHHHHHHHHHHHHHHHHHHHHHHHHHHHHHHHHH:$XbHHHn",
"nHHHHHHHHHHHHHHHHHHHHHHHHHHHHHHHHHHHHHHHHHHHHHHHHHHHHHHHHHHHnO&MHHHHn",
"bHHHHHHHHHHHHHHHHHHHHHHHHHHHHHHHHHHHHHHHHHHHHHHHHHHHHHHHHHHHHHHp=sHHn",
"nHHHHHHHHHHHHHHHHHHHHHHHHHHHHHHHHHHHHHHHHHHHHHHHHHHHHHHHHHHHHnOO .FHn",
"nHHHHHHHHHHHHHHHHHHHHHHHHHHHHHHHHHHHHHHHHHHHHHHHHHHHHHHHHHHHFX&H% fHn",
"nHHHHHHHHHHHHHHHHHHHHHHHHHHHHHHHHHHHHHHHHHHHHHHHHHHHHHHHHHHHu mH& MHn",
"nHHHHHHHHHHHHHHHHHHHHHHHHHHHHHHHHHHHHHHHHHHHHHHHHHHHHHHHHHHH@oHH+OHHn",
"nHHHHHHHHHHHHHHHHHHHHHHHHHHHHHHHHHHHHHHHHHHHHHHHHHHHHHHHHHHH.+Hf pHHn",
"nHHHHHHHHHHHHHHHHHHHHHHHHHHHHHHHHHHHHHHHHHHHHHHHHHHHHHHHHHHF  ;X*HHHn",
"nHHHHHHHHHHHHHHHHHHHHHHHHHHHHHHHHHHHHHHHHHHHHHHHHHHHHHHHHHHHyX#sHFy+.",
"nHHHHHHHHHHHHHHHHHHHHHHHHHHHHHHHHHHHHHHHHHHHHHHHHHHHHHHHHHHHHHHHH$   ",
"nHHHHHHHHHHHHHHHHHHHHHHHHHHHHHHHHHHHHHHHHHHHHHHHHHHHHHHHHHHHHHHHp  pb",
"nHHHHHHHHHHHHHHHHHHHHHHHHHHHHHHHHHHHHHHHHHHHHHHHHHHHHHHHHHHHHHHH$ $Hn",
"nHHHHHHHHHHHHHHHHHHHHHHHHHHHHHHHHHHHHHHHHHHHHHHHHHHHHHHHHHHHHHHH  yHn",
"nHHHHHHHHHHHHHHHHHHHHHHHHHHHHHHHHHHHHHHHHHHHHHHHHHHHHHHHHHHHHHHn  dHn",
"nHHHHHHHHHHHHHHHHHHHHHHHHHHHHHHHHHHHHHHHHHHHHHHHHHHHHHHHHHHHHHHp  ZHn",
"nHHHHHHHHHHHHHHHHHHHHHHHHHHHHHHHHHHHHHHHHHHHHHHHHHHHHHHHHHHHHHH- oHHn",
"nHHHHHHHHHHHHHHHHHHHHHHHHHHHHHHHHHHHHHHHHHHHHHHHHHHHHHHHHHHHHHH@ %HHn",
"nHHHHHHHHHHHHHHHHHHHHHHHHHHHHHHHHHHHHHHHHHHHHHHHHHHHHHHHHHHHHHH. yHHn",
"nHHHHHHHHHHHHHHHHHHHHHHHHHHHHHHHHHHHHHHHHHHHHHHHHHHHHHHHHHHHHHn  dHHn",
"nHHHHHHHHHHHHHHHHHHHHHHHHHHHHHHHHHHHHHHHHHHHHHHHHHHHHHHHHHHHHHp  ZHHn",
"bHHHHHHHHHHHHHHHHHHHHHHHHHHHHHHHHHHHHHHHHHHHHHHHHHHHHHHHHHHHHH- oHHHb",
"HfnnnnnnnnnnnnnnnnnnnnnnnnnnnnnnnnnnnnnnnnnnnnnnnnnnnnnnnnnnnnnnnnnbH"
};
