/* XPM */
static const char *eight_clubs[] = {
/* columns rows colors chars-per-pixel */
"69 100 250 2 ",
"   c black",
".  c #010101",
"X  c #020202",
"o  c gray1",
"O  c #040404",
"+  c gray2",
"@  c #060606",
"#  c #070707",
"$  c gray3",
"%  c #090909",
"&  c gray4",
"*  c #0B0B0B",
"=  c #0C0C0C",
"-  c gray5",
";  c #0E0E0E",
":  c gray6",
">  c #101010",
",  c #111111",
"<  c gray7",
"1  c #131313",
"2  c gray8",
"3  c #151515",
"4  c #161616",
"5  c gray9",
"6  c #181818",
"7  c #191919",
"8  c gray10",
"9  c #1B1B1B",
"0  c gray11",
"q  c #1D1D1D",
"w  c #1E1E1E",
"e  c gray12",
"r  c #202020",
"t  c #222222",
"y  c #232323",
"u  c gray14",
"i  c #252525",
"p  c gray15",
"a  c #272727",
"s  c gray16",
"d  c #2A2A2A",
"f  c gray17",
"g  c #2C2C2C",
"h  c #2D2D2D",
"j  c gray18",
"k  c #2F2F2F",
"l  c gray19",
"z  c #313131",
"x  c gray20",
"c  c #343434",
"v  c #353535",
"b  c gray21",
"n  c #373737",
"m  c gray22",
"M  c #393939",
"N  c #3A3A3A",
"B  c gray23",
"V  c #3C3C3C",
"C  c gray24",
"Z  c #3E3E3E",
"A  c gray25",
"S  c #414141",
"D  c gray26",
"F  c #434343",
"G  c #444444",
"H  c gray27",
"J  c #464646",
"K  c gray28",
"L  c #484848",
"P  c #494949",
"I  c gray29",
"U  c #4B4B4B",
"Y  c #4C4C4C",
"T  c gray30",
"R  c #4E4E4E",
"E  c gray31",
"W  c #505050",
"Q  c gray32",
"!  c #535353",
"~  c gray33",
"^  c #555555",
"/  c #565656",
"(  c gray34",
")  c #585858",
"_  c gray35",
"`  c #5A5A5A",
"'  c #5B5B5B",
"]  c gray36",
"[  c #5D5D5D",
"{  c gray37",
"}  c #5F5F5F",
"|  c #606060",
" . c gray38",
".. c #626262",
"X. c gray39",
"o. c #646464",
"O. c #656565",
"+. c gray40",
"@. c #676767",
"#. c #686868",
"$. c DimGray",
"%. c #6A6A6A",
"&. c gray42",
"*. c #6C6C6C",
"=. c #6D6D6D",
"-. c gray43",
";. c #6F6F6F",
":. c gray44",
">. c #717171",
",. c #727272",
"<. c gray45",
"1. c #747474",
"2. c gray46",
"3. c #767676",
"4. c #777777",
"5. c gray47",
"6. c #797979",
"7. c gray48",
"8. c #7B7B7B",
"9. c #7C7C7C",
"0. c gray49",
"q. c #7E7E7E",
"w. c gray50",
"e. c #808080",
"r. c #818181",
"t. c gray51",
"y. c #838383",
"u. c #848484",
"i. c gray52",
"p. c #868686",
"a. c gray53",
"s. c #888888",
"d. c gray54",
"f. c #8B8B8B",
"g. c gray55",
"h. c #8D8D8D",
"j. c #8E8E8E",
"k. c gray56",
"l. c #909090",
"z. c gray57",
"x. c #929292",
"c. c #939393",
"v. c gray58",
"b. c #959595",
"n. c gray59",
"m. c #979797",
"M. c #989898",
"N. c gray60",
"B. c #9A9A9A",
"V. c #9B9B9B",
"C. c gray61",
"Z. c #9D9D9D",
"A. c gray62",
"S. c #9F9F9F",
"D. c #A0A0A0",
"F. c gray63",
"G. c #A2A2A2",
"H. c gray64",
"J. c #A4A4A4",
"K. c #A5A5A5",
"L. c gray65",
"P. c #A7A7A7",
"I. c gray66",
"U. c #A9A9A9",
"Y. c #AAAAAA",
"T. c gray67",
"R. c #ACACAC",
"E. c gray68",
"W. c #AEAEAE",
"Q. c #AFAFAF",
"!. c gray69",
"~. c #B1B1B1",
"^. c #B2B2B2",
"/. c gray70",
"(. c #B4B4B4",
"). c gray71",
"_. c #B6B6B6",
"`. c #B7B7B7",
"'. c gray72",
"]. c #B9B9B9",
"[. c gray73",
"{. c #BBBBBB",
"}. c #BCBCBC",
"|. c gray74",
" X c gray",
".X c gray75",
"XX c #C0C0C0",
"oX c #C1C1C1",
"OX c gray76",
"+X c #C3C3C3",
"@X c gray77",
"#X c #C5C5C5",
"$X c #C6C6C6",
"%X c gray78",
"&X c #C8C8C8",
"*X c gray79",
"=X c #CACACA",
"-X c #CBCBCB",
";X c gray80",
":X c #CDCDCD",
">X c #CECECE",
",X c gray81",
"<X c #D0D0D0",
"1X c gray82",
"2X c #D2D2D2",
"3X c LightGray",
"4X c gray83",
"5X c #D5D5D5",
"6X c gray84",
"7X c #D7D7D7",
"8X c #D8D8D8",
"9X c gray85",
"0X c #DADADA",
"qX c gray86",
"wX c gainsboro",
"eX c #DDDDDD",
"rX c gray87",
"tX c #DFDFDF",
"yX c gray88",
"uX c #E1E1E1",
"iX c #E2E2E2",
"pX c gray89",
"aX c #E4E4E4",
"sX c gray90",
"dX c #E6E6E6",
"fX c #E7E7E7",
"gX c gray91",
"hX c #E9E9E9",
"jX c #EAEAEA",
"kX c gray92",
"lX c #ECECEC",
"zX c gray93",
"xX c #EEEEEE",
"cX c #EFEFEF",
"vX c gray94",
"bX c #F1F1F1",
"nX c gray95",
"mX c #F3F3F3",
"MX c #F4F4F4",
"NX c gray96",
"BX c #F6F6F6",
"VX c gray97",
"CX c #F8F8F8",
"ZX c #F9F9F9",
"AX c gray98",
"SX c #FBFBFB",
"DX c gray99",
"FX c #FDFDFD",
"GX c #FEFEFE",
"HX c white",
/* pixels */
"AXOX-X;X;X;X;X;X;X;X;X;X;X;X;X;X;X;X;X;X;X;X;X;X;X;X;X;X;X;X;X;X;X;X;X;X;X;X;X;X;X;X;X;X;X;X;X;X;X;X;X;X;X;X;X;X;X;X;X;X;X;X;X;X;X;X-XOXAX",
"+XGXHXHXHXHXHXHXHXHXHXHXHXHXHXHXHXHXHXHXHXHXHXHXHXHXHXHXHXHXHXHXHXHXHXHXHXHXHXHXHXHXHXHXHXHXHXHXHXHXHXHXHXHXHXHXHXHXHXHXHXHXHXHXHXHXHXGX@X",
"-XHXHXHXXXb y i s.HXHXHXHXHXHXHXHXHXHXHXHXHXHXHXHXHXHXHXHXHXHXHXHXHXHXHXHXHXHXHXHXHXHXHXHXHXHXHXHXHXHXHXHXHXHXHXHXHXHXHXHXHXHXHXHXHXHXHX-X",
"-XHXHXnX; ).HXhX7 !.HXHXHXHXHXHXHXHXHXHXHX:Xe.+.9.%XHXHXHXHXHXHXHXHXHXHXHXHXHXHXHXHXAXH.X.( 4.,XHXHXHXHXHXHXHXHXHXHXHXHXHXHXHXHXHXHXHXHX-X",
"-XHXHX2X. DXHXHXP y.HXHXHXHXHXHXHXHXHXFX&..         { AXHXHXHXHXHXHXHXHXHXHXHXHXHXdXk         X w.HXHXHXHXHXHXHXHXHXHXHXHXHXHXHXHXHXHXHX-X",
"-XHXHXZXr S.HXrX5 &XHXHXHXHXHXHXHXHXHXs.              5.HXHXHXHXHXHXHXHXHXHXHXHXHXA               Y.HXHXHXHXHXHXHXHXHXHXHXHXHXHXHXHXHXHX-X",
"-XHXHXHX X; 2 X 5.HXHXHXHXHXHXHXHXHXGX3               % CXHXHXHXHXHXHXHXHXHXHXHX1X                B HXHXHXHXHXHXHXHXHXHXHXHXHXHXHXHXHXHX-X",
"-XHXHXtX1 XXHXhXb h.HXHXHXHXHXHXHXHXiX                  <XHXHXHXHXHXHXHXHXHXHXHXJ.                - HXHXHXHXHXHXHXHXHXHXHXHXHXHXHXHXHXHX-X",
"-XHXHXS.z HXHXHXu.K HXHXHXHXHXHXHXHXvXX                 yXHXHXHXHXHXHXHXHXHXHXHX'.                t HXHXHXHXHXHXHXHXHXHXHXHXHXHXHXHXHXHX-X",
"-XHXHX;X& <XHXMXC 5.HXHXHXHXHXHXHXHXHXA               k HXHXHXHXHXHXHXHXHXHXHXHXNX3               1.HXHXHXHXHXHXHXHXHXHXHXHXHXHXHXHXHXHX-X",
"-XHXHXHXD.g y y #.BXHXHXHXHXHXHXHXHXHX&X.             `.HXHXHXHXHXHXHXHXHXHXHXHXHXn.            1 zXHXHXHXHXHXHXHXHXHXHXHXHXHXHXHXHXHXHX-X",
"-XHXHXHXHXHXHXHXHXHXHXHXHXHXHXHX}.1.+.u.]           W s.+.,._.GXHXHXHXHXHXmXv.` / w.N         + :.#.^ &. XHXHXHXHXHXHXHXHXHXHXHXHXHXHXHX-X",
"-XHXHXHXHXHXsX;XCXHXHXHXHXHXNXI         + O       X #         A vXHXHXHX2X8         +         +           ] SXHXHXHXHXHXHXHXHXHXHXHXHXHX-X",
"-XHXHXHXGX..    4 +XHXHXHXHX|                                   W HXHXZXe                                   t.HXHXHXHXHXHXHXHXHXHXHXHXHX-X",
"-XHXHXHXW.        p HXHXHXhXO                                   . wXHXT.                                    3 HXHXHXHXHXHXHXHXHXHXHXHXHX-X",
"-XHXHXHXj.        # DXHXHXXX                                      Q.HXr.                                      jXHXHXHXHXHXHXHXHXHXHXHXHX-X",
"-XHXHXHX<X.       P HXHXHXOX                o   o                 ~.HXs.                + X o               . vXHXHXHXHXHXHXHXHXHXHXHXHX-X",
"-XHXzXj.0.A     * >.7.].HXBX,               +.  +.              & xXHX1X.             O -.* +.              C HXHXHXHXHXHXHXHXHXHXHXHXHX-X",
"-XjXq                   r.HXn.            C ;X  |.U             p.HXHXHX+.            a.l.  lXd           # =XHXHXHXHXHXHXHXHXHXHXHXHXHX-X",
"-Xh.                    & DXHXl.&     X ' nXW.  Z.BX+.o     # y.GXHXHXHXSX2.@     1 m.HX*.  6XjX! X     y  XHXHXHXHXHXHXHXHXHXHXHXHXHXHX-X",
"-Xi.        # @         + CXHXHXvX).W.rXHXHX$.  ` HXHXpXQ./.zXHXHXHXHXHXHXHXcXoX%XVXHXHXp   l.HXHXaX X,XFXHXHXHXHXHXHXHXHXHXHXHXHXHXHXHX-X",
"-XwX%     . 0.L b       [ HXHXHXHXHXHXHXHXlX>   % aXHXHXHXHXHXHXHXHXHXHXHXHXHXHXHXHXHX).    p AXHXHXHXHXHXHXHXHXHXHXHXHXHXHXHXHXHXHXHXHX-X",
"-XHX-X_ K ^.E.p nX-.F r.CXHXHXHXHXHXHXHXFX~       K SXHXHXHXHXvXd.R J #.$XHXHXHXHXHXfXe       :.HXHXHXHXHXHXHXHXHXHXHXHXHXHXHXHXHXHXHXHX-X",
"-XHXHXHXHXHXW   *XHXHXHXHXHXHXHXHXHXHXHXFXxXxXxXxXxXDXHXHXHX4X8         . 0.HXHXHXHXHXHXHXHXHXHXHXHXHXHXHXHXHXHXHXHXHXHXHXHXHXHXHXHXHXHX-X",
"-XHXHXHXHXzXN.N.`.HXHXHXHXHXHXHXHXHXHXHXHXHXHXHXHXHXHXHXHXAXa               ~.HXHXHXHXHXHXHXHXHXHXHXHXHXHXHXHXHXHXHXHXHXHXHXHXHXHXHXHXHX-X",
"-XHXHXHXHXHXHXHXHXHXHXHXHXHXHXHXHXHXHXHXHXHXHXHXHXHXHXHXHX[.                L HXHXHXHXHXHXHXHXHXHXHXHXHXHXHXHXHXHXHXHXHXHXHXHXHXHXHXHXHX-X",
"-XHXHXHXHXHXHXHXHXHXHXHXHXHXHXHXHXHXHXHXHXHXHXHXHXHXHXHXHXz.                w HXHXHXHXHXHXHXHXHXHXHXHXHXHXHXHXHXHXHXHXHXHXHXHXHXHXHXHXHX-X",
"-XHXHXHXHXHXHXHXHXHXHXHXHXHXHXHXHXHXHXHXHXHXHXHXHXHXHXHXHXY.                m HXHXHXHXHXHXHXHXHXHXHXHXHXHXHXHXHXHXHXHXHXHXHXHXHXHXHXHXHX-X",
"-XHXHXHXHXHXHXHXHXHXHXHXHXHXHXHXHXHXHXHXHXHXHXHXHXHXHXHXHXvX,               k.HXHXHXHXHXHXHXHXHXHXHXHXHXHXHXHXHXHXHXHXHXHXHXHXHXHXHXHXHX-X",
"-XHXHXHXHXHXHXHXHXHXHXHXHXHXHXHXHXHXHXHXHXHXHXHXHXHXHXHXHXHXl.            u CXHXHXHXHXHXHXHXHXHXHXHXHXHXHXHXHXHXHXHXHXHXHXHXHXHXHXHXHXHX-X",
"-XHXHXHXHXHXHXHXHXHXHXHXHXHXHXHXHXHXHXHXHXHXHXHXHXHXsX8.K J >.x         * -.Q G ] /.HXHXHXHXHXHXHXHXHXHXHXHXHXHXHXHXHXHXHXHXHXHXHXHXHXHX-X",
"-XHXHXHXHXHXHXHXHXHXHXHXHXHXHXHXHXHXHXHXHXHXHXHXHX].*         o         o           ) SXHXHXHXHXHXHXHXHXHXHXHXHXHXHXHXHXHXHXHXHXHXHXHXHX-X",
"-XHXHXHXHXHXHXHXHXHXHXHXHXHXHXHXHXHXHXHXHXHXHXHXzX;                                   d.HXHXHXHXHXHXHXHXHXHXHXHXHXHXHXHXHXHXHXHXHXHXHXHX-X",
"-XHXHXHXHXHXHXHXHXHXHXHXHXHXHXHXHXHXHXHXHXHXHXHXv.                                    t HXHXHXHXHXHXHXHXHXHXHXHXHXHXHXHXHXHXHXHXHXHXHXHX-X",
"-XHXHXHXHXHXHXHXHXHXHXHXHXHXHXHXHXHXHXHXHXHXHXHX-.                                    X CXHXHXHXHXHXHXHXHXHXHXHXHXHXHXHXHXHXHXHXHXHXHXHX-X",
"-XHXHXHXHXHXHXHXHXHXHXHXHXHXHXHXHXHXHXHXHXHXHXHX6.                $ # .               & FXHXHXHXHXHXHXHXHXHXHXHXHXHXHXHXHXHXHXHXHXHXHXHX-X",
"-XHXHXHXHXHXHXHXHXHXHXHXHXHXHXHXHXHXHXHXHXHXHXHX&X              - ;.q |               ( HXHXHXHXHXHXHXHXHXHXHXHXHXHXHXHXHXHXHXHXHXHXHXHX-X",
"-XHXHXHXHXHXHXHXHXHXHXHXHXHXHXHXHXHXHXHXHXHXHXHXHXX.          X P.0.* vXd           < tXHXHXHXHXHXHXHXHXHXHXHXHXHXHXHXHXHXHXHXHXHXHXHXHX-X",
"-XHXHXHXHXHXHXHXHXHXHXHXHXHXHXHXHXHXHXHXHXHXHXHXHXDX9.=     p _.HX/   aXlX] O     C 5XHXHXHXHXHXHXHXHXHXHXHXHXHXHXHXHXHXHXHXHXHXHXHXHXHX-X",
"-XHXHXHXHXHXHXHXHXHXHXHXHXHXHXHXHXHXHXHXHXHXHXHXHXHXHXBX2XeXGXHXAX<   V.HXHXcX,XsXHXHXHXHXHXHXHXHXHXHXHXHXHXHXHXHXHXHXHXHXHXHXHXHXHXHXHX-X",
"-XHXHXHXHXHXHXHXHXHXHXHXHXHXHXHXHXHXHXHXHXDX-X/.&XSXHXHXHXHXHXHXM.    s SXHXHXHXHXHXHXjXQ.D.oXDXHXHXHXHXHXHXHXHXHXHXHXHXHXHXHXHXHXHXHXHX-X",
"-XHXHXHXHXHXHXHXHXHXHXHXHXHXHXHXHXHXHXHX/.q       5 I.HXHXHXHXeXr , , , t.HXHXHXHXDX2.O       r oXHXHXHXHXHXHXHXHXHXHXHXHXHXHXHXHXHXHXHX-X",
"-XHXHXHXHXHXHXHXHXHXHXHXHXHXHXHXHXHXHX'.o           . Y.HXHXHXHXHXHXHXHXHXHXHXHXHX>.            % 3XHXHXHXHXHXHXHXHXHXHXHXHXHXHXHXHXHXHX-X",
"-XHXHXHXHXHXHXHXHXHXHXHXHXHXHXHXHXHXHXg               q GXHXHXHXHXHXHXHXHXHXHXHXaXO               ! HXHXHXHXHXHXHXHXHXHXHXHXHXHXHXHXHXHX-X",
"-XHXHXHXHXHXHXHXHXHXHXHXHXHXHXHXHXHXlX                  0XHXHXHXHXHXHXHXHXHXHXHXR.                3 HXHXHXHXHXHXHXHXHXHXHXHXHXHXHXHXHXHX-X",
"-XHXHXHXHXHXHXHXHXHXHXHXHXHXHXHXHXHXdX                  4XHXHXHXHXHXHXHXHXHXHXHXT.                3 HXHXHXHXHXHXHXHXHXHXHXHXHXHXHXHXHXHX-X",
"-XHXHXHXHXHXHXHXHXHXHXHXHXHXHXHXHXHXHXt               2 SXHXHXHXHXHXHXHXHXHXHXHXfXO               ^ HXHXHXHXHXHXHXHXHXHXHXHXHXHXHXHXHXHX-X",
"-XHXHXHXHXHXHXHXHXHXHXHXHXHXHXHXHXHXHXZ.              h.HXHXHXHXHXHXHXHXHXHXHXHXHX*.            o 2XHXHXHXHXHXHXHXHXHXHXHXHXHXHXHXHXHXHX-X",
"-XHXHXHXHXHXHXHXHXHXHXHXHXHXHXHXVX|.Y.:XF           n :XY.[.NXHXHXHXHXHXHXHXrXF.C.{.i           >.^.N.).MXHXHXHXHXHXHXHXHXHXHXHXHXHXHXHX-X",
"-XHXHXHXHXHXHXHXHXHXHXHXHXHXHXb.,       w O       X e       - f.HXHXHXHXmX_ .       8         & >       2 K.HXHXHXHXHXHXHXHXHXHXHXHXHXHX-X",
"-XHXHXHXHXHXHXHXHXHXHXHXHXHXc.                                  u.HXHXHXP                                 X ~.HXHXHXHXHXHXHXHXHXHXHXHXHX-X",
"-XHXHXHXHXHXHXHXHXHXHXHXHXNX<                                   & lXHX+X                                    h HXHXHXHXHXHXHXHXHXHXHXHXHX-X",
"-XHXHXHXHXHXHXHXHXHXHXHXHX=X                                      [.HXf.                                    . mXHXHXHXHXHXHXHXHXHXHXHXHX-X",
"-XHXHXHXHXHXHXHXHXHXHXHXHX[.                                      U.HXq.                                      fXHXHXHXHXHXHXHXHXHXHXHXHX-X",
"-XHXHXHXHXHXHXHXHXHXHXHXHXhXo               B   B               . qXHX).                H = M               r HXHXHXHXHXHXHXHXHXHXHXHXHX-X",
"-XHXHXHXHXHXHXHXHXHXHXHXHXHXo.            4 .X  ).e             ^ HXHXFXv             U b.X 4X&             Z.HXHXHXHXHXHXHXHXHXHXHXHXHX-X",
"-XHXHXHXHXHXHXHXHXHXHXHXHXHXMXJ         q >X}.  Y.7Xi         B xXHXHXHXpXj         Y mX8.  aX.X4       X 8.HXHXHXHXHXHXHXHXHXHXHXHXHXHX-X",
"-XHXHXHXHXHXHXHXHXHXHXHXHXHXHXGX!.%. .b.bXHXr.  ,.HXNXB.o.@.U.DXHXHXHXHXHXAXY.<.8.|.GXHXZ   U.HXvXB.;.y.3XHXHXHXHXHXHXHXHXHXHXHXHXHXHXHX-X",
"-XHXHXHXHXHXHXHXHXHXHXHXHXHXHXHXHXHXHXHXHXDXp   9 VXHXHXHXHXHXHXHXHXHXHXHXHXHXHXHXHXHX0XX   K HXHXHXHXHXHXHXHXHXHXHXHXHXHXHXHXHXHXHXHXHX-X",
"-XHXHXHXHXHXHXHXHXHXHXHXHXHXHXHXHXHXHXHXHXh.      0.HXHXHXHXHXCXT t t t ^ SXHXHXHXHXDXJ       R.HXHXHXHXHXHXHXHXHXHXHXHXHXHXHXHXHXHXHXHX-X",
"-XHXHXHXHXHXHXHXHXHXHXHXHXHXHXHXHXHXHXHXDXE.Y.Y.Y.T.ZXHXHXHXHXHX2Xo   @ qXHXHXHXHXHXzX{.{.{.{.#XHXHXHXHXHXHXHXHXHXHXHXHXHXHXHXHXHXHXHXHX-X",
"-XHXHXHXHXHXHXHXHXHXHXHXHXHXHXHXHXHXHXHXHXHXHXHXHXHXHXHXaXtXDXHXHXU   ) HXHXSXtXsXHXHXHXHXHXHXHXHXHXHXHXHXHXHXHXHXHXHXHXHXHXHXHXHXHXHXHX-X",
"-XHXHXHXHXHXHXHXHXHXHXHXHXHXHXHXHXHXHXHXHXHXHXHXHXHX^.p     7 v.GXb.  F.FXg.3     f [.HXHXHXHXHXHXHXHXHXHXHXHXHXHXHXHXHXHXHXHXHXHXHXHXHX-X",
"-XHXHXHXHXHXHXHXHXHXHXHXHXHXHXHXHXHXHXHXHXHXHXHXHXT.X           ,.|.  &XO.          O _.HXHXHXHXHXHXHXHXHXHXHXHXHXHXHXHXHXHXHXHXHXHXHXHX-X",
"-XHXHXHXHXHXHXHXHXHXHXHXHXHXHXHXHXHXHXHXHXHXHXHXVX5               y.  y.              e SXHXHXHXHXHXHXHXHXHXHXHXHXHXHXHXHXHXHXHXHXHXHXHX-X",
"-XHXHXHXHXHXHXHXHXHXHXHXHXHXHXHXHXHXHXHXHXHXHXHX}.                *   *                 &XHXHXHXHXHXHXHXHXHXHXHXHXHXHXHXHXHXHXHXHXHXHXHX-X",
"-XHXHXHXHXHXHXHXHXHXHXHXHXHXHXHXHXHXHXHXHXHXHXHXE.                                      '.HXHXHXHXHXHXHXHXHXHXHXHXHXHXHXHXHXHXHXHXHXHXHX-X",
"-XHXHXHXHXHXHXHXHXHXHXHXHXHXHXHXHXHXHXHXHXHXHXHX3X                                      rXHXHXHXHXHXHXHXHXHXHXHXHXHXHXHXHXHXHXHXHXHXHXHX-X",
"-XHXHXHXHXHXHXHXHXHXHXHXHXHXHXHXHXHXHXHXHXHXHXHXHXm                                   G HXHXHXHXHXHXHXHXHXHXHXHXHXHXHXHXHXHXHXHXHXHXHXHX-X",
"-XHXHXHXHXHXHXHXHXHXHXHXHXHXHXHXHXHXHXHXHXHXHXHXHXeXw           .       .           i pXHXHXHXHXHXHXHXHXHXHXHXHXHXHXHXHXHXHXHXHXHXHXHXHX-X",
"-XHXHXHXHXHXHXHXHXHXHXHXHXHXHXHXHXHXHXHXHXHXHXHXHXHXnXa.S x ) ! .       X ) ^ x G f.NXHXHXHXHXHXHXHXHXHXHXHXHXHXHXHXHXHXHXHXHXHXHXHXHXHX-X",
"-XHXHXHXHXHXHXHXHXHXHXHXHXHXHXHXHXHXHXHXHXHXHXHXHXHXHXHXHXHX2X+           $ qXHXHXHXHXHXHXHXHXHXHXHXHXHXHXHXHXHXHXHXHXHXHXHXHXHXHXHXHXHX-X",
"-XHXHXHXHXHXHXHXHXHXHXHXHXHXHXHXHXHXHXHXHXHXHXHXHXHXHXHXHXHXK               ! HXHXHXHXHXHXHXHXHXHXHXHXHXHXHXHXHXHXHXHXHXHXHXHXHXHXHXHXHX-X",
"-XHXHXHXHXHXHXHXHXHXHXHXHXHXHXHXHXHXHXHXHXHXHXHXHXHXHXHXHXkXX               + MXHXHXHXHXHXHXHXHXHXHXHXHXHXHXHXHXHXHXHXHXHXHXHXHXHXHXHXHX-X",
"-XHXHXHXHXHXHXHXHXHXHXHXHXHXHXHXHXHXHXHXHXHXHXHXHXHXHXHXHX1X                  wXHXHXHXHXHXHXHXHXHXHXHXHXHXHXHXHXHXHXHXHXHXHXHXHXHXHXHXHX-X",
"-XHXHXHXHXHXHXHXHXHXHXHXHXHXHXHXHXHXHXHXHXHXHXHXHXHXHXHXHXNXO               % AXHXHXHXHXHXHXHXHXHXHXHXHXHXHXHXHXHXHXHXHX(.s.s.kXHXHXHXHX-X",
"-XHXHXHXHXHXHXHXHXHXHXHXHXHXHXHXHXHXHXHXFX|.{.{.{.{.VXHXHXHX[               %.HXHXHXzXY.Y.Y.Y.`.HXHXHXHXHXHXHXHXHXHXHXHX9XX ~ HXHXHXHXHX-X",
"-XHXHXHXHXHXHXHXHXHXHXHXHXHXHXHXHXHXHXHXHXi.      &.HXHXHXHXcXv           C mXHXHXHXGX/       ).HXHXHXHXHXHXHXHXmX;.l / fXc T.J.c D _.HX-X",
"-XHXHXHXHXHXHXHXHXHXHXHXHXHXHXHXHXHXHXHXHXAXu   1 nXHXHXHXHXHXAXM.T c E A.SXHXHXHXHXHXaX+   U HXHXHXHXHXHXHXHXHX)       u I =.      o :X-X",
"-XHXHXHXHXHXHXHXHXHXHXHXHXHXHXHX@Xq.1.K.CXHXe.  #.HXSXW.5.7.].GXHXHXHXHXHXBXB.X.%.U.SXHXP   Y.HXgXd.} >.oXHXHXSX@         O O         7.-X",
"-XHXHXHXHXHXHXHXHXHXHXHXHXHXZX`         a 6X}.  G.pXx         L nXHXHXHXeXu         M kXy.  pX).:         o.FXHX2                     f.-X",
"-XHXHXHXHXHXHXHXHXHXHXHXHXHX1.            0 $X  ).g             ' HXHXDXk             V B.. :X$             h.HXN.X     .     .     p zX-X",
"-XHXHXHXHXHXHXHXHXHXHXHXHXvX#               H   H               . wXHX(.                B $ c               5 FXHX1Xj.t.=     N x.G.MXHX-X",
"-XHXHXHXHXHXHXHXHXHXHXHXHXXX                                      K.HXt.                                      uXHXHXHXP         oXHXHXHX-X",
"-XHXHXHXHXHXHXHXHXHXHXHXHX:X                                      ^.HXx.                                      nXHXHXHX=         y.HXHXHX-X",
"-XHXHXHXHXHXHXHXHXHXHXHXHXNX>                                   @ sXHX,X.                                   z HXHXHXHXn         Q.HXHXHX-X",
"-XHXHXHXHXHXHXHXHXHXHXHXHXHXf.                                  ,.HXHXHX]                                 O ].HXHXHXHX4Xp   X ,.HXHXHXHX-X",
"-XHXHXHXHXHXHXHXHXHXHXHXHXHXHXa.&       3 O       X 6       + 3.FXHXHXHXAX:.+       t .       % 7       w (.HXHXHXHXHXHXFX9XlXHXHXHXHXHX-X",
"-XHXHXHXHXHXHXHXHXHXHXHXHXHXHXHXzXE.N.{.E           V  XN.I.fXHXHXHXHXHXHXHXxX(.E.*Xr           @.#XY.%XSXHXHXHXHXHXHXBX&.u y j K.HXHXHX-X",
"-XHXHXHXHXHXHXHXHXHXHXHXHXHXHXHXHXHXHXR.              x.HXHXHXHXHXHXHXHXHXHXHXHXHXo.              OXHXHXHXHXHXHXHXHXHX5.C MXHX<X& >XHXHX-X",
"-XHXHXHXHXHXHXHXHXHXHXHXHXHXHXHXHXHXHXh               4 DXHXHXHXHXHXHXHXHXHXHXHXsXo               P HXHXHXHXHXHXHXHXHXJ i.HXHXHXl D.HXHX-X",
"-XHXHXHXHXHXHXHXHXHXHXHXHXHXHXHXHXHXzX                  2XHXHXHXHXHXHXHXHXHXHXHXE.                ; HXHXHXHXHXHXHXHXHXg.M kXHXOX3 yXHXHX-X",
"-XHXHXHXHXHXHXHXHXHXHXHXHXHXHXHXHXHXzX.                 2XHXHXHXHXHXHXHXHXHXHXHX/.                2 HXHXHXHXHXHXHXHXHXHX4.o 3 ; .XHXHXHX-X",
"-XHXHXHXHXHXHXHXHXHXHXHXHXHXHXHXHXHXHXf               2 DXHXHXHXHXHXHXHXHXHXHXHXkX$               ^ HXHXHXHXHXHXHXHXHX%X6 tXHXZ.t ZXHXHX-X",
"-XHXHXHXHXHXHXHXHXHXHXHXHXHXHXHXHXHXHX^..             B.HXHXHXHXHXHXHXHXHXHXHXHXHXu.            - 8XHXHXHXHXHXHXHXHXHXt.I HXHXSX. 3XHXHX-X",
"-XHXHXHXHXHXHXHXHXHXHXHXHXHXHXHXHXHXHXHXL.<       * c.HXHXHXHXHXHXHXHXHXHXHXHXHXHXHXg.-       h -XHXHXHXHXHXHXHXHXHXHXW.7 hXHX(.; mXHXHX-X",
"-XHXHXHXHXHXHXHXHXHXHXHXHXHXHXHXHXHXHXHXHXBX'.Z.(.nXHXHXHXHXHXHXHXHXHXHXHXHXHXHXHXHXHXBXOX~.2XHXHXHXHXHXHXHXHXHXHXHXHXHXi.i u v XXHXHXHX-X",
"-XHXHXHXHXHXHXHXHXHXHXHXHXHXHXHXHXHXHXHXHXHXHXHXHXHXHXHXHXHXHXHXHXHXHXHXHXHXHXHXHXHXHXHXHXHXHXHXHXHXHXHXHXHXHXHXHXHXHXHXHXHXHXHXHXHXHXHX-X",
"+XGXHXHXHXHXHXHXHXHXHXHXHXHXHXHXHXHXHXHXHXHXHXHXHXHXHXHXHXHXHXHXHXHXHXHXHXHXHXHXHXHXHXHXHXHXHXHXHXHXHXHXHXHXHXHXHXHXHXHXHXHXHXHXHXHXHXGX@X",
"AXOX-X;X;X;X;X;X;X;X;X;X;X;X;X;X;X;X;X;X;X;X;X;X;X;X;X;X;X;X;X;X;X;X;X;X;X;X;X;X;X;X;X;X;X;X;X;X;X;X;X;X;X;X;X;X;X;X;X;X;X;X;X;X;X;X-XOXAX"
};
