/* XPM */
static const char *eight_hearts[] = {
/* columns rows colors chars-per-pixel */
"69 100 245 2 ",
"   c #DF0000",
".  c #DF0101",
"X  c #DF0202",
"o  c #DF0303",
"O  c #DF0404",
"+  c #E00505",
"@  c #E00606",
"#  c #E00707",
"$  c #E00808",
"%  c #E00909",
"&  c #E00A0A",
"*  c #E00B0B",
"=  c #E10C0C",
"-  c #E10D0D",
";  c #E10E0E",
":  c #E10F0F",
">  c #E11010",
",  c #E11111",
"<  c #E11212",
"1  c #E11313",
"2  c #E21414",
"3  c #E21515",
"4  c #E21616",
"5  c #E21717",
"6  c #E21818",
"7  c #E21919",
"8  c #E21A1A",
"9  c #E21B1B",
"0  c #E31C1C",
"q  c #E31D1D",
"w  c #E31F1F",
"e  c #E32020",
"r  c #E32121",
"t  c #E32222",
"y  c #E32323",
"u  c #E42424",
"i  c #E42525",
"p  c #E42626",
"a  c #E42727",
"s  c #E42828",
"d  c #E42929",
"f  c #E42A2A",
"g  c #E42B2B",
"h  c #E52C2C",
"j  c #E52D2D",
"k  c #E52E2E",
"l  c #E52F2F",
"z  c #E53030",
"x  c #E53131",
"c  c #E53232",
"v  c #E53333",
"b  c #E63434",
"n  c #E63535",
"m  c #E63636",
"M  c #E63737",
"N  c #E63838",
"B  c #E63939",
"V  c #E63A3A",
"C  c #E63B3B",
"Z  c #E73C3C",
"A  c #E73D3D",
"S  c #E73E3E",
"D  c #E73F3F",
"F  c #E74040",
"G  c #E74141",
"H  c #E74242",
"J  c #E74343",
"K  c #E84545",
"L  c #E84646",
"P  c #E84747",
"I  c #E84848",
"U  c #E84949",
"Y  c #E84A4A",
"T  c #E84B4B",
"R  c #E94C4C",
"E  c #E94D4D",
"W  c #E94F4F",
"Q  c #E95050",
"!  c #E95151",
"~  c #E95252",
"^  c #E95353",
"/  c #EA5454",
"(  c #EA5555",
")  c #EA5656",
"_  c #EA5757",
"`  c #EA5858",
"'  c #EA5959",
"]  c #EA5B5B",
"[  c #EB5C5C",
"{  c #EB5E5E",
"}  c #EB5F5F",
"|  c #EB6060",
" . c #EB6161",
".. c #EB6262",
"X. c #EB6363",
"o. c #EC6464",
"O. c #EC6565",
"+. c #EC6666",
"@. c #EC6767",
"#. c #EC6868",
"$. c #EC6969",
"%. c #EC6A6A",
"&. c #EC6B6B",
"*. c #ED6C6C",
"=. c #ED6D6D",
"-. c #ED6E6E",
";. c #ED6F6F",
":. c #ED7171",
">. c #ED7272",
",. c #ED7373",
"<. c #EE7474",
"1. c #EE7575",
"2. c #EE7676",
"3. c #EE7777",
"4. c #EE7878",
"5. c #EE7A7A",
"6. c #EE7B7B",
"7. c #EF7C7C",
"8. c #EF7D7D",
"9. c #EF7E7E",
"0. c #EF7F7F",
"q. c #EF8181",
"w. c #EF8282",
"e. c #EF8383",
"r. c #F08484",
"t. c #F08585",
"y. c #F08686",
"u. c #F08787",
"i. c #F08888",
"p. c #F08989",
"a. c #F08A8A",
"s. c #F08B8B",
"d. c #F18C8C",
"f. c #F18D8D",
"g. c #F18E8E",
"h. c #F19090",
"j. c #F19191",
"k. c #F19292",
"l. c #F19393",
"z. c #F29494",
"x. c #F29595",
"c. c #F29797",
"v. c #F29898",
"b. c #F29A9A",
"n. c #F29B9B",
"m. c #F39C9C",
"M. c #F39D9D",
"N. c #F39E9E",
"B. c #F39F9F",
"V. c #F3A0A0",
"C. c #F3A1A1",
"Z. c #F3A2A2",
"A. c #F4A4A4",
"S. c #F4A5A5",
"D. c #F4A6A6",
"F. c #F4A9A9",
"G. c #F4AAAA",
"H. c #F4ABAB",
"J. c #F5ADAD",
"K. c #F5AEAE",
"L. c #F5AFAF",
"P. c #F5B0B0",
"I. c #F5B1B1",
"U. c #F5B2B2",
"Y. c #F5B3B3",
"T. c #F6B4B4",
"R. c #F6B5B5",
"E. c #F6B6B6",
"W. c #F6B7B7",
"Q. c #F6B8B8",
"!. c #F6B9B9",
"~. c #F6BABA",
"^. c #F6BBBB",
"/. c #F7BCBC",
"(. c #F7BDBD",
"). c #F7BEBE",
"_. c #F7BFBF",
"`. c gray76",
"'. c #C3C3C3",
"]. c gray77",
"[. c #CBCBCB",
"{. c gray80",
"}. c #F7C0C0",
"|. c #F7C1C1",
" X c #F7C2C2",
".X c #F7C3C3",
"XX c #F8C4C4",
"oX c #F8C5C5",
"OX c #F8C6C6",
"+X c #F8C7C7",
"@X c #F8C8C8",
"#X c #F8C9C9",
"$X c #F8CBCB",
"%X c #F9CCCC",
"&X c #F9CDCD",
"*X c #F9CECE",
"=X c #F9CFCF",
"-X c #F9D0D0",
";X c #F9D1D1",
":X c #F9D2D2",
">X c #F9D3D3",
",X c #FAD4D4",
"<X c #FAD5D5",
"1X c #FAD6D6",
"2X c #FAD7D7",
"3X c #FAD8D8",
"4X c #FAD9D9",
"5X c #FADBDB",
"6X c #FBDCDC",
"7X c #FBDDDD",
"8X c #FBDEDE",
"9X c #FBDFDF",
"0X c #FBE0E0",
"qX c #FBE1E1",
"wX c #FBE2E2",
"eX c #FBE3E3",
"rX c #FCE4E4",
"tX c #FCE5E5",
"yX c #FCE6E6",
"uX c #FCE7E7",
"iX c #FCE8E8",
"pX c #FCE9E9",
"aX c #FCEAEA",
"sX c #FCEBEB",
"dX c #FDECEC",
"fX c #FDEDED",
"gX c #FDEFEF",
"hX c #FDF0F0",
"jX c #FDF1F1",
"kX c #FDF2F2",
"lX c #FDF3F3",
"zX c #FEF4F4",
"xX c #FEF5F5",
"cX c #FEF6F6",
"vX c #FEF7F7",
"bX c gray98",
"nX c #FEF8F8",
"mX c #FEF9F9",
"MX c #FEFAFA",
"NX c #FEFBFB",
"BX c #FFFCFC",
"VX c #FFFDFD",
"CX c #FEFEFE",
"ZX c #FFFEFE",
"AX c white",
/* pixels */
"bX`.[.{.{.{.{.{.{.{.{.{.{.{.{.{.{.{.{.{.{.{.{.{.{.{.{.{.{.{.{.{.{.{.{.{.{.{.{.{.{.{.{.{.{.{.{.{.{.{.{.{.{.{.{.{.{.{.{.{.{.{.{.{.{.{.[.`.bX",
"'.CXAXAXAXAXAXAXAXAXAXAXAXAXAXAXAXAXAXAXAXAXAXAXAXAXAXAXAXAXAXAXAXAXAXAXAXAXAXAXAXAXAXAXAXAXAXAXAXAXAXAXAXAXAXAXAXAXAXAXAXAXAXAXAXAXAXCX].",
"[.AXAXAXAXAXAXAXAXAXAXAXAXAXAXAXAXAXAXAXAXAXAXAXAXAXAXAXAXAXAXAXAXAXAXAXAXAXAXAXAXAXAXAXAXAXAXAXAXAXAXAXAXAXAXAXAXAXAXAXAXAXAXAXAXAXAXAX[.",
"[.AXAXAXAX}.m y i i.AXAXAXAXAXNXP.,.%.g.pXAXAXAXdXj.&.:.H.MXAXAXAXAXAXAXAXAXAX9X8.Y T 5.rXAXAXAX}.X.K ) b.cXAXAXAXAXAXAXAXAXAXAXAXAXAXAX[.",
"[.AXAXAXkX; R.AXpX7 P.AXAXAX8Xj         , .XAX$X3         a 1XAXAXAXAXAXAXAXD.%         2 -XAXa..         a 8XAXAXAXAXAXAXAXAXAXAXAXAXAX[.",
"[.AXAXAX:X. BXAXAXU e.AXAXmXs             8 xXu             w zXAXAXAXAXAX,X+             b 4XX             c VXAXAXAXAXAXAXAXAXAXAXAXAX[.",
"[.AXAXAXmXe B.AX8X5 @XAXAXD.                (                 v.AXAXAXAXAX#.                D                 _.AXAXAXAXAXAXAXAXAXAXAXAX[.",
"[.AXAXAXAX).; 2 X 4.AXAXAX-.                .                 } AXAXAXAXAXM                                   g.AXAXAXAXAXAXAXAXAXAXAXAX[.",
"[.AXAXAX9X1 }.AXpXm f.AXAX@.                                  ` AXAXAXAXAXM                                   f.AXAXAXAXAXAXAXAXAXAXAXAX[.",
"[.AXAXAXB.x AXAXAXr.P AXAXM.                                  h.AXAXAXAXAX4.                                  *XAXAXAXAXAXAXAXAXAXAXAXAX[.",
"[.AXAXAX%X& -XAXzXA 4.AXAXmXy                               4 kXAXAXAXAXAXsX:                               ~ AXAXAXAXAXAXAXAXAXAXAXAXAX[.",
"[.AXAXAXAXV.h y y #.cXAXAXAXP..                             D.AXAXAXAXAXAXAXc.                            < 9XAXAXAXAXAXAXAXAXAXAXAXAXAX[.",
"[.AXAXAXAXAXAXAXAXAXAXAXAXAXAX<.                          *.AXAXAXAXAXAXAXAXAX[                         X E.AXAXAXAXAXAXAXAXAXAXAXAXAXAX[.",
"[.AXlXu.' 5.zXAXn.` >.6XAXAXAXBXW                       G mXAXAXAXAXAXAXAXAXAXvXZ                       h.AXAXAXAXAXAXAXAXAXAXAXAXAXAXAX[.",
"[.MXm       E z.      - 5XAXAXAXzXv                   l jXAXAXAXAXAXAXAXAXAXAXAXdXa                   >.AXAXAXAXAXAXAXAXAXAXAXAXAXAXAXAX[.",
"[.|.          2         5.AXAXAXAXaXu               9 wXAXAXAXAXAXAXAXAXAXAXAXAXAX8X5               ) VXAXAXAXAXAXAXAXAXAXAXAXAXAXAXAXAX[.",
"[.P.                    #.AXAXAXAXAX2X:           ; <XAXAXAXAXAXAXAXAXAXAXAXAXAXAXAX#X#           B nXAXAXAXAXAXAXAXAXAXAXAXAXAXAXAXAXAX[.",
"[.hX1                   /.AXAXAXAXAXAXU.X       . H.AXAXAXAXAXAXAXAXAXAXAXAXAXAXAXAXAXb.        4 rXAXAXAXAXAXAXAXAXAXAXAXAXAXAXAXAXAXAX[.",
"[.AXG..               O.AXAXAXAXAXAXAXAX,.      =.AXAXAXAXAXAXAXAXAXAXAXAXAXAXAXAXAXAXAX`       W.AXAXAXAXAXAXAXAXAXAXAXAXAXAXAXAXAXAXAX[.",
"[.AXAX9.            A mXAXAXAXAXAXAXAXAXxXr   6 hXAXAXAXAXAXAXAXAXAXAXAXAXAXAXAXAXAXAXAXiX>   ) AXAXAXAXAXAXAXAXAXAXAXAXAXAXAXAXAXAXAXAX[.",
"[.AXAXZX^         y dXAXAXAXAXAXAXAXAXAXAXF.  B.AXAXAXAXAXAXAXAXAXAXAXAXAXAXAXAXAXAXAXAXAXy.o 0XAXAXAXAXAXAXAXAXAXAXAXAXAXAXAXAXAXAXAXAX[.",
"[.AXAXAXcXb     - >XAXAXAXAXAXAXAXAXAXAXAXNXs xXAXAXAXAXAXAXZXAXAXAXAXAXAXAXZXAXAXAXAXAXAXiXR AXAXAXAXAXAXAXAXAXAXAXAXAXAXAXAXAXAXAXAXAX[.",
"[.AXAXAXAX0X-   K.AXAXAXAXAXAXAXAXAXAXAXAXAX>XAXAXAXAX|.I & X y f.VXAXAXm.d O # F Y.AXAXAXAXeXAXAXAXAXAXAXAXAXAXAXAXAXAXAXAXAXAXAXAXAXAX[.",
"[.AXAXAXAXAXa.I AXAXAXAXAXAXAXAXAXAXAXAXAXAXAXAXAXAXn.X           *.AXt.            e.AXAXAXAXAXAXAXAXAXAXAXAXAXAXAXAXAXAXAXAXAXAXAXAXAX[.",
"[.AXAXAXAXAXgX^.AXAXAXAXAXAXAXAXAXAXAXAXAXAXAXAXAXwX$             X XX%             X *XAXAXAXAXAXAXAXAXAXAXAXAXAXAXAXAXAXAXAXAXAXAXAXAX[.",
"[.AXAXAXAXAXAXAXAXAXAXAXAXAXAXAXAXAXAXAXAXAXAXAXAXg.                0                 <.AXAXAXAXAXAXAXAXAXAXAXAXAXAXAXAXAXAXAXAXAXAXAXAX[.",
"[.AXAXAXAXAXAXAXAXAXAXAXAXAXAXAXAXAXAXAXAXAXAXAXAX&.                                  Q AXAXAXAXAXAXAXAXAXAXAXAXAXAXAXAXAXAXAXAXAXAXAXAX[.",
"[.AXAXAXAXAXAXAXAXAXAXAXAXAXAXAXAXAXAXAXAXAXAXAXAX7.                                   .AXAXAXAXAXAXAXAXAXAXAXAXAXAXAXAXAXAXAXAXAXAXAXAX[.",
"[.AXAXAXAXAXAXAXAXAXAXAXAXAXAXAXAXAXAXAXAXAXAXAXAX*X.                                 E.AXAXAXAXAXAXAXAXAXAXAXAXAXAXAXAXAXAXAXAXAXAXAXAX[.",
"[.AXAXAXAXAXAXAXAXAXAXAXAXAXAXAXAXAXAXAXAXAXAXAXAXAX'                               G AXAXAXAXAXAXAXAXAXAXAXAXAXAXAXAXAXAXAXAXAXAXAXAXAX[.",
"[.AXAXAXAXAXAXAXAXAXAXAXAXAXAXAXAXAXAXAXAXAXAXAXAXAXdXe                           , 7XAXAXAXAXAXAXAXAXAXAXAXAXAXAXAXAXAXAXAXAXAXAXAXAXAX[.",
"[.AXAXAXAXAXAXAXAXAXAXAXAXAXAXAXAXAXAXAXAXAXAXAXAXAXAX+X$                       o E.AXAXAXAXAXAXAXAXAXAXAXAXAXAXAXAXAXAXAXAXAXAXAXAXAXAX[.",
"[.AXAXAXAXAXAXAXAXAXAXAXAXAXAXAXAXAXAXAXAXAXAXAXAXAXAXAXG.X                     l.AXAXAXAXAXAXAXAXAXAXAXAXAXAXAXAXAXAXAXAXAXAXAXAXAXAXAX[.",
"[.AXAXAXAXAXAXAXAXAXAXAXAXAXAXAXAXAXAXAXAXAXAXAXAXAXAXAXAXs.                  4.AXAXAXAXAXAXAXAXAXAXAXAXAXAXAXAXAXAXAXAXAXAXAXAXAXAXAXAX[.",
"[.AXAXAXAXAXAXAXAXAXAXAXAXAXAXAXAXAXAXAXAXAXAXAXAXAXAXAXAXAX-.              ' ZXAXAXAXAXAXAXAXAXAXAXAXAXAXAXAXAXAXAXAXAXAXAXAXAXAXAXAXAX[.",
"[.AXAXAXAXAXAXAXAXAXAXAXAXAXAXAXAXAXAXAXAXAXAXAXAXAXAXAXAXAXBXL           B mXAXAXAXAXAXAXAXAXAXAXAXAXAXAXAXAXAXAXAXAXAXAXAXAXAXAXAXAXAX[.",
"[.AXAXAXAXAXAXAXAXAXAXAXAXAXAXAXAXAXAXAXAXAXAXAXAXAXAXAXAXAXAXfXt       4 eXAXAXAXAXAXAXAXAXAXAXAXAXAXAXAXAXAXAXAXAXAXAXAXAXAXAXAXAXAXAX[.",
"[.AXAXAXAXAXAXAXAXAXAXAXAXAXAXAXAXAXAXAXAXAXAXAXAXAXAXAXAXAXAXAX|..     H.AXAXAXAXAXAXAXAXAXAXAXAXAXAXAXAXAXAXAXAXAXAXAXAXAXAXAXAXAXAXAX[.",
"[.AXAXAXAXAXAXAXAXAXAXAXAXAXAXAXAXAXAXAXAXAXAXAXAXAXAXAXAXAXAXAXAX]   L AXAXAXAXAXAXAXAXAXAXAXAXAXAXAXAXAXAXAXAXAXAXAXAXAXAXAXAXAXAXAXAX[.",
"[.AXAXAXAXAXAXAXAXAXAXAXAXAXAXAXAXAXAXAXAXAXAXAXAXAXAXAXAXAXAXAXAX7X. +XAXAXAXAXAXAXAXAXAXAXAXAXAXAXAXAXAXAXAXAXAXAXAXAXAXAXAXAXAXAXAXAX[.",
"[.AXAXAXAXAXAXAXAXAXAXAXAXAXAXAXAXAXAXAXAXAXAXAXAXAXAXAXAXAXAXAXAXAX$.AXAXAXAXAXAXAXAXAXAXAXAXAXAXAXAXAXAXAXAXAXAXAXAXAXAXAXAXAXAXAXAXAX[.",
"[.AXAXAXAXAXAXAXAXAXAXAXAXAXAXAXAXAXAXAXAXAXAXAXAXAXAXAXAXAXAXAXAXAXmXAXAXAXAXAXAXyXyXAXAXAXAXAXAXmX0XkXAXAXAXAXAXAXAXAXAXAXAXAXAXAXAXAX[.",
"[.AXAXAXAXAXAXAXAXAXAXAXAXAXAXXXE , @ g c.ZXAXAXB.l # : I (.AXAXAXAXAXAXAXAXMXt.8     6 x.AXAXgX{ @   X M !.AXAXAXAXAXAXAXAXAXAXAXAXAXAX[.",
"[.AXAXAXAXAXAXAXAXAXAXAXAXAXn.X           4.AXt.          . g.AXAXAXAXAXAXVXE             h.VXV           . V.AXAXAXAXAXAXAXAXAXAXAXAXAX[.",
"[.AXAXAXAXAXAXAXAXAXAXAXAX0X$             O #X$             O 1XAXAXAXAXAXS.              < A.              - fXAXAXAXAXAXAXAXAXAXAXAXAX[.",
"[.AXAXAXAXAXAXAXAXAXAXAXAXa.                w                 6.AXAXAXAXAXW                 2                 S.AXAXAXAXAXAXAXAXAXAXAXAX[.",
"[.AXAXAXAXAXAXAXAXAXAXAXAX+.                                  _ AXAXAXAXAXc                                   u.AXAXAXAXAXAXAXAXAXAXAXAX[.",
"[.AXAXAXAXAXAXAXAXAXAXAXAX<.                                  +.AXAXAXAXAXU                                   B.AXAXAXAXAXAXAXAXAXAXAXAX[.",
"[.AXAXAXAXAXAXAXAXAXAXAXAXOX                                  Q.AXAXAXAXAXA.                                : dXAXAXAXAXAXAXAXAXAXAXAXAX[.",
"[.AXAXAXAXAXAXAXAXAXAXAXAXAXW                               J AXAXAXAXAXAXVXc                               p.AXAXAXAXAXAXAXAXAXAXAXAXAX[.",
"[.AXAXAXAXAXAXAXAXAXAXAXAXAXuX7                           , 7XAXAXAXAXAXAXAX3X;                           G NXAXAXAXAXAXAXAXAXAXAXAXAXAX[.",
"[.AXAXAXAXAXAXAXAXAXAXAXAXAXAX).+                       o W.AXAXAXAXAXAXAXAXAXH.X                       e pXAXAXAXAXAXAXAXAXAXAXAXAXAXAX[.",
"[.AXAXAXAXAXAXAXAXAXAXAXAXAXAXAXS..                     l.AXAXAXAXAXAXAXAXAXAXAXp.                    : :XAXAXAXAXAXAXAXAXAXAXAXAXAXAXAX[.",
"[.AXAXAXAXAXAXAXAXAXAXAXAXAXAXAXAX0.                  4.AXAXAXAXAXAXAXAXAXAXAXAXAX&.                $ |.AXAXAXAXAXAXAXAXAXAXAXAXAXAXAXAX[.",
"[.AXAXAXAXAXAXAXAXAXAXAXAXAXAXAXAXZX .              ' ZXAXAXAXAXAXAXAXAXAXAXAXAXAXVX!             X G.AXAXAXAXAXAXAXAXAXAXAXAXAXAXAXAXAX[.",
"[.AXAXAXAXAXAXAXAXAXAXAXAXAXAXAXAXAXMXA           B mXAXAXAXAXAXAXAXAXAXAXAXAXAXAXAXzXh           q.AXAXAXAXAXAXAXAXAXAXAXAXAXAXAXAXAXAX[.",
"[.AXAXAXAXAXAXAXAXAXAXAXAXAXAXAXAXAXAXiX9       4 eXAXAXAXAXAXAXAXAXAXAXAXAXAXAXAXAXAX4X;       Y VXAXAXAXAXAXAXAXAXAXAXAXAXAXAXAXAXAXAX[.",
"[.AXAXAXAXAXAXAXAXAXAXAXAXAXAXAXAXAXAXAXW.      J.AXAXAXAXAXAXAXAXAX6XAXAXAXAXAXAXAXAXAXx.    ; tXAXAXAXAXAXAXAXAXAXAXAXAXAXAXAXAXAXAXAX[.",
"[.AXAXAXAXAXAXAXAXAXAXAXAXAXAXAXAXAXAXAXAX!   P AXAXAXAXAXAXAXAXAXdXA AXAXAXAXAXAXAXAXAXVXm   j.AXAXAXAXAXAXAXAXAXAXAXAXAXAXAXAXAXAXAXAX[.",
"[.AXAXAXAXAXAXAXAXAXAXAXAXAXAXAXAXAXAXAXAX<X  $XAXAXAXAXAXAXAXAXAXa.  &XAXAXAXAXAXAXAXAXAXP.< nXAXAXAXAXAXAXAXAXAXAXAXAXAXAXAXAXAXAXAXAX[.",
"[.AXAXAXAXAXAXAXAXAXAXAXAXAXAXAXAXAXAXAXAXAXO.AXAXAXAXAXAXAXAXAXiX,   Z ZXAXAXAXAXAXAXAXAXNXu.AXAXAXAXAXAXAXAXAXAXAXAXAXAXAXAXAXAXAXAXAX[.",
"[.AXAXAXAXAXAXAXAXAXAXAXAXAXAXAXAXAXAXAXAXAXvXAXAXAXAXAXAXAXAXAX]       n.AXAXAXAXAXAXAXAXAXVXAXAXAXAXAXAXAXAXAXAXAXAXAXAXAXAXAXAXAXAXAX[.",
"[.AXAXAXAXAXAXAXAXAXAXAXAXAXAXAXAXAXAXAXAXAXAXAXAXAXAXAXAXAXAXb.        $ &XAXAXAXAXAXAXAXAXAXAXAXAXAXAXAXAXAXAXAXAXAXAXAXAXAXAXAXAXAXAX[.",
"[.AXAXAXAXAXAXAXAXAXAXAXAXAXAXAXAXAXAXAXAXAXAXAXAXAXAXAXAXAX#X$           u fXAXAXAXAXAXAXAXAXAXAXAXAXAXAXAXAXAXAXAXAXAXAXAXAXAXAXAXAXAX[.",
"[.AXAXAXAXAXAXAXAXAXAXAXAXAXAXAXAXAXAXAXAXAXAXAXAXAXAXAXAX8X5               A vXAXAXAXAXAXAXAXAXAXAXAXAXAXAXAXAXAXAXAXAXAXAXAXAXAXAXAXAX[.",
"[.AXAXAXAXAXAXAXAXAXAXAXAXAXAXAXAXAXAXAXAXAXAXAXAXAXAXAXdXa                   ) VXAXAXAXAXAXAXAXAXAXAXAXAXAXAXAXAXAXAXAXAXAXAXAXAXAXAXAX[.",
"[.AXAXAXAXAXAXAXAXAXAXAXAXAXAXAXAXAXAXAXAXAXAXAXAXAXAXcXC                       <.AXAXAXAXAXAXAXAXAXAXAXAXAXAXAXAXAXAXAXAXAXAXAXAXAXAXAX[.",
"[.AXAXAXAXAXAXAXAXAXAXAXAXAXAXAXAXAXAXAXAXAXAXAXAXAXAX'                           N.AXAXAXAXAXAXAXAXAXAXAXAXAXAXAXAXAXAXAXAXAXAXAXAXAXAX[.",
"[.AXAXAXAXAXAXAXAXAXAXAXAXAXAXAXAXAXAXAXAXAXAXAXAXAXz.                            % ;XAXAXAXAXAXAXAXAXAXAXAXAXAXAXAXAXAXAXAXAXAXAXAXAXAX[.",
"[.AXAXAXAXAXAXAXAXAXAXAXAXAXAXAXAXAXAXAXAXAXAXAXAXpX:                               S AXAXAXAXAXAXAXAXAXAXAXAXAXAXAXAXAXAXAXAXAXAXAXAXAX[.",
"[.AXAXAXAXAXAXAXAXAXAXAXAXAXAXAXAXAXAXAXAXAXAXAXAX4.                                  }.AXAXAXAXAXAXAXAXAXAXAXAXAXAXAXAXAXAXAXAXAXAXAXAX[.",
"[.AXAXAXAXAXAXAXAXAXAXAXAXAXAXAXAXAXAXAXAXAXAXAXAXA                                   r.AXAXAXAXAXAXAXAXAXAXAXAXAXAXAXAXAXAXAXAXAXAXAXAX[.",
"[.AXAXAXAXAXAXAXAXAXAXAXAXAXAXAXAXAXAXAXAXAXAXAXAXH                                   p.AXAXAXAXAXAXAXAXAXAXAXAXAXAXAXAXAXAXAXAXAXAXAXAX[.",
"[.AXAXAXAXAXAXAXAXAXAXAXAXAXAXAXAXAXAXAXAXAXAXAXAX3.                Y                 ).AXAXAXAXAXAXAXAXAXAXAXAXAXAXAXAXAXAXAXAXAXAXAXAX[.",
"[.AXAXAXAXAXAXAXAXAXAXAXAXAXAXAXAXAXAXAXAXAXAXAXAXqX*             n tX#             M VXAXAXAXAXAXAXAXAXAXAXAXAXAXAXAXAXAXzXNXAXAXAXAXAX[.",
"[.AXAXAXAXAXAXAXAXAXAXAXAXAXAXAXAXAXAXAXAXAXAXAXAXAX~.<         7 <XAXC.O         z eXAXAXAXAXAXAXAXAXAXAXAXAXAXAXAXAXAXAXM.I.AXAXAXAXAX[.",
"[.AXAXAXAXAXAXAXAXAXAXAXAXAXAXAXAXAXAXAXAXAXG.AXAXAXAXfXj.[ ] p.sXAXAXAX>X2._ +.G.NXAXAXAXAXgXAXAXAXAXAXAXAXAXAXAXAXAXAXnXp j NXAXAXAXAX[.",
"[.AXAXAXAXAXAXAXAXAXAXAXAXAXAXAXAXAXAXAXAXjX; tXAXAXAXAXAXAXAXAXAXAXAXAXAXAXAXAXAXAXAXAXAXjX[ AXAXAXAXAXAXAXAXAXAXAXAXAX%.    8.AXAXAXAX[.",
"[.AXAXAXAXAXAXAXAXAXAXAXAXAXAXAXAXAXAXAXAXa.  3.AXAXAXAXAXAXAXAXAXAXAXAXAXAXAXAXAXAXAXAXAXv.+ uXAXAXAXAXAXAXAXAXAXAXAXm.      . D.AXAXAX[.",
"[.AXAXAXAXAXAXAXAXAXAXAXAXAXAXAXAXAXAXAXyX;   @ <XAXAXAXAXAXAXAXAXAXAXAXAXAXAXAXAXAXAXAXkX0   ..AXAXAXAXAXAXAXAXAXAX(.+         % $XAXAX[.",
"[.AXAXAXAXAXAXAXAXAXAXAXAXAXAXAXAXAXAXZXR       V MXAXAXAXAXAXAXAXAXAXAXAXAXAXAXAXAXAXAX,.    .  XAXAXAXAXAXAXAXAX8X2             7 eXAX[.",
"[.AXAXAXAXAXAXAXAXAXAXAXAXAXAXAXAXAXAXe.          ;.AXAXAXAXAXAXAXAXAXAXAXAXAXAXAXAXAX^.o       q aXAXAXAXAXAXAXmXf                 V ZX[.",
"[.AXAXAXAXAXAXAXAXAXAXAXAXAXAXAXAXAXU.o             B.AXAXAXAXAXAXAXAXAXAXAXAXAXAXAX8X<           K BXAXAXAXAXAXC.                    W.[.",
"[.AXAXAXAXAXAXAXAXAXAXAXAXAXAXAXAX%X*               + !.AXAXAXAXAXAXAXAXAXAXAXAXAXhXj               O.AXAXAXAXAX9.                    l.[.",
"[.AXAXAXAXAXAXAXAXAXAXAXAXAXAXAX6X4                   ; -XAXAXAXAXAXAXAXAXAXAXAXnXS                   y.AXAXAXAXE.        m r       . %X[.",
"[.AXAXAXAXAXAXAXAXAXAXAXAXAXAXsXu                       9 eXAXAXAXAXAXAXAXAXAXVX(                     . C.AXAXAXAX4.O   2 &X).=   $ a.AX[.",
"[.AXAXAXAXAXAXAXAXAXAXAXAXAXVXP                           m nXAXAXAXAXAXAXAXAX4.                        @ oXAXAXAXAXfX=XzXAXAXjX=XhXAXAX[.",
"[.AXAXAXAXAXAXAXAXAXAXAXAXAXy.                              1.AXAXAXAXAXAXAXL..                           9 pXAXAXAXAXAXAXAXAXAXAXAXAXAX[.",
"[.AXAXAXAXAXAXAXAXAXAXAXAXyX=                               # 7XAXAXAXAXAXlX7                               | AXAXAXAXcX&.u y k S.AXAXAX[.",
"[.AXAXAXAXAXAXAXAXAXAXAXAXi.                                  5.AXAXAXAXAXr.                                X 3XAXAXAX4.A zXAX-X& *XAXAX[.",
"[.AXAXAXAXAXAXAXAXAXAXAXAXo.                                  ( AXAXAXAXAXZ                                   k.AXAXAXL t.AXAXAXz V.AXAX[.",
"[.AXAXAXAXAXAXAXAXAXAXAXAX4.                $                 $.AXAXAXAXAXn                                   s.AXAXAXd.B sXAX X3 0XAXAX[.",
"[.AXAXAXAXAXAXAXAXAXAXAXAX|.                i.                U.AXAXAXAXAX|                 j                 E.AXAXAXAX3.o 3 ; _.AXAXAX[.",
"[.AXAXAXAXAXAXAXAXAXAXAXAXAX/             C AXI             L ZXAXAXAXAXAXOX.             a $X              u mXAXAXAX+X6 9XAXM.t mXAXAX[.",
"[.AXAXAXAXAXAXAXAXAXAXAXAXAXvX-.@       D uXAXdXP       + +.lXAXAXAXAXAXAXAXd.X         % _.AX;.          4 *XAXAXAXAXw.Y AXAXNX. >XAXAX[.",
"[.AXAXAXAXAXAXAXAXAXAXAXAXAXAXAXfXW.J.;XAXAXAXAXAX<XK.R.aXAXAXAXAXAXAXAXAXAXAX@X{ f f [ -XAXAXAXZ.J u N 6.pXAXAXAXAXAXK.7 pXAXT.; lXAXAX[.",
"[.AXAXAXAXAXAXAXAXAXAXAXAXAXAXAXAXAXAXAXAXAXAXAXAXAXAXAXAXAXAXAXAXAXAXAXAXAXAXAXAXAXAXAXAXAXAXAXAXAXAXAXAXAXAXAXAXAXAXAXt.i u n }.AXAXAX[.",
"[.AXAXAXAXAXAXAXAXAXAXAXAXAXAXAXAXAXAXAXAXAXAXAXAXAXAXAXAXAXAXAXAXAXAXAXAXAXAXAXAXAXAXAXAXAXAXAXAXAXAXAXAXAXAXAXAXAXAXAXAXAXAXAXAXAXAXAX[.",
"'.CXAXAXAXAXAXAXAXAXAXAXAXAXAXAXAXAXAXAXAXAXAXAXAXAXAXAXAXAXAXAXAXAXAXAXAXAXAXAXAXAXAXAXAXAXAXAXAXAXAXAXAXAXAXAXAXAXAXAXAXAXAXAXAXAXAXCX].",
"bX`.[.{.{.{.{.{.{.{.{.{.{.{.{.{.{.{.{.{.{.{.{.{.{.{.{.{.{.{.{.{.{.{.{.{.{.{.{.{.{.{.{.{.{.{.{.{.{.{.{.{.{.{.{.{.{.{.{.{.{.{.{.{.{.{.[.`.bX"
};
