/* XPM */
static const char *eight_diamonds[] = {
/* columns rows colors chars-per-pixel */
"69 100 249 2 ",
"   c #DF0000",
".  c #DF0101",
"X  c #DF0202",
"o  c #DF0303",
"O  c #DF0404",
"+  c #E00505",
"@  c #E00606",
"#  c #E00707",
"$  c #E00808",
"%  c #E00909",
"&  c #E00A0A",
"*  c #E00B0B",
"=  c #E10C0C",
"-  c #E10D0D",
";  c #E10E0E",
":  c #E10F0F",
">  c #E11010",
",  c #E11111",
"<  c #E11212",
"1  c #E11313",
"2  c #E21414",
"3  c #E21515",
"4  c #E21616",
"5  c #E21717",
"6  c #E21818",
"7  c #E21919",
"8  c #E21A1A",
"9  c #E21B1B",
"0  c #E31D1D",
"q  c #E31E1E",
"w  c #E31F1F",
"e  c #E32020",
"r  c #E32121",
"t  c #E32222",
"y  c #E32323",
"u  c #E42424",
"i  c #E42525",
"p  c #E42626",
"a  c #E42727",
"s  c #E42828",
"d  c #E42929",
"f  c #E42A2A",
"g  c #E42B2B",
"h  c #E52C2C",
"j  c #E52D2D",
"k  c #E52E2E",
"l  c #E52F2F",
"z  c #E53030",
"x  c #E53131",
"c  c #E53232",
"v  c #E53333",
"b  c #E63434",
"n  c #E63535",
"m  c #E63636",
"M  c #E63737",
"N  c #E63838",
"B  c #E63939",
"V  c #E63A3A",
"C  c #E63B3B",
"Z  c #E73C3C",
"A  c #E73D3D",
"S  c #E73E3E",
"D  c #E73F3F",
"F  c #E74040",
"G  c #E74242",
"H  c #E74343",
"J  c #E84444",
"K  c #E84646",
"L  c #E84747",
"P  c #E84848",
"I  c #E84949",
"U  c #E84A4A",
"Y  c #E84B4B",
"T  c #E94C4C",
"R  c #E94D4D",
"E  c #E94F4F",
"W  c #E95050",
"Q  c #E95151",
"!  c #E95252",
"~  c #EA5555",
"^  c #EA5656",
"/  c #EA5757",
"(  c #EA5858",
")  c #EA5959",
"_  c #EA5B5B",
"`  c #EB5C5C",
"'  c #EB5D5D",
"]  c #EB5E5E",
"[  c #EB6060",
"{  c #EB6161",
"}  c #EB6262",
"|  c #EB6363",
" . c #EC6464",
".. c #EC6565",
"X. c #EC6666",
"o. c #EC6767",
"O. c #EC6868",
"+. c #EC6969",
"@. c #EC6A6A",
"#. c #EC6B6B",
"$. c #ED6C6C",
"%. c #ED6D6D",
"&. c #ED6E6E",
"*. c #ED6F6F",
"=. c #ED7070",
"-. c #ED7171",
";. c #ED7272",
":. c #ED7373",
">. c #EE7474",
",. c #EE7575",
"<. c #EE7676",
"1. c #EE7777",
"2. c #EE7878",
"3. c #EE7979",
"4. c #EE7A7A",
"5. c #EF7C7C",
"6. c #EF7D7D",
"7. c #EF7E7E",
"8. c #EF7F7F",
"9. c #EF8080",
"0. c #EF8181",
"q. c #EF8282",
"w. c #EF8383",
"e. c #F08484",
"r. c #F08585",
"t. c #F08686",
"y. c #F08787",
"u. c #F08888",
"i. c #F08989",
"p. c #F08A8A",
"a. c #F08B8B",
"s. c #F18C8C",
"d. c #F18D8D",
"f. c #F19090",
"g. c #F19191",
"h. c #F19292",
"j. c #F19393",
"k. c #F29494",
"l. c #F29595",
"z. c #F29696",
"x. c #F29797",
"c. c #F29898",
"v. c #F29999",
"b. c #F29B9B",
"n. c #F39C9C",
"m. c #F39D9D",
"M. c #F39E9E",
"N. c #F39F9F",
"B. c #F3A0A0",
"V. c #F3A1A1",
"C. c #F3A2A2",
"Z. c #F3A3A3",
"A. c #F4A4A4",
"S. c #F4A5A5",
"D. c #F4A6A6",
"F. c #F4A7A7",
"G. c #F4A8A8",
"H. c #F4A9A9",
"J. c #F4AAAA",
"K. c #F4ABAB",
"L. c #F5ACAC",
"P. c #F5ADAD",
"I. c #F5AEAE",
"U. c #F5AFAF",
"Y. c #F5B0B0",
"T. c #F5B1B1",
"R. c #F5B2B2",
"E. c #F5B3B3",
"W. c #F6B4B4",
"Q. c #F6B5B5",
"!. c #F6B6B6",
"~. c #F6B7B7",
"^. c #F6B8B8",
"/. c #F6B9B9",
"(. c #F6BABA",
"). c #F6BBBB",
"_. c #F7BCBC",
"`. c #F7BDBD",
"'. c #F7BEBE",
"]. c #F7BFBF",
"[. c gray76",
"{. c #C3C3C3",
"}. c gray77",
"|. c #CBCBCB",
" X c gray80",
".X c #F7C0C0",
"XX c #F7C1C1",
"oX c #F7C2C2",
"OX c #F7C3C3",
"+X c #F8C5C5",
"@X c #F8C7C7",
"#X c #F8C8C8",
"$X c #F8C9C9",
"%X c #F8CACA",
"&X c #F8CBCB",
"*X c #F9CCCC",
"=X c #F9CDCD",
"-X c #F9CECE",
";X c #F9CFCF",
":X c #F9D0D0",
">X c #F9D1D1",
",X c #F9D2D2",
"<X c #F9D3D3",
"1X c #FAD4D4",
"2X c #FAD5D5",
"3X c #FAD6D6",
"4X c #FAD7D7",
"5X c #FAD8D8",
"6X c #FAD9D9",
"7X c #FADADA",
"8X c #FADBDB",
"9X c #FBDCDC",
"0X c #FBDDDD",
"qX c #FBDEDE",
"wX c #FBDFDF",
"eX c #FBE0E0",
"rX c #FBE1E1",
"tX c #FBE2E2",
"yX c #FBE3E3",
"uX c #FCE4E4",
"iX c #FCE5E5",
"pX c #FCE6E6",
"aX c #FCE7E7",
"sX c #FCE8E8",
"dX c #FCE9E9",
"fX c #FCEAEA",
"gX c #FCEBEB",
"hX c #FDECEC",
"jX c #FDEDED",
"kX c #FDEEEE",
"lX c #FDEFEF",
"zX c #FDF0F0",
"xX c #FDF1F1",
"cX c #FDF2F2",
"vX c #FDF3F3",
"bX c #FEF4F4",
"nX c #FEF5F5",
"mX c #FEF6F6",
"MX c #FEF7F7",
"NX c gray98",
"BX c #FEF8F8",
"VX c #FEF9F9",
"CX c #FEFAFA",
"ZX c #FEFBFB",
"AX c #FFFCFC",
"SX c #FFFDFD",
"DX c #FEFEFE",
"FX c #FFFEFE",
"GX c white",
/* pixels */
"NX[.|. X X X X X X X X X X X X X X X X X X X X X X X X X X X X X X X X X X X X X X X X X X X X X X X X X X X X X X X X X X X X X X X|.[.NX",
"{.DXGXGXGXGXGXGXGXGXGXGXGXGXGXGXGXGXGXGXGXGXGXGXGXGXGXGXGXGXGXGXGXGXGXGXGXGXGXGXGXGXGXGXGXGXGXGXGXGXGXGXGXGXGXGXGXGXGXGXGXGXGXGXGXGXGXDX}.",
"|.GXGXGX.Xm y i u.GXGXGXGXGXGXGXGXGXGXGXGXGXGXGXGXGXGXGXGXGXGXGXGXGXGXGXGXGXGXGXGXGXGXGXGXGXGXGXGXGXGXGXGXGXGXGXGXGXGXGXGXGXGXGXGXGXGXGX|.",
"|.GXGXcX; Q.GXdX7 Y.GXGXGXGXGXGXGXGXGXGXGXGXGXGXGXGXGXGXGXGXGXGXGXGXGXGXGXGXGXGXGXGXGXGXGXGXGXGXGXGXGXGXGXGXGXGXGXGXGXGXGXGXGXGXGXGXGXGX|.",
"|.GXGX,X. AXGXGXI w.GXGXGXGXGXGXGXGXGXGXGXGXGXGXGXGXGXGXGXGXGXGXGXGXGXGXGXGXGXGXGXGXGXGXGXGXGXGXGXGXGXGXGXGXGXGXGXGXGXGXGXGXGXGXGXGXGXGX|.",
"|.GXGXVXe N.GXqX5 #XGXGXGXGXGXGXGXGXGXGXGXGXGXGXGXGXGXGXGXGXGXGXGXGXGXGXGXGXGXGXGXGXGXGXGXGXGXGXGXGXGXGXGXGXGXGXGXGXGXGXGXGXGXGXGXGXGXGX|.",
"|.GXGXGX'.; 2 X 2.GXGXGXGXGXGXGXGXGXGXGXGXGXGXGXGXGXGXGXGXGXGXGXGXGXGXGXGXGXGXGXGXGXGXGXGXGXGXGXGXGXGXGXGXGXGXGXGXGXGXGXGXGXGXGXGXGXGXGX|.",
"|.GXGXwX1 .XGXdXm d.GXGXGXGXGXGXGXGXGXGXGXGXGXGXGXGXGXGXGXGXGXGXGXGXGXGXGXGXGXGXGXGXGXGXGXGXGXGXGXGXGXGXGXGXGXGXGXGXGXGXGXGXGXGXGXGXGXGX|.",
"|.GXGXN.x GXGXGXe.L GXGXGXGXGXGXGXGXGXGXGXGXGXGXGXGXGXGXGXGXGXGXGXGXGXGXGXGXGXGXGXGXGXGXGXGXGXGXGXGXGXGXGXGXGXGXGXGXGXGXGXGXGXGXGXGXGXGX|.",
"|.GXGX*X& :XGXbXA 2.GXGXGXGXGXGXGXGXGXGXGXGXF.GXGXGXGXGXGXGXGXGXGXGXGXGXGXGXGXGXGXGXGXGXGXiX!.GXGXGXGXGXGXGXGXGXGXGXGXGXGXGXGXGXGXGXGXGX|.",
"|.GXGXGXB.h y y O.mXGXGXGXGXGXGXGXGXGXGXGX6X+ 9XGXGXGXGXGXGXGXGXGXGXGXGXGXGXGXGXGXGXGXGXGX<.C GXGXGXGXGXGXGXGXGXGXGXGXGXGXGXGXGXGXGXGXGX|.",
"|.GXGXGXGXGXGXAXGXGXGXGXGXGXGXGXGXGXGXGXGX'   } GXGXGXGXGXGXGXGXGXGXGXGXGXGXGXGXGXGXGXGXdX;   (.GXGXGXGXGXGXGXGXGXGXGXGXGXGXGXGXGXGXGXGX|.",
"|.GXGXGXGXGX.XA.GXGXGXGXGXGXGXGXGXGXGXGX:XX   X ;XGXGXGXGXGXGXGXGXGXGXGXGXGXGXGXGXGXGXGXO.    l SXGXGXGXGXGXGXGXGXGXGXGXGXGXGXGXGXGXGXGX|.",
"|.GXGXGXGXSXB w nXGXGXGXGXGXGXGXGXGXGXAXB       S SXGXGXGXGXGXGXGXGXGXGXGXGXGXGXGXGXGX-XO       j.GXGXGXGXGXGXGXGXGXGXGXGXGXGXGXGXGXGXGX|.",
"|.GXGXGXGXc.    6.GXGXGXGXGXGXGXGXGXGXs.          h.GXGXGXGXGXGXGXGXGXGXGXGXGXGXGXGXVXh         & 8XGXGXGXGXGXGXGXGXGXGXGXGXGXGXGXGXGXGX|.",
"|.GXGXGXqX<     # =XGXGXGXGXGXGXGXGX;X&           * ,XGXGXGXGXGXGXGXGXGXGXGXGXGXGXGX&.            V BXGXGXGXGXGXGXGXGXGXGXGXGXGXGXGXGXGX|.",
"|.GXGXhXg         9 eXGXGXGXGXGXGXpX0               w sXGXGXGXGXGXGXGXGXGXGXGXGXGXn.                / FXGXGXGXGXGXGXGXGXGXGXGXGXGXGXGXGX|.",
"|.GXrXh             q 1XGXGXGXGXkXc                   m zXGXGXGXGXGXGXGXGXGXGXGXU.O                   4.GXGXGXGXGXGXGXGXGXGXGXGXGXGXGXGX|.",
"|.GXh.X               2.GXGXGXgXz                       b jXGXGXGXGXGXGXGXGXGXJ.+                       ,.FXGXGXGXGXGXGXGXGXGXGXGXGXGXGX|.",
"|.GXGXZ.o           p.GXGXGX6Xs                           u 2XGXGXGXGXGXGXGXf.o                           ^ nXGXGXGXGXGXGXGXGXGXGXGXGXGX|.",
"|.GXGXGXg.        1.GXGXGXGXT                               Q GXGXGXGXGXGX8X4                             + Y.GXGXGXGXGXGXGXGXGXGXGXGXGX|.",
"|.GXGXGXGX!     M SXGXGXGXGXCXo.                          $.ZXGXGXGXGXGXGXGXrXl                         1 oXGXGXGXGXGXGXGXGXGXGXGXGXGXGX|.",
"|.GXGXGXGXtX= o -XGXGXGXGXGXGXGX7.                      1.GXGXGXGXGXGXGXGXGXGXlXN                     4 >XGXGXGXGXGXGXGXGXGXGXGXGXGXGXGX|.",
"|.GXGXGXGXGXt.@.GXGXGXGXGXGXGXGXGX:.                  3.GXGXGXGXGXGXGXGXGXGXGXGXzXj                 : 1XGXGXGXGXGXGXGXGXGXGXGXGXGXGXGXGX|.",
"|.GXGXGXGXGXzXrXGXGXGXGXGXGXGXGXGXSXE               ! SXGXGXGXGXGXFXx.GXGXGXGXGXGXeX5             o E.GXGXGXGXGXGXGXGXGXGXGXGXGXGXGXGXGX|.",
"|.GXGXGXGXGXGXGXGXGXGXGXGXGXGXGXGXGXvXa           d bXGXGXGXGXGXGXT.& hXGXGXGXGXGXGXXXX           y.GXGXGXGXGXGXGXGXGXGXGXGXGXGXGXGXGXGX|.",
"|.GXGXGXGXGXGXGXGXGXGXGXGXGXGXGXGXGXGX@Xo       o $XGXGXGXGXGXGXSXv   2.GXGXGXGXGXGXGX*.        M AXGXGXGXGXGXGXGXGXGXGXGXGXGXGXGXGXGXGX|.",
"|.GXGXGXGXGXGXGXGXGXGXGXGXGXGXGXGXGXGXGX*.      >.GXGXGXGXGXGXGXZ.    % tXGXGXGXGXGXGXnXr     @ 3XGXGXGXGXGXGXGXGXGXGXGXGXGXGXGXGXGXGXGX|.",
"|.GXGXGXGXGXGXGXGXGXGXGXGXGXGXGXGXGXGXGXlX1   3 xXGXGXGXGXGXGXlX9       T GXGXGXGXGXGXGXF.    &.GXGXGXGXGXGXGXGXGXGXGXGXGXGXGXGXGXGXGXGX|.",
"|.GXGXGXGXGXGXGXGXGXGXGXGXGXGXGXGXGXGXGXGXa.  f.GXGXGXGXGXGXGX]           S.GXGXGXGXGXGXFXv = fXGXGXGXGXGXGXGXGXGXGXGXGXGXGXGXGXGXGXGXGX|.",
"|.GXGXGXGXGXGXGXGXGXGXGXGXGXGXGXGXGXGXGXGXbXi bXGXGXGXGXGXGXD.            < 8XGXGXGXGXGXGXJ.=.GXGXGXGXGXGXGXGXGXGXGXGXGXGXGXGXGXGXGXGXGX|.",
"|.GXGXGXGXGXGXGXGXGXGXGXGXGXGXGXGXGXGXGXGXGXqXGXGXGXGXGXGX&X&               a kXGXGXGXGXGXAXaXGXGXGXGXGXGXGXGXGXGXGXGXGXGXGXGXGXGXGXGXGX|.",
"|.GXGXGXGXGXGXGXGXGXGXGXGXGXGXGXGXGXGXGXGXGXGXGXGXGXGXGX1X4                   D vXGXGXGXGXGXGXGXGXGXGXGXGXGXGXGXGXGXGXGXGXGXGXGXGXGXGXGX|.",
"|.GXGXGXGXGXGXGXGXGXGXGXGXGXGXGXGXGXGXGXGXGXGXGXGXGXGX;X3                       C zXGXGXGXGXGXGXGXGXGXGXGXGXGXGXGXGXGXGXGXGXGXGXGXGXGXGX|.",
"|.GXGXGXGXGXGXGXGXGXGXGXGXGXGXGXGXGXGXGXGXGXGXGXGXGXQ.:                           p 4XGXGXGXGXGXGXGXGXGXGXGXGXGXGXGXGXGXGXGXGXGXGXGXGXGX|.",
"|.GXGXGXGXGXGXGXGXGXGXGXGXGXGXGXGXGXGXGXGXGXGXGXGXVXZ                               5.GXGXGXGXGXGXGXGXGXGXGXGXGXGXGXGXGXGXGXGXGXGXGXGXGX|.",
"|.GXGXGXGXGXGXGXGXGXGXGXGXGXGXGXGXGXGXGXGXGXGXGXGXGXVX[                         O n.GXGXGXGXGXGXGXGXGXGXGXGXGXGXGXGXGXGXGXGXGXGXGXGXGXGX|.",
"|.GXGXGXGXGXGXGXGXGXGXGXGXGXGXGXGXGXGXGXGXGXGXGXGXGXGXFX=.                    @ L.GXGXGXGXGXGXGXGXGXGXGXGXGXGXGXGXGXGXGXGXGXGXGXGXGXGXGX|.",
"|.GXGXGXGXGXGXGXGXGXGXGXGXGXGXGXGXGXGXGXGXGXuXGXGXGXGXGXGX..                . K.GXGXGXGXGXCXtXGXGXGXGXGXGXGXGXGXGXGXGXGXGXGXGXGXGXGXGXGX|.",
"|.GXGXGXGXGXGXGXGXGXGXGXGXGXGXGXGXGXGXGXGXnXf mXGXGXGXGXGXCXH               e.GXGXGXGXGXGXC.O.GXGXGXGXGXGXGXGXGXGXGXGXGXGXGXGXGXGXGXGXGX|.",
"|.GXGXGXGXGXGXGXGXGXGXGXGXGXGXGXGXGXGXGXGXf.  l.GXGXGXGXGXGXjX9           W FXGXGXGXGXGXSXj % iXGXGXGXGXGXGXGXGXGXGXGXGXGXGXGXGXGXGXGXGX|.",
"|.GXGXGXGXGXGXGXGXGXGXGXGXGXGXGXGXGXGXGXcX5   4 cXGXGXGXGXGXGXQ.        1 aXGXGXGXGXGXGXM.    ..GXGXGXGXGXGXGXGXGXGXGXGXGXGXGXGXGXGXGXGX|.",
"|.GXGXGXGXGXGXGXGXGXGXGXGXGXGXGXGXGXGXGX>.      4.GXGXGXGXGXGXGX_       C.GXGXGXGXGXGXxX9     o -XGXGXGXGXGXGXGXGXGXGXGXGXGXGXGXGXGXGXGX|.",
"|.GXGXGXGXGXGXGXGXGXGXGXGXGXGXGXGXGXGX-X+       O &XGXGXGXGXGXGXuX&   n FXGXGXGXGXGXGX .        l VXGXGXGXGXGXGXGXGXGXGXGXGXGXGXGXGXGXGX|.",
"|.GXGXGXGXGXGXGXGXGXGXGXGXGXGXGXGXGXmXg           l MXGXGXGXGXGXGX,.  _.GXGXGXGXGXGX^..           6.GXGXGXGXGXGXGXGXGXGXGXGXGXGXGXGXGXGX|.",
"|.GXGXGXGXGXGXGXGXGXGXGXGXGXGXGXGXFX)               ~ FXGXGXGXGXGXsXZ GXGXGXGXGXGX9X2             . G.GXGXGXGXGXGXGXGXGXGXGXGXGXGXGXGXGX|.",
"|.GXGXGXGXGXGXGXGXGXGXGXGXGXGXGXGX4.                  9.GXGXGXGXGXGXaXGXGXGXGXGXfXi                 * %XGXGXGXGXGXGXGXGXGXGXGXGXGXGXGXGX|.",
"|.GXGXGXGXGXGXGXGXGXGXGXGXGXGXGXu.                      0.GXGXGXGXGXGXGXGXGXGXdXj                     > @XGXGXGXGXGXGXGXGXGXGXGXGXGXGXGX|.",
"|.GXGXGXGXGXGXGXGXGXGXGXGXGXAX-.                          <.SXGXGXGXGXGXGXGX6Xp                         ; !.GXGXGXGXGXGXGXGXGXGXGXGXGXGX|.",
"|.GXGXGXGXGXGXGXGXGXGXGXGXGX!                               ^ GXGXGXGXGXGX8X>                             o L.GXGXGXGXGXGXGXGXGXGXGXGXGX|.",
"|.GXGXGXGXGXGXGXGXGXGXGXGXGX:Xe                           0 *XGXGXGXGXGXGXGXv.@                           X.VXGXGXGXGXGXGXGXGXGXGXGXGXGX|.",
"|.GXGXGXGXGXGXGXGXGXGXGXGXGXGXaXg                       k dXGXGXGXGXGXGXGXGXGX!.$                       e.GXGXGXGXGXGXGXGXGXGXGXGXGXGXGX|.",
"|.GXGXGXGXGXGXGXGXGXGXGXGXGXGXGXfXj                   z hXGXGXGXGXGXGXGXGXGXGXGX).#                   i.GXGXGXGXGXGXGXGXGXGXGXGXGXGXGXGX|.",
"|.GXGXGXGXGXGXGXGXGXGXGXGXGXGXGXGXiX9               7 yXGXGXGXGXGXGXqXGXGXGXGXGXGXH..               | GXGXGXGXGXGXGXGXGXGXGXGXGXGXGXGXGX|.",
"|.GXGXGXGXGXGXGXGXGXGXGXGXGXGXGXGXGX#X#           $ &XGXGXGXGXGXGXwXh SXGXGXGXGXGXGX3.            G ZXGXGXGXGXGXGXGXGXGXGXGXGXGXGXGXGXGX|.",
"|.GXGXGXGXGXGXGXGXGXGXGXGXGXGXGXGXGXGXt.          a.GXGXGXGXGXGXGX+.  Y.GXGXGXGXGXGXZXb         : tXGXGXGXGXGXGXGXGXGXGXGXGXGXGXGXGXGXGX|.",
"|.GXGXGXGXGXGXGXGXGXGXGXGXGXGXGXGXGXGXZXn       N AXGXGXGXGXGXGX6X+   s ZXGXGXGXGXGXGX>X@       m.GXGXGXGXGXGXGXGXGXGXGXGXGXGXGXGXGXGXGX|.",
"|.GXGXGXGXGXGXGXGXGXGXGXGXGXGXGXGXGXGXGX%X.   X =XGXGXGXGXGXGXGXT       j.GXGXGXGXGXGXGX;.    M FXGXGXGXGXGXGXGXGXGXGXGXGXGXGXGXGXGXGXGX|.",
"|.GXGXGXGXGXGXGXGXGXGXGXGXGXGXGXGXGXGXGXGX(   ] GXGXGXGXGXGXGXA.        * 9XGXGXGXGXGXGXjX,   OXGXGXGXGXGXGXGXGXGXGXGXGXGXGXGXGXGXGXGXGX|.",
"|.GXGXGXGXGXGXGXGXGXGXGXGXGXGXGXGXGXGXGXGX5XO 7XGXGXGXGXGXGXiX1           G AXGXGXGXGXGXGX7.J GXGXGXGXGXGXGXGXGXGXGXGXGXGXGXGXGXGXGXGXGX|.",
"|.GXGXGXGXGXGXGXGXGXGXGXGXGXGXGXGXGXGXGXGXGXM.GXGXGXGXGXGXmXm               -.GXGXGXGXGXGXdX'.GXGXGXGXGXGXGXGXGXGXGXGXGXGXGXGXGXGXGXGXGX|.",
"|.GXGXGXGXGXGXGXGXGXGXGXGXGXGXGXGXGXGXGXGXGXGXGXGXGXGXGXAX!                   z.GXGXGXGXGXGXGXGXGXGXGXGXGXGXGXGXGXGXGXGXGXGXGXGXGXGXGXGX|.",
"|.GXGXGXGXGXGXGXGXGXGXGXGXGXGXGXGXGXGXGXGXGXGXGXGXGXGXAX`                     . j.GXGXGXGXGXGXGXGXGXGXGXGXGXGXGXGXGXGXGXGXGXGXGXGXGXGXGX|.",
"|.GXGXGXGXGXGXGXGXGXGXGXGXGXGXGXGXGXGXGXGXGXGXGXGXGXcXR                         . t.FXGXGXGXGXGXGXGXGXGXGXGXGXGXGXGXGXGXGXGXGXGXGXGXGXGX|.",
"|.GXGXGXGXGXGXGXGXGXGXGXGXGXGXGXGXGXGXGXGXGXGXGXGXVXx                               -.GXGXGXGXGXGXGXGXGXGXGXGXGXGXGXGXGXGXGXGXGXGXGXGXGX|.",
"|.GXGXGXGXGXGXGXGXGXGXGXGXGXGXGXGXGXGXGXGXGXGXGXGXGX+X6                           B pXGXGXGXGXGXGXGXGXGXGXGXGXGXGXGXGXGXGXGXGXGXGXGXGXGX|.",
"|.GXGXGXGXGXGXGXGXGXGXGXGXGXGXGXGXGXGXGXGXGXGXGXGXGXGX0Xe                       T MXGXGXGXGXGXGXGXGXGXGXGXGXGXGXGXGXGXGXGXGXGXGXGXGXGXGX|.",
"|.GXGXGXGXGXGXGXGXGXGXGXGXGXGXGXGXGXGXGXGXGXGXGXGXGXGXGXrXr                   W VXGXGXGXGXGXGXGXGXGXGXGXGXGXGXGXGXGXGXGXGXGXGXGXGXGXGXGX|.",
"|.GXGXGXGXGXGXGXGXGXGXGXGXGXGXGXGXGXGXGXGXGXzXGXGXGXGXGXGX3X>               c bXGXGXGXGXGXFXjXGXGXGXGXGXGXGXGXGXGXGXGXGXGXGXGXGXGXGXGXGX|.",
"|.GXGXGXGXGXGXGXGXGXGXGXGXGXGXGXGXGXGXGXGXCXS ZXGXGXGXGXGXGX!.X           7 iXGXGXGXGXGXGXT.1.GXGXGXGXGXGXGXGXGXGXGXGXGXGXGXGXGXGXGXGXGX|.",
"|.GXGXGXGXGXGXGXGXGXGXGXGXGXGXGXGXGXGXGXGXB.  S.GXGXGXGXGXGXGX%.          U.GXGXGXGXGXGXGXC > lXGXGXGXGXGXGXGXGXGXGXGXGXGXGXGXGXGXGXGXGX|.",
"|.GXGXGXGXGXGXGXGXGXGXGXGXGXGXGXGXGXGXGXMXw   r BXGXGXGXGXGXGXbXt       ] GXGXGXGXGXGXGXU.    <.GXGXGXGXGXGXGXGXGXGXGXGXGXGXGXGXGXGXGXGX|.",
"|.GXGXGXGXGXGXGXGXGXGXGXGXGXGXGXGXGXGXGXy.      d.GXGXGXGXGXGXGXY.    - sXGXGXGXGXGXGXBXa     $ 0XGXGXGXGXGXGXGXGXGXGXGXGXGXGXGXGXGXGXGX|.",
"|.GXGXGXGXGXGXGXGXGXGXGXGXGXGXGXGXGXGX6X%       & 8XGXGXGXGXGXGXGXA   e.GXGXGXGXGXGXGX4.        F FXGXGXGXGXGXGXGXGXGXGXGXGXGXGXGXGXGXGX|.",
"|.GXGXGXGXGXGXGXGXGXGXGXGXGXGXGXGXGXAXZ           D SXGXGXGXGXGXGX_., cXGXGXGXGXGXGX*XO           k.GXGXGXGXGXGXGXGXGXGXGXGXGXGXGXGXGXGX|.",
"|.GXGXGXGXGXGXGXGXGXGXGXGXGXGXGXGXGX*.              ,.GXGXGXGXGXGXGXG.GXGXGXGXGXGXaXq             + ].GXGXGXGXGXGXGXGXGXGXZX7XGXGXGXGXGX|.",
"|.GXGXGXGXGXGXGXGXGXGXGXGXGXGXGXGXz.                  n.GXGXGXGXGXGXGXGXGXGXGXGXnXm                 3 0XGXGXGXGXGXGXGXGXGXV.~ GXGXGXGXGX|.",
"|.GXGXGXGXGXGXGXGXGXGXGXGXGXGXGXS.O                   o B.GXGXGXGXGXGXGXGXGXGXnXH                     q 8XGXGXGXGXGXGXGXcX8   `.GXGXGXGX|.",
"|.GXGXGXGXGXGXGXGXGXGXGXGXGXGXg.X                       X z.GXGXGXGXGXGXGXGXfXV                         9 ;XGXGXGXGXGXGX*.    s VXGXGXGX|.",
"|.GXGXGXGXGXGXGXGXGXGXGXGXFXo.                              #.GXGXGXGXGXGX0Xw                             & !.GXGXGXGXW.o       { GXGXGX|.",
"|.GXGXGXGXGXGXGXGXGXGXGXGXGX~.>                           ; R.GXGXGXGXGXGXFX8..                           P kXGXGXGX).&           4.GXGX|.",
"|.GXGXGXGXGXGXGXGXGXGXGXGXGXGX2X8                       0 6XGXGXGXGXGXGXGXGXGXb.X                       ..AXGXGXGXK.#               ..GX|.",
"|.GXGXGXGXGXGXGXGXGXGXGXGXGXGXGX8X0                   w qXGXGXGXGXGXGXGXGXGXGXGXC.X                   #.FXGXGXGXGXsXM             , XXGX|.",
"|.GXGXGXGXGXGXGXGXGXGXGXGXGXGXGXGX2X:               - <XGXGXGXGXGXGXGXGXGXGXGXGXGXu.                W SXGXGXGXGXGXGXcXM         : ;XGXGX|.",
"|.GXGXGXGXGXGXGXGXGXGXGXGXGXGXGXGXGXE.X           o ~.GXGXGXGXGXGXGXGXGXGXGXGXGXGXGX[             z bXGXGXGXGXGXGXGXGXsX9     . !.GXGXGX|.",
"|.GXGXGXGXGXGXGXGXGXGXGXGXGXGXGXGXGXGX-.          1.GXGXGXGXGXGXGXGXGXGXGXGXGXGXGXGXnXi         # 1XGXGXGXGXGXGXGXGXGXGXL.    { GXGXGXGX|.",
"|.GXGXGXGXGXGXGXGXGXGXGXGXGXGXGXGXGXGXnXi       s mXGXGXGXGXGXGXGXGXGXGXGXGXGXGXGXGXGX+XX       i.GXGXGXGXGXGXGXGXGXGXGXGXY < fXGXGXGXGX|.",
"|.GXGXGXGXGXGXGXGXGXGXGXGXGXGXGXGXGXGXGX/.      ].GXGXGXGXGXGXGXGXGXGXGXGXGXGXGXGXGXGXGX[     f ZXGXGXGXGXGXGXGXGXGXGXGXGX1Xp.GXGXGXGXGX|.",
"|.GXGXGXGXGXGXGXGXGXGXGXGXGXGXGXGXGXGXGXGXK   R GXGXGXGXGXGXGXGXGXGXGXGXGXGXGXGXGXGXGXGXuX&   E.GXGXGXGXGXGXGXGXGXGXGXGXGXGXZXGXGXGXGXGX|.",
"|.GXGXGXGXGXGXGXGXGXGXGXGXGXGXGXGXGXGXGXGX$X  =XGXGXGXGXGXGXGXGXGXGXGXGXGXGXGXGXGXGXGXGXGX*.b GXGXGXGXGXGXGXGXGXGXGXGXmX#.u y k S.GXGXGX|.",
"|.GXGXGXGXGXGXGXGXGXGXGXGXGXGXGXGXGXGXGXGXGXq.GXGXGXGXGXGXGXGXGXGXGXGXGXGXGXGXGXGXGXGXGXGXeXP.GXGXGXGXGXGXGXGXGXGXGXGX2.A bXGX:X& -XGXGX|.",
"|.GXGXGXGXGXGXGXGXGXGXGXGXGXGXGXGXGXGXGXGXGXGXGXGXGXGXGXGXGXGXGXGXGXGXGXGXGXGXGXGXGXGXGXGXGXGXGXGXGXGXGXGXGXGXGXGXGXGXK r.GXGXGXz B.GXGX|.",
"|.GXGXGXGXGXGXGXGXGXGXGXGXGXGXGXGXGXGXGXGXGXGXGXGXGXGXGXGXGXGXGXGXGXGXGXGXGXGXGXGXGXGXGXGXGXGXGXGXGXGXGXGXGXGXGXGXGXGXs.B gXGXoX3 eXGXGX|.",
"|.GXGXGXGXGXGXGXGXGXGXGXGXGXGXGXGXGXGXGXGXGXGXGXGXGXGXGXGXGXGXGXGXGXGXGXGXGXGXGXGXGXGXGXGXGXGXGXGXGXGXGXGXGXGXGXGXGXGXGX1.o 3 ; ].GXGXGX|.",
"|.GXGXGXGXGXGXGXGXGXGXGXGXGXGXGXGXGXGXGXGXGXGXGXGXGXGXGXGXGXGXGXGXGXGXGXGXGXGXGXGXGXGXGXGXGXGXGXGXGXGXGXGXGXGXGXGXGXGX@X6 wXGXm.t VXGXGX|.",
"|.GXGXGXGXGXGXGXGXGXGXGXGXGXGXGXGXGXGXGXGXGXGXGXGXGXGXGXGXGXGXGXGXGXGXGXGXGXGXGXGXGXGXGXGXGXGXGXGXGXGXGXGXGXGXGXGXGXGXq.U GXGXZX. <XGXGX|.",
"|.GXGXGXGXGXGXGXGXGXGXGXGXGXGXGXGXGXGXGXGXGXGXGXGXGXGXGXGXGXGXGXGXGXGXGXGXGXGXGXGXGXGXGXGXGXGXGXGXGXGXGXGXGXGXGXGXGXGXI.7 dXGXW.; vXGXGX|.",
"|.GXGXGXGXGXGXGXGXGXGXGXGXGXGXGXGXGXGXGXGXGXGXGXGXGXGXGXGXGXGXGXGXGXGXGXGXGXGXGXGXGXGXGXGXGXGXGXGXGXGXGXGXGXGXGXGXGXGXGXr.i u n .XGXGXGX|.",
"{.DXGXGXGXGXGXGXGXGXGXGXGXGXGXGXGXGXGXGXGXGXGXGXGXGXGXGXGXGXGXGXGXGXGXGXGXGXGXGXGXGXGXGXGXGXGXGXGXGXGXGXGXGXGXGXGXGXGXGXGXGXGXGXGXGXGXDX}.",
"NX[.|. X X X X X X X X X X X X X X X X X X X X X X X X X X X X X X X X X X X X X X X X X X X X X X X X X X X X X X X X X X X X X X X|.[.NX"
};
