/* XPM */
static const char *eight_spades[] = {
/* columns rows colors chars-per-pixel */
"69 100 244 2 ",
"   c black",
".  c #010101",
"X  c #020202",
"o  c gray1",
"O  c #040404",
"+  c gray2",
"@  c #060606",
"#  c #070707",
"$  c gray3",
"%  c #090909",
"&  c gray4",
"*  c #0B0B0B",
"=  c #0C0C0C",
"-  c gray5",
";  c #0E0E0E",
":  c gray6",
">  c #101010",
",  c #111111",
"<  c gray7",
"1  c #131313",
"2  c gray8",
"3  c #151515",
"4  c #161616",
"5  c gray9",
"6  c #181818",
"7  c #191919",
"8  c gray10",
"9  c #1B1B1B",
"0  c gray11",
"q  c #1D1D1D",
"w  c #1E1E1E",
"e  c gray12",
"r  c #202020",
"t  c gray13",
"y  c #222222",
"u  c #232323",
"i  c gray14",
"p  c #252525",
"a  c gray15",
"s  c #272727",
"d  c #282828",
"f  c gray16",
"g  c #2A2A2A",
"h  c gray17",
"j  c #2C2C2C",
"k  c #2D2D2D",
"l  c gray18",
"z  c #2F2F2F",
"x  c gray19",
"c  c #313131",
"v  c #323232",
"b  c gray20",
"n  c #353535",
"m  c gray21",
"M  c #393939",
"N  c #3A3A3A",
"B  c gray23",
"V  c #3C3C3C",
"C  c gray24",
"Z  c #3E3E3E",
"A  c #3F3F3F",
"S  c gray25",
"D  c #414141",
"F  c gray26",
"G  c #434343",
"H  c #444444",
"J  c gray27",
"K  c #464646",
"L  c gray28",
"P  c #484848",
"I  c #494949",
"U  c gray29",
"Y  c #4C4C4C",
"T  c gray30",
"R  c #4E4E4E",
"E  c gray31",
"W  c #505050",
"Q  c gray32",
"!  c #535353",
"~  c gray33",
"^  c #555555",
"/  c #565656",
"(  c gray34",
")  c #585858",
"_  c gray35",
"`  c #5A5A5A",
"'  c #5B5B5B",
"]  c gray36",
"[  c #5D5D5D",
"{  c gray37",
"}  c #5F5F5F",
"|  c #606060",
" . c gray38",
".. c #626262",
"X. c gray39",
"o. c #646464",
"O. c #656565",
"+. c gray40",
"@. c #676767",
"#. c #686868",
"$. c #6A6A6A",
"%. c gray42",
"&. c #6C6C6C",
"*. c #6D6D6D",
"=. c gray43",
"-. c #6F6F6F",
";. c gray44",
":. c #717171",
">. c #727272",
",. c gray45",
"<. c #747474",
"1. c gray46",
"2. c #777777",
"3. c gray47",
"4. c #797979",
"5. c #7B7B7B",
"6. c #7C7C7C",
"7. c gray49",
"8. c #7E7E7E",
"9. c gray50",
"0. c #808080",
"q. c #818181",
"w. c gray51",
"e. c #838383",
"r. c #848484",
"t. c gray52",
"y. c #868686",
"u. c gray53",
"i. c #888888",
"p. c #898989",
"a. c #8B8B8B",
"s. c gray55",
"d. c #8D8D8D",
"f. c #8E8E8E",
"g. c gray56",
"h. c #909090",
"j. c gray57",
"k. c #929292",
"l. c #939393",
"z. c gray58",
"x. c #959595",
"c. c #979797",
"v. c #989898",
"b. c gray60",
"n. c #9A9A9A",
"m. c #9B9B9B",
"M. c #9D9D9D",
"N. c gray62",
"B. c #9F9F9F",
"V. c #A0A0A0",
"C. c gray63",
"Z. c #A2A2A2",
"A. c gray64",
"S. c #A4A4A4",
"D. c #A5A5A5",
"F. c gray65",
"G. c #A7A7A7",
"H. c gray66",
"J. c #A9A9A9",
"K. c #AAAAAA",
"L. c gray67",
"P. c #ACACAC",
"I. c gray68",
"U. c #AEAEAE",
"Y. c #AFAFAF",
"T. c gray69",
"R. c #B1B1B1",
"E. c gray70",
"W. c #B4B4B4",
"Q. c gray71",
"!. c #B6B6B6",
"~. c #B7B7B7",
"^. c gray72",
"/. c #B9B9B9",
"(. c gray73",
"). c #BBBBBB",
"_. c #BCBCBC",
"`. c gray74",
"'. c gray",
"]. c gray75",
"[. c #C0C0C0",
"{. c #C1C1C1",
"}. c gray76",
"|. c #C3C3C3",
" X c gray77",
".X c #C5C5C5",
"XX c #C6C6C6",
"oX c gray78",
"OX c #C8C8C8",
"+X c gray79",
"@X c #CACACA",
"#X c #CBCBCB",
"$X c gray80",
"%X c #CDCDCD",
"&X c #CECECE",
"*X c gray81",
"=X c #D0D0D0",
"-X c gray82",
";X c #D2D2D2",
":X c LightGray",
">X c gray83",
",X c #D5D5D5",
"<X c gray84",
"1X c #D7D7D7",
"2X c #D8D8D8",
"3X c gray85",
"4X c #DADADA",
"5X c gray86",
"6X c gainsboro",
"7X c #DDDDDD",
"8X c gray87",
"9X c #DFDFDF",
"0X c gray88",
"qX c #E1E1E1",
"wX c #E2E2E2",
"eX c gray89",
"rX c #E4E4E4",
"tX c gray90",
"yX c #E6E6E6",
"uX c #E7E7E7",
"iX c gray91",
"pX c #E9E9E9",
"aX c #EAEAEA",
"sX c gray92",
"dX c #ECECEC",
"fX c gray93",
"gX c #EEEEEE",
"hX c #EFEFEF",
"jX c gray94",
"kX c #F1F1F1",
"lX c gray95",
"zX c #F3F3F3",
"xX c #F4F4F4",
"cX c gray96",
"vX c #F6F6F6",
"bX c gray97",
"nX c #F8F8F8",
"mX c #F9F9F9",
"MX c gray98",
"NX c #FBFBFB",
"BX c gray99",
"VX c #FDFDFD",
"CX c #FEFEFE",
"ZX c white",
/* pixels */
"MX}.#X$X$X$X$X$X$X$X$X$X$X$X$X$X$X$X$X$X$X$X$X$X$X$X$X$X$X$X$X$X$X$X$X$X$X$X$X$X$X$X$X$X$X$X$X$X$X$X$X$X$X$X$X$X$X$X$X$X$X$X$X$X$X$X#X}.MX",
"|.CXZXZXZXZXZXZXZXZXZXZXZXZXZXZXZXZXZXZXZXZXZXZXZXZXZXZXZXZXZXZXZXZXZXZXZXZXZXZXZXZXZXZXZXZXZXZXZXZXZXZXZXZXZXZXZXZXZXZXZXZXZXZXZXZXZXCX X",
"#XZXZXZXZXZXZXZXZXZXZXZXZXZXZXZXZXZXZXZXZXZXZXZXZXZXZXZXZXZXZXZXZXZXZXZXZXZXZXZXZXZXZXZXZXZXZXZXZXZXZXZXZXZXZXZXZXZXZXZXZXZXZXZXZXZXZXZX#X",
"#XZXZXZXZX[.m u p i.ZXZXZXZXZXZXZXZXZXZXZXZXZXZXZXZXZXZXZXZXZXZXZXZXZXZXZXZXZXZXZXZXZXZXZXZXZXZXZXZXZXZXZXZXZXZXZXZXZXZXZXZXZXZXZXZXZXZX#X",
"#XZXZXZXlX; Q.ZXpX7 T.ZXZXZXZXZXZXZXZXZXZXZXZXZXZXZXZXZXZXZXZXZXZXZXZXZXZXZXZXZXZXZXZXZXZXZXZXZXZXZXZXZXZXZXZXZXZXZXZXZXZXZXZXZXZXZXZXZX#X",
"#XZXZXZX;X. BXZXZXI e.ZXZXZXZXZXZXZXZXZXZXZXZXZXZXZXZXZXZXZXZXZXZXZXZXZXZXZXZXZXZXZXZXZXZXZXZXZXZXZXZXZXZXZXZXZXZXZXZXZXZXZXZXZXZXZXZXZX#X",
"#XZXZXZXmXr B.ZX8X5 OXZXZXZXZXZXZXZXZXZXZXZXZXZXZXZXZXZXZXZXZXZXZXZXZXZXZXZXZXZXZXZXZXZXZXZXZXZXZXZXZXZXZXZXZXZXZXZXZXZXZXZXZXZXZXZXZXZX#X",
"#XZXZXZXZX'.; 2 X 3.ZXZXZXZXZXZXZXZXZXZXZXZXCXZXZXZXZXZXZXZXZXZXZXZXZXZXZXZXZXZXZXZXZXZXZXZXNXZXZXZXZXZXZXZXZXZXZXZXZXZXZXZXZXZXZXZXZXZX#X",
"#XZXZXZX9X1 [.ZXpXm d.ZXZXZXZXZXZXZXZXZXZXZX>.VXZXZXZXZXZXZXZXZXZXZXZXZXZXZXZXZXZXZXZXZXZXMX| ZXZXZXZXZXZXZXZXZXZXZXZXZXZXZXZXZXZXZXZXZX#X",
"#XZXZXZXB.c ZXZXZXr.L ZXZXZXZXZXZXZXZXZXZXP.  y.ZXZXZXZXZXZXZXZXZXZXZXZXZXZXZXZXZXZXZXZXZX2.  n.ZXZXZXZXZXZXZXZXZXZXZXZXZXZXZXZXZXZXZXZX#X",
"#XZXZXZX$X& =XZXxXC 3.ZXZXZXZXZXZXZXZXZX4X>   + |.ZXZXZXZXZXZXZXZXZXZXZXZXZXZXZXZXZXZXZXQ.X   & =XZXZXZXZXZXZXZXZXZXZXZXZXZXZXZXZXZXZXZX#X",
"#XZXZXZXZXV.j u u #.vXZXZXZXZXZXZXZXZXzXj       5 wXZXZXZXZXZXZXZXZXZXZXZXZXZXZXZXZXZX3X>       e aXZXZXZXZXZXZXZXZXZXZXZXZXZXZXZXZXZXZX#X",
"#XZXZXZXZXZXmXlXZXZXZXZXZXZXZXZXZXZXCX~           c cXZXZXZXZXZXZXZXZXZXZXZXZXZXZXZXlXh           V MXZXZXZXZXZXZXZXZXZXZXZXZXZXZXZXZXZX#X",
"#XZXZXZXZXZXy.<.ZXZXZXZXZXZXZXZXZXZX0.              { ZXZXZXZXZXZXZXZXZXZXZXZXZXZXVXR               ;.ZXZXZXZXZXZXZXZXZXZXZXZXZXZXZXZXZX#X",
"#XZXZXZXZX|.+ . K.ZXZXZXZXZXZXZXZXW.X                 x.ZXZXZXZXZXZXZXZXZXZXZXZXZXw.                  Z.ZXZXZXZXZXZXZXZXZXZXZXZXZXZXZXZX#X",
"#XZXZXZXqX3     = >XZXZXZXZXZXZX8X<                   # +XZXZXZXZXZXZXZXZXZXZXZX).o                   = 1XZXZXZXZXZXZXZXZXZXZXZXZXZXZXZX#X",
"#XZXZXNXM         g cXZXZXZXZXVXZ                       t zXZXZXZXZXZXZXZXZXZXhX0                       c mXZXZXZXZXZXZXZXZXZXZXZXZXZXZX#X",
"#XZXZX2.            +.ZXZXZXZXs.                          $.ZXZXZXZXZXZXZXZXZX]                           9.ZXZXZXZXZXZXZXZXZXZXZXZXZXZX#X",
"#XZXOXX               ~.ZXZXaX-                           X *XZXZXZXZXZXZXZX+X.                           $ wXZXZXZXZXZXZXZXZXZXZXZXZXZX#X",
"#XZXR                 B ZXZX;.                              T ZXZXZXZXZXZXZXG                               +.ZXZXZXZXZXZXZXZXZXZXZXZXZX#X",
"#XZXq       @ @       & ZXZX8                               O jXZXZXZXZXZXhXo                               1 VXZXZXZXZXZXZXZXZXZXZXZXZX#X",
"#XZX!     i X.^ g     F ZXqX                                  _.ZXZXZXZXZX_.                                  7XZXZXZXZXZXZXZXZXZXZXZXZX#X",
"#XZXhX0.4.aXz q dX7.5.aXZXiX              Z   N               .XZXZXZXZXZXOX            X I   K             . sXZXZXZXZXZXZXZXZXZXZXZXZX#X",
"#XZXZXZXZX-X    `.ZXZXZXZXZXb           _ z.  >.%.          7 nXZXZXZXZXZXMXe           d.=.  h.`           Z ZXZXZXZXZXZXZXZXZXZXZXZXZX#X",
"#XZXZXZXZXR.2.2.F.ZXZXZXZXZX:X9       ..mXR   h BX-.      : `.ZXZXZXA.ZXZXZX+X7     O z.ZXp   L MX@.      f 8XZXZXZXZXZXZXZXZXZXZXZXZXZX#X",
"#XZXZXZXZXZXZXZXZXZXZXZXZXZXZXzXK.u._.ZXcX&     6XZXXXp.S.dXZXZXZX/.+  XZXZXZXcX/.N.6XZX<X    # kXZX%XN.].NXZXZXZXZXZXZXZXZXZXZXZXZXZXZX#X",
"#XZXZXZXZXZXZXZXZXZXZXZXZXZXZXZXZXZXZXZXC.      8.ZXZXZXZXZXZXZXyX6   e dXZXZXZXZXZXZXZX1.      v.ZXZXZXZXZXZXZXZXZXZXZXZXZXZXZXZXZXZXZX#X",
"#XZXZXZXZXZXZXZXZXZXZXZXZXZXZXZXZXZXZXZXB       9 NXZXZXZXZXZXMXC       G NXZXZXZXZXZXnX4       v ZXZXZXZXZXZXZXZXZXZXZXZXZXZXZXZXZXZXZX#X",
"#XZXZXZXZXZXZXZXZXZXZXZXZXZXZXZXZXZXZXoXy y y y y J.ZXZXZXZXZXO.          >.ZXZXZXZXZX!.H H H H H *XZXZXZXZXZXZXZXZXZXZXZXZXZXZXZXZXZXZX#X",
"#XZXZXZXZXZXZXZXZXZXZXZXZXZXZXZXZXZXZXZXZXZXZXZXZXZXZXZXZXZXx.              N.ZXZXZXZXZXZXZXZXZXZXZXZXZXZXZXZXZXZXZXZXZXZXZXZXZXZXZXZXZX#X",
"#XZXZXZXZXZXZXZXZXZXZXZXZXZXZXZXZXZXZXZXZXZXZXZXZXZXZXZXZX.X@               % *XZXZXZXZXZXZXZXZXZXZXZXZXZXZXZXZXZXZXZXZXZXZXZXZXZXZXZXZX#X",
"#XZXZXZXZXZXZXZXZXZXZXZXZXZXZXZXZXZXZXZXZXZXZXZXZXZXZXZXpX9                   i hXZXZXZXZXZXZXZXZXZXZXZXZXZXZXZXZXZXZXZXZXZXZXZXZXZXZXZX#X",
"#XZXZXZXZXZXZXZXZXZXZXZXZXZXZXZXZXZXZXZXZXZXZXZXZXZXZXCXI                       ) ZXZXZXZXZXZXZXZXZXZXZXZXZXZXZXZXZXZXZXZXZXZXZXZXZXZXZX#X",
"#XZXZXZXZXZXZXZXZXZXZXZXZXZXZXZXZXZXZXZXZXZXZXZXZXZXZXb.                          H.ZXZXZXZXZXZXZXZXZXZXZXZXZXZXZXZXZXZXZXZXZXZXZXZXZXZX#X",
"#XZXZXZXZXZXZXZXZXZXZXZXZXZXZXZXZXZXZXZXZXZXZXZXZXZXdX:                           4 lXZXZXZXZXZXZXZXZXZXZXZXZXZXZXZXZXZXZXZXZXZXZXZXZXZX#X",
"#XZXZXZXZXZXZXZXZXZXZXZXZXZXZXZXZXZXZXZXZXZXZXZXZXZX<.                              w.ZXZXZXZXZXZXZXZXZXZXZXZXZXZXZXZXZXZXZXZXZXZXZXZXZX#X",
"#XZXZXZXZXZXZXZXZXZXZXZXZXZXZXZXZXZXZXZXZXZXZXZXZXVX1                               9 ZXZXZXZXZXZXZXZXZXZXZXZXZXZXZXZXZXZXZXZXZXZXZXZXZX#X",
"#XZXZXZXZXZXZXZXZXZXZXZXZXZXZXZXZXZXZXZXZXZXZXZXZX-X                                  6XZXZXZXZXZXZXZXZXZXZXZXZXZXZXZXZXZXZXZXZXZXZXZXZX#X",
"#XZXZXZXZXZXZXZXZXZXZXZXZXZXZXZXZXZXZXZXZXZXsXZXZX+X              t   e               ,XZXZXeXZXZXZXZXZXZXZXZXZXZXZXZXZXZXZXZXZXZXZXZXZX#X",
"#XZXZXZXZXZXZXZXZXZXZXZXZXZXZXZXZXZXZXZXZXNXN uXZXcX;           H r.  a.x           3 NXZXiXg jXZXZXZXZXZXZXZXZXZXZXZXZXZXZXZXZXZXZXZXZX#X",
"#XZXZXZXZXZXZXZXZXZXZXZXZXZXZXZXZXZXZXZXZX5.  L CXZXm.X       F hXP   ~ wXl       o H.ZXCXI   ` ZXZXZXZXZXZXZXZXZXZXZXZXZXZXZXZXZXZXZXZX#X",
"#XZXZXZXZXZXZXZXZXZXZXZXZXZXZXZXZXZXZXZX^.o     q.ZXZXXX&.R f.MXzX$   - mXzXr.R =.$XZXZX0.      l.ZXZXZXZXZXZXZXZXZXZXZXZXZXZXZXZXZXZXZX#X",
"#XZXZXZXZXZXZXZXZXZXZXZXZXZXZXZXZXZXZX3X>       . L.ZXZXZXZXZXZXC.      I.ZXZXZXZXZXZXR.X       O '.ZXZXZXZXZXZXZXZXZXZXZXZXZXZXZXZXZXZX#X",
"#XZXZXZXZXZXZXZXZXZXZXZXZXZXZXZXZXZXlXg           - >XZXZXZXZXZXN       L ZXZXZXZXZX2X:           1 8XZXZXZXZXZXZXZXZXZXZXZXZXZXZXZXZXZX#X",
"#XZXZXZXZXZXZXZXZXZXZXZXZXZXZXZXZXCXR               a jXZXZXZX{.        X $XZXZXZXkXs               v bXZXZXZXZXZXZXZXZXZXZXZXZXZXZXZXZX#X",
"#XZXZXZXZXZXZXZXZXZXZXZXZXZXZXZXZXe.                  R CXZXZXxXgXgXgXgXgXcXZXZXCX~                   X.ZXZXZXZXZXZXZXZXZXZXZXZXZXZXZXZX#X",
"#XZXZXZXZXZXZXZXZXZXZXZXZXZXZXZX`.o                     f.ZXZXZXZXZXZXZXZXZXZXZXf.                      C.ZXZXZXZXZXZXZXZXZXZXZXZXZXZXZX#X",
"#XZXZXZXZXZXZXZXZXZXZXZXZXZXZXjXw                       # ;XZXZXZXZXZXZXZXZXZX<X$                       ; 0XZXZXZXZXZXZXZXZXZXZXZXZXZXZX#X",
"#XZXZXZXZXZXZXZXZXZXZXZXZXZXZXo.                          v BXZXZXZXZXZXZXZXCXm                           L ZXZXZXZXZXZXZXZXZXZXZXZXZXZX#X",
"#XZXZXZXZXZXZXZXZXZXZXZXZXZX:XX                             C.ZXZXZXZXZXZXZXG.                              (.ZXZXZXZXZXZXZXZXZXZXZXZXZX#X",
"#XZXZXZXZXZXZXZXZXZXZXZXZXZX)                               u ZXZXZXZXZXZXZXk                               A ZXZXZXZXZXZXZXZXZXZXZXZXZX#X",
"#XZXZXZXZXZXZXZXZXZXZXZXZXBX,                                 2XZXZXZXZXZXtX                                O kXZXZXZXZXZXZXZXZXZXZXZXZX#X",
"#XZXZXZXZXZXZXZXZXZXZXZXZXtX              .   .               U.ZXZXZXZXZX{.              O   O               ;XZXZXZXZXZXZXZXZXZXZXZXZX#X",
"#XZXZXZXZXZXZXZXZXZXZXZXZXbX$           o -.  [ ;             @XZXZXZXZXZX0X            < -.  ;.$           o hXZXZXZXZXZXZXZXZXZXZXZXZX#X",
"#XZXZXZXZXZXZXZXZXZXZXZXZXZXO.        . k.s.  ( R.+         b VXZXZXZXZXZXZXE         * ].X.  <.A.o         ..ZXZXZXZXZXZXZXZXZXZXZXZXZX#X",
"#XZXZXZXZXZXZXZXZXZXZXZXZXZXvX .o   > G.ZXS   > MX'.0     G eXZXZXZXZXZXZXZXlX .%   g &XVX7   s ZX~.e   * &.vXZXZXZXZXZXZXZXZXZXZXZXZXZX#X",
"#XZXZXZXZXZXZXZXZXZXZXZXZXZXZXZXcX>XcXZXsXO     /.ZXNX,XgXZXZXM.b b b b n 7XZXZXVXpXZXZX.X      ,XZXZXiXCXZXZXZXZXZXZXZXZXZXZXZXZXZXZXZX#X",
"#XZXZXZXZXZXZXZXZXZXZXZXZXZXZXZXZXZXZXZXa.      ( ZXZXZXZXZXZXjX*       R ZXZXZXZXZXZXZX}       >.ZXZXZXZXZXZXZXZXZXZXZXZXZXZXZXZXZXZXZX#X",
"#XZXZXZXZXZXZXZXZXZXZXZXZXZXZXZXZXZXZXBXp       @ yXZXZXZXZXZXZXX.      Q.ZXZXZXZXZXZXaX&       1 zXZXZXZXZXZXZXZXZXZXZXZXZXZXZXZXZXZXZX#X",
"#XZXZXZXZXZXZXZXZXZXZXZXZXZXZXZXZXZXZX1X2.2.2.2.2.(.ZXaXK.l.1XZX|.    5 BXCX).k.(.MXZXoXi.i.i.i.i.*XZXZXZXZXZXZXZXZXZXZXZXZXZXZXZXZXZXZX#X",
"#XZXZXZXZXZXZXZXZXZXZXZXZXZXZXZXZXZXZXZXZXZXZXZXZXZXR.=     o a.BX2   X.vX_       j tXZXZXZXZXZXZXZXZXZXZXZXZXZXZXZXZXZXZXZXZXZXZXZXZXZX#X",
"#XZXZXZXZXZXZXZXZXZXZXZXZXZXZXZXZXZXZXZXZXZXZXZXZXgX-           p._   H.T           W ZXZXZXZXZXZXZXZXZXZXZXZXZXZXZXZXZXZXZXZXZXZXZXZXZX#X",
"#XZXZXZXZXZXZXZXZXZXZXZXZXZXZXZXZXZXZXZXZXZXZXZXZXY.            o C   J             # MXZXZXZXZXZXZXZXZXZXZXZXZXZXZXZXZXZXZXZXZXZXZXZXZX#X",
"#XZXZXZXZXZXZXZXZXZXZXZXZXZXZXZXZXZXZXZXZXZXZXZXZXD.                                . cXZXZXZXZXZXZXZXZXZXZXZXZXZXZXZXZXZXZXZXZXZXZXZXZX#X",
"#XZXZXZXZXZXZXZXZXZXZXZXZXZXZXZXZXZXZXZXZXZXZXZXZX5X                                l ZXZXZXZXZXZXZXZXZXZXZXZXZXZXZXZXZXZXZXZXZXZXZXZXZX#X",
"#XZXZXZXZXZXZXZXZXZXZXZXZXZXZXZXZXZXZXZXZXZXZXZXZXZXv                               r.ZXZXZXZXZXZXZXZXZXZXZXZXZXZXZXZXZXZXZXZXZXZXZXZXZX#X",
"#XZXZXZXZXZXZXZXZXZXZXZXZXZXZXZXZXZXZXZXZXZXZXZXZXZX~.                            3 lXZXZXZXZXZXZXZXZXZXZXZXZXZXZXZXZXZXZXZXZXZXZXZXZXZX#X",
"#XZXZXZXZXZXZXZXZXZXZXZXZXZXZXZXZXZXZXZXZXZXZXZXZXZXZXT                           B.ZXZXZXZXZXZXZXZXZXZXZXZXZXZXZXZXZXZXZXZXZXZXZXZXZXZX#X",
"#XZXZXZXZXZXZXZXZXZXZXZXZXZXZXZXZXZXZXZXZXZXZXZXZXZXZXpX4                       T ZXZXZXZXZXZXZXZXZXZXZXZXZXZXZXZXZXZXZXZXZXZXZXZXZXZXZX#X",
"#XZXZXZXZXZXZXZXZXZXZXZXZXZXZXZXZXZXZXZXZXZXZXZXZXZXZXZXY..                   9 pXZXZXZXZXZXZXZXZXZXZXZXZXZXZXZXZXZXZXZXZXZXZXZXZXZXZXZX#X",
"#XZXZXZXZXZXZXZXZXZXZXZXZXZXZXZXZXZXZXZXZXZXZXZXZXZXZXZXZX2.                O }.ZXZXZXZXZXZXZXZXZXZXZXZXZXZXZXZXZXZXZXZXZXZXZXZXZXZXZXZX#X",
"#XZXZXZXZXZXZXZXZXZXZXZXZXZXZXZXZXZXZX&X^ ^ ^ ^ ^ T.ZXZXZXNXG               h.ZXZXZXZX!.H H H H H +XZXZXZXZXZXZXZXZXZXZXZXZXZXZXZXZXZXZX#X",
"#XZXZXZXZXZXZXZXZXZXZXZXZXZXZXZXZXZXZXCXj       - kXZXZXZXZXfXu           [ ZXZXZXZXZXmX5       j CXZXZXZXZXZXZXZXZXZXZXZXZXZXZXZXZXZXZX#X",
"#XZXZXZXZXZXZXZXZXZXZXZXZXZXZXZXZXZXZXZXk.      +.ZXZXZXZXZXZX-X*       v vXZXZXZXZXZXZX2.      k.ZXZXZXZXZXZXZXZXZXZXZXZXZXZXZXZXZXZXZX#X",
"#XZXZXZXZXZXZXZXZXZXZXZXZXZXZXZX6X/.eXZXhX@     oXZXgX/.:XVXZXZXH.    5 eXZXZXnX[.S.7XZX3X    + fXZX<XA..XBXZXZXZXZXZXZXZXZXZXZXZXZXZXZX#X",
"#XZXZXZXZXZXZXZXZXZXZXZXZXZXsXD     O 8.CXJ   7 CXR.:     g 1XZXZX#.. W.ZXZX*Xe     o y.CXd   D CXq..     h 8XZXZXZXZXZX.XK.K.oXZXZXZXZX#X",
"#XZXZXZXZXZXZXZXZXZXZXZXZXZXE           %.g.  X.H.X         s NXZXxX;.ZXZXBXi           6.:.  a.1.          V ZXZXZXZXZXY.    !.ZXZXZXZX#X",
"#XZXZXZXZXZXZXZXZXZXZXZXZXkXo             )   / %             OXZXZXBXZXZX%X            . I   W               uXZXNXK.J.vX4 0 nXG.I.BXZX#X",
"#XZXZXZXZXZXZXZXZXZXZXZXZXqX                                  E.ZXZXZXZXZX[.                                  2XZX[     J `  .L     +.ZX#X",
"#XZXZXZXZXZXZXZXZXZXZXZXZXVX2                                 wXZXZXZXZXZXjXo                               > BXZX,       , <       6 ZX#X",
"#XZXZXZXZXZXZXZXZXZXZXZXZXZX|                               b ZXZXZXZXZXZXZXK                               | ZXZXv                 N ZX#X",
"#XZXZXZXZXZXZXZXZXZXZXZXZXZX9X@                             !.ZXZXZXZXZXZXZX#X.                           + 7XZXZXS.                P.ZX#X",
"#XZXZXZXZXZXZXZXZXZXZXZXZXZXZX,.                          K ZXZXZXZXZXZXZXZXZX[                           3.ZXZXZXCXR             Q ZXZX#X",
"#XZXZXZXZXZXZXZXZXZXZXZXZXZXZXnXh                       : wXZXZXZXZXZXZXZXZXZXjXq                       g bXZXZXZXZXaX7         0 dXZXZX#X",
"#XZXZXZXZXZXZXZXZXZXZXZXZXZXZXZX#X#                     H.ZXZXZXZXZXZXZXZXZXZXZX_.o                   % -XZXZXZXZXZXZX[.+     @ XXZXZXZX#X",
"#XZXZXZXZXZXZXZXZXZXZXZXZXZXZXZXZXc.                  *.ZXZXZXZXZXZXZXZXZXZXZXZXZXr.                  N.ZXZXZXZXZXZXZXZXk.    n.ZXZXZXZX#X",
"#XZXZXZXZXZXZXZXZXZXZXZXZXZXZXZXZXZX}               M mXZXZXZXZXZXZXZXZXZXZXZXZXZXCXR               +.ZXZXZXZXZXZXZXZXZXZX' X.ZXZXZXZXZX#X",
"#XZXZXZXZXZXZXZXZXZXZXZXZXZXZXZXZXZXbXm           6 rXZXZXZXZXZXZXZXZXZXZXZXZXZXZXZXlXh           M nXZXZXZXZXZXZXZXZXZXZXaXgXZXZXZXZXZX#X",
"#XZXZXZXZXZXZXZXZXZXZXZXZXZXZXZXZXZXZXyX8       + |.ZXZXZXZXZXZXZXZXZXZXZXZXZXZXZXZXZX3X>       7 tXZXZXZXZXZXZXZXZXZXZXZXZXZXZXZXZXZXZX#X",
"#XZXZXZXZXZXZXZXZXZXZXZXZXZXZXZXZXZXZXZX X@     M.ZXZXZXZXZXZXZXZXZXZXZXZXZXZXZXZXZXZXZXW.X   # +XZXZXZXZXZXZXZXZXZXZXvX%.i u l D.ZXZXZX#X",
"#XZXZXZXZXZXZXZXZXZXZXZXZXZXZXZXZXZXZXZXZXa.  | ZXZXZXZXZXZXZXZXZXZXZXZXZXZXZXZXZXZXZXZXZX2.  j.ZXZXZXZXZXZXZXZXZXZXZX3.C xXZX=X& &XZXZX#X",
"#XZXZXZXZXZXZXZXZXZXZXZXZXZXZXZXZXZXZXZXZXCXY lXZXZXZXZXZXZXZXZXZXZXZXZXZXZXZXZXZXZXZXZXZXMX_ CXZXZXZXZXZXZXZXZXZXZXZXK t.ZXZXZXx V.ZXZX#X",
"#XZXZXZXZXZXZXZXZXZXZXZXZXZXZXZXZXZXZXZXZXZXxXZXZXZXZXZXZXZXZXZXZXZXZXZXZXZXZXZXZXZXZXZXZXZXmXZXZXZXZXZXZXZXZXZXZXZXZXs.M sXZX}.3 0XZXZX#X",
"#XZXZXZXZXZXZXZXZXZXZXZXZXZXZXZXZXZXZXZXZXZXZXZXZXZXZXZXZXZXZXZXZXZXZXZXZXZXZXZXZXZXZXZXZXZXZXZXZXZXZXZXZXZXZXZXZXZXZXZX2.o 3 ; ].ZXZXZX#X",
"#XZXZXZXZXZXZXZXZXZXZXZXZXZXZXZXZXZXZXZXZXZXZXZXZXZXZXZXZXZXZXZXZXZXZXZXZXZXZXZXZXZXZXZXZXZXZXZXZXZXZXZXZXZXZXZXZXZXZXoX6 9XZXM.y mXZXZX#X",
"#XZXZXZXZXZXZXZXZXZXZXZXZXZXZXZXZXZXZXZXZXZXZXZXZXZXZXZXZXZXZXZXZXZXZXZXZXZXZXZXZXZXZXZXZXZXZXZXZXZXZXZXZXZXZXZXZXZXZXw.U ZXZXNX. :XZXZX#X",
"#XZXZXZXZXZXZXZXZXZXZXZXZXZXZXZXZXZXZXZXZXZXZXZXZXZXZXZXZXZXZXZXZXZXZXZXZXZXZXZXZXZXZXZXZXZXZXZXZXZXZXZXZXZXZXZXZXZXZXU.7 pXZXW.; zXZXZX#X",
"#XZXZXZXZXZXZXZXZXZXZXZXZXZXZXZXZXZXZXZXZXZXZXZXZXZXZXZXZXZXZXZXZXZXZXZXZXZXZXZXZXZXZXZXZXZXZXZXZXZXZXZXZXZXZXZXZXZXZXZXt.p i n [.ZXZXZX#X",
"|.CXZXZXZXZXZXZXZXZXZXZXZXZXZXZXZXZXZXZXZXZXZXZXZXZXZXZXZXZXZXZXZXZXZXZXZXZXZXZXZXZXZXZXZXZXZXZXZXZXZXZXZXZXZXZXZXZXZXZXZXZXZXZXZXZXZXCX X",
"MX}.#X$X$X$X$X$X$X$X$X$X$X$X$X$X$X$X$X$X$X$X$X$X$X$X$X$X$X$X$X$X$X$X$X$X$X$X$X$X$X$X$X$X$X$X$X$X$X$X$X$X$X$X$X$X$X$X$X$X$X$X$X$X$X$X#X}.MX"
};
