/* XPM */
static const char *five_spades[] = {
/* columns rows colors chars-per-pixel */
"69 100 222 2 ",
"   c black",
".  c #010101",
"X  c #020202",
"o  c gray1",
"O  c #040404",
"+  c gray2",
"@  c #060606",
"#  c #070707",
"$  c gray3",
"%  c #090909",
"&  c gray4",
"*  c #0B0B0B",
"=  c #0C0C0C",
"-  c gray5",
";  c #0E0E0E",
":  c gray6",
">  c #111111",
",  c gray7",
"<  c #131313",
"1  c gray8",
"2  c #151515",
"3  c #161616",
"4  c gray9",
"5  c #181818",
"6  c #191919",
"7  c gray10",
"8  c #1B1B1B",
"9  c gray11",
"0  c #1D1D1D",
"q  c #1E1E1E",
"w  c gray12",
"e  c gray13",
"r  c #222222",
"t  c #232323",
"y  c gray14",
"u  c #252525",
"i  c gray15",
"p  c #272727",
"a  c #282828",
"s  c gray16",
"d  c #2A2A2A",
"f  c gray17",
"g  c #2C2C2C",
"h  c #2D2D2D",
"j  c gray18",
"k  c #2F2F2F",
"l  c #323232",
"z  c gray20",
"x  c #353535",
"c  c gray21",
"v  c #373737",
"b  c gray22",
"n  c #393939",
"m  c #3A3A3A",
"M  c gray23",
"N  c gray24",
"B  c gray25",
"V  c gray26",
"C  c #434343",
"Z  c #444444",
"A  c gray27",
"S  c #464646",
"D  c gray28",
"F  c #484848",
"G  c #494949",
"H  c gray29",
"J  c #4B4B4B",
"K  c gray30",
"L  c #4E4E4E",
"P  c gray31",
"I  c #505050",
"U  c #515151",
"Y  c gray32",
"T  c #535353",
"R  c #555555",
"E  c #565656",
"W  c gray34",
"Q  c #585858",
"!  c gray35",
"~  c #5A5A5A",
"^  c #5B5B5B",
"/  c #5D5D5D",
"(  c gray37",
")  c #5F5F5F",
"_  c #606060",
"`  c gray38",
"'  c #626262",
"]  c gray39",
"[  c #656565",
"{  c gray40",
"}  c #676767",
"|  c #686868",
" . c #6A6A6A",
".. c gray42",
"X. c #6C6C6C",
"o. c #6D6D6D",
"O. c gray43",
"+. c #727272",
"@. c #747474",
"#. c #777777",
"$. c gray47",
"%. c #797979",
"&. c #7B7B7B",
"*. c #7C7C7C",
"=. c gray49",
"-. c #7E7E7E",
";. c gray50",
":. c #808080",
">. c gray51",
",. c #838383",
"<. c #848484",
"1. c #868686",
"2. c gray53",
"3. c #888888",
"4. c #898989",
"5. c gray54",
"6. c #8B8B8B",
"7. c gray56",
"8. c #909090",
"9. c gray57",
"0. c #929292",
"q. c gray58",
"w. c #959595",
"e. c gray59",
"r. c #979797",
"t. c gray60",
"y. c #9A9A9A",
"u. c gray61",
"i. c #9D9D9D",
"p. c gray62",
"a. c #9F9F9F",
"s. c #A0A0A0",
"d. c gray63",
"f. c #A2A2A2",
"g. c gray64",
"h. c #A4A4A4",
"j. c #A5A5A5",
"k. c gray65",
"l. c #A7A7A7",
"z. c #A9A9A9",
"x. c #AAAAAA",
"c. c gray67",
"v. c #ACACAC",
"b. c gray68",
"n. c #AEAEAE",
"m. c #AFAFAF",
"M. c gray69",
"N. c #B1B1B1",
"B. c gray70",
"V. c #B4B4B4",
"C. c gray71",
"Z. c #B6B6B6",
"A. c #B7B7B7",
"S. c gray72",
"D. c #B9B9B9",
"F. c gray73",
"G. c #BBBBBB",
"H. c #BCBCBC",
"J. c gray74",
"K. c gray",
"L. c gray75",
"P. c #C0C0C0",
"I. c #C1C1C1",
"U. c gray76",
"Y. c #C3C3C3",
"T. c gray77",
"R. c #C5C5C5",
"E. c #C6C6C6",
"W. c gray78",
"Q. c #C8C8C8",
"!. c gray79",
"~. c #CACACA",
"^. c #CBCBCB",
"/. c gray80",
"(. c #CDCDCD",
"). c #CECECE",
"_. c gray81",
"`. c #D0D0D0",
"'. c gray82",
"]. c #D2D2D2",
"[. c LightGray",
"{. c gray83",
"}. c gray84",
"|. c #D7D7D7",
" X c #D8D8D8",
".X c gray85",
"XX c #DADADA",
"oX c gray86",
"OX c gainsboro",
"+X c #DDDDDD",
"@X c gray87",
"#X c #DFDFDF",
"$X c gray88",
"%X c #E1E1E1",
"&X c #E2E2E2",
"*X c gray90",
"=X c #E6E6E6",
"-X c #E7E7E7",
";X c gray91",
":X c #E9E9E9",
">X c #EAEAEA",
",X c gray92",
"<X c #ECECEC",
"1X c gray93",
"2X c #EEEEEE",
"3X c #EFEFEF",
"4X c gray94",
"5X c #F1F1F1",
"6X c gray95",
"7X c #F3F3F3",
"8X c #F4F4F4",
"9X c gray96",
"0X c #F6F6F6",
"qX c gray97",
"wX c #F8F8F8",
"eX c #F9F9F9",
"rX c gray98",
"tX c #FBFBFB",
"yX c gray99",
"uX c #FDFDFD",
"iX c #FEFEFE",
"pX c white",
/* pixels */
"rXU.^./././././././././././././././././././././././././././././././././././././././././././././././././././././././././././././././.^.U.rX",
"Y.iXpXpXpXpXpXpXpXpXpXpXpXpXpXpXpXpXpXpXpXpXpXpXpXpXpXpXpXpXpXpXpXpXpXpXpXpXpXpXpXpXpXpXpXpXpXpXpXpXpXpXpXpXpXpXpXpXpXpXpXpXpXpXpXpXpXiXT.",
"^.pXpXpXpXpXpXpXpXpXpXpXpXpXpXpXpXpXpXpXpXpXpXpXpXpXpXpXpXpXpXpXpXpXpXpXpXpXpXpXpXpXpXpXpXpXpXpXpXpXpXpXpXpXpXpXpXpXpXpXpXpXpXpXpXpXpXpX^.",
"^.pXpXpXpX; @ # # # I.pXpXpXpXpXpXpXpXpXpXpXpXpXpXpXpXpXpXpXpXpXpXpXpXpXpXpXpXpXpXpXpXpXpXpXpXpXpXpXpXpXpXpXpXpXpXpXpXpXpXpXpXpXpXpXpXpX^.",
"^.pXpXpXuX. %XpXpXpXpXpXpXpXpXpXpXpXpXpXpXpXpXpXpXpXpXpXpXpXpXpXpXpXpXpXpXpXpXpXpXpXpXpXpXpXpXpXpXpXpXpXpXpXpXpXpXpXpXpXpXpXpXpXpXpXpXpX^.",
"^.pXpXpX2X  5XpXpXpXpXpXpXpXpXpXpXpXpXpXpXpXpXpXpXpXpXpXpXpXpXpXpXpXpXpXpXpXpXpXpXpXpXpXpXpXpXpXpXpXpXpXpXpXpXpXpXpXpXpXpXpXpXpXpXpXpXpX^.",
"^.pXpXpX+X  Q 4 t <.iXpXpXpXpXpXpXpXpXpXpXpXpXpXpXpXpXpXpXpXpXpXpXpXpXpXpXpXpXpXpXpXpXpXpXpXpXpXpXpXpXpXpXpXpXpXpXpXpXpXpXpXpXpXpXpXpXpX^.",
"^.pXpXpX&X_ Z.rX/.6 r.pXpXpXpXpXpXpXpXpXpXpXpXpXpXpXpXpXpXpXpXpXpXpXpXpXpXpXpXpXpXpXpXpXpXpXpXpXpXpXpXpXpXpXpXpXpXpXpXpXpXpXpXpXpXpXpXpX^.",
"^.pXpXpXpXpXpXpXpX:.H pXpXpXpXpXpXpXpXpXpXpXpXpXpXpXpXpXpXpXpXpXpXpXpXpXpXpXpXpXpXpXpXpXpXpXpXpXpXpXpXpXpXpXpXpXpXpXpXpXpXpXpXpXpXpXpXpX^.",
"^.pXpXpX:X~.pXpXpX*.Y pXpXpXpXpXpXpXpXpXpXpXpXuXpXpXpXpXpXpXpXpXpXpXpXpXpXpXpXpXpXpXpXpXpXiXpXpXpXpXpXpXpXpXpXpXpXpXpXpXpXpXpXpXpXpXpXpX^.",
"^.pXpXpX^.% L.pX[.5 j.pXpXpXpXpXpXpXpXpXpXpX-X>.pXpXpXpXpXpXpXpXpXpXpXpXpXpXpXpXpXpXpXpXtX*.pXpXpXpXpXpXpXpXpXpXpXpXpXpXpXpXpXpXpXpXpXpX^.",
"^.pXpXpXpXh.a : u 0.pXpXpXpXpXpXpXpXpXpXpXpXP # `.pXpXpXpXpXpXpXpXpXpXpXpXpXpXpXpXpXpXpX=.X G.pXpXpXpXpXpXpXpXpXpXpXpXpXpXpXpXpXpXpXpXpX^.",
"^.pXpXpXpXpXeX6XpXpXpXpXpXpXpXpXpXpXpXpXpX7.    a 5XpXpXpXpXpXpXpXpXpXpXpXpXpXpXpXpXpXH.o   6 =XpXpXpXpXpXpXpXpXpXpXpXpXpXpXpXpXpXpXpXpX^.",
"^.pXpXpXpXpX1.@.pXpXpXpXpXpXpXpXpXpXpXpXJ.O       L uXpXpXpXpXpXpXpXpXpXpXpXpXpXpXpX$X1       b wXpXpXpXpXpXpXpXpXpXpXpXpXpXpXpXpXpXpXpX^.",
"^.pXpXpXpXY.+ . x.pXpXpXpXpXpXpXpXpXpX$X2           -.pXpXpXpXpXpXpXpXpXpXpXpXpXpX0Xl           ) pXpXpXpXpXpXpXpXpXpXpXpXpXpXpXpXpXpXpX^.",
"^.pXpXpX%X2     = {.pXpXpXpXpXpXpXpX9Xk             . n.pXpXpXpXpXpXpXpXpXpXpXpXiXE               e.pXpXpXpXpXpXpXpXpXpXpXpXpXpXpXpXpXpX^.",
"^.pXpXtXn         d 9XpXpXpXpXpXpXpX)                 = }.pXpXpXpXpXpXpXpXpXpXpX5.                + T.pXpXpXpXpXpXpXpXpXpXpXpXpXpXpXpXpX^.",
"^.pXpX#.            { pXpXpXpXpXpXw.                    h 9XpXpXpXpXpXpXpXpXpXP.O                   0 ,XpXpXpXpXpXpXpXpXpXpXpXpXpXpXpXpX^.",
"^.pXQ.X               A.pXpXpXpX|.%                       ..pXpXpXpXpXpXpXpX4Xq                       L pXpXpXpXpXpXpXpXpXpXpXpXpXpXpXpX^.",
"^.pXL                 M pXpXpXtXx                         . G.pXpXpXpXpXpXpX_                           d.pXpXpXpXpXpXpXpXpXpXpXpXpXpXpX^.",
"^.pX0       @ @       & pXpXpXy.                            p tXpXpXpXpXpX!..                           1 6XpXpXpXpXpXpXpXpXpXpXpXpXpXpX^.",
"^.pXT     y ] R d     V pXpXeX0                               d.pXpXpXpXpXV                               ,.pXpXpXpXpXpXpXpXpXpXpXpXpXpX^.",
"^.pX3X:.%.>Xk 0 <X=.&.>XpXpXL.                                J pXpXpXpX:X.                               s pXpXpXpXpXpXpXpXpXpXpXpXpXpX^.",
"^.pXpXpXpX'.    J.pXpXpXpXpX5.                                < pXpXpXpXM.                                  2XpXpXpXpXpXpXpXpXpXpXpXpXpX^.",
"^.pXpXpXpXN.#.#.k.pXpXpXpXpX0.            * x   N             0 pXpXpXpXC.            . b   c             X 8XpXpXpXpXpXpXpXpXpXpXpXpXpX^.",
"^.pXpXpXpXpXpXpXpXpXpXpXpXpXoXo         X N.N   D.a            .pXpXpXpX3X;           ,.[   a.m           B pXpXpXpXpXpXpXpXpXpXpXpXpXpX^.",
"^.pXpXpXpXpXpXpXpXpXpXpXpXpXpXt.+     = n.4X+   ;.*Xx       n 4XpXpXpXpXpXc.$     . <.iXw   ) 1XV       0  XpXpXpXpXpXpXpXpXpXpXpXpXpXpX^.",
"^.pXpXpXpXpXpXpXpXpXpXpXpXpXpXpX%Xs.0.&XpXl.    l pXrXn.7.J.uXpXpXpXpXpXpXpX%Xt.:.~.pX`.    2 yXtXc.:.k.7XpXpXpXpXpXpXpXpXpXpXpXpXpXpXpX^.",
"^.pXpXpXpXpXpXpXpXpXpXpXpXpXpXpXpXpXpXpXpXF       _.pXpXpXpXpXpXpXpXpXpXpXpXpXpXpXpXpX+.      B.pXpXpXpXpXpXpXpXpXpXpXpXpXpXpXpXpXpXpXpX^.",
"^.pXpXpXpXpXpXpXpXpXpXpXpXpXpXpXpXpXpXpX#XX       X.pXpXpXpXpXpXpXpXpXpXpXpXpXpXpXpXqX1       K pXpXpXpXpXpXpXpXpXpXpXpXpXpXpXpXpXpXpXpX^.",
"^.pXpXpXpXpXpXpXpXpXpXpXpXpXpXpXpXpXpXpX4.z z z z N 2XpXpXpXpXpXpXpXpXpXpXpXpXpXpXpXd.r r r r y |.pXpXpXpXpXpXpXpXpXpXpXpXpXpXpXpXpXpXpX^.",
"^.pXpXpXpXpXpXpXpXpXpXpXpXpXpXpXpXpXpXpXpXpXpXpXpXpXpXpXpXpXpXpXpXpXpXpXpXpXpXpXpXpXpXpXpXpXpXpXpXpXpXpXpXpXpXpXpXpXpXpXpXpXpXpXpXpXpXpX^.",
"^.pXpXpXpXpXpXpXpXpXpXpXpXpXpXpXpXpXpXpXpXpXpXpXpXpXpXpXpXpXpXpXpXpXpXpXpXpXpXpXpXpXpXpXpXpXpXpXpXpXpXpXpXpXpXpXpXpXpXpXpXpXpXpXpXpXpXpX^.",
"^.pXpXpXpXpXpXpXpXpXpXpXpXpXpXpXpXpXpXpXpXpXpXpXpXpXpXpXpXpXpXpXpXpXpXpXpXpXpXpXpXpXpXpXpXpXpXpXpXpXpXpXpXpXpXpXpXpXpXpXpXpXpXpXpXpXpXpX^.",
"^.pXpXpXpXpXpXpXpXpXpXpXpXpXpXpXpXpXpXpXpXpXpXpXpXpXpXpXpXpXpXpXpXpXpXpXpXpXpXpXpXpXpXpXpXpXpXpXpXpXpXpXpXpXpXpXpXpXpXpXpXpXpXpXpXpXpXpX^.",
"^.pXpXpXpXpXpXpXpXpXpXpXpXpXpXpXpXpXpXpXpXpXpXpXpXpXpXpXpXpXpXpXpXpXpXpXpXpXpXpXpXpXpXpXpXpXpXpXpXpXpXpXpXpXpXpXpXpXpXpXpXpXpXpXpXpXpXpX^.",
"^.pXpXpXpXpXpXpXpXpXpXpXpXpXpXpXpXpXpXpXpXpXpXpXpXpXpXpXpXpXpXpXpXpXpXpXpXpXpXpXpXpXpXpXpXpXpXpXpXpXpXpXpXpXpXpXpXpXpXpXpXpXpXpXpXpXpXpX^.",
"^.pXpXpXpXpXpXpXpXpXpXpXpXpXpXpXpXpXpXpXpXpXpXpXpXpXpXpXpXpXpXpXpXpXpXpXpXpXpXpXpXpXpXpXpXpXpXpXpXpXpXpXpXpXpXpXpXpXpXpXpXpXpXpXpXpXpXpX^.",
"^.pXpXpXpXpXpXpXpXpXpXpXpXpXpXpXpXpXpXpXpXpXpXpXpXpXpXpXpXpXpXpXpXpX,XpXpXpXpXpXpXpXpXpXpXpXpXpXpXpXpXpXpXpXpXpXpXpXpXpXpXpXpXpXpXpXpXpX^.",
"^.pXpXpXpXpXpXpXpXpXpXpXpXpXpXpXpXpXpXpXpXpXpXpXpXpXpXpXpXpXpXpXpX4Xc 9XpXpXpXpXpXpXpXpXpXpXpXpXpXpXpXpXpXpXpXpXpXpXpXpXpXpXpXpXpXpXpXpX^.",
"^.pXpXpXpXpXpXpXpXpXpXpXpXpXpXpXpXpXpXpXpXpXpXpXpXpXpXpXpXpXpXpXpX~   } pXpXpXpXpXpXpXpXpXpXpXpXpXpXpXpXpXpXpXpXpXpXpXpXpXpXpXpXpXpXpXpX^.",
"^.pXpXpXpXpXpXpXpXpXpXpXpXpXpXpXpXpXpXpXpXpXpXpXpXpXpXpXpXpXpXpXq.      i.pXpXpXpXpXpXpXpXpXpXpXpXpXpXpXpXpXpXpXpXpXpXpXpXpXpXpXpXpXpXpX^.",
"^.pXpXpXpXpXpXpXpXpXpXpXpXpXpXpXpXpXpXpXpXpXpXpXpXpXpXpXpXpXpXT.@       $ !.pXpXpXpXpXpXpXpXpXpXpXpXpXpXpXpXpXpXpXpXpXpXpXpXpXpXpXpXpXpX^.",
"^.pXpXpXpXpXpXpXpXpXpXpXpXpXpXpXpXpXpXpXpXpXpXpXpXpXpXpXpXpX&X3           6 *XpXpXpXpXpXpXpXpXpXpXpXpXpXpXpXpXpXpXpXpXpXpXpXpXpXpXpXpXpX^.",
"^.pXpXpXpXpXpXpXpXpXpXpXpXpXpXpXpXpXpXpXpXpXpXpXpXpXpXpXpXqXz               N rXpXpXpXpXpXpXpXpXpXpXpXpXpXpXpXpXpXpXpXpXpXpXpXpXpXpXpXpX^.",
"^.pXpXpXpXpXpXpXpXpXpXpXpXpXpXpXpXpXpXpXpXpXpXpXpXpXpXpXpX]                   +.pXpXpXpXpXpXpXpXpXpXpXpXpXpXpXpXpXpXpXpXpXpXpXpXpXpXpXpX^.",
"^.pXpXpXpXpXpXpXpXpXpXpXpXpXpXpXpXpXpXpXpXpXpXpXpXpXpXpXa.                    . n.pXpXpXpXpXpXpXpXpXpXpXpXpXpXpXpXpXpXpXpXpXpXpXpXpXpXpX^.",
"^.pXpXpXpXpXpXpXpXpXpXpXpXpXpXpXpXpXpXpXpXpXpXpXpXpXpX#X-                       1 -XpXpXpXpXpXpXpXpXpXpXpXpXpXpXpXpXpXpXpXpXpXpXpXpXpXpX^.",
"^.pXpXpXpXpXpXpXpXpXpXpXpXpXpXpXpXpXpXpXpXpXpXpXpXpXpXC                           I pXpXpXpXpXpXpXpXpXpXpXpXpXpXpXpXpXpXpXpXpXpXpXpXpXpX^.",
"^.pXpXpXpXpXpXpXpXpXpXpXpXpXpXpXpXpXpXpXpXpXpXpXpXpXV.                              L.pXpXpXpXpXpXpXpXpXpXpXpXpXpXpXpXpXpXpXpXpXpXpXpXpX^.",
"^.pXpXpXpXpXpXpXpXpXpXpXpXpXpXpXpXpXpXpXpXpXpXpXpXpXv                               Z pXpXpXpXpXpXpXpXpXpXpXpXpXpXpXpXpXpXpXpXpXpXpXpXpX^.",
"^.pXpXpXpXpXpXpXpXpXpXpXpXpXpXpXpXpXpXpXpXpXpXpXpX<XX                               O 6XpXpXpXpXpXpXpXpXpXpXpXpXpXpXpXpXpXpXpXpXpXpXpXpX^.",
"^.pXpXpXpXpXpXpXpXpXpXpXpXpXpXpXpXpXpXpXpXpXpXpXpXT.              .   .               _.pXpXpXpXpXpXpXpXpXpXpXpXpXpXpXpXpXpXpXpXpXpXpXpX^.",
"^.pXpXpXpXpXpXpXpXpXpXpXpXpXpXpXpXpXpXpXpXpXpXpXpX@X            * }   { +           . >XpXpXpXpXpXpXpXpXpXpXpXpXpXpXpXpXpXpXpXpXpXpXpXpX^.",
"^.pXpXpXpXpXpXpXpXpXpXpXpXpXpXpXpXpXpXpXpXpXpXpXpXpXZ         + m.X.  $.q..         Y pXpXpXpXpXpXpXpXpXpXpXpXpXpXpXpXpXpXpXpXpXpXpXpXpX^.",
"^.pXpXpXpXpXpXpXpXpXpXpXpXpXpXpXpXpXpXpXpXpXpXpXpXpX,XL .   7 K.pXe   g pXl.,   . E 3XpXpXpXpXpXpXpXpXpXpXpXpXpXpXpXpXpXpXpXpXpXpXpXpXpX^.",
"^.pXpXpXpXpXpXpXpXpXpXpXpXpXpXpXpXpXpXpXpXpXpXpXpXpXpXpX5X{.eXpX_.      XXpXqX{.7XpXpXpXpXpXpXpXpXpXpXpXpXpXpXpXpXpXpXpXpXpXpXpXpXpXpXpX^.",
"^.pXpXpXpXpXpXpXpXpXpXpXpXpXpXpXpXpXpXpXpXpXpXpXpXpXpXpXpXpXpXpX..      $.pXpXpXpXpXpXpXpXpXpXpXpXpXpXpXpXpXpXpXpXpXpXpXpXpXpXpXpXpXpXpX^.",
"^.pXpXpXpXpXpXpXpXpXpXpXpXpXpXpXpXpXpXpXpXpXpXpXpXpXpXpXpXpXpX5X:       4 0XpXpXpXpXpXpXpXpXpXpXpXpXpXpXpXpXpXpXpXpXpXpXpXpXpXpXpXpXpXpX^.",
"^.pXpXpXpXpXpXpXpXpXpXpXpXpXpXpXpXpXpXpXpXpXpXpXpXpXpXpXpXpXpXR.#.#.#.#.#./.pXpXpXpXpXpXpXpXpXpXpXpXpXpXpXpXpXpXpXpXpXpXpXpXpXpXpXpXpXpX^.",
"^.pXpXpXpXpXpXpXpXpXpXpXpXpXpXpXpXpXpXpXpXpXpXpXpXpXpXpXpXpXpXpXpXpXpXpXpXpXpXpXpXpXpXpXpXpXpXpXpXpXpXpXpXpXpXpXpXpXpXpXpXpXpXpXpXpXpXpX^.",
"^.pXpXpXpXpXpXpXpXpXpXpXpXpXpXpXpXpXpXpXpXpXpXpXpXpXpXpXpXpXpXpXpXpXpXpXpXpXpXpXpXpXpXpXpXpXpXpXpXpXpXpXpXpXpXpXpXpXpXpXpXpXpXpXpXpXpXpX^.",
"^.pXpXpXpXpXpXpXpXpXpXpXpXpXpXpXpXpXpXpXpXpXpXpXpXpXpXpXpXpXpXpXpXpXpXpXpXpXpXpXpXpXpXpXpXpXpXpXpXpXpXpXpXpXpXpXpXpXpXpXpXpXpXpXpXpXpXpX^.",
"^.pXpXpXpXpXpXpXpXpXpXpXpXpXpXpXpXpXpXpXpXpXpXpXpXpXpXpXpXpXpXpXpXpXpXpXpXpXpXpXpXpXpXpXpXpXpXpXpXpXpXpXpXpXpXpXpXpXpXpXpXpXpXpXpXpXpXpX^.",
"^.pXpXpXpXpXpXpXpXpXpXpXpXpXpXpXpXpXpXpXpXpXpXpXpXpXpXpXpXpXpXpXpXpXpXpXpXpXpXpXpXpXpXpXpXpXpXpXpXpXpXpXpXpXpXpXpXpXpXpXpXpXpXpXpXpXpXpX^.",
"^.pXpXpXpXpXpXpXpXpXpXpXpXpXpXpXpXpXpXpXpXpXpXpXpXpXpXpXpXpXpXpXpXpXpXpXpXpXpXpXpXpXpXpXpXpXpXpXpXpXpXpXpXpXpXpXpXpXpXpXpXpXpXpXpXpXpXpX^.",
"^.pXpXpXpXpXpXpXpXpXpXpXpXpXpXpXpXpXpXpXpXpXpXpXpXpXpXpXpXpXpXpXpXpXpXpXpXpXpXpXpXpXpXpXpXpXpXpXpXpXpXpXpXpXpXpXpXpXpXpXpXpXpXpXpXpXpXpX^.",
"^.pXpXpXpXpXpXpXpXpXpXpXpXpXpXpXpXpXpXpXpXpXpXpXpXpXpXpXpXpXpXpXpXpXpXpXpXpXpXpXpXpXpXpXpXpXpXpXpXpXpXpXpXpXpXpXpXpXpXpXpXpXpXpXpXpXpXpX^.",
"^.pXpXpXpXpXpXpXpXpXpXpXpXpXpXpXpXpXpXpXpXpXpXpXpXpXpXpXpXpXpXpXpXpXpXpXpXpXpXpXpXpXpXpXpXpXpXpXpXpXpXpXpXpXpXpXpXpXpXpXpXpXpXpXpXpXpXpX^.",
"^.pXpXpXpXpXpXpXpXpXpXpXpXpXpXpXpXpXpXpXd.{ { { { | 1XpXpXpXpXpXpXpXpXpXpXpXpXpXpXpXM.{ { { { { ].pXpXpXpXpXpXpXpXpXpXpXpXpXpXpXpXpXpXpX^.",
"^.pXpXpXpXpXpXpXpXpXpXpXpXpXpXpXpXpXpXpX`.        T pXpXpXpXpXpXpXpXpXpXpXpXpXpXpXpX;X#       d uXpXpXpXpXpXpXpXpXpXpXpXpXpXpXpXpXpXpXpX^.",
"^.pXpXpXpXpXpXpXpXpXpXpXpXpXpXpXpXpXpXpXpXn       G.pXpXpXpXpXpXpXpXpXpXpXpXpXpXpXpXpXQ       9.pXpXpXpXpXpXpXpXpXpXpXpXpXpXpXpXpXpXpXpX^.",
"^.pXpXpXpXpXpXpXpXpXpXpXpXpXpXpXtX'.Y.qXpXu.    w iXpX@XI.>XpXpXpXpXpXpXpXpXpX*X).0XpXH.    @ 1XpX4X/.2XpXpXpXpXpXpXpXpXpXpXpXpXpXpXpXpX^.",
"^.pXpXpXpXpXpXpXpXpXpXpXpXpXpXP.9     7 T.:XX   o.yX+.X   X ' rXpXpXpXpXpX+Xb     3 A.tX>   Z pXi.*   X Q 7XpXpXpXpXpXpXpXpXpXpXpXpXpXpX^.",
"^.pXpXpXpXpXpXpXpXpXpXpXpXpX,X:         # P.v   A.~           -.pXpXpXpXyXf         o c.Q   8.6.          ` pXpXpXpXpXpXpXpXpXpXpXpXpXpX^.",
"^.pXpXpXpXpXpXpXpXpXpXpXpXpXp.            3 S   ]             e pXpXpXpXE.            = !   ..X           # qXpXpXpXpXpXR.x.x.W.pXpXpXpX^.",
"^.pXpXpXpXpXpXpXpXpXpXpXpXpX5.                                * pXpXpXpXm.              .   .               *XpXpXpXpXpXm.    Z.pXpXpXpX^.",
"^.pXpXpXpXpXpXpXpXpXpXpXpXpXS.                                m pXpXpXpX.X                                < uXpXpXtXx.z.0X3 9 wXl.b.yXpX^.",
"^.pXpXpXpXpXpXpXpXpXpXpXpXpX9X>                               3.pXpXpXpXpXi                               ( pXpXpX/     A ~ ` D     { pX^.",
"^.pXpXpXpXpXpXpXpXpXpXpXpXpXpX3.                            2 6XpXpXpXpXpXj.                            o |.pXpXpX>       > ,       5 pX^.",
"^.pXpXpXpXpXpXpXpXpXpXpXpXpXpX9Xr                           y.pXpXpXpXpXpXuXc                           o.pXpXpXpXl                 m pX^.",
"^.pXpXpXpXpXpXpXpXpXpXpXpXpXpXpXR.o                       A iXpXpXpXpXpXpXpX|.%                       r 7XpXpXpXpXh.                v.pX^.",
"^.pXpXpXpXpXpXpXpXpXpXpXpXpXpXpXpX#.                    3 *XpXpXpXpXpXpXpXpXpX0.                    + E.pXpXpXpXpXiXL             Y pXpX^.",
"^.pXpXpXpXpXpXpXpXpXpXpXpXpXpXpXpXyXA                 X D.pXpXpXpXpXpXpXpXpXpXpX/                   7.pXpXpXpXpXpXpX>X6         9 <XpXpX^.",
"^.pXpXpXpXpXpXpXpXpXpXpXpXpXpXpXpXpX-X8               <.pXpXpXpXpXpXpXpXpXpXpXpX7Xd               E iXpXpXpXpXpXpXpXpXP.+     @ E.pXpXpX^.",
"^.pXpXpXpXpXpXpXpXpXpXpXpXpXpXpXpXpXpX(.%           U iXpXpXpXpXpXpXpXpXpXpXpXpXpX@X<           j 8XpXpXpXpXpXpXpXpXpXpX0.    y.pXpXpXpX^.",
"^.pXpXpXpXpXpXpXpXpXpXpXpXpXpXpXpXpXpXpXf.        s 5XpXpXpXpXpXpXpXpXpXpXpXpXpXpXpXF.o       , OXpXpXpXpXpXpXpXpXpXpXpXpX^ ] pXpXpXpXpX^.",
"^.pXpXpXpXpXpXpXpXpXpXpXpXpXpXpXpXpXpXpXpXO.    , OXpXpXpXpXpXpXpXpXpXpXpXpXpXpXpXpXpX2.    o A.pXpXpXpXpXpXpXpXpXpXpXpXpX>X2XpXpXpXpXpX^.",
"^.pXpXpXpXpXpXpXpXpXpXpXpXpXpXpXpXpXpXpXpXtXb   M.pXpXpXpXpXpXpXpXpXpXpXpXpXpXpXpXpXpXiXL   ,.pXpXpXpXpXpXpXpXpXpXpXpXpXpXpXpXpXpXpXpXpX^.",
"^.pXpXpXpXpXpXpXpXpXpXpXpXpXpXpXpXpXpXpXpXpX|.) pXpXpXpXpXpXpXpXpXpXpXpXpXpXpXpXpXpXpXpX>XB yXpXpXpXpXpXpXpXpXpXpXpXpXpX8.u : s j.pXpXpX^.",
"^.pXpXpXpXpXpXpXpXpXpXpXpXpXpXpXpXpXpXpXpXpXpX7XpXpXpXpXpXpXpXpXpXpXpXpXpXpXpXpXpXpXpXpXpX2XpXpXpXpXpXpXpXpXpXpXpXpXpXg.4 `.pXL.% ^.pXpX^.",
"^.pXpXpXpXpXpXpXpXpXpXpXpXpXpXpXpXpXpXpXpXpXpXpXpXpXpXpXpXpXpXpXpXpXpXpXpXpXpXpXpXpXpXpXpXpXpXpXpXpXpXpXpXpXpXpXpXpXpXI *.pXpXpX!.:XpXpX^.",
"^.pXpXpXpXpXpXpXpXpXpXpXpXpXpXpXpXpXpXpXpXpXpXpXpXpXpXpXpXpXpXpXpXpXpXpXpXpXpXpXpXpXpXpXpXpXpXpXpXpXpXpXpXpXpXpXpXpXpXG :.pXpXpXpXpXpXpX^.",
"^.pXpXpXpXpXpXpXpXpXpXpXpXpXpXpXpXpXpXpXpXpXpXpXpXpXpXpXpXpXpXpXpXpXpXpXpXpXpXpXpXpXpXpXpXpXpXpXpXpXpXpXpXpXpXpXpXpXpXr.7 ).tXD._ &XpXpX^.",
"^.pXpXpXpXpXpXpXpXpXpXpXpXpXpXpXpXpXpXpXpXpXpXpXpXpXpXpXpXpXpXpXpXpXpXpXpXpXpXpXpXpXpXpXpXpXpXpXpXpXpXpXpXpXpXpXpXpXpXiX<.r 3 W   @XpXpX^.",
"^.pXpXpXpXpXpXpXpXpXpXpXpXpXpXpXpXpXpXpXpXpXpXpXpXpXpXpXpXpXpXpXpXpXpXpXpXpXpXpXpXpXpXpXpXpXpXpXpXpXpXpXpXpXpXpXpXpXpXpXpXpXpX4X  3XpXpX^.",
"^.pXpXpXpXpXpXpXpXpXpXpXpXpXpXpXpXpXpXpXpXpXpXpXpXpXpXpXpXpXpXpXpXpXpXpXpXpXpXpXpXpXpXpXpXpXpXpXpXpXpXpXpXpXpXpXpXpXpXpXpXpXpX$X. uXpXpX^.",
"^.pXpXpXpXpXpXpXpXpXpXpXpXpXpXpXpXpXpXpXpXpXpXpXpXpXpXpXpXpXpXpXpXpXpXpXpXpXpXpXpXpXpXpXpXpXpXpXpXpXpXpXpXpXpXpXpXpXpXI.# # # @ : pXpXpX^.",
"Y.iXpXpXpXpXpXpXpXpXpXpXpXpXpXpXpXpXpXpXpXpXpXpXpXpXpXpXpXpXpXpXpXpXpXpXpXpXpXpXpXpXpXpXpXpXpXpXpXpXpXpXpXpXpXpXpXpXpXpXpXpXpXpXpXpXpXiXT.",
"rXU.^./././././././././././././././././././././././././././././././././././././././././././././././././././././././././././././././.^.U.rX"
};
