/* XPM */
static const char *five_clubs[] = {
/* columns rows colors chars-per-pixel */
"69 100 235 2 ",
"   c black",
".  c #010101",
"X  c #020202",
"o  c gray1",
"O  c #040404",
"+  c gray2",
"@  c #060606",
"#  c #070707",
"$  c gray3",
"%  c #090909",
"&  c gray4",
"*  c #0B0B0B",
"=  c #0C0C0C",
"-  c gray5",
";  c #0E0E0E",
":  c gray6",
">  c #101010",
",  c #111111",
"<  c gray7",
"1  c #131313",
"2  c gray8",
"3  c #151515",
"4  c #161616",
"5  c gray9",
"6  c #181818",
"7  c #191919",
"8  c gray10",
"9  c gray11",
"0  c #1D1D1D",
"q  c #1E1E1E",
"w  c gray12",
"e  c #202020",
"r  c #222222",
"t  c #232323",
"y  c gray14",
"u  c #252525",
"i  c gray15",
"p  c #272727",
"a  c #282828",
"s  c gray16",
"d  c #2A2A2A",
"f  c gray17",
"g  c #2C2C2C",
"h  c #2D2D2D",
"j  c gray18",
"k  c #2F2F2F",
"l  c gray19",
"z  c #313131",
"x  c #323232",
"c  c #343434",
"v  c #353535",
"b  c gray21",
"n  c #373737",
"m  c gray22",
"M  c #393939",
"N  c #3A3A3A",
"B  c gray23",
"V  c gray24",
"C  c #3E3E3E",
"Z  c #3F3F3F",
"A  c gray25",
"S  c #414141",
"D  c gray26",
"F  c #434343",
"G  c #444444",
"H  c gray27",
"J  c #464646",
"K  c gray28",
"L  c #484848",
"P  c #494949",
"I  c gray29",
"U  c #4B4B4B",
"Y  c gray30",
"T  c #4E4E4E",
"R  c #505050",
"E  c #515151",
"W  c gray32",
"Q  c #535353",
"!  c gray33",
"~  c #555555",
"^  c #565656",
"/  c gray34",
"(  c #585858",
")  c gray35",
"_  c #5B5B5B",
"`  c gray36",
"'  c #5D5D5D",
"]  c #5F5F5F",
"[  c #606060",
"{  c #626262",
"}  c gray39",
"|  c #646464",
" . c #656565",
".. c gray40",
"X. c #676767",
"o. c #686868",
"O. c DimGray",
"+. c #6A6A6A",
"@. c #6C6C6C",
"#. c #6D6D6D",
"$. c gray43",
"%. c #6F6F6F",
"&. c gray44",
"*. c #717171",
"=. c #727272",
"-. c gray45",
";. c #747474",
":. c gray46",
">. c #767676",
",. c #777777",
"<. c gray47",
"1. c #797979",
"2. c gray48",
"3. c #7C7C7C",
"4. c gray49",
"5. c #7E7E7E",
"6. c gray50",
"7. c #808080",
"8. c #818181",
"9. c gray51",
"0. c #838383",
"q. c #848484",
"w. c gray52",
"e. c #868686",
"r. c #888888",
"t. c #898989",
"y. c gray54",
"u. c #8B8B8B",
"i. c gray55",
"p. c #8D8D8D",
"a. c #8E8E8E",
"s. c gray56",
"d. c #909090",
"f. c gray57",
"g. c #929292",
"h. c #939393",
"j. c gray58",
"k. c #959595",
"l. c #979797",
"z. c #989898",
"x. c gray60",
"c. c #9A9A9A",
"v. c #9B9B9B",
"b. c #9D9D9D",
"n. c gray62",
"m. c #9F9F9F",
"M. c #A0A0A0",
"N. c gray63",
"B. c #A2A2A2",
"V. c gray64",
"C. c #A4A4A4",
"Z. c #A5A5A5",
"A. c gray65",
"S. c #A7A7A7",
"D. c #A9A9A9",
"F. c #AAAAAA",
"G. c gray67",
"H. c gray68",
"J. c #AEAEAE",
"K. c #AFAFAF",
"L. c gray69",
"P. c #B1B1B1",
"I. c #B2B2B2",
"U. c #B4B4B4",
"Y. c gray71",
"T. c #B6B6B6",
"R. c #B7B7B7",
"E. c #B9B9B9",
"W. c gray73",
"Q. c #BBBBBB",
"!. c #BCBCBC",
"~. c gray74",
"^. c gray",
"/. c gray75",
"(. c #C0C0C0",
"). c #C1C1C1",
"_. c gray76",
"`. c #C3C3C3",
"'. c gray77",
"]. c #C5C5C5",
"[. c #C6C6C6",
"{. c gray78",
"}. c #C8C8C8",
"|. c gray79",
" X c #CACACA",
".X c #CBCBCB",
"XX c gray80",
"oX c #CDCDCD",
"OX c #CECECE",
"+X c gray81",
"@X c #D0D0D0",
"#X c gray82",
"$X c LightGray",
"%X c gray83",
"&X c #D5D5D5",
"*X c #D7D7D7",
"=X c #D8D8D8",
"-X c gray85",
";X c #DADADA",
":X c gray86",
">X c gainsboro",
",X c #DDDDDD",
"<X c gray87",
"1X c #DFDFDF",
"2X c gray88",
"3X c #E1E1E1",
"4X c #E2E2E2",
"5X c gray89",
"6X c gray90",
"7X c #E6E6E6",
"8X c #E7E7E7",
"9X c gray91",
"0X c #E9E9E9",
"qX c #EAEAEA",
"wX c gray92",
"eX c #ECECEC",
"rX c gray93",
"tX c #EEEEEE",
"yX c #EFEFEF",
"uX c gray94",
"iX c #F1F1F1",
"pX c gray95",
"aX c #F3F3F3",
"sX c #F4F4F4",
"dX c gray96",
"fX c #F6F6F6",
"gX c gray97",
"hX c #F8F8F8",
"jX c #F9F9F9",
"kX c gray98",
"lX c #FBFBFB",
"zX c gray99",
"xX c #FDFDFD",
"cX c #FEFEFE",
"vX c white",
/* pixels */
"kX_..XXXXXXXXXXXXXXXXXXXXXXXXXXXXXXXXXXXXXXXXXXXXXXXXXXXXXXXXXXXXXXXXXXXXXXXXXXXXXXXXXXXXXXXXXXXXXXXXXXXXXXXXXXXXXXXXXXXXXXXXXXXXXXX.X_.kX",
"`.cXvXvXvXvXvXvXvXvXvXvXvXvXvXvXvXvXvXvXvXvXvXvXvXvXvXvXvXvXvXvXvXvXvXvXvXvXvXvXvXvXvXvXvXvXvXvXvXvXvXvXvXvXvXvXvXvXvXvXvXvXvXvXvXvXvXcX'.",
".XvXvXvX; @ # # # ).vXvXvXvXvXvXvXvXvXvXvXvXvXvXvXvXvXvXvXvXvXvXvXvXvXvXvXvXvXvXvXvXvXvXvXvXvXvXvXvXvXvXvXvXvXvXvXvXvXvXvXvXvXvXvXvXvXvX.X",
".XvXvXxX. 3XvXvXvXvXvXvXvXvXvXvXvXvXvXvXvXvXvXvXvXvXvXvXvXvXvXvXvXvXvXvXvXvXvXvXvXvXvXvXvXvXvXvXvXvXvXvXvXvXvXvXvXvXvXvXvXvXvXvXvXvXvXvX.X",
".XvXvXtX  iXvXvXvXvXvXvXvXvXvXvXvXvXvXvXvXvXvXvXvXvXvXvXvXvXvXvXvXvXvXvXvXvXvXvXvXvXvXvXvXvXvXvXvXvXvXvXvXvXvXvXvXvXvXvXvXvXvXvXvXvXvXvX.X",
".XvXvX,X  ( 5 t q.cXvXvXvXvXvXvXvXvXvXvXvXvXvXvXvXvXvXvXvXvXvXvXvXvXvXvXvXvXvXvXvXvXvXvXvXvXvXvXvXvXvXvXvXvXvXvXvXvXvXvXvXvXvXvXvXvXvXvX.X",
".XvXvX4X[ T.kXXX7 l.vXvXvXvXvXvXvXvXvXvXvXvXvXvXvXvXvXvXvXvXvXvXvXvXvXvXvXvXvXvXvXvXvXvXvXvXvXvXvXvXvXvXvXvXvXvXvXvXvXvXvXvXvXvXvXvXvXvX.X",
".XvXvXvXvXvXvXvX7.I vXvXvXvXvXvXvXvXvXvXvXvXvXvXvXvXvXvXvXvXvXvXvXvXvXvXvXvXvXvXvXvXvXvXvXvXvXvXvXvXvXvXvXvXvXvXvXvXvXvXvXvXvXvXvXvXvXvX.X",
".XvXvX0X XvXvXvX3.W vXvXvXvXvXvXvXvXvXvXvXvXvXvXvXvXvXvXvXvXvXvXvXvXvXvXvXvXvXvXvXvXvXvXvXvXvXvXvXvXvXvXvXvXvXvXvXvXvXvXvXvXvXvXvXvXvXvX.X",
".XvXvX.X% /.vX$X6 Z.vXvXvXvXvXvXvXvXvXvXvXvXvXvXvXvXvXvXvXvXvXvXvXvXvXvXvXvXvXvXvXvXvXvXvXvXvXvXvXvXvXvXvXvXvXvXvXvXvXvXvXvXvXvXvXvXvXvX.X",
".XvXvXvXC.a : u g.vXvXvXvXvXvXvXvXvXvXvXvXvXvXvXvXvXvXvXvXvXvXvXvXvXvXvXvXvXvXvXvXvXvXvXvXvXvXvXvXvXvXvXvXvXvXvXvXvXvXvXvXvXvXvXvXvXvXvX.X",
".XvXvXvXvXvXvXvXvXvXvXvXvXvXvXvXvXvXvXvXvXvXvXvXvXvXvXvXvXvXvXvXvXvXvXvXvXvXvXvXvXvXvXvXvXvXvXvXvXvXvXvXvXvXvXvXvXvXvXvXvXvXvXvXvXvXvXvX.X",
".XvXvXvXvXvX6XXXhXvXvXvXvXvXvXvXvXvXvXvXvXvXvXvXvXvXvXvXvXvXvXvXvXvXvXvXvXvXvXvXvXvXvXvXvXvXvXvXvXvXvXvXvXvXvXvXvXvXvXvXvXvXvXvXvXvXvXvX.X",
".XvXvXvXcX{     4 `.vXvXvXvXvXvXvXvXvXvXvXzXdXvXvXvXvXvXvXvXvXvXvXvXvXvXvXvXvXvXvXvXvXvXvXlXfXvXvXvXvXvXvXvXvXvXvXvXvXvXvXvXvXvXvXvXvXvX.X",
".XvXvXvXJ.        i vXvXvXvXvXvXvXvXvXE.B o   8 2.dXvXvXvXvXvXvXvXvXvXvXvXvXvXvXvXvXvXL.b X   q 9.hXvXvXvXvXvXvXvXvXvXvXvXvXvXvXvXvXvXvX.X",
".XvXvXvXa.        # zXvXvXvXvXvXvXvXM.X           B hXvXvXvXvXvXvXvXvXvXvXvXvXvXvXvXh.            J zXvXvXvXvXvXvXvXvXvXvXvXvXvXvXvXvXvX.X",
".XvXvXvX@X.       P vXvXvXvXvXvXvXqX*               r.vXvXvXvXvXvXvXvXvXvXvXvXvXvX2X@               l.vXvXvXvXvXvXvXvXvXvXvXvXvXvXvXvXvX.X",
".XvXrXa.4.A     * *.2.E.vXvXvXvXvXS.                M vXvXvXvXvXvXvXvXvXvXvXvXvXvXl.                L vXvXvXvXvXvXvXvXvXvXvXvXvXvXvXvXvX.X",
".XqX0                   8.vXvXvXvXs.                e vXvXvXvXvXvXvXvXvXvXvXvXvXvX6.                k vXvXvXvXvXvXvXvXvXvXvXvXvXvXvXvXvX.X",
".Xp.                    & zXvXvXvXQ.                Y vXvXvXvXvXvXvXvXvXvXvXvXvXvXG.                ` vXvXvXvXvXvXvXvXvXvXvXvXvXvXvXvXvX.X",
".Xw.        # @         + hXvXvXvXlXf               E.vXvXvXvXvXvXvXvXvXvXvXvXvXvXgXe             . {.vXvXvXvXvXvXvXvXvXvXvXvXvXvXvXvXvX.X",
".X>X%     . 4.L b       ' vXvXvXpXpX^.o           Q jXtXzXvXvXvXvXvXvXvXvXvXvXvXiXaXL..           { hXtXxXvXvXvXvXvXvXvXvXvXvXvXvXvXvXvX.X",
".XvX.X) K I.H.i pX$.F 8.hXcXN.h     u x         ; S $   , X.9XvXvXvXvXvXvXxXz.a     d h         < Z @   3 $.rXvXvXvXvXvXvXvXvXvXvXvXvXvX.X",
".XvXvXvXvXvXR   |.vXvXvXvX,.                                t 7XvXvXvXvXvXo.                                g rXvXvXvXvXvXvXvXvXvXvXvXvX.X",
".XvXvXvXvXrXx.x.R.vXvXvX%XX                                   ..vXvXvXvX[.                                    >.vXvXvXvXvXvXvXvXvXvXvXvX.X",
".XvXvXvXvXvXvXvXvXvXvXvX0.                                    4 vXvXvXvX;.                                    i vXvXvXvXvXvXvXvXvXvXvXvX.X",
".XvXvXvXvXvXvXvXvXvXvXvXo.                                      hXvXvXvX)                                     % vXvXvXvXvXvXvXvXvXvXvXvX.X",
".XvXvXvXvXvXvXvXvXvXvXvXr.                q < =               8 vXvXvXvX1.                q 6 @               d vXvXvXvXvXvXvXvXvXvXvXvX.X",
".XvXvXvXvXvXvXvXvXvXvXvX5X%             g 8.8 g.              6.vXvXvXvX=X+             n >.d 0.              s.vXvXvXvXvXvXvXvXvXvXvXvX.X",
".XvXvXvXvXvXvXvXvXvXvXvXvXB.o         9 -X-.# zX|           Z hXvXvXvXvXvXk..         t 2X| 3 lX/           U zXvXvXvXvXvXvXvXvXvXvXvXvX.X",
".XvXvXvXvXvXvXvXvXvXvXvXvXvX].E w g -.wXvXS   %XvXD.D 0 v i.jXvXvXvXvXvXvXvX~.Y q j 1.uXvXx   5XcXM.C 0 m h.lXvXvXvXvXvXvXvXvXvXvXvXvXvX.X",
".XvXvXvXvXvXvXvXvXvXvXvXvXvXvXvXvXvXvXvX9XO   7.vXvXvXvXvXvXvXvXvXvXvXvXvXvXvXvXvXvXvXvX>X.   s.vXvXvXvXvXvXvXvXvXvXvXvXvXvXvXvXvXvXvXvX.X",
".XvXvXvXvXvXvXvXvXvXvXvXvXvXvXvXvXvXvXvXo.    , qXvXvXvXvXvXvXvXvXvXvXvXvXvXvXvXvXvXvXvX)     8 uXvXvXvXvXvXvXvXvXvXvXvXvXvXvXvXvXvXvXvX.X",
".XvXvXvXvXvXvXvXvXvXvXvXvXvXvXvXvXvXvX1X........n.vXvXvXvXvXvXvXvXvXvXvXvXvXvXvXvXvXvX*X........S.vXvXvXvXvXvXvXvXvXvXvXvXvXvXvXvXvXvXvX.X",
".XvXvXvXvXvXvXvXvXvXvXvXvXvXvXvXvXvXvXvXvXvXvXvXvXvXvXvXvXvXvXvXvXvXvXvXvXvXvXvXvXvXvXvXvXvXvXvXvXvXvXvXvXvXvXvXvXvXvXvXvXvXvXvXvXvXvXvX.X",
".XvXvXvXvXvXvXvXvXvXvXvXvXvXvXvXvXvXvXvXvXvXvXvXvXvXvXvXvXvXvXvXvXvXvXvXvXvXvXvXvXvXvXvXvXvXvXvXvXvXvXvXvXvXvXvXvXvXvXvXvXvXvXvXvXvXvXvX.X",
".XvXvXvXvXvXvXvXvXvXvXvXvXvXvXvXvXvXvXvXvXvXvXvXvXvXvXvXvXvXvXvXvXvXvXvXvXvXvXvXvXvXvXvXvXvXvXvXvXvXvXvXvXvXvXvXvXvXvXvXvXvXvXvXvXvXvXvX.X",
".XvXvXvXvXvXvXvXvXvXvXvXvXvXvXvXvXvXvXvXvXvXvXvXvXvXvXvXvXvXvXvXvXvXvXvXvXvXvXvXvXvXvXvXvXvXvXvXvXvXvXvXvXvXvXvXvXvXvXvXvXvXvXvXvXvXvXvX.X",
".XvXvXvXvXvXvXvXvXvXvXvXvXvXvXvXvXvXvXvXvXvXvXvXvXvXvXvXvXvXvXvXvXvXvXvXvXvXvXvXvXvXvXvXvXvXvXvXvXvXvXvXvXvXvXvXvXvXvXvXvXvXvXvXvXvXvXvX.X",
".XvXvXvXvXvXvXvXvXvXvXvXvXvXvXvXvXvXvXvXvXvXvXvXvXvXvXvXvXvXvXvXvXvXvXvXvXvXvXvXvXvXvXvXvXvXvXvXvXvXvXvXvXvXvXvXvXvXvXvXvXvXvXvXvXvXvXvX.X",
".XvXvXvXvXvXvXvXvXvXvXvXvXvXvXvXvXvXvXvXvXvXvXvXvXvXvXvXvXvXvXW.J 1 ; N N.cXvXvXvXvXvXvXvXvXvXvXvXvXvXvXvXvXvXvXvXvXvXvXvXvXvXvXvXvXvXvX.X",
".XvXvXvXvXvXvXvXvXvXvXvXvXvXvXvXvXvXvXvXvXvXvXvXvXvXvXvXvXvXj..           O.vXvXvXvXvXvXvXvXvXvXvXvXvXvXvXvXvXvXvXvXvXvXvXvXvXvXvXvXvXvX.X",
".XvXvXvXvXvXvXvXvXvXvXvXvXvXvXvXvXvXvXvXvXvXvXvXvXvXvXvXvX;X+               U.vXvXvXvXvXvXvXvXvXvXvXvXvXvXvXvXvXvXvXvXvXvXvXvXvXvXvXvXvX.X",
".XvXvXvXvXvXvXvXvXvXvXvXvXvXvXvXvXvXvXvXvXvXvXvXvXvXvXvXvXy.                ] vXvXvXvXvXvXvXvXvXvXvXvXvXvXvXvXvXvXvXvXvXvXvXvXvXvXvXvXvX.X",
".XvXvXvXvXvXvXvXvXvXvXvXvXvXvXvXvXvXvXvXvXvXvXvXvXvXvXvXvX$.                A vXvXvXvXvXvXvXvXvXvXvXvXvXvXvXvXvXvXvXvXvXvXvXvXvXvXvXvXvX.X",
".XvXvXvXvXvXvXvXvXvXvXvXvXvXvXvXvXvXvXvXvXvXvXvXvXvXvXvXvXj.                o.vXvXvXvXvXvXvXvXvXvXvXvXvXvXvXvXvXvXvXvXvXvXvXvXvXvXvXvXvX.X",
".XvXvXvXvXvXvXvXvXvXvXvXvXvXvXvXvXvXvXvXvXvXvXvXvXvXvXvXvXwX:             X oXvXvXvXvXvXvXvXvXvXvXvXvXvXvXvXvXvXvXvXvXvXvXvXvXvXvXvXvXvX.X",
".XvXvXvXvXvXvXvXvXvXvXvXvXvXvXvXvXvXvXvXvXvXvXvXvXvXvXvXvXvXf.             .vXvXvXvXvXvXvXvXvXvXvXvXvXvXvXvXvXvXvXvXvXvXvXvXvXvXvXvXvXvX.X",
".XvXvXvXvXvXvXvXvXvXvXvXvXvXvXvXvXvXvXvXvXvXvXvXvXcXC.M O & H i         5 T , . h p.jXvXvXvXvXvXvXvXvXvXvXvXvXvXvXvXvXvXvXvXvXvXvXvXvXvX.X",
".XvXvXvXvXvXvXvXvXvXvXvXvXvXvXvXvXvXvXvXvXvXvXvXvXO.                                H hXvXvXvXvXvXvXvXvXvXvXvXvXvXvXvXvXvXvXvXvXvXvXvXvX.X",
".XvXvXvXvXvXvXvXvXvXvXvXvXvXvXvXvXvXvXvXvXvXvXvX!.                                    f.vXvXvXvXvXvXvXvXvXvXvXvXvXvXvXvXvXvXvXvXvXvXvXvX.X",
".XvXvXvXvXvXvXvXvXvXvXvXvXvXvXvXvXvXvXvXvXvXvXvX..                                    M vXvXvXvXvXvXvXvXvXvXvXvXvXvXvXvXvXvXvXvXvXvXvXvX.X",
".XvXvXvXvXvXvXvXvXvXvXvXvXvXvXvXvXvXvXvXvXvXvXvXL                                     8 vXvXvXvXvXvXvXvXvXvXvXvXvXvXvXvXvXvXvXvXvXvXvXvX.X",
".XvXvXvXvXvXvXvXvXvXvXvXvXvXvXvXvXvXvXvXvXvXvXvX{                 4 4                 b vXvXvXvXvXvXvXvXvXvXvXvXvXvXvXvXvXvXvXvXvXvXvXvX.X",
".XvXvXvXvXvXvXvXvXvXvXvXvXvXvXvXvXvXvXvXvXvXvXvX/.              N ..V }               j.vXvXvXvXvXvXvXvXvXvXvXvXvXvXvXvXvXvXvXvXvXvXvXvX.X",
".XvXvXvXvXvXvXvXvXvXvXvXvXvXvXvXvXvXvXvXvXvXvXvXvX&.          w 2X~ a pXm           L zXvXvXvXvXvXvXvXvXvXvXvXvXvXvXvXvXvXvXvXvXvXvXvXvX.X",
".XvXvXvXvXvXvXvXvXvXvXvXvXvXvXvXvXvXvXvXvXvXvXvXvXvXn.z # 9 @.eXvXi + dXgX8.t # u e.jXvXvXvXvXvXvXvXvXvXvXvXvXvXvXvXvXvXvXvXvXvXvXvXvXvX.X",
".XvXvXvXvXvXvXvXvXvXvXvXvXvXvXvXvXvXvXvXvXvXvXvXvXvXvXvXvXvXvXvX&X    D.vXvXvXvXvXvXvXvXvXvXvXvXvXvXvXvXvXvXvXvXvXvXvXvXvXvXvXvXvXvXvXvX.X",
".XvXvXvXvXvXvXvXvXvXvXvXvXvXvXvXvXvXvXvXvXvXvXvXvXvXvXvXvXvXvXvX^     k lXvXvXvXvXvXvXvXvXvXvXvXvXvXvXvXvXvXvXvXvXvXvXvXvXvXvXvXvXvXvXvX.X",
".XvXvXvXvXvXvXvXvXvXvXvXvXvXvXvXvXvXvXvXvXvXvXvXvXvXvXvXvXvXvXOX~ ~ ~ ~ L.vXvXvXvXvXvXvXvXvXvXvXvXvXvXvXvXvXvXvXvXvXvXvXvXvXvXvXvXvXvXvX.X",
".XvXvXvXvXvXvXvXvXvXvXvXvXvXvXvXvXvXvXvXvXvXvXvXvXvXvXvXvXvXvXvXvXvXvXvXvXvXvXvXvXvXvXvXvXvXvXvXvXvXvXvXvXvXvXvXvXvXvXvXvXvXvXvXvXvXvXvX.X",
".XvXvXvXvXvXvXvXvXvXvXvXvXvXvXvXvXvXvXvXvXvXvXvXvXvXvXvXvXvXvXvXvXvXvXvXvXvXvXvXvXvXvXvXvXvXvXvXvXvXvXvXvXvXvXvXvXvXvXvXvXvXvXvXvXvXvXvX.X",
".XvXvXvXvXvXvXvXvXvXvXvXvXvXvXvXvXvXvXvXvXvXvXvXvXvXvXvXvXvXvXvXvXvXvXvXvXvXvXvXvXvXvXvXvXvXvXvXvXvXvXvXvXvXvXvXvXvXvXvXvXvXvXvXvXvXvXvX.X",
".XvXvXvXvXvXvXvXvXvXvXvXvXvXvXvXvXvXvXvXvXvXvXvXvXvXvXvXvXvXvXvXvXvXvXvXvXvXvXvXvXvXvXvXvXvXvXvXvXvXvXvXvXvXvXvXvXvXvXvXvXvXvXvXvXvXvXvX.X",
".XvXvXvXvXvXvXvXvXvXvXvXvXvXvXvXvXvXvXvXvXvXvXvXvXvXvXvXvXvXvXvXvXvXvXvXvXvXvXvXvXvXvXvXvXvXvXvXvXvXvXvXvXvXvXvXvXvXvXvXvXvXvXvXvXvXvXvX.X",
".XvXvXvXvXvXvXvXvXvXvXvXvXvXvXvXvXvXvXvXvXvXvXvXvXvXvXvXvXvXvXvXvXvXvXvXvXvXvXvXvXvXvXvXvXvXvXvXvXvXvXvXvXvXvXvXvXvXvXvXvXvXvXvXvXvXvXvX.X",
".XvXvXvXvXvXvXvXvXvXvXvXvXvXvXvXvXvXvXpX,X,X,X,X5XvXvXvXvXvXvXvXvXvXvXvXvXvXvXvXvXvXvXuX,X,X,X,X6XvXvXvXvXvXvXvXvXvXvXvXvXvXvXvXvXvXvXvX.X",
".XvXvXvXvXvXvXvXvXvXvXvXvXvXvXvXvXvXvXiXf       A.vXvXvXvXvXvXvXvXvXvXvXvXvXvXvXvXvXvXwXr     . U.vXvXvXvXvXvXvXvXvXvXvXvXvXvXvXvXvXvXvX.X",
".XvXvXvXvXvXvXvXvXvXvXvXvXvXvXvXvXvXvXvX/.    P vXvXvXvXvXvXvXvXvXvXvXvXvXvXvXvXvXvXvXvXL.    ( vXvXvXvXvXvXvXvXvXvXvXvXvXvXvXvXvXvXvXvX.X",
".XvXvXvXvXvXvXvXvXvXvXvXvXvXcX).d.v.,XvXvXi   L.vXjXP.p.V.eXvXvXvXvXvXvXvXvXxX!.s.b.5XvXxX7   /.vXgXH.i.A.yXvXvXvXvXvXvXvXvXvXvXvXvXvXvX.X",
".XvXvXvXvXvXvXvXvXvXvXvXvX0XV       X =.xXX.  yX}.e       - V.vXvXvXvXvXvX4Xc       O 6.cX/ @ hX/.8       , J.vXvXvXvXvXvXvXvXvXvXvXvXvX.X",
".XvXvXvXvXvXvXvXvXvXvXvXxXm             &.w.; -X;           X ~.vXvXvXvXjXg             7.:.0 +X%           + |.vXvXvXvXvXvXvXvXvXvXvXvX.X",
".XvXvXvXvXvXvXvXvXvXvXvXP.              . ~ 9 N               N vXvXvXvXN.              O W a h               P vXvXvXvXvXvXvXvXvXvXvXvX.X",
".XvXvXvXvXvXvXvXvXvXvXvX=.                . .                 X hXvXvXvX{                 . .                 & vXvXvXvXvXvXvXvXvXvXvXvX.X",
".XvXvXvXvXvXvXvXvXvXvXvX<.                                    + kXvXvXvXo.                                    : vXvXvXvXvXvXvXvXvXvXvXvX.X",
".XvXvXvXvXvXvXvXvXvXvXvXF.                                    c vXvXvXvXc.                                    F vXvXvXvXU.r.r.wXvXvXvXvX.X",
".XvXvXvXvXvXvXvXvXvXvXvXlXf                                 . K.vXvXvXvXfXe                                 X !.vXvXvXvX-XX ! vXvXvXvXvX.X",
".XvXvXvXvXvXvXvXvXvXvXvXvX5Xb         >         = O       = x.vXvXvXvXvXvX:Xj         >         ; X       : C.vXaX%.l ^ 8Xc G.C.c D T.vX.X",
".XvXvXvXvXvXvXvXvXvXvXvXvXvXcX~.u.9.Z.p         . 7.g.q.m.9XvXvXvXvXvXvXvXvXzXE.y.0.V.e         o r.s.w.B.eXvXvX(       y I #.      o oX.X",
".XvXvXvXvXvXvXvXvXvXvXvXvXvXvXvXvXvX+.            = 7XvXvXvXvXvXvXvXvXvXvXvXvXvXvXvX_             < rXvXvXvXvXlX@         O O         2..X",
".XvXvXvXvXvXvXvXvXvXvXvXvXvXvXvXvX3XO               $.vXvXvXvXvXvXvXvXvXvXvXvXvXvX&X.               5.vXvXvXvXvX2                     u..X",
".XvXvXvXvXvXvXvXvXvXvXvXvXvXvXvXvXm.                a vXvXvXvXvXvXvXvXvXvXvXvXvXvXd.                m vXvXvXvXvXx.X     .     .     i rX.X",
".XvXvXvXvXvXvXvXvXvXvXvXvXvXvXvXvXz.                e vXvXvXvXvXvXvXvXvXvXvXvXvXvXt.                l vXvXvXvXvXvX#Xa.9.=     N g.B.sXvX.X",
".XvXvXvXvXvXvXvXvXvXvXvXvXvXvXvXvX+X                ( vXvXvXvXvXvXvXvXvXvXvXvXvXvX(.                o.vXvXvXvXvXvXvXvXP         ).vXvXvX.X",
".XvXvXvXvXvXvXvXvXvXvXvXvXvXvXvXvXvXT             # #XvXvXvXvXvXvXvXvXvXvXvXvXvXvXcXA             = >XvXvXvXvXvXvXvXvX=         0.vXvXvX.X",
".XvXvXvXvXvXvXvXvXvXvXvXvXvXvXvXvXvXpXT         3 Y.vXvXvXvXvXvXvXvXvXvXvXvXvXvXvXvXrXG         8 (.vXvXvXvXvXvXvXvXvXn         K.vXvXvX.X",
".XvXvXvXvXvXvXvXvXvXvXvXvXvXvXvXvXvXvXvXXXd.0.F.pXvXvXvXvXvXvXvXvXvXvXvXvXvXvXvXvXvXvXvX{.s.q.H.dXvXvXvXvXvXvXvXvXvXvX%Xi   X =.vXvXvXvX.X",
".XvXvXvXvXvXvXvXvXvXvXvXvXvXvXvXvXvXvXvXvXvXvXvXvXvXvXvXvXvXvXvXvXvXvXvXvXvXvXvXvXvXvXvXvXvXvXvXvXvXvXvXvXvXvXvXvXvXvXvXxX-XeXvXvXvXvXvX.X",
".XvXvXvXvXvXvXvXvXvXvXvXvXvXvXvXvXvXvXvXvXvXvXvXvXvXvXvXvXvXvXvXvXvXvXvXvXvXvXvXvXvXvXvXvXvXvXvXvXvXvXvXvXvXvXvXvXvXvXvXd.u : s Z.vXvXvX.X",
".XvXvXvXvXvXvXvXvXvXvXvXvXvXvXvXvXvXvXvXvXvXvXvXvXvXvXvXvXvXvXvXvXvXvXvXvXvXvXvXvXvXvXvXvXvXvXvXvXvXvXvXvXvXvXvXvXvXvXV.5 @XvX/.% .XvXvX.X",
".XvXvXvXvXvXvXvXvXvXvXvXvXvXvXvXvXvXvXvXvXvXvXvXvXvXvXvXvXvXvXvXvXvXvXvXvXvXvXvXvXvXvXvXvXvXvXvXvXvXvXvXvXvXvXvXvXvXvXR 3.vXvXvX|.0XvXvX.X",
".XvXvXvXvXvXvXvXvXvXvXvXvXvXvXvXvXvXvXvXvXvXvXvXvXvXvXvXvXvXvXvXvXvXvXvXvXvXvXvXvXvXvXvXvXvXvXvXvXvXvXvXvXvXvXvXvXvXvXP 7.vXvXvXvXvXvXvX.X",
".XvXvXvXvXvXvXvXvXvXvXvXvXvXvXvXvXvXvXvXvXvXvXvXvXvXvXvXvXvXvXvXvXvXvXvXvXvXvXvXvXvXvXvXvXvXvXvXvXvXvXvXvXvXvXvXvXvXvXl.8 OXlXE.[ 4XvXvX.X",
".XvXvXvXvXvXvXvXvXvXvXvXvXvXvXvXvXvXvXvXvXvXvXvXvXvXvXvXvXvXvXvXvXvXvXvXvXvXvXvXvXvXvXvXvXvXvXvXvXvXvXvXvXvXvXvXvXvXvXcXq.r 4 /   <XvXvX.X",
".XvXvXvXvXvXvXvXvXvXvXvXvXvXvXvXvXvXvXvXvXvXvXvXvXvXvXvXvXvXvXvXvXvXvXvXvXvXvXvXvXvXvXvXvXvXvXvXvXvXvXvXvXvXvXvXvXvXvXvXvXvXvXuX  yXvXvX.X",
".XvXvXvXvXvXvXvXvXvXvXvXvXvXvXvXvXvXvXvXvXvXvXvXvXvXvXvXvXvXvXvXvXvXvXvXvXvXvXvXvXvXvXvXvXvXvXvXvXvXvXvXvXvXvXvXvXvXvXvXvXvXvX2X. xXvXvX.X",
".XvXvXvXvXvXvXvXvXvXvXvXvXvXvXvXvXvXvXvXvXvXvXvXvXvXvXvXvXvXvXvXvXvXvXvXvXvXvXvXvXvXvXvXvXvXvXvXvXvXvXvXvXvXvXvXvXvXvX).# # # @ : vXvXvX.X",
".XvXvXvXvXvXvXvXvXvXvXvXvXvXvXvXvXvXvXvXvXvXvXvXvXvXvXvXvXvXvXvXvXvXvXvXvXvXvXvXvXvXvXvXvXvXvXvXvXvXvXvXvXvXvXvXvXvXvXvXvXvXvXvXvXvXvXvX.X",
"`.cXvXvXvXvXvXvXvXvXvXvXvXvXvXvXvXvXvXvXvXvXvXvXvXvXvXvXvXvXvXvXvXvXvXvXvXvXvXvXvXvXvXvXvXvXvXvXvXvXvXvXvXvXvXvXvXvXvXvXvXvXvXvXvXvXvXcX'.",
"kX_..XXXXXXXXXXXXXXXXXXXXXXXXXXXXXXXXXXXXXXXXXXXXXXXXXXXXXXXXXXXXXXXXXXXXXXXXXXXXXXXXXXXXXXXXXXXXXXXXXXXXXXXXXXXXXXXXXXXXXXXXXXXXXXX.X_.kX"
};
