/* XPM */
static const char *five_hearts[] = {
/* columns rows colors chars-per-pixel */
"69 100 229 2 ",
"   c #DF0000",
".  c #DF0101",
"X  c #DF0202",
"o  c #DF0303",
"O  c #DF0404",
"+  c #E00505",
"@  c #E00606",
"#  c #E00707",
"$  c #E00808",
"%  c #E00909",
"&  c #E00A0A",
"*  c #E00B0B",
"=  c #E10C0C",
"-  c #E10D0D",
";  c #E10E0E",
":  c #E10F0F",
">  c #E11010",
",  c #E11111",
"<  c #E11212",
"1  c #E11313",
"2  c #E21414",
"3  c #E21616",
"4  c #E21717",
"5  c #E21818",
"6  c #E21919",
"7  c #E21A1A",
"8  c #E21B1B",
"9  c #E31C1C",
"0  c #E31D1D",
"q  c #E31E1E",
"w  c #E31F1F",
"e  c #E32020",
"r  c #E32121",
"t  c #E32222",
"y  c #E32323",
"u  c #E42424",
"i  c #E42525",
"p  c #E42626",
"a  c #E42727",
"s  c #E42828",
"d  c #E42929",
"f  c #E42A2A",
"g  c #E52D2D",
"h  c #E52E2E",
"j  c #E52F2F",
"k  c #E53030",
"l  c #E53131",
"z  c #E53232",
"x  c #E53333",
"c  c #E63434",
"v  c #E63535",
"b  c #E63636",
"n  c #E63737",
"m  c #E63838",
"M  c #E63939",
"N  c #E63A3A",
"B  c #E63B3B",
"V  c #E73C3C",
"C  c #E73D3D",
"Z  c #E73E3E",
"A  c #E73F3F",
"S  c #E74141",
"D  c #E74242",
"F  c #E74343",
"G  c #E84545",
"H  c #E84646",
"J  c #E84848",
"K  c #E84949",
"L  c #E84A4A",
"P  c #E84B4B",
"I  c #E94C4C",
"U  c #E94D4D",
"Y  c #E94E4E",
"T  c #E94F4F",
"R  c #E95050",
"E  c #E95252",
"W  c #E95353",
"Q  c #EA5555",
"!  c #EA5656",
"~  c #EA5757",
"^  c #EA5858",
"/  c #EA5959",
"(  c #EA5A5A",
")  c #EA5B5B",
"_  c #EB5C5C",
"`  c #EB5D5D",
"'  c #EB5E5E",
"]  c #EB5F5F",
"[  c #EB6060",
"{  c #EB6161",
"}  c #EB6262",
"|  c #EC6565",
" . c #EC6666",
".. c #EC6767",
"X. c #EC6868",
"o. c #EC6969",
"O. c #EC6A6A",
"+. c #EC6B6B",
"@. c #ED6C6C",
"#. c #ED6D6D",
"$. c #ED6F6F",
"%. c #ED7171",
"&. c #ED7272",
"*. c #EE7474",
"=. c #EE7575",
"-. c #EE7777",
";. c #EE7878",
":. c #EE7A7A",
">. c #EE7B7B",
",. c #EF7C7C",
"<. c #EF7D7D",
"1. c #EF7E7E",
"2. c #EF7F7F",
"3. c #EF8080",
"4. c #EF8181",
"5. c #F08484",
"6. c #F08585",
"7. c #F08686",
"8. c #F08787",
"9. c #F08A8A",
"0. c #F08B8B",
"q. c #F18E8E",
"w. c #F19090",
"e. c #F19191",
"r. c #F19292",
"t. c #F19393",
"y. c #F29494",
"u. c #F29595",
"i. c #F29696",
"p. c #F29797",
"a. c #F29898",
"s. c #F29999",
"d. c #F29A9A",
"f. c #F29B9B",
"g. c #F39C9C",
"h. c #F39D9D",
"j. c #F39E9E",
"k. c #F3A0A0",
"l. c #F3A1A1",
"z. c #F3A2A2",
"x. c #F3A3A3",
"c. c #F4A4A4",
"v. c #F4A5A5",
"b. c #F4A6A6",
"n. c #F4A8A8",
"m. c #F4AAAA",
"M. c #F4ABAB",
"N. c #F5ACAC",
"B. c #F5ADAD",
"V. c #F5AEAE",
"C. c #F5AFAF",
"Z. c #F5B0B0",
"A. c #F5B1B1",
"S. c #F5B3B3",
"D. c #F6B5B5",
"F. c #F6B6B6",
"G. c #F6B7B7",
"H. c #F6B9B9",
"J. c #F6BABA",
"K. c #F6BBBB",
"L. c #F7BCBC",
"P. c #F7BDBD",
"I. c #F7BEBE",
"U. c #F7BFBF",
"Y. c gray76",
"T. c #C3C3C3",
"R. c gray77",
"E. c #CBCBCB",
"W. c gray80",
"Q. c #F7C0C0",
"!. c #F7C1C1",
"~. c #F7C2C2",
"^. c #F8C4C4",
"/. c #F8C5C5",
"(. c #F8C7C7",
"). c #F8C8C8",
"_. c #F8C9C9",
"`. c #F8CACA",
"'. c #F8CBCB",
"]. c #F9CCCC",
"[. c #F9CDCD",
"{. c #F9CECE",
"}. c #F9CFCF",
"|. c #F9D0D0",
" X c #F9D1D1",
".X c #F9D3D3",
"XX c #FAD5D5",
"oX c #FAD7D7",
"OX c #FAD8D8",
"+X c #FAD9D9",
"@X c #FADADA",
"#X c #FADBDB",
"$X c #FBDCDC",
"%X c #FBDDDD",
"&X c #FBDEDE",
"*X c #FBDFDF",
"=X c #FBE0E0",
"-X c #FBE1E1",
";X c #FBE2E2",
":X c #FBE3E3",
">X c #FCE4E4",
",X c #FCE5E5",
"<X c #FCE6E6",
"1X c #FCE7E7",
"2X c #FCE8E8",
"3X c #FCE9E9",
"4X c #FCEAEA",
"5X c #FCEBEB",
"6X c #FDECEC",
"7X c #FDEDED",
"8X c #FDEEEE",
"9X c #FDEFEF",
"0X c #FDF0F0",
"qX c #FDF1F1",
"wX c #FDF3F3",
"eX c #FEF4F4",
"rX c #FEF5F5",
"tX c #FEF6F6",
"yX c #FEF7F7",
"uX c gray98",
"iX c #FEF8F8",
"pX c #FEF9F9",
"aX c #FEFAFA",
"sX c #FEFBFB",
"dX c #FFFCFC",
"fX c #FFFDFD",
"gX c #FEFEFE",
"hX c #FFFEFE",
"jX c white",
/* pixels */
"uXY.E.W.W.W.W.W.W.W.W.W.W.W.W.W.W.W.W.W.W.W.W.W.W.W.W.W.W.W.W.W.W.W.W.W.W.W.W.W.W.W.W.W.W.W.W.W.W.W.W.W.W.W.W.W.W.W.W.W.W.W.W.W.W.W.E.Y.uX",
"T.gXjXjXjXjXjXjXjXjXjXjXjXjXjXjXjXjXjXjXjXjXjXjXjXjXjXjXjXjXjXjXjXjXjXjXjXjXjXjXjXjXjXjXjXjXjXjXjXjXjXjXjXjXjXjXjXjXjXjXjXjXjXjXjXjXjXgXR.",
"E.jXjXjXjXjXjXjXjXjXjXjXjXjXjXjXjXjXjXjXjXjXjXjXjXjXjXjXjXjXjXjXjXjXjXjXjXjXjXjXjXjXjXjXjXjXjXjXjXjXjXjXjXjXjXjXjXjXjXjXjXjXjXjXjXjXjXjXE.",
"E.jXjXjXjX; @ # # # !.jXjXjXjXjXjXjXjXjXjXjXjXjXjXjXjXjXjXjXjXjXjXjXjXjXjXjXjXjXjXjXjXjXjXjXjXjXjXjXjXjXjXjXjXjXjXjXjXjXjXjXjXjXjXjXjXjXE.",
"E.jXjXjXfX. -XjXjXjXjXjXjXjXjXjXjXjXjXjXjXjXjXjXjXjXjXjXjXjXjXjXjXjXjXjXjXjXjXjXjXjXjXjXjXjXjXjXjXjXjXjXjXjXjXjXjXjXjXjXjXjXjXjXjXjXjXjXE.",
"E.jXjXjX8X  qXjXjXjXjXjXjXjXjXjXjXjXjXjXjXjXjXjXjXjXjXjXjXjXjXjXjXjXjXjXjXjXjXjXjXjXjXjXjXjXjXjXjXjXjXjXjXjXjXjXjXjXjXjXjXjXjXjXjXjXjXjXE.",
"E.jXjXjX%X  ^ 4 y 5.hXjXjXjXjXjXjXjXjXjXjXjXjXjXjXjXjXjXjXjXjXjXjXjXjXjXjXjXjXjXjXjXjXjXjXjXjXjXjXjXjXjXjXjXjXjXjXjXjXjXjXjXjXjXjXjXjXjXE.",
"E.jXjXjX;X[ F.aX].6 p.jXjXjXjXjXjXjXjXjXjXjXjXjXjXjXjXjXjXjXjXjXjXjXjXjXjXjXjXjXjXjXjXjXjXjXjXjXjXjXjXjXjXjXjXjXjXjXjXjXjXjXjXjXjXjXjXjXE.",
"E.jXjXjXjXjXjXjXjX3.L jXjXjXjXjXjXjXjXjXjXjXjXjXjXjXjXjXjXjXjXjXjXjXjXjXjXjXjXjXjXjXjXjXjXjXjXjXjXjXjXjXjXjXjXjXjXjXjXjXjXjXjXjXjXjXjXjXE.",
"E.jXjXjX3X`.jXjXjX,.E jXjXjXjXjXjXjXjXjXjXjXjXjXjXjXjXjXjXjXjXjXjXjXjXjXjXjXjXjXjXjXjXjXjXjXjXjXjXjXjXjXjXjXjXjXjXjXjXjXjXjXjXjXjXjXjXjXE.",
"E.jXjXjX'.% U.jX.X5 v.jXjXjXjXjXjXjXjXjXjXjXjXjXjXjXjXjXjXjXjXjXjXjXjXjXjXjXjXjXjXjXjXjXjXjXjXjXjXjXjXjXjXjXjXjXjXjXjXjXjXjXjXjXjXjXjXjXE.",
"E.jXjXjXjXc.s : i r.jXjXjXjXjXjXjXjXjXjXjXjXjXjXjXjXjXjXjXjXjXjXjXjXjXjXjXjXjXjXjXjXjXjXjXjXjXjXjXjXjXjXjXjXjXjXjXjXjXjXjXjXjXjXjXjXjXjXE.",
"E.jXjXjXjXjXjXjXjXjXjXjXjXjXjXjXjXjXjXjXjXjXjXjXjXjXjXjXjXjXjXjXjXjXjXjXjXjXjXjXjXjXjXjXjXjXjXjXjXjXjXjXjXjXjXjXjXjXjXjXjXjXjXjXjXjXjXjXE.",
"E.jXwX8./ :.eXjXf.^ &.$XjXjXjXjXjXjXjXjXjXjXjXjXjXjXjXjXjXjXjXjXjXjXjXjXjXjXjXjXjXjXjXjXjXjXjXjXjXjXjXjXjXjXjXjXjXjXjXjXjXjXjXjXjXjXjXjXE.",
"E.aXb       U y.      - #XjXjXjXjXjXjXjXjXjXjXjXjXjXjXjXjXjXjXjXjXjXjXjXjXjXjXjXjXjXjXjXjXjXjXjXjXjXjXjXjXjXjXjXjXjXjXjXjXjXjXjXjXjXjXjXE.",
"E.!.          2         :.jXjXjXjXjXjXjXjXjXjXjXjXjXjXjXjXjXjXjXjXjXjXjXjXjXjXjXjXjXjXjXjXjXjXjXjXjXjXjXjXjXjXjXjXjXjXjXjXjXjXjXjXjXjXjXE.",
"E.Z.                    X.jXjXjXjXjXjXjXjXjXjXjXjXjXjXjXjXjXjXjXjXjXjXjXjXjXjXjXjXjXjXjXjXjXjXjXjXjXjXjXjXjXjXjXjXjXjXjXjXjXjXjXjXjXjXjXE.",
"E.0X1                   L.jXjXjXM.K q p ` +XjXjXiX7.z 9 x 2.9XjXjXjXjXjXjXjXwXw.U n Q S.jXjXjX*X$.Z C $.XXjXjXjXjXjXjXjXjXjXjXjXjXjXjXjXE.",
"E.jXm..               | jXjXhX{           : .XdXG           e *XjXjXjXjXjX$Xt           ,.jX].>         + p.jXjXjXjXjXjXjXjXjXjXjXjXjXjXE.",
"E.jXjX1.            C pXjXjXj.              G v.              C jXjXjXjXfXl             . |.c             X `.jXjXjXjXjXjXjXjXjXjXjXjXjXE.",
"E.jXjXhXW         y 6XjXjXjXM               . s                 OXjXjXjX!.                n                 ] jXjXjXjXjXjXjXjXjXjXjXjXjXE.",
"E.jXjXjXtXc     - .XjXjXjXjX,                                   C.jXjXjXr.                                  k jXjXjXjXjXjXjXjXjXjXjXjXjXE.",
"E.jXjXjXjX=X-   V.jXjXjXjXjX6                                   H.jXjXjXu.                                  x jXjXjXjXjXjXjXjXjXjXjXjXjXE.",
"E.jXjXjXjXjX9.J jXjXjXjXjXjX|                                 , wXjXjXjXOXX                                 ;.jXjXjXjXjXjXjXjXjXjXjXjXjXE.",
"E.jXjXjXjXjX9XK.jXjXjXjXjXjX>X&                               q.jXjXjXjXjX_                               > 5XjXjXjXjXjXjXjXjXjXjXjXjXjXE.",
"E.jXjXjXjXjXjXjXjXjXjXjXjXjXjXe.                            B aXjXjXjXjXjX,X4                             j.jXjXjXjXjXjXjXjXjXjXjXjXjXjXE.",
"E.jXjXjXjXjXjXjXjXjXjXjXjXjXjXjX/                         6 ,XjXjXjXjXjXjXjXI.O                          .jXjXjXjXjXjXjXjXjXjXjXjXjXjXjXE.",
"E.jXjXjXjXjXjXjXjXjXjXjXjXjXjXjXyXV                     - [.jXjXjXjXjXjXjXjXjXg.                      S pXjXjXjXjXjXjXjXjXjXjXjXjXjXjXjXE.",
"E.jXjXjXjXjXjXjXjXjXjXjXjXjXjXjXjX6Xa                 O F.jXjXjXjXjXjXjXjXjXjXjX,.                  j qXjXjXjXjXjXjXjXjXjXjXjXjXjXjXjXjXE.",
"E.jXjXjXjXjXjXjXjXjXjXjXjXjXjXjXjXjX&X4             . h.jXjXjXjXjXjXjXjXjXjXjXjXhX]               8 ;XjXjXjXjXjXjXjXjXjXjXjXjXjXjXjXjXjXE.",
"E.jXjXjXjXjXjXjXjXjXjXjXjXjXjXjXjXjXjX(.@           ;.jXjXjXjXjXjXjXjXjXjXjXjXjXjXpXC           = .XjXjXjXjXjXjXjXjXjXjXjXjXjXjXjXjXjXjXE.",
"E.jXjXjXjXjXjXjXjXjXjXjXjXjXjXjXjXjXjXjXi.        S dXjXjXjXjXjXjXjXjXjXjXjXjXjXjXjX2X8         z.jXjXjXjXjXjXjXjXjXjXjXjXjXjXjXjXjXjXjXE.",
"E.jXjXjXjXjXjXjXjXjXjXjXjXjXjXjXjXjXjXjXjXY     : <XjXjXjXjXjXjXjXjXjXjXjXjXjXjXjXjXjXL.      } jXjXjXjXjXjXjXjXjXjXjXjXjXjXjXjXjXjXjXjXE.",
"E.jXjXjXjXjXjXjXjXjXjXjXjXjXjXjXjXjXjXjXjX-X=   r.jXjXjXjXjXjXjXjXjXjXjXjXjXjXjXjXjXjXjX(   < 4XjXjXjXjXjXjXjXjXjXjXjXjXjXjXjXjXjXjXjXjXE.",
"E.jXjXjXjXjXjXjXjXjXjXjXjXjXjXjXjXjXjXjXjXjX=.9 dXjXjXjXjXjXjXjXjXjXjXjXjXjXjXjXjXjXjXjX>XO 0.jXjXjXjXjXjXjXjXjXjXjXjXjXjXjXjXjXjXjXjXjXE.",
"E.jXjXjXjXjXjXjXjXjXjXjXjXjXjXjXjXjXjXjXjXjX+X>.jXjXjXjXjXjXjXjXjXjXjXjXjXjXjXjXjXjXjXjXjXW 1XjXjXjXjXjXjXjXjXjXjXjXjXjXjXjXjXjXjXjXjXjXE.",
"E.jXjXjXjXjXjXjXjXjXjXjXjXjXjXjXjXjXjXjXjXjXjXqXjXjXjXjXjXjXjXjXjXjXjXjXjXjXjXjXjXjXjXjXjX2XjXjXjXjXjXjXjXjXjXjXjXjXjXjXjXjXjXjXjXjXjXjXE.",
"E.jXjXjXjXjXjXjXjXjXjXjXjXjXjXjXjXjXjXjXjXjXjXjXjXjXjXjXjXjXjXjXjXjXjXjXjXjXjXjXjXjXjXjXjXjXjXjXjXjXjXjXjXjXjXjXjXjXjXjXjXjXjXjXjXjXjXjXE.",
"E.jXjXjXjXjXjXjXjXjXjXjXjXjXjXjXjXjXjXjXjXjXjXjXjXjXjXjXjXjXjXjXjXjXjXjXjXjXjXjXjXjXjXjXjXjXjXjXjXjXjXjXjXjXjXjXjXjXjXjXjXjXjXjXjXjXjXjXE.",
"E.jXjXjXjXjXjXjXjXjXjXjXjXjXjXjXjXjXjXjXjXjXjXjXjXjXjXjXjXjXjXjXjXjXjXjXjXjXjXjXjXjXjXjXjXjXjXjXjXjXjXjXjXjXjXjXjXjXjXjXjXjXjXjXjXjXjXjXE.",
"E.jXjXjXjXjXjXjXjXjXjXjXjXjXjXjXjXjXjXjXjXjXjXjXjXjXjXjXjXjXjXjXjXjXjXjXjXjXjXjXjXjXjXjXjXjXjXjXjXjXjXjXjXjXjXjXjXjXjXjXjXjXjXjXjXjXjXjXE.",
"E.jXjXjXjXjXjXjXjXjXjXjXjXjXjXjXjXjXjXjXjXjXjXjXjXjXjXjXjX0X7XjXjXjXjXjXjXhX3XtXjXjXjXjXjXjXjXjXjXjXjXjXjXjXjXjXjXjXjXjXjXjXjXjXjXjXjXjXE.",
"E.jXjXjXjXjXjXjXjXjXjXjXjXjXjXjXjXjXjXjXjXjXjXjXjXjXfXr.u     9 a.jXjXeX+.*   o C L.jXjXjXjXjXjXjXjXjXjXjXjXjXjXjXjXjXjXjXjXjXjXjXjXjXjXE.",
"E.jXjXjXjXjXjXjXjXjXjXjXjXjXjXjXjXjXjXjXjXjXjXjXjXjX)             q.jXH           . l.jXjXjXjXjXjXjXjXjXjXjXjXjXjXjXjXjXjXjXjXjXjXjXjXjXE.",
"E.jXjXjXjXjXjXjXjXjXjXjXjXjXjXjXjXjXjXjXjXjXjXjXjXA.              > B.              - 5XjXjXjXjXjXjXjXjXjXjXjXjXjXjXjXjXjXjXjXjXjXjXjXjXE.",
"E.jXjXjXjXjXjXjXjXjXjXjXjXjXjXjXjXjXjXjXjXjXjXjXjX/                 3                 k.jXjXjXjXjXjXjXjXjXjXjXjXjXjXjXjXjXjXjXjXjXjXjXjXE.",
"E.jXjXjXjXjXjXjXjXjXjXjXjXjXjXjXjXjXjXjXjXjXjXjXjXN                                   3.jXjXjXjXjXjXjXjXjXjXjXjXjXjXjXjXjXjXjXjXjXjXjXjXE.",
"E.jXjXjXjXjXjXjXjXjXjXjXjXjXjXjXjXjXjXjXjXjXjXjXjXT                                   i.jXjXjXjXjXjXjXjXjXjXjXjXjXjXjXjXjXjXjXjXjXjXjXjXE.",
"E.jXjXjXjXjXjXjXjXjXjXjXjXjXjXjXjXjXjXjXjXjXjXjXjXn.                                & <XjXjXjXjXjXjXjXjXjXjXjXjXjXjXjXjXjXjXjXjXjXjXjXjXE.",
"E.jXjXjXjXjXjXjXjXjXjXjXjXjXjXjXjXjXjXjXjXjXjXjXjXhXv                               <.jXjXjXjXjXjXjXjXjXjXjXjXjXjXjXjXjXjXjXjXjXjXjXjXjXE.",
"E.jXjXjXjXjXjXjXjXjXjXjXjXjXjXjXjXjXjXjXjXjXjXjXjXjX+X;                           n iXjXjXjXjXjXjXjXjXjXjXjXjXjXjXjXjXjXjXjXjXjXjXjXjXjXE.",
"E.jXjXjXjXjXjXjXjXjXjXjXjXjXjXjXjXjXjXjXjXjXjXjXjXjXjXN.X                       6 ;XjXjXjXjXjXjXjXjXjXjXjXjXjXjXjXjXjXjXjXjXjXjXjXjXjXjXE.",
"E.jXjXjXjXjXjXjXjXjXjXjXjXjXjXjXjXjXjXjXjXjXjXjXjXjXjXjX9.                    & ).jXjXjXjXjXjXjXjXjXjXjXjXjXjXjXjXjXjXjXjXjXjXjXjXjXjXjXE.",
"E.jXjXjXjXjXjXjXjXjXjXjXjXjXjXjXjXjXjXjXjXjXjXjXjXjXjXjXjX@.                O F.jXjXjXjXjXjXjXjXjXjXjXjXjXjXjXjXjXjXjXjXjXjXjXjXjXjXjXjXE.",
"E.jXjXjXjXjXjXjXjXjXjXjXjXjXjXjXjXjXjXjXjXjXjXjXjXjXjXjXjXfXE             . h.jXjXjXjXjXjXjXjXjXjXjXjXjXjXjXjXjXjXjXjXjXjXjXjXjXjXjXjXjXE.",
"E.jXjXjXjXjXjXjXjXjXjXjXjXjXjXjXjXjXjXjXjXjXjXjXjXjXjXjXjXjXtXl           *.jXjXjXjXjXjXjXjXjXjXjXjXjXjXjXjXjXjXjXjXjXjXjXjXjXjXjXjXjXjXE.",
"E.jXjXjXjXjXjXjXjXjXjXjXjXjXjXjXjXjXjXjXjXjXjXjXjXjXjXjXjXjXjX@X:       A sXjXjXjXjXjXjXjXjXjXjXjXjXjXjXjXjXjXjXjXjXjXjXjXjXjXjXjXjXjXjXE.",
"E.jXjXjXjXjXjXjXjXjXjXjXjXjXjXjXjXjXjXjXjXjXjXjXjXjXjXjXjXjXjXjXp.    % %XjXjXjXjXjXjXjXjXjXjXjXjXjXjXjXjXjXjXjXjXjXjXjXjXjXjXjXjXjXjXjXE.",
"E.jXjXjXjXjXjXjXjXjXjXjXjXjXjXjXjXjXjXjXjXjXjXjXjXjXjXjXjXjXjXjXfXn   5.jXjXjXjXjXjXjXjXjXjXjXjXjXjXjXjXjXjXjXjXjXjXjXjXjXjXjXjXjXjXjXjXE.",
"E.jXjXjXjXjXjXjXjXjXjXjXjXjXjXjXjXjXjXjXjXjXjXjXjXjXjXjXjXjXjXjXjXS.= wXjXjXjXjXjXjXjXjXjXjXjXjXjXjXjXjXjXjXjXjXjXjXjXjXjXjXjXjXjXjXjXjXE.",
"E.jXjXjXjXjXjXjXjXjXjXjXjXjXjXjXjXjXjXjXjXjXjXjXjXjXjXjXjXjXjXjXjXdX2.jXjXjXjXjXjXjXjXjXjXjXjXjXjXjXjXjXjXjXjXjXjXjXjXjXjXjXjXjXjXjXjXjXE.",
"E.jXjXjXjXjXjXjXjXjXjXjXjXjXjXjXjXjXjXjXjXjXjXjXjXjXjXjXjXjXjXjXjXjXdXjXjXjXjXjXjXjXjXjXjXjXjXjXjXjXjXjXjXjXjXjXjXjXjXjXjXjXjXjXjXjXjXjXE.",
"E.jXjXjXjXjXjXjXjXjXjXjXjXjXjXjXjXjXjXjXjXjXjXjXjXjXjXjXjXjXjXjXjXjXjXjXjXjXjXjXjXjXjXjXjXjXjXjXjXjXjXjXjXjXjXjXjXjXjXjXjXjXjXjXjXjXjXjXE.",
"E.jXjXjXjXjXjXjXjXjXjXjXjXjXjXjXjXjXjXjXjXjXjX$XjXjXjXjXjXjXjXjXjXjXjXjXjXjXjXjXjXjXjXjXjX2XjXjXjXjXjXjXjXjXjXjXjXjXjXjXjXjXjXjXjXjXjXjXE.",
"E.jXjXjXjXjXjXjXjXjXjXjXjXjXjXjXjXjXjXjXjXjX^.} jXjXjXjXjXjXjXjXjXjXjXjXjXjXjXjXjXjXjXjXjXQ <XjXjXjXjXjXjXjXjXjXjXjXjXjXjXjXjXjXjXjXjXjXE.",
"E.jXjXjXjXjXjXjXjXjXjXjXjXjXjXjXjXjXjXjXjXjX' = 7XjXjXjXjXjXjXjXjXjXjXjXjXjXjXjXjXjXjXjX1X+ 6.jXjXjXjXjXjXjXjXjXjXjXjXjXjXjXjXjXjXjXjXjXE.",
"E.jXjXjXjXjXjXjXjXjXjXjXjXjXjXjXjXjXjXjXjX].o   ..jXjXjXjXjXjXjXjXjXjXjXjXjXjXjXjXjXjXjX]   ; ,XjXjXjXjXjXjXjXjXjXjXjXjXjXjXjXjXjXjXjXjXE.",
"E.jXjXjXjXjXjXjXjXjXjXjXjXjXjXjXjXjXjXjXaXc     X /.jXjXjXjXjXjXjXjXjXjXjXjXjXjXjXjXjX!..     / jXjXjXjXjXjXjXjXjXjXjXjXjXjXjXjXjXjXjXjXE.",
"E.jXjXjXjXjXjXjXjXjXjXjXjXjXjXjXjXjXjXjX$.        0 4XjXjXjXjXjXjXjXjXjXjXjXjXjXjXjX3X9         g.jXjXjXjXjXjXjXjXjXjXjXjXjXjXjXjXjXjXjXE.",
"E.jXjXjXjXjXjXjXjXjXjXjXjXjXjXjXjXjXjXc.            D aXjXjXjXjXjXjXjXjXjXjXjXjXjXaXD           $ '.jXjXjXjXjXjXjXjXjXjXjXjXjXjXjXjXjXjXE.",
"E.jXjXjXjXjXjXjXjXjXjXjXjXjXjXjXjXjX~.#               ( hXjXjXjXjXjXjXjXjXjXjXjXjXo.              6 *XjXjXjXjXjXjXjXjXjXjXjXjXjXjXjXjXjXE.",
"E.jXjXjXjXjXjXjXjXjXjXjXjXjXjXjXjXXX,                   2.jXjXjXjXjXjXjXjXjXjXjX4.                  f 8XjXjXjXjXjXjXjXjXjXjXjXjXjXjXjXjXE.",
"E.jXjXjXjXjXjXjXjXjXjXjXjXjXjXjX,Xw                     . j.jXjXjXjXjXjXjXjXjXx..                     Z iXjXjXjXjXjXjXjXjXjXjXjXjXjXjXjXE.",
"E.jXjXjXjXjXjXjXjXjXjXjXjXjXjXiXc                         + ^.jXjXjXjXjXjXjXU.O                         ] jXjXjXjXjXjXjXjXjXjXjXjXjXjXjXE.",
"E.jXjXjXjXjXjXjXjXjXjXjXjXjXjXo.                            8 5XjXjXjXjXjX<X4                             s.jXjXjXjXjXjXjXeXsXjXjXjXjXjXE.",
"E.jXjXjXjXjXjXjXjXjXjXjXjXjX[.X                               O.jXjXjXjXjX_                               - 2XjXjXjXjXjXjXh.A.jXjXjXjXjXE.",
"E.jXjXjXjXjXjXjXjXjXjXjXjXjXI                                 + 1XjXjXjXoXX                                 -.jXjXjXjXjXiXp g sXjXjXjXjXE.",
"E.jXjXjXjXjXjXjXjXjXjXjXjXjX,                                   Z.jXjXjXu.                                  x jXjXjXjXjXO.    <.jXjXjXjXE.",
"E.jXjXjXjXjXjXjXjXjXjXjXjXjX3                                   D.jXjXjXt.                                  z jXjXjXjXg.      . b.jXjXjXE.",
"E.jXjXjXjXjXjXjXjXjXjXjXjXjXP               @ F               X 1XjXjXjX~.                m                 [ jXjXjXP.+         % '.jXjXE.",
"E.jXjXjXjXjXjXjXjXjXjXjXjXjXU.X             { Q.              { jXjXjXjXfXx             .  Xv             X '.jXjX&X2             6 :XjXE.",
"E.jXjXjXjXjXjXjXjXjXjXjXjXjXjXd.#         h 6XjX:.          P rXjXjXjXjXjX%Xu           2.jX{.,         + d.jXjXpXf                 N hXE.",
"E.jXjXjXjXjXjXjXjXjXjXjXjXjXjXjX=X5./ ] s.rXjXjXjXQ.#.Q $.J.jXjXjXjXjXjXjXjXeXr.Y m ! D.jXjXjX=X%.A A %.oXjXjXjXl.                    G.E.",
"E.jXjXjXjXjXjXjXjXjXjXjXjXjXjXjXjXjXjXjXjXjXjXjXjXjXjXjXjXjXjXjXjXjXjXjXjXjXjXjXjXjXjXjXjXjXjXjXjXjXjXjXjXjXjXjX1.                    t.E.",
"E.jXjXjXjXjXjXjXjXjXjXjXjXjXjXjXjXjXjXjXjXjXjXjXjXjXjXjXjXjXjXjXjXjXjXjXjXjXjXjXjXjXjXjXjXjXjXjXjXjXjXjXjXjXjXjXF.        b r       . ].E.",
"E.jXjXjXjXjXjXjXjXjXjXjXjXjXjXjXjXjXjXjXjXjXjXjXjXjXjXjXjXjXjXjXjXjXjXjXjXjXjXjXjXjXjXjXjXjXjXjXjXjXjXjXjXjXjXjXjX;.O   2 [.I.=   $ 9.jXE.",
"E.jXjXjXjXjXjXjXjXjXjXjXjXjXjXjXjXjXjXjXjXjXjXjXjXjXjXjXjXjXjXjXjXjXjXjXjXjXjXjXjXjXjXjXjXjXjXjXjXjXjXjXjXjXjXjXjXjX7X}.eXjXjXqX}.0XjXjXE.",
"E.jXjXjXjXjXjXjXjXjXjXjXjXjXjXjXjXjXjXjXjXjXjXjXjXjXjXjXjXjXjXjXjXjXjXjXjXjXjXjXjXjXjXjXjXjXjXjXjXjXjXjXjXjXjXjXjXjXjXjXjXjXjXjXjXjXjXjXE.",
"E.jXjXjXjXjXjXjXjXjXjXjXjXjXjXjXjXjXjXjXjXjXjXjXjXjXjXjXjXjXjXjXjXjXjXjXjXjXjXjXjXjXjXjXjXjXjXjXjXjXjXjXjXjXjXjXjXjXjXjXw.i : d v.jXjXjXE.",
"E.jXjXjXjXjXjXjXjXjXjXjXjXjXjXjXjXjXjXjXjXjXjXjXjXjXjXjXjXjXjXjXjXjXjXjXjXjXjXjXjXjXjXjXjXjXjXjXjXjXjXjXjXjXjXjXjXjXjXx.4 |.jXU.% '.jXjXE.",
"E.jXjXjXjXjXjXjXjXjXjXjXjXjXjXjXjXjXjXjXjXjXjXjXjXjXjXjXjXjXjXjXjXjXjXjXjXjXjXjXjXjXjXjXjXjXjXjXjXjXjXjXjXjXjXjXjXjXjXR ,.jXjXjX_.3XjXjXE.",
"E.jXjXjXjXjXjXjXjXjXjXjXjXjXjXjXjXjXjXjXjXjXjXjXjXjXjXjXjXjXjXjXjXjXjXjXjXjXjXjXjXjXjXjXjXjXjXjXjXjXjXjXjXjXjXjXjXjXjXK 3.jXjXjXjXjXjXjXE.",
"E.jXjXjXjXjXjXjXjXjXjXjXjXjXjXjXjXjXjXjXjXjXjXjXjXjXjXjXjXjXjXjXjXjXjXjXjXjXjXjXjXjXjXjXjXjXjXjXjXjXjXjXjXjXjXjXjXjXjXp.7 {.sXH.[ ;XjXjXE.",
"E.jXjXjXjXjXjXjXjXjXjXjXjXjXjXjXjXjXjXjXjXjXjXjXjXjXjXjXjXjXjXjXjXjXjXjXjXjXjXjXjXjXjXjXjXjXjXjXjXjXjXjXjXjXjXjXjXjXjXhX5.t 3 ~   &XjXjXE.",
"E.jXjXjXjXjXjXjXjXjXjXjXjXjXjXjXjXjXjXjXjXjXjXjXjXjXjXjXjXjXjXjXjXjXjXjXjXjXjXjXjXjXjXjXjXjXjXjXjXjXjXjXjXjXjXjXjXjXjXjXjXjXjX0X  9XjXjXE.",
"E.jXjXjXjXjXjXjXjXjXjXjXjXjXjXjXjXjXjXjXjXjXjXjXjXjXjXjXjXjXjXjXjXjXjXjXjXjXjXjXjXjXjXjXjXjXjXjXjXjXjXjXjXjXjXjXjXjXjXjXjXjXjX=X. fXjXjXE.",
"E.jXjXjXjXjXjXjXjXjXjXjXjXjXjXjXjXjXjXjXjXjXjXjXjXjXjXjXjXjXjXjXjXjXjXjXjXjXjXjXjXjXjXjXjXjXjXjXjXjXjXjXjXjXjXjXjXjXjX!.# # # @ : jXjXjXE.",
"E.jXjXjXjXjXjXjXjXjXjXjXjXjXjXjXjXjXjXjXjXjXjXjXjXjXjXjXjXjXjXjXjXjXjXjXjXjXjXjXjXjXjXjXjXjXjXjXjXjXjXjXjXjXjXjXjXjXjXjXjXjXjXjXjXjXjXjXE.",
"T.gXjXjXjXjXjXjXjXjXjXjXjXjXjXjXjXjXjXjXjXjXjXjXjXjXjXjXjXjXjXjXjXjXjXjXjXjXjXjXjXjXjXjXjXjXjXjXjXjXjXjXjXjXjXjXjXjXjXjXjXjXjXjXjXjXjXgXR.",
"uXY.E.W.W.W.W.W.W.W.W.W.W.W.W.W.W.W.W.W.W.W.W.W.W.W.W.W.W.W.W.W.W.W.W.W.W.W.W.W.W.W.W.W.W.W.W.W.W.W.W.W.W.W.W.W.W.W.W.W.W.W.W.W.W.W.E.Y.uX"
};
