/* XPM */
static const char *five_diamonds[] = {
/* columns rows colors chars-per-pixel */
"69 100 209 2 ",
"   c #DF0000",
".  c #DF0101",
"X  c #DF0202",
"o  c #DF0303",
"O  c #DF0404",
"+  c #E00505",
"@  c #E00606",
"#  c #E00707",
"$  c #E00808",
"%  c #E00909",
"&  c #E00A0A",
"*  c #E00B0B",
"=  c #E10C0C",
"-  c #E10D0D",
";  c #E10E0E",
":  c #E10F0F",
">  c #E11010",
",  c #E11111",
"<  c #E11212",
"1  c #E11313",
"2  c #E21414",
"3  c #E21515",
"4  c #E21616",
"5  c #E21717",
"6  c #E21818",
"7  c #E21919",
"8  c #E21A1A",
"9  c #E21B1B",
"0  c #E31C1C",
"q  c #E31D1D",
"w  c #E31E1E",
"e  c #E31F1F",
"r  c #E32020",
"t  c #E32121",
"y  c #E32222",
"u  c #E32323",
"i  c #E42424",
"p  c #E42525",
"a  c #E42828",
"s  c #E42929",
"d  c #E42A2A",
"f  c #E42B2B",
"g  c #E52C2C",
"h  c #E52D2D",
"j  c #E52F2F",
"k  c #E53030",
"l  c #E53131",
"z  c #E63636",
"x  c #E63737",
"c  c #E63838",
"v  c #E63939",
"b  c #E63A3A",
"n  c #E73C3C",
"m  c #E73F3F",
"M  c #E74040",
"N  c #E74141",
"B  c #E74242",
"V  c #E74343",
"C  c #E84646",
"Z  c #E84747",
"A  c #E84848",
"S  c #E84949",
"D  c #E84A4A",
"F  c #E84B4B",
"G  c #E94D4D",
"H  c #E94E4E",
"J  c #E95050",
"K  c #E95252",
"L  c #EA5454",
"P  c #EA5555",
"I  c #EA5656",
"U  c #EA5757",
"Y  c #EA5858",
"T  c #EA5959",
"R  c #EA5A5A",
"E  c #EB5F5F",
"W  c #EB6060",
"Q  c #EB6161",
"!  c #EB6262",
"~  c #EC6565",
"^  c #EC6666",
"/  c #EC6767",
"(  c #EC6969",
")  c #EC6A6A",
"_  c #EC6B6B",
"`  c #ED6F6F",
"'  c #ED7373",
"]  c #EE7676",
"[  c #EE7777",
"{  c #EE7878",
"}  c #EE7979",
"|  c #EE7A7A",
" . c #EE7B7B",
".. c #EF7C7C",
"X. c #EF7D7D",
"o. c #EF7E7E",
"O. c #EF7F7F",
"+. c #EF8080",
"@. c #EF8282",
"#. c #F08484",
"$. c #F08585",
"%. c #F08686",
"&. c #F08787",
"*. c #F08888",
"=. c #F08989",
"-. c #F08A8A",
";. c #F08B8B",
":. c #F18C8C",
">. c #F18D8D",
",. c #F18F8F",
"<. c #F19090",
"1. c #F19191",
"2. c #F19292",
"3. c #F29494",
"4. c #F29595",
"5. c #F29696",
"6. c #F29797",
"7. c #F29898",
"8. c #F29999",
"9. c #F29A9A",
"0. c #F29B9B",
"q. c #F39D9D",
"w. c #F3A1A1",
"e. c #F3A2A2",
"r. c #F3A3A3",
"t. c #F4A4A4",
"y. c #F4A5A5",
"u. c #F4A6A6",
"i. c #F4A7A7",
"p. c #F4A9A9",
"a. c #F4AAAA",
"s. c #F4ABAB",
"d. c #F5ACAC",
"f. c #F5ADAD",
"g. c #F5AEAE",
"h. c #F5B0B0",
"j. c #F5B3B3",
"k. c #F6B4B4",
"l. c #F6B5B5",
"z. c #F6B6B6",
"x. c #F6B8B8",
"c. c #F6B9B9",
"v. c #F6BABA",
"b. c #F6BBBB",
"n. c #F7BDBD",
"m. c #F7BFBF",
"M. c gray76",
"N. c #C3C3C3",
"B. c gray77",
"V. c #CBCBCB",
"C. c gray80",
"Z. c #F7C0C0",
"A. c #F7C1C1",
"S. c #F7C2C2",
"D. c #F8C4C4",
"F. c #F8C5C5",
"G. c #F8C6C6",
"H. c #F8C7C7",
"J. c #F8C9C9",
"K. c #F8CACA",
"L. c #F8CBCB",
"P. c #F9CCCC",
"I. c #F9CDCD",
"U. c #F9CECE",
"Y. c #F9CFCF",
"T. c #F9D0D0",
"R. c #F9D1D1",
"E. c #F9D3D3",
"W. c #FAD4D4",
"Q. c #FAD5D5",
"!. c #FAD7D7",
"~. c #FAD8D8",
"^. c #FADADA",
"/. c #FADBDB",
"(. c #FBDCDC",
"). c #FBDDDD",
"_. c #FBDEDE",
"`. c #FBE0E0",
"'. c #FBE1E1",
"]. c #FBE2E2",
"[. c #FBE3E3",
"{. c #FCE4E4",
"}. c #FCE5E5",
"|. c #FCE7E7",
" X c #FCE8E8",
".X c #FCE9E9",
"XX c #FCEAEA",
"oX c #FCEBEB",
"OX c #FDECEC",
"+X c #FDEDED",
"@X c #FDEEEE",
"#X c #FDEFEF",
"$X c #FDF0F0",
"%X c #FDF1F1",
"&X c #FDF2F2",
"*X c #FEF4F4",
"=X c #FEF5F5",
"-X c #FEF6F6",
";X c #FEF7F7",
":X c gray98",
">X c #FEF8F8",
",X c #FEF9F9",
"<X c #FEFAFA",
"1X c #FEFBFB",
"2X c #FFFCFC",
"3X c #FFFDFD",
"4X c #FEFEFE",
"5X c #FFFEFE",
"6X c white",
/* pixels */
":XM.V.C.C.C.C.C.C.C.C.C.C.C.C.C.C.C.C.C.C.C.C.C.C.C.C.C.C.C.C.C.C.C.C.C.C.C.C.C.C.C.C.C.C.C.C.C.C.C.C.C.C.C.C.C.C.C.C.C.C.C.C.C.C.C.V.M.:X",
"N.4X6X6X6X6X6X6X6X6X6X6X6X6X6X6X6X6X6X6X6X6X6X6X6X6X6X6X6X6X6X6X6X6X6X6X6X6X6X6X6X6X6X6X6X6X6X6X6X6X6X6X6X6X6X6X6X6X6X6X6X6X6X6X6X6X6X4XB.",
"V.6X6X6X; @ # # # A.6X6X6X6X6X6X6X6X6X6X6X6X6X6X6X6X6X6X6X6X6X6X6X6X6X6X6X6X6X6X6X6X6X6X6X6X6X6X6X6X6X6X6X6X6X6X6X6X6X6X6X6X6X6X6X6X6X6XV.",
"V.6X6X3X. '.6X6X6X6X6X6X6X6X6X6X6X6X6X6X6X6X6X6X6X6X6X6X6X6X6X6X6X6X6X6X6X6X6X6X6X6X6X6X6X6X6X6X6X6X6X6X6X6X6X6X6X6X6X6X6X6X6X6X6X6X6X6XV.",
"V.6X6X@X  %X6X6X6X6X6X6X6X6X6X6X6X6X6X6X6X6X6X6X6X6X6X6X6X6X6X6X6X6X6X6X6X6X6X6X6X6X6X6X6X6X6X6X6X6X6X6X6X6X6X6X6X6X6X6X6X6X6X6X6X6X6X6XV.",
"V.6X6X).  Y 5 u #.5X6X6X6X6X6X6X6X6X6X6X6X6X6X6X6X6X6X6X6X6X6X6X6X6X6X6X6X6X6X6X6X6X6X6X6X6X6X6X6X6X6X6X6X6X6X6X6X6X6X6X6X6X6X6X6X6X6X6XV.",
"V.6X6X].W z.<XP.7 6.6X6X6X6X6X6X6X6X6X6X6X6X6X6X6X6X6X6X6X6X6X6X6X6X6X6X6X6X6X6X6X6X6X6X6X6X6X6X6X6X6X6X6X6X6X6X6X6X6X6X6X6X6X6X6X6X6X6XV.",
"V.6X6X6X6X6X6X6X+.D 6X6X6X6X6X6X6X6X6X6X6X6X6X6X6X6X6X6X6X6X6X6X6X6X6X6X6X6X6X6X6X6X6X6X6X6X6X6X6X6X6X6X6X6X6X6X6X6X6X6X6X6X6X6X6X6X6X6XV.",
"V.6X6X.XK.6X6X6X..K 6X6X6X6X6X6X6X6X6X6X6X6X6X6X6X6X6X6X6X6X6X6X6X6X6X6X6X6X6X6X6X6X6X6X6X6X6X6X6X6X6X6X6X6X6X6X6X6X6X6X6X6X6X6X6X6X6X6XV.",
"V.6X6XL.% m.6XE.6 y.6X6X6X6X6X6X6X6X6X6X6X6X6X6X6X6X6X6X6X6X6X6X6X6X6X6X6X6X6X6X6X6X6X6X6X6X6X6X6X6X6X6X6X6X6X6X6X6X6X6X6X6X6X6X6X6X6X6XV.",
"V.6X6X6Xt.a : p 2.6X6X6X6X6X6X6X6X6X6X6X6X6X6X6X6X6X6X6X6X6X6X6X6X6X6X6X6X6X6X6X6X6X6X6X6X6X6X6X6X6X6X6X6X6X6X6X6X6X6X6X6X6X6X6X6X6X6X6XV.",
"V.6X6X6X6X6X6X2X6X6X6X6X6X6X6X6X6X6X6X6X6X6X-X6X6X6X6X6X6X6X6X6X6X6X6X6X6X6X6X6X6X6X6X6X6X6X-X6X6X6X6X6X6X6X6X6X6X6X6X6X6X6X6X6X6X6X6X6XV.",
"V.6X6X6X6X6XZ.t.6X6X6X6X6X6X6X6X6X6X6X6X6X*XU 6X6X6X6X6X6X6X6X6X6X6X6X6X6X6X6X6X6X6X6X6X6XOXE 6X6X6X6X6X6X6X6X6X6X6X6X6X6X6X6X6X6X6X6X6XV.",
"V.6X6X6X6X3Xv e =X6X6X6X6X6X6X6X6X6X6X6X6X>.  I.6X6X6X6X6X6X6X6X6X6X6X6X6X6X6X6X6X6X6X6X6Xo.o /.6X6X6X6X6X6X6X6X6X6X6X6X6X6X6X6X6X6X6X6XV.",
"V.6X6X6X6X7.    X.6X6X6X6X6X6X6X6X6X6X6X&X4   Z 6X6X6X6X6X6X6X6X6X6X6X6X6X6X6X6X6X6X6X6X.X;   U 6X6X6X6X6X6X6X6X6X6X6X6X6X6X6X6X6X6X6X6XV.",
"V.6X6X6X_.<     # I.6X6X6X6X6X6X6X6X6X6X]       x.6X6X6X6X6X6X6X6X6X6X6X6X6X6X6X6X6X6X6X/     . H.6X6X6X6X6X6X6X6X6X6X6X6X6X6X6X6X6X6X6XV.",
"V.6X6XOXf         9 `.6X6X6X6X6X6X6X6XT.+       e &X6X6X6X6X6X6X6X6X6X6X6X6X6X6X6X6X6XF.X       a ;X6X6X6X6X6X6X6X6X6X6X6X6X6X6X6X6X6X6XV.",
"V.6X'.g             w W.6X6X6X6X6X6X,Xj           ) 6X6X6X6X6X6X6X6X6X6X6X6X6X6X6X6X=Xp           } 6X6X6X6X6X6X6X6X6X6X6X6X6X6X6X6X6X6XV.",
"V.6X2.X               { 6X6X6X6X6X6X/             . e.6X6X6X6X6X6X6X6X6X6X6X6X6X6X5XT             X h.6X6X6X6X6X6X6X6X6X6X6X6X6X6X6X6X6XV.",
"V.6X6Xr.o           -.6X6X6X6X6X6X;.                # D.6X6X6X6X6X6X6X6X6X6X6X6X6X..                = Y.6X6X6X6X6X6X6X6X6X6X6X6X6X6X6X6XV.",
"V.6X6X6X1.        [ 6X6X6X6X6X6X9.X                   > H.6X6X6X6X6X6X6X6X6X6X6X;.                    4 R.6X6X6X6X6X6X6X6X6X6X6X6X6X6X6XV.",
"V.6X6X6X6XK     x 3X6X6X6X6X6X:..                       : Z.6X6X6X6X6X6X6X6X5Xo.                        2 J.6X6X6X6X6X6X6X6X6X6X6X6X6X6XV.",
"V.6X6X6X6X].= o U.6X6X6X6X<X!                             + 7.6X6X6X6X6X6X;XI                             $ t.6X6X6X6X6X6X6X6X6X6X6X6X6XV.",
"V.6X6X6X6X6X%.) 6X6X6X6X6X6X8.O                           < v.6X6X6X6X6X6X5X*.X                           3 m.6X6X6X6X6X6X6X6X6X6X6X6X6XV.",
"V.6X6X6X6X6X$X'.6X6X6X6X6X6X6Xj.$                       t (.6X6X6X6X6X6X6X6X6Xi.+                       s [.6X6X6X6X6X6X6X6X6X6X6X6X6X6XV.",
"V.6X6X6X6X6X6X6X6X6X6X6X6X6X6X6Xb.&                   p ].6X6X6X6X6X6X6X6X6X6X6Xh.@                   h .X6X6X6X6X6X6X6X6X6X6X6X6X6X6X6XV.",
"V.6X6X6X6X6X6X6X6X6X6X6X6X6X6X6X6Xg.X               1 /.6X6X6X6X6X6X6X6X6X6X6X6X6Xw.                7 [.6X6X6X6X6X6X6X6X6X6X6X6X6X6X6X6XV.",
"V.6X6X6X6X6X6X6X6X6X6X6X6X6X6X6X6X6X%.            @ A.6X6X6X6X6X6X6X6X6X6X6X6X6X6X6X[             & P.6X6X6X6X6X6X6X6X6X6X6X6X6X6X6X6X6XV.",
"V.6X6X6X6X6X6X6X6X6X6X6X6X6X6X6X6X6X6XA           %.6X6X6X6X6X6X6X6X6X6X6X6X6X6X6X6X3Xn           5.6X6X6X6X6X6X6X6X6X6X6X6X6X6X6X6X6X6XV.",
"V.6X6X6X6X6X6X6X6X6X6X6X6X6X6X6X6X6X6X{.>       l <X6X6X6X6X6X6X6X6X6X6X6X6X6X6X6X6X6X~.%       N 5X6X6X6X6X6X6X6X6X6X6X6X6X6X6X6X6X6X6XV.",
"V.6X6X6X6X6X6X6X6X6X6X6X6X6X6X6X6X6X6X6X,.    X Y.6X6X6X6X6X6X6X6X6X6X6X6X6X6X6X6X6X6X6X+.    @ /.6X6X6X6X6X6X6X6X6X6X6X6X6X6X6X6X6X6X6XV.",
"V.6X6X6X6X6X6X6X6X6X6X6X6X6X6X6X6X6X6X6X<Xi   E 6X6X6X6X6X6X6X6X6X6X6X6X6X6X6X6X6X6X6X6X-X0   ` 6X6X6X6X6X6X6X6X6X6X6X6X6X6X6X6X6X6X6X6XV.",
"V.6X6X6X6X6X6X6X6X6X6X6X6X6X6X6X6X6X6X6X6Xw.O _.6X6X6X6X6X6X6X6X6X6X6X6X6X6X6X6X6X6X6X6X6X2.% .X6X6X6X6X6X6X6X6X6X6X6X6X6X6X6X6X6X6X6X6XV.",
"V.6X6X6X6X6X6X6X6X6X6X6X6X6X6X6X6X6X6X6X6X<X] 6X6X6X6X6X6X6X6X6X6X6X6X6X6X6X6X6X6X6X6X6X6X=X..6X6X6X6X6X6X6X6X6X6X6X6X6X6X6X6X6X6X6X6X6XV.",
"V.6X6X6X6X6X6X6X6X6X6X6X6X6X6X6X6X6X6X6X6X6X3X6X6X6X6X6X6X6X6X6X6X6X6X6X6X6X6X6X6X6X6X6X6X6X3X6X6X6X6X6X6X6X6X6X6X6X6X6X6X6X6X6X6X6X6X6XV.",
"V.6X6X6X6X6X6X6X6X6X6X6X6X6X6X6X6X6X6X6X6X6X6X6X6X6X6X6X6X6X6X6X6X6X6X6X6X6X6X6X6X6X6X6X6X6X6X6X6X6X6X6X6X6X6X6X6X6X6X6X6X6X6X6X6X6X6X6XV.",
"V.6X6X6X6X6X6X6X6X6X6X6X6X6X6X6X6X6X6X6X6X6X6X6X6X6X6X6X6X6X6X6X6X6X6X6X6X6X6X6X6X6X6X6X6X6X6X6X6X6X6X6X6X6X6X6X6X6X6X6X6X6X6X6X6X6X6X6XV.",
"V.6X6X6X6X6X6X6X6X6X6X6X6X6X6X6X6X6X6X6X6X6X6X6X6X6X6X6X6X6X6X6X6X6X6X6X6X6X6X6X6X6X6X6X6X6X6X6X6X6X6X6X6X6X6X6X6X6X6X6X6X6X6X6X6X6X6X6XV.",
"V.6X6X6X6X6X6X6X6X6X6X6X6X6X6X6X6X6X6X6X6X6X6X6X6X6X6X6X6X6X6X6X6XD.I.6X6X6X6X6X6X6X6X6X6X6X6X6X6X6X6X6X6X6X6X6X6X6X6X6X6X6X6X6X6X6X6X6XV.",
"V.6X6X6X6X6X6X6X6X6X6X6X6X6X6X6X6X6X6X6X6X6X6X6X6X6X6X6X6X6X6X6X6XH T 6X6X6X6X6X6X6X6X6X6X6X6X6X6X6X6X6X6X6X6X6X6X6X6X6X6X6X6X6X6X6X6X6XV.",
"V.6X6X6X6X6X6X6X6X6X6X6X6X6X6X6X6X6X6X6X6X6X6X6X6X6X6X6X6X6X6X6XK.. o E.6X6X6X6X6X6X6X6X6X6X6X6X6X6X6X6X6X6X6X6X6X6X6X6X6X6X6X6X6X6X6X6XV.",
"V.6X6X6X6X6X6X6X6X6X6X6X6X6X6X6X6X6X6X6X6X6X6X6X6X6X6X6X6X6X6X6Xm     F 6X6X6X6X6X6X6X6X6X6X6X6X6X6X6X6X6X6X6X6X6X6X6X6X6X6X6X6X6X6X6X6XV.",
"V.6X6X6X6X6X6X6X6X6X6X6X6X6X6X6X6X6X6X6X6X6X6X6X6X6X6X6X6X6X6Xw.        d.6X6X6X6X6X6X6X6X6X6X6X6X6X6X6X6X6X6X6X6X6X6X6X6X6X6X6X6X6X6X6XV.",
"V.6X6X6X6X6X6X6X6X6X6X6X6X6X6X6X6X6X6X6X6X6X6X6X6X6X6X6X6X6X|.<         3 XX6X6X6X6X6X6X6X6X6X6X6X6X6X6X6X6X6X6X6X6X6X6X6X6X6X6X6X6X6X6XV.",
"V.6X6X6X6X6X6X6X6X6X6X6X6X6X6X6X6X6X6X6X6X6X6X6X6X6X6X6X6X1XC             H 3X6X6X6X6X6X6X6X6X6X6X6X6X6X6X6X6X6X6X6X6X6X6X6X6X6X6X6X6X6XV.",
"V.6X6X6X6X6X6X6X6X6X6X6X6X6X6X6X6X6X6X6X6X6X6X6X6X6X6X6X6X_                 ] 6X6X6X6X6X6X6X6X6X6X6X6X6X6X6X6X6X6X6X6X6X6X6X6X6X6X6X6X6XV.",
"V.6X6X6X6X6X6X6X6X6X6X6X6X6X6X6X6X6X6X6X6X6X6X6X6X6X6X6X$.                    1.6X6X6X6X6X6X6X6X6X6X6X6X6X6X6X6X6X6X6X6X6X6X6X6X6X6X6X6XV.",
"V.6X6X6X6X6X6X6X6X6X6X6X6X6X6X6X6X6X6X6X6X6X6X6X6X6X6XO.                        -.6X6X6X6X6X6X6X6X6X6X6X6X6X6X6X6X6X6X6X6X6X6X6X6X6X6X6XV.",
"V.6X6X6X6X6X6X6X6X6X6X6X6X6X6X6X6X6X6X6X6X6X6X6X6X>XQ                             ^ ,X6X6X6X6X6X6X6X6X6X6X6X6X6X6X6X6X6X6X6X6X6X6X6X6X6XV.",
"V.6X6X6X6X6X6X6X6X6X6X6X6X6X6X6X6X6X6X6X6X6X6X6X6XG.>                             1 I.6X6X6X6X6X6X6X6X6X6X6X6X6X6X6X6X6X6X6X6X6X6X6X6X6XV.",
"V.6X6X6X6X6X6X6X6X6X6X6X6X6X6X6X6X6X6X6X6X6X6X6X6X6X~.i                         d _.6X6X6X6X6X6X6X6X6X6X6X6X6X6X6X6X6X6X6X6X6X6X6X6X6X6XV.",
"V.6X6X6X6X6X6X6X6X6X6X6X6X6X6X6X6X6X6X6X6X6X6X6X6X6X6X|.g                     k XX6X6X6X6X6X6X6X6X6X6X6X6X6X6X6X6X6X6X6X6X6X6X6X6X6X6X6XV.",
"V.6X6X6X6X6X6X6X6X6X6X6X6X6X6X6X6X6X6X6X6X6X6X6X6X6X6X6X|.e                 p OX6X6X6X6X6X6X6X6X6X6X6X6X6X6X6X6X6X6X6X6X6X6X6X6X6X6X6X6XV.",
"V.6X6X6X6X6X6X6X6X6X6X6X6X6X6X6X6X6X6X6X6X6X6X6X6X6X6X6X6XQ.:             ; W.6X6X6X6X6X6X6X6X6X6X6X6X6X6X6X6X6X6X6X6X6X6X6X6X6X6X6X6X6XV.",
"V.6X6X6X6X6X6X6X6X6X6X6X6X6X6X6X6X6X6X6X6X6X6X6X6X6X6X6X6X6Xp.            j.6X6X6X6X6X6X6X6X6X6X6X6X6X6X6X6X6X6X6X6X6X6X6X6X6X6X6X6X6X6XV.",
"V.6X6X6X6X6X6X6X6X6X6X6X6X6X6X6X6X6X6X6X6X6X6X6X6X6X6X6X6X6X6XP         Q 6X6X6X6X6X6X6X6X6X6X6X6X6X6X6X6X6X6X6X6X6X6X6X6X6X6X6X6X6X6X6XV.",
"V.6X6X6X6X6X6X6X6X6X6X6X6X6X6X6X6X6X6X6X6X6X6X6X6X6X6X6X6X6X6X.X,     5 #X6X6X6X6X6X6X6X6X6X6X6X6X6X6X6X6X6X6X6X6X6X6X6X6X6X6X6X6X6X6X6XV.",
"V.6X6X6X6X6X6X6X6X6X6X6X6X6X6X6X6X6X6X6X6X6X6X6X6X6X6X6X6X6X6X6X;.    6.6X6X6X6X6X6X6X6X6X6X6X6X6X6X6X6X6X6X6X6X6X6X6X6X6X6X6X6X6X6X6X6XV.",
"V.6X6X6X6X6X6X6X6X6X6X6X6X6X6X6X6X6X6X6X6X6X6X6X6X6X6X6X6X6X6X6X>Xq p 1X6X6X6X6X6X6X6X6X6X6X6X6X6X6X6X6X6X6X6X6X6X6X6X6X6X6X6X6X6X6X6X6XV.",
"V.6X6X6X6X6X6X6X6X6X6X6X6X6X6X6X6X6X6X6X6X6X6X6X6X6X6X6X6X6X6X6X6X>.7.6X6X6X6X6X6X6X6X6X6X6X6X6X6X6X6X6X6X6X6X6X6X6X6X6X6X6X6X6X6X6X6X6XV.",
"V.6X6X6X6X6X6X6X6X6X6X6X6X6X6X6X6X6X6X6X6X6X6X6X6X6X6X6X6X6X6X6X6X&X-X6X6X6X6X6X6X6X6X6X6X6X6X6X6X6X6X6X6X6X6X6X6X6X6X6X6X6X6X6X6X6X6X6XV.",
"V.6X6X6X6X6X6X6X6X6X6X6X6X6X6X6X6X6X6X6X6X6X6X6X6X6X6X6X6X6X6X6X6X6X6X6X6X6X6X6X6X6X6X6X6X6X6X6X6X6X6X6X6X6X6X6X6X6X6X6X6X6X6X6X6X6X6X6XV.",
"V.6X6X6X6X6X6X6X6X6X6X6X6X6X6X6X6X6X6X6X6X6X6X6X6X6X6X6X6X6X6X6X6X6X6X6X6X6X6X6X6X6X6X6X6X6X6X6X6X6X6X6X6X6X6X6X6X6X6X6X6X6X6X6X6X6X6X6XV.",
"V.6X6X6X6X6X6X6X6X6X6X6X6X6X6X6X6X6X6X6X6X6X6X6X6X6X6X6X6X6X6X6X6X6X6X6X6X6X6X6X6X6X6X6X6X6X6X6X6X6X6X6X6X6X6X6X6X6X6X6X6X6X6X6X6X6X6X6XV.",
"V.6X6X6X6X6X6X6X6X6X6X6X6X6X6X6X6X6X6X6X6X6X#X6X6X6X6X6X6X6X6X6X6X6X6X6X6X6X6X6X6X6X6X6X6X6X#X6X6X6X6X6X6X6X6X6X6X6X6X6X6X6X6X6X6X6X6X6XV.",
"V.6X6X6X6X6X6X6X6X6X6X6X6X6X6X6X6X6X6X6X6X+XB 6X6X6X6X6X6X6X6X6X6X6X6X6X6X6X6X6X6X6X6X6X6X{.J 6X6X6X6X6X6X6X6X6X6X6X6X6X6X6X6X6X6X6X6X6XV.",
"V.6X6X6X6X6X6X6X6X6X6X6X6X6X6X6X6X6X6X6X6X@.  S.6X6X6X6X6X6X6X6X6X6X6X6X6X6X6X6X6X6X6X6X6X' . R.6X6X6X6X6X6X6X6X6X6X6X6X6X6X6X6X6X6X6X6XV.",
"V.6X6X6X6X6X6X6X6X6X6X6X6X6X6X6X6X6X6X6XXX;   c 5X6X6X6X6X6X6X6X6X6X6X6X6X6X6X6X6X6X6X6X[.%   D 6X6X6X6X6X6X6X6X6X6X6X6X6X6X6X6X6X6X6X6XV.",
"V.6X6X6X6X6X6X6X6X6X6X6X6X6X6X6X6X6X6X6X(       a.6X6X6X6X6X6X6X6X6X6X6X6X6X6X6X6X6X6X6XR       v.6X6X6X6X6X6X6X6X6X6X6X6X6X6X6X6X6X6X6XV.",
"V.6X6X6X6X6X6X6X6X6X6X6X6X6X6X6X6X6X6XF.X       3 XX6X6X6X6X6X6X6X6X6X6X6X6X6X6X6X6X6Xl.        r &X6X6X6X6X6X6X6X6X6X6X6X6X6X6X6X6X6X6XV.",
"V.6X6X6X6X6X6X6X6X6X6X6X6X6X6X6X6X6X*Xp           R 6X6X6X6X6X6X6X6X6X6X6X6X6X6X6X6X#X0           ( 6X6X6X6X6X6X6X6X6X6X6X6X6X6X6X6X6X6XV.",
"V.6X6X6X6X6X6X6X6X6X6X6X6X6X6X6X6X5XY               1.6X6X6X6X6X6X6X6X6X6X6X6X6X6X2XF               9.6X6X6X6X6X6X6X6X6X6X6X6X6X6X6X6X6XV.",
"V.6X6X6X6X6X6X6X6X6X6X6X6X6X6X6X6X{                 o z.6X6X6X6X6X6X6X6X6X6X6X6X6X(                 @ S.6X6X6X6X6X6X6X6X6X6X6X6X6X6X6X6XV.",
"V.6X6X6X6X6X6X6X6X6X6X6X6X6X6X6X*.                    & c.6X6X6X6X6X6X6X6X6X6X6X .                    = m.6X6X6X6X6X6X6X6X6X6X6X6X6X6X6XV.",
"V.6X6X6X6X6X6X6X6X6X6X6X6X6X3X]                         $ f.6X6X6X6X6X6X6X6X1X(                         = x.6X6X6X6X6X6X6X6X6X6X6X6X6X6XV.",
"V.6X6X6X6X6X6X6X6X6X6X6X6X<XG                             . &.6X6X6X6X6X6X=XV                             o 3.6X6X6X6X6X6X1X^.6X6X6X6X6XV.",
"V.6X6X6X6X6X6X6X6X6X6X6X6X6Xu.%                           9 K.6X6X6X6X6X6X6X8.+                           u E.6X6X6X6X6X6Xw.P 6X6X6X6X6XV.",
"V.6X6X6X6X6X6X6X6X6X6X6X6X6X6XD.:                       h |.6X6X6X6X6X6X6X6X6Xc.&                       z +X6X6X6X6X6X6X&X8   n.6X6X6X6XV.",
"V.6X6X6X6X6X6X6X6X6X6X6X6X6X6X6XK.>                   l OX6X6X6X6X6X6X6X6X6X6X6XZ.*                   b %X6X6X6X6X6X6X6X`     a ,X6X6X6XV.",
"V.6X6X6X6X6X6X6X6X6X6X6X6X6X6X6X6XA.@               8 {.6X6X6X6X6X6X6X6X6X6X6X6X6Xl.o               t oX6X6X6X6X6X6X6Xk.o       Q 6X6X6XV.",
"V.6X6X6X6X6X6X6X6X6X6X6X6X6X6X6X6X6X7.            * U.6X6X6X6X6X6X6X6X6X6X6X6X6X6X6X=.            > !.6X6X6X6X6X6X6Xb.&           | 6X6XV.",
"V.6X6X6X6X6X6X6X6X6X6X6X6X6X6X6X6X6X6XL           4.6X6X6X6X6X6X6X6X6X6X6X6X6X6X6X6X5XA           t.6X6X6X6X6X6X6Xs.#               ~ 6XV.",
"V.6X6X6X6X6X6X6X6X6X6X6X6X6X6X6X6X6X6XoX4       M 5X6X6X6X6X6X6X6X6X6X6X6X6X6X6X6X6X6X{.>       G 6X6X6X6X6X6X6X6X Xx             , A.6XV.",
"V.6X6X6X6X6X6X6X6X6X6X6X6X6X6X6X6X6X6X6X0.    + ~.6X6X6X6X6X6X6X6X6X6X6X6X6X6X6X6X6X6X6X>.    & [.6X6X6X6X6X6X6X6X6X&Xx         : Y.6X6XV.",
"V.6X6X6X6X6X6X6X6X6X6X6X6X6X6X6X6X6X6X6X2Xg   _ 6X6X6X6X6X6X6X6X6X6X6X6X6X6X6X6X6X6X6X6X,Xu    .6X6X6X6X6X6X6X6X6X6X6X X9     . z.6X6X6XV.",
"V.6X6X6X6X6X6X6X6X6X6X6X6X6X6X6X6X6X6X6X6Xs.# }.6X6X6X6X6X6X6X6X6X6X6X6X6X6X6X6X6X6X6X6X6Xq.- #X6X6X6X6X6X6X6X6X6X6X6X6Xd.    Q 6X6X6X6XV.",
"V.6X6X6X6X6X6X6X6X6X6X6X6X6X6X6X6X6X6X6X6X3X&.6X6X6X6X6X6X6X6X6X6X6X6X6X6X6X6X6X6X6X6X6X6X>X;.6X6X6X6X6X6X6X6X6X6X6X6X6X6XF < XX6X6X6X6XV.",
"V.6X6X6X6X6X6X6X6X6X6X6X6X6X6X6X6X6X6X6X6X6X6X6X6X6X6X6X6X6X6X6X6X6X6X6X6X6X6X6X6X6X6X6X6X6X6X6X6X6X6X6X6X6X6X6X6X6X6X6X6XW.-.6X6X6X6X6XV.",
"V.6X6X6X6X6X6X6X6X6X6X6X6X6X6X6X6X6X6X6X6X6X6X6X6X6X6X6X6X6X6X6X6X6X6X6X6X6X6X6X6X6X6X6X6X6X6X6X6X6X6X6X6X6X6X6X6X6X6X6X6X6X1X6X6X6X6X6XV.",
"V.6X6X6X6X6X6X6X6X6X6X6X6X6X6X6X6X6X6X6X6X6X6X6X6X6X6X6X6X6X6X6X6X6X6X6X6X6X6X6X6X6X6X6X6X6X6X6X6X6X6X6X6X6X6X6X6X6X6X6X<.p : s y.6X6X6XV.",
"V.6X6X6X6X6X6X6X6X6X6X6X6X6X6X6X6X6X6X6X6X6X6X6X6X6X6X6X6X6X6X6X6X6X6X6X6X6X6X6X6X6X6X6X6X6X6X6X6X6X6X6X6X6X6X6X6X6X6Xr.5 T.6Xm.% L.6X6XV.",
"V.6X6X6X6X6X6X6X6X6X6X6X6X6X6X6X6X6X6X6X6X6X6X6X6X6X6X6X6X6X6X6X6X6X6X6X6X6X6X6X6X6X6X6X6X6X6X6X6X6X6X6X6X6X6X6X6X6X6XJ ..6X6X6XJ..X6X6XV.",
"V.6X6X6X6X6X6X6X6X6X6X6X6X6X6X6X6X6X6X6X6X6X6X6X6X6X6X6X6X6X6X6X6X6X6X6X6X6X6X6X6X6X6X6X6X6X6X6X6X6X6X6X6X6X6X6X6X6X6XS +.6X6X6X6X6X6X6XV.",
"V.6X6X6X6X6X6X6X6X6X6X6X6X6X6X6X6X6X6X6X6X6X6X6X6X6X6X6X6X6X6X6X6X6X6X6X6X6X6X6X6X6X6X6X6X6X6X6X6X6X6X6X6X6X6X6X6X6X6X6.8 U.1Xc.W ].6X6XV.",
"V.6X6X6X6X6X6X6X6X6X6X6X6X6X6X6X6X6X6X6X6X6X6X6X6X6X6X6X6X6X6X6X6X6X6X6X6X6X6X6X6X6X6X6X6X6X6X6X6X6X6X6X6X6X6X6X6X6X6X5X#.y 4 U   _.6X6XV.",
"V.6X6X6X6X6X6X6X6X6X6X6X6X6X6X6X6X6X6X6X6X6X6X6X6X6X6X6X6X6X6X6X6X6X6X6X6X6X6X6X6X6X6X6X6X6X6X6X6X6X6X6X6X6X6X6X6X6X6X6X6X6X6X$X  #X6X6XV.",
"V.6X6X6X6X6X6X6X6X6X6X6X6X6X6X6X6X6X6X6X6X6X6X6X6X6X6X6X6X6X6X6X6X6X6X6X6X6X6X6X6X6X6X6X6X6X6X6X6X6X6X6X6X6X6X6X6X6X6X6X6X6X6X`.. 3X6X6XV.",
"V.6X6X6X6X6X6X6X6X6X6X6X6X6X6X6X6X6X6X6X6X6X6X6X6X6X6X6X6X6X6X6X6X6X6X6X6X6X6X6X6X6X6X6X6X6X6X6X6X6X6X6X6X6X6X6X6X6X6XA.# # # @ : 6X6X6XV.",
"N.4X6X6X6X6X6X6X6X6X6X6X6X6X6X6X6X6X6X6X6X6X6X6X6X6X6X6X6X6X6X6X6X6X6X6X6X6X6X6X6X6X6X6X6X6X6X6X6X6X6X6X6X6X6X6X6X6X6X6X6X6X6X6X6X6X6X4XB.",
":XM.V.C.C.C.C.C.C.C.C.C.C.C.C.C.C.C.C.C.C.C.C.C.C.C.C.C.C.C.C.C.C.C.C.C.C.C.C.C.C.C.C.C.C.C.C.C.C.C.C.C.C.C.C.C.C.C.C.C.C.C.C.C.C.C.V.M.:X"
};
