/* XPM */
static const char *four_spades[] = {
/* columns rows colors chars-per-pixel */
"69 100 201 2 ",
"   c black",
".  c #010101",
"X  c #020202",
"o  c gray1",
"O  c #040404",
"+  c gray2",
"@  c #060606",
"#  c #070707",
"$  c gray3",
"%  c #090909",
"&  c gray4",
"*  c #0B0B0B",
"=  c #0C0C0C",
"-  c gray5",
";  c #0E0E0E",
":  c gray6",
">  c #101010",
",  c #111111",
"<  c gray7",
"1  c #131313",
"2  c #151515",
"3  c #161616",
"4  c gray9",
"5  c #181818",
"6  c #191919",
"7  c gray10",
"8  c gray11",
"9  c #1D1D1D",
"0  c #1E1E1E",
"q  c gray12",
"w  c #202020",
"e  c gray13",
"r  c #222222",
"t  c #232323",
"y  c gray14",
"u  c gray15",
"i  c gray16",
"p  c #2A2A2A",
"a  c gray17",
"s  c #2C2C2C",
"d  c #2D2D2D",
"f  c gray18",
"g  c #2F2F2F",
"h  c gray19",
"j  c #313131",
"k  c #323232",
"l  c gray20",
"z  c #343434",
"x  c gray21",
"c  c gray22",
"v  c #393939",
"b  c #3A3A3A",
"n  c gray23",
"m  c gray24",
"M  c #3E3E3E",
"N  c gray25",
"B  c #414141",
"V  c gray26",
"C  c #434343",
"Z  c gray27",
"A  c #464646",
"S  c gray28",
"D  c gray29",
"F  c #4B4B4B",
"G  c #4E4E4E",
"H  c gray32",
"J  c #535353",
"K  c gray33",
"L  c #555555",
"P  c gray34",
"I  c gray35",
"U  c #5A5A5A",
"Y  c #5B5B5B",
"T  c #5D5D5D",
"R  c #5F5F5F",
"E  c #606060",
"W  c gray38",
"Q  c gray39",
"!  c #646464",
"~  c gray40",
"^  c #676767",
"/  c DimGray",
"(  c #6A6A6A",
")  c #6C6C6C",
"_  c #6D6D6D",
"`  c gray43",
"'  c #717171",
"]  c #727272",
"[  c gray45",
"{  c #747474",
"}  c #767676",
"|  c #777777",
" . c #797979",
".. c gray48",
"X. c #7B7B7B",
"o. c gray49",
"O. c #7E7E7E",
"+. c gray50",
"@. c #808080",
"#. c #818181",
"$. c gray51",
"%. c #838383",
"&. c #848484",
"*. c gray52",
"=. c #868686",
"-. c #888888",
";. c #898989",
":. c gray54",
">. c gray55",
",. c #8E8E8E",
"<. c gray57",
"1. c #929292",
"2. c #939393",
"3. c gray58",
"4. c #959595",
"5. c #979797",
"6. c #989898",
"7. c gray60",
"8. c #9A9A9A",
"9. c gray62",
"0. c #A0A0A0",
"q. c #A2A2A2",
"w. c #A4A4A4",
"e. c gray65",
"r. c #A7A7A7",
"t. c gray66",
"y. c #A9A9A9",
"u. c #AAAAAA",
"i. c #ACACAC",
"p. c gray68",
"a. c #AEAEAE",
"s. c #AFAFAF",
"d. c gray69",
"f. c #B1B1B1",
"g. c gray70",
"h. c #B4B4B4",
"j. c gray71",
"k. c #B6B6B6",
"l. c #B7B7B7",
"z. c #B9B9B9",
"x. c #BCBCBC",
"c. c gray74",
"v. c gray",
"b. c #C0C0C0",
"n. c gray76",
"m. c #C3C3C3",
"M. c gray77",
"N. c #C5C5C5",
"B. c #C6C6C6",
"V. c gray78",
"C. c #C8C8C8",
"Z. c gray79",
"A. c #CBCBCB",
"S. c gray80",
"D. c #CECECE",
"F. c gray81",
"G. c #D0D0D0",
"H. c gray82",
"J. c #D2D2D2",
"K. c LightGray",
"L. c gray83",
"P. c #D5D5D5",
"I. c gray84",
"U. c #D7D7D7",
"Y. c gray85",
"T. c #DADADA",
"R. c gray86",
"E. c gainsboro",
"W. c #DDDDDD",
"Q. c gray87",
"!. c #DFDFDF",
"~. c gray88",
"^. c #E1E1E1",
"/. c #E2E2E2",
"(. c gray89",
"). c #E6E6E6",
"_. c #E7E7E7",
"`. c gray91",
"'. c #E9E9E9",
"]. c #EAEAEA",
"[. c gray92",
"{. c #ECECEC",
"}. c gray93",
"|. c #EEEEEE",
" X c #EFEFEF",
".X c gray94",
"XX c #F1F1F1",
"oX c gray95",
"OX c #F3F3F3",
"+X c #F4F4F4",
"@X c gray96",
"#X c #F6F6F6",
"$X c gray97",
"%X c #F8F8F8",
"&X c #F9F9F9",
"*X c gray98",
"=X c #FBFBFB",
"-X c gray99",
";X c #FDFDFD",
":X c #FEFEFE",
">X c white",
/* pixels */
"*Xn.A.S.S.S.S.S.S.S.S.S.S.S.S.S.S.S.S.S.S.S.S.S.S.S.S.S.S.S.S.S.S.S.S.S.S.S.S.S.S.S.S.S.S.S.S.S.S.S.S.S.S.S.S.S.S.S.S.S.S.S.S.S.S.S.A.n.*X",
"m.:X>X>X>X>X>X>X>X>X>X>X>X>X>X>X>X>X>X>X>X>X>X>X>X>X>X>X>X>X>X>X>X>X>X>X>X>X>X>X>X>X>X>X>X>X>X>X>X>X>X>X>X>X>X>X>X>X>X>X>X>X>X>X>X>X>X:XM.",
"A.>X>X>X>X>X>X>X>X>X>X>X>X>X>X>X>X>X>X>X>X>X>X>X>X>X>X>X>X>X>X>X>X>X>X>X>X>X>X>X>X>X>X>X>X>X>X>X>X>X>X>X>X>X>X>X>X>X>X>X>X>X>X>X>X>X>X>XA.",
"A.>X>X>X>X>X>X@Xu J >X>X>X>X>X>X>X>X>X>X>X>X>X>X>X>X>X>X>X>X>X>X>X>X>X>X>X>X>X>X>X>X>X>X>X>X>X>X>X>X>X>X>X>X>X>X>X>X>X>X>X>X>X>X>X>X>X>XA.",
"A.>X>X>X>X>X>X) y J >X>X>X>X>X>X>X>X>X>X>X>X>X>X>X>X>X>X>X>X>X>X>X>X>X>X>X>X>X>X>X>X>X>X>X>X>X>X>X>X>X>X>X>X>X>X>X>X>X>X>X>X>X>X>X>X>X>XA.",
"A.>X>X>X>X>Xx.j ,.J >X>X>X>X>X>X>X>X>X>X>X>X>X>X>X>X>X>X>X>X>X>X>X>X>X>X>X>X>X>X>X>X>X>X>X>X>X>X>X>X>X>X>X>X>X>X>X>X>X>X>X>X>X>X>X>X>X>XA.",
"A.>X>X>X>XXXy H.2.J >X>X>X>X>X>X>X>X>X>X>X>X>X>X>X>X>X>X>X>X>X>X>X>X>X>X>X>X>X>X>X>X>X>X>X>X>X>X>X>X>X>X>X>X>X>X>X>X>X>X>X>X>X>X>X>X>X>XA.",
"A.>X>X>X>XR =.>X2.J >X>X>X>X>X>X>X>X>X>X>X>X>X>X>X>X>X>X>X>X>X>X>X>X>X>X>X>X>X>X>X>X>X>X>X>X>X>X>X>X>X>X>X>X>X>X>X>X>X>X>X>X>X>X>X>X>X>XA.",
"A.>X>X>Xd.n -X>X2.J >X>X>X>X>X>X>X>X>X>X>X>X>X>X>X>X>X>X>X>X>X>X>X>X>X>X>X>X>X>X>X>X>X>X>X>X>X>X>X>X>X>X>X>X>X>X>X>X>X>X>X>X>X>X>X>X>X>XA.",
"A.>X>X>XP 6 q q < & p >X>X>X>X>X>X>X>X>X>X>X>X>X>X>X>X>X>X>X>X>X>X>X>X>X>X>X>X>X>X>X>X>X>X>X>X>X>X>X>X>X>X>X>X>X>X>X>X>X>X>X>X>X>X>X>X>XA.",
"A.>X>X>X>X>X>X>X2.J >X>X>X>X>X>X>X>X>X>X>X>X>X>X>X>X>X>X>X>X>X>X>X>X>X>X>X>X>X>X>X>X>X>X>X>X>X>X>X>X>X>X>X>X>X>X>X>X>X>X>X>X>X>X>X>X>X>XA.",
"A.>X>X>X>X>X>X>X2.J >X>X>X>X>X>X>X>X>X>X>X>X>X>X>X>X>X>X>X>X>X>X>X>X>X>X>X>X>X>X>X>X>X>X>X>X>X>X>X>X>X>X>X>X>X>X>X>X>X>X>X>X>X>X>X>X>X>XA.",
"A.>X>X>X>X>X&XoX>X>X>X>X>X>X>X>X>X>X>X>X>X>X>X>X>X>X>X>X>X>X>X>X>X>X>X>X>X>X>X>X>X>X>X>X>X>X>X>X>X>X>X>X>X>X>X>X>X>X>X>X>X>X>X>X>X>X>X>XA.",
"A.>X>X>X>X>X=.{ >X>X>X>X>X>X>X>X>X>X>X>X>X>Xa.>X>X>X>X>X>X>X>X>X>X>X>X>X>X>X>X>X>X>X>X>X>X>Xp.>X>X>X>X>X>X>X>X>X>X>X>X>X>X>X>X>X>X>X>X>XA.",
"A.>X>X>X>Xm.+ . u.>X>X>X>X>X>X>X>X>X>X>X>XK.% l.>X>X>X>X>X>X>X>X>X>X>X>X>X>X>X>X>X>X>X>X>XV.# m.>X>X>X>X>X>X>X>X>X>X>X>X>X>X>X>X>X>X>X>XA.",
"A.>X>X>X^.2     = L.>X>X>X>X>X>X>X>X>X>X+Xs   4 ).>X>X>X>X>X>X>X>X>X>X>X>X>X>X>X>X>X>X>X Xr   q }.>X>X>X>X>X>X>X>X>X>X>X>X>X>X>X>X>X>X>XA.",
"A.>X>X=Xv         p @X>X>X>X>X>X>X>X>X:XP       c %X>X>X>X>X>X>X>X>X>X>X>X>X>X>X>X>X>X;XD       C =X>X>X>X>X>X>X>X>X>X>X>X>X>X>X>X>X>X>XA.",
"A.>X>X|             ~ >X>X>X>X>X>X>X>X=.          R >X>X>X>X>X>X>X>X>X>X>X>X>X>X>X>X>X|           [ >X>X>X>X>X>X>X>X>X>X>X>X>X>X>X>X>X>XA.",
"A.>XC.X               l.>X>X>X>X>X>Xz.o             4.>X>X>X>X>X>X>X>X>X>X>X>X>X>X>Xp..             9.>X>X>X>X>X>X>X>X>X>X>X>X>X>X>X>X>XA.",
"A.>XG                 n >X>X>X>X>XE.>               + N.>X>X>X>X>X>X>X>X>X>X>X>X>XJ.*               % G.>X>X>X>X>X>X>X>X>X>X>X>X>X>X>X>XA.",
"A.>X9       @ @       & >X>X>X>X$Xk                   5 _.>X>X>X>X>X>X>X>X>X>X>XoXi                   y  X>X>X>X>X>X>X>X>X>X>X>X>X>X>X>XA.",
"A.>XJ     y Q L p     V >X>X>X>X/                       D :X>X>X>X>X>X>X>X>X>X>XU                       P >X>X>X>X>X>X>X>X>X>X>X>X>X>X>XA.",
"A.>X X@. .].g 9 {.o.X.].>X>X>Xx..                         7.>X>X>X>X>X>X>X>X>Xs.                          t.>X>X>X>X>X>X>X>X>X>X>X>X>X>XA.",
"A.>X>X>X>XH.    c.>X>X>X>X>X&Xe                           ; ].>X>X>X>X>X>X>X+X5                           2 oX>X>X>X>X>X>X>X>X>X>X>X>X>XA.",
"A.>X>X>X>Xf.| | e.>X>X>X>X>X1.                              ' >X>X>X>X>X>X>X%.                              +.>X>X>X>X>X>X>X>X>X>X>X>X>XA.",
"A.>X>X>X>X>X>X>X>X>X>X>X>X>Xa                               - *X>X>X>X>X>X>X8                               4 :X>X>X>X>X>X>X>X>X>X>X>X>XA.",
"A.>X>X>X>X>X>X>X>X>X>X>X>X]..                                 B.>X>X>X>X>XE.                                  P.>X>X>X>X>X>X>X>X>X>X>X>XA.",
"A.>X>X>X>X>X>X>X>X>X>X>X>X~.              8   7               x.>X>X>X>X>XH.              8   7               A.>X>X>X>X>X>X>X>X>X>X>X>XA.",
"A.>X>X>X>X>X>X>X>X>X>X>X>X;X6           a 3.   .b           # {.>X>X>X>X>X%X>           x :.  &.h           - #X>X>X>X>X>X>X>X>X>X>X>X>XA.",
"A.>X>X>X>X>X>X>X>X>X>X>X>X>Xr.X       a ^.Q   N _.l         -.>X>X>X>X>X>X>X8..       z `.K   G ^.a       . 5.>X>X>X>X>X>X>X>X>X>X>X>X>XA.",
"A.>X>X>X>X>X>X>X>X>X>X>X>X>X>XB.! B | XX;X5   O |.@X@.C T h.>X>X>X>X>X>X>X>X>Xb.Q V O.@X&X-   & #XXXX.C W c.>X>X>X>X>X>X>X>X>X>X>X>X>X>XA.",
"A.>X>X>X>X>X>X>X>X>X>X>X>X>X>X>X>X>X>X>Xc.      7.>X>X>X>X>X>X>X>X>X>X>X>X>X>X>X>X>X>X>Xa.      t.>X>X>X>X>X>X>X>X>X>X>X>X>X>X>X>X>X>X>XA.",
"A.>X>X>X>X>X>X>X>X>X>X>X>X>X>X>X>X>X>X>XP       z >X>X>X>X>X>X>X>X>X>X>X>X>X>X>X>X>X>X>XS       C >X>X>X>X>X>X>X>X>X>X>X>X>X>X>X>X>X>X>XA.",
"A.>X>X>X>X>X>X>X>X>X>X>X>X>X>X>X>X>X>XR.@         v.>X>X>X>X>X>X>X>X>X>X>X>X>X>X>X>X>XF.X       . A.>X>X>X>X>X>X>X>X>X>X>X>X>X>X>X>X>X>XA.",
"A.>X>X>X>X>X>X>X>X>X>X>X>X>X>X>X>X>X>X}.W.W.W.W.W.`.>X>X>X>X>X>X>X>X>X>X>X>X>X>X>X>X>X].W.W.W.W.W.'.>X>X>X>X>X>X>X>X>X>X>X>X>X>X>X>X>X>XA.",
"A.>X>X>X>X>X>X>X>X>X>X>X>X>X>X>X>X>X>X>X>X>X>X>X>X>X>X>X>X>X>X>X>X>X>X>X>X>X>X>X>X>X>X>X>X>X>X>X>X>X>X>X>X>X>X>X>X>X>X>X>X>X>X>X>X>X>X>XA.",
"A.>X>X>X>X>X>X>X>X>X>X>X>X>X>X>X>X>X>X>X>X>X>X>X>X>X>X>X>X>X>X>X>X>X>X>X>X>X>X>X>X>X>X>X>X>X>X>X>X>X>X>X>X>X>X>X>X>X>X>X>X>X>X>X>X>X>X>XA.",
"A.>X>X>X>X>X>X>X>X>X>X>X>X>X>X>X>X>X>X>X>X>X>X>X>X>X>X>X>X>X>X>X>X>X>X>X>X>X>X>X>X>X>X>X>X>X>X>X>X>X>X>X>X>X>X>X>X>X>X>X>X>X>X>X>X>X>X>XA.",
"A.>X>X>X>X>X>X>X>X>X>X>X>X>X>X>X>X>X>X>X>X>X>X>X>X>X>X>X>X>X>X>X>X>X>X>X>X>X>X>X>X>X>X>X>X>X>X>X>X>X>X>X>X>X>X>X>X>X>X>X>X>X>X>X>X>X>X>XA.",
"A.>X>X>X>X>X>X>X>X>X>X>X>X>X>X>X>X>X>X>X>X>X>X>X>X>X>X>X>X>X>X>X>X>X>X>X>X>X>X>X>X>X>X>X>X>X>X>X>X>X>X>X>X>X>X>X>X>X>X>X>X>X>X>X>X>X>X>XA.",
"A.>X>X>X>X>X>X>X>X>X>X>X>X>X>X>X>X>X>X>X>X>X>X>X>X>X>X>X>X>X>X>X>X>X>X>X>X>X>X>X>X>X>X>X>X>X>X>X>X>X>X>X>X>X>X>X>X>X>X>X>X>X>X>X>X>X>X>XA.",
"A.>X>X>X>X>X>X>X>X>X>X>X>X>X>X>X>X>X>X>X>X>X>X>X>X>X>X>X>X>X>X>X>X>X>X>X>X>X>X>X>X>X>X>X>X>X>X>X>X>X>X>X>X>X>X>X>X>X>X>X>X>X>X>X>X>X>X>XA.",
"A.>X>X>X>X>X>X>X>X>X>X>X>X>X>X>X>X>X>X>X>X>X>X>X>X>X>X>X>X>X>X>X>X>X>X>X>X>X>X>X>X>X>X>X>X>X>X>X>X>X>X>X>X>X>X>X>X>X>X>X>X>X>X>X>X>X>X>XA.",
"A.>X>X>X>X>X>X>X>X>X>X>X>X>X>X>X>X>X>X>X>X>X>X>X>X>X>X>X>X>X>X>X>X>X>X>X>X>X>X>X>X>X>X>X>X>X>X>X>X>X>X>X>X>X>X>X>X>X>X>X>X>X>X>X>X>X>X>XA.",
"A.>X>X>X>X>X>X>X>X>X>X>X>X>X>X>X>X>X>X>X>X>X>X>X>X>X>X>X>X>X>X>X>X>X>X>X>X>X>X>X>X>X>X>X>X>X>X>X>X>X>X>X>X>X>X>X>X>X>X>X>X>X>X>X>X>X>X>XA.",
"A.>X>X>X>X>X>X>X>X>X>X>X>X>X>X>X>X>X>X>X>X>X>X>X>X>X>X>X>X>X>X>X>X>X>X>X>X>X>X>X>X>X>X>X>X>X>X>X>X>X>X>X>X>X>X>X>X>X>X>X>X>X>X>X>X>X>X>XA.",
"A.>X>X>X>X>X>X>X>X>X>X>X>X>X>X>X>X>X>X>X>X>X>X>X>X>X>X>X>X>X>X>X>X>X>X>X>X>X>X>X>X>X>X>X>X>X>X>X>X>X>X>X>X>X>X>X>X>X>X>X>X>X>X>X>X>X>X>XA.",
"A.>X>X>X>X>X>X>X>X>X>X>X>X>X>X>X>X>X>X>X>X>X>X>X>X>X>X>X>X>X>X>X>X>X>X>X>X>X>X>X>X>X>X>X>X>X>X>X>X>X>X>X>X>X>X>X>X>X>X>X>X>X>X>X>X>X>X>XA.",
"A.>X>X>X>X>X>X>X>X>X>X>X>X>X>X>X>X>X>X>X>X>X>X>X>X>X>X>X>X>X>X>X>X>X>X>X>X>X>X>X>X>X>X>X>X>X>X>X>X>X>X>X>X>X>X>X>X>X>X>X>X>X>X>X>X>X>X>XA.",
"A.>X>X>X>X>X>X>X>X>X>X>X>X>X>X>X>X>X>X>X>X>X>X>X>X>X>X>X>X>X>X>X>X>X>X>X>X>X>X>X>X>X>X>X>X>X>X>X>X>X>X>X>X>X>X>X>X>X>X>X>X>X>X>X>X>X>X>XA.",
"A.>X>X>X>X>X>X>X>X>X>X>X>X>X>X>X>X>X>X>X>X>X>X>X>X>X>X>X>X>X>X>X>X>X>X>X>X>X>X>X>X>X>X>X>X>X>X>X>X>X>X>X>X>X>X>X>X>X>X>X>X>X>X>X>X>X>X>XA.",
"A.>X>X>X>X>X>X>X>X>X>X>X>X>X>X>X>X>X>X>X>X>X>X>X>X>X>X>X>X>X>X>X>X>X>X>X>X>X>X>X>X>X>X>X>X>X>X>X>X>X>X>X>X>X>X>X>X>X>X>X>X>X>X>X>X>X>X>XA.",
"A.>X>X>X>X>X>X>X>X>X>X>X>X>X>X>X>X>X>X>X>X>X>X>X>X>X>X>X>X>X>X>X>X>X>X>X>X>X>X>X>X>X>X>X>X>X>X>X>X>X>X>X>X>X>X>X>X>X>X>X>X>X>X>X>X>X>X>XA.",
"A.>X>X>X>X>X>X>X>X>X>X>X>X>X>X>X>X>X>X>X>X>X>X>X>X>X>X>X>X>X>X>X>X>X>X>X>X>X>X>X>X>X>X>X>X>X>X>X>X>X>X>X>X>X>X>X>X>X>X>X>X>X>X>X>X>X>X>XA.",
"A.>X>X>X>X>X>X>X>X>X>X>X>X>X>X>X>X>X>X>X>X>X>X>X>X>X>X>X>X>X>X>X>X>X>X>X>X>X>X>X>X>X>X>X>X>X>X>X>X>X>X>X>X>X>X>X>X>X>X>X>X>X>X>X>X>X>X>XA.",
"A.>X>X>X>X>X>X>X>X>X>X>X>X>X>X>X>X>X>X>X>X>X>X>X>X>X>X>X>X>X>X>X>X>X>X>X>X>X>X>X>X>X>X>X>X>X>X>X>X>X>X>X>X>X>X>X>X>X>X>X>X>X>X>X>X>X>X>XA.",
"A.>X>X>X>X>X>X>X>X>X>X>X>X>X>X>X>X>X>X>X>X>X>X>X>X>X>X>X>X>X>X>X>X>X>X>X>X>X>X>X>X>X>X>X>X>X>X>X>X>X>X>X>X>X>X>X>X>X>X>X>X>X>X>X>X>X>X>XA.",
"A.>X>X>X>X>X>X>X>X>X>X>X>X>X>X>X>X>X>X>X>X>X>X>X>X>X>X>X>X>X>X>X>X>X>X>X>X>X>X>X>X>X>X>X>X>X>X>X>X>X>X>X>X>X>X>X>X>X>X>X>X>X>X>X>X>X>X>XA.",
"A.>X>X>X>X>X>X>X>X>X>X>X>X>X>X>X>X>X>X>X>X>X>X>X>X>X>X>X>X>X>X>X>X>X>X>X>X>X>X>X>X>X>X>X>X>X>X>X>X>X>X>X>X>X>X>X>X>X>X>X>X>X>X>X>X>X>X>XA.",
"A.>X>X>X>X>X>X>X>X>X>X>X>X>X>X>X>X>X>X>X>X>X>X>X>X>X>X>X>X>X>X>X>X>X>X>X>X>X>X>X>X>X>X>X>X>X>X>X>X>X>X>X>X>X>X>X>X>X>X>X>X>X>X>X>X>X>X>XA.",
"A.>X>X>X>X>X>X>X>X>X>X>X>X>X>X>X>X>X>X>X>X>X>X>X>X>X>X>X>X>X>X>X>X>X>X>X>X>X>X>X>X>X>X>X>X>X>X>X>X>X>X>X>X>X>X>X>X>X>X>X>X>X>X>X>X>X>X>XA.",
"A.>X>X>X>X>X>X>X>X>X>X>X>X>X>X>X>X>X>X>X>X>X>X>X>X>X>X>X>X>X>X>X>X>X>X>X>X>X>X>X>X>X>X>X>X>X>X>X>X>X>X>X>X>X>X>X>X>X>X>X>X>X>X>X>X>X>X>XA.",
"A.>X>X>X>X>X>X>X>X>X>X>X>X>X>X>X>X>X>X>X>X>X>X>X>X>X>X>X>X>X>X>X>X>X>X>X>X>X>X>X>X>X>X>X>X>X>X>X>X>X>X>X>X>X>X>X>X>X>X>X>X>X>X>X>X>X>X>XA.",
"A.>X>X>X>X>X>X>X>X>X>X>X>X>X>X>X>X>X>X>X>X>X>X>X>X>X>X>X>X>X>X>X>X>X>X>X>X>X>X>X>X>X>X>X>X>X>X>X>X>X>X>X>X>X>X>X>X>X>X>X>X>X>X>X>X>X>X>XA.",
"A.>X>X>X>X>X>X>X>X>X>X>X>X>X>X>X>X>X>X>X>X>X>X>X>X>X>X>X>X>X>X>X>X>X>X>X>X>X>X>X>X>X>X>X>X>X>X>X>X>X>X>X>X>X>X>X>X>X>X>X>X>X>X>X>X>X>X>XA.",
"A.>X>X>X>X>X>X>X>X>X>X>X>X>X>X>X>X>X>X>X>X>X>X>X>X>X>X>X>X>X>X>X>X>X>X>X>X>X>X>X>X>X>X>X>X>X>X>X>X>X>X>X>X>X>X>X>X>X>X>X>X>X>X>X>X>X>X>XA.",
"A.>X>X>X>X>X>X>X>X>X>X>X>X>X>X>X>X>X>XD.< , , , , e.>X>X>X>X>X>X>X>X>X>X>X>X>X>X>X>X>Xn., , , , , j.>X>X>X>X>X>X>X>X>X>X>X>X>X>X>X>X>X>XA.",
"A.>X>X>X>X>X>X>X>X>X>X>X>X>X>X>X>X>X>X>XS       9 -X>X>X>X>X>X>X>X>X>X>X>X>X>X>X>X>X>X>Xv       d >X>X>X>X>X>X>X>X>X>X>X>X>X>X>X>X>X>X>XA.",
"A.>X>X>X>X>X>X>X>X>X>X>X>X>X>X>X>X>X>X>Xa.      $.>X>X>X>X>X>X>X>X>X>X>X>X>X>X>X>X>X>X>X0.      1.>X>X>X>X>X>X>X>X>X>X>X>X>X>X>X>X>X>X>XA.",
"A.>X>X>X>X>X>X>X>X>X>X>X>X>X>X`.4.] 0.*X*X,     Q.>Xl.[ >.R.>X>X>X>X>X>X>X>X>X(.<.' w.=X+X%   o [.>Xa.' ,.!.>X>X>X>X>X>X>X>X>X>X>X>X>X>XA.",
"A.>X>X>X>X>X>X>X>X>X>X>X>X>XC.,       m [.U   d -X_       @ t.>X>X>X>X>X>X>Xc.-       A  XF   m &XR       % g.>X>X>X>X>X>X>X>X>X>X>X>X>XA.",
"A.>X>X>X>X>X>X>X>X>X>X>X>X>Xd           c 6.  ] `           : oX>X>X>X>X>X;Xw           C >.  #.R           4 &X>X>X>X>X>X>X>X>X>X>X>X>XA.",
"A.>X>X>X>X>X>X>X>X>X>X>X>X'.              g   l               c.>X>X>X>X>XT.              f   k               A.>X>X>X>X>X>X>X>X>X>X>X>XA.",
"A.>X>X>X>X>X>X>X>X>X>X>X>X`.                                  z.>X>X>X>X>XY.                                  Z.>X>X>X>X>X>X>X>X>X>X>X>XA.",
"A.>X>X>X>X>X>X>X>X>X>X>X>X>Xt                               O .X>X>X>X>X>X:X4                               * &X>X>X>X>X>X>X>X>X>X>X>X>XA.",
"A.>X>X>X>X>X>X>X>X>X>X>X>X>X@.                              J >X>X>X>X>X>X>X]                               ! >X>X>X>X>XN.u.u.V.>X>X>X>XA.",
"A.>X>X>X>X>X>X>X>X>X>X>X>X>XOX3                           o I.>X>X>X>X>X>X>X[.;                           $ /.>X>X>X>X>Xs.    k.>X>X>X>XA.",
"A.>X>X>X>X>X>X>X>X>X>X>X>X>X>X0.                          } >X>X>X>X>X>X>X>X>X1.                          =.>X>X>X=Xu.y.#X3 8 %Xr.p.-X>XA.",
"A.>X>X>X>X>X>X>X>X>X>X>X>X>X>X>XJ                       p $X>X>X>X>X>X>X>X>X>X:XS                       c -X>X>X>XT     Z U W S     ~ >XA.",
"A.>X>X>X>X>X>X>X>X>X>X>X>X>X>X>X}.w                   % F.>X>X>X>X>X>X>X>X>X>X>X_.6                   > E.>X>X>X>X,       , <       5 >XA.",
"A.>X>X>X>X>X>X>X>X>X>X>X>X>X>X>X>XZ.#                 0.>X>X>X>X>X>X>X>X>X>X>X>X>Xv.o               . p.>X>X>X>X>Xk                 b >XA.",
"A.>X>X>X>X>X>X>X>X>X>X>X>X>X>X>X>X>X5.              ( >X>X>X>X>X>X>X>X>X>X>X>X>X>X>X;.              ..>X>X>X>X>X>Xw.                i.>XA.",
"A.>X>X>X>X>X>X>X>X>X>X>X>X>X>X>X>X>X>X^           n &X>X>X>X>X>X>X>X>X>X>X>X>X>X>X>X>XI           S -X>X>X>X>X>X>X:XG             H >X>XA.",
"A.>X>X>X>X>X>X>X>X>X>X>X>X>X>X>X>X>X>X*XM       0 '.>X>X>X>X>X>X>X>X>X>X>X>X>X>X>X>X>X#Xl       u  X>X>X>X>X>X>X>X>X].6         8 {.>X>XA.",
"A.>X>X>X>X>X>X>X>X>X>X>X>X>X>X>X>X>X>X>X_.7   $ S.>X>X>X>X>X>X>X>X>X>X>X>X>X>X>X>X>X>X>X!.1   - U.>X>X>X>X>X>X>X>X>X>Xb.+     @ B.>X>X>XA.",
"A.>X>X>X>X>X>X>X>X>X>X>X>X>X>X>X>X>X>X>X>Xb.o 1.>X>X>X>X>X>X>X>X>X>X>X>X>X>X>X>X>X>X>X>X>Xs.  q.>X>X>X>X>X>X>X>X>X>X>X>X1.    8.>X>X>X>XA.",
"A.>X>X>X>X>X>X>X>X>X>X>X>X>X>X>X>X>X>X>X>X>X=.:X>X>X>X>X>X>X>X>X>X>X>X>X>X>X>X>X>X>X>X>X>X>X*.>X>X>X>X>X>X>X>X>X>X>X>X>X>XY Q >X>X>X>X>XA.",
"A.>X>X>X>X>X>X>X>X>X>X>X>X>X>X>X>X>X>X>X>X>X>X>X>X>X>X>X>X>X>X>X>X>X>X>X>X>X>X>X>X>X>X>X>X>X>X>X>X>X>X>X>X>X>X>X>X>X>X>X>X].|.>X>X>X>X>XA.",
"A.>X>X>X>X>X>X>X>X>X>X>X>X>X>X>X>X>X>X>X>X>X>X>X>X>X>X>X>X>X>X>X>X>X>X>X>X>X>X>X>X>X>X>X>X>X>X>X>X>X>X>X>X>X>X>X>X>X>X>X>X>X>X>X>X>X>X>XA.",
"A.>X>X>X>X>X>X>X>X>X>X>X>X>X>X>X>X>X>X>X>X>X>X>X>X>X>X>X>X>X>X>X>X>X>X>X>X>X>X>X>X>X>X>X>X>X>X>X>X>X>X>X>X>X>X>X>X>X>X>XJ 2.>X>X>X>X>X>XA.",
"A.>X>X>X>X>X>X>X>X>X>X>X>X>X>X>X>X>X>X>X>X>X>X>X>X>X>X>X>X>X>X>X>X>X>X>X>X>X>X>X>X>X>X>X>X>X>X>X>X>X>X>X>X>X>X>X>X>X>X>XJ 2.>X>X>X>X>X>XA.",
"A.>X>X>X>X>X>X>X>X>X>X>X>X>X>X>X>X>X>X>X>X>X>X>X>X>X>X>X>X>X>X>X>X>X>X>X>X>X>X>X>X>X>X>X>X>X>X>X>X>X>X>X>X>X>X>X>X>X>Xp & < q q 6 P >X>XA.",
"A.>X>X>X>X>X>X>X>X>X>X>X>X>X>X>X>X>X>X>X>X>X>X>X>X>X>X>X>X>X>X>X>X>X>X>X>X>X>X>X>X>X>X>X>X>X>X>X>X>X>X>X>X>X>X>X>X>X>X>XJ 2.>X-Xn d.>X>XA.",
"A.>X>X>X>X>X>X>X>X>X>X>X>X>X>X>X>X>X>X>X>X>X>X>X>X>X>X>X>X>X>X>X>X>X>X>X>X>X>X>X>X>X>X>X>X>X>X>X>X>X>X>X>X>X>X>X>X>X>X>XJ 2.>X*.E >X>X>XA.",
"A.>X>X>X>X>X>X>X>X>X>X>X>X>X>X>X>X>X>X>X>X>X>X>X>X>X>X>X>X>X>X>X>X>X>X>X>X>X>X>X>X>X>X>X>X>X>X>X>X>X>X>X>X>X>X>X>X>X>X>XJ 2.H.y XX>X>X>XA.",
"A.>X>X>X>X>X>X>X>X>X>X>X>X>X>X>X>X>X>X>X>X>X>X>X>X>X>X>X>X>X>X>X>X>X>X>X>X>X>X>X>X>X>X>X>X>X>X>X>X>X>X>X>X>X>X>X>X>X>X>XJ ,.j c.>X>X>X>XA.",
"A.>X>X>X>X>X>X>X>X>X>X>X>X>X>X>X>X>X>X>X>X>X>X>X>X>X>X>X>X>X>X>X>X>X>X>X>X>X>X>X>X>X>X>X>X>X>X>X>X>X>X>X>X>X>X>X>X>X>X>XJ r _ >X>X>X>X>XA.",
"A.>X>X>X>X>X>X>X>X>X>X>X>X>X>X>X>X>X>X>X>X>X>X>X>X>X>X>X>X>X>X>X>X>X>X>X>X>X>X>X>X>X>X>X>X>X>X>X>X>X>X>X>X>X>X>X>X>X>X>XJ u @X>X>X>X>X>XA.",
"m.:X>X>X>X>X>X>X>X>X>X>X>X>X>X>X>X>X>X>X>X>X>X>X>X>X>X>X>X>X>X>X>X>X>X>X>X>X>X>X>X>X>X>X>X>X>X>X>X>X>X>X>X>X>X>X>X>X>X>X>X>X>X>X>X>X>X:XM.",
"*Xn.A.S.S.S.S.S.S.S.S.S.S.S.S.S.S.S.S.S.S.S.S.S.S.S.S.S.S.S.S.S.S.S.S.S.S.S.S.S.S.S.S.S.S.S.S.S.S.S.S.S.S.S.S.S.S.S.S.S.S.S.S.S.S.S.A.n.*X"
};
