/* XPM */
static const char *four_hearts[] = {
/* columns rows colors chars-per-pixel */
"69 100 207 2 ",
"   c #DF0000",
".  c #DF0101",
"X  c #DF0202",
"o  c #DF0303",
"O  c #DF0404",
"+  c #E00505",
"@  c #E00606",
"#  c #E00707",
"$  c #E00808",
"%  c #E00909",
"&  c #E00A0A",
"*  c #E10C0C",
"=  c #E10D0D",
"-  c #E10E0E",
";  c #E10F0F",
":  c #E11010",
">  c #E11111",
",  c #E11212",
"<  c #E11313",
"1  c #E21414",
"2  c #E21616",
"3  c #E21717",
"4  c #E21919",
"5  c #E21B1B",
"6  c #E31C1C",
"7  c #E31D1D",
"8  c #E31E1E",
"9  c #E31F1F",
"0  c #E32020",
"q  c #E32121",
"w  c #E32222",
"e  c #E32323",
"r  c #E42424",
"t  c #E42626",
"y  c #E42727",
"u  c #E42828",
"i  c #E42A2A",
"p  c #E52D2D",
"a  c #E52E2E",
"s  c #E52F2F",
"d  c #E53030",
"f  c #E53131",
"g  c #E53232",
"h  c #E53333",
"j  c #E63434",
"k  c #E63535",
"l  c #E63636",
"z  c #E63737",
"x  c #E63838",
"c  c #E63939",
"v  c #E63A3A",
"b  c #E63B3B",
"n  c #E73C3C",
"m  c #E73D3D",
"M  c #E73E3E",
"N  c #E73F3F",
"B  c #E74141",
"V  c #E74242",
"C  c #E74343",
"Z  c #E84545",
"A  c #E84848",
"S  c #E84949",
"D  c #E84B4B",
"F  c #E94C4C",
"G  c #E94D4D",
"H  c #E94E4E",
"J  c #E95353",
"K  c #EA5555",
"L  c #EA5656",
"P  c #EA5757",
"I  c #EA5858",
"U  c #EA5959",
"Y  c #EA5A5A",
"T  c #EB5C5C",
"R  c #EB5D5D",
"E  c #EB5E5E",
"W  c #EB5F5F",
"Q  c #EB6060",
"!  c #EB6161",
"~  c #EB6262",
"^  c #EC6565",
"/  c #EC6666",
"(  c #EC6767",
")  c #EC6868",
"_  c #EC6969",
"`  c #EC6A6A",
"'  c #ED6C6C",
"]  c #ED6D6D",
"[  c #ED6F6F",
"{  c #ED7171",
"}  c #ED7272",
"|  c #EE7575",
" . c #EE7777",
".. c #EE7878",
"X. c #EE7A7A",
"o. c #EE7B7B",
"O. c #EF7C7C",
"+. c #EF7D7D",
"@. c #EF7E7E",
"#. c #EF7F7F",
"$. c #EF8181",
"%. c #F08484",
"&. c #F08585",
"*. c #F08686",
"=. c #F08787",
"-. c #F08A8A",
";. c #F08B8B",
":. c #F18E8E",
">. c #F19090",
",. c #F19191",
"<. c #F19292",
"1. c #F19393",
"2. c #F29494",
"3. c #F29595",
"4. c #F29696",
"5. c #F29797",
"6. c #F29999",
"7. c #F29A9A",
"8. c #F29B9B",
"9. c #F39C9C",
"0. c #F39D9D",
"q. c #F39E9E",
"w. c #F3A1A1",
"e. c #F3A2A2",
"r. c #F3A3A3",
"t. c #F4A4A4",
"y. c #F4A5A5",
"u. c #F4A6A6",
"i. c #F4AAAA",
"p. c #F4ABAB",
"a. c #F5AEAE",
"s. c #F5AFAF",
"d. c #F5B0B0",
"f. c #F5B1B1",
"g. c #F5B3B3",
"h. c #F6B5B5",
"j. c #F6B6B6",
"k. c #F6B7B7",
"l. c #F6B9B9",
"z. c #F6BABA",
"x. c #F6BBBB",
"c. c #F7BCBC",
"v. c #F7BDBD",
"b. c #F7BEBE",
"n. c #F7BFBF",
"m. c gray76",
"M. c #C3C3C3",
"N. c gray77",
"B. c #CBCBCB",
"V. c gray80",
"C. c #F7C0C0",
"Z. c #F7C1C1",
"A. c #F7C2C2",
"S. c #F8C4C4",
"D. c #F8C5C5",
"F. c #F8C7C7",
"G. c #F8CACA",
"H. c #F8CBCB",
"J. c #F9CCCC",
"K. c #F9CDCD",
"L. c #F9CECE",
"P. c #F9CFCF",
"I. c #F9D0D0",
"U. c #F9D1D1",
"Y. c #F9D3D3",
"T. c #FAD5D5",
"R. c #FAD7D7",
"E. c #FAD8D8",
"W. c #FAD9D9",
"Q. c #FADBDB",
"!. c #FBDCDC",
"~. c #FBDDDD",
"^. c #FBDEDE",
"/. c #FBDFDF",
"(. c #FBE0E0",
"). c #FBE1E1",
"_. c #FBE2E2",
"`. c #FBE3E3",
"'. c #FCE4E4",
"]. c #FCE5E5",
"[. c #FCE6E6",
"{. c #FCE7E7",
"}. c #FCE8E8",
"|. c #FCE9E9",
" X c #FCEAEA",
".X c #FCEBEB",
"XX c #FDECEC",
"oX c #FDEDED",
"OX c #FDEEEE",
"+X c #FDEFEF",
"@X c #FDF0F0",
"#X c #FDF1F1",
"$X c #FDF3F3",
"%X c #FEF4F4",
"&X c #FEF5F5",
"*X c #FEF6F6",
"=X c #FEF7F7",
"-X c gray98",
";X c #FEF8F8",
":X c #FEF9F9",
">X c #FEFAFA",
",X c #FEFBFB",
"<X c #FFFCFC",
"1X c #FFFDFD",
"2X c #FEFEFE",
"3X c #FFFEFE",
"4X c white",
/* pixels */
"-Xm.B.V.V.V.V.V.V.V.V.V.V.V.V.V.V.V.V.V.V.V.V.V.V.V.V.V.V.V.V.V.V.V.V.V.V.V.V.V.V.V.V.V.V.V.V.V.V.V.V.V.V.V.V.V.V.V.V.V.V.V.V.V.V.V.B.m.-X",
"M.2X4X4X4X4X4X4X4X4X4X4X4X4X4X4X4X4X4X4X4X4X4X4X4X4X4X4X4X4X4X4X4X4X4X4X4X4X4X4X4X4X4X4X4X4X4X4X4X4X4X4X4X4X4X4X4X4X4X4X4X4X4X4X4X4X4X2XN.",
"B.4X4X4X4X4X4X4X4X4X4X4X4X4X4X4X4X4X4X4X4X4X4X4X4X4X4X4X4X4X4X4X4X4X4X4X4X4X4X4X4X4X4X4X4X4X4X4X4X4X4X4X4X4X4X4X4X4X4X4X4X4X4X4X4X4X4X4XB.",
"B.4X4X4X4X4X4X&Xt J 4X4X4X4X4X4X4X4X4X4X4X4X4X4X4X4X4X4X4X4X4X4X4X4X4X4X4X4X4X4X4X4X4X4X4X4X4X4X4X4X4X4X4X4X4X4X4X4X4X4X4X4X4X4X4X4X4X4XB.",
"B.4X4X4X4X4X4X' r J 4X4X4X4X4X4X4X4X4X4X4X4X4X4X4X4X4X4X4X4X4X4X4X4X4X4X4X4X4X4X4X4X4X4X4X4X4X4X4X4X4X4X4X4X4X4X4X4X4X4X4X4X4X4X4X4X4X4XB.",
"B.4X4X4X4X4Xc.f :.J 4X4X4X4X4X4X4X4X4X4X4X4X4X4X4X4X4X4X4X4X4X4X4X4X4X4X4X4X4X4X4X4X4X4X4X4X4X4X4X4X4X4X4X4X4X4X4X4X4X4X4X4X4X4X4X4X4X4XB.",
"B.4X4X4X4X#Xr U.1.J 4X4X4X4X4X4X4X4X4X4X4X4X4X4X4X4X4X4X4X4X4X4X4X4X4X4X4X4X4X4X4X4X4X4X4X4X4X4X4X4X4X4X4X4X4X4X4X4X4X4X4X4X4X4X4X4X4X4XB.",
"B.4X4X4X4XW *.4X1.J 4X4X4X4X4X4X4X4X4X4X4X4X4X4X4X4X4X4X4X4X4X4X4X4X4X4X4X4X4X4X4X4X4X4X4X4X4X4X4X4X4X4X4X4X4X4X4X4X4X4X4X4X4X4X4X4X4X4XB.",
"B.4X4X4Xd.b <X4X1.J 4X4X4X4X4X4X4X4X4X4X4X4X4X4X4X4X4X4X4X4X4X4X4X4X4X4X4X4X4X4X4X4X4X4X4X4X4X4X4X4X4X4X4X4X4X4X4X4X4X4X4X4X4X4X4X4X4X4XB.",
"B.4X4X4XP 4 9 9 , & i 4X4X4X4X4X4X4X4X4X4X4X4X4X4X4X4X4X4X4X4X4X4X4X4X4X4X4X4X4X4X4X4X4X4X4X4X4X4X4X4X4X4X4X4X4X4X4X4X4X4X4X4X4X4X4X4X4XB.",
"B.4X4X4X4X4X4X4X1.J 4X4X4X4X4X4X4X4X4X4X4X4X4X4X4X4X4X4X4X4X4X4X4X4X4X4X4X4X4X4X4X4X4X4X4X4X4X4X4X4X4X4X4X4X4X4X4X4X4X4X4X4X4X4X4X4X4X4XB.",
"B.4X4X4X4X4X4X4X1.J 4X4X4X4X4X4X4X4X4X4X4X4X4X4X4X4X4X4X4X4X4X4X4X4X4X4X4X4X4X4X4X4X4X4X4X4X4X4X4X4X4X4X4X4X4X4X4X4X4X4X4X4X4X4X4X4X4X4XB.",
"B.4X4X4X4X4X4X4X4X4X4X4X4X4X4X4X4X4X4X4X4X4X4X4X4X4X4X4X4X4X4X4X4X4X4X4X4X4X4X4X4X4X4X4X4X4X4X4X4X4X4X4X4X4X4X4X4X4X4X4X4X4X4X4X4X4X4X4XB.",
"B.4X$X=.U X.%X4X8.I } !.4X4X4X4X4X4X4X4X4X4X4X4X4X4X4X4X4X4X4X4X4X4X4X4X4X4X4X4X4X4X4X4X4X4X4X4X4X4X4X4X4X4X4X4X4X4X4X4X4X4X4X4X4X4X4X4XB.",
"B.>Xl       G 2.      = Q.4X4X4X4X4X4X4X4X4X4X4X4X4X4X4X4X4X4X4X4X4X4X4X4X4X4X4X4X4X4X4X4X4X4X4X4X4X4X4X4X4X4X4X4X4X4X4X4X4X4X4X4X4X4X4XB.",
"B.Z.          1         X.4X4X4X4X4X4X4X4X4X4X4X4X4X4X4X4X4X4X4X4X4X4X4X4X4X4X4X4X4X4X4X4X4X4X4X4X4X4X4X4X4X4X4X4X4X4X4X4X4X4X4X4X4X4X4XB.",
"B.d.                    ) 4X4X4X4X4X4X4X4X4X4X4X4X4X4X4X4X4X4X4X4X4X4X4X4X4X4X4X4X4X4X4X4X4X4X4X4X4X4X4X4X4X4X4X4X4X4X4X4X4X4X4X4X4X4X4XB.",
"B.@X<                   c.4X4X4Xp.S 8 t R W.4X4X;X*.g 6 h #.+X4X4X4X4X4X4X4X$X>.G z K g.4X4X4X/.[ M m [ T.4X4X4X4X4X4X4X4X4X4X4X4X4X4X4XB.",
"B.4Xi..               ^ 4X4X3X!           ; Y.<XZ           0 /.4X4X4X4X4X!.w           O.4XJ.:         + 5.4X4X4X4X4X4X4X4X4X4X4X4X4X4XB.",
"B.4X4X@.            m :X4X4Xq.              Z y.              m 4X4X4X4X1Xf             . I.j             X G.4X4X4X4X4X4X4X4X4X4X4X4X4XB.",
"B.4X4X3XJ         e XX4X4X4Xc               . u                 E.4X4X4XZ.                z                 W 4X4X4X4X4X4X4X4X4X4X4X4X4XB.",
"B.4X4X4X*Xj     = Y.4X4X4X4X>                                   s.4X4X4X<.                                  d 4X4X4X4X4X4X4X4X4X4X4X4X4XB.",
"B.4X4X4X4X(.=   a.4X4X4X4X4X4                                   l.4X4X4X3.                                  h 4X4X4X4X4X4X4X4X4X4X4X4X4XB.",
"B.4X4X4X4X4X-.A 4X4X4X4X4X4X^                                 > $X4X4X4XE.X                                 ..4X4X4X4X4X4X4X4X4X4X4X4X4XB.",
"B.4X4X4X4X4X+Xx.4X4X4X4X4X4X'.&                               :.4X4X4X4X4XT                               : .X4X4X4X4X4X4X4X4X4X4X4X4X4XB.",
"B.4X4X4X4X4X4X4X4X4X4X4X4X4X4X,.                            b >X4X4X4X4X4X].3                             q.4X4X4X4X4X4X4X4X4X4X4X4X4X4XB.",
"B.4X4X4X4X4X4X4X4X4X4X4X4X4X4X4XU                         4 ].4X4X4X4X4X4X4Xb.O                         / 4X4X4X4X4X4X4X4X4X4X4X4X4X4X4XB.",
"B.4X4X4X4X4X4X4X4X4X4X4X4X4X4X4X=Xn                     = K.4X4X4X4X4X4X4X4X4X9.                      B :X4X4X4X4X4X4X4X4X4X4X4X4X4X4X4XB.",
"B.4X4X4X4X4X4X4X4X4X4X4X4X4X4X4X4XXXy                 O j.4X4X4X4X4X4X4X4X4X4X4XO.                  s #X4X4X4X4X4X4X4X4X4X4X4X4X4X4X4X4XB.",
"B.4X4X4X4X4X4X4X4X4X4X4X4X4X4X4X4X4X^.3             . 0.4X4X4X4X4X4X4X4X4X4X4X4X3XW               5 _.4X4X4X4X4X4X4X4X4X4X4X4X4X4X4X4X4XB.",
"B.4X4X4X4X4X4X4X4X4X4X4X4X4X4X4X4X4X4XF.@           ..4X4X4X4X4X4X4X4X4X4X4X4X4X4X:Xm           * Y.4X4X4X4X4X4X4X4X4X4X4X4X4X4X4X4X4X4XB.",
"B.4X4X4X4X4X4X4X4X4X4X4X4X4X4X4X4X4X4X4X4.        B <X4X4X4X4X4X4X4X4X4X4X4X4X4X4X4X}.5         e.4X4X4X4X4X4X4X4X4X4X4X4X4X4X4X4X4X4X4XB.",
"B.4X4X4X4X4X4X4X4X4X4X4X4X4X4X4X4X4X4X4X4XH     ; [.4X4X4X4X4X4X4X4X4X4X4X4X4X4X4X4X4Xc.      ~ 4X4X4X4X4X4X4X4X4X4X4X4X4X4X4X4X4X4X4X4XB.",
"B.4X4X4X4X4X4X4X4X4X4X4X4X4X4X4X4X4X4X4X4X).*   <.4X4X4X4X4X4X4X4X4X4X4X4X4X4X4X4X4X4X4XY   ,  X4X4X4X4X4X4X4X4X4X4X4X4X4X4X4X4X4X4X4X4XB.",
"B.4X4X4X4X4X4X4X4X4X4X4X4X4X4X4X4X4X4X4X4X4X| 6 <X4X4X4X4X4X4X4X4X4X4X4X4X4X4X4X4X4X4X4X'.O ;.4X4X4X4X4X4X4X4X4X4X4X4X4X4X4X4X4X4X4X4X4XB.",
"B.4X4X4X4X4X4X4X4X4X4X4X4X4X4X4X4X4X4X4X4X4XW.o.4X4X4X4X4X4X4X4X4X4X4X4X4X4X4X4X4X4X4X4X4XJ {.4X4X4X4X4X4X4X4X4X4X4X4X4X4X4X4X4X4X4X4X4XB.",
"B.4X4X4X4X4X4X4X4X4X4X4X4X4X4X4X4X4X4X4X4X4X4X#X4X4X4X4X4X4X4X4X4X4X4X4X4X4X4X4X4X4X4X4X4X}.4X4X4X4X4X4X4X4X4X4X4X4X4X4X4X4X4X4X4X4X4X4XB.",
"B.4X4X4X4X4X4X4X4X4X4X4X4X4X4X4X4X4X4X4X4X4X4X4X4X4X4X4X4X4X4X4X4X4X4X4X4X4X4X4X4X4X4X4X4X4X4X4X4X4X4X4X4X4X4X4X4X4X4X4X4X4X4X4X4X4X4X4XB.",
"B.4X4X4X4X4X4X4X4X4X4X4X4X4X4X4X4X4X4X4X4X4X4X4X4X4X4X4X4X4X4X4X4X4X4X4X4X4X4X4X4X4X4X4X4X4X4X4X4X4X4X4X4X4X4X4X4X4X4X4X4X4X4X4X4X4X4X4XB.",
"B.4X4X4X4X4X4X4X4X4X4X4X4X4X4X4X4X4X4X4X4X4X4X4X4X4X4X4X4X4X4X4X4X4X4X4X4X4X4X4X4X4X4X4X4X4X4X4X4X4X4X4X4X4X4X4X4X4X4X4X4X4X4X4X4X4X4X4XB.",
"B.4X4X4X4X4X4X4X4X4X4X4X4X4X4X4X4X4X4X4X4X4X4X4X4X4X4X4X4X4X4X4X4X4X4X4X4X4X4X4X4X4X4X4X4X4X4X4X4X4X4X4X4X4X4X4X4X4X4X4X4X4X4X4X4X4X4X4XB.",
"B.4X4X4X4X4X4X4X4X4X4X4X4X4X4X4X4X4X4X4X4X4X4X4X4X4X4X4X4X4X4X4X4X4X4X4X4X4X4X4X4X4X4X4X4X4X4X4X4X4X4X4X4X4X4X4X4X4X4X4X4X4X4X4X4X4X4X4XB.",
"B.4X4X4X4X4X4X4X4X4X4X4X4X4X4X4X4X4X4X4X4X4X4X4X4X4X4X4X4X4X4X4X4X4X4X4X4X4X4X4X4X4X4X4X4X4X4X4X4X4X4X4X4X4X4X4X4X4X4X4X4X4X4X4X4X4X4X4XB.",
"B.4X4X4X4X4X4X4X4X4X4X4X4X4X4X4X4X4X4X4X4X4X4X4X4X4X4X4X4X4X4X4X4X4X4X4X4X4X4X4X4X4X4X4X4X4X4X4X4X4X4X4X4X4X4X4X4X4X4X4X4X4X4X4X4X4X4X4XB.",
"B.4X4X4X4X4X4X4X4X4X4X4X4X4X4X4X4X4X4X4X4X4X4X4X4X4X4X4X4X4X4X4X4X4X4X4X4X4X4X4X4X4X4X4X4X4X4X4X4X4X4X4X4X4X4X4X4X4X4X4X4X4X4X4X4X4X4X4XB.",
"B.4X4X4X4X4X4X4X4X4X4X4X4X4X4X4X4X4X4X4X4X4X4X4X4X4X4X4X4X4X4X4X4X4X4X4X4X4X4X4X4X4X4X4X4X4X4X4X4X4X4X4X4X4X4X4X4X4X4X4X4X4X4X4X4X4X4X4XB.",
"B.4X4X4X4X4X4X4X4X4X4X4X4X4X4X4X4X4X4X4X4X4X4X4X4X4X4X4X4X4X4X4X4X4X4X4X4X4X4X4X4X4X4X4X4X4X4X4X4X4X4X4X4X4X4X4X4X4X4X4X4X4X4X4X4X4X4X4XB.",
"B.4X4X4X4X4X4X4X4X4X4X4X4X4X4X4X4X4X4X4X4X4X4X4X4X4X4X4X4X4X4X4X4X4X4X4X4X4X4X4X4X4X4X4X4X4X4X4X4X4X4X4X4X4X4X4X4X4X4X4X4X4X4X4X4X4X4X4XB.",
"B.4X4X4X4X4X4X4X4X4X4X4X4X4X4X4X4X4X4X4X4X4X4X4X4X4X4X4X4X4X4X4X4X4X4X4X4X4X4X4X4X4X4X4X4X4X4X4X4X4X4X4X4X4X4X4X4X4X4X4X4X4X4X4X4X4X4X4XB.",
"B.4X4X4X4X4X4X4X4X4X4X4X4X4X4X4X4X4X4X4X4X4X4X4X4X4X4X4X4X4X4X4X4X4X4X4X4X4X4X4X4X4X4X4X4X4X4X4X4X4X4X4X4X4X4X4X4X4X4X4X4X4X4X4X4X4X4X4XB.",
"B.4X4X4X4X4X4X4X4X4X4X4X4X4X4X4X4X4X4X4X4X4X4X4X4X4X4X4X4X4X4X4X4X4X4X4X4X4X4X4X4X4X4X4X4X4X4X4X4X4X4X4X4X4X4X4X4X4X4X4X4X4X4X4X4X4X4X4XB.",
"B.4X4X4X4X4X4X4X4X4X4X4X4X4X4X4X4X4X4X4X4X4X4X4X4X4X4X4X4X4X4X4X4X4X4X4X4X4X4X4X4X4X4X4X4X4X4X4X4X4X4X4X4X4X4X4X4X4X4X4X4X4X4X4X4X4X4X4XB.",
"B.4X4X4X4X4X4X4X4X4X4X4X4X4X4X4X4X4X4X4X4X4X4X4X4X4X4X4X4X4X4X4X4X4X4X4X4X4X4X4X4X4X4X4X4X4X4X4X4X4X4X4X4X4X4X4X4X4X4X4X4X4X4X4X4X4X4X4XB.",
"B.4X4X4X4X4X4X4X4X4X4X4X4X4X4X4X4X4X4X4X4X4X4X4X4X4X4X4X4X4X4X4X4X4X4X4X4X4X4X4X4X4X4X4X4X4X4X4X4X4X4X4X4X4X4X4X4X4X4X4X4X4X4X4X4X4X4X4XB.",
"B.4X4X4X4X4X4X4X4X4X4X4X4X4X4X4X4X4X4X4X4X4X4X4X4X4X4X4X4X4X4X4X4X4X4X4X4X4X4X4X4X4X4X4X4X4X4X4X4X4X4X4X4X4X4X4X4X4X4X4X4X4X4X4X4X4X4X4XB.",
"B.4X4X4X4X4X4X4X4X4X4X4X4X4X4X4X4X4X4X4X4X4X4X4X4X4X4X4X4X4X4X4X4X4X4X4X4X4X4X4X4X4X4X4X4X4X4X4X4X4X4X4X4X4X4X4X4X4X4X4X4X4X4X4X4X4X4X4XB.",
"B.4X4X4X4X4X4X4X4X4X4X4X4X4X4X4X4X4X4X4X4X4X4X4X4X4X4X4X4X4X4X4X4X4X4X4X4X4X4X4X4X4X4X4X4X4X4X4X4X4X4X4X4X4X4X4X4X4X4X4X4X4X4X4X4X4X4X4XB.",
"B.4X4X4X4X4X4X4X4X4X4X4X4X4X4X4X4X4X4X4X4X4X4X4X4X4X4X4X4X4X4X4X4X4X4X4X4X4X4X4X4X4X4X4X4X4X4X4X4X4X4X4X4X4X4X4X4X4X4X4X4X4X4X4X4X4X4X4XB.",
"B.4X4X4X4X4X4X4X4X4X4X4X4X4X4X4X4X4X4X4X4X4X4X4X4X4X4X4X4X4X4X4X4X4X4X4X4X4X4X4X4X4X4X4X4X4X4X4X4X4X4X4X4X4X4X4X4X4X4X4X4X4X4X4X4X4X4X4XB.",
"B.4X4X4X4X4X4X4X4X4X4X4X4X4X4X4X4X4X4X4X4X4X4X4X4X4X4X4X4X4X4X4X4X4X4X4X4X4X4X4X4X4X4X4X4X4X4X4X4X4X4X4X4X4X4X4X4X4X4X4X4X4X4X4X4X4X4X4XB.",
"B.4X4X4X4X4X4X4X4X4X4X4X4X4X4X4X4X4X4X4X4X4X4X4X4X4X4X4X4X4X4X4X4X4X4X4X4X4X4X4X4X4X4X4X4X4X4X4X4X4X4X4X4X4X4X4X4X4X4X4X4X4X4X4X4X4X4X4XB.",
"B.4X4X4X4X4X4X4X4X4X4X4X4X4X4X4X4X4X4X4X4X4X4X4X4X4X4X4X4X4X4X4X4X4X4X4X4X4X4X4X4X4X4X4X4X4X4X4X4X4X4X4X4X4X4X4X4X4X4X4X4X4X4X4X4X4X4X4XB.",
"B.4X4X4X4X4X4X4X4X4X4X4X4X4X4X4X4X4X4X4X4X4X4X4X4X4X4X4X4X4X4X4X4X4X4X4X4X4X4X4X4X4X4X4X4X4X4X4X4X4X4X4X4X4X4X4X4X4X4X4X4X4X4X4X4X4X4X4XB.",
"B.4X4X4X4X4X4X4X4X4X4X4X4X4X4X4X4X4X4X4X4X4X4X!.4X4X4X4X4X4X4X4X4X4X4X4X4X4X4X4X4X4X4X4X4X}.4X4X4X4X4X4X4X4X4X4X4X4X4X4X4X4X4X4X4X4X4X4XB.",
"B.4X4X4X4X4X4X4X4X4X4X4X4X4X4X4X4X4X4X4X4X4XS.~ 4X4X4X4X4X4X4X4X4X4X4X4X4X4X4X4X4X4X4X4X4XK [.4X4X4X4X4X4X4X4X4X4X4X4X4X4X4X4X4X4X4X4X4XB.",
"B.4X4X4X4X4X4X4X4X4X4X4X4X4X4X4X4X4X4X4X4X4XE * oX4X4X4X4X4X4X4X4X4X4X4X4X4X4X4X4X4X4X4X{.+ &.4X4X4X4X4X4X4X4X4X4X4X4X4X4X4X4X4X4X4X4X4XB.",
"B.4X4X4X4X4X4X4X4X4X4X4X4X4X4X4X4X4X4X4X4XJ.o   ( 4X4X4X4X4X4X4X4X4X4X4X4X4X4X4X4X4X4X4XW   - ].4X4X4X4X4X4X4X4X4X4X4X4X4X4X4X4X4X4X4X4XB.",
"B.4X4X4X4X4X4X4X4X4X4X4X4X4X4X4X4X4X4X4X>Xj     X D.4X4X4X4X4X4X4X4X4X4X4X4X4X4X4X4X4XZ..     U 4X4X4X4X4X4X4X4X4X4X4X4X4X4X4X4X4X4X4X4XB.",
"B.4X4X4X4X4X4X4X4X4X4X4X4X4X4X4X4X4X4X4X[         7  X4X4X4X4X4X4X4X4X4X4X4X4X4X4X4X|.6         9.4X4X4X4X4X4X4X4X4X4X4X4X4X4X4X4X4X4X4XB.",
"B.4X4X4X4X4X4X4X4X4X4X4X4X4X4X4X4X4X4Xt.            V >X4X4X4X4X4X4X4X4X4X4X4X4X4X>XV           $ H.4X4X4X4X4X4X4X4X4X4X4X4X4X4X4X4X4X4XB.",
"B.4X4X4X4X4X4X4X4X4X4X4X4X4X4X4X4X4XA.#               Y 3X4X4X4X4X4X4X4X4X4X4X4X4X_               4 /.4X4X4X4X4X4X4X4X4X4X4X4X4X4X4X4X4XB.",
"B.4X4X4X4X4X4X4X4X4X4X4X4X4X4X4X4XT.>                   #.4X4X4X4X4X4X4X4X4X4X4X$.                  i OX4X4X4X4X4X4X4X4X4X4X4X4X4X4X4X4XB.",
"B.4X4X4X4X4X4X4X4X4X4X4X4X4X4X4X].9                     . q.4X4X4X4X4X4X4X4X4Xr..                     M ;X4X4X4X4X4X4X4X4X4X4X4X4X4X4X4XB.",
"B.4X4X4X4X4X4X4X4X4X4X4X4X4X4X;Xj                         + S.4X4X4X4X4X4X4Xn.O                         W 4X4X4X4X4X4X4X4X4X4X4X4X4X4X4XB.",
"B.4X4X4X4X4X4X4X4X4X4X4X4X4X4X_                             5 .X4X4X4X4X4X[.3                             6.4X4X4X4X4X4X4X%X,X4X4X4X4X4XB.",
"B.4X4X4X4X4X4X4X4X4X4X4X4X4XK.X                               ` 4X4X4X4X4XT                               = }.4X4X4X4X4X4X0.f.4X4X4X4X4XB.",
"B.4X4X4X4X4X4X4X4X4X4X4X4X4XF                                 + {.4X4X4XR.X                                  .4X4X4X4X4X;Xt p ,X4X4X4X4XB.",
"B.4X4X4X4X4X4X4X4X4X4X4X4X4X>                                   d.4X4X4X3.                                  h 4X4X4X4X4X`     +.4X4X4X4XB.",
"B.4X4X4X4X4X4X4X4X4X4X4X4X4X2                                   h.4X4X4X1.                                  g 4X4X4X4X9.      . u.4X4X4XB.",
"B.4X4X4X4X4X4X4X4X4X4X4X4X4XD               @ C               X {.4X4X4XA.                x                 Q 4X4X4Xv.+         % H.4X4XB.",
"B.4X4X4X4X4X4X4X4X4X4X4X4X4Xn.X             ! C.              ! 4X4X4X4X1Xh             . U.k             X H.4X4X^.1             4 `.4XB.",
"B.4X4X4X4X4X4X4X4X4X4X4X4X4X4X7.#         a XX4XX.          D &X4X4X4X4X4X~.r           #.4XL.>         + 7.4X4X:Xi                 v 3XB.",
"B.4X4X4X4X4X4X4X4X4X4X4X4X4X4X4X(.%.U W 6.&X4X4X4XC.] K [ z.4X4X4X4X4X4X4X4X%X<.H x L h.4X4X4X(.{ N N { R.4X4X4Xw.                    k.B.",
"B.4X4X4X4X4X4X4X4X4X4X4X4X4X4X4X4X4X4X4X4X4X4X4X4X4X4X4X4X4X4X4X4X4X4X4X4X4X4X4X4X4X4X4X4X4X4X4X4X4X4X4X4X4X4X4X@.                    1.B.",
"B.4X4X4X4X4X4X4X4X4X4X4X4X4X4X4X4X4X4X4X4X4X4X4X4X4X4X4X4X4X4X4X4X4X4X4X4X4X4X4X4X4X4X4X4X4X4X4X4X4X4X4X4X4X4X4Xj.        l q       . J.B.",
"B.4X4X4X4X4X4X4X4X4X4X4X4X4X4X4X4X4X4X4X4X4X4X4X4X4X4X4X4X4X4X4X4X4X4X4X4X4X4X4X4X4X4X4X4X4X4X4X4X4X4X4X4X4X4X4X4X..O   1 K.b.*   $ -.4XB.",
"B.4X4X4X4X4X4X4X4X4X4X4X4X4X4X4X4X4X4X4X4X4X4X4X4X4X4X4X4X4X4X4X4X4X4X4X4X4X4X4X4X4X4X4X4X4X4X4X4X4X4X4X4X4X4X4X4X4XoXP.%X4X4X#XP.@X4X4XB.",
"B.4X4X4X4X4X4X4X4X4X4X4X4X4X4X4X4X4X4X4X4X4X4X4X4X4X4X4X4X4X4X4X4X4X4X4X4X4X4X4X4X4X4X4X4X4X4X4X4X4X4X4X4X4X4X4X4X4X4X4X4X4X4X4X4X4X4X4XB.",
"B.4X4X4X4X4X4X4X4X4X4X4X4X4X4X4X4X4X4X4X4X4X4X4X4X4X4X4X4X4X4X4X4X4X4X4X4X4X4X4X4X4X4X4X4X4X4X4X4X4X4X4X4X4X4X4X4X4X4X4XJ 1.4X4X4X4X4X4XB.",
"B.4X4X4X4X4X4X4X4X4X4X4X4X4X4X4X4X4X4X4X4X4X4X4X4X4X4X4X4X4X4X4X4X4X4X4X4X4X4X4X4X4X4X4X4X4X4X4X4X4X4X4X4X4X4X4X4X4X4X4XJ 1.4X4X4X4X4X4XB.",
"B.4X4X4X4X4X4X4X4X4X4X4X4X4X4X4X4X4X4X4X4X4X4X4X4X4X4X4X4X4X4X4X4X4X4X4X4X4X4X4X4X4X4X4X4X4X4X4X4X4X4X4X4X4X4X4X4X4X4Xi & , 9 9 4 P 4X4XB.",
"B.4X4X4X4X4X4X4X4X4X4X4X4X4X4X4X4X4X4X4X4X4X4X4X4X4X4X4X4X4X4X4X4X4X4X4X4X4X4X4X4X4X4X4X4X4X4X4X4X4X4X4X4X4X4X4X4X4X4X4XJ 1.4X<Xb d.4X4XB.",
"B.4X4X4X4X4X4X4X4X4X4X4X4X4X4X4X4X4X4X4X4X4X4X4X4X4X4X4X4X4X4X4X4X4X4X4X4X4X4X4X4X4X4X4X4X4X4X4X4X4X4X4X4X4X4X4X4X4X4X4XJ 1.4X&.Q 4X4X4XB.",
"B.4X4X4X4X4X4X4X4X4X4X4X4X4X4X4X4X4X4X4X4X4X4X4X4X4X4X4X4X4X4X4X4X4X4X4X4X4X4X4X4X4X4X4X4X4X4X4X4X4X4X4X4X4X4X4X4X4X4X4XJ 1.U.r #X4X4X4XB.",
"B.4X4X4X4X4X4X4X4X4X4X4X4X4X4X4X4X4X4X4X4X4X4X4X4X4X4X4X4X4X4X4X4X4X4X4X4X4X4X4X4X4X4X4X4X4X4X4X4X4X4X4X4X4X4X4X4X4X4X4XJ :.f v.4X4X4X4XB.",
"B.4X4X4X4X4X4X4X4X4X4X4X4X4X4X4X4X4X4X4X4X4X4X4X4X4X4X4X4X4X4X4X4X4X4X4X4X4X4X4X4X4X4X4X4X4X4X4X4X4X4X4X4X4X4X4X4X4X4X4XJ w ] 4X4X4X4X4XB.",
"B.4X4X4X4X4X4X4X4X4X4X4X4X4X4X4X4X4X4X4X4X4X4X4X4X4X4X4X4X4X4X4X4X4X4X4X4X4X4X4X4X4X4X4X4X4X4X4X4X4X4X4X4X4X4X4X4X4X4X4XJ t &X4X4X4X4X4XB.",
"B.4X4X4X4X4X4X4X4X4X4X4X4X4X4X4X4X4X4X4X4X4X4X4X4X4X4X4X4X4X4X4X4X4X4X4X4X4X4X4X4X4X4X4X4X4X4X4X4X4X4X4X4X4X4X4X4X4X4X4X4X4X4X4X4X4X4X4XB.",
"M.2X4X4X4X4X4X4X4X4X4X4X4X4X4X4X4X4X4X4X4X4X4X4X4X4X4X4X4X4X4X4X4X4X4X4X4X4X4X4X4X4X4X4X4X4X4X4X4X4X4X4X4X4X4X4X4X4X4X4X4X4X4X4X4X4X4X2XN.",
"-Xm.B.V.V.V.V.V.V.V.V.V.V.V.V.V.V.V.V.V.V.V.V.V.V.V.V.V.V.V.V.V.V.V.V.V.V.V.V.V.V.V.V.V.V.V.V.V.V.V.V.V.V.V.V.V.V.V.V.V.V.V.V.V.V.V.B.m.-X"
};
