/* XPM */
static const char *four_diamonds[] = {
/* columns rows colors chars-per-pixel */
"69 100 197 2 ",
"   c #DF0000",
".  c #DF0101",
"X  c #DF0202",
"o  c #DF0303",
"O  c #DF0404",
"+  c #E00505",
"@  c #E00606",
"#  c #E00707",
"$  c #E00808",
"%  c #E00909",
"&  c #E00A0A",
"*  c #E00B0B",
"=  c #E10C0C",
"-  c #E10D0D",
";  c #E10E0E",
":  c #E10F0F",
">  c #E11010",
",  c #E11111",
"<  c #E11212",
"1  c #E11313",
"2  c #E21414",
"3  c #E21515",
"4  c #E21616",
"5  c #E21919",
"6  c #E21A1A",
"7  c #E21B1B",
"8  c #E31C1C",
"9  c #E31E1E",
"0  c #E31F1F",
"q  c #E32020",
"w  c #E32121",
"e  c #E32222",
"r  c #E32323",
"t  c #E42424",
"y  c #E42525",
"u  c #E42626",
"i  c #E42828",
"p  c #E42929",
"a  c #E42A2A",
"s  c #E42B2B",
"d  c #E52C2C",
"f  c #E52D2D",
"g  c #E52F2F",
"h  c #E53131",
"j  c #E63636",
"k  c #E63737",
"l  c #E63838",
"z  c #E63939",
"x  c #E63A3A",
"c  c #E63B3B",
"v  c #E73C3C",
"b  c #E74040",
"n  c #E74141",
"m  c #E74242",
"M  c #E74343",
"N  c #E84747",
"B  c #E84848",
"V  c #E84A4A",
"C  c #E84B4B",
"Z  c #E94D4D",
"A  c #E95050",
"S  c #E95252",
"D  c #E95353",
"F  c #EA5454",
"G  c #EA5555",
"H  c #EA5656",
"J  c #EA5757",
"K  c #EA5858",
"L  c #EA5959",
"P  c #EA5A5A",
"I  c #EB5F5F",
"U  c #EB6060",
"Y  c #EB6161",
"T  c #EB6262",
"R  c #EC6565",
"E  c #EC6767",
"W  c #EC6969",
"Q  c #EC6A6A",
"!  c #EC6B6B",
"~  c #ED6C6C",
"^  c #ED6D6D",
"/  c #ED6F6F",
"(  c #ED7373",
")  c #EE7676",
"_  c #EE7777",
"`  c #EE7878",
"'  c #EE7979",
"]  c #EE7A7A",
"[  c #EE7B7B",
"{  c #EF7C7C",
"}  c #EF7D7D",
"|  c #EF7E7E",
" . c #EF8080",
".. c #EF8282",
"X. c #F08585",
"o. c #F08686",
"O. c #F08787",
"+. c #F08888",
"@. c #F08989",
"#. c #F08A8A",
"$. c #F08B8B",
"%. c #F18C8C",
"&. c #F18D8D",
"*. c #F18E8E",
"=. c #F18F8F",
"-. c #F19191",
";. c #F19292",
":. c #F19393",
">. c #F29494",
",. c #F29595",
"<. c #F29696",
"1. c #F29898",
"2. c #F29999",
"3. c #F29A9A",
"4. c #F29B9B",
"5. c #F39D9D",
"6. c #F3A1A1",
"7. c #F3A2A2",
"8. c #F3A3A3",
"9. c #F4A4A4",
"0. c #F4A6A6",
"q. c #F4A7A7",
"w. c #F4AAAA",
"e. c #F4ABAB",
"r. c #F5ACAC",
"t. c #F5ADAD",
"y. c #F5AEAE",
"u. c #F5B0B0",
"i. c #F5B3B3",
"p. c #F6B4B4",
"a. c #F6B5B5",
"s. c #F6B6B6",
"d. c #F6B8B8",
"f. c #F6B9B9",
"g. c #F6BABA",
"h. c #F6BBBB",
"j. c #F7BCBC",
"k. c #F7BDBD",
"l. c #F7BFBF",
"z. c gray76",
"x. c #C3C3C3",
"c. c gray77",
"v. c #CBCBCB",
"b. c gray80",
"n. c #F7C0C0",
"m. c #F7C1C1",
"M. c #F7C2C2",
"N. c #F8C4C4",
"B. c #F8C5C5",
"V. c #F8C7C7",
"C. c #F8C9C9",
"Z. c #F8CACA",
"A. c #F9CCCC",
"S. c #F9CDCD",
"D. c #F9CECE",
"F. c #F9CFCF",
"G. c #F9D0D0",
"H. c #F9D1D1",
"J. c #F9D3D3",
"K. c #FAD4D4",
"L. c #FAD7D7",
"P. c #FAD8D8",
"I. c #FADADA",
"U. c #FADBDB",
"Y. c #FBDCDC",
"T. c #FBDEDE",
"R. c #FBE0E0",
"E. c #FBE1E1",
"W. c #FBE2E2",
"Q. c #FBE3E3",
"!. c #FCE4E4",
"~. c #FCE5E5",
"^. c #FCE7E7",
"/. c #FCE8E8",
"(. c #FCE9E9",
"). c #FCEAEA",
"_. c #FCEBEB",
"`. c #FDECEC",
"'. c #FDEDED",
"]. c #FDEFEF",
"[. c #FDF0F0",
"{. c #FDF1F1",
"}. c #FDF2F2",
"|. c #FEF4F4",
" X c #FEF5F5",
".X c #FEF6F6",
"XX c #FEF7F7",
"oX c gray98",
"OX c #FEF8F8",
"+X c #FEF9F9",
"@X c #FEFAFA",
"#X c #FEFBFB",
"$X c #FFFCFC",
"%X c #FFFDFD",
"&X c #FEFEFE",
"*X c #FFFEFE",
"=X c white",
/* pixels */
"oXz.v.b.b.b.b.b.b.b.b.b.b.b.b.b.b.b.b.b.b.b.b.b.b.b.b.b.b.b.b.b.b.b.b.b.b.b.b.b.b.b.b.b.b.b.b.b.b.b.b.b.b.b.b.b.b.b.b.b.b.b.b.b.b.b.v.z.oX",
"x.&X=X=X=X=X=X=X=X=X=X=X=X=X=X=X=X=X=X=X=X=X=X=X=X=X=X=X=X=X=X=X=X=X=X=X=X=X=X=X=X=X=X=X=X=X=X=X=X=X=X=X=X=X=X=X=X=X=X=X=X=X=X=X=X=X=X&Xc.",
"v.=X=X=X=X=X Xu D =X=X=X=X=X=X=X=X=X=X=X=X=X=X=X=X=X=X=X=X=X=X=X=X=X=X=X=X=X=X=X=X=X=X=X=X=X=X=X=X=X=X=X=X=X=X=X=X=X=X=X=X=X=X=X=X=X=X=Xv.",
"v.=X=X=X=X=X~ t D =X=X=X=X=X=X=X=X=X=X=X=X=X=X=X=X=X=X=X=X=X=X=X=X=X=X=X=X=X=X=X=X=X=X=X=X=X=X=X=X=X=X=X=X=X=X=X=X=X=X=X=X=X=X=X=X=X=X=Xv.",
"v.=X=X=X=Xj.h *.D =X=X=X=X=X=X=X=X=X=X=X=X=X=X=X=X=X=X=X=X=X=X=X=X=X=X=X=X=X=X=X=X=X=X=X=X=X=X=X=X=X=X=X=X=X=X=X=X=X=X=X=X=X=X=X=X=X=X=Xv.",
"v.=X=X=X{.t H.:.D =X=X=X=X=X=X=X=X=X=X=X=X=X=X=X=X=X=X=X=X=X=X=X=X=X=X=X=X=X=X=X=X=X=X=X=X=X=X=X=X=X=X=X=X=X=X=X=X=X=X=X=X=X=X=X=X=X=X=Xv.",
"v.=X=X=XI o.=X:.D =X=X=X=X=X=X=X=X=X=X=X=X=X=X=X=X=X=X=X=X=X=X=X=X=X=X=X=X=X=X=X=X=X=X=X=X=X=X=X=X=X=X=X=X=X=X=X=X=X=X=X=X=X=X=X=X=X=X=Xv.",
"v.=X=Xu.c $X=X:.D =X=X=X=X=X=X=X=X=X=X=X=X=X=X=X=X=X=X=X=X=X=X=X=X=X=X=X=X=X=X=X=X=X=X=X=X=X=X=X=X=X=X=X=X=X=X=X=X=X=X=X=X=X=X=X=X=X=X=Xv.",
"v.=X=XJ 5 0 0 < & a =X=X=X=X=X=X=X=X=X=X=X=X=X=X=X=X=X=X=X=X=X=X=X=X=X=X=X=X=X=X=X=X=X=X=X=X=X=X=X=X=X=X=X=X=X=X=X=X=X=X=X=X=X=X=X=X=X=Xv.",
"v.=X=X=X=X=X=X:.D =X=X=X=X=X=X=X=X=X=X=X=X=X=X=X=X=X=X=X=X=X=X=X=X=X=X=X=X=X=X=X=X=X=X=X=X=X=X=X=X=X=X=X=X=X=X=X=X=X=X=X=X=X=X=X=X=X=X=Xv.",
"v.=X=X=X=X=X=X:.D =X=X=X=X=X=X=X=X=X=X=X=X=X=X=X=X=X=X=X=X=X=X=X=X=X=X=X=X=X=X=X=X=X=X=X=X=X=X=X=X=X=X=X=X=X=X=X=X=X=X=X=X=X=X=X=X=X=X=Xv.",
"v.=X=X=X=X=X=X$X=X=X=X=X=X=X=X=X=X=X=X=X=X=X.X=X=X=X=X=X=X=X=X=X=X=X=X=X=X=X=X=X=X=X=X=X=X=X.X=X=X=X=X=X=X=X=X=X=X=X=X=X=X=X=X=X=X=X=X=Xv.",
"v.=X=X=X=X=Xn.9.=X=X=X=X=X=X=X=X=X=X=X=X=X|.J =X=X=X=X=X=X=X=X=X=X=X=X=X=X=X=X=X=X=X=X=X=X`.I =X=X=X=X=X=X=X=X=X=X=X=X=X=X=X=X=X=X=X=X=Xv.",
"v.=X=X=X=X%Xz 0  X=X=X=X=X=X=X=X=X=X=X=X=X&.  S.=X=X=X=X=X=X=X=X=X=X=X=X=X=X=X=X=X=X=X=X=X| o U.=X=X=X=X=X=X=X=X=X=X=X=X=X=X=X=X=X=X=X=Xv.",
"v.=X=X=X=X1.    } =X=X=X=X=X=X=X=X=X=X=X}.4   N =X=X=X=X=X=X=X=X=X=X=X=X=X=X=X=X=X=X=X=X(.;   J =X=X=X=X=X=X=X=X=X=X=X=X=X=X=X=X=X=X=X=Xv.",
"v.=X=X=XT.<     # S.=X=X=X=X=X=X=X=X=X=X)       d.=X=X=X=X=X=X=X=X=X=X=X=X=X=X=X=X=X=X=XE     . V.=X=X=X=X=X=X=X=X=X=X=X=X=X=X=X=X=X=X=Xv.",
"v.=X=X`.s         7 R.=X=X=X=X=X=X=X=XG.+       0 }.=X=X=X=X=X=X=X=X=X=X=X=X=X=X=X=X=XB.X       i XX=X=X=X=X=X=X=X=X=X=X=X=X=X=X=X=X=X=Xv.",
"v.=XE.d             9 K.=X=X=X=X=X=X+Xg           Q =X=X=X=X=X=X=X=X=X=X=X=X=X=X=X=X Xy           ' =X=X=X=X=X=X=X=X=X=X=X=X=X=X=X=X=X=Xv.",
"v.=X;.X               ` =X=X=X=X=X=XE             . 7.=X=X=X=X=X=X=X=X=X=X=X=X=X=X*XL             X u.=X=X=X=X=X=X=X=X=X=X=X=X=X=X=X=X=Xv.",
"v.=X=X8.o           #.=X=X=X=X=X=X$.                # N.=X=X=X=X=X=X=X=X=X=X=X=X=X{                 = F.=X=X=X=X=X=X=X=X=X=X=X=X=X=X=X=Xv.",
"v.=X=X=X-.        _ =X=X=X=X=X=X3.X                   > V.=X=X=X=X=X=X=X=X=X=X=X$.                    4 H.=X=X=X=X=X=X=X=X=X=X=X=X=X=X=Xv.",
"v.=X=X=X=XS     k %X=X=X=X=X=X%..                       : n.=X=X=X=X=X=X=X=X*X|                         2 C.=X=X=X=X=X=X=X=X=X=X=X=X=X=Xv.",
"v.=X=X=X=XW.= o D.=X=X=X=X@XT                             + 1.=X=X=X=X=X=XXXH                             $ 9.=X=X=X=X=X=X=X=X=X=X=X=X=Xv.",
"v.=X=X=X=X=Xo.Q =X=X=X=X=X=X2.O                           < g.=X=X=X=X=X=X*X+.X                           3 l.=X=X=X=X=X=X=X=X=X=X=X=X=Xv.",
"v.=X=X=X=X=X[.E.=X=X=X=X=X=X=Xi.$                       w Y.=X=X=X=X=X=X=X=X=Xq.+                       p Q.=X=X=X=X=X=X=X=X=X=X=X=X=X=Xv.",
"v.=X=X=X=X=X=X=X=X=X=X=X=X=X=X=Xh.&                   y W.=X=X=X=X=X=X=X=X=X=X=Xu.@                   f (.=X=X=X=X=X=X=X=X=X=X=X=X=X=X=Xv.",
"v.=X=X=X=X=X=X=X=X=X=X=X=X=X=X=X=Xy.X               1 U.=X=X=X=X=X=X=X=X=X=X=X=X=X6.                5 Q.=X=X=X=X=X=X=X=X=X=X=X=X=X=X=X=Xv.",
"v.=X=X=X=X=X=X=X=X=X=X=X=X=X=X=X=X=Xo.            @ m.=X=X=X=X=X=X=X=X=X=X=X=X=X=X=X_             & A.=X=X=X=X=X=X=X=X=X=X=X=X=X=X=X=X=Xv.",
"v.=X=X=X=X=X=X=X=X=X=X=X=X=X=X=X=X=X=XB           o.=X=X=X=X=X=X=X=X=X=X=X=X=X=X=X=X%Xv           <.=X=X=X=X=X=X=X=X=X=X=X=X=X=X=X=X=X=Xv.",
"v.=X=X=X=X=X=X=X=X=X=X=X=X=X=X=X=X=X=X!.>       h @X=X=X=X=X=X=X=X=X=X=X=X=X=X=X=X=X=XP.%       n *X=X=X=X=X=X=X=X=X=X=X=X=X=X=X=X=X=X=Xv.",
"v.=X=X=X=X=X=X=X=X=X=X=X=X=X=X=X=X=X=X=X=.    X F.=X=X=X=X=X=X=X=X=X=X=X=X=X=X=X=X=X=X=X .    @ U.=X=X=X=X=X=X=X=X=X=X=X=X=X=X=X=X=X=X=Xv.",
"v.=X=X=X=X=X=X=X=X=X=X=X=X=X=X=X=X=X=X=X@Xt   I =X=X=X=X=X=X=X=X=X=X=X=X=X=X=X=X=X=X=X=X.X8   / =X=X=X=X=X=X=X=X=X=X=X=X=X=X=X=X=X=X=X=Xv.",
"v.=X=X=X=X=X=X=X=X=X=X=X=X=X=X=X=X=X=X=X=X6.O T.=X=X=X=X=X=X=X=X=X=X=X=X=X=X=X=X=X=X=X=X=X;.% (.=X=X=X=X=X=X=X=X=X=X=X=X=X=X=X=X=X=X=X=Xv.",
"v.=X=X=X=X=X=X=X=X=X=X=X=X=X=X=X=X=X=X=X=X@X) =X=X=X=X=X=X=X=X=X=X=X=X=X=X=X=X=X=X=X=X=X=X X{ =X=X=X=X=X=X=X=X=X=X=X=X=X=X=X=X=X=X=X=X=Xv.",
"v.=X=X=X=X=X=X=X=X=X=X=X=X=X=X=X=X=X=X=X=X=X%X=X=X=X=X=X=X=X=X=X=X=X=X=X=X=X=X=X=X=X=X=X=X=X%X=X=X=X=X=X=X=X=X=X=X=X=X=X=X=X=X=X=X=X=X=Xv.",
"v.=X=X=X=X=X=X=X=X=X=X=X=X=X=X=X=X=X=X=X=X=X=X=X=X=X=X=X=X=X=X=X=X=X=X=X=X=X=X=X=X=X=X=X=X=X=X=X=X=X=X=X=X=X=X=X=X=X=X=X=X=X=X=X=X=X=X=Xv.",
"v.=X=X=X=X=X=X=X=X=X=X=X=X=X=X=X=X=X=X=X=X=X=X=X=X=X=X=X=X=X=X=X=X=X=X=X=X=X=X=X=X=X=X=X=X=X=X=X=X=X=X=X=X=X=X=X=X=X=X=X=X=X=X=X=X=X=X=Xv.",
"v.=X=X=X=X=X=X=X=X=X=X=X=X=X=X=X=X=X=X=X=X=X=X=X=X=X=X=X=X=X=X=X=X=X=X=X=X=X=X=X=X=X=X=X=X=X=X=X=X=X=X=X=X=X=X=X=X=X=X=X=X=X=X=X=X=X=X=Xv.",
"v.=X=X=X=X=X=X=X=X=X=X=X=X=X=X=X=X=X=X=X=X=X=X=X=X=X=X=X=X=X=X=X=X=X=X=X=X=X=X=X=X=X=X=X=X=X=X=X=X=X=X=X=X=X=X=X=X=X=X=X=X=X=X=X=X=X=X=Xv.",
"v.=X=X=X=X=X=X=X=X=X=X=X=X=X=X=X=X=X=X=X=X=X=X=X=X=X=X=X=X=X=X=X=X=X=X=X=X=X=X=X=X=X=X=X=X=X=X=X=X=X=X=X=X=X=X=X=X=X=X=X=X=X=X=X=X=X=X=Xv.",
"v.=X=X=X=X=X=X=X=X=X=X=X=X=X=X=X=X=X=X=X=X=X=X=X=X=X=X=X=X=X=X=X=X=X=X=X=X=X=X=X=X=X=X=X=X=X=X=X=X=X=X=X=X=X=X=X=X=X=X=X=X=X=X=X=X=X=X=Xv.",
"v.=X=X=X=X=X=X=X=X=X=X=X=X=X=X=X=X=X=X=X=X=X=X=X=X=X=X=X=X=X=X=X=X=X=X=X=X=X=X=X=X=X=X=X=X=X=X=X=X=X=X=X=X=X=X=X=X=X=X=X=X=X=X=X=X=X=X=Xv.",
"v.=X=X=X=X=X=X=X=X=X=X=X=X=X=X=X=X=X=X=X=X=X=X=X=X=X=X=X=X=X=X=X=X=X=X=X=X=X=X=X=X=X=X=X=X=X=X=X=X=X=X=X=X=X=X=X=X=X=X=X=X=X=X=X=X=X=X=Xv.",
"v.=X=X=X=X=X=X=X=X=X=X=X=X=X=X=X=X=X=X=X=X=X=X=X=X=X=X=X=X=X=X=X=X=X=X=X=X=X=X=X=X=X=X=X=X=X=X=X=X=X=X=X=X=X=X=X=X=X=X=X=X=X=X=X=X=X=X=Xv.",
"v.=X=X=X=X=X=X=X=X=X=X=X=X=X=X=X=X=X=X=X=X=X=X=X=X=X=X=X=X=X=X=X=X=X=X=X=X=X=X=X=X=X=X=X=X=X=X=X=X=X=X=X=X=X=X=X=X=X=X=X=X=X=X=X=X=X=X=Xv.",
"v.=X=X=X=X=X=X=X=X=X=X=X=X=X=X=X=X=X=X=X=X=X=X=X=X=X=X=X=X=X=X=X=X=X=X=X=X=X=X=X=X=X=X=X=X=X=X=X=X=X=X=X=X=X=X=X=X=X=X=X=X=X=X=X=X=X=X=Xv.",
"v.=X=X=X=X=X=X=X=X=X=X=X=X=X=X=X=X=X=X=X=X=X=X=X=X=X=X=X=X=X=X=X=X=X=X=X=X=X=X=X=X=X=X=X=X=X=X=X=X=X=X=X=X=X=X=X=X=X=X=X=X=X=X=X=X=X=X=Xv.",
"v.=X=X=X=X=X=X=X=X=X=X=X=X=X=X=X=X=X=X=X=X=X=X=X=X=X=X=X=X=X=X=X=X=X=X=X=X=X=X=X=X=X=X=X=X=X=X=X=X=X=X=X=X=X=X=X=X=X=X=X=X=X=X=X=X=X=X=Xv.",
"v.=X=X=X=X=X=X=X=X=X=X=X=X=X=X=X=X=X=X=X=X=X=X=X=X=X=X=X=X=X=X=X=X=X=X=X=X=X=X=X=X=X=X=X=X=X=X=X=X=X=X=X=X=X=X=X=X=X=X=X=X=X=X=X=X=X=X=Xv.",
"v.=X=X=X=X=X=X=X=X=X=X=X=X=X=X=X=X=X=X=X=X=X=X=X=X=X=X=X=X=X=X=X=X=X=X=X=X=X=X=X=X=X=X=X=X=X=X=X=X=X=X=X=X=X=X=X=X=X=X=X=X=X=X=X=X=X=X=Xv.",
"v.=X=X=X=X=X=X=X=X=X=X=X=X=X=X=X=X=X=X=X=X=X=X=X=X=X=X=X=X=X=X=X=X=X=X=X=X=X=X=X=X=X=X=X=X=X=X=X=X=X=X=X=X=X=X=X=X=X=X=X=X=X=X=X=X=X=X=Xv.",
"v.=X=X=X=X=X=X=X=X=X=X=X=X=X=X=X=X=X=X=X=X=X=X=X=X=X=X=X=X=X=X=X=X=X=X=X=X=X=X=X=X=X=X=X=X=X=X=X=X=X=X=X=X=X=X=X=X=X=X=X=X=X=X=X=X=X=X=Xv.",
"v.=X=X=X=X=X=X=X=X=X=X=X=X=X=X=X=X=X=X=X=X=X=X=X=X=X=X=X=X=X=X=X=X=X=X=X=X=X=X=X=X=X=X=X=X=X=X=X=X=X=X=X=X=X=X=X=X=X=X=X=X=X=X=X=X=X=X=Xv.",
"v.=X=X=X=X=X=X=X=X=X=X=X=X=X=X=X=X=X=X=X=X=X=X=X=X=X=X=X=X=X=X=X=X=X=X=X=X=X=X=X=X=X=X=X=X=X=X=X=X=X=X=X=X=X=X=X=X=X=X=X=X=X=X=X=X=X=X=Xv.",
"v.=X=X=X=X=X=X=X=X=X=X=X=X=X=X=X=X=X=X=X=X=X=X=X=X=X=X=X=X=X=X=X=X=X=X=X=X=X=X=X=X=X=X=X=X=X=X=X=X=X=X=X=X=X=X=X=X=X=X=X=X=X=X=X=X=X=X=Xv.",
"v.=X=X=X=X=X=X=X=X=X=X=X=X=X=X=X=X=X=X=X=X=X=X=X=X=X=X=X=X=X=X=X=X=X=X=X=X=X=X=X=X=X=X=X=X=X=X=X=X=X=X=X=X=X=X=X=X=X=X=X=X=X=X=X=X=X=X=Xv.",
"v.=X=X=X=X=X=X=X=X=X=X=X=X=X=X=X=X=X=X=X=X=X=X=X=X=X=X=X=X=X=X=X=X=X=X=X=X=X=X=X=X=X=X=X=X=X=X=X=X=X=X=X=X=X=X=X=X=X=X=X=X=X=X=X=X=X=X=Xv.",
"v.=X=X=X=X=X=X=X=X=X=X=X=X=X=X=X=X=X=X=X=X=X=X=X=X=X=X=X=X=X=X=X=X=X=X=X=X=X=X=X=X=X=X=X=X=X=X=X=X=X=X=X=X=X=X=X=X=X=X=X=X=X=X=X=X=X=X=Xv.",
"v.=X=X=X=X=X=X=X=X=X=X=X=X=X=X=X=X=X=X=X=X=X=X=X=X=X=X=X=X=X=X=X=X=X=X=X=X=X=X=X=X=X=X=X=X=X=X=X=X=X=X=X=X=X=X=X=X=X=X=X=X=X=X=X=X=X=X=Xv.",
"v.=X=X=X=X=X=X=X=X=X=X=X=X=X=X=X=X=X=X=X=X=X=X=X=X=X=X=X=X=X=X=X=X=X=X=X=X=X=X=X=X=X=X=X=X=X=X=X=X=X=X=X=X=X=X=X=X=X=X=X=X=X=X=X=X=X=X=Xv.",
"v.=X=X=X=X=X=X=X=X=X=X=X=X=X=X=X=X=X=X=X=X=X=X=X=X=X=X=X=X=X=X=X=X=X=X=X=X=X=X=X=X=X=X=X=X=X=X=X=X=X=X=X=X=X=X=X=X=X=X=X=X=X=X=X=X=X=X=Xv.",
"v.=X=X=X=X=X=X=X=X=X=X=X=X=X=X=X=X=X=X=X=X=X=X=X=X=X=X=X=X=X=X=X=X=X=X=X=X=X=X=X=X=X=X=X=X=X=X=X=X=X=X=X=X=X=X=X=X=X=X=X=X=X=X=X=X=X=X=Xv.",
"v.=X=X=X=X=X=X=X=X=X=X=X=X=X=X=X=X=X=X=X=X=X=X=X=X=X=X=X=X=X=X=X=X=X=X=X=X=X=X=X=X=X=X=X=X=X=X=X=X=X=X=X=X=X=X=X=X=X=X=X=X=X=X=X=X=X=X=Xv.",
"v.=X=X=X=X=X=X=X=X=X=X=X=X=X=X=X=X=X=X=X=X=X=X=X=X=X=X=X=X=X=X=X=X=X=X=X=X=X=X=X=X=X=X=X=X=X=X=X=X=X=X=X=X=X=X=X=X=X=X=X=X=X=X=X=X=X=X=Xv.",
"v.=X=X=X=X=X=X=X=X=X=X=X=X=X=X=X=X=X=X=X=X=X].=X=X=X=X=X=X=X=X=X=X=X=X=X=X=X=X=X=X=X=X=X=X=X].=X=X=X=X=X=X=X=X=X=X=X=X=X=X=X=X=X=X=X=X=Xv.",
"v.=X=X=X=X=X=X=X=X=X=X=X=X=X=X=X=X=X=X=X=X'.m =X=X=X=X=X=X=X=X=X=X=X=X=X=X=X=X=X=X=X=X=X=X!.A =X=X=X=X=X=X=X=X=X=X=X=X=X=X=X=X=X=X=X=X=Xv.",
"v.=X=X=X=X=X=X=X=X=X=X=X=X=X=X=X=X=X=X=X=X..  M.=X=X=X=X=X=X=X=X=X=X=X=X=X=X=X=X=X=X=X=X=X( . H.=X=X=X=X=X=X=X=X=X=X=X=X=X=X=X=X=X=X=X=Xv.",
"v.=X=X=X=X=X=X=X=X=X=X=X=X=X=X=X=X=X=X=X).;   l *X=X=X=X=X=X=X=X=X=X=X=X=X=X=X=X=X=X=X=XQ.%   V =X=X=X=X=X=X=X=X=X=X=X=X=X=X=X=X=X=X=X=Xv.",
"v.=X=X=X=X=X=X=X=X=X=X=X=X=X=X=X=X=X=X=XW       w.=X=X=X=X=X=X=X=X=X=X=X=X=X=X=X=X=X=X=XP       g.=X=X=X=X=X=X=X=X=X=X=X=X=X=X=X=X=X=X=Xv.",
"v.=X=X=X=X=X=X=X=X=X=X=X=X=X=X=X=X=X=XB.X       3 ).=X=X=X=X=X=X=X=X=X=X=X=X=X=X=X=X=Xa.        q }.=X=X=X=X=X=X=X=X=X=X=X=X=X=X=X=X=X=Xv.",
"v.=X=X=X=X=X=X=X=X=X=X=X=X=X=X=X=X=X|.y           P =X=X=X=X=X=X=X=X=X=X=X=X=X=X=X=X].8           W =X=X=X=X=X=X=X=X=X=X=X=X=X=X=X=X=X=Xv.",
"v.=X=X=X=X=X=X=X=X=X=X=X=X=X=X=X=X*XK               -.=X=X=X=X=X=X=X=X=X=X=X=X=X=X$XC               3.=X=X=X=X=X=X=X=X=X=X=X=X=X=X=X=X=Xv.",
"v.=X=X=X=X=X=X=X=X=X=X=X=X=X=X=X=X`                 o s.=X=X=X=X=X=X=X=X=X=X=X=X=XW                 @ M.=X=X=X=X=X=X=X=X=X=X=X=X=X=X=X=Xv.",
"v.=X=X=X=X=X=X=X=X=X=X=X=X=X=X=X+.                    & f.=X=X=X=X=X=X=X=X=X=X=X[                     = l.=X=X=X=X=X=X=X=X=X=X=X=X=X=X=Xv.",
"v.=X=X=X=X=X=X=X=X=X=X=X=X=X%X)                         $ t.=X=X=X=X=X=X=X=X#XW                         = d.=X=X=X=X=X=X=X=X=X=X=X=X=X=Xv.",
"v.=X=X=X=X=X=X=X=X=X=X=X=X@XZ                             . O.=X=X=X=X=X=X XM                             o >.=X=X=X=X=X=X#XI.=X=X=X=X=Xv.",
"v.=X=X=X=X=X=X=X=X=X=X=X=X=X0.%                           7 Z.=X=X=X=X=X=X=X2.+                           r J.=X=X=X=X=X=X6.G =X=X=X=X=Xv.",
"v.=X=X=X=X=X=X=X=X=X=X=X=X=X=XN.:                       f ^.=X=X=X=X=X=X=X=X=Xf.&                       j '.=X=X=X=X=X=X}.6   k.=X=X=X=Xv.",
"v.=X=X=X=X=X=X=X=X=X=X=X=X=X=X=XZ.>                   h `.=X=X=X=X=X=X=X=X=X=X=Xn.*                   x {.=X=X=X=X=X=X=X/     i +X=X=X=Xv.",
"v.=X=X=X=X=X=X=X=X=X=X=X=X=X=X=X=Xm.@               6 !.=X=X=X=X=X=X=X=X=X=X=X=X=Xa.o               w _.=X=X=X=X=X=X=Xp.o       Y =X=X=Xv.",
"v.=X=X=X=X=X=X=X=X=X=X=X=X=X=X=X=X=X1.            * D.=X=X=X=X=X=X=X=X=X=X=X=X=X=X=X@.            > L.=X=X=X=X=X=X=Xh.&           ] =X=Xv.",
"v.=X=X=X=X=X=X=X=X=X=X=X=X=X=X=X=X=X=XF           ,.=X=X=X=X=X=X=X=X=X=X=X=X=X=X=X=X*XB           9.=X=X=X=X=X=X=Xe.#               R =Xv.",
"v.=X=X=X=X=X=X=X=X=X=X=X=X=X=X=X=X=X=X_.4       b *X=X=X=X=X=X=X=X=X=X=X=X=X=X=X=X=X=X!.>       Z =X=X=X=X=X=X=X=X/.k             , m.=Xv.",
"v.=X=X=X=X=X=X=X=X=X=X=X=X=X=X=X=X=X=X=X4.    + P.=X=X=X=X=X=X=X=X=X=X=X=X=X=X=X=X=X=X=X&.    & Q.=X=X=X=X=X=X=X=X=X}.k         : F.=X=Xv.",
"v.=X=X=X=X=X=X=X=X=X=X=X=X=X=X=X=X=X=X=X$Xd   ! =X=X=X=X=X=X=X=X=X=X=X=X=X=X=X=X=X=X=X=X+Xr   [ =X=X=X=X=X=X=X=X=X=X=X/.7     . s.=X=X=Xv.",
"v.=X=X=X=X=X=X=X=X=X=X=X=X=X=X=X=X=X=X=X=Xe.# ~.=X=X=X=X=X=X=X=X=X=X=X=X=X=X=X=X=X=X=X=X=X5.- ].=X=X=X=X=X=X=X=X=X=X=X=Xr.    Y =X=X=X=Xv.",
"v.=X=X=X=X=X=X=X=X=X=X=X=X=X=X=X=X=X=X=X=X%XO.=X=X=X=X=X=X=X=X=X=X=X=X=X=X=X=X=X=X=X=X=X=XOX$.=X=X=X=X=X=X=X=X=X=X=X=X=X=XC < ).=X=X=X=Xv.",
"v.=X=X=X=X=X=X=X=X=X=X=X=X=X=X=X=X=X=X=X=X=X=X=X=X=X=X=X=X=X=X=X=X=X=X=X=X=X=X=X=X=X=X=X=X=X=X=X=X=X=X=X=X=X=X=X=X=X=X=X=XK.#.=X=X=X=X=Xv.",
"v.=X=X=X=X=X=X=X=X=X=X=X=X=X=X=X=X=X=X=X=X=X=X=X=X=X=X=X=X=X=X=X=X=X=X=X=X=X=X=X=X=X=X=X=X=X=X=X=X=X=X=X=X=X=X=X=X=X=X=X=X=X#X=X=X=X=X=Xv.",
"v.=X=X=X=X=X=X=X=X=X=X=X=X=X=X=X=X=X=X=X=X=X=X=X=X=X=X=X=X=X=X=X=X=X=X=X=X=X=X=X=X=X=X=X=X=X=X=X=X=X=X=X=X=X=X=X=X=X=X=XD :.=X=X=X=X=X=Xv.",
"v.=X=X=X=X=X=X=X=X=X=X=X=X=X=X=X=X=X=X=X=X=X=X=X=X=X=X=X=X=X=X=X=X=X=X=X=X=X=X=X=X=X=X=X=X=X=X=X=X=X=X=X=X=X=X=X=X=X=X=XD :.=X=X=X=X=X=Xv.",
"v.=X=X=X=X=X=X=X=X=X=X=X=X=X=X=X=X=X=X=X=X=X=X=X=X=X=X=X=X=X=X=X=X=X=X=X=X=X=X=X=X=X=X=X=X=X=X=X=X=X=X=X=X=X=X=X=X=X=Xa & < 0 0 5 J =X=Xv.",
"v.=X=X=X=X=X=X=X=X=X=X=X=X=X=X=X=X=X=X=X=X=X=X=X=X=X=X=X=X=X=X=X=X=X=X=X=X=X=X=X=X=X=X=X=X=X=X=X=X=X=X=X=X=X=X=X=X=X=X=XD :.=X$Xc u.=X=Xv.",
"v.=X=X=X=X=X=X=X=X=X=X=X=X=X=X=X=X=X=X=X=X=X=X=X=X=X=X=X=X=X=X=X=X=X=X=X=X=X=X=X=X=X=X=X=X=X=X=X=X=X=X=X=X=X=X=X=X=X=X=XD :.=XX.U =X=X=Xv.",
"v.=X=X=X=X=X=X=X=X=X=X=X=X=X=X=X=X=X=X=X=X=X=X=X=X=X=X=X=X=X=X=X=X=X=X=X=X=X=X=X=X=X=X=X=X=X=X=X=X=X=X=X=X=X=X=X=X=X=X=XD :.H.t {.=X=X=Xv.",
"v.=X=X=X=X=X=X=X=X=X=X=X=X=X=X=X=X=X=X=X=X=X=X=X=X=X=X=X=X=X=X=X=X=X=X=X=X=X=X=X=X=X=X=X=X=X=X=X=X=X=X=X=X=X=X=X=X=X=X=XD *.h k.=X=X=X=Xv.",
"v.=X=X=X=X=X=X=X=X=X=X=X=X=X=X=X=X=X=X=X=X=X=X=X=X=X=X=X=X=X=X=X=X=X=X=X=X=X=X=X=X=X=X=X=X=X=X=X=X=X=X=X=X=X=X=X=X=X=X=XD e ^ =X=X=X=X=Xv.",
"v.=X=X=X=X=X=X=X=X=X=X=X=X=X=X=X=X=X=X=X=X=X=X=X=X=X=X=X=X=X=X=X=X=X=X=X=X=X=X=X=X=X=X=X=X=X=X=X=X=X=X=X=X=X=X=X=X=X=X=XD u  X=X=X=X=X=Xv.",
"x.&X=X=X=X=X=X=X=X=X=X=X=X=X=X=X=X=X=X=X=X=X=X=X=X=X=X=X=X=X=X=X=X=X=X=X=X=X=X=X=X=X=X=X=X=X=X=X=X=X=X=X=X=X=X=X=X=X=X=X=X=X=X=X=X=X=X&Xc.",
"oXz.v.b.b.b.b.b.b.b.b.b.b.b.b.b.b.b.b.b.b.b.b.b.b.b.b.b.b.b.b.b.b.b.b.b.b.b.b.b.b.b.b.b.b.b.b.b.b.b.b.b.b.b.b.b.b.b.b.b.b.b.b.b.b.b.v.z.oX"
};
