/* XPM */
static const char *four_clubs[] = {
/* columns rows colors chars-per-pixel */
"69 100 219 2 ",
"   c black",
".  c #010101",
"X  c #020202",
"o  c gray1",
"O  c #040404",
"+  c gray2",
"@  c #060606",
"#  c #070707",
"$  c gray3",
"%  c #090909",
"&  c gray4",
"*  c #0B0B0B",
"=  c #0C0C0C",
"-  c gray5",
";  c #0E0E0E",
":  c gray6",
">  c #101010",
",  c #111111",
"<  c gray7",
"1  c gray8",
"2  c #151515",
"3  c #161616",
"4  c #181818",
"5  c #191919",
"6  c gray10",
"7  c gray11",
"8  c #1D1D1D",
"9  c #1E1E1E",
"0  c gray12",
"q  c #202020",
"w  c #222222",
"e  c #232323",
"r  c gray14",
"t  c #252525",
"y  c gray15",
"u  c #272727",
"i  c #282828",
"p  c #2A2A2A",
"a  c gray17",
"s  c #2C2C2C",
"d  c #2D2D2D",
"f  c gray18",
"g  c #2F2F2F",
"h  c gray19",
"j  c #313131",
"k  c #323232",
"l  c #343434",
"z  c #353535",
"x  c gray21",
"c  c #373737",
"v  c gray22",
"b  c #393939",
"n  c #3A3A3A",
"m  c gray23",
"M  c gray24",
"N  c #3E3E3E",
"B  c #3F3F3F",
"V  c gray25",
"C  c #414141",
"Z  c gray26",
"A  c #434343",
"S  c #444444",
"D  c #464646",
"F  c gray28",
"G  c #484848",
"H  c #494949",
"J  c gray29",
"K  c #4B4B4B",
"L  c gray30",
"P  c #4E4E4E",
"I  c #505050",
"U  c #515151",
"Y  c gray32",
"T  c #535353",
"R  c gray33",
"E  c #555555",
"W  c #565656",
"Q  c gray34",
"!  c #585858",
"~  c gray35",
"^  c #5B5B5B",
"/  c gray36",
"(  c #5D5D5D",
")  c #5F5F5F",
"_  c #606060",
"`  c #626262",
"'  c #646464",
"]  c gray40",
"[  c #676767",
"{  c #686868",
"}  c #6A6A6A",
"|  c #6C6C6C",
" . c #6D6D6D",
".. c gray43",
"X. c #6F6F6F",
"o. c gray44",
"O. c #717171",
"+. c #727272",
"@. c gray45",
"#. c #747474",
"$. c gray46",
"%. c #767676",
"&. c #777777",
"*. c gray47",
"=. c #797979",
"-. c gray48",
";. c gray49",
":. c #7E7E7E",
">. c gray50",
",. c #808080",
"<. c #818181",
"1. c gray51",
"2. c #838383",
"3. c #848484",
"4. c gray52",
"5. c #868686",
"6. c #888888",
"7. c #898989",
"8. c gray54",
"9. c #8B8B8B",
"0. c gray55",
"q. c #8D8D8D",
"w. c #8E8E8E",
"e. c gray56",
"r. c #909090",
"t. c #929292",
"y. c #939393",
"u. c #959595",
"i. c #979797",
"p. c #989898",
"a. c gray60",
"s. c #9A9A9A",
"d. c #9B9B9B",
"f. c #9D9D9D",
"g. c gray62",
"h. c #9F9F9F",
"j. c #A0A0A0",
"k. c gray63",
"l. c #A2A2A2",
"z. c gray64",
"x. c #A4A4A4",
"c. c #A5A5A5",
"v. c gray65",
"b. c #A7A7A7",
"n. c #A9A9A9",
"m. c #AAAAAA",
"M. c gray67",
"N. c gray68",
"B. c #AEAEAE",
"V. c #AFAFAF",
"C. c gray69",
"Z. c #B1B1B1",
"A. c #B2B2B2",
"S. c #B4B4B4",
"D. c gray71",
"F. c #B6B6B6",
"G. c #B7B7B7",
"H. c #B9B9B9",
"J. c #BBBBBB",
"K. c #BCBCBC",
"L. c gray74",
"P. c gray",
"I. c gray75",
"U. c #C0C0C0",
"Y. c #C1C1C1",
"T. c gray76",
"R. c #C3C3C3",
"E. c gray77",
"W. c #C5C5C5",
"Q. c #C6C6C6",
"!. c gray78",
"~. c #C8C8C8",
"^. c gray79",
"/. c #CBCBCB",
"(. c gray80",
"). c #CDCDCD",
"_. c gray81",
"`. c #D0D0D0",
"'. c gray82",
"]. c gray83",
"[. c #D5D5D5",
"{. c #D7D7D7",
"}. c #D8D8D8",
"|. c gray85",
" X c gray86",
".X c gainsboro",
"XX c #DDDDDD",
"oX c #DFDFDF",
"OX c gray88",
"+X c #E1E1E1",
"@X c #E2E2E2",
"#X c gray89",
"$X c gray90",
"%X c #E6E6E6",
"&X c #E7E7E7",
"*X c gray91",
"=X c #E9E9E9",
"-X c #EAEAEA",
";X c gray92",
":X c #ECECEC",
">X c gray93",
",X c #EEEEEE",
"<X c #EFEFEF",
"1X c gray94",
"2X c #F1F1F1",
"3X c gray95",
"4X c #F3F3F3",
"5X c #F4F4F4",
"6X c gray96",
"7X c #F6F6F6",
"8X c gray97",
"9X c #F8F8F8",
"0X c #F9F9F9",
"qX c gray98",
"wX c #FBFBFB",
"eX c gray99",
"rX c #FDFDFD",
"tX c #FEFEFE",
"yX c white",
/* pixels */
"qXT./.(.(.(.(.(.(.(.(.(.(.(.(.(.(.(.(.(.(.(.(.(.(.(.(.(.(.(.(.(.(.(.(.(.(.(.(.(.(.(.(.(.(.(.(.(.(.(.(.(.(.(.(.(.(.(.(.(.(.(.(.(.(.(./.T.qX",
"R.tXyXyXyXyXyXyXyXyXyXyXyXyXyXyXyXyXyXyXyXyXyXyXyXyXyXyXyXyXyXyXyXyXyXyXyXyXyXyXyXyXyXyXyXyXyXyXyXyXyXyXyXyXyXyXyXyXyXyXyXyXyXyXyXyXyXtXE.",
"/.yXyXyXyXyX6Xy T yXyXyXyXyXyXyXyXyXyXyXyXyXyXyXyXyXyXyXyXyXyXyXyXyXyXyXyXyXyXyXyXyXyXyXyXyXyXyXyXyXyXyXyXyXyXyXyXyXyXyXyXyXyXyXyXyXyXyX/.",
"/.yXyXyXyXyX| r T yXyXyXyXyXyXyXyXyXyXyXyXyXyXyXyXyXyXyXyXyXyXyXyXyXyXyXyXyXyXyXyXyXyXyXyXyXyXyXyXyXyXyXyXyXyXyXyXyXyXyXyXyXyXyXyXyXyXyX/.",
"/.yXyXyXyXK.j w.T yXyXyXyXyXyXyXyXyXyXyXyXyXyXyXyXyXyXyXyXyXyXyXyXyXyXyXyXyXyXyXyXyXyXyXyXyXyXyXyXyXyXyXyXyXyXyXyXyXyXyXyXyXyXyXyXyXyXyX/.",
"/.yXyXyX2Xr '.y.T yXyXyXyXyXyXyXyXyXyXyXyXyXyXyXyXyXyXyXyXyXyXyXyXyXyXyXyXyXyXyXyXyXyXyXyXyXyXyXyXyXyXyXyXyXyXyXyXyXyXyXyXyXyXyXyXyXyXyX/.",
"/.yXyXyX) 5.yXy.T yXyXyXyXyXyXyXyXyXyXyXyXyXyXyXyXyXyXyXyXyXyXyXyXyXyXyXyXyXyXyXyXyXyXyXyXyXyXyXyXyXyXyXyXyXyXyXyXyXyXyXyXyXyXyXyXyXyXyX/.",
"/.yXyXC.m eXyXy.T yXyXyXyXyXyXyXyXyXyXyXyXyXyXyXyXyXyXyXyXyXyXyXyXyXyXyXyXyXyXyXyXyXyXyXyXyXyXyXyXyXyXyXyXyXyXyXyXyXyXyXyXyXyXyXyXyXyXyX/.",
"/.yXyXQ 5 0 0 < & p yXyXyXyXyXyXyXyXyXyXyXyXyXyXyXyXyXyXyXyXyXyXyXyXyXyXyXyXyXyXyXyXyXyXyXyXyXyXyXyXyXyXyXyXyXyXyXyXyXyXyXyXyXyXyXyXyXyX/.",
"/.yXyXyXyXyXyXy.T yXyXyXyXyXyXyXyXyXyXyXyXyXyXyXyXyXyXyXyXyXyXyXyXyXyXyXyXyXyXyXyXyXyXyXyXyXyXyXyXyXyXyXyXyXyXyXyXyXyXyXyXyXyXyXyXyXyXyX/.",
"/.yXyXyXyXyXyXy.T yXyXyXyXyXyXyXyXyXyXyXyXyXyXyXyXyXyXyXyXyXyXyXyXyXyXyXyXyXyXyXyXyXyXyXyXyXyXyXyXyXyXyXyXyXyXyXyXyXyXyXyXyXyXyXyXyXyXyX/.",
"/.yXyXyXyXyXyXyXyXyXyXyXyXyXyXyXyXyXyXyXyXyXyXyXyXyXyXyXyXyXyXyXyXyXyXyXyXyXyXyXyXyXyXyXyXyXyXyXyXyXyXyXyXyXyXyXyXyXyXyXyXyXyXyXyXyXyXyX/.",
"/.yXyXyXyXyX$X(.9XyXyXyXyXyXyXyXyXyXyXyXyXyXyXyXyXyXyXyXyXyXyXyXyXyXyXyXyXyXyXyXyXyXyXyXyXyXyXyXyXyXyXyXyXyXyXyXyXyXyXyXyXyXyXyXyXyXyXyX/.",
"/.yXyXyXtX`     3 R.yXyXyXyXyXyXyXyXyXyXyXeX6XyXyXyXyXyXyXyXyXyXyXyXyXyXyXyXyXyXyXyXyXyXyXwX7XyXyXyXyXyXyXyXyXyXyXyXyXyXyXyXyXyXyXyXyXyX/.",
"/.yXyXyXB.        y yXyXyXyXyXyXyXyXyXH.m o   6 -.6XyXyXyXyXyXyXyXyXyXyXyXyXyXyXyXyXyXC.x X   9 1.9XyXyXyXyXyXyXyXyXyXyXyXyXyXyXyXyXyXyX/.",
"/.yXyXyXw.        # eXyXyXyXyXyXyXyXj.X           m 9XyXyXyXyXyXyXyXyXyXyXyXyXyXyXyXy.            D eXyXyXyXyXyXyXyXyXyXyXyXyXyXyXyXyXyX/.",
"/.yXyXyX`..       H yXyXyXyXyXyXyX-X*               6.yXyXyXyXyXyXyXyXyXyXyXyXyXyXOX@               i.yXyXyXyXyXyXyXyXyXyXyXyXyXyXyXyXyX/.",
"/.yX>Xw.;.V     * O.-.H.yXyXyXyXyXb.                b yXyXyXyXyXyXyXyXyXyXyXyXyXyXi.                G yXyXyXyXyXyXyXyXyXyXyXyXyXyXyXyXyX/.",
"/.-X8                   <.yXyXyXyXe.                q yXyXyXyXyXyXyXyXyXyXyXyXyXyX>.                g yXyXyXyXyXyXyXyXyXyXyXyXyXyXyXyXyX/.",
"/.q.                    & eXyXyXyXJ.                L yXyXyXyXyXyXyXyXyXyXyXyXyXyXM.                / yXyXyXyXyXyXyXyXyXyXyXyXyXyXyXyXyX/.",
"/.4.        # @         + 9XyXyXyXwXa               H.yXyXyXyXyXyXyXyXyXyXyXyXyXyX8Xq             . !.yXyXyXyXyXyXyXyXyXyXyXyXyXyXyXyXyX/.",
"/..X%     . ;.G x       ( yXyXyX3X3XP.o           T 0X,XeXyXyXyXyXyXyXyXyXyXyXyX2X4XC..           ` 9X,XrXyXyXyXyXyXyXyXyXyXyXyXyXyXyXyX/.",
"/.yX/.~ F A.N.y 3X..A <.9XtXk.d     t k         ; C $   , [ *XyXyXyXyXyXyXrXp.i     p d         < B @   2 ..>XyXyXyXyXyXyXyXyXyXyXyXyXyX/.",
"/.yXyXyXyXyXI   ^.yXyXyXyX&.                                e %XyXyXyXyXyX{                                 s >XyXyXyXyXyXyXyXyXyXyXyXyX/.",
"/.yXyXyXyX>Xa.a.G.yXyXyX].X                                   ] yXyXyXyXQ.                                    %.yXyXyXyXyXyXyXyXyXyXyXyX/.",
"/.yXyXyXyXyXyXyXyXyXyXyX2.                                    3 yXyXyXyX#.                                    y yXyXyXyXyXyXyXyXyXyXyXyX/.",
"/.yXyXyXyXyXyXyXyXyXyXyX{                                       9XyXyXyX~                                     % yXyXyXyXyXyXyXyXyXyXyXyX/.",
"/.yXyXyXyXyXyXyXyXyXyXyX6.                9 < =               6 yXyXyXyX=.                9 4 @               p yXyXyXyXyXyXyXyXyXyXyXyX/.",
"/.yXyXyXyXyXyXyXyXyXyXyX#X%             s <.6 t.              >.yXyXyXyX}.+             c %.p 2.              e.yXyXyXyXyXyXyXyXyXyXyXyX/.",
"/.yXyXyXyXyXyXyXyXyXyXyXyXl.o         7 |.@.# eX'           B 9XyXyXyXyXyXu..         e OX' 2 wXQ           K eXyXyXyXyXyXyXyXyXyXyXyXyX/.",
"/.yXyXyXyXyXyXyXyXyXyXyXyXyXW.U 0 s @.;XyXC   ].yXn.Z 8 z 0.0XyXyXyXyXyXyXyXL.L 9 f =.1XyXk   #XtXj.N 8 v y.wXyXyXyXyXyXyXyXyXyXyXyXyXyX/.",
"/.yXyXyXyXyXyXyXyXyXyXyXyXyXyXyXyXyXyXyX*XO   ,.yXyXyXyXyXyXyXyXyXyXyXyXyXyXyXyXyXyXyXyX.X.   e.yXyXyXyXyXyXyXyXyXyXyXyXyXyXyXyXyXyXyXyX/.",
"/.yXyXyXyXyXyXyXyXyXyXyXyXyXyXyXyXyXyXyX{     , -XyXyXyXyXyXyXyXyXyXyXyXyXyXyXyXyXyXyXyX~     6 1XyXyXyXyXyXyXyXyXyXyXyXyXyXyXyXyXyXyXyX/.",
"/.yXyXyXyXyXyXyXyXyXyXyXyXyXyXyXyXyXyXoX] ] ] ] g.yXyXyXyXyXyXyXyXyXyXyXyXyXyXyXyXyXyX{.] ] ] ] b.yXyXyXyXyXyXyXyXyXyXyXyXyXyXyXyXyXyXyX/.",
"/.yXyXyXyXyXyXyXyXyXyXyXyXyXyXyXyXyXyXyXyXyXyXyXyXyXyXyXyXyXyXyXyXyXyXyXyXyXyXyXyXyXyXyXyXyXyXyXyXyXyXyXyXyXyXyXyXyXyXyXyXyXyXyXyXyXyXyX/.",
"/.yXyXyXyXyXyXyXyXyXyXyXyXyXyXyXyXyXyXyXyXyXyXyXyXyXyXyXyXyXyXyXyXyXyXyXyXyXyXyXyXyXyXyXyXyXyXyXyXyXyXyXyXyXyXyXyXyXyXyXyXyXyXyXyXyXyXyX/.",
"/.yXyXyXyXyXyXyXyXyXyXyXyXyXyXyXyXyXyXyXyXyXyXyXyXyXyXyXyXyXyXyXyXyXyXyXyXyXyXyXyXyXyXyXyXyXyXyXyXyXyXyXyXyXyXyXyXyXyXyXyXyXyXyXyXyXyXyX/.",
"/.yXyXyXyXyXyXyXyXyXyXyXyXyXyXyXyXyXyXyXyXyXyXyXyXyXyXyXyXyXyXyXyXyXyXyXyXyXyXyXyXyXyXyXyXyXyXyXyXyXyXyXyXyXyXyXyXyXyXyXyXyXyXyXyXyXyXyX/.",
"/.yXyXyXyXyXyXyXyXyXyXyXyXyXyXyXyXyXyXyXyXyXyXyXyXyXyXyXyXyXyXyXyXyXyXyXyXyXyXyXyXyXyXyXyXyXyXyXyXyXyXyXyXyXyXyXyXyXyXyXyXyXyXyXyXyXyXyX/.",
"/.yXyXyXyXyXyXyXyXyXyXyXyXyXyXyXyXyXyXyXyXyXyXyXyXyXyXyXyXyXyXyXyXyXyXyXyXyXyXyXyXyXyXyXyXyXyXyXyXyXyXyXyXyXyXyXyXyXyXyXyXyXyXyXyXyXyXyX/.",
"/.yXyXyXyXyXyXyXyXyXyXyXyXyXyXyXyXyXyXyXyXyXyXyXyXyXyXyXyXyXyXyXyXyXyXyXyXyXyXyXyXyXyXyXyXyXyXyXyXyXyXyXyXyXyXyXyXyXyXyXyXyXyXyXyXyXyXyX/.",
"/.yXyXyXyXyXyXyXyXyXyXyXyXyXyXyXyXyXyXyXyXyXyXyXyXyXyXyXyXyXyXyXyXyXyXyXyXyXyXyXyXyXyXyXyXyXyXyXyXyXyXyXyXyXyXyXyXyXyXyXyXyXyXyXyXyXyXyX/.",
"/.yXyXyXyXyXyXyXyXyXyXyXyXyXyXyXyXyXyXyXyXyXyXyXyXyXyXyXyXyXyXyXyXyXyXyXyXyXyXyXyXyXyXyXyXyXyXyXyXyXyXyXyXyXyXyXyXyXyXyXyXyXyXyXyXyXyXyX/.",
"/.yXyXyXyXyXyXyXyXyXyXyXyXyXyXyXyXyXyXyXyXyXyXyXyXyXyXyXyXyXyXyXyXyXyXyXyXyXyXyXyXyXyXyXyXyXyXyXyXyXyXyXyXyXyXyXyXyXyXyXyXyXyXyXyXyXyXyX/.",
"/.yXyXyXyXyXyXyXyXyXyXyXyXyXyXyXyXyXyXyXyXyXyXyXyXyXyXyXyXyXyXyXyXyXyXyXyXyXyXyXyXyXyXyXyXyXyXyXyXyXyXyXyXyXyXyXyXyXyXyXyXyXyXyXyXyXyXyX/.",
"/.yXyXyXyXyXyXyXyXyXyXyXyXyXyXyXyXyXyXyXyXyXyXyXyXyXyXyXyXyXyXyXyXyXyXyXyXyXyXyXyXyXyXyXyXyXyXyXyXyXyXyXyXyXyXyXyXyXyXyXyXyXyXyXyXyXyXyX/.",
"/.yXyXyXyXyXyXyXyXyXyXyXyXyXyXyXyXyXyXyXyXyXyXyXyXyXyXyXyXyXyXyXyXyXyXyXyXyXyXyXyXyXyXyXyXyXyXyXyXyXyXyXyXyXyXyXyXyXyXyXyXyXyXyXyXyXyXyX/.",
"/.yXyXyXyXyXyXyXyXyXyXyXyXyXyXyXyXyXyXyXyXyXyXyXyXyXyXyXyXyXyXyXyXyXyXyXyXyXyXyXyXyXyXyXyXyXyXyXyXyXyXyXyXyXyXyXyXyXyXyXyXyXyXyXyXyXyXyX/.",
"/.yXyXyXyXyXyXyXyXyXyXyXyXyXyXyXyXyXyXyXyXyXyXyXyXyXyXyXyXyXyXyXyXyXyXyXyXyXyXyXyXyXyXyXyXyXyXyXyXyXyXyXyXyXyXyXyXyXyXyXyXyXyXyXyXyXyXyX/.",
"/.yXyXyXyXyXyXyXyXyXyXyXyXyXyXyXyXyXyXyXyXyXyXyXyXyXyXyXyXyXyXyXyXyXyXyXyXyXyXyXyXyXyXyXyXyXyXyXyXyXyXyXyXyXyXyXyXyXyXyXyXyXyXyXyXyXyXyX/.",
"/.yXyXyXyXyXyXyXyXyXyXyXyXyXyXyXyXyXyXyXyXyXyXyXyXyXyXyXyXyXyXyXyXyXyXyXyXyXyXyXyXyXyXyXyXyXyXyXyXyXyXyXyXyXyXyXyXyXyXyXyXyXyXyXyXyXyXyX/.",
"/.yXyXyXyXyXyXyXyXyXyXyXyXyXyXyXyXyXyXyXyXyXyXyXyXyXyXyXyXyXyXyXyXyXyXyXyXyXyXyXyXyXyXyXyXyXyXyXyXyXyXyXyXyXyXyXyXyXyXyXyXyXyXyXyXyXyXyX/.",
"/.yXyXyXyXyXyXyXyXyXyXyXyXyXyXyXyXyXyXyXyXyXyXyXyXyXyXyXyXyXyXyXyXyXyXyXyXyXyXyXyXyXyXyXyXyXyXyXyXyXyXyXyXyXyXyXyXyXyXyXyXyXyXyXyXyXyXyX/.",
"/.yXyXyXyXyXyXyXyXyXyXyXyXyXyXyXyXyXyXyXyXyXyXyXyXyXyXyXyXyXyXyXyXyXyXyXyXyXyXyXyXyXyXyXyXyXyXyXyXyXyXyXyXyXyXyXyXyXyXyXyXyXyXyXyXyXyXyX/.",
"/.yXyXyXyXyXyXyXyXyXyXyXyXyXyXyXyXyXyXyXyXyXyXyXyXyXyXyXyXyXyXyXyXyXyXyXyXyXyXyXyXyXyXyXyXyXyXyXyXyXyXyXyXyXyXyXyXyXyXyXyXyXyXyXyXyXyXyX/.",
"/.yXyXyXyXyXyXyXyXyXyXyXyXyXyXyXyXyXyXyXyXyXyXyXyXyXyXyXyXyXyXyXyXyXyXyXyXyXyXyXyXyXyXyXyXyXyXyXyXyXyXyXyXyXyXyXyXyXyXyXyXyXyXyXyXyXyXyX/.",
"/.yXyXyXyXyXyXyXyXyXyXyXyXyXyXyXyXyXyXyXyXyXyXyXyXyXyXyXyXyXyXyXyXyXyXyXyXyXyXyXyXyXyXyXyXyXyXyXyXyXyXyXyXyXyXyXyXyXyXyXyXyXyXyXyXyXyXyX/.",
"/.yXyXyXyXyXyXyXyXyXyXyXyXyXyXyXyXyXyXyXyXyXyXyXyXyXyXyXyXyXyXyXyXyXyXyXyXyXyXyXyXyXyXyXyXyXyXyXyXyXyXyXyXyXyXyXyXyXyXyXyXyXyXyXyXyXyXyX/.",
"/.yXyXyXyXyXyXyXyXyXyXyXyXyXyXyXyXyXyXyXyXyXyXyXyXyXyXyXyXyXyXyXyXyXyXyXyXyXyXyXyXyXyXyXyXyXyXyXyXyXyXyXyXyXyXyXyXyXyXyXyXyXyXyXyXyXyXyX/.",
"/.yXyXyXyXyXyXyXyXyXyXyXyXyXyXyXyXyXyXyXyXyXyXyXyXyXyXyXyXyXyXyXyXyXyXyXyXyXyXyXyXyXyXyXyXyXyXyXyXyXyXyXyXyXyXyXyXyXyXyXyXyXyXyXyXyXyXyX/.",
"/.yXyXyXyXyXyXyXyXyXyXyXyXyXyXyXyXyXyXyXyXyXyXyXyXyXyXyXyXyXyXyXyXyXyXyXyXyXyXyXyXyXyXyXyXyXyXyXyXyXyXyXyXyXyXyXyXyXyXyXyXyXyXyXyXyXyXyX/.",
"/.yXyXyXyXyXyXyXyXyXyXyXyXyXyXyXyXyXyXyXyXyXyXyXyXyXyXyXyXyXyXyXyXyXyXyXyXyXyXyXyXyXyXyXyXyXyXyXyXyXyXyXyXyXyXyXyXyXyXyXyXyXyXyXyXyXyXyX/.",
"/.yXyXyXyXyXyXyXyXyXyXyXyXyXyXyXyXyXyXyXyXyXyXyXyXyXyXyXyXyXyXyXyXyXyXyXyXyXyXyXyXyXyXyXyXyXyXyXyXyXyXyXyXyXyXyXyXyXyXyXyXyXyXyXyXyXyXyX/.",
"/.yXyXyXyXyXyXyXyXyXyXyXyXyXyXyXyXyXyXyXyXyXyXyXyXyXyXyXyXyXyXyXyXyXyXyXyXyXyXyXyXyXyXyXyXyXyXyXyXyXyXyXyXyXyXyXyXyXyXyXyXyXyXyXyXyXyXyX/.",
"/.yXyXyXyXyXyXyXyXyXyXyXyXyXyXyXyXyXyXyXyXyXyXyXyXyXyXyXyXyXyXyXyXyXyXyXyXyXyXyXyXyXyXyXyXyXyXyXyXyXyXyXyXyXyXyXyXyXyXyXyXyXyXyXyXyXyXyX/.",
"/.yXyXyXyXyXyXyXyXyXyXyXyXyXyXyXyXyXyXyXyXyXyXyXyXyXyXyXyXyXyXyXyXyXyXyXyXyXyXyXyXyXyXyXyXyXyXyXyXyXyXyXyXyXyXyXyXyXyXyXyXyXyXyXyXyXyXyX/.",
"/.yXyXyXyXyXyXyXyXyXyXyXyXyXyXyXyXyXyX3XXXXXXXXX#XyXyXyXyXyXyXyXyXyXyXyXyXyXyXyXyXyXyX1XXXXXXXXX$XyXyXyXyXyXyXyXyXyXyXyXyXyXyXyXyXyXyXyX/.",
"/.yXyXyXyXyXyXyXyXyXyXyXyXyXyXyXyXyXyX2Xa       v.yXyXyXyXyXyXyXyXyXyXyXyXyXyXyXyXyXyX;Xw     . S.yXyXyXyXyXyXyXyXyXyXyXyXyXyXyXyXyXyXyX/.",
"/.yXyXyXyXyXyXyXyXyXyXyXyXyXyXyXyXyXyXyXI.    H yXyXyXyXyXyXyXyXyXyXyXyXyXyXyXyXyXyXyXyXC.    ! yXyXyXyXyXyXyXyXyXyXyXyXyXyXyXyXyXyXyXyX/.",
"/.yXyXyXyXyXyXyXyXyXyXyXyXyXtXY.r.d.XXyXyXy   C.yX0XZ.q.z.:XyXyXyXyXyXyXyXyXrXK.e.f.#XyXrX5   I.yX8XN.0.v.<XyXyXyXyXyXyXyXyXyXyXyXyXyXyX/.",
"/.yXyXyXyXyXyXyXyXyXyXyXyX=XM       X +.rX[   <X~.q       - z.yXyXyXyXyXyX@Xl       O >.tXQ @ 9XI.6       , B.yXyXyXyXyXyXyXyXyXyXyXyXyX/.",
"/.yXyXyXyXyXyXyXyXyXyXyXrXv             o.4.; |.;           X L.yXyXyXyX0Xs             ,.$.8 _.%           + ^.yXyXyXyXyXyXyXyXyXyXyXyX/.",
"/.yXyXyXyXyXyXyXyXyXyXyXZ.              . E 7 n               n yXyXyXyXk.              O Y i d               H yXyXyXyXyXyXyXyXyXyXyXyX/.",
"/.yXyXyXyXyXyXyXyXyXyXyX+.                . .                 X 9XyXyXyX`                 . .                 & yXyXyXyXyXyXyXyXyXyXyXyX/.",
"/.yXyXyXyXyXyXyXyXyXyXyX*.                                    + qXyXyXyX{                                     : yXyXyXyXyXyXyXyXyXyXyXyX/.",
"/.yXyXyXyXyXyXyXyXyXyXyXm.                                    l yXyXyXyXs.                                    A yXyXyXyXS.6.6.;XyXyXyXyX/.",
"/.yXyXyXyXyXyXyXyXyXyXyXwXa                                 . V.yXyXyXyX7Xq                                 X K.yXyXyXyX|.X R yXyXyXyXyX/.",
"/.yXyXyXyXyXyXyXyXyXyXyXyX#Xx         >         = O       = a.yXyXyXyXyXyX Xf         >         ; X       : x.yX4XX.h W &Xl M.x.l Z F.yX/.",
"/.yXyXyXyXyXyXyXyXyXyXyXyXyXtXL.9.1.c.u         . ,.t.3.h.*XyXyXyXyXyXyXyXyXeXH.8.2.z.q         o 6.e.4.l.:XyXyX!       r J  .      o )./.",
"/.yXyXyXyXyXyXyXyXyXyXyXyXyXyXyXyXyX}             = %XyXyXyXyXyXyXyXyXyXyXyXyXyXyXyX^             < >XyXyXyXyXwX@         O O         -./.",
"/.yXyXyXyXyXyXyXyXyXyXyXyXyXyXyXyX+XO               ..yXyXyXyXyXyXyXyXyXyXyXyXyXyX[..               :.yXyXyXyXyX1                     9./.",
"/.yXyXyXyXyXyXyXyXyXyXyXyXyXyXyXyXh.                i yXyXyXyXyXyXyXyXyXyXyXyXyXyXr.                v yXyXyXyXyXa.X     .     .     y >X/.",
"/.yXyXyXyXyXyXyXyXyXyXyXyXyXyXyXyXp.                q yXyXyXyXyXyXyXyXyXyXyXyXyXyX7.                h yXyXyXyXyXyX'.w.1.=     n t.l.5XyX/.",
"/.yXyXyXyXyXyXyXyXyXyXyXyXyXyXyXyX_.                ! yXyXyXyXyXyXyXyXyXyXyXyXyXyXU.                { yXyXyXyXyXyXyXyXH         Y.yXyXyX/.",
"/.yXyXyXyXyXyXyXyXyXyXyXyXyXyXyXyXyXP             # '.yXyXyXyXyXyXyXyXyXyXyXyXyXyXtXV             = .XyXyXyXyXyXyXyXyX=         2.yXyXyX/.",
"/.yXyXyXyXyXyXyXyXyXyXyXyXyXyXyXyXyX3XP         2 D.yXyXyXyXyXyXyXyXyXyXyXyXyXyXyXyX>XS         6 U.yXyXyXyXyXyXyXyXyXc         V.yXyXyX/.",
"/.yXyXyXyXyXyXyXyXyXyXyXyXyXyXyXyXyXyXyX(.r.2.m.3XyXyXyXyXyXyXyXyXyXyXyXyXyXyXyXyXyXyXyX!.e.3.N.6XyXyXyXyXyXyXyXyXyXyX].y   X +.yXyXyXyX/.",
"/.yXyXyXyXyXyXyXyXyXyXyXyXyXyXyXyXyXyXyXyXyXyXyXyXyXyXyXyXyXyXyXyXyXyXyXyXyXyXyXyXyXyXyXyXyXyXyXyXyXyXyXyXyXyXyXyXyXyXyXrX|.:XyXyXyXyXyX/.",
"/.yXyXyXyXyXyXyXyXyXyXyXyXyXyXyXyXyXyXyXyXyXyXyXyXyXyXyXyXyXyXyXyXyXyXyXyXyXyXyXyXyXyXyXyXyXyXyXyXyXyXyXyXyXyXyXyXyXyXyXT y.yXyXyXyXyXyX/.",
"/.yXyXyXyXyXyXyXyXyXyXyXyXyXyXyXyXyXyXyXyXyXyXyXyXyXyXyXyXyXyXyXyXyXyXyXyXyXyXyXyXyXyXyXyXyXyXyXyXyXyXyXyXyXyXyXyXyXyXyXT y.yXyXyXyXyXyX/.",
"/.yXyXyXyXyXyXyXyXyXyXyXyXyXyXyXyXyXyXyXyXyXyXyXyXyXyXyXyXyXyXyXyXyXyXyXyXyXyXyXyXyXyXyXyXyXyXyXyXyXyXyXyXyXyXyXyXyXyXp & < 0 0 5 Q yXyX/.",
"/.yXyXyXyXyXyXyXyXyXyXyXyXyXyXyXyXyXyXyXyXyXyXyXyXyXyXyXyXyXyXyXyXyXyXyXyXyXyXyXyXyXyXyXyXyXyXyXyXyXyXyXyXyXyXyXyXyXyXyXT y.yXeXm C.yXyX/.",
"/.yXyXyXyXyXyXyXyXyXyXyXyXyXyXyXyXyXyXyXyXyXyXyXyXyXyXyXyXyXyXyXyXyXyXyXyXyXyXyXyXyXyXyXyXyXyXyXyXyXyXyXyXyXyXyXyXyXyXyXT y.yX4._ yXyXyX/.",
"/.yXyXyXyXyXyXyXyXyXyXyXyXyXyXyXyXyXyXyXyXyXyXyXyXyXyXyXyXyXyXyXyXyXyXyXyXyXyXyXyXyXyXyXyXyXyXyXyXyXyXyXyXyXyXyXyXyXyXyXT y.'.r 2XyXyXyX/.",
"/.yXyXyXyXyXyXyXyXyXyXyXyXyXyXyXyXyXyXyXyXyXyXyXyXyXyXyXyXyXyXyXyXyXyXyXyXyXyXyXyXyXyXyXyXyXyXyXyXyXyXyXyXyXyXyXyXyXyXyXT w.j L.yXyXyXyX/.",
"/.yXyXyXyXyXyXyXyXyXyXyXyXyXyXyXyXyXyXyXyXyXyXyXyXyXyXyXyXyXyXyXyXyXyXyXyXyXyXyXyXyXyXyXyXyXyXyXyXyXyXyXyXyXyXyXyXyXyXyXT w  .yXyXyXyXyX/.",
"/.yXyXyXyXyXyXyXyXyXyXyXyXyXyXyXyXyXyXyXyXyXyXyXyXyXyXyXyXyXyXyXyXyXyXyXyXyXyXyXyXyXyXyXyXyXyXyXyXyXyXyXyXyXyXyXyXyXyXyXT y 6XyXyXyXyXyX/.",
"/.yXyXyXyXyXyXyXyXyXyXyXyXyXyXyXyXyXyXyXyXyXyXyXyXyXyXyXyXyXyXyXyXyXyXyXyXyXyXyXyXyXyXyXyXyXyXyXyXyXyXyXyXyXyXyXyXyXyXyXyXyXyXyXyXyXyXyX/.",
"R.tXyXyXyXyXyXyXyXyXyXyXyXyXyXyXyXyXyXyXyXyXyXyXyXyXyXyXyXyXyXyXyXyXyXyXyXyXyXyXyXyXyXyXyXyXyXyXyXyXyXyXyXyXyXyXyXyXyXyXyXyXyXyXyXyXyXtXE.",
"qXT./.(.(.(.(.(.(.(.(.(.(.(.(.(.(.(.(.(.(.(.(.(.(.(.(.(.(.(.(.(.(.(.(.(.(.(.(.(.(.(.(.(.(.(.(.(.(.(.(.(.(.(.(.(.(.(.(.(.(.(.(.(.(.(./.T.qX"
};
