/* XPM */
static const char *jack_diamonds[] = {
/* columns rows colors chars-per-pixel */
"69 100 234 2 ",
"   c #010000",
".  c #0C0001",
"X  c #140202",
"o  c #1B0303",
"O  c #1E0808",
"+  c #1C0708",
"@  c #230405",
"#  c #2B0606",
"$  c #280A0A",
"%  c #340A0A",
"&  c #3A0D0C",
"*  c #3C0305",
"=  c #29140E",
"-  c #3D100D",
";  c #390D11",
":  c #2C1813",
">  c #371815",
",  c #3A2816",
"<  c #3D1D36",
"1  c #3E1325",
"2  c #392E32",
"3  c #580406",
"4  c #43140F",
"5  c #550E18",
"6  c #451614",
"7  c #4B1B12",
"8  c #4C1C1C",
"9  c #46161A",
"0  c #541B14",
"q  c #49080E",
"w  c #660305",
"e  c #780204",
"r  c #671A15",
"t  c #761517",
"y  c #700C15",
"u  c #542313",
"i  c #5C2B15",
"p  c #572819",
"a  c #473819",
"s  c #54291B",
"d  c #622817",
"f  c #643417",
"g  c #6A3C17",
"h  c #663819",
"j  c #782D1C",
"k  c #451926",
"l  c #4F1B2C",
"z  c #6A1728",
"x  c #4B2624",
"c  c #512422",
"v  c #572B27",
"b  c #5C3429",
"n  c #583734",
"m  c #4D2C33",
"M  c #623B29",
"N  c #653C36",
"B  c #7A2E30",
"V  c #3B443D",
"C  c #6E4118",
"Z  c #714418",
"A  c #764A1A",
"S  c #794E18",
"D  c #754817",
"F  c #7D5318",
"G  c #7E5418",
"H  c #544432",
"J  c #69462A",
"K  c #724C2B",
"L  c #785627",
"P  c #684736",
"I  c #765637",
"U  c #6C5733",
"Y  c #6B652C",
"T  c #534818",
"R  c #382D54",
"E  c #37325A",
"W  c #3B2749",
"Q  c #333764",
"!  c #2C3A6C",
"~  c #452848",
"^  c #553B44",
"/  c #4B314D",
"(  c #26437C",
")  c #374F72",
"_  c #3D4840",
"`  c #5A5A59",
"'  c #51484E",
"]  c #755549",
"[  c #6E514A",
"{  c #726555",
"}  c #4A5C6C",
"|  c #5A6567",
" . c #506B75",
".. c #656565",
"X. c #6C6C6C",
"o. c #747474",
"O. c #747F75",
"+. c #6B7571",
"@. c #5F605D",
"#. c #880203",
"$. c #990305",
"%. c #880F1A",
"&. c #A80102",
"*. c #BB0101",
"=. c #B40102",
"-. c #B7131A",
";. c #8A1B24",
":. c #B81B22",
">. c #AF2E30",
",. c #833033",
"<. c #C40001",
"1. c #CC0304",
"2. c #D40101",
"3. c #DF0000",
"4. c #D2060B",
"5. c #C40F16",
"6. c #E00B0B",
"7. c #E21717",
"8. c #E53131",
"9. c #805617",
"0. c #845B17",
"q. c #835B19",
"w. c #805618",
"e. c #8B6417",
"r. c #8E6917",
"t. c #89641B",
"y. c #926D16",
"u. c #906713",
"i. c #957215",
"p. c #9D7C14",
"a. c #987616",
"s. c #815F24",
"d. c #866B2F",
"f. c #85594F",
"g. c #AC5049",
"h. c #866759",
"j. c #89704F",
"k. c #AE665B",
"l. c #8A7969",
"z. c #937A69",
"x. c #90786A",
"c. c #B37668",
"v. c #EA5858",
"b. c #E84848",
"n. c #EB6464",
"m. c #EE7777",
"M. c #77887B",
"N. c #B69B0E",
"B. c #A68612",
"V. c #AD9212",
"C. c #B39610",
"Z. c #BCA30D",
"A. c #988F2E",
"S. c #C3AC0A",
"D. c #CDB708",
"F. c #D9C803",
"G. c #E0CF01",
"H. c #E2D200",
"J. c #978455",
"K. c #978777",
"L. c #93856F",
"P. c #B28B7A",
"I. c #1B5C9A",
"U. c #16589D",
"Y. c #1D4B8D",
"T. c #356C8D",
"R. c #3E728B",
"E. c #266394",
"W. c #2F688F",
"Q. c #1156A1",
"!. c #224E88",
"~. c #437589",
"^. c #4B7B88",
"/. c #487787",
"(. c #537E86",
"). c #588387",
"_. c #648B89",
"`. c #688C87",
"'. c #6D918A",
"]. c #73958B",
"[. c #7C9C8E",
"{. c #76988C",
"}. c #748C82",
"|. c #9B9584",
" X c #829E8E",
".X c #A79988",
"XX c #BE9383",
"oX c #84A191",
"OX c #8BA695",
"+X c #8EA996",
"@X c #95AD9A",
"#X c #95A996",
"$X c #9CB39E",
"%X c #A9A896",
"&X c #B3AB99",
"*X c #A8AC98",
"=X c #A5BAA4",
"-X c #A9BBA6",
";X c #B7B9A7",
":X c #BBADA0",
">X c #9FB5A0",
",X c #EF8181",
"<X c #F29393",
"1X c #C9A999",
"2X c #CFBBAD",
"3X c #F4A8A8",
"4X c #F6B7B7",
"5X c #C29A8A",
"6X c #B3C3AD",
"7X c #BBCAB5",
"8X c #BBCAB5",
"9X c #AEC0AB",
"0X c #C4CCB9",
"qX c #C5D1BD",
"wX c #D9C5B8",
"eX c #CBCBCB",
"rX c #C3C3C3",
"tX c #CBD6C4",
"yX c #D4D9CA",
"uX c #DBDED3",
"iX c #D2CFC2",
"pX c #F8C6C6",
"aX c #FAD9D9",
"sX c #E3D8CD",
"dX c #DCE3D5",
"fX c #E4E6DB",
"gX c #EEEEEE",
"hX c #E8EBE3",
"jX c #FAEAE9",
"kX c #EDF1E9",
"lX c #F3F2ED",
"zX c #F5F5F2",
"xX c #FFFFFF",
"cX c #FAF7F5",
/* pixels */
"cXrXeXeXeXeXeXeXeXeXeXeXeXeXeXeXeXeXeXeXeXeXeXeXeXeXeXeXeXeXeXeXeXeXeXeXeXeXeXeXeXeXeXeXeXeXeXeXeXeXeXeXeXeXeXeXeXeXeXeXeXeXeXeXeXeXeXrXcX",
"rXxXxXxXxXxXxXxXxXxXxXxXxXxXxXxXxXxXxXxXxXxXxXxXxXxXxXxXxXxXxXxXxXxXxXxXxXxXxXxXxXxXxXxXxXxXxXxXxXxXxXxXxXxXxXxXxXxXxXxXxXxXxXxXxXxXxXxXrX",
"eXxXxX3X3.3.n.xXxXxXxXxXxXxXxXxXxXxXxXxXxXxXxXxXxXxXxXxXxXxXxXxXxXxXxXxXxXxXxXxXxXxXxXxXxXxXxXxXxXxXxXxXxXxXxXxXxXxXxXxXxXxXxXxXxXxXxXxXeX",
"eXxXxXxXxXn.n.xXxXxXxXxXxXxXxXxXxXxXxXxXxXxXxXxXxXxXxXxXxXxXxXxXxXxXxXxXxXxXxXxXxXxXxXxXxXxXxXxXxXxXxXxXxXxXxXxXxXxXxXxXxXxXxXxXxXxXxXxXeX",
"eXxXxXxXxXn.n.xXxXxXxXxXxXxXxXxXxXxXxXxXxXxXxXxXxXxXxXxXxXxXxXxXxXxXxXxXxXxXxXxXxXxXxXxXxXxXxXxXxXxXxXxXxXxXxXxXxXxXxXxXxXxXxXxXxXxXxXxXeX",
"eXxXxXxXxXn.n.xXxXxXxXxXxXxXxXxXxXxXxXxXxXxXxXxXxXxXxXxXxXxXxXxXxXxXxXxXxXxXxXxXxXxXxXxXxXxXxXxXxXxXxXxXxXxXxXxXxXxXxXxXxXxXxXxXxXxXxXxXeX",
"eXxXxXxXxXv.n.xXxXxXxXxXxXxXxXxXxXxXxXxXxXxXxXxXxXxXxXxXxXxXxXxXxXxXxXxXxXxXxXxXxXxXxXxXxXxXxXxXxXxXxXxXxXxXxXxXxXxXxXxXxXxXxXxXxXxXxXxXeX",
"eXxXxXxXxXn.n.xXxXxXxXxXxXxXxXxXxXxXxXxXxXxXxXxXxXxXxXxXxXxXxXxXxXxXxXxXxXxXxXxXxXxXxXxXxXxXxXxXxXxXxXxXxXxXxXxXxXxXxXxXxXxXxXxXxXxXxXxXeX",
"eX4X4XxXxXv.n.xXxXxXxXxXxXxXxXxXxXxXxXxXxXxXxXxXxXxXxXxXxXxXxXxXxXxXxXxXxXxXxXxXxXxXxXxXxXxXxXxXxXxXxXxXxXxXxXxXxXxXxXxXxXxXxXxXxXxXxXxXeX",
"eXm.8.jXaX7.4XxXxXgX........................2 % 6 x @.x 6 x ` 6 m @.6 6 4 q 6 9 ..x 9 ..x 4 6 8 | m 9 : ..............hXxXxXxXxXxXxXxXxXeX",
"eXcXv.7.7.m.xXxXxXX.gXxXxXxXxXxXxXjXxXxXxXxXhX9 =.3.5X1X2.4.jX>.:.xX5.3.6.6.6.-.xX:.>.zX1.6.6.P.wX2.#.|.xXxXxXxXxXxXgXX.xXxXxXxXxXxXxXxXeX",
"eXxXxXxXxXxXxXxXxXo.xXxXxXxXxXxXxX8.cXxXxXxXxXqXq 1.-.aXg.6.XXc.3.fX>.3.6.6.6.g.sX3.c.5X6.6.>.xX:.*.n xXxXxXxXxXxXxXxX` xXxXxXxXxXxXxXxXeX",
"eXxXxXxXcXxXxXxXxXX.xXxXxXxXxXxX3X6.<XxXxXxXxXxX.X3 2.>.lXk.wXfX3.P.sX5Xc.c.g.2Xc.3.sXg.3.4.sXk.3.5 fXxXxXxXxXxXxXxXK.a xXxXxXxXxXxXxXxXeX",
"eXxXxXxXn.cXxXxXxXo.xXxXxXxXxXxX8.6.8.xXxXxXxXxXxXX.w 3.c.1XP.k.4.-.g.g.k.c.XX1X>.5.xXwXg.XXsX4.w #XxXxXxXxXxXxXxX.XK : xXxXxXxXxXxXxXxXeX",
"eXxXxX4X3.n.xXxXxXo.xXxXxXxXxX3X3.3.6.<XxXxXxXxXxXxX' $.3.3.6.6.3.6.6.6.6.3.3.3.3.3.>.k.wXxX>.&.n xXxXxXxXxXxXxX.Xg i X xXxXxXxXxXxXxXxXeX",
"eXxXjX8.3.3.4XxXxXo.xXxXxXxXxX7.3.3.6.7.jXxXxXxXxXxXzXm e e y 5 l v c l z 5 5 3 w $.<.3.3.4.1.6 kXxXxXxXxXxXxXxXP 0 w.X xXxXxXxXxXxXxXxXeX",
"eXcX8.6.3.6.6.pXxXo.xXxXxXxXn.6.3.3.3.6.b.xXxXxXxXxXxXdX/.7XkXxXxXxXxXxXxXxXxX] i 7 # # 3 e 3 &XxXhX[ kXxXxXxXxXI % e.X xXxXxXxXxXxXxXxXeX",
"eXb.3.6.3.3.3.7.aXo.xXxXxX3X3.3.6.3.3.3.6.<XxXxXxXxXxXxX].=XOXdXxXxXyX'.^.`.8XiXS S 9.Z i & b xXxXcXK K h.cXxXxXI % g @ xXxXxXxXxXxXxXxXeX",
"eXpX7.3.3.6.3.<XxXo.xXxXpX6.6.6.3.3.3.3.3.3.3XxXxXxXxXhXW.OXOX~.kXxX].=X$X@X[.#Xd.p.u.C S D d.xXxXxXh.D.B.L I %XN # 4 , xXxXxXxXxXxXxXxXeX",
"eXxXpX6.3.3.,XxXxXo.xXpX4.6.6.6.3.3.6.3.6.3.6.4XxXxXxXuX^.]._.'.-XxX$X~.~.R.).6XJ.y.p.9.r.D 9.qXxXxXzXK 0 ; w.r.f & @ = xXxXxXxXxXxXxXxXeX",
"eXxXxX<X3.8.xXxXxXo.cX7.3.6.3.3.3.3.3.3.3.3.3.7.jXxXxXK.) I.I.W.9XxXOXT.E.E.T.~..X0.p.e.B.r.t.z.xXxXxX2XL 7 $ & # 7 u , xXxXxXxXxXxXxXxXeX",
"eXxXxXxX8.aXxXxXxXo.xXaX7.3.3.3.3.3.6.3.3.3.7.pXxXxXxXI ` {.).I.tXxXhXR.~.).>XyXzXs.9.e.p.G e.j.xXxXxXxX;XL Z % # u # $ xXxXxXxXxXxXxXxXeX",
"eXxXxXxXaXxXxXxXxXo.xXxXaX7.3.6.3.6.3.3.3.6.pXxXxXL.K t.M.cX-X'.cXxXcXhX7XxXxXxXxXj.p.0.r.9.F q.iXxXxXxXxXyXI q.u X X + xXxXxXxXxXxXxXxXeX",
"eXxXxXxXxXxXxXxXxXo.xXxXxX4X3.3.3.3.6.3.3.4XxXxXxXL.L I `.xXxXoXzXtXhXoXxXxXxXxXxXs r.u.e.i.e.y.j.xXxXxXxXxXxXK.7 S e., xXxXxXxXxXxXxXxXrX",
"eXxXxXxXxXxXxXxXxX' cXxXxXxX,X3.3.6.3.3.n.xXxXxXxXxXlXxXm xXxX'.@X~.^.[.xXxXxXxXL.F g e.e.e.e.9.d.cXxXxXxXxXxXxXb % 7 X xXxXxXxXxXxXxXxXeX",
"eXxXxXxXxXxXxXxXxXT [ xXxXxXxX8.3.3.6.7.cXxXxXxXiXL I |.8 zXxXxX@XtXzXxXxXxXxXxXI G i 0.i.e.e.9.C L.xXxXxXxXxXxXM % u $ xXxXxXxXxXxXxXxXeX",
"eXxXxXxXxXxXxXxXxX: p.P cXxXxX4X3.3.3.3XxXxXxXxXz.G S.u f K.cX[.).).R.).xXxXxXxXL G 4 S S G a.r.S J K J &XxXxXxXM & # , xXxXxXxXxXxXxXxXeX",
"eXxXxXxXxXxXxXxXxX= g B.[ xXxXxXb.3.8.xXxXxXxXxXP G G F e.x dXoX).'.OX$XxXxXxXxXL F D f F e.r.B.S 4 Z.D j.xXxXxXM & @ a xXxXxXxXxXxXxXxXeX",
"eXxXxXxXxXxXxXxXxX: r.6 U xXxXxXpX3.3XxXxXxX:X9 & 7 u h Z u z.xXtX].hXxXxXxXxXyX' i.S i 9.S e.e.y.0.S 0.L.xXxX8Xb & $ T xXxXxXxXxXxXxXxXeX",
"eXxXxXxXxXxXxXxXxX, g - U xXxXxXxXb.cXxX.Xb % i   D u 6 f Z s ;X8XtX8XxXxXzXOX+XxXx.K g f G S e.0.9.f ' @XxXzX].x & & , xXxXxXxXxXxXxXxXeX",
"eXxXxXxXxXxXxXxXxXT 8 & I xXxXxXxXcXK.M p L | U i   f S ; v 7 6 { dXhXqXoXOXhXxXxX2XM f   @ u 4 p s W -XtX'.[.+Xv & f = xXxXxXxXxXxXxXxXeX",
"eXxXxXxXxXxXxXxXxXY % & U xXxXzXh.c y.9.N.E -X' i i   & p.d.L.K.m c n 8XzXxXxX&XI e.C . @ e.# % #XR.$XU.[.E.^.xXs % v $ xXxXxXxXxXxXxXxXeX",
"eXxXxXxXxXxXxXxXxXY # & I fX Xb h Z.B.B.n -X8X;   M S X X p a.s e.0.N.M ] I L y.g @   u y.o ; ;X).U.{.+XU.1 K.xX| }.cX' xXxXxXxXxXxXxXxXeX",
"eXxXxXxXxXxXxXxXxXY 7 & P [.{ N.y.F.F t.!.tXR #   -XH t.u . . 7 r.F.a.u 9.i % .   - i.0   % -XE._.7XU.U.l &..XxXR.R.[.` xXxXxXxXxXxXxXxXeX",
"eXxXxXxXxXxXxXxXxX: e.% U L.C.D H.F N.' -X#X6 f   qX/.} n G 7 a.y.y.y.    X % g i.L @   - -XW.tXW.).R.< =.$. XlX~.'.8X2 xXxXxXxXxXxXxXxXeX",
"eXxXxXxXxXxXxXxXxX+ Z.& u B.D F.i.C.n '.`.k 0 g   qXT.].]. .7 H.u V.d D i.d.U ' ..8   6 6X_.R.~.yXE.! e 2.h.#XhXR.~.tX` xXxXxXxXxXxXxXxXeX",
"eXxXxXxXxXxXxXxXxX+ S.% f Z D.p.i.J _.qX^ $.r g   qX~.{.{.n u V.f F.` `.)._._._.8   - 6XR.E.qX/.W.I.3 3.B dXR.xX' T.[.V xXxXxXxXxXxXxXxXeX",
"eXxXxXxXxXxXxXxXxX= p.% u S.B.e.L ) tX) e 3.r Z   8X^.].` p.C.u u v _.oX+X).`.l   9 -XQ.$X`.I.7XE.k <.%.yX~.! l.7 ' b + xXxXxXxXxXxXxXxXeX",
"eXxXxXxXxXxXxXxXxXT 0 % f B.t.S | 7X@Xk 3.3.t Z   7X^.[./ F.H.F.N.A.+X{._.].c   9 K.n OXQ.=X'.I.( w 2.z.OX( e <.5 4 B.X xXxXxXxXxXxXxXxXeX",
"eXxXxXxXxXxXxXxXxXY @ % u r.L ( yX) < Q $.3.t D   ;XR.].| B.H.H.H.` OX_.'.c   9 K.- # [ =XU.$XT.k 1.;.kXI.5 3.3.r * Z.. xXxXxXxXxXxXxXxXeX",
"eXxXxXxXxXxXxXxXxXY o % i M O.tX>X< <.R 5 6.t D   ;XT.{._.9 S a.Y `.`.{.c   8 x.v N.G.& N -XI.!.w 1.P.oXQ =.6.3.r & N.X xXxXxXxXxXxXxXxXeX",
"eXxXxXxXxXxXxXxXxXY % # M /.qXU.I.;X&.%.! $.t S   &X~.].n a.e 5 {.`.[.c   8 z.f a.G.B.4   N _.< <.;.kXI.5 3.3.3.r & i.O xXxXxXxXxXxXxXxXeX",
"eXxXxXxXxXxXxXxXxXa i # U @Xm q U.-XB 4.W 5 e w.  &XT.' t.t 1.^ '.{.c   c z.p y.F.B.g 7 0.Z Q q 6.f.+XE =.3.3.3.r % f = xXxXxXxXxXxXxXxXeX",
"eXxXxXxXxXxXxXxXxX= i.% J 9 &.2.~ T.2X&.t E q w.  %X} f j 2.z ).[.c   c h.d B.H.i.Z 6 r.S.S.R w =.iX~.k 3.3.3.6.r % & a xXxXxXxXxXxXxXxXeX",
"eXxXxXxXxXxXxXxXxXO S.# u 1.3.6.y Q.0XB =.( ; S   .Xk q.*.%.(.[.c   v h.f p.G.p.g 4 0.S.D.u W &.;.lXQ.e 3.3.3.3.r & % a xXxXxXxXxXxXxXxXeX",
"eXxXxXxXxXxXxXxXxXO D.# d 3.3.3.*.Q `.h.2.~ ; @   .XJ $.$.} oXc   v ] . X ; B.g - 9.F.Z.f & 1 3.B 8X( $.3.3.3.3.r % u : xXxXxXxXxXxXxXxXeX",
"eXxXxXxXxXxXxXxXxX, 9.# d 6.3.3.6.l E.uX&.z < p   z.q 2.' OX8   v ] .     X Z & G F.D.f 4 x 6 3.f.#XW <.3.3.3.3.r % i.O xXxXxXxXxXxXxXxXeX",
"eXxXxXxXxXxXxXxXcXY 4 # r 6.3.3.6.#.Q.dX;.&.! -   ; #.;.oXl   v ]           $ Z V.S.f 7 y.n q 3.z.}.< 6.3.3.3.3.r & H.X xXxXxXxXxXxXxXxXeX",
"eXxXxXxXxXxXxXxXxXY % # d 3.6.3.3.&.Y.>XB 1.! 9 L & # ] 9   b [                 7 h 7 y.F.n 5 3.K.'.l 2.6.3.3.3.r & H.X xXxXxXxXxXxXxXxXeX",
"eXxXxXxXxXxXxXxXxXY - $ d 6.3.3.3.2.Q ].] 3.Q q 7 Z   X   M [                   # i y.H.Z.m 5 3.z.'.k 6.3.3.3.3.r % V.O xXxXxXxXxXxXxXxXeX",
"eXxXxXxXxXxXxXxXxXa h @ d 3.3.6.6.6.R _.h.6./ ; 0.N.6 % o v                 . [ o X # D.G > q 3.x.].< 2.3.3.3.3.r % g : xXxXxXxXxXxXxXxXeX",
"eXxXxXxXxXxXxXxXxX$ B.@ d 3.3.3.6.6.~ ).z.6.~ 9 S.F.y.4 -                 . { 9   o   a.% c k 6.f.+XR =.3.6.3.3.r % 6 a xXxXxXxXxXxXxXxXeX",
"eXxXxXxXxXxXxXxXxXO Z.# r 3.3.3.3.3.~ (.z.6./ k G.i.# F u               . h.9   8 [ # # r.s W <.,.0XY.#.3.3.6.3.r % 4 a xXxXxXxXxXxXxXxXeX",
"eXxXxXxXxXxXxXxXxXO Z.@ d 3.3.3.3.3.~ _.z.6.~ l p.& e.D.Z.D %         . l.9   8 M.$.#.&   p W $.%.zXQ.3 3.3.3.3.r % u : xXxXxXxXxXxXxXxXeX",
"eXxXxXxXxXxXxXxXxX$ p.# d 3.3.3.3.3.Q [.f.6.~ > % D F.Z.r.4 g       X l.9   c oX^ 2.5 K.  h E w *.yX/.1 2.3.6.3.r % 0.O xXxXxXxXxXxXxXxXeX",
"eXxXxXxXxXxXxXxXxX, f # 0 3.3.3.6.*.Y.@XB 3.! X G D.Z.G 7 C r.% + X x.6   v oX} $.#.L %X  X < 9 3.h.@XQ #.6.3.3.r % B.X xXxXxXxXxXxXxXxXeX",
"eXxXxXxXxXxXxXxXxXa 4 @ 0 6.6.6.3.$.Q.uX;.&.! ; F.N.S u f a.H.C.p L.6   v oXM.y 5.r.` %X  D 6 W $.;.kXU.q 3.3.1.0 % B.X xXxXxXxXxXxXxXxXeX",
"eXxXxXxXxXxXxXxXxXa 4 @ i 6.3.6.3.z E.uX$.%.Q r.D.0.i f y.H.p.p K.9   N [._.z 2.j Y W.%X  S r E 3 <.%X'.Q $.$.m p # e.@ xXxXxXxXxXxXxXxXeX",
"eXxXxXxXxXxXxXxXxX, i @ 0 3.3.3.2.E `.{ 2.m ! 5 g f i B.H.a.p K.>   N [.`.v <.t A.M.(.%X  F j z < <.,.dXU.< } $XM % f = xXxXxXxXxXxXxXxXeX",
"eXxXxXxXxXxXxXxXxX= a.@ 0 6.3.3.%.U.iX;.<.( T.N   7 N.H.C.p |.6   N ]._.+.q 3 q. .[.^.=X  F j *.E w *.K.U.E.rX' 7 # 7 , xXxXxXxXxXxXxXxXeX",
"eXxXxXxXxXxXxXxXxX+ Z.@ 0 3.3.3./ /.%X*.%.Q.U.[.N 4 G.B.8 |.6   N oX`...Z F.S.c M.{.).&X  G j 3.y l &.E oX=Xn h f # & a xXxXxXxXxXxXxXxXeX",
"eXxXxXxXxXxXxXxXxXO Z.@ 0 6.6.y Q.6XB 2.R I.-XI.{.] @ & |.6   N '.{.=XH H.H.H.F.` [.R.-X  G j 3.<.R ~ ).tX2 q.t.u # 4 : xXxXxXxXxXxXxXxXeX",
"eXxXxXxXxXxXxXxXxX+ f X - e $.! ^.K.*.%.Q.Q.).0XI.`.^ |.;   N [.].].@Xi V.N.D.H.| ).^.;X  G j 3.2.m [.+X^ r.e.C.g @ C $ xXxXxXxXxXxXxXxXeX",
"eXxXxXxXxXxXxXxXxX, :X^.) cX} I.yXt <.Q Q.9X~.^.0XI.-X&   P `._.$X#X+.4 f 7 9.V. .[.).-X  S j 3.y _.yXR 0.S B.N.u # V.X xXxXxXxXxXxXxXxXeX",
"eXxXxXxXxXxXxXxXxX_ oX).).zX X8XB 2.z Q.~.E.8X^.W.-X;   N '._.| ^ ' v F.0 N.i ^ oX[.).=X  A j &.) 9X) i 0.p.N.0.f & B.X xXxXxXxXxXxXxXxXeX",
"eXxXxXxXxXxXxXxXxX' 9X/.W.=X-X{ =.#.Y.Q.+X].I.).=X;   b P b S i.p.e.S y.f H.f m +.{.).*X  A f R _.}.9 p.p.D.t.B.p % N.X xXxXxXxXxXxXxXxXeX",
"eXxXxXxXxXxXxXxXxXV qXoX'.6X0X#.=.! Q.+XQ.oX(.>X%   # G e.7 @       y.e.9.a.- p.F n ) $X  Z H =X].> C.F G.Z V.&XJ # G $ xXxXxXxXxXxXxXxXeX",
"eXxXxXxXxXxXxXxXxXV  X/.+X9XxXw ~ U.U.'.>XI.*X% X C g @   @ u 9.S 7 0.S.9.u @   # e.L P   6 !.8X/ i.G H.F Z.| ).H # 6 , xXxXxXxXxXxXxXxXeX",
"eXxXxXxXxXxXxXxXxXV dX{ ' 8XhXR Q.T.6XI.R.#X$ % q.@   & e.L ] j.&X{ p.0.d.N K 9.-   7 V.@ ; tX+.v B.S.y.b { 9XxXK # # T xXxXxXxXxXxXxXxXeX",
"eXxXxXxXxXxXxXxXxX+ f @ J tX+XQ.=XR.~.@.[ # # i   # y.d.z.kXxXxXdX$X} ' k I ] n J 0.o @ C.x =Xm N.p.t.N 6XxXxXxXK # - a xXxXxXxXxXxXxXxXeX",
"eXxXxXxXxXxXxXxXxX= i.@ P {.].=X[.qXk 7 f A i - @ f k hXxXxX7X{.@XdXxXxXyXv f Z 4 6 a.@ # C.x d p [ 0X3XxXxXxXxXK # D = xXxXxXxXxXxXxXxXeX",
"eXxXxXxXxXxXxXxXxX, C @ J ^.dXxXhXb g S G G A 0.g f t.d.;X[.6XxXxXxX-X[.oXcXN h 9.g 7 e.+ # v P uXxXjX4.lXxXxXxXI @ V.X xXxXxXxXxXxXxXxXeX",
"eXxXxXxXxXxXxXxXxX, f @ J qXxXxXz.r.e.g S S e.e.e.p y.e.P kXxXxXxXxX8XoX+XkXkXs 0.F G 4 l P hXxXxXxXn.6.,XxXxXxXI 4 a.o xXxXxXxXxXxXxXxXeX",
"eXxXxXxXxXxXxXxXxX, g @ J xXxXxXK.e.D u w.S S y.9.S e.S G cXxXxXxX_.{.).).(.tX[ 9.0.0.B.j.xXxXxXxXjX6.6.7.cXxXxX&Xs.i X xXxXxXxXxXxXxXxXeX",
"eXxXxXxXxXxXxXxXxX= e.@ J xXxXxXxXL.j.N 0.0.9.e.9.e.g g S fXxXxXxX>XOXOX@X=XkXyXu b Z.a.L.xXxXxXxXv.3.3.3.n.xXxXxX&XL , xXxXxXxXxXxXxXxXeX",
"eXxXxXxXxXxXxXxXxXO B.+ J xXxXxXxXxXxXlXd.w.0.g S 9.f S d.xXxXxXxXfX6XtX).@XxXxXv &XK.l.cXxXxXxXpX3.3.3.6.6.pXxXxXxX0X, xXxXxXxXxXxXxXxXeX",
"eXxXxXxXxXxXxXxXxX: u o 9 xXxXxXxXxXxXxXz.w.e.e.G r.0.i .XxXxXxXxX'.@X).tX_.xXxX` dXh.iXxXxXxXjX7.6.3.3.3.3.8.jXxXxXxXX.xXxXxXxXxXxXxXxXeX",
"eXxXxXxXxXxXxXxXxX: i a.r.K z.xXxXxXxXxXyXt.F F q.y.p.U xXxXxXxXkXyXxXxXxX+XxXxX].K F.j.xXxXxXb.3.3.6.3.6.3.3.v.xXxXxXo.xXxXxXxXxXxXxXxXeX",
"eXxXxXxXxXxXxXxXxX: 0 . @ i B.U fXxXxXxXxXd.y.9.G A t.L cXxXxXxX=X9XxXxXxX).>XkX[ t.h.0XxXxXv.3.3.6.3.3.3.3.3.3.n.xXxXo.xXxXxXxX3XxXxXxXeX",
"eXxXxXxXxXxXxXxXxX= @ @ % & @ y.K fXxXxXxXz.y.e.e.i.t.S .X[.[.~.~.W.8XxXfXR.T.~./ d.xXxXxXv.6.3.3.3.3.3.3.3.6.3.3.n.xXo.xXxXxX3X6.jXxXxXeX",
"eXxXxXxXxXxXxXxXxX, S 0.D 7 # + e.U xXxXxXhXA w.F r.e.y.z.oXT.I.U.I./.xX8XQ.U.U.) { xXxXcXb.6.3.3.3.6.3.6.3.3.3.3.v.cXo.xXxXjX7.3.v.xXxXeX",
"eXxXxXxXxXxXxXxXxX$ D X 6 K K F 0 V.h.xXxXxXd.w.w.Z q.y.A.dX@X_.).[.@XcXqX[.OX+X{.>XxXxXxXcXb.6.3.3.3.3.3.3.3.6.v.xXxXo.xXcXb.3.3.3.,XxXeX",
"eXxXxXxXxXxXxXxXxX$ p.o K xXdX] P S.L zXxXxXh.Z e.y.S S d.8X_.(.).T.W.yXxX/.R.^.E.0XxXxXxXxXcX8.6.3.3.3.3.3.6.b.xXxXxXX.cXb.6.3.3.3.3.<XeX",
"eXxXxXxXxXxXxXxXxX+ V.X L xXxXxXzX{ b h.xXxXv @ 7 S F e.0..XxXgXyXdXxXxXxXxXyXfX9XyXxXxXxXxXxXjX7.3.3.6.3.3.7.jXxXxXxXo.cX8.6.6.3.3.3.m.eX",
"eXxXxXxXxXxXxXxXxX+ p.@ L xXxXxXxXxXfX*XxXl.3 <.$.3 q q & x K.*X;XqXtX0X*XK.] b x O.xXxXxXxXxXxX4X3.3.3.3.3.pXxXxXxXxXX.xXcX8.6.3.3.m.xXeX",
"eXxXxXxXxXxXxXxXxX+ i.g K xXxXxXxXxXxXxXyX& 4.>.-.2.3.6.2.=.$.e e e e e e $.&.<.3.y .XxXxXxXxXxXxXb.3.6.3.n.xXxXxXxXxXo.xXxXjX7.3.v.xXxXeX",
"eXxXxXxXxXxXxXxXxX@ g L .XxXxXxXxXxXxXxXk *.k.sXfXjXP.6.>.>.>.:.-.5.5.3.3.:.>.k.k.3.5 0XxXxXxXxXxXaX6.3.6.jXxXxXxXxXxXo.xXxXxX<X6.aXxXxXeX",
"eXxXxXxXxXxXxXxXxXa d.;XxXxXxXxXxXxXxX] e :.fX5.3.c.P.6.1XwX2XsXhXxXxXg.4.fXjXP.iXg.3.l dXxXxXxXxXxXn.3.m.xXxXxXxXxXxXo.xXxXxXxX3XxXxXxXeX",
"eXxXxXxXxXxXxXxXxXH 0XxXxXxXxXxXxXxX0Xq 2.2Xg.3.6.1Xg.3.hX:.3.3.3.4.g.2X3.c.P.6.-.cX:.<.m hXxXxXxXxXaX6.jXxXxXxXxXxXxXX.xXxXxXxXxXxXxXxXeX",
"eXxXxXxXxXxXxXxXxXX.gXxXxXxXxXxXxXzX6 <.g.1X2.3.4.zX:.5.xX4.3.3.3.3.4.cX5.:.lX4.6.g.iX4.&.^ zXxXxXxXxX<XxXxXxXxXxXxXzXX.xXxXxXm.7.6.v.xXeX",
"eXxXxXxXxXxXxXxXxXfX@.X.o.o.o.o.o.2 q 3 o.0 w w 7 o.3 0 ..w w 3 w w w ` x w ..8 w w ` b w ; 2 O.o.o.o.o.o.o.o.o.o.o.` uXxXxX3X7.aXjX8.m.eX",
"eXxXxXxXxXxXxXxXxXxXxXzXgXgXzXgXgXgXgXgXgXgXgXgXgXgXgXgXgXgXgXgXgXgXgXgXgXgXgXgXgXgXgXgXgXgXgXgXzXgXzXgXzXgXgXzXgXzXxXxXxXxXm.v.xXxX4X4XeX",
"eXxXxXxXxXxXxXxXxXxXxXxXxXxXxXxXxXxXxXxXxXxXxXxXxXxXxXxXxXxXxXxXxXxXxXxXxXxXxXxXxXxXxXxXxXxXxXxXxXxXxXxXxXxXxXxXxXxXxXxXxXxXn.n.xXxXxXxXeX",
"eXxXxXxXxXxXxXxXxXxXxXxXxXxXxXxXxXxXxXxXxXxXxXxXxXxXxXxXxXxXxXxXxXxXxXxXxXxXxXxXxXxXxXxXxXxXxXxXxXxXxXxXxXxXxXxXxXxXxXxXxXxXn.n.xXxXxXxXeX",
"eXxXxXxXxXxXxXxXxXxXxXxXxXxXxXxXxXxXxXxXxXxXxXxXxXxXxXxXxXxXxXxXxXxXxXxXxXxXxXxXxXxXxXxXxXxXxXxXxXxXxXxXxXxXxXxXxXxXxXxXxXxXn.v.xXxXxXxXeX",
"eXxXxXxXxXxXxXxXxXxXxXxXxXxXxXxXxXxXxXxXxXxXxXxXxXxXxXxXxXxXxXxXxXxXxXxXxXxXxXxXxXxXxXxXxXxXxXxXxXxXxXxXxXxXxXxXxXxXxXxXxXxXn.n.xXxXxXxXeX",
"eXxXxXxXxXxXxXxXxXxXxXxXxXxXxXxXxXxXxXxXxXxXxXxXxXxXxXxXxXxXxXxXxXxXxXxXxXxXxXxXxXxXxXxXxXxXxXxXxXxXxXxXxXxXxXxXxXxXxXxXxXxXn.n.xXxXxXxXeX",
"eXxXxXxXxXxXxXxXxXxXxXxXxXxXxXxXxXxXxXxXxXxXxXxXxXxXxXxXxXxXxXxXxXxXxXxXxXxXxXxXxXxXxXxXxXxXxXxXxXxXxXxXxXxXxXxXxXxXxXxXxXxXn.3.3.3XxXxXeX",
"rXxXxXxXxXxXxXxXxXxXxXxXxXxXxXxXxXxXxXxXxXxXxXxXxXxXxXxXxXxXxXxXxXxXxXxXxXxXxXxXxXxXxXxXxXxXxXxXxXxXxXxXxXxXxXxXxXxXxXxXxXxXxXxXxXxXxXxXrX",
"cXrXeXeXeXeXeXeXeXeXeXeXeXeXeXeXeXeXeXeXeXeXeXeXeXeXeXeXeXeXeXeXeXeXeXeXeXeXeXeXeXeXeXeXeXeXeXeXeXeXeXeXeXeXeXeXeXeXeXeXeXeXeXeXeXeXeXrXcX"
};
