/* XPM */
static const char *jack_spades[] = {
/* columns rows colors chars-per-pixel */
"69 100 237 2 ",
"   c #000100",
".  c #050A04",
"X  c #0B0D05",
"o  c #0D0D0D",
"O  c #0D1307",
"+  c #141206",
"@  c #1C1407",
"#  c #1B1C0D",
"$  c #13180A",
"%  c #191917",
"&  c #160E08",
"*  c #2B1608",
"=  c #261709",
"-  c #341708",
";  c #3C1708",
":  c #3B1A0B",
">  c #281C14",
",  c #301510",
"<  c #1C2D11",
"1  c #232211",
"2  c #2A2818",
"3  c #3B221F",
"4  c #362A1A",
"5  c #37331C",
"6  c #2E2B11",
"7  c #1B3439",
"8  c #1D3034",
"9  c #2A2928",
"0  c #3A2927",
"q  c #363926",
"w  c #2A3E39",
"e  c #393939",
"r  c #333135",
"t  c #441708",
"y  c #4B1708",
"u  c #48190A",
"i  c #531608",
"p  c #5B1608",
"a  c #5A1809",
"s  c #520D11",
"d  c #4F1813",
"f  c #661507",
"g  c #671609",
"h  c #7C1306",
"j  c #751508",
"k  c #691D17",
"l  c #761B16",
"z  c #58261B",
"x  c #45341E",
"c  c #4D2916",
"v  c #67241B",
"b  c #4C2927",
"n  c #473B24",
"m  c #52302E",
"M  c #6C2A2C",
"N  c #7A1E23",
"B  c #394C1F",
"V  c #28531E",
"C  c #30423B",
"Z  c #1C551D",
"A  c #434B22",
"S  c #4B4A25",
"D  c #4B4528",
"F  c #544C2C",
"G  c #574E2C",
"H  c #5A512F",
"J  c #565029",
"K  c #4D4938",
"L  c #534D38",
"P  c #5D5432",
"I  c #59553A",
"U  c #4E502A",
"Y  c #625C35",
"T  c #615B37",
"R  c #625D2B",
"E  c #666236",
"W  c #6A6536",
"Q  c #6A6B39",
"!  c #686639",
"~  c #716D36",
"^  c #757336",
"/  c #7B7B36",
"(  c #727539",
")  c #757A39",
"_  c #797C39",
"`  c #7B7634",
"'  c #73722F",
"]  c #343748",
"[  c #4A3B40",
"{  c #38475A",
"}  c #344654",
"|  c #384A65",
" . c #2A4C79",
".. c #2D5779",
"X. c #32506A",
"o. c #376979",
"O. c #3C747E",
"+. c #37717F",
"@. c #474949",
"#. c #4C5249",
"$. c #525444",
"%. c #575846",
"&. c #434B54",
"*. c #465758",
"=. c #595958",
"-. c #586654",
";. c #566550",
":. c #656847",
">. c #787C43",
",. c #6E7452",
"<. c #447A7D",
"1. c #4A7E7D",
"2. c #43767A",
"3. c #4F6F6B",
"4. c #646464",
"5. c #6C6C6C",
"6. c #657A6C",
"7. c #737373",
"8. c #7C7C7C",
"9. c #757D66",
"0. c #655149",
"q. c #940F05",
"w. c #9C0E05",
"e. c #841106",
"r. c #8B1005",
"t. c #87150C",
"y. c #8D160F",
"u. c #A70B04",
"i. c #B40904",
"p. c #BC0704",
"a. c #B31117",
"s. c #AE1C24",
"d. c #983537",
"f. c #861E21",
"g. c #C40602",
"h. c #CD0503",
"j. c #DE0000",
"k. c #D40303",
"l. c #C60C12",
"z. c #807E34",
"x. c #976F61",
"c. c #935C53",
"v. c #7D8238",
"b. c #78864C",
"n. c #4F817D",
"m. c #54847D",
"M. c #5B8A7E",
"N. c #59877C",
"B. c #638B7B",
"V. c #7B8F6D",
"C. c #B5AF1A",
"Z. c #98972B",
"A. c #838435",
"S. c #868B35",
"D. c #8A8C32",
"F. c #83883B",
"G. c #8C9636",
"H. c #939B33",
"J. c #939632",
"K. c #8E8B2D",
"L. c #A29D26",
"P. c #9DA82D",
"I. c #98A733",
"U. c #96A834",
"Y. c #A8A825",
"T. c #A7B229",
"R. c #ABB42F",
"E. c #C4BD15",
"W. c #C9C413",
"Q. c #D8CD07",
"!. c #E1D200",
"~. c #82894A",
"^. c #8B9B46",
"/. c #828759",
"(. c #879455",
"). c #93A950",
"_. c #899567",
"`. c #8C946F",
"'. c #91A66F",
"]. c #A9B754",
"[. c #1A5C94",
"{. c #15579A",
"}. c #1E578F",
"|. c #235487",
" X c #244F85",
".X c #2D6A84",
"XX c #246389",
"oX c #336E81",
"OX c #387281",
"+X c #1156A1",
"@X c #598981",
"#X c #638F81",
"$X c #6B9582",
"%X c #669181",
"&X c #739A84",
"*X c #799C85",
"=X c #7DA188",
"-X c #878787",
";X c #979797",
":X c #84A58C",
">X c #89A98D",
",X c #8CAB91",
"<X c #92AE92",
"1X c #94B194",
"2X c #9BB59A",
"3X c #98B398",
"4X c #9CAA88",
"5X c #A4B99C",
"6X c #AAB58B",
"7X c #A8A8A8",
"8X c #A7BDA3",
"9X c #B7B7B7",
"0X c #B7BDA6",
"qX c #A4A792",
"wX c #C3BAA8",
"eX c #B9C782",
"rX c #B5C7A9",
"tX c #BBCDB3",
"yX c #AFC4A9",
"uX c #C5D3B9",
"iX c #CCD0B2",
"pX c #CBCBCB",
"aX c #C3C3C3",
"sX c #CBD7C1",
"dX c #D4DCC6",
"fX c #D9D9D9",
"gX c #DAE2CD",
"hX c #DCE4D2",
"jX c #E4EADB",
"kX c #EEEEEE",
"lX c #E5E7E3",
"zX c #EDF1E4",
"xX c #F2F5EC",
"cX c #F3F6EB",
"vX c #F4F4F3",
"bX c #FFFFFF",
"nX c #F8FAF4",
/* pixels */
"nXaXpXpXpXpXpXpXpXpXpXpXpXpXpXpXpXpXpXpXpXpXpXpXpXpXpXpXpXpXpXpXpXpXpXpXpXpXpXpXpXpXpXpXpXpXpXpXpXpXpXpXpXpXpXpXpXpXpXpXpXpXpXpXpXpXpXaXnX",
"aXbXbXbXbXbXbXbXbXbXbXbXbXbXbXbXbXbXbXbXbXbXbXbXbXbXbXbXbXbXbXbXbXbXbXbXbXbXbXbXbXbXbXbXbXbXbXbXbXbXbXbXbXbXbXbXbXbXbXbXbXbXbXbXbXbXbXbXaX",
"pXbXbXbXbXbXbXbXbXbXbXbXbXbXbXbXbXbXbXbXbXbXbXbXbXbXbXbXbXbXbXbXbXbXbXbXbXbXbXbXbXbXbXbXbXbXbXbXbXbXbXbXbXbXbXbXbXbXbXbXbXbXbXbXbXbXbXbXpX",
"pXbXbXbX7X    4.bXbXbXbXbXbXbXbXbXbXbXbXbXbXbXbXbXbXbXbXbXbXbXbXbXbXbXbXbXbXbXbXbXbXbXbXbXbXbXbXbXbXbXbXbXbXbXbXbXbXbXbXbXbXbXbXbXbXbXbXpX",
"pXbXbXbXbXbX4.4.bXbXbXbXbXbXbXbXbXbXbXbXbXbXbXbXbXbXbXbXbXbXbXbXbXbXbXbXbXbXbXbXbXbXbXbXbXbXbXbXbXbXbXbXbXbXbXbXbXbXbXbXbXbXbXbXbXbXbXbXpX",
"pXbXbXbXbXbX=.4.bXbXbXbXbXbXbXbXbXbXbXbXbXbXbXbXbXbXbXbXbXbXbXbXbXbXbXbXbXbXbXbXbXbXbXbXbXbXbXbXbXbXbXbXbXbXbXbXbXbXbXbXbXbXbXbXbXbXbXbXpX",
"pXbXbXbXbXbX4.4.bXbXbXbXbXbXbXbXbXbXbXbXbXbXbXbXbXbXbXbXbXbXbXbXbXbXbXbXbXbXbXbXbXbXbXbXbXbXbXbXbXbXbXbXbXbXbXbXbXbXbXbXbXbXbXbXbXbXbXbXpX",
"pXbXbXbXbXbX4.4.bXbXbXbXbXbXbXbXbXbXbXbXbXbXbXbXbXbXbXbXbXbXbXbXbXbXbXbXbXbXbXbXbXbXbXbXbXbXbXbXbXbXbXbXbXbXbXbXbXbXbXbXbXbXbXbXbXbXbXbXpX",
"pXbXbXbXbXbX4.4.bXbXbXbXbXbXbXbXbXbXbXbXbXbXbXbXbXbXbXbXbXbXbXbXbXbXbXbXbXbXbXbXbXbXbXbXbXbXbXbXbXbXbXbXbXbXbXbXbXbXbXbXbXbXbXbXbXbXbXbXpX",
"pXbX9XaXbXbX=.7.bXkX4.4.4.4.4.4.4.4.4.4.4.4.4.-.9 3 > > 3 3 3 # 3 # 3 3 3 0 3 > 3 % 3 3 0 > > 3 2 @.4.4.4.4.4.4.4.4.4.lXbXbXbXbXbXbXbXbXpX",
"pXbX8.9 lXfX% 7XbX5.kXbXbXbXbXbXbXfXbXbXbXbXbXbXo.* k.X p.j.j.X j.X j.j.j.j.r.; r.; j.j.j.@ i.q.} fXbXbXbXbXbXbXbXbXkX5.bXbXbXbXbXbXbXbXpX",
"pXbXvX4.o % 8.bXbX7.bXbXbXbXbXbXfX% kXbXbXbXbXbXsXr e.i ; j.j.= u.+ u.j.j.j.i h y j j.j.e.- h.0 >XbXbXbXbXbXbXbXbXbXbX7.bXbXbXbXbXbXbXbXpX",
"pXbXbXbXnXbXbXbXbX7.bXbXbXbXbXvXr   @.bXbXbXbXbXbXn.> h.X g.h.= j * @ * * * X g.+ y r.i.+ h.z 2.bXbXbXbXbXbXbXnXcXbXbX7.bXbXbXbXbXbXbXbXpX",
"pXbXbXnXe fXbXbXbX7.bXbXbXbXbX=.      7.bXbXbXbXbXzX} p y . . + r.u.p g j e.w.j.q.y - $ f y.{ lXbXbXbXbXbXbX'.F.H.eXbX7.bXbXbXbXbXbXbXbXpX",
"pXbXbX7.  9 kXbXbX7.bXbXbXbX-X          7XbXbXbXbXbX&X2 g.i.k.w.j v v v z b b z z k g e.q.r 8XbXbXbXbXbXbXhX^.H.I.P.gX7.bXbXbXbXbXbXbXbXaX",
"pXbX7X      =.bXbX7.bXbXbX9X            . fXbXbXbXbXnX..3 x 5 A D S D F L 3.N.N.N.1.OX..X.m.bXbXbXbXbXbXbX5XG.W.!.R.rX7.bXbXbXbXbXbXbXbXpX",
"pXlXo         ;XbX7.bXbXlX%               9 vXbXbXbXbX*XF H ! ( S.U.H.H.^.bXbXjXB.n.2.yX$XnXbXbXbXbXbXbXbXxXR.I.T.R.zX7.bXbXbXbXbXbXbXbXpX",
"pX@.          o kX7.bXbX#.                  5.bXbXbXbX_._ A.A.P.T.H.G.G._.bX3XM.3X1XuXhX:XbXbXbXbXbXbXbXbXbX6XT.Y.eXbX7.bXbXbXbXbXbXbXbXpX",
"aX              7X5.bX;X                      9XbXbXkX^./ U.A.I.P.S.D.G.zXbXcXyXM.m.N.bX<XbXbXbXbXbXbXbXbXbXbX).R.nXbX7.bXbXbXbXbXbXbXbXpX",
"pX9   e 9 =.  . pX7.vXo                       9 nXbX_.D.G.D.I.T.T.U.H.'.bXbX>X..n.+.1.bX:XbXbXbXbXbXbXbXbXnXiX^ Q eXbX7.bXbXbXbXbXbXbXbXpX",
"pXkX9XlX  ;XpXfXbX7.;X                          9XjXG._ D.v.U.U.G.G.U.hXbXbXbXbXuX=X$XbX:XzXbXbXbXbXbXbXbXdX^.H T I.uX7.bXbXbXbXbXbXbXbXpX",
"pXbXbX7X@.5.bXbXbX7.=.                          8.'.z.! ) D.P Y ) v.~.bXbXbXbXbXbXrXbXbXxX>XbXbXbXbXbXbXbXzX^.P P R.cX7.bXbXbXbXbXbXbXbXpX",
"pXbXbXbXbXbXbXbXbX7.4.          @.  @.          -X~.Y ) H ^ Z.A.^ P ! _.bXbXbXbXbXbXuXbXbX<XbXbXbXbXbXbXbXbXyXH.R.iXbX7.bXbXbXbXbXbXbXbXpX",
"pXbXbXbXbXbXbXbXbX7.aX        4.-X  7X@.      o hXb./ v./ v.T.v./ ^ A.A.qXbXbXxXbXbX1XB.n.&XbXbXbXbXbXbXbXbXcXI.I.jXbX7.bXbXbXbXbXbXbXbXpX",
"pXbXbXbXbXbXbXbXbX7.bXaX=.e ;XbX@.  4.nX8.e =.fXzXT / / Y E v.^ P ^ / _ 0XbXdX#XtXdXm.$X1XvXbXbXbXbXbXbXbXbX'.F.H.].bX7.bXbXbXbXbXbXbXbXpX",
"pXbXbXbXbXbXbXbXbX7.bXbXbXbXbXlX    o nXbXbXbX`.I W ! H Q ( Y Q ( E >._.bXbXzXm.1.<.%XN.m.bXbXbXbXbXbXbXbXzXR.Y.W.I.uX7.bXbXbXbXbXbXbXbXpX",
"pXbXbXbXbXbXbXbXbX7.bXbXbXbXbX-X      7XbXbX'.J./ P D.( J.~ ( H.A.b.:XbXbXbXbXxXxXsX&X$X=XbXbXbXbXbXbXbXbX3XU.Q.!.P.6X7.bXbXbXbXbXbXbXbXpX",
"pXbXbXbXbXbXbXbXbX7.bXbXbXbXnX-X7.8.7.;XbXbX_.S.Z.W ^ ^ ( H.Q H.A._.dX<XnXbXbXbXbXbXbXdXsXbXbXbXbXbXbXbXbXgXG.v.^.J.gX7.bXbXbXbXbXbXbXbXpX",
"pXbXbXbXbXbXbXbXbX7.bXbXbXbXbXbXbXbXbXbXjXB...b.( P O L S.^ ( Y :.<XtX3X1.rXbXbXbXbXbX3XcXbXbXbXbXbXbXbXbXbX6X-.,.6XbX7.bXbXbXbXbXbXbXbXpX",
"pXbXbXbXbXbXbXbXbX7.bXbXbXbXbXbXbXbX0XK oX*XXX3.,.$ . @.A A K K @.{ &.| | { &.%.:.:.K $ n uXbXbXbXbXbXbXxX>X:Xm.M.hXbX7.bXbXbXbXbXbXbXbXpX",
"pXbXbXbXbXbXbXbXbX7 oX%XhXbXbXbXdXn   # m.<XO.<.hX$ . P Y E Y E W W Q Q ! ! ! Y W E X X E.F 9.bXbXbXbXuX=XxXnX3Xn.=XbX7.bXbXbXbXbXbXbXbXpX",
"pXbXbXbXbXbXbXbXbX8 +X+X{.<.2X:.f.h.  # m.+.$X[.jX$ . G.Z ~ J Z W.A B W.Z T P V Y.<   R A.S H m 0XbXnX=XbXbXOXM.uXn.gX7.bXbXbXbXbXbXbXbXpX",
"pXbXbXbXbXbXbXbXbX7 +X+X+X:X.X> u.j.  # n.n.:X[.jX$   P G P H Y T P I Y P P Y I S   1 Q.A K.$ = t.T &XhXbXbXOXO.tX3XyX7.bXbXbXbXbXbXbXbXpX",
"pXbXbXbXbXbXbXbXbX7 +X+X+XdXm : u d   # m.3X+.+.zX$   f e.h e.y.r.h j j j j j a   . C.P Y M X . . g v :XbXxX<X+.>XN.hX7.bXbXbXbXbXbXbXbXpX",
"pXbXbXbXbXbXbXbXbX7 +X+X{.uXk - @ v.Z 6 m.=XoXn.zX$   j.j.j.j.l.iXj.j.j.j.j.j.t   J L.S v.m a.t     * y.L kXxX<.*XN.bX7.bXbXbXbXbXbXbXbXpX",
"pXbXbXbXbXbXbXbXbX7 +X+X[.2X] i.c T.P P o.$X#XoXzXO   j.j.j.a.c.iXc.l.j.j.j.w.  > Q.S K.b.@X| N u.&   . g k `.#X%X3XbX7.bXbXbXbXbXbXbXbXpX",
"pXbXbXbXbXbXbXbXbX7 +X+XXX,Xb > | Z.A P U o.=X+XzXO . j.j.j.l.d.wXd.k.j.j.j.+ . Y.R Y >.1X<.O.{.x i.u     = q.m uXbXbX7.bXbXbXbXbXbXbXbXpX",
"pXbXbXbXbXbXbXbXbX7 +X+XXX:Xm q.n D.! ( P :.6.../.X   k.u.g.j.l.c.j.j.j.j.i   S Y.A K.qX.X&Xm.*.I 3.N w.+   . f f.,.bX7.bXbXbXbXbXbXbXbXpX",
"pXbXbXbXbXbXbXbXbX7 +X+Xo.V.d y 4 Z.P P P P.F #             = t : g k.j.i.  # !.D z.b.@X<.XX..Y.I +X[.m w.i     @ u.M =.bXbXbXbXbXbXbXbXpX",
"pXbXbXbXbXbXbXbXbX7 +X+XXX:Xk > : Y.A H P P.J q                     @ h.+   Z.W H >.5X<.m.{.:.W.^ *XrX%.Y M w.@     p 0 bXbXbXbXbXbXbXbXpX",
"pXbXbXbXbXbXbXbXbX7 +X+XXXrX] u.4 C.E ~ P U.P E c r.t + u.j   . +         > C.B J.4X.XN..X*.C.F L. X{.*.Z...m y.f .   # bXbXbXbXbXbXbXbXpX",
"pXbXbXbXbXbXbXbXbX7 +X+X{.dX| = ] >.S G S H.^ / S . h.h   = y e.i a         $ Q >.@X@X|.|.J.I | E.#.uX#.E.{ :.L z u.* $ bXbXbXbXbXbXbXbXpX",
"pXbXbXbXbXbXbXbXbX7 +X+X+X,X.Xv u.n Y W W Y U.H !.1 h.r.= @ e.;   e.. t *     q 3Xm.:XXX;.^  .{.` #.[. X~ #.&.P W n l 0 bXbXbXbXbXbXbXbXpX",
"pXbXbXbXbXbXbXbXbX7 +X+X+Xn.@Xd + 6 Y.S H S T.G.F / t.q.t e.r.k.. u.j * i +   1 .XoX[.*.Y.&.+X+X%.T N.8XL S. .z.F %.H 4 bXbXbXbXbXbXbXbXpX",
"pXbXbXbXbXbXbXbXbXq @.{.+X|.uXb : g b.F ! Y G P./ P 5 r.t k.r.h.- g.r.* + -   O ,X5Xn.$.L +X+X+X&.L.*.+X&.L.#.L Y W K q bXbXbXbXbXbXbXbXaX",
"pXbXbXbXbXbXbXbXbXq Y.L | +X,XOXm >  .Y.G F F ( U.^ H e.u.j.e.i.h g.r.h e.;   . 9  .m V.3XoX+X+X Xz.#.3X*XL D. .Y I :.K bXbXbXbXbXbXbXbXpX",
"pXbXbXbXbXbXbXbXbX#.| :.` @..XyXX.s h n ` I H S Y H.H.v j.j.e.j.g.u.r.u.j.;     j - p.0 ..=X3XXX+X$.J...+X*.A.%.&.H W q bXbXbXbXbXbXbXbXpX",
"pXbXbXbXbXbXbXbXbXw XXB.%.Z.K $X1.] - * S / U P ! S D.D y y = i i ; - f p +   . n p @ h = b oXuX2.X.z.%.>X*X@.C.L &.Z.L bXbXbXbXbXbXbXbXpX",
"pXbXbXbXbXbXbXbXbX9 $X<.{.%.L.K uX[ u u.0 :.W Y E F P H .   . . # # # @ $     . P.F c b 4 r.y b 2Xn.@.L.@.{.m.L Y.@.@.r bXbXbXbXbXbXbXbXpX",
"pXbXbXbXbXbXbXbXbXD F |.:X2.#.K.#.yX[.k = 5 D K.A ( ) G $   / S !.!.!.!.!.4 4   S F / ^ n r.+ > { ,X6.T / 3.M.[.L Y.K w bXbXbXbXbXbXbXbXpX",
"pXbXbXbXbXbXbXbXbX9 Y.S o.+X2.:.( -.3X} k j = 5 Z.( S P 1   Z.' !.!.!.!.!.Z.D   n Y H P Y.n a r.; ] 2X-.z.:. XN.B.K L.K bXbXbXbXbXbXbXbXpX",
"pXbXbXbXbXbXbXbXbX8 @.Y.F 6.%X}.>.I @X1XX.q.a i | H J.^ 6   . O n D S S 5 . +   < F Y I H _ ! | k u m 0X#.Z.T B.[.B.#.K bXbXbXbXbXbXbXbXpX",
"pXbXbXbXbXbXbXbXbXA L #.Y.F {.<.-.T.{ <.8Xm 0 ; d h @ 5 q     X @ * + @ * = X @ = W S Y P S W ! k ; q.} rX@.L.T X.8X[.C bXbXbXbXbXbXbXbXpX",
"pXbXbXbXbXbXbXbXbX0 W @.#.Z.L @X[.;.! }.XXtX<.X.b : t u.9     f j.g.f k.j.j.h.j.q.H W E F T Y ^ n t g b $Xm.&.D._ &.oX7.bXbXbXbXbXbXbXbXpX",
"pXbXbXbXbXbXbXbXbXU v.Y.@.:.T  .m.6.T.{ +X[.%XtXOXb 3 z >     f j i.f j.q.j.j.h.k.n ( ^ W E ! B K.n b - { dX[.{ ! Y.I C bXbXbXbXbXbXbXbXpX",
"pXbXbXbXbXbXbXbXbXq K ^ F &.L.L OX{.:.%.+X+X+XXX,.sX*XOX|.    f + r.f j.t j.k.p.j l Q P ^ Y A ( Q D.r h.> 6.<.+X X$.J.I bXbXbXbXbXbXbXbXpX",
"pXbXbXbXbXbXbXbXbXq ( T ) I ;.I ..#X-.S.X.{.+X*.v.| <.@X3XO   a + - p g.+ j.i.j p r.n K.H ) Y P S ' b g e.m 8X+X+X+X| e bXbXbXbXbXbXbXbXpX",
"pXbXbXbXbXbXbXbXbX> n $.Q S X.Y.$..X}.Z.&.+X XZ.$.%X&XXXB.#   . f p . a   i.r.@ f k.l Q ^ ( S.A Q Q W ; t 9 uXXX+X+X+Xw bXbXbXbXbXbXbXbXpX",
"pXbXbXbXbXbXbXbXbX& f c L Z.&.>.L OXM.,.$.{.;.Q  X+.<.%Xb.K .         e.+ i.p . + r.w.5 Q H S.Y ! S L.n g , %XO.+X+X+Xw bXbXbXbXbXbXbXbXpX",
"pXbXbXbXbXbXbXbXbXX   * g n | *.P +.XX;.I | C.&.XXoXoX'.J.K R .       + j * + r.e.+ e.* / J ) W S P ^ *.b g OX#X+X+X+Xw bXbXbXbXbXbXbXbXpX",
"pXbXbXbXbXbXbXbXbX* .   . p z @.W X.<.3.E v.I B.N.OX2X(.K v.K.. + t             .     = O J.v./ P Q Y F i.- [ >X+X+X+Xw bXbXbXbXbXbXbXbXpX",
"pXbXbXbXbXbXbXbXbX3 h.;     = h x *.<.*.W.( |.+.1.@XV.~ I !.#   i.j.h @ . +               6 Y J.A P F G = y b yX+X+X+XC bXbXbXbXbXbXbXbXpX",
"pXbXbXbXbXbXbXbXbX4.0.a.r.X     a k | &.C.#.[..XXX6XU.K C.J   p j.j.j.l.l.j.i.u y g   . 2 -.L D.Y P ^ E l j { tX+X+X+Xw bXbXbXbXbXbXbXbXpX",
"pXbXbXbXbXbXbXbXbX5.bX-XM h.t     + j x F +.$Xn.1Xb.I ( C.. + j.j.j.j.d.x.j.j.j.j.i.  1 #X<.B.$.A Y A W  .: e rX+X+X+Xw bXbXbXbXbXbXbXbXpX",
"pXbXbXbXbXbXbXbXbX7.bX2XOX=.a.w.O     i k &.m.2._.` I !.2   u.j.j.j.x.qXwXx.k.j.j.g.  1 %XXX2X|.F ) Y W z i.] yX+X+X+Xw bXbXbXbXbXbXbXbXpX",
"pXbXbXbXbXbXbXbXbX7.<X>X2.:X5XM g.i .   + h b V.H.D Y.R   t j.j.j.j.l.d.x.s.j.j.j.p.  # $X&X<.OXyX5 P S p * e ,X+X+X+Xw bXbXbXbXbXbXbXbXpX",
"pXbXbXbXbXbXbXbXbX7.=X1XM.&XuXnX4.f.i.@     t x I :.E.O X j.j.j.j.j.j.a.s.j.j.j.j.i.  1 &X&XXXM.sXO O 5 y j n #X+X+X+XC bXbXbXbXbXbXbXbXpX",
"pXbXbXbXbXbXbXbXbX7.m.=Xm.#X1XbXbX&Xm p.f . O / L !.6   5 n D n n n n n n n x 5 n 2   1 &X$XO.2.gXO . u.g > @XoX+X+X+XC bXbXbXbXbXbXbXbXpX",
"pXbXbXbXbXbXbXbXbX7.&X=Xn.<.%XbXnX*XbX9.f.h H L P.'   2 F B E A S W B H H B P S D G   1 $XXX:X[.hXO X j.g.b M.[.{.+X+XC bXbXbXbXbXbXbXbXpX",
"pXbXbXbXbXbXbXbXbX7.=XjX#X<.8XbX>XjXbXbXhXK I %.W.O O H F B Q B A ! V G G V P A B H   1 $Xn.:XXXgX$ . y.0.nXnX5XO.{.+XC bXbXbXbXbXbXbXbXpX",
"pXbXbXbXbXbXbXbXbX7.dXO.&XgXhX>XuXbXbXbXbXbX<X:.5 . D I T P P Y T T Y E ! E Y Y Y G   1 %X<X.X1.gX# 0 uXbXbXbXbXbXjXB.@.bXbXbXbXbXbXbXbXpX",
"pXbXbXbXbXbXbXbXbX7.bX:X..n.3XbXbXbXbXbXbXbXbXzX*.3.5XyX,XN..X{.[.[.[.{.&.&.#.I #.{   5 -.1.[.n.*XuXbXbXbXbXbXbXbXbXbX7.bXbXbXbXbXbXbXbXpX",
"pXbXbXbXbXbXbXbXbX7.rX^.A.b.dXbXbXbXbXbXbXbXbXbX2XbXbXbXbXbXbXtX$XzXbX'./ v.H./ H.D A ) ( b.2.hXbX9X7X7X7X7XbXbXbXbXbX7.bXbXbXbXbXbXbXbXpX",
"pXbXbXbXbXbXbXbXbX7.].) K.A./.bXbXbXbXbXbXbXbXbX>XbXbXbXbXbXbXbXbX,XsX^.U.P.E v.A.~ ~ / A.z.'.bXbX;X      4.bXbXbXbXbX7.bXbXbXbXbXbXbXbXpX",
"pXbXbXbXbXbXbXbXbX7.)._ !.H.(.bXbXbXbXbXbXbXbXjX+.<.m.rX*XzXbXbXbXnX2.G.D.S.Q Y P v.v.P J.>.jXbXbXvXo     pXbXbXbXbXbX7.bXbXbXbXbXbXbXbXpX",
"pXbXbXbXbXbXbXbXbX7.6XD.E.A.`.bXbXbXbXbXbXbXbXyXN.N.+.M.sX:XbXbXuXb.^ E J E H Y W I P ) x.fX-X5.7XbX=.  9 bXpX5.8.lXbX7.bXbXbXbXbXbXbXbXpX",
"pXbXbXbXbXbXbXbXbX7.nX).v.b.nXbXbXbXbXbXbXbXbX=XrXM.jXbX8XyXbXbX'.v.A.J.E / z.E Z.) S.:.kX9       4.7X  7.7X.     o fX7.bXbXbXbXbXbXbXbXpX",
"pXbXbXbXbXbXbXbXbX7.bXV.Q.b.bXbXbXbXbXbXbXbX<XV.M.,XuXbXbXbXbXbX_.F.P.W U.F.F.G.T.Y.A._.;X          4.  5.          4.7.bXbXbXbXbXbXbXbXpX",
"pXbXbXbXbXbXbXbXbX7.hX^.T ~.uXbXbXbXbXbXbXbXyXjXbXuXnXbXbXbXbXbXjXb.T ) I / T ^ Y Y z.'.8.                          @.7.bXbXbX8.4.9XbXbXpX",
"pXbXbXbXbXbXbXbXbX7._.P H H ,.bXbXbXbXbXbXbXbX1XbXbXrXyXbXbXbXbXbXtXH.S.A.W _ D.H.` Z.dX9X                          -X7.bXvXkX;X  pXlXbXpX",
"pXbXbXbXbXbXbXbXbX7.'.( S ~ `.bXbXbXbXbXbXbXbX2XgXsXoX&X,X3XnXbXbX'.G.v.P.J.I.P.P./ b.bXnX%                       . fX7.lX% . 8.% 5.  e pX",
"pXbXbXbXbXbXbXbXbX7.nXb.K.>.bXbXbXbXbXbXbXbXbXxX1XgX[.OXoX<.nXbXhXU.v.S.G./ P.G.v.v.jXbXbX;X                      5.bX7.7X    . .       9X",
"pXbXbXbXbXbXbXbXbX7.bXV.W.x.bXbXbXbXbXbXbXbXbX3XgX=X<.@X1XtXtXbX'.S.v.G.J.K.Z.D.D._.bXbXbXbX=.                  9 vXbX5.lX            r pX",
"pXbXbXbXbXbXbXbXbX7.rXv.T v.dXbXbXbXbXbXbXbXbX1XxX#X$X@X<.#XbXzXb.D.v.v.v.v.v.D.A.dXbXbXbXbXkX%                 pXbXbX7.bX-X          aXpX",
"pXbXbXbXbXbXbXbXbX7.'.v.!._ _.bXbXbXbXbXbXbXbX@XyX3X%X,XzXbXbX`.A.Z.G.v.) Y F S L vXbXbXbXbXbXaX              ;XbXbXbX7.bXbXe       8.bXpX",
"pXbXbXbXbXbXbXbXbX7.).) !._ ~.bXbXbXbXbXbXbXtX] 9 9 } { O.O.O.#.A B 5 < < < 6 : > %XbXbXbXbXbXbX-X          =.bXbXbXbX7.bXbXlX%   @.bXbXpX",
"pXbXbXbXbXbXbXbXbX7.'.v.Y K./.bXbXbXbXbXbXcXX.g i.u.w.e.f a f a i f j u.h.q.g i e.] jXbXbXbXbXbXbX4.      9 vXbXbXbXbX7.bXbXbXaX% kXbXbXpX",
"pXbXbXbXbXbXbXbXbX7.cXV././.xXbXbXbXbXbXbX<.c q.. X . X j h = @ @ + + g.+ # i + e.- m.bXbXbXbXbXbXvXr   % fXbXbXbXbXbX7.bXbXbXbXlXbXbXbXpX",
"pXbXbXbXbXbXbXbXbX7.bXbXbXbXbXbXbXbXbXbX<Xr p.+ h j.j.@ h = y e.q.w.+ e.+ i.j.w.+ w.r fXbXbXbXbXbXbXfXo 9XbXbXbXbXbXbX7.bXbXbXbXbXbXbXbXpX",
"pXbXbXbXbXbXbXbXbX5.kXbXbXbXbXbXbXbXbXgXX.j j & j.j.j.o i.. k.j.j.j.y p - f j.j.= r.: 2.bXbXbXbXbXbXbX9XbXbXbXbXbXbXvX4.bXbXbX8.% o 4.nXpX",
"pXbXbXbXbXbXbXbXbXlX=.5.7.7.8.7.7.7.7.} = s X , s s i X s X s s s s , @ = @ s s - & t % 5.7.8.7.7.8.7.8.8.7.7.8.8.7.=.fXbXbX7X% fXlX9 8.pX",
"pXbXbXbXbXbXbXbXbXbXbXvXkXkXkXkXkXxXkXkXkXkXkXkXkXkXkXkXkXkXkXkXkXkXkXkXkXkXkXkXkXkXkXxXkXkXkXkXkXkXkXkXkXkXkXkXkXvXbXbXbXbX7.=.bXbXaX9XpX",
"pXbXbXbXbXbXbXbXbXbXbXbXbXbXbXbXbXbXbXbXbXbXbXbXbXbXbXbXbXbXbXbXbXbXbXbXbXbXbXbXbXbXbXbXbXbXbXbXbXbXbXbXbXbXbXbXbXbXbXbXbXbX4.4.bXbXbXbXpX",
"pXbXbXbXbXbXbXbXbXbXbXbXbXbXbXbXbXbXbXbXbXbXbXbXbXbXbXbXbXbXbXbXbXbXbXbXbXbXbXbXbXbXbXbXbXbXbXbXbXbXbXbXbXbXbXbXbXbXbXbXbXbX4.=.bXbXbXbXpX",
"pXbXbXbXbXbXbXbXbXbXbXbXbXbXbXbXbXbXbXbXbXbXbXbXbXbXbXbXbXbXbXbXbXbXbXbXbXbXbXbXbXbXbXbXbXbXbXbXbXbXbXbXbXbXbXbXbXbXbXbXbXbX4.4.bXbXbXbXpX",
"pXbXbXbXbXbXbXbXbXbXbXbXbXbXbXbXbXbXbXbXbXbXbXbXbXbXbXbXbXbXbXbXbXbXbXbXbXbXbXbXbXbXbXbXbXbXbXbXbXbXbXbXbXbXbXbXbXbXbXbXbXbX4.4.bXbXbXbXpX",
"pXbXbXbXbXbXbXbXbXbXbXbXbXbXbXbXbXbXbXbXbXbXbXbXbXbXbXbXbXbXbXbXbXbXbXbXbXbXbXbXbXbXbXbXbXbXbXbXbXbXbXbXbXbXbXbXbXbXbXbXbXbX4.4.bXbXbXbXpX",
"pXbXbXbXbXbXbXbXbXbXbXbXbXbXbXbXbXbXbXbXbXbXbXbXbXbXbXbXbXbXbXbXbXbXbXbXbXbXbXbXbXbXbXbXbXbXbXbXbXbXbXbXbXbXbXbXbXbXbXbXbXbX4.    7XbXbXpX",
"aXnXbXbXbXbXbXbXbXbXbXbXbXbXbXbXbXbXbXbXbXbXbXbXbXbXbXbXbXbXbXbXbXbXbXbXbXbXbXbXbXbXbXbXbXbXbXbXbXbXbXbXbXbXbXbXbXbXbXbXbXbXbXbXbXbXbXbXaX",
"nXuXpXpXpXpXpXpXpXpXpXpXpXpXpXpXpXpXpXpXpXpXpXpXpXpXpXpXpXpXpXpXpXpXpXpXpXpXpXpXpXpXpXpXpXpXpXpXpXpXpXpXpXpXpXpXpXpXpXpXpXpXpXpXpXpXpXaXnX"
};
