/* XPM */
static const char *jack_clubs[] = {
/* columns rows colors chars-per-pixel */
"69 100 229 2 ",
"   c #010000",
".  c #0B0000",
"X  c #0B0B0B",
"o  c #140101",
"O  c #1C0102",
"+  c #131313",
"@  c #1A1A1A",
"#  c #240305",
"$  c #2B0506",
"%  c #2B0609",
"&  c #2E0708",
"*  c #3C0101",
"=  c #340A0A",
"-  c #3A0D0C",
";  c #340102",
":  c #3E100D",
">  c #31110F",
",  c #2A1413",
"<  c #2E1916",
"1  c #381514",
"2  c #350C13",
"3  c #39261D",
"4  c #282828",
"5  c #3D2B22",
"6  c #383939",
"7  c #440000",
"8  c #4B0202",
"9  c #48070C",
"0  c #550000",
"q  c #5C0000",
"w  c #500608",
"e  c #55090A",
"r  c #43130E",
"t  c #451611",
"y  c #4C1B12",
"u  c #48181A",
"i  c #541B18",
"p  c #4A0A12",
"a  c #630101",
"s  c #6B0101",
"d  c #6A090B",
"f  c #740000",
"g  c #7B0000",
"h  c #75080B",
"j  c #6A0F13",
"k  c #542314",
"l  c #5B2A15",
"z  c #562618",
"x  c #4D211E",
"c  c #602E16",
"v  c #642819",
"b  c #643417",
"n  c #6A3B17",
"m  c #6B3C18",
"M  c #663819",
"N  c #75391B",
"B  c #461C24",
"V  c #51182A",
"C  c #71182A",
"Z  c #4B2624",
"A  c #542A28",
"S  c #463827",
"D  c #593939",
"F  c #562D2D",
"G  c #633A2C",
"H  c #6E4118",
"J  c #6F4217",
"K  c #724418",
"L  c #764918",
"P  c #794E18",
"I  c #744717",
"U  c #7D5318",
"Y  c #7E5217",
"T  c #53482E",
"R  c #564B33",
"E  c #5B5333",
"W  c #4F442E",
"Q  c #78592B",
"!  c #694A39",
"~  c #655837",
"^  c #704E32",
"/  c #716539",
"(  c #3A3253",
")  c #323A6B",
"_  c #4A344C",
"`  c #71314F",
"'  c #433666",
"]  c #364C71",
"[  c #3F4059",
"{  c #484848",
"}  c #594746",
"|  c #595A5A",
" . c #524C53",
".. c #785846",
"X. c #69574D",
"o. c #766752",
"O. c #4E516A",
"+. c #5B7478",
"@. c #536770",
"#. c #646464",
"$. c #6C6D6B",
"%. c #747474",
"&. c #7B7C7A",
"*. c #73776C",
"=. c #5F6450",
"-. c #830101",
";. c #8B0102",
":. c #81060A",
">. c #940001",
",. c #9C0000",
"<. c #99080E",
"1. c #910E19",
"2. c #A30000",
"3. c #AC0000",
"4. c #A7070E",
"5. c #B20001",
"6. c #BB0000",
"7. c #AE0C17",
"8. c #961222",
"9. c #A41323",
"0. c #8B243E",
"q. c #C30000",
"w. c #CB0001",
"e. c #C8050A",
"r. c #D40000",
"t. c #DF0000",
"y. c #805617",
"u. c #845C17",
"i. c #825A19",
"p. c #805718",
"a. c #8A6417",
"s. c #8F6917",
"d. c #8B681B",
"f. c #926C16",
"g. c #906D1A",
"h. c #967215",
"j. c #9D7B14",
"k. c #997716",
"l. c #8E721F",
"z. c #856727",
"x. c #89742F",
"c. c #896D55",
"v. c #88796A",
"b. c #8F7768",
"n. c #738679",
"m. c #B4990E",
"M. c #A38313",
"N. c #A88B13",
"B. c #AD9112",
"V. c #B39710",
"C. c #BCA40E",
"Z. c #9B8F28",
"A. c #CAB409",
"S. c #D7C807",
"D. c #E2D200",
"F. c #918C51",
"G. c #898677",
"H. c #8F8D70",
"J. c #A0A66A",
"K. c #1A5A9A",
"L. c #1C4C8E",
"P. c #275387",
"I. c #346B8E",
"U. c #396D8B",
"Y. c #3D728B",
"T. c #2B6691",
"R. c #286493",
"E. c #2F688F",
"W. c #1156A1",
"Q. c #42758A",
"!. c #4A7A88",
"~. c #4A7988",
"^. c #537E87",
"/. c #578388",
"(. c #5B8688",
"). c #5A8487",
"_. c #648B88",
"`. c #698F8A",
"'. c #698B85",
"]. c #6D918A",
"[. c #72958B",
"{. c #7C9C8E",
"}. c #77988C",
"|. c #888888",
" X c #859B8A",
".X c #999A86",
"XX c #979797",
"oX c #819F90",
"OX c #A39989",
"+X c #84A191",
"@X c #8AA694",
"#X c #8EA996",
"$X c #94AD9A",
"%X c #92AA96",
"&X c #9BB29D",
"*X c #A8A996",
"=X c #B5AD9C",
"-X c #B6AA9C",
";X c #ABB099",
":X c #9EB4A0",
">X c #A9A9A9",
",X c #A5BAA4",
"<X c #ABBEA9",
"1X c #A4B9A4",
"2X c #B8B8B8",
"3X c #B9B6A5",
"4X c #C2B6A8",
"5X c #B2C2AD",
"6X c #BAC9B4",
"7X c #B9C08A",
"8X c #C2CEBA",
"9X c #C6C7B6",
"0X c #C5D1BE",
"qX c #C3C3C3",
"wX c #CBCBCB",
"eX c #CCD7C5",
"rX c #D5D8CA",
"tX c #D8D9D8",
"yX c #D2CDC1",
"uX c #DBE3D4",
"iX c #E3E8DC",
"pX c #EDEDED",
"aX c #E6E8E4",
"sX c #EEF1EA",
"dX c #ECF0E7",
"fX c #F3F4F2",
"gX c #FFFFFF",
"hX c #F7F9F6",
"jX c #F1F2EC",
/* pixels */
"hXqXwXwXwXwXwXwXwXwXwXwXwXwXwXwXwXwXwXwXwXwXwXwXwXwXwXwXwXwXwXwXwXwXwXwXwXwXwXwXwXwXwXwXwXwXwXwXwXwXwXwXwXwXwXwXwXwXwXwXwXwXwXwXwXwXwXqXhX",
"qXgXgXgXgXgXgXgXgXgXgXgXgXgXgXgXgXgXgXgXgXgXgXgXgXgXgXgXgXgXgXgXgXgXgXgXgXgXgXgXgXgXgXgXgXgXgXgXgXgXgXgXgXgXgXgXgXgXgXgXgXgXgXgXgXgXgXgXqX",
"wXgXgXgX>X    #.gXgXgXgXgXgXgXgXgXgXgXgXgXgXgXgXgXgXgXgXgXgXgXgXgXgXgXgXgXgXgXgXgXgXgXgXgXgXgXgXgXgXgXgXgXgXgXgXgXgXgXgXgXgXgXgXgXgXgXgXwX",
"wXgXgXgXgXgX#.#.gXgXgXgXgXgXgXgXgXgXgXgXgXgXgXgXgXgXgXgXgXgXgXgXgXgXgXgXgXgXgXgXgXgXgXgXgXgXgXgXgXgXgXgXgXgXgXgXgXgXgXgXgXgXgXgXgXgXgXgXwX",
"wXgXgXgXgXgX#.| gXgXgXgXgXgXgXgXgXgXgXgXgXgXgXgXgXgXgXgXgXgXgXgXgXgXgXgXgXgXgXgXgXgXgXgXgXgXgXgXgXgXgXgXgXgXgXgXgXgXgXgXgXgXgXgXgXgXgXgXwX",
"wXgXgXgXgXgX#.#.gXgXgXgXgXgXgXgXgXgXgXgXgXgXgXgXgXgXgXgXgXgXgXgXgXgXgXgXgXgXgXgXgXgXgXgXgXgXgXgXgXgXgXgXgXgXgXgXgXgXgXgXgXgXgXgXgXgXgXgXwX",
"wXgXgXgXgXgX#.#.gXgXgXgXgXgXgXgXgXgXgXgXgXgXgXgXgXgXgXgXgXgXgXgXgXgXgXgXgXgXgXgXgXgXgXgXgXgXgXgXgXgXgXgXgXgXgXgXgXgXgXgXgXgXgXgXgXgXgXgXwX",
"wXgXgXgXgXgX#.#.gXgXgXgXgXgXgXgXgXgXgXgXgXgXgXgXgXgXgXgXgXgXgXgXgXgXgXgXgXgXgXgXgXgXgXgXgXgXgXgXgXgXgXgXgXgXgXgXgXgXgXgXgXgXgXgXgXgXgXgXwX",
"wXgX>XqXgXgX| $.gXgXgXgXgXgXgXgXgXgXgXgXgXgXgXgXgXgXgXgXgXgXgXgXgXgXgXgXgXgXgXgXgXgXgXgXgXgXgXgXgXgXgXhXgXgXgXgXgXgXgXgXgXgXgXgXgXgXgXgXwX",
"wXgX&.4 aXtX+ >XgXpX#.#.#.#.#.#.#.#.| #.#.#.#.#.#.6 - % ; w w w $ * & * w w w w w 8 O w O w w w $ * , | #.#.#.#.#.#.#.pXgXgXgXgXgXgXgXgXwX",
"wXgXhX#.X @ &.gXgX$.pXgXgXgXgXpX|     + |.hXgXgXgXaX_ 6.$ t.t.t.3.a ,.g t.t.t.t.t.q.8 q.q t.t.t.7 q.- 9XgXgXgXgXgXgXpX#.gXgXgXgXgXgXgXgXwX",
"wXgXgXgXgXgXgXgXgX%.gXgXgXgXgX6           %.gXgXgXgX%XC f -.t.t.r.* r.8 t.t.t.t.t.2.s ,.-.t.t.2.-.q l ! hXgXgXgXgXgXgX%.gXgXgXgXgXgXgXgXwX",
"wXgXgXqX$.XXgXgXgX%.gXgXgXgX2X              pXgXgXgXhXO.6.% r.t.t.7 r.7 5.5.5.5.5.s ;.g 2.t.t.0 6.  O g.*XgXgXgXgXgXhX} gXgXgXgXgXgXgXgXwX",
"wXgXpXX     >XgXgX%.gXgXgXgX|.              qXgXgXgXgX6XF ,.* a a q q.2.-.g f f f g q.,.0 q 0 f q -   a.o.gXgXgXgXhX~ ~ gXgXgXgXgXgXgXgXwX",
"wXgXaX      XXgXgX%.gXgXgXgX>X              pXgXgXgXgXgX+.<.r.t.t.w.5.2.2.>.8.9.8.7.4.5.w.t.t.q._ k.l t z.hXgXgXgX! k.3 gXgXgXgXgXgXgXgXwX",
"wXaXXX6   + |.qXgX$.gXgXgXgXgX4           #.gXgXgXgXgXgXiX_ * O . O O $ = & O./.!.~.Y.E.P.) ' ) 6X.Xd.y K H.gXgX! h.h Z gXgXgXgXgXgXgXgXwX",
"2X+             >X%.gXgXwXXX|.|.        @ XX&.XXaXgXgXgXgXX.i N U a.U L i.J ;XgXgXgXgXgXgXdX6X`.gXgX3X..^ X.hX^ h.e t.A gXgXgXgXgXgXgXgXwX",
">X      X       %.%.gX%.        X       X       X >XgXgXgXz.y.y.i.d.a.P J P +X'.~.~.<XgXuX_.(.`.gXgXgXgXgXgXo.B.j.L m S gXgXgXgXgXgXgXgXwX",
"qX{   6  .|.  @ tX$.2X                            X aXgXgXz.Q i.U a.P P J z./.{._.$XuXfX~.}.oX/.gXgXgXgXgXtXD F = $ - < gXgXgXgXgXgXgXgXwX",
"wXgXpXfX@ 2XfXhXgX%.|                               XXgXgXp.y.u.P I P U U / Q.I.K.K.:X6XR.I.U._ gXgXgXgXgXgXgX=Xk . k , gXgXgXgXgXgXgXgXwX",
"wXgXgXpXwXtXgXgXgX$. .                              XXgXdXU y.a.I I U a.y.c.rX{.Q.Q.iX5XU.[.].x 6XgXgXgXgXgXgX=Xk r - W gXgXgXgXgXgXgXgXwX",
"wXgXgXgXgXgXgXgXgX%.|.             .+ (             wXgXOXP u.a.Y s.U a.y.F.gX<X5XhXgXiX+X6XgXQ o.gXgXgXgXgXgX=Xk   J , gXgXgXgXgXgXgXgXwX",
"wXgXgXgXgXgXgXgXgX%.hX4         6 6X  tX+         #.OXz.- b a.a.f.s.i.s.L H.gXgXgXsXgXgX@XgXaX! d.! 9XgXgXgXgX=Xl   o W gXgXgXgXgXgXgXgXwX",
"wXgXgXgXgXgXgXgXgX%.gXfX#.4 4 &.fXXX  wXaX| 4 4 |.4XN K c - - K i.a.U a.P J.gXgXgX@XrXuX+XgX9X_ V.D.v.gXgXgXgX=Xk o a.E gXgXgXgXgXgXgXgXwX",
"wXgXgXgXgXgXgXgXgXR 8XgXgXgXgXgXgX{   ^.gXgXgXgXgXc.P a.f.i.P - r n U U I wXgXgXgX_._.1X&XgXH.G b.o.uXgXgXgXgX=Xl k h.T gXgXgXgXgXgXgXgXwX",
"wXgXgXgXgXgXgXgXgXE Q yXgXgXgXgX>X  . , tXgXgXgXgX9Xu P a.u.P a.n - : a.Z.hXgXgXgXgXgXrXsXgXD d.=XgXgXgXgXgXgX=Xl M y , gXgXgXgXgXgXgXgXwX",
"wXgXgXgXgXgXgXgXgX< m Q rXgXgXgXaXtXtXiXpXgXgXfX$XT.^.t y P i.P L K i.l F.gXgXgX_.T.R.Y.!.gXz P ^ H.hXgXgXgXgX=Xl O   , gXgXgXgXgXgXgXgXwX",
"wXgXgXgXgXgXgXgXgX, . L / iXgXgXgXgXgXgXgXsXv.!._.#X{.=   . : l Y N.L B.].gXgXgXgXeX#X,XgX5Xt b A.B.H.gXgXgXgX=Xl   U , gXgXgXgXgXgXgXgXwX",
"wXgXgXgXgXgXgXgXgX< k   C.*XgXgXgXgXgXhXo.% - +X&X:X}.%   k - . U a.M.H.eX}.uXgXgXgX,XrXuX!.K._ A z.*XgXgXgXgX=Xl r - T gXgXgXgXgXgXgXgXwX",
"wXgXgXgXgXgXgXgXgXR & = m.*XgXgXgXgX6XE.%   2 oXQ.T.+X#   . I k = : Z b.gXgX&X$X0XuXuXo.(.K.(.I.F 2 c.hXgXgXgX=Xl . : < gXgXgXgXgXgXgXgXwX",
"wXgXgXgXgXgXgXgXgX, t   m.*XgXgXpX).W.W.#   2 @XI.!.[.#   l -   Y   b a.! hXgXgX8X|.Z H !.%XW.U.D n P 1 OXgXdXn.x o = , gXgXgXgXgXgXgXgXwX",
"wXgXgXgXgXgXgXgXgX, O z m.OXgX6XT.K.W.W.#   2 [.`.).[.O     k l k l l r B.G 9XgXb.M k.= }.$X%X`.B V.L 2 # } #XhXsXG.= ~ gXgXgXgXgXgXgXgXwX",
"wXgXgXgXgXgXgXgXgX5 N.y m..X{.W.W.W.W.W.O   2 &X$X5X[.O   #   = U O z . # M.L G h.l   z oXoX5X(.G n M.o b J.gX9Xt = k.E gXgXgXgXgXgXgXgXwX",
"wXgXgXgXgXgXgXgXgXE k.b m.P.W.W.W.W.W.W.O   - @X[.^.].O   6.f   o i.k y K # m j.$ I M A }.^.K.{.Z a.s.o K 7XgX Xz y j.S gXgXgXgXgXgXgXgXwX",
"wXgXgXgXgXgXgXgXgX~ L   m.] W.W.W.W.W.W.O   2 +XI.^.}.O   q.t.2..   b b $ b = = r y O u ,XT./._.u L j.# M J.gX=Xz I r , gXgXgXgXgXgXgXgXwX",
"wXgXgXgXgXgXgXgXgX5     B.@.}.K.W.W.W.W.O   - {.T.I.$XO   w.t.t.-.O   - a.r & - - z g.1 [.[.R.].M l s.. y F.gX=Xl o y , gXgXgXgXgXgXgXgXwX",
"wXgXgXgXgXgXgXgXgX, U   m.L.&X].W.W.W.W.O   2 {.&X,X{.O   w.t.t.;.k     O f.- $ h.l   % $X#X,X`.Z M.u.= # n.}.$.l O = 3 gXgXgXgXgXgXgXgXwX",
"wXgXgXgXgXgXgXgXgXE = y V.P.&X6XE.W.W.W.O   2 oX1X$X_.O   r.t.t.;.l m &     n j.#   # d @X+X]._.A b b $ ( 5XgX-Xl : = S gXgXgXgXgXgXgXgXwX",
"wXgXgXgXgXgXgXgXgX< l   B.%.6X$X@XR.W.W.O   = #XI.T.#Xo   r.t.t.;.k - M & o       q t.9.{.R.!.[.= 8 2.t.F ^.gX-Xl   l , gXgXgXgXgXgXgXgXwX",
"wXgXgXgXgXgXgXgXgX, O . B.].Q.R.!.+XW.W.o   = +XT.T.[.o   t.t.t.;.b u.J K L O   0 t.t.7._.(.K.].p 3.$ q 4.K.6X-Xl   o S gXgXgXgXgXgXgXgXwX",
"wXgXgXgXgXgXgXgXgX, t M B._ I./.Y.1X!.( = % = _ ( Y.!..   t.t.t.;.l P t - I y   q t.t.e.(.{.5X_.V g   . r.( '.-Xl O k.R gXgXgXgXgXgXgXgXwX",
"wXgXgXgXgXgXgXgXgXT k.k N.s ] _.&X+X#Xt = U J l l I E O   t.t.t.:.c l c k b m   0 t.t.t.+.}.`.$XB >.    :.1.T.OXb m u.~ gXgXgXgXgXgXgXgXwX",
"wXgXgXgXgXgXgXgXgXR M.$ N.>.1._.&X[.[.X.y z = h.k J : l m e 5.t.-.k z k l L k   q t.t.t.O.(./.R.} ,.    O r.) | b l m , gXgXgXgXgXgXgXgXwX",
"wXgXgXgXgXgXgXgXgXE #   N.>.r._ ].T.I.$X= b $ b r a.$ m.= h.L d f k l k y l k   0 t.t.t.` 1XK.I.#.>.      -.C ] b = . , gXgXgXgXgXgXgXgXwX",
"wXgXgXgXgXgXgXgXgX, y   N.,.-.<.E.R.E.@XG.R Q M K s.& i.- U O U = z l n l k H   0 t.t.t.0.$X,X$X].h $     O w.V M   k , gXgXgXgXgXgXgXgXwX",
"wXgXgXgXgXgXgXgXgXS = & N.,.# 3._ `._.1X5XR.W.K.) _ c n s.- m.- P - I - t a.k   0 t.t.t.9.@X%X$X{.i s       -.-.M - $ W gXgXgXgXgXgXgXgXwX",
"wXgXgXgXgXgXgXgXgX5 - O M.2.# $ 7.^.$X<X1X^.W.W.L.t n o l k Y = h.J r n J n M   0 t.t.t.q.'.oXK.U.F ,.      * 3.b   k , gXgXgXgXgXgXgXgXwX",
"wXgXgXgXgXgXgXgXgX, l   M.2.#   2.` +XK.I.&XK.( M k       # l f.& = J # y k y   0 t.t.r.d | ^.(.W.$.>.o     * 5.M   . S gXgXgXgXgXgXgXgXwX",
"wXgXgXgXgXgXgXgXgX, . k M.2.O   * 9.(.E.Y.%X_ J #       & J # l y D.& h.# U l   0 t.2.v b B $X_.}.}.j q     * 3.M o k.E gXgXgXgXgXgXgXgXwX",
"wXgXgXgXgXgXgXgXgX3 M.t M.,.O     6.O.[.~.,X[..     . c i   r - r = k f.P r k   * j U =   O {.@XiX{.F >.    * 3.n L Y E gXgXgXgXgXgXgXgXwX",
"wXgXgXgXgXgXgXgXgX/ I c M.,.O     s ` @X6X,X+X%   - N a q   y l y f.l y r b r . c c .       | :XU._.%.;.O   * 3.n r j.3 gXgXgXgXgXgXgXgXwX",
"wXgXgXgXgXgXgXgXgXE I   j.,.O     # 6./.}.T.:XF v i >.t.g   y k y y y D.y P k k #       & k.| {.K.(.`.V g   * 5.M k o , gXgXgXgXgXgXgXgXwX",
"wXgXgXgXgXgXgXgXgX3 #   j.,.O       6.O.E.`.U.$.7 w.t.t.g   y c r & M r - u.k n     . n g.[ W.{.].K.{.O.>.. * 3.n   K , gXgXgXgXgXgXgXgXwX",
"wXgXgXgXgXgXgXgXgX< l . M.;.;       g ` `.K.#X1Xh t.t.t.g   M z n l O n h.- Y r j.= b R L.W.W.I.$X&X6X`.i f * 5.n r - W gXgXgXgXgXgXgXgXwX",
"wXgXgXgXgXgXgXgXgXT = y j.9 2.      7 9.).<X1X6Xj t.t.t.g   z U r r K # n r A.- a.b p.! _ ( ] L.[.<X_._. .>.0 3.m o - < gXgXgXgXgXgXgXgXwX",
"wXgXgXgXgXgXgXgXgX, s.  j.) ;.7     . e.!.$X`.$XF t.t.t.g   M b I Y k J $ b $ y.r f.= u.U i.d.u.G :XK.(.(.V w.5.m   : , gXgXgXgXgXgXgXgXwX",
"wXgXgXgXgXgXgXgXgX,   t k.] B 4.      5.P.'.!.Q...w.t.t.g   k k l k k J d 2.l k.& N.: j.y I # I %  XY.W.+X@.<.3.J   - / gXgXgXgXgXgXgXgXwX",
"wXgXgXgXgXgXgXgXgX< U t k.v.P.:.8     >.O.).E.oX#.3.t.t.g   l i.k b L K h t.r.s k k : i.c M.$ M d.F &X{.rX_._ ,.m r k.E gXgXgXgXgXgXgXgXwX",
"wXgXgXgXgXgXgXgXgX~ H n k.OX`.V 2.    f ` ^.1X%X}.;.t.t.f   n l : y b I h t.t.r.  . A G z y l a.t u @.5X:X/.}.t J b k.S gXgXgXgXgXgXgXgXwX",
"wXgXgXgXgXgXgXgXgXW H   g.OX5XL.>.#   0 0.'.&X@X+Xh t.t.s   y m - - n K h t.t.r.  . @._.L.{ % # & [ K.:X[.(.K.$.K y.& , gXgXgXgXgXgXgXgXwX",
"wXgXgXgXgXgXgXgXgX3     f.*XfXU.V ;.0 6.1.[.U.I.<Xh t.t.7   . n m n U P h t.t.t.    .XR./.(.%   o W.W.!.+XR.R.$.K o r , gXgXgXgXgXgXgXgXwX",
"wXgXgXgXgXgXgXgXgX< P   f.OXgX&X( w.3.j % !.R.Q.&Xj q.$   O .   $ z r K h t.t.t.    n.T.R.@X#   o W.W.W.!.#X1X*.K O = 3 gXgXgXgXgXgXgXgXwX",
"wXgXgXgXgXgXgXgXgXT t t d..XgXrX( = M m Z.Y.+X,X1X2 .   y j.h.#   o M K j t.t.t.    +.$X,X[.#   O W.W.W.K.#X,X@.I - - 3 gXgXgXgXgXgXgXgXwX",
"wXgXgXgXgXgXgXgXgX< l . g.@.@XT - # S.m Q !.:X:X,X2 O a.b   O h.r     m h t.t.t.    +.:X:X].%   O W.W.W.K.E.1XO.L   n , gXgXgXgXgXgXgXgXwX",
"wXgXgXgXgXgXgXgXgX, # . a..XgXb.L   Y U M.(.Y.K.+XZ N.: r t r : K n   . a t.t.t.    n.Y.E.#X%   O W.W.W.W.W./.$.I   . S gXgXgXgXgXgXgXgXwX",
"wXgXgXgXgXgXgXgXgX, & K a..XgX3Xy.O A.i.F.}.E.n._.1 . k $ = = n $ t f.O   f t.r.    +.R.!._.%   O W.W.W.W.W.W.] L   U E gXgXgXgXgXgXgXgXwX",
"wXgXgXgXgXgXgXgXgXS h.z U ^.gX-Xu.  j.U l.].[.Q.$Xx c b r A.m.y M l - j.=   8 r.    ^.[.(.}.#   O W.W.W.W.W.W.] P H L / gXgXgXgXgXgXgXgXwX",
"wXgXgXgXgXgXgXgXgXT k.r ! $XgX..Y o N.y.x.].1X&X5X= o U S.J.n.C.r o l o y.y   o      X+X6X].%   O W.W.W.W.K.%XOXY k f.< gXgXgXgXgXgXgXgXwX",
"wXgXgXgXgXgXgXgXgX~ & *.iXgX%X}.u O S.P =.}.%X1X1X1 A.F.&XhXgX.XZ.b b M l l J .     '.(.Q.$X%   O W.W.W.T.eXgXOXU z # , gXgXgXgXgXgXgXgXwX",
"wXgXgXgXgXgXgXgXgX< k   z @.aXgXgX..^ I / }.U.Q.{.~ @.(.$XuXgXgX=Xx.u.. Y o = u.     XT.)._.$   O W.K.].fXgXgX*Xy.  y , gXgXgXgXgXgXgXgXwX",
"wXgXgXgXgXgXgXgXgX3 y $ U v.gXgXgXgXsX .( [.U.K.].@XdXgXdX<X$XeXgX9Xy c r y u.o     }./.T.:X%   % Y.eXgXgXgXgX=Xi.- - S gXgXgXgXgXgXgXgXwX",
"wXgXgXgXgXgXgXgXgXS - - u.*.gXgXgXgXrXd.j.y ( '.6XuX}.iXgXgXgX6X#X^ f.U h.& - y     [.1X6X$X% % b.gXgXgXgXgXgX3Xd.. l , gXgXgXgXgXgXgXgXwX",
"wXgXgXgXgXgXgXgXgX< M   a.v.gXgXgXgXiXd.C.u.M *.hXiX5X5XiXgXgXgXH.s.N N.a.y.y - o . Y.#X{./.G.hXgXgXgXgXgXgXgXgX..H   , gXgXgXgXgXgXgXgXwX",
"wXgXgXgXgXgXgXgXgX,   - f.v.gXgXgXgXgXuXb.B.x aX{.I.T.Y./.gXgXgXc.P m a.s.a.y.m H = } I.:XhXgXgXtX2X2X2XtXgXgXgXgX^ M , gXgXgXgXgXgXgXgXwX",
"wXgXgXgXgXgXgXgXgX, P l h.v.gXgXgXgXgXgXgXz.^ gXgXuXgXgXgXgXgXgXx.Y b $ k u.P P a.s.l ;XgXgXgXgXtXX   + aXgXgXgXgXhX..E gXgXgXgXgXgXgXgXwX",
"wXgXgXgXgXgXgXgXgX/ U K k.v.gXgXgXgXfXQ Q ! b.gX&X1X(.(.dXgXgXjXI a.a.I k r c y.k.s.y.1XgXgXhXgXgX#.  &.gXgXhXgXgXgXhX .gXgXgXgXgXgXgXgXwX",
"wXgXgXgXgXgXgXgXgXT M.# k.G.gXgXgXgXyXN.D.z v.gX$XgXhX,XsXgXgX-XK a.f.i.a.U b y k J F.eX .  X  .tX>X  qXtX(   X #.pXgX%.gXgXgXgXgXgXgXgXwX",
"wXgXgXgXgXgXgXgXgXW #   h.G.gXgXgXgXgX.X^ M..XhX6XsXgXhXgXgXgXb.i.f.a.U s.h.g.I H..XuX4         @ qX  wX+         6 gX%.gXgXgXgXgXgXgXgXwX",
"wXgXgXgXgXgXgXgXgX, l   h.H.gXgXgXgXgXgXyXa.8XuX#X0XgXdX,X8XgXc.a.s.a.i.a.f.d.a.;XgX X            6   6             >X$.gXgXgXgXgXgXgXgXwX",
"wXgXgXgXgXgXgXgXgXR y y f.b.gXgXgXgXgXgXgX! T.Q.Q.:XiXQ.U.^.<X..a.s.a.U Y i.U M.0XgX#.                              &.%.gXgXgX2X>XfXgXgXwX",
"wXgXgXgXgXgXgXgXgX, P   a.v.gXgXgXgXgXgXgX| !.^.T.1XrXY.Y.Y.{./ a.f.a.K H u.U Z.hXgX%.                              |.%.gXtXtXXX{ pXwXhXwX",
"wXgXgXgXgXgXgXgXgX5 y y y z x *XgXgXgXgXgX{.oX{.Q.pXiX&X$X{.[.z.a.a.Y K u.u.U J.gXgXtX                            X aX%.>X    %.| +    .wX",
"wXgXgXgXgXgXgXgXgXS j j l m.o.tXOXrXgXgXgX$X@X&XsXgXsX{.`.$XaXz.u.L y.a.a.U U J.gXgXgX>X+       +       +       + 2XgX%.{               2X",
"wXgXgXgXgXgXgXgXgXZ t.d k.o.gXH.u.l c.tXgX#X6XiXgXgXgXgXgXgX4XK L J U u.K b z H.gXgXgXgXpX2X>XXX        X >X>X2XhXgXgX%.XX            { wX",
"wXgXgXgXgXgXgXgXgXZ h j.*.gXgXhXz.O a.Q iXu 9 9 2 B Z F D D B $ # # o . . O * r iXgXgXgXgXgXgX4           6 gXgXgXgXgX%.gXtX|.    | qXgXwX",
"wXgXgXgXgXgXgXgXgX5 M.v.hXgXgXgXc.I # C.Z 2.2.6.r.w.5.5.2.2.>.>.2.5.q.w.6.,.;.3.} gXgXgXgXgX2X              wXgXgXgXgX%.gXgX#.    X gXgXwX",
"wXgXgXgXgXgXgXgXgXX.n.hXgXgXgXgX0XN.= # 8 -.;.;.a 8 r.8 a s s a a g q.* ,.6.>.-.d 6XgXgXgXgXXX              2XgXgXgXgX$.gXgX|.    4 gXgXwX",
"wXgXgXgXgXgXgXgXgX=.hXgXgXgXgXgXgXo.M.  3.8 t.t.r.0 q.g t.t.t.t.t.q t.a t.t.t.q 6.F gXgXgXgXtX              aXgXgXgXgX%.gXgXgX>XXXpXgXgXwX",
"wXgXgXgXgXgXgXgXgX$.gXgXgXgXgXgXgX=Xj.* 3.-.t.t.3.g 2.>.t.t.t.t.t.-.5.s r.t.t.q.q g .XgXgXgXgX#.          &.gXgXgXgXgX$.gXgXgXgXgXgXgXgXwX",
"wXgXgXgXgXgXgXgXgX$.fXgXgXgXgXgXgXgX_ 2.q r.t.t.g ,.-.5.t.t.t.t.t.6.g 2.>.t.t.t.a 2.V dXgXgXgXgX|.4 + 4 XXgXgXgXgXgXhX$.gXgX&.@ X #.hXgXwX",
"wXgXgXgXgXgXgXgXgXaX| %.%.&.%.&.%.%.5 i 1 i i i 1 u 1 i i i i i i i 1 i 1 i i i i > t | %.%.&.%.%.&.%.&.%.&.%.%.&.$.| tXgX>X@ tXaX4 ^.gXwX",
"wXgXgXgXgXgXgXgXgXgXgXfXpXpXpXpXpXfXpXpXpXpXpXpXpXpXpXpXpXpXpXpXpXpXpXpXpXpXpXpXpXpXfXpXpXpXpXpXpXpXpXpXpXpXpXpXpXfXgXgXgX$.| gXgXqX4XgXwX",
"wXgXgXgXgXgXgXgXgXgXgXgXgXgXgXgXgXgXgXgXgXgXgXgXgXgXgXgXgXgXgXgXgXgXgXgXgXgXgXgXgXgXgXgXgXgXgXgXgXgXgXgXgXgXgXgXgXgXgXgXgX#.#.gXgXgXgXgXwX",
"wXgXgXgXgXgXgXgXgXgXgXgXgXgXgXgXgXgXgXgXgXgXgXgXgXgXgXgXgXgXgXgXgXgXgXgXgXgXgXgXgXgXgXgXgXgXgXgXgXgXgXgXgXgXgXgXgXgXgXgXgX#.#.gXgXgXgXgXwX",
"wXgXgXgXgXgXgXgXgXgXgXgXgXgXgXgXgXgXgXgXgXgXgXgXgXgXgXgXgXgXgXgXgXgXgXgXgXgXgXgXgXgXgXgXgXgXgXgXgXgXgXgXgXgXgXgXgXgXgXgXgX#.#.gXgXgXgXgXwX",
"wXgXgXgXgXgXgXgXgXgXgXgXgXgXgXgXgXgXgXgXgXgXgXgXgXgXgXgXgXgXgXgXgXgXgXgXgXgXgXgXgXgXgXgXgXgXgXgXgXgXgXgXgXgXgXgXgXgXgXgXhX#.#.gXgXgXgXgXwX",
"wXgXgXgXgXgXgXgXgXgXgXgXgXgXgXgXgXgXgXgXgXgXgXgXgXgXgXgXgXgXgXgXgXgXgXgXgXgXgXgXgXgXgXgXgXgXgXgXgXgXgXgXgXgXgXgXgXgXgXgXgX#.#.gXgXgXgXgXwX",
"wXgXgXgXgXgXgXgXgXgXgXgXgXgXgXgXgXgXgXgXgXgXgXgXgXgXgXgXgXgXgXgXgXgXgXgXgXgXgXgXgXgXgXgXgXgXgXgXgXgXgXgXgXgXgXgXgXgXgXgXgX#.    >XgXgXgXwX",
"qXgXgXgXgXgXgXgXgXgXgXgXgXgXgXgXgXgXgXgXgXgXgXgXgXgXgXgXgXgXgXgXgXgXgXgXgXgXgXgXgXgXgXgXgXgXgXgXgXgXgXgXgXgXgXgXgXgXgXgXgXgXgXgXgXgXgXgXqX",
"hXqXwXwXwXwXwXwXwXwXwXwXwXwXwXwXwXwXwXwXwXwXwXwXwXwXwXwXwXwXwXwXwXwXwXwXwXwXwXwXwXwXwXwXwXwXwXwXwXwXwXwXwXwXwXwXwXwXwXwXwXwXwXwXwXwXwX2XhX"
};
