/* XPM */
static const char *jack_hearts[] = {
/* columns rows colors chars-per-pixel */
"69 100 235 2 ",
"   c #010000",
".  c #0C0000",
"X  c #140100",
"o  c #1B0201",
"O  c #240401",
"+  c #2B0501",
"@  c #2E0802",
"#  c #330A03",
"$  c #3A0E05",
"%  c #380302",
"&  c #3E1006",
"*  c #38150C",
"=  c #3C2517",
"-  c #3F3025",
";  c #4A0100",
":  c #440502",
">  c #530000",
",  c #5C0100",
"<  c #5A0C03",
"1  c #421307",
"2  c #441509",
"3  c #451A0D",
"4  c #4B1C0B",
"5  c #4C1307",
"6  c #59180B",
"7  c #4B1E12",
"8  c #5D1A11",
"9  c #640000",
"0  c #6B0000",
"q  c #670C04",
"w  c #730000",
"e  c #7B0000",
"r  c #7A0A03",
"t  c #671509",
"y  c #7A1A09",
"u  c #6B1F14",
"i  c #4E210D",
"p  c #52240E",
"a  c #54290F",
"s  c #5C260E",
"d  c #4E2314",
"f  c #452718",
"g  c #512212",
"h  c #552B12",
"j  c #592D12",
"k  c #54291B",
"l  c #5B3314",
"z  c #5E3A16",
"x  c #57321B",
"c  c #5D3D1B",
"v  c #59331B",
"b  c #662814",
"n  c #623C16",
"m  c #653815",
"M  c #752C11",
"N  c #482D23",
"B  c #453124",
"V  c #483827",
"C  c #5A3926",
"Z  c #483537",
"A  c #512E2E",
"S  c #613523",
"D  c #5E421A",
"F  c #5F491C",
"G  c #654117",
"H  c #63441A",
"J  c #644B1D",
"K  c #6B4D1A",
"L  c #6A4618",
"P  c #65521F",
"I  c #6C531C",
"U  c #6E591F",
"Y  c #72541A",
"T  c #745A1C",
"R  c #795A1A",
"E  c #784519",
"W  c #7B631C",
"Q  c #7A651D",
"!  c #564B38",
"~  c #574A31",
"^  c #634828",
"/  c #6B5C22",
"(  c #675524",
")  c #705C21",
"_  c #6C583A",
"`  c #6D5036",
"'  c #6D6223",
"]  c #6C6727",
"[  c #746521",
"{  c #736B25",
"}  c #796C22",
"|  c #766729",
" . c #7C7222",
".. c #777427",
"X. c #766836",
"o. c #756B38",
"O. c #3F3B4C",
"+. c #38415B",
"@. c #2D486F",
"#. c #575447",
"$. c #585B55",
"%. c #4E4E49",
"&. c #695A48",
"*. c #5C625A",
"=. c #796648",
"-. c #65655A",
";. c #79714B",
":. c #666665",
">. c #6A6B69",
",. c #737373",
"<. c #68776E",
"1. c #526769",
"2. c #403D51",
"3. c #830100",
"4. c #8C0100",
"5. c #860C03",
"6. c #940100",
"7. c #9C0100",
"8. c #980B03",
"9. c #931406",
"0. c #871407",
"q. c #A20200",
"w. c #AC0201",
"e. c #A80902",
"r. c #B40201",
"t. c #BA0201",
"y. c #B72A13",
"u. c #B43016",
"i. c #902F13",
"p. c #C40100",
"a. c #CC0000",
"s. c #CB0E04",
"d. c #D30000",
"f. c #DF0000",
"g. c #D50B03",
"h. c #C81808",
"j. c #D11005",
"k. c #E00C0C",
"l. c #E00606",
"z. c #E21515",
"x. c #E42727",
"c. c #E63939",
"v. c #C1200D",
"b. c #826C1C",
"n. c #84721D",
"m. c #8A7A1D",
"M. c #927D18",
"N. c #A65332",
"B. c #847921",
"V. c #A5613E",
"C. c #837755",
"Z. c #A87451",
"A. c #857D63",
"S. c #EA5959",
"D. c #E84444",
"F. c #EB6565",
"G. c #EF7C7C",
"H. c #EE7474",
"J. c #79822B",
"K. c #6F8478",
"L. c #95871B",
"P. c #9C931A",
"I. c #A59A17",
"U. c #B2AA14",
"Y. c #878725",
"T. c #8C9728",
"R. c #92A026",
"E. c #C2B80F",
"W. c #D1C809",
"Q. c #E2D200",
"!. c #8C8669",
"~. c #999076",
"^. c #AF8F6F",
"/. c #9E8C5E",
"(. c #19599A",
"). c #1E518B",
"_. c #21538A",
"`. c #366D8D",
"'. c #286493",
"]. c #376D8C",
"[. c #1156A1",
"{. c #4B7A88",
"}. c #457689",
"|. c #547E85",
" X c #598487",
".X c #648B88",
"XX c #688D88",
"oX c #6D918A",
"OX c #7B9B8E",
"+X c #74968B",
"@X c #728D82",
"#X c #819F90",
"$X c #8F9E87",
"%X c #A39D85",
"&X c #89A594",
"*X c #94AD99",
"=X c #9AB29D",
"-X c #94A48B",
";X c #A6A488",
":X c #ACA993",
">X c #B4AD95",
",X c #9EB4A0",
"<X c #A8BCA6",
"1X c #B8BCA6",
"2X c #F18B8B",
"3X c #F29494",
"4X c #EF8080",
"5X c #C6B297",
"6X c #F4A8A8",
"7X c #F6BBBB",
"8X c #F5B2B2",
"9X c #CABCA3",
"0X c #BAC9B4",
"qX c #B2C2AD",
"wX c #C9C9B7",
"eX c #D9D1BF",
"rX c #CBCBB6",
"tX c #CBCBCB",
"yX c #C3C3C3",
"uX c #CBD5C3",
"iX c #D6D9C9",
"pX c #DCDED7",
"aX c #F8C6C6",
"sX c #FAD8D8",
"dX c #DBE2D3",
"fX c #E5E6DB",
"gX c #EEEEEE",
"hX c #E9ECE4",
"jX c #FBEAE9",
"kX c #EEF1E9",
"lX c #F1F3ED",
"zX c #F4F5F2",
"xX c #F7F9F4",
"cX c #FFFFFF",
"vX c #FBF8F6",
/* pixels */
"vXyXtXtXtXtXtXtXtXtXtXtXtXtXtXtXtXtXtXtXtXtXtXtXtXtXtXtXtXtXtXtXtXtXtXtXtXtXtXtXtXtXtXtXtXtXtXtXtXtXtXtXtXtXtXtXtXtXtXtXtXtXtXtXtXtXtXyXvX",
"yXcXcXcXcXcXcXcXcXcXcXcXcXcXcXcXcXcXcXcXcXcXcXcXcXcXcXcXcXcXcXcXcXcXcXcXcXcXcXcXcXcXcXcXcXcXcXcXcXcXcXcXcXcXcXcXcXcXcXcXcXcXcXcXcXcXcXcXyX",
"tXcXcXcXcXcXcXcXcXcXcXcXcXcXcXcXcXcXcXcXcXcXcXcXcXcXcXcXcXcXcXcXcXcXcXcXcXcXcXcXcXcXcXcXcXcXcXcXcXcXcXcXcXcXcXcXcXcXcXcXcXcXcXcXcXcXcXcXtX",
"tXcXcXcX6Xf.f.F.cXcXcXcXcXcXcXcXcXcXcXcXcXcXcXcXcXcXcXcXcXcXcXcXcXcXcXcXcXcXcXcXcXcXcXcXcXcXcXcXcXcXcXcXcXcXcXcXcXcXcXcXcXcXcXcXcXcXcXcXtX",
"tXcXcXcXcXcXF.F.cXcXcXcXcXcXcXcXcXcXcXcXcXcXcXcXcXcXcXcXcXcXcXcXcXcXcXcXcXcXcXcXcXcXcXcXcXcXcXcXcXcXcXcXcXcXcXcXcXcXcXcXcXcXcXcXcXcXcXcXtX",
"tXcXcXcXcXcXS.F.cXcXcXcXcXcXcXcXcXcXcXcXcXcXcXcXcXcXcXcXcXcXcXcXcXcXcXcXcXcXcXcXcXcXcXcXcXcXcXcXcXcXcXcXcXcXcXcXcXcXcXcXcXcXcXcXcXcXcXcXtX",
"tXcXcXcXcXcXF.F.cXcXcXcXcXcXcXcXcXcXcXcXcXcXcXcXcXcXcXcXcXcXcXcXcXcXcXcXcXcXcXcXcXcXcXcXcXcXcXcXcXcXcXcXcXcXcXcXcXcXcXcXcXcXcXcXcXcXcXcXtX",
"tXcXcXcXcXcXF.F.cXcXcXcXcXcXcXcXcXcXcXcXcXcXcXcXcXcXcXcXcXcXcXcXcXcXcXcXcXcXcXcXcXcXcXcXcXcXcXcXcXcXcXcXcXcXcXcXcXcXcXcXcXcXcXcXcXcXcXcXtX",
"tXcXcXcXcXcXF.F.cXcXcXcXcXcXcXcXcXcXcXcXcXcXcXcXcXcXcXcXcXcXcXcXcXcXcXcXcXcXcXcXcXcXcXcXcXcXcXcXcXcXcXcXcXcXcXcXcXcXcXcXcXcXcXcXcXcXcXcXtX",
"tXcX8XaXcXcXS.F.cXgX:.:.:.:.:.:.:.:.:.:.:.:.:.$.* 3 :.f 3 f :.3 f $.3 3 3 3 ! V 3 Z V 3 3 3 ~ %.3 * %.:.:.:.:.:.:.:.:.hXcXcXcXcXcXcXcXcXtX",
"tXcXG.x.jXsXz.8XcX>.gXcXcXcXcXcXcXcXcXcXcXcXcXvXC a.Z.5Xf.f.5Xy.g.lXh.f.l.l.rXy.l.^.u.f.l.s.fXv.t.k cXcXcXcXcXcXcXcXgX>.cXcXcXcXcXcXcXcXtX",
"tXcXvXF.k.z.H.cXcX,.cXcX6XS.c.S.aXcXcXaXS.c.S.7XdXt s.eXZ.Z.iXZ.l.Z.kXeX5X5XjXg.g.jXy.f.f.^.N.f.< fXcXcXcXcXcXcXcXcXcX,.cXcXcXcXcXcXcXcXtX",
"tXcXcXcXcXcXcXcXcX,.cXF.f.f.f.f.k.aX7Xf.l.f.f.f.G.!.4.y.V.N.y.j.l.l.g.g.h.y.v.f.g.Z.iX9X^.5Xg.4.~.cXcXcX:XcXcXcXcXcXrX%.cXcXcXcXcXcXcXcXtX",
"tXjXH.H.vX6XF.8XcX,.7Xf.f.f.f.f.f.D.c.f.f.f.f.f.l.sXC 3.4.0 > % % + O + + % ; 0 4.r.d.j.u.s.r.S cXcXcXwX1 hXcXcXxXC...~ cXcXcXcXcXcXcXcXtX",
"tXD.f.f.D.f.f.f.aX,.G.f.f.f.f.f.f.l.f.f.f.f.f.l.l.2XlX& . O $ 3 4 4 g 7 6 O o X       O , 4.5 xXcXcXcXoX# ` cXkX^ Y q = cXcXcXcXcXcXcXcXtX",
"tXz.f.f.f.f.f.f.8X,.G.f.f.f.f.f.f.f.f.l.f.f.f.f.l.3XcX&X0XqXrXkXcXcXcXcXcX=.D J / c & & . . 1XcXcXcXuXqXj 4 uX1XI % e = cXcXcXcXcXcXcXcXtX",
"tX2Xf.f.f.f.f.x.vX,.7Xl.l.f.f.f.f.f.f.f.l.f.f.f.l.sXcXiX=XOX{.}.+XlXcXcXcX!.I ] F Q ( / / h lXcXcXcX&XdX& 4 & =.J > e = cXcXcXcXcXcXcXcXtX",
"tXcXS.f.f.l.k.sXcX>.cXc.l.f.l.f.l.f.f.f.f.f.l.f.S.cXcXuX<X(.[.].XX XzXcXcXdXz [ ' z ..P ] Q ;XcXcXcX,X;.p J l 1 K , e = cXcXcXcXcXcXcXcXtX",
"tXcXvXc.f.l.8XcXcX,.cXjXz.l.f.f.f.f.f.f.l.f.f.z.jXcXcX&XcX].'.}.'.OXcXcXcXcX( ^ J.l / { J Y.!.vXcXcX1.7 z G n a K ; e f cXcXcXcXcXcXcXcXtX",
"tXcXcXjXk.4XcXcXcX,.cXcXaXk.f.f.f.f.f.l.f.f.z.sXcXcXdX*XxX&X`.<XhXuXcXcXcXcX| ( / ' D  .P ..;.cXcXcX*X` 1 l z # I > 3.= cXcXcXcXcXcXcXcXtX",
"tXcXcXcX3XcXcXcXcX,.cXcXcX6Xf.f.l.f.f.f.f.l.7XcXcXcX&XlXcXqXxXqXcXcXcXcXhXcXF { D ] / P Q P ..cXcXcX*XcX3 4 3 =.K > 3.= cXcXcXcXcXcXcXcXtX",
"tXcXcXcXcXcXcXcXcX,.cXcXcXcXG.f.f.f.f.f.f.6XcXcXcXcX+XOX}.oXdXcXcXcXcXcX&XuXd } ' P  .F ' U ( vXcXcXqXdXx i rX~.I > e = cXcXcXcXcXcXcXcXtX",
"tXcXcXcXcXcXcXcXcX,.cXcXcXcXcXS.f.f.f.l.G.cXcXcXcXcXvX=X0X*XwXcX&XlXcXcX*X%.l { Q F ] ' D Q ' >XcXcXxXOX1 ` cX~.K ; 0 f cXcXcXcXcXcXcXcXtX",
"tXcXcXcXcXcXcXcXcX,.cXcXcXcXcXvXx.f.f.D.cXcXcXcXcXcXcXcXOXOX X{..XvXcXcXhXx P / ' ' H P P '  .!.cXcXcX=X# fXcX%XI ; e = cXcXcXcXcXcXcXcXtX",
"tXcXcXcXcXcXcXcXcX,.cXcXcXcXcXcXaXf.l.sXcXcXcXcXcXcXcXcX`.`. XcXcXcXcXkXC D [ J.J ' ] D } / P { uX%X;.fXA.cXcX%XK ; 0 f cXcXcXcXcXcXcXcXtX",
"tXcXcXcXcXcXcXcXcX,.cXcXcXcXcXcXcXS.H.cXcXcXcXcXcXcXcXcXOXfXvXcXcXcXwXk H J.P ' [ J J [ P J ..{ v } / X.gXcXcX:XK > e = cXcXcXcXcXcXcXcXtX",
"tXcXcXcXcXcXcXcXcX,.cXcXcXcXcXcXcX7XaXcXcXcXcXcXcXcXdX&XXX=XcXcXuXS 3 j p a j D a a p 2 a h / Q z l } ..%XcXcX:XJ > 3.= cXcXcXcXcXcXcXcXtX",
"tXcXcXcXcXcXcXcXcX,.cXcXcXcXcXcXcXcXcXcX<XcXcXcXcXxX#X<X{.%.;.o.l h a a a j l l z a a h a a G ' ' |  .| 1XcXcX:XJ ; w f cXcXcXcXcXcXcXcXtX",
"tXcXcXcXcXcXcXcXcX>.cXcXcXcXhX;.C.;.o.o._ cXcXcXcXdX<.Z D x X # & l z o O 3 h a + O i j 2 O + m Q Q [ x cXcXcX:XH > e f cXcXcXcXcXcXcXcXtX",
"tXcXcXcXcXcXcXcXcX,.cXcXcX;X( D l l z  .-XcXcXcXrXC o H H J.# Q & T U & L z U J h i H J j 5 t.X . # i   d iXcX;XH > 4.f cXcXcXcXcXcXcXcXtX",
"tXcXcXcXcXcXcXcXcX,.cXvX<XF i p a l X.!.cXcXfX^ O L 4 $ D p o O 1 D z O + p J 4 o o 4 z $ q.; O n.+ n   3 / !.;XH , 3.= cXcXcXcXcXcXcXcXyX",
"tXcXcXcXcXcXcXcXcX,.cXoX>.x ;XiXxXcXcXcXcX;.k L # [ 3 . d $ 7 d k x d d d d d d d d 7 1 5.4.    1 Y 4 $ $.( L.C c > e f cXcXcXcXcXcXcXcXtX",
"tXcXcXcXcXcXcXcXcX,.*X X X&X&X0XcXcXcX1X3 j i a b.$ b.p X n O.[.[.[.[.[.[.[.[.[.[.[.[.u t.. l L.b.4 X 1.(.#X^ B.H % w f cXcXcXcXcXcXcXcXtX",
"tXcXcXcXcXcXcXcXcX,.oXOX X*XhX=XiXvX` h $ g / ' 3 H . 3 n.# x (.[.[.[.[.[.[.[.[.[.[.Z a.+ o U.$ O . l K.[..X`.!.( L.5 = cXcXcXcXcXcXcXcXtX",
"tXcXcXcXcXcXcXcXcX>.OXoX[.'.,XxX X7 z p / D a l p m $ T n # n Z [.[.[.[.[.[.[.[.[.@.e.0   + n.1 4 , m ` )..X[.{.+X` B.! cXcXcXcXcXcXcXcXtX",
"tXcXcXcXcXcXcXcXcX*. X].{.<XfXA.3 p 1 h l H a @ i 4 b.. p 1 + l (.[.[.[.[.[.[.[.[.0.7.o B.+ R . % f.p.R ^ +X(. X(..X!.Z cXcXcXcXcXcXcXcXtX",
"tXcXcXcXcXcXcXcXcX>.K.'.,XhXA s l R m.Q & P X G i P ' 4 4 a 4 K Z [.[.[.[.[.[.[.k a.X   # m G   p.f.f.r.b.! oX+X(. X(.$.cXcXcXcXcXcXcXcXtX",
"tXcXcXcXcXcXcXcXcX,.;.#.hXb t.E p 4 b. .# i l n z U 4  .4 n O 1 C [.[.[.[.[.[.2.t.: # b.P.L o 3 8.f.f.l.9.M.$.&X}. X(.$.cXcXcXcXcXcXcXcXtX",
"tXcXcXcXcXcXcXcXcX,._ *.6 a.p.M.o p 4  .j M m I p z a a 2 H L X n +.[.[.[.[.).5.e   I.4 +       6 p.l.f.f.M ^ oX.X=X`.$.cXcXcXcXcXcXcXcXtX",
"tXcXcXcXcXcXcXcXcX,.dXu d.a.: L.$ a $ G J 9.e.n O O j 4 R   4 Y l N [.[.[.[.t t..   U.3 G . 4   X y f.f.l.t.n.! .X+X.X$.cXcXcXcXcXcXcXcXtX",
"tXcXcXcXcXcXcXcXcX:.y f.6.4.M l L W T R j w.f.E O G 3 U Y.O n W $ v [.[.[.A p.O B.# U.    l Q o . # a.l.f.f.0.( .XOX+X*.cXcXcXcXcXcXcXcXtX",
"tXcXcXcXcXcXcXcXcX= 4.7.d.w.P.4 4 W Y.O j f.f.t z j l j p #   m.  c _.[.+.w.,   $ 4 L.  l 1 m.z   1 4.l.f.f.r.n.&.OX*X$.cXcXcXcXcXcXcXcXtX",
"tXcXcXcXcXcXcXcXcXB q.7.e 4 n X J l  .# i.l.5.+ I 4 4 h G 2 O T # m Z ).5.6.. j P.I + # K   T } . + y g.f.f.f.m ~ XX&X*.cXcXcXcXcXcXcXcXtX",
"tXcXcXcXcXcXcXcXcXB 6.q.5.L.# j G O Q z t.7.+ . a O 1 T O   + Y 1 4 N 8 t.. G K o       +   4 n.# . a f.f.f.f.9... X&X$.cXcXcXcXcXcXcXcXtX",
"tXcXcXcXcXcXcXcXcXB w.e W & m.b.G G l M a.: X . 4 n l 4 + X O v 1 7 3 6 5 % S @ O o 4 + U.h $ m.3   1 a.f.f.f.w.Y.*.+X*.cXcXcXcXcXcXcXcXtX",
"tXcXcXcXcXcXcXcXcXB 9 K 1 a 4 T W G j r.> #   h K a   R W.g $ (..X=X`.'.qX}.].0XS 3 } E.P.U.* T.j   & r.f.f.f.f.Y #. X$.cXcXcXcXcXcXcXcXtX",
"tXcXcXcXcXcXcXcXcXf G 1 4 i j R z @ 0.w.&   @ [ H     W Q z & |.=X'.OX{.].<X(.;.. O B.p i $ . T.n   i r.f.f.f.f.M ~ ^ ~ cXcXcXcXcXcXcXcXtX",
"tXcXcXcXcXcXcXcXcX! # z j $ O K 1 s d.t o   L } & Y I.X j m.3 '.'.&X}.(.XXOX(.O   @  .j K # . Y.l   4 w.f.f.f.f.q J h = cXcXcXcXcXcXcXcXtX",
"tXcXcXcXcXcXcXcXcX= l 2 Q I D j a r.d.&   @  .a o U.L.h  .L o 6 6 6 C x 6 u 5     i Q M.U.U.$ L.4   4 p.f.f.f.y G l U ~ vXcXcXcXcXcXcXcXtX",
"tXcXcXcXcXcXcXcXvX! T & Y.G 2 z 5.l.7.o   j Q X   n 3 U.I . o f.f.s Q.Y w.f.4.    I n.O P.$ 3 R.$ . 1 f.f.f.y z D p # - cXcXcXcXcXcXcXcXtX",
"tXcXcXcXcXcXcXcXcX- @ X Y.1 j 0.f.f.w o   I R o R 4 # Y.#   o f.f.s Q.Y w.f.3.  p Q I a O   G T.X . t f.f.y ' a Y.j Q - cXcXcXcXcXcXcXcXtX",
"tXcXcXcXcXcXcXcXcX#.Q U i z 5.f.f.f.< X . ..h Q Q.K I.(     o 6 8 g n k u M 5 2 J L.T W.3 X Y.Y   & 9.f.9.T J Q  .n.l = cXcXcXcXcXcXcXcXtX",
"tXcXcXcXcXcXcXcXcX= @ p l e.f.f.f.f.t . o n.4 . L.@ m.z     A |.*X'.'.qX'.'.C v L.X G Q l l R.$   l p.e.K G $ 3 1 T # V cXcXcXcXcXcXcXcXtX",
"tXcXcXcXcXcXcXcXcXB h k b f.f.f.f.f.5 . O m.3 O l   } h   $  XOX'.*X`.{.-X(.C 3 W I.@   # T.I   $ q d.m 3 T p T a # z = cXcXcXcXcXcXcXcXtX",
"tXcXcXcXcXcXcXcXcX%.$.%.n.d.f.f.f.f.: . O Y.p W U.K L.g O ~.`.'.&X&X'. X=X(.Z @ U.U.O O } n.X X & a.y n K H K H + z 6.f cXcXcXcXcXcXcXcXtX",
"tXcXcXcXcXcXcXcXcX-.oX<.B.e.f.f.f.f.t . X Q j 3 W.@ Y O $ & v 2 * 6 4 3 3 4 $ o 4 a 3 W H @   $ 0.r.I I Y I.Q.$ G 3.w.= cXcXcXcXcXcXcXcXtX",
"tXcXcXcXcXcXcXcXcX*.+X{.' i.f.f.f.f.y #   / U   O O     . 4 R   , q N j # 1 a   . i H o n.  O y f.M l a 4 a 1 H 9.r.6.= cXcXcXcXcXcXcXcXtX",
"tXcXcXcXcXcXcXcXcX*.+XoX~ E f.f.f.f.6.#   n Q X @ T . m L.n X + 4.+.+.H m 4 j @ T J p l W $ 5 d.r.n K I 4 p & a 4.7.6.f cXcXcXcXcXcXcXcXtX",
"tXcXcXcXcXcXcXcXcX*.OX.X#.Y.e.l.f.f.a.O . $ I i z o & W @ . . 7.A [.[.L X 6 2 . 2 p J D T l t.l.y a R l K 2 H 7.d.7.6.f cXcXcXcXcXcXcXcXtX",
"tXcXcXcXcXcXcXcXcX:.&XOXoXF i.f.f.f.f.q .   Q T     4 j Q @ e t (.[.[.~ & K j 4 I ' J l & n.p.d.m l W m.W p M q.7.f.0.%.cXcXcXcXcXcXcXcXtX",
"tXcXcXcXcXcXcXcXcX*.'.&XOX#.b.t.f.f.f.q.&   $ 3 O b.p p   : r _.[.[.[.Z G n z @ 4 j G 1   p i.6.c n.# p j k < t.f.0.:X,.cXcXcXcXcXcXcXcXtX",
"tXcXcXcXcXcXcXcXcX-.(..X].&X^ E f.f.f.f.t X       & R & o q.O.[.[.[.[.).U o n Y O I @ l l J L.q z U & K @ n p.f.y <.V ,.cXcXcXcXcXcXcXcXtX",
"tXcXcXcXcXcXcXcXcX:.[. X(.&X1.m.9.f.f.f.r.1   a L.I.G . 6.k [.[.[.[.[.[.C p O 6 T l i h ] L J I + Q I 4 # L f.u pX=XC ,.cXcXcXcXcXcXcXcXtX",
"tXcXcXcXcXcXcXcXcX:.'..X[.{.{.! b.r.l.f.f.O # U.@ o   9 t (.[.[.[.[.[.[.+.I 3 i  .X { ' l T X Q $ Q K E.4 m b *XhX`.%.-.cXcXcXcXcXcXcXcXtX",
"tXcXcXcXcXcXcXcXcX#.;.+X[.}.'.}.C Y p.f.3.  $ M.a n + 6.@.[.[.[.[.[.[.[.[.C 3   Y.X h j Y @ 4 n B.z i 3 2 =.cX*X.X}. X%.cXcXcXcXcXcXcXcXtX",
"tXcXcXcXcXcXcXcXcX#.I._  X{.(.}.(.x m 6.o P.1 n.  X 7.A [.[.[.[.[.[.[.[.(.+.I . P.T 2 U & l p j / H n d &.uXlX'.(.`.,X%.cXcXcXcXcXcXcXcXtX",
"tXcXcXcXcXcXcXcXcX- : M.| !.}.}.[.,.n X   # a Y   3.8 [.[.[.[.[.[.[.[.[.[.[.k d m L o # l z H l l 6 C fXcXOXcX,XoX+XoX$.cXcXcXcXcXcXcXcXtX",
"tXcXcXcXcXcXcXcXcXV w % n P._ &X(. X& # P.U.R # ; r ).[.[.[.[.[.[.[.[.[.[.[.@.D o 1 W l h H l K $ C.cXcXcXdXOX*X X X.X>.cXcXcXcXcXcXcXcXtX",
"tXcXcXcXcXcXcXcXcXB w 9 s i L.X.<.k . L.& .   o 8.j c v x x x x C c v v h x k i J . i I 2 K 4 v fXcXcXcXhXuX!.~ -.&X0X,.cXcXcXcXcXcXcXcXtX",
"tXcXcXcXcXcXcXcXcXB e 0 v =.C.) H   X b.4 R   7.O H H # # 4 K z $ 1 4 G h $ & g a p G p a 2 ~.cXcX;Xo.( c h p p ;.iXcX,.cXcXcXcXcXcXcXcXtX",
"tXcXcXcXcXcXcXcXcXB w 0 l =.cXwX7   X j o . 9 M O  .B.# K 3 ..U # 4 4 I z p 3 Q J z O & A.cXcXcX1X/ 6 k l z H o.vXcXcX,.cXcXcXcXcXcXcXcXtX",
"tXcXcXcXcXcXcXcXcXB w w j C.cXcXvXx / ) [ z ; .   n n . O $ L l o # 1 D i o . l i d #.*XcXcXcXcX=./ | _ X.=.%XcXcXcXcX,.cXcXcXcXcXcXcXcXtX",
"tXcXcXcXcXcXcXcXcXB e , l =.cXcXxX] ] U ' ' / l l l l z L I J G G G G l n ^ x d #.&XqXuXcXcXcXcX%XxXcXcXcXcXcXcXcXcXcX,.cXcXcXcXcXcXcXcXtX",
"tXcXcXcXcXcXcXcXcXB e , m C.cXcXkXJ U a l ..{ l l 4 3 i i 3 p a 1 i @ _ xXcXcXuX.X*X0XcXcXcXcXcXcXcXsX2XcXcXcXcXcXcXcX,.cXcXcXcXcXcXcXcXtX",
"tXcXcXcXcXcXcXcXcXB w > c =.cXcXcX;.I U a ' [ { F / I l ..P P { z k fXcXcXcXkXzX&XcXcXcXcXcXcXcXcXcXG.x.cXcXcXcXcXcXcX,.cXcXcXcXcXcXcXcXtX",
"tXcXcXcXcXcXcXcXcXB w > n =.cXcX XvX;X;XkXo.' / { J D I H U ..D k xXcXcXxXxXoX`.(.hXcXcXcXcXcXcXcXsXg.f.3XcXcXcXcXcXcX,.cXcXcXcXcXcXcXcXtX",
"tXcXcXcXcXcXcXcXcXB e > n =.cXhX3 *XcXcXcX~.U ' ' ..D J { P P a uXcXcXhX}. X].+X-XlXcXcXcXcXcXcXcXc.l.f.k.sXcXcXcXcXcX,.cXcXcXcXcXcXcXcXtX",
"tXcXcXcXcXcXcXcXcXB w 9 m =.cX` # OXvXcXcXxXc ' ..P Q P J  .n N *XcXcXfX+XkXhXOX0XOXkXcXcXcXcXcXH.l.f.f.f.x.jXcXcXcXcX>.cXcXcXcXcXcXcXcXtX",
"tXcXcXcXcXcXcXcXcXB e 0 n =.0Xp a wXqXcXcXcXo.F ..P / } l n.4 >X&XvXcXcXxXcXiX+X}.oX.XcXcXcXcX3Xf.l.f.f.l.f.D.cXcXcXcX,.cXcXcXcXvXcXcXcXtX",
"tXcXcXcXcXcXcXcXcXB w 0 m C : 2 $ xXOXcXcXxX;.( ] J.c } D / D cXdXcXcXcXcXqXhXuXcXvXOXcXcXcX7Xf.f.f.f.f.f.f.f.F.cXcXcX,.cXcXcXvXH.cXcXcXtX",
"tXcXcXcXcXcXcXcXcXB 3.w z & z c i x OXcXcXcX;...H T.J J Q J ( cXcXcXcXiXhXqX`.+XxXqXwXcXcXsXk.f.f.f.l.f.f.l.f.f.3XcXcX,.cXcXcX4Xf.7XcXcXtX",
"tXcXcXcXcXcXcXcXcXB e 9 z & z G D i 1.cXcXcXA. .F ] ' c I ] x cXcXcXzXOX'.`.'.].cX&XcXcXjXx.l.f.f.f.f.f.f.f.f.f.l.7XcX,.cXcX8Xf.f.z.sXcXtX",
"tXcXcXcXcXcXcXcXcXB 3.w j # 4 p 4 C oXcXcXcXwX( { H I J l { a dXcXcXgX.X&X X`.(.qX<XcXcXS.l.f.f.l.f.f.f.f.f.f.f.f.z.vX,.cXsXk.f.f.f.x.jXtX",
"tXcXcXcXcXcXcXcXcXB e 9 l ` k l 4 >XOXcXcXcXlXk J P D [ U D J !.cXcXcXhX X}. XoX,X<XcXsXf.f.l.f.f.f.f.f.l.f.f.f.f.f.3X,.cXz.f.f.f.f.f.S.tX",
"tXcXcXcXcXcXcXcXcXB e , G =.kX4 4 !.=XcXcXcX1Xo . # 2 p P H D _ cXcXcXcXcXdX<X*X=X+XcX6Xl.l.f.f.f.l.f.f.f.f.f.f.f.f.S.,.aXf.f.f.f.f.f.f.yX",
"tXcXcXcXcXcXcXcXcXB r Y ^ wXcX~.# 1.lXcXcXxX4 6.w + .     o o # g v C m v k 4 1 @ O ,X8Xl.l.l.f.f.f.f.k.f.f.f.f.f.l.F.,.jXz.f.f.F.f.f.c.tX",
"tXcXcXcXcXcXcXcXcX! [ _ lXcXcXcX@ @XcXcXcX` 3.u.N.y.s.r.3.9 : + o X . . o o + ; 9 w 7 hXk.l.l.f.f.l.x.H.f.f.f.f.f.f.7X,.cXsX2XaXcX6X3XvXtX",
"tXcXcXcXcXcXcXcXcX#.~.cXcXcXcXcX$.fXcXcX>X< s.fXZ.>XxXrXy.l.y.u.y.y.v.g.f.h.y.N.V.u.e &.8Xk.l.f.l.l.aXjXx.f.f.f.f.H.cX,.cXcXcXcXcXcXcXcXtX",
"tXcXcXcXcXcXcXcXcX,.cXcXcXcXcXcXzXcXcXzX6 a.Z.Z.l.l.y.cXh.f.hX^.^.5XeX^.l.Z.eXN.N.iXg.< 1XjX3XF.H.sXcXcXjX2XF.4XaXcXcX,.cXcXG.z.k.F.cXcXtX",
"tXcXcXcXcXcXcXcXcX>.gXcXcXcXcXcXcXcXcX^ 7.u.fXj.l.l.u.iXf.y.eXl.f.f.g.fXg.y.rXf.l./.V.a.7 lXcXcXcXcXcXcXcXcXcXcXcXcXzX>.cX6Xz.sXjXx.4XcXtX",
"tXcXcXcXcXcXcXcXcXfX$.,.,.,.,.,.,.,.>.* g -.! g 6 4 ! &.d C #.g g g g -.k f ,.k 6 k ,.g * $.,.,.,.,.,.,.,.,.,.,.,.,.$.pXcXF.F.cXcX7X8XcXtX",
"tXcXcXcXcXcXcXcXcXcXcXzXgXgXzXgXgXgXgXgXgXgXgXgXgXgXgXgXgXgXgXgXgXgXgXgXgXgXzXgXgXgXgXgXgXgXgXgXgXgXzXgXzXgXgXzXgXzXcXcXcXF.F.cXcXcXcXcXtX",
"tXcXcXcXcXcXcXcXcXcXcXcXcXcXcXcXcXcXcXcXcXcXcXcXcXcXcXcXcXcXcXcXcXcXcXcXcXcXcXcXcXcXcXcXcXcXcXcXcXcXcXcXcXcXcXcXcXcXcXcXcXF.F.cXcXcXcXcXtX",
"tXcXcXcXcXcXcXcXcXcXcXcXcXcXcXcXcXcXcXcXcXcXcXcXcXcXcXcXcXcXcXcXcXcXcXcXcXcXcXcXcXcXcXcXcXcXcXcXcXcXcXcXcXcXcXcXcXcXcXcXcXF.F.cXcXcXcXcXtX",
"tXcXcXcXcXcXcXcXcXcXcXcXcXcXcXcXcXcXcXcXcXcXcXcXcXcXcXcXcXcXcXcXcXcXcXcXcXcXcXcXcXcXcXcXcXcXcXcXcXcXcXcXcXcXcXcXcXcXcXcXcXS.F.cXcXcXcXcXtX",
"tXcXcXcXcXcXcXcXcXcXcXcXcXcXcXcXcXcXcXcXcXcXcXcXcXcXcXcXcXcXcXcXcXcXcXcXcXcXcXcXcXcXcXcXcXcXcXcXcXcXcXcXcXcXcXcXcXcXcXcXcXF.F.cXcXcXcXcXtX",
"tXcXcXcXcXcXcXcXcXcXcXcXcXcXcXcXcXcXcXcXcXcXcXcXcXcXcXcXcXcXcXcXcXcXcXcXcXcXcXcXcXcXcXcXcXcXcXcXcXcXcXcXcXcXcXcXcXcXcXcXcXF.f.f.6XcXcXcXtX",
"tXcXcXcXcXcXcXcXcXcXcXcXcXcXcXcXcXcXcXcXcXcXcXcXcXcXcXcXcXcXcXcXcXcXcXcXcXcXcXcXcXcXcXcXcXcXcXcXcXcXcXcXcXcXcXcXcXcXcXcXcXcXcXcXcXcXcXcXtX",
"yXcXcXcXcXcXcXcXcXcXcXcXcXcXcXcXcXcXcXcXcXcXcXcXcXcXcXcXcXcXcXcXcXcXcXcXcXcXcXcXcXcXcXcXcXcXcXcXcXcXcXcXcXcXcXcXcXcXcXcXcXcXcXcXcXcXcXcXyX",
"vXyXtXtXtXtXtXtXtXtXtXtXtXtXtXtXtXtXtXtXtXtXtXtXtXtXtXtXtXtXtXtXtXtXtXtXtXtXtXtXtXtXtXtXtXtXtXtXtXtXtXtXtXtXtXtXtXtXtXtXtXtXtXtXtXtXtXyXzX"
};
