/* XPM */
static const char *king_diamonds[] = {
/* columns rows colors chars-per-pixel */
"69 100 232 2 ",
"   c #000100",
".  c #050B04",
"X  c #0B0E05",
"o  c #0C1107",
"O  c #0A1709",
"+  c #131608",
"@  c #161909",
"#  c #1C1C0B",
"$  c #161307",
"%  c #120E06",
"&  c #211E0C",
"*  c #281609",
"=  c #371709",
"-  c #33160A",
";  c #24220E",
":  c #2A270F",
">  c #2E2912",
",  c #2B2612",
"<  c #332C13",
"1  c #392C14",
"2  c #3A3316",
"3  c #3C3519",
"4  c #383617",
"5  c #2E2A10",
"6  c #3B3925",
"7  c #2D2C24",
"8  c #1F2F12",
"9  c #5E0602",
"0  c #560903",
"q  c #4B1708",
"w  c #4C190F",
"e  c #441709",
"r  c #581809",
"t  c #4A1A10",
"y  c #671909",
"u  c #7A1909",
"i  c #5D240D",
"p  c #55260E",
"a  c #5A2B13",
"s  c #433B1C",
"d  c #483817",
"f  c #563519",
"g  c #4C280F",
"h  c #64240D",
"j  c #6F2C14",
"k  c #463A25",
"l  c #513A27",
"z  c #663A24",
"x  c #3C4519",
"c  c #33501E",
"v  c #394236",
"b  c #49471C",
"n  c #544B1E",
"m  c #574C1E",
"M  c #5E591B",
"N  c #52511D",
"B  c #6C6618",
"V  c #4B4422",
"C  c #4D4827",
"Z  c #534C25",
"A  c #5A4E23",
"S  c #544826",
"D  c #5D5224",
"F  c #5C542A",
"G  c #5A572B",
"H  c #594A35",
"J  c #5A5636",
"K  c #4B4439",
"L  c #625B2C",
"P  c #61562A",
"I  c #655D33",
"U  c #69462F",
"Y  c #69662B",
"T  c #76732D",
"R  c #656233",
"E  c #696434",
"W  c #6C6B34",
"Q  c #65633B",
"!  c #6A6B3B",
"~  c #747334",
"^  c #787A38",
"/  c #706F35",
"(  c #3B4B53",
")  c #34516A",
"_  c #595846",
"`  c #4C5451",
"'  c #596859",
"]  c #5C644D",
"[  c #676847",
"{  c #736E48",
"}  c #6A7449",
"|  c #767A46",
" . c #666B58",
".. c #6A7658",
"X. c #757858",
"o. c #706D52",
"O. c #415B66",
"+. c #506B71",
"@. c #666666",
"#. c #696C67",
"$. c #737C65",
"%. c #737373",
"&. c #667A6F",
"*. c #605B41",
"=. c #970E06",
"-. c #871608",
";. c #971507",
":. c #A80C04",
">. c #B60904",
",. c #A51407",
"<. c #832712",
"1. c #C70502",
"2. c #DF0000",
"3. c #D40201",
"4. c #E00707",
"5. c #E10C0C",
"6. c #E21919",
"7. c #E42626",
"8. c #E63838",
"9. c #817F31",
"0. c #E84949",
"q. c #EA5858",
"w. c #EC6666",
"e. c #EE7474",
"r. c #7D833B",
"t. c #7B844A",
"y. c #7B8456",
"u. c #6E855A",
"i. c #7A856A",
"p. c #778A77",
"a. c #708970",
"s. c #5B8179",
"d. c #BAB719",
"f. c #ABA81F",
"g. c #97972B",
"h. c #858735",
"j. c #8B8D30",
"k. c #A39E22",
"l. c #A7A928",
"z. c #B3B322",
"x. c #9DA12D",
"c. c #C5BC14",
"v. c #C8C113",
"b. c #D8CC07",
"n. c #E2D200",
"m. c #85924D",
"M. c #858966",
"N. c #899076",
"B. c #295786",
"V. c #3D759F",
"C. c #24619D",
"Z. c #1156A1",
"A. c #185CA3",
"S. c #1E60A4",
"D. c #2D6AA2",
"F. c #2464A3",
"G. c #326DA1",
"H. c #3671A1",
"J. c #3B74A1",
"K. c #1B5796",
"L. c #457A9E",
"P. c #4A7E9E",
"I. c #40779F",
"U. c #4E778A",
"Y. c #4179A1",
"T. c #4E819D",
"R. c #54849D",
"E. c #5B899C",
"W. c #59879D",
"Q. c #77958A",
"!. c #628E9D",
"~. c #6B949D",
"^. c #66919C",
"/. c #749A9D",
"(. c #7A9E9D",
"). c #779998",
"_. c #6B8886",
"`. c #7DA19D",
"'. c #799DA1",
"]. c #7EA1A2",
"[. c #4E81A1",
"{. c #889B88",
"}. c #8D9E8F",
"|. c #83A49E",
" X c #8BAA9E",
".X c #89A99C",
"XX c #98A996",
"oX c #9AA88F",
"OX c #AAB097",
"+X c #83A5A2",
"@X c #8CABA2",
"#X c #89A8A3",
"$X c #91AEA2",
"%X c #92AFA9",
"&X c #95B1A3",
"*X c #9BB5A4",
"=X c #9AB5AA",
"-X c #9CB6A9",
";X c #A3BBAC",
":X c #A5BAA6",
">X c #A7BDB1",
",X c #B5BDA8",
"<X c #F29797",
"1X c #F08686",
"2X c #F4AAAA",
"3X c #F6B8B8",
"4X c #ACC2AD",
"5X c #ADC2B3",
"6X c #B6C8B9",
"7X c #B5C5AD",
"8X c #C4CFBA",
"9X c #CBCBCB",
"0X c #C3C3C3",
"qX c #CAD7C6",
"wX c #D3DDCC",
"eX c #D6DDD5",
"rX c #F9CFCF",
"tX c #F7C2C2",
"yX c #FADADA",
"uX c #DBE3D4",
"iX c #DCE4D9",
"pX c #D7E0CF",
"aX c #E4EBDD",
"sX c #E5EAD9",
"dX c #EEEEEE",
"fX c #E7ECE2",
"gX c #FCE8E8",
"hX c #EDF1E6",
"jX c #F2F5EC",
"kX c #FFFFFF",
"lX c #F8F7F3",
"zX c #BDCDC0",
/* pixels */
"lX0X9X9X9X9X9X9X9X9X9X9X9X9X9X9X9X9X9X9X9X9X9X9X9X9X9X9X9X9X9X9X9X9X9X9X9X9X9X9X9X9X9X9X9X9X9X9X9X9X9X9X9X9X9X9X9X9X9X9X9X9X9X9X9X9X9X0XlX",
"0XkXkXkXkXkXkXkXkXkXkXkXkXkXkXkXkXkXkXkXkXkXkXkXkXkXkXkXkXkXkXkXkXkXkXkXkXkXkXkXkXkXkXkXkXkXkXkXkXkXkXkXkXkXkXkXkXkXkXkXkXkXkXkXkXkXkXkX0X",
"9X4.rXkXkXrX6.3XkXkXkXkXkXkXkXkXkXkXkXkXkXkXkXkXkXkXkXkXkXkXkXkXkXkXkXkXkXkXkXkXkXkXkXkXkXkXkXkXkXkXkXkXkXkXkXkXkXkXkXkXkXkXkXkXkXkXkXkX9X",
"9X4.rXkXyX6.2XkXkXkXkXkXkXkXkXkXkXkXkXkXkXkXkXkXkXkXkXkXkXkXkXkXkXkXkXkXkXkXkXkXkXkXkXkXkXkXkXkXkXkXkXkXkXkXkXkXkXkXkXkXkXkXkXkXkXkXkXkX9X",
"9X2.rXgX7.<XkXkXkXkXkXkXkXkXkXkXkXkXkXkXkXkXkXkXkXkXkXkXkXkXkXkXkXkXkXkXkXkXkXkXkXkXkXkXkXkXkXkXkXkXkXkXkXkXkXkXkXkXkXkXkXkXkXkXkXkXkXkX9X",
"9X5.3X8.<XkXkXkXkXkXkXkXkXkXkXkXkXkXkXkXkXkXkXkXkXkXkXkXkXkXkXkXkXkXkXkXkXkXkXkXkXkXkXkXkXkXkXkXkXkXkXkXkXkXkXkXkXkXkXkXkXkXkXkXkXkXkXkX9X",
"9X5.7.6.e.kXkXkXkXkXkXkXkXkXkXkXkXkXkXkXkXkXkXkXkXkXkXkXkXkXkXkXkXkXkXkXkXkXkXkXkXkXkXkXkXkXkXkXkXkXkXkXkXkXkXkXkXkXkXkXkXkXkXkXkXkXkXkX9X",
"9X2.<XgX6.2XkXkXkXkXkXkXkXkXkXkXkXkXkXkXkXkXkXkXkXkXkXkXkXkXkXkXkXkXkXkXkXkXkXkXkXkXkXkXkXkXkXkXkXkXkXkXkXkXkXkXkXkXkXkXkXkXkXkXkXkXkXkX9X",
"9X4.rXkX3X5.rXkXkXkXkXkXkXkXkXkXkXkXkXkXkXkXkXkXkXkXkXkXkXkXkXkXkXkXkXkXkXkXkXkXkXkXkXkXkXkXkXkXkXkXkXkXkXkXkXkXkXkXkXkXkXkXkXkXkXkXkXkX9X",
"9X4.rXkXkX<X6.gXkXdX@.@.@.@.@.@.@.@.@.@.@.@.' 7 M M M M M M M M M M M M M M M M M M M M M M M M M D , ' @.@.@.@.@.@.@.fXkXkXkXkXkXkXkXkX9X",
"9X2.rXkXkXkXq.8.lX%.fXkXkXkXkXkXkXgXkXkXkXkXkX .h.n.n.n.c.# 2 n.n.n.d.d.n.n.n.n.n.n.n.n.n.n.n.n.n.~  .kXkXkXkXkXkXkXdX#.kXkXkXkXkXkXkXkX9X",
"9XkXkXkXlXkXkXkXkX%.kXkXkXkXkXkXkX8.kXkXkXkXkXuX> > v.n.G X + k.n.n.o . c.n.b.Y z.n.n.n.n.n.n.n.b.F hXkXkXkXkXkXkXkXhX( kXkXkXkXkXkXkXkX9X",
"9XkXkXkXq.gXkXkXkX%.kXkXkXkXkXkX2X4.<XkXkXkXkXkX#.: . x.  3 + # d.+ ; + j.n.b   ; n.n.G g.n.n.n.I p.kXkXkXkXkXkXkXhX+.J kXkXkXkXkXkXkXkX9X",
"9XkXkX2X2.w.kXkXkX%.kXkXkXkXkXkX8.2.7.kXkXkXkXkXaXG # l.d V s ~ c.+ C . 3 s . ; < n.h.  # n.n.V k kXkXaXpXkXkXkXhXs.r.* kXkXkXkXkXkXkXkX9X",
"9XkXgX6.2.2.2XkXkX%.kXkXkXkXkX2X2.2.2.<XkXkXkXkXkX&.4 > 1 : < 1 V s L C ~ R # ; . Y . < @ v.V o }.kXlX/.`.kXkXhX_.r.i w kXkXkXkXkXkXkXkX9X",
"9XlX7.2.2.2.2.3XkX%.kXkXkXkXlX6.2.4.2.6.gXkXkXkXkX5X: w r q = = * $ @ # < : b 1 s g.$ d . j.. J kXkX%XXXJ kXkX).x.h 2.w kXkXkXkXkXkXkXkX9X",
"9X8.2.2.2.2.4.5.gX%.kXkXkXkXe.2.2.2.2.2.q.kXkXkXkXlX6 * = = = * * * = q q o # # C A s k 3 C 4 wXkXpX-Xu.b N.kXQ.~ 1.4.q kXkXkXkXkXkXkXkX9X",
"9XgX6.2.2.2.2.2XkX%.kXkXkX2X2.2.2.2.2.2.2.<XkXkXkXkX:Xk z z S U j j r 0 * - 9 e $   # # o + V kXkX*XQ.R F A N.Q.^ >.4.w kXkXkXkXkXkXkXkX9X",
"9XkXrX6.2.2.<XkXkX%.kXkX3X2.2.2.2.2.2.2.2.2.2XkXkXkXaX-XqX%X>XlXkXkX|._ z y q * - y y q e e k kXkX&Xy.N G z.] +.~ >.4.w kXkXkXkXkXkXkXkX9X",
"9XkXkX<X2.0.kXkXkX%.kXtX5.2.2.2.2.2.2.2.2.2.4.3XkXkXkX|.^.W.R.J./.kXqX|.).~._ j u y y r y y J kXkX+X} R D j.,X_.~ 1.4.q kXkXkXkXkXkXkXkX9X",
"9XkXkXkX8.yXkXkXkX%.lX6.2.2.2.2.2.2.2.2.2.2.2.6.gXkXkX+X>X^.W.&X@X.XkX&X|.(.!.|.~.+.K K K _ jXkXkX+X} n G h.,Xa.~ >.4.w kXkXkXkXkXkXkXkX9X",
"9XkXkXkXgXkXkXkXkX%.kXyX6.2.2.2.2.4.2.2.4.2.6.rXkXkXjX].@XF.F.G.!.uXkX:X:X&X|.|.@X$X~.(.`. XjXkXkX X} D D z.X.&.W >.2.w kXkXkXkXkXkXkXkX9X",
"9XkXkXkXkXkXkXkXkX%.kXkXyX6.2.2.2.2.2.2.2.6.tXkXkXkX&XwX6XD.W.].+XsXkX:X:X*X$X X&X*X X*X.X X5XkXkX#X..D m P *.+.W 1.2.w kXkXkXkXkXkXkXkX9X",
"9XkXkXkXkXkXkXkXkX%.kXkXkXtX2.2.2.2.2.2.2.2XkXkXkXkX/.kXkX=X6XkXkXkXkXhX X|. X|.$X:X*X*X&X@X*XkXkX-X{.! A F kXa.Y >.2.w kXkXkXkXkXkXkXkX9X",
"9XkXkXkXkXkXkXkXkX%.kXkXkXkX1X2.4.2.2.2.e.kXkXkXkXqX%X6XlX;XkXkXkXkXkXkX&X*X&X|. X*X4X`. X`.$XjXkXlX).X.m hXkXa.Y >.2.w kXkXkXkXkXkXkXkX9X",
"9XkXkXkXkXkXkXkXkX%.kXkXkXkXkX7.2.2.4.6.lXkXkXkXkX6XP.R.L.&XkX4XjXkXkXkX-X X*X X$X-X*X&X-X X|.-XkXkXqX).$.kXkX&.W >.2.w kXkXkXkXkXkXkXkX9X",
"9XkXkXkXkXkXkXkXkX%.kXkXkXkXkX3X2.2.2.2XkXkXkXkXkXkXiX+XE.V.>XqX=XkXkXkXsX`.|. X@X*X&X*X$X&X|..XkXkXkX;XfXkXkX$.Y >.2.w kXkXkXkXkXkXkXkX9X",
"9XkXkXkXkXkXkXkXkX%.kXkXkXkXkXkX0.2.8.kXkXkXkXkXkXkXkXI.V.E.E.E.fXkXkXlXkX X X&X|. X:X*X`..X`./.hXkXkXkXkXkXkX$.R :.2.w kXkXkXkXkXkXkXkX9X",
"9XkXkXkXkXkXkXkXkX%.kXkXkXkXkXkX3X2.2XkXkXkXkXkXkXkXkX/.qX%X7XkXkXkXqX!.W.!.$X#X+X@X&X&X|.@X|.`.6XkXkXkXkXkXkX$.L :.2.w kXkXkXkXkXkXkXkX9X",
"9XkXkXkXkXkXkXkXlX%.kXkXkXkXkXkXkXq.kXkXkXkXkXlXaXkXkX|.lXkXkXjXqXuX(.(.&X|. X|.|.|.&X@X|. X+X/.;XkXkXkXkXkXkXX.L :.2.w kXkXkXkXkXkXkXkX9X",
"9XkXkXkXkXkXkXkXkX%.fX~.W.>XkXkXkXlXkXkXkXkXjX!.P. X+X-X:X4X*X*X$X&XU.{.*X/.`.|.`.|.`.`.`.|.|.~.qXkXkXkXkXkXkXX.G ,.2.w kXkXkXkXkXkXkXkX9X",
"9XkXkXkXkXkXkXkXkX%.W.@X/.@XuXhXqXkXkXkXkXkX;X~.+XR.|.@X X|.&X*X#X&.<.;.k T.T.R.P.T.R.E.E.R.R.[.E.E.+. .3 [ kXo.L =.2.w kXkXkXkXkXkXkXkX0X",
"9XkXkXkXkXkXkXkXkX%. XE.@X=X/.J.~.kXkXkXkXuXP.^.!.!.(.$X|.-X&X`.` ,.2.:.o.p.s.a.a.......] ..i. .:XN.r.4     _ o.G =.2.w kXkXkXkXkXkXkXkX9X",
"9XkXkXkXkXkXkXkXkX#.L.~.=X/.%X&XR.kXkXjX~.F.Z.A.S./.+XE.).R.+.z 3.4.3.l }.R 1 k.: v.# W L > G I oXt.2       . 2 D =.2.w kXkXkXkXkXkXkXkX9X",
"9XkXkXkXkXkXkXkXkX%.R.%X+X*XJ.sX`.lXN._  .zXZ.W.6XA.P.+.} D L j 4.>.f :Xt.T o h.# f.; D ^ > I OXt.Q 3           : =.2.w kXkXkXkXkXkXkXkX9X",
"9XkXkXkXkXkXkXkXkX%.|.=X4XW.^.kX|.< . @ j.}.W.R.aXA.G.uX^ L W P y H OXm.@ D L h a a 1 n V A N.X.L r  .#           q 2.t kXkXkXkXkXkXkXkX9X",
"9XkXkXkXkXkXkXkXkX%. XaXhX6XqXC .       s } aXS.A.F.Z.uX| E P Q ,Xi.! L n d ,.2.2.2.h < < o.i.^ ;.2.h N.X           r t kXkXkXkXkXkXkXkX9X",
"9XkXkXkXkXkXkXkXkX%.hX/.jX_ o         X 3 j.i.'.S.lXP.~.i.g.X.p.} G b 5 L ;.2.2.2.:.b A A OXj.V -.2.2.g o.            * kXkXkXkXkXkXkXkX9X",
"9XkXkXkXkXkXkXkXkX%.kX+.&         @ H $.F Z | wXF.+XH.G.qXh.F F Y . c.f >.2.2.2.4.h @ 2 { u.2 s s >.4.1.l 6           % kXkXkXkXkXkXkXkX9X",
"9XkXkXkXkXkXkXkXkX` < .     . , $.[ ] A m d T X.W.Z.D.A.sX| R o g.A j 3.2.2.2.2.=.n L P {.j.5 X R g 2.2.,.[ &         X kXkXkXkXkXkXkXkX9X",
"9XkXkXkXkXkXkXkXkX.     + k _.T.' F h.n b >.f | 6XF.kXV.=XX.R A j 3.2.2.2.4.2.4.i # 2 { y.4 b l.# T y 4.4.u M.o       % kXkXkXkXkXkXkXkX9X",
"9XkXkXkXkXkXkXkXkX. & _ _ l ~.Q.l.n R R p =.( r.M.D.L.A.!.y.Z >.4.4.2.2.2.2.2.1.d m m oXr.; V < b @ Y -.4.4.i i..     o kXkXkXkXkXkXkXkX9X",
"9XkXkXkXkXkXkXkXkX7 z ;.:.[ |.t.R l.R n >.g Z.] t.!.F.L.V.X.! :.2.3.2.2.2.2.4.y 2 # Q M.I g.X . Y   < V >.2.3.l H     % kXkXkXkXkXkXkXkX9X",
"9XkXkXkXkXkXkXkXkX0 4.3.z ).&.j.m R b h ,.( J.` t.;XP.uXF.N.^ q u -.=.=.=.-.u g L Z o.y.J J T . r.C Z F g 3.2.>._ >   o kXkXkXkXkXkXkXkX9X",
"9XkXkXkXkXkXkXkXkX9 2.u `.p.l.P W ! 3 1.g D.aXB.t.N.S.F.Z.OX! .               O L D oXt.` ) ! b s < + . T i 2.2.-.$.o $ kXkXkXkXkXkXkXkX9X",
"9XkXkXkXkXkXkXkXkX9 h Q.Q.m.P W G b -.=.) ;XkXD.} y.G.-XV.4XR O                 > ! oX^ ) D.` j.2 L < X + T u 2.1.* -.t kXkXkXkXkXkXkXkX9X",
"9XkXkXkXkXkXkXkXkX* _.Q.t.W m W F f 3.k L.lXfXR.' y.T.W.D.7XE .                   3 i.W A.aXV.H l.# # Z d < l = q 1.p ; kXkXkXkXkXkXkXkX9X",
"9XkXkXkXkXkXkXkXkX( ).m.Y D ~ P x >.h C.hX!.#X'.O.t.^.G.S.4XE .   & ; o     # & ; 6 y.[ F.kXfXC.F j.o R L @ 5 -.:.1 b C kXkXkXkXkXkXkXkX9X",
"9XkXkXkXkXkXkXkXkXv m.W D W D x ;.-.) 5X>XZ.^.=X) t.'.'.W.;XE O . v.n.b   @ { P.S.V.X.[ D.jX'.qXB.I F @ @ 5 :.u 4 m R 6 kXkXkXkXkXkXkXkX9X",
"9XkXkXkXkXkXkXkXkXC D L T ! x -.=.d A.jXJ.Z.W.5XO.t.+XA.Z.XX! G T k ; L L A | U.qXI.y.[ V.wXZ.;X%XO.~ 2 X 1.r x E L l.6 kXkXkXkXkXkXkXkX9X",
"9XkXkXkXkXkXkXkXkX, G R n x -.;.. W ` R.wXA.[.zX) | #X~.T.M.R v.n.;   Z n.R m.H.V.I.y.Q V.wXZ.A.iX!.H d >.i n D h.n R G kXkXkXkXkXkXkXkX9X",
"9XkXkXkXkXkXkXkXkX4 L P x =.=.>   + r.) #X;X!.5XO.| %XD.F.X.A X + v.v.F X s M.I.`.I.X.Q G.iXZ.A.eXR.K =.y b R R Y ^ ! K kXkXkXkXkXkXkXkX9X",
"9XkXkXkXkXkXkXkXkX4 c d >.y X A @ C : Q B.6XjX%XO.^ (.` ( d :     Z Y >   s N.I.`.D.y.! C.kXS.`.;X) ;.u b m ^ m j.[ Q.` kXkXkXkXkXkXkXkX9X",
"9XkXkXkXkXkXkXkXkX# u 3.q 1 Y + k.s . V _ F.fX^.+.[ ..+                   s M.H.V.S.M.r.K.aX).aXS.h >.x R R ! j.! (.XX< kXkXkXkXkXkXkXkX9X",
"9XkXkXkXkXkXkXkXkX0 -.- 3.>.A 3 . > Y # ~ _ J.H.' [ ..j..                 s y.L.jXH.OXh.) 4XkXL.l 3.d n E m h.! ).N.<.w kXkXkXkXkXkXkXkX9X",
"9XkXkXkXkXkXkXkXkXX , i 3.4.-.9.#   . r.@ ^ ( Z.} } ..n.d                 s X.P.D.Z.=X| ` E.5X) =.h D F h.W | Q.}.;.2.w kXkXkXkXkXkXkXkX9X",
"9XkXkXkXkXkXkXkXkX  . [ -.2.2.h g.< b j.; , ! ) h.X.F D m $ * * - = = - * d y.W.R.W.E.m.] S.S.a >.x L I Z g.i.+Xj 4.2.t kXkXkXkXkXkXkXkX9X",
"9XkXkXkXkXkXkXkXkX    + I >.2.2.a T % @ 2   V F ^ XXJ o d 3.4.2.2.2.4.4.2.d y.+XP.#XF.M.9.B.) :.i D W ~ g.{ /.U 3.,.j 7 kXkXkXkXkXkXkXkX9X",
"9XkXkXkXkXkXkXkXkX      > l 3.2.>.A b o S $ ; F { [ D m p 2.2.2.2.2.2.4.4.f | 8XZ.D.Z.,Xt.O.j >.4 ^ L I ^ ).p.t f [ 1 $ kXkXkXkXkXkXkXkX9X",
"9XkXkXkXkXkXkXkXkX        H i 2.4.;.T 5 V h.# T X...# V -.2.4.4.2.2.2.>.h d ^ sXS.iXP.^.X.! -.p b L A x.] I.&.o.& .   % kXkXkXkXkXkXkXkX9X",
"9XkXkXkXkXkXkXkXkX        . [ -.4.4.y g.+ & S / {.D m f 3.4.4.4.3.1.i L s < l.oXH.P.D.F.OXj.i 8 ~ ~ A I Q.C @       > ` kXkXkXkXkXkXkXkX9X",
"9XkXkXkXkXkXkXkXkX          + J :.3.4.a j.. Y { ..& C -.2.2.4.4.-.S s ; A 2 j.M.^.Z.R.A.=X| Z c Z G o.< .       # i.kX%.kXkXkXkXkXkXkXkX9X",
"9XkXkXkXkXkXkXkXkXX           , f 3.4.>.b P / }.P b d 2.2.2.2.i C & Y s ^ I L | 6XS.kX+XG.oXh.F _ &         X _ %X5XkX%.kXkXkXkXkXkXkXkX9X",
"9XkXkXkXkXkXkXkXkX= .           H y 4.4.g h.M.] 5 L u 4.2.2.i W Y < ~ { ,X .P ^ uXD.H.G.Z.5X{ h.O       . 6 :XhXkX`.kX%.kXkXkXkXkXkXkXkX9X",
"9XkXkXkXkXkXkXkXkX9 ;.X         . [ -.u ~ {  .G b 1 r y r p k.X b ^ oXH f E I c.i.#XZ.~.!.H.8X9.s   . , XXkXL. X8X-X6X%.kXkXkXkXkXkXkXkX9X",
"9XkXkXkXkXkXkXkXkX9 2.g O         + H S ! {.Q V W R C r.b Y 5 j.{ OXj 1.<.! W ~ [ fXS.>XkXF.@XX.~ s $.+XdX+XP.-X-XT.$X%.kXkXkXkXkXkXkXkX9X",
"0XkXkXkXkXkXkXkXkX9 2.p L @         Z E oXX.# 2 R 2 , V # T $ | 8Xu 4.4.:.n m J &.J.!.F.P.Z.A./.[ aXkX0X%X~.uX;XE.=X^.%.kXkXkXkXkXkXkXkX9X",
"9XkXkXkXkXkXkXkXkX9 2.i R XX#     1 W OX' Q [ D I Q Q Q Q E R OXz 2.4.-.K !. X:X-X`.$X@X~.H.H.6XkXkXkX6XW.T.6XW.-X6X/.%.kXkXkXkXkXkXkXkX9X",
"9XkXkXkXkXkXkXkXkX9 2.i E aX6X& 8 P #.].].].].]./.].'.].'.`.'.` u 3.u &.`.&X;X:X`.@XT./.~./.kXkXkXkXkXqX`.kX(.5X5XT.#X%.kXkXkXkXkXkXkXkX9X",
"9XkXkXkXkXkXkXkXkX9 2.i I aXkXhX8XqXeXuX~.R.E.E.^.^.!.~.~.^.'.@Xa.f {. X&X4X&X*X:X|.W.!./.+XkXkXkXkXkXkXkXkXiX!.P.~.lX%.kXkXkXkXkXkXkXkX9X",
"9XkXkXkXkXkXkXkXkX9 4.i E hXkXkXkXkXkXkX+X@X@X$X&X@X@X|.|.].+X`.;X(.aXlXjXaXlXkXpX$XkX6X;XkXkXkXkXkXkX2XkXkXkXkXkXlXkX%.kXkXkXkXkXkXkXkX9X",
"9XkXkXkXkXkXkXkXkX9 4.h I hXkXkXkXkXkXkX`.+X&X&X@X-X@X X`.`.].E.W.|.kXkXkXkX>XkX-XhXkXkXkXkXkXkXkXkXgX5.gXkXkXkXkXkXkX%.kXkXkXkXkXkXkXkX9X",
"9XkXkXkXkXkXkXkXkX9 2.i E hXkXkXkXkXkXkX(.$X|.&X$X*X&X X|.|.#X7XqXkXkXkXsX>XW.D.F.iXkXkXkXkXkXkXkXkXe.2.1XkXkXkXkXkXkX%.kXkXkXkXkXkXkXkX9X",
"9XkXkXkXkXkXkXkXkX9 2.i R hXkXkXwXkXkXkX-X|. X X&X:X$X$X X@X&X%XkXkXkXkXE.].D.H.|.5XkXkXkXkXkXkXkXgX5.2.6.gXkXkXkXkXkX%.kXkXkXkXkXkXkXkX9X",
"9XkXkXkXkXkXkXkXkX9 2.i Q hXkXjXP.5XkXkXjX X|. X/.*X X$X@X@X*X&XkXkXkXkX/.qXjX[.^.L.aXkXkXkXkXkXkXq.2.2.2.e.kXkXkXkXkX%.kXkXkXkXkXkXkXkX9X",
"9XkXkXkXkXkXkXkXkX9 2.i E fXkXXX] XXuXkXkX*X*X&X X&X&X.X X|. X XlXkXkXkXkXkXuX&X;X>X|.kXkXkXkXkXtX2.2.2.2.4.rXkXkXkXkX%.kXkXkXkXkXkXkXkX9X",
"9XkXkXkXkXkXkXkXkX9 4.r E fXlX] F { &XkXkX7X X*X&X*X*X@X&X X$X X5XkXkXkXkX5XiXjXkXeX&XkXkXkXkXgX7.2.2.2.2.2.7.lXkXkXkX%.kXkXkXkXkXkXkXkX9X",
"9XkXkXkXkXkXkXkXkX9 4.i E 8X' n R ! &XjXkXlX&X X|.|.&X|. X|.&X&X-XkXkXkXlX=XF./.kX|.lXkXkXkXkX0.2.2.2.2.4.2.2.q.kXkXkX%.kXkXkXkXkXkXkXkX9X",
"9XkXkXkXkXkXkXkXkX9 2.i Q W.r.Y P I i.4XkXkX*X$X$X.X$X`.`.`.`.|.&XkXkX/.S.H.S.&XlX`.kXkXkXkXq.4.2.2.2.4.2.2.2.4.w.kXkX%.kXkXkXkXgXkXkXkX9X",
"9XkXkXkXkXkXkXkXkX9 4.i Q hXy.R P R { &XkXkX X!.T.E.`.`.~.`./.`.`.wXqX4X^.H.H.J.5XqXkXkXkXq.4.4.2.2.2.2.2.2.2.2.2.w.kX%.kXkXkXrX0.kXkXkX9X",
"9XkXkXkXkXkXkXkXkX9 2.h W hXi.R P Y X.&XkXkXz y y y y j U +.E.+X@X&XlX~.T.~.^.-X6X5XkXkXlX0.4.4.2.2.2.2.2.2.2.2.4.0.lX%.kXkXkX8.2.2XkXkX9X",
"9XkXkXkXkXkXkXkXkX9 2.i Q ;Xu.I L W X.>XkXqX: q y r q $ & e u ` U./.kXkXuX~.T.[.6X$XkXkXkXkX0.4.4.2.2.2.2.2.2.2.q.kXkX%.kXkX1X2.2.6.gXkX9X",
"9XkXkXkXkXkXkXkXkX9 2.i Q $XI A P I p.sXkX>X# .   $ o $ q r * * r <.U  .*XwXsXiX6X/.kXkXkXkXlX8.2.2.2.4.2.2.2.0.kXkXkX%.kX<X2.2.2.2.7.gX9X",
"9XkXkXkXkXkXkXkXkX9 2.a Q lX,XJ m ! $XkXkXQ.d V C G G 3 & X # w r - * = = q u y w : fXkXkXkXkXgX6.2.2.2.2.2.6.gXkXkXkX%.yX4.2.2.2.2.3.0.9X",
"9XkXkXkXkXkXkXkXkX9 2.g E kXkXX.P p.qXkXhXF @ ~ O R : Y G C b # X X * r y r r e q * p.kXkXkXkXkX2X2.2.2.2.2.tXkXkXkXkX%.kX2X2.4.2.2.8.lX9X",
"9XkXkXkXkXkXkXkXkX9 r Y I kXkXhXU.7XkXkX' +   R + V   W . k < Z Z 3 < ; ; o X o # # k kXkXkXkXkXkXq.2.2.2.w.kXkXkXkXkX%.kXkX<X2.2.7.gXkX9X",
"9XkXkXkXkXkXkXkXkX* ~ I kXkXkXkXqXkXkXqX> < d.b.. . Z d.o D   G 1 # V < Z Z V G G G 2 6XkXkXkXkXkXyX4.2.2.gXkXkXkXkXkX%.kXkXkX0.4.3XkXkX9X",
"9XkXkXkXkXkXkXkXkX3 I lXkXkXkXkXkXkXkX' l.n.n.n.5 2 n.b.X . F c.: , # o n.# ; + + Z   K kXkXkXkXkXkXw.2.e.kXkXkXkXkXkX%.kXkXkXyXq.kXkXkX9X",
"9XkXkXkXkXkXkXkXkX< lXkXkXkXkXkXkXkX&X} n.n.n.n.n.n.n.n.Y Y n.n.T   & h.n.< # @ 3 d.< . N.kXkXkXkXkXyX5.gXkXkXkXkXkXkX%.kXkXkXkXlXkXkXkX9X",
"9XkXkXkXkXkXkXkXkX#.dXkXkXkXkXkXkXdX] b.n.n.n.n.n.n.n.n.n.n.n.n.c.< Y n.n.d.. @ n.n.n.V ` lXkXkXkXkXkX<XkXkXkXkXkXkXdX#.kX8.q.kXkXkXrX4.9X",
"9XkXkXkXkXkXkXkXkXiX' %.%.%.%.%.%.` k Y B Y Y B Y B B B B B B B B B B B B B b N B B B B 6 ` %.%.%.%.%.%.%.%.%.%.%.%.' eXkXgX6.<XkXkXrX4.9X",
"9XkXkXkXkXkXkXkXkXkXkXdXdXdXlXdXdXdXdXdXdXjXdXdXjXdXdXdXdXdXdXdXdXdXdXdXdXdXdXdXdXdXdXdXdXdXdXdXdXdXlXdXlXdXdXdXdXdXkXkXkXkXrX4.tXkXrX4.9X",
"9XkXkXkXkXkXkXkXkXkXkXkXkXkXkXkXkXkXkXkXkXkXkXkXkXkXkXkXkXkXkXkXkXkXkXkXkXkXkXkXkXkXkXkXkXkXkXkXkXkXkXkXkXkXkXkXkXkXkXkXkXkXkX2X6.gX2X2.9X",
"9XkXkXkXkXkXkXkXkXkXkXkXkXkXkXkXkXkXkXkXkXkXkXkXkXkXkXkXkXkXkXkXkXkXkXkXkXkXkXkXkXkXkXkXkXkXkXkXkXkXkXkXkXkXkXkXkXkXkXkXkXkXkXkXe.6.6.5.9X",
"9XkXkXkXkXkXkXkXkXkXkXkXkXkXkXkXkXkXkXkXkXkXkXkXkXkXkXkXkXkXkXkXkXkXkXkXkXkXkXkXkXkXkXkXkXkXkXkXkXkXkXkXkXkXkXkXkXkXkXkXkXkXkXkX<X7.tX2.9X",
"9XkXkXkXkXkXkXkXkXkXkXkXkXkXkXkXkXkXkXkXkXkXkXkXkXkXkXkXkXkXkXkXkXkXkXkXkXkXkXkXkXkXkXkXkXkXkXkXkXkXkXkXkXkXkXkXkXkXkXkXkXkXkX2X7.gXrX2.9X",
"9XkXkXkXkXkXkXkXkXkXkXkXkXkXkXkXkXkXkXkXkXkXkXkXkXkXkXkXkXkXkXkXkXkXkXkXkXkXkXkXkXkXkXkXkXkXkXkXkXkXkXkXkXkXkXkXkXkXkXkXkXkX2X6.yXkXrX4.9X",
"9XkXkXkXkXkXkXkXkXkXkXkXkXkXkXkXkXkXkXkXkXkXkXkXkXkXkXkXkXkXkXkXkXkXkXkXkXkXkXkXkXkXkXkXkXkXkXkXkXkXkXkXkXkXkXkXkXkXkXkXkX3X6.rXkXkXrX4.9X",
"0XkXkXkXkXkXkXkXkXkXkXkXkXkXkXkXkXkXkXkXkXkXkXkXkXkXkXkXkXkXkXkXkXkXkXkXkXkXkXkXkXkXkXkXkXkXkXkXkXkXkXkXkXkXkXkXkXkXkXkXkXkXkXkXkXkXkXkX0X",
"lX0X9X9X9X9X9X9X9X9X9X9X9X9X9X9X9X9X9X9X9X9X9X9X9X9X9X9X9X9X9X9X9X9X9X9X9X9X9X9X9X9X9X9X9X9X9X9X9X9X9X9X9X9X9X9X9X9X9X9X9X9X9X9X9X9X9X0XlX"
};
