/* XPM */
static const char *king_clubs[] = {
/* columns rows colors chars-per-pixel */
"69 100 235 2 ",
"   c #000100",
".  c #050C03",
"X  c #0B0B0B",
"o  c #080F04",
"O  c #0B1406",
"+  c #0E1807",
"@  c #0B1506",
"#  c #131D08",
"$  c #141B08",
"%  c #181818",
"&  c #2F1709",
"*  c #15210A",
"=  c #1B240A",
"-  c #1B2A0C",
";  c #1D300E",
":  c #242A0D",
">  c #2A2D0E",
",  c #24250B",
"<  c #37270B",
"1  c #2D310F",
"2  c #22350F",
"3  c #31330F",
"4  c #292713",
"5  c #2D3210",
"6  c #2C3514",
"7  c #343411",
"8  c #353912",
"9  c #3C3A14",
"0  c #3B3A18",
"q  c #30271A",
"w  c #232323",
"e  c #2C2C2C",
"r  c #393939",
"t  c #2F3727",
"y  c #590B04",
"u  c #49180C",
"i  c #4E0D04",
"p  c #791E08",
"a  c #49280B",
"s  c #56260A",
"d  c #423D14",
"f  c #473A14",
"g  c #503115",
"h  c #69250A",
"j  c #78270B",
"k  c #62330F",
"l  c #663615",
"z  c #783A13",
"x  c #70330F",
"c  c #4D3B2A",
"v  c #3A4917",
"b  c #3B4236",
"n  c #44421B",
"m  c #4B451A",
"M  c #4D4B1D",
"N  c #474415",
"B  c #524B1E",
"V  c #564719",
"C  c #4A551A",
"Z  c #56551B",
"A  c #59561C",
"S  c #654A1A",
"D  c #764A1A",
"F  c #666215",
"G  c #4A4621",
"H  c #494824",
"J  c #534D23",
"K  c #594A24",
"L  c #5B5524",
"P  c #5D5A24",
"I  c #5D5B2A",
"U  c #565328",
"Y  c #595937",
"T  c #4C4E37",
"R  c #674826",
"E  c #625B25",
"W  c #635D29",
"Q  c #685727",
"!  c #745529",
"~  c #6D5734",
"^  c #5C623D",
"/  c #65632C",
"(  c #6A632D",
")  c #67692E",
"_  c #6C6B33",
"`  c #666535",
"'  c #726C34",
"]  c #766539",
"[  c #777738",
"{  c #737331",
"}  c #384E51",
"|  c #4B4B4B",
" . c #444645",
".. c #5A5A5A",
"X. c #4A5946",
"o. c #596648",
"O. c #576B58",
"+. c #676B48",
"@. c #6A775A",
"#. c #767855",
"$. c #6E714A",
"%. c #4D716E",
"&. c #656565",
"*. c #6B6C6C",
"=. c #657A63",
"-. c #737373",
";. c #7B7B7B",
":. c #717E60",
">. c #951B07",
",. c #871907",
"<. c #AD1706",
"1. c #89320D",
"2. c #883A14",
"3. c #912D0D",
"4. c #BA230D",
"5. c #B42A13",
"6. c #AA341A",
"7. c #A6381D",
"8. c #A92C10",
"9. c #A23C20",
"0. c #9A3D21",
"q. c #CA0B03",
"w. c #D50501",
"e. c #DE0100",
"r. c #D40B02",
"t. c #D80802",
"y. c #C81808",
"u. c #D11005",
"i. c #9A4729",
"p. c #925738",
"a. c #864927",
"s. c #817F35",
"d. c #906B4C",
"f. c #788447",
"g. c #6E8773",
"h. c #BCB71E",
"j. c #8B8C35",
"k. c #848538",
"l. c #979834",
"z. c #919131",
"x. c #A29F2C",
"c. c #9EA033",
"v. c #A7A62D",
"b. c #B8B625",
"n. c #AAAC2F",
"m. c #C2BE1C",
"M. c #D9CD0A",
"N. c #DCD105",
"B. c #CAC318",
"V. c #D1C913",
"C. c #E2D200",
"Z. c #9A9679",
"A. c #8E8A6B",
"S. c #94926A",
"D. c #1A5B99",
"F. c #2A658C",
"G. c #396F85",
"H. c #316989",
"J. c #356C86",
"K. c #3D7184",
"L. c #246291",
"P. c #17599C",
"I. c #437682",
"U. c #4B7B82",
"Y. c #467882",
"T. c #507F83",
"R. c #548283",
"E. c #5A8684",
"W. c #5D8884",
"Q. c #628C86",
"!. c #668E87",
"~. c #6C948B",
"^. c #699188",
"/. c #70978C",
"(. c #749A8E",
"). c #799D8F",
"_. c #789987",
"`. c #769C90",
"'. c #7A9E91",
"]. c #7EA193",
"[. c #7FA18D",
"{. c #888888",
"}. c #979797",
"|. c #829A84",
" X c #A39A82",
".X c #82A495",
"XX c #85A699",
"oX c #8BAB9B",
"OX c #88A998",
"+X c #92AD9B",
"@X c #94B19E",
"#X c #9FA081",
"$X c #AEAF98",
"%X c #91AFA1",
"&X c #94B2A1",
"*X c #9AB5A6",
"=X c #9DB9A8",
"-X c #8FAEA2",
";X c #AAAAAA",
":X c #A3A3A3",
">X c #A1BBAB",
",X c #A6BEB0",
"<X c #B9B9B9",
"1X c #B9BCAA",
"2X c #ACC3B4",
"3X c #AFC6B8",
"4X c #B6C9BB",
"5X c #B6C9BA",
"6X c #ADC1AE",
"7X c #C3C5B5",
"8X c #C3C6AF",
"9X c #BBCBC1",
"0X c #BED0C2",
"qX c #C3C3C3",
"wX c #CBCBCB",
"eX c #CDCEC1",
"rX c #C7D5C9",
"tX c #CDDCD2",
"yX c #D4D4D4",
"uX c #D7DDD8",
"iX c #D2D8CB",
"pX c #DAE5DC",
"aX c #D6E3D9",
"sX c #E2E6DE",
"dX c #DEE7E1",
"fX c #E3E4E3",
"gX c #E3EBE4",
"hX c #EDEDED",
"jX c #E7ECE6",
"kX c #ECF1EB",
"lX c #EFF4F1",
"zX c #F3F5F4",
"xX c #FFFFFF",
"cX c #F6F9F8",
"vX c #F0F3EA",
/* pixels */
"cXqXwXwXwXwXwXwXwXwXwXwXwXwXwXwXwXwXwXwXwXwXwXwXwXwXwXwXwXwXwXwXwXwXwXwXwXwXwXwXwXwXwXwXwXwXwXwXwXwXwXwXwXwXwXwXwXwXwXwXwXwXwXwXwXwXwXqXcX",
"qXxXxXxXxXxXxXxXxXxXxXxXxXxXxXxXxXxXxXxXxXxXxXxXxXxXxXxXxXxXxXxXxXxXxXxXxXxXxXxXxXxXxXxXxXxXxXxXxXxXxXxXxXxXxXxXxXxXxXxXxXxXxXxXxXxXxXxXqX",
"wXX qXxXxXfXw }.xXxXxXxXxXxXxXxXxXxXxXxXxXxXxXxXxXxXxXxXxXxXxXxXxXxXxXxXxXxXxXxXxXxXxXxXxXxXxXxXxXxXxXxXxXxXxXxXxXxXxXxXxXxXxXxXxXxXxXxXwX",
"wXX qXxXfXw }.xXxXxXxXxXxXxXxXxXxXxXxXxXxXxXxXxXxXxXxXxXxXxXxXxXxXxXxXxXxXxXxXxXxXxXxXxXxXxXxXxXxXxXxXxXxXxXxXxXxXxXxXxXxXxXxXxXxXxXxXxXwX",
"wXX qXzXe {.xXxXxXxXxXxXxXxXxXxXxXxXxXxXxXxXxXxXxXxXxXxXxXxXxXxXxXxXxXxXxXxXxXxXxXxXxXxXxXxXxXxXxXxXxXxXxXxXxXxXxXxXxXxXxXxXxXxXxXxXxXxXwX",
"wXX <Xr ;.xXxXxXxXxXxXxXxXxXxXxXxXxXxXxXxXxXxXxXxXxXxXxXxXxXxXxXxXxXxXxXxXxXxXxXxXxXxXxXxXxXxXxXxXxXxXxXxXxXxXxXxXxXxXxXxXxXxXxXxXxXxXxXwX",
"wXX % % &.xXxXxXxXxXxXxXxXxXxXxXxXxXxXxXxXxXxXxXxXxXxXxXxXxXxXxXxXxXxXxXxXxXxXxXxXxXxXxXxXxXxXxXxXxXxXxXxXxXxXxXxXxXxXxXxXxXxXxXxXxXxXxXwX",
"wXX }.hXw {.xXxXxXxXxXxXxXxXxXxXxXxXxXxXxXxXxXxXxXxXxXxXxXxXxXxXxXxXxXxXxXxXxXxXxXxXxXxXxXxXxXxXxXxXxXxXxXxXxXxXxXxXxXxXxXxXxXxXxXxXxXxXwX",
"wXX qXxXyXX <XxXxXxXxXxXxXxXxXxXxXxXxXxXxXxXxXxXxXxXxXxXxXxXxXxXxXxXxXxXxXxXxXxXxXxXxXxXxXxXxXxXxXxXxXxXxXxXxXxXxXxXxXxXxXxXxXxXxXxXxXxXwX",
"wXX qXxXxX;XX yXxXjX&.&.&.&.&.&.&.&.&.&.&.&.&.&.e q Z A L A Z L Z A A Z Z A Z Z Z Z Z Z Z Z Z Z Z Z ,  .&.&.&.&.&.&.&.jXxXxXxXxXxXxXxXxXwX",
"wXX qXxXxXxX;.w hX-.jXxXxXxXxXxXxXxXxXxXxXxXxXxX2XY N.C.N.C.M.0 j.C.C.C.h.= / C.C.C.C.B v.C.C.C.C.k.I xXxXxXxXxXxXxXjX*.xXxXxXxXxXxXxXxXwX",
"wXxXxXxXxXxXxXxXxX-.xXxXxXxXxXxXcXqX;XyXxXxXxXxXcXO.= b.N.C.L   $ k.C.M.7   + z.C.h.9   7 C.C.C.k.v 2XxXxXxXxXxXxXxXxX-.xXxXxXxXxXxXxXxXwX",
"wXxXxXqX*.}.xXxXxX-.xXxXxXxXxXwXw       c hXxXxXxX4X- o > M.O : O 7 C.c.  m . J C.J   * . c.V.5 O v xXxXxXxXxXxXxXxXxX-.xXxXxXxXxXxXxXxXwX",
"wXxXhXX     :XxXxX-.xXxXxXxXcX%            .xXxXxXxXo.+ J U 3 N V 9 = : 8 E 9 5 # 7 1 L 7 ( j.. - sXxXxXxXxXxXxXxXxXxX-.xXxXxXxXxXxXxXxXwX",
"wXxXfX      {.xXxX-.xXxXxXxX:X              fXxXxXxXrXv 5 # 0 = = L > 9 N   7 m : 7 B * J $ = 2 #.xXxXxXxXxXxXxXxXxXxX-.xXxXxXxXxXxXxXxXwX",
"wXfX}.r   X }.qXxX-.xXxXxXxX{.              qXxXxXxXxXo.# : @   O $ < > $ $ $ < g 3 O   + 7 7 8 xXxXxXxXxXxXxXzX2XxXxX-.xXxXxXxXxXxXxXcXwX",
"<X%             ;X-.xXxXxXxXqX            X zXxXxXxXxXtX> p ,.p a a < a < < a a < u j >.>.h + 1XxXxXxXxXxXxX3XE.U.^.kX-.xXxXxXxXxXxXxXxXwX",
":X      X       ;.-.xXxXxXxXxX .          {.xXxXxXxXxXxXO.> 6 H T %.E.E.Q.W.W.W.%.%. .r 7 7 T xXxXxXxXxXxXxX(.4XY.W./.-.xXxXxXxXxXxXxXxXwX",
"wX .  r | {.  % yX-.xXcX}.| | &.%       w &. ...<XxXxXxX>XK.U.U.R.kXxXoXK.I.R./.^.].].'.^.T.=XxXxXxXxXxXxXcX@X3XU.&X(.-.xXxXxXxXxXxXxXxXwX",
"wXxXjXzX% <XhXxXxX-.cXr                           -.xXxX].I.`.^.XX`.xXrXoX~./.~.R.].-XoXoX'..XxXxXxXxXxXxXcX@X2XQ././.-.xXxXxXxXxXxXxXxXwX",
"wXxXxXhXwXuXxXxXxX-.}.                              yXW./.K.F.D.H.R.xX'.K.D.L.K.I.XX%XOX%XXX'.xXxXxXxXxXxXcXoX3XU.!.~.-.xXxXxXxXxXxXxXxXwX",
"wXxXxXxXxXxXxXxXxX-.|                               }.W.(.J.U.I.K.R.xXaXF.R.R.~.W.XX&XOX-XXX].xXxXxXxXxXxXcX@X,XU.oX(.-.xXxXxXxXxXxXxXxXwX",
"wXxXxXxXxXxXxXxXxX-...                              }.gXaXW.xXlX=X].xXcX4XtXxXxX*XOXOXOXoXXX.XxXxXxXxXxXxXzX&X=XT.'.(.-.xXxXxXxXxXxXxXxXwX",
"wXxXxXxXxXxXxXxXxX-.;X            -.X &.          . 4X%X/.R.xXxX=X4X4X6X(.xXxXcX2X%X'.oXXX.X.XxXxXxXxXxXxXkX&X=X~.E./.-.xXxXxXxXxXxXxXxXwX",
"wXxXxXxXxXxXxXxXxX-.xX..        *.<X  jXr         }./.oX].Y.4X].=XU.G.R.*XuX~.xX0X&X^.OX].XX].xXxXxXxXxXxXvX&X=XU.OX(.-.xXxXxXxXxXxXxXxXwX",
"wXxXxXxXxXxXxXxXxX-.xXxX;X..&.<XxX{.  qXxX}...*.qXxX=X/.`.]./.0X^.!.=XQ.U..XW.xXdX&X~.].`.].].gXxXxXxXxXxXkX%X3XI..X~.-.xXxXxXxXxXxXxXxXwX",
"wXxXxXxXxXxXxXxXxX-.xXxXxXxXxXxXcXe   &.xXxXxXxXxXxXxXxX2X%.%XK.R.^.W.~.^.E.&XuX4XXX].XX`.`.W.K.U./.gXxXxXjX@X0XW.W./.-.xXxXxXxXxXxXxXxXwX",
"wXxXxXxXxXxXxXxXxX-.xXxXxXxXxXxX}.w w w wXxXxXxXxXzX^.I.R.Y.%XxX.XU.Y.U.E.xX2X].XXQ.].~.U.J.K.Q.).].).xXxXjX%X4XU.^.(.-.xXxXxXxXxXxXxXxXwX",
"wXxXxXxXxXxXxXxXxX-.xXxXxXxXxXxXxXxXxXxXxXxXxXxXxX).&X=XY.^.-XaXjXpXg.9XlX2X].W.I.T./.W.(.!.`.OX(.oX].xXxXsXoX3XU.&X(.-.xXxXxXxXxXxXxXxXwX",
"wXxXxXxXxXxXxXxXxX-.xXxXxXxXxXxXxXxXxXxXxXxXxXxXzXE.&X`.'.(.&XoX>X=X2.:.].].].I.>X(.].'.~.]./.].~.%.Y 4XxXgXOX6X(.Q.~.-.xXxXxXxXxXxXxXxXwX",
"wXxXxXxXxXxXxXxXxX-.xXxXxXxXxXxXxXxXxXxXxXxXrXT = @ o.~./.oX=X].(.X., 2._.`.(.I.!./.U oX/.&XQ.%.R <.e.8.~ 4XXXqXT./.(.-.xXxXxXxXxXxXxXxXwX",
"wXxXxXxXxXxXxXxXxX-.xXxXxXxXxXxXxXxXxXxX@X0 @       o 8 T O.O. .o..   @ g =.~.`.~.` s 1 g.T ^ v r.u.9.w.t.k g.gXI.OX(.-.xXxXxXxXxXxXxXxXwX",
"wXxXxXxXxXxXxXxXxX-.xXxXxXxXxXxXxXxXoX!.g.:           @         9 N o     , z l x ,     . d [ 1.i.d.xX8.e.f ' cXW.^./.-.xXxXxXxXxXxXxXxXwX",
"wXxXxXxXxXxXxXxXxX-.xXxXxXxXxXxX@XW.&XxXG.pX+.@     . $X#         C b.;     @ a o     - j.L Z y.xXxX7X4.j #.$.vXU.W./.-.xXxXxXxXxXxXxXxXwX",
"wXxXxXxXxXxXxXxXxX-.xXxXxXxXtXX.].xXxX*XP.`.xXiX:     # : G J U * * z.I U .       o B A ' C 1.e.y.S.cX] l 0 ` rXT.(./.-.xXxXxXxXxXxXxXxXwX",
"wXxXxXxXxXxXxXxXxX-.xXxXxX(.: $ pX@XxX3XK.>XxX].*X0     = 8 @ . J $ A L N.Z =   : A n.Z k.S e.e.u.4.y.k s.. Y =XT.*X/.-.xXxXxXxXxXxXxXxXwX",
"wXxXxXxXxXxXxXxXxX-.xX4XR ~ + $ ).I.xXxXxXxXxXU.R.xXm   , 1 U * o J 5 j.E A N.Z V.Z _ V.( 1.e.e.e.e.<.R >   ` 4X'.Q.~.-.xXxXxXxXxXxXxXxXwX",
"wXxXxXxXxXxXxXxXxX-.A.2.e.] + $ Y.L.hXxXxX5XZ.Y.I.xXxX0 . G U .   J + ( M.W / L _ j.c.E Z t.5.5.r.e.j s.    Y jXY.'./.-.xXxXxXxXxXxXxXxXwX",
"wXxXxXxXxXxXxXxXxXq <.6.e.! # + rXoXxXxX$XE B A.kXxXxXtX>     =   H o J ( l.j./ M._ ) V.D 8.5.9.9.q.R :     ^ xXU.OX~.-.xXxXxXxXxXxXxXxXwX",
"wXxXxXxXxXxXxXxXxXy 7.zX4.! + + xXxXkXM 1 * o 9 L A.cXY.yX+ O pX- Z.  = B._ _ j.( l.z.S 3.6.A.sX9.p z.X     ^ xXR.Q.^.-.xXxXxXxXxXxXxXxXwX",
"wXxXxXxXxXxXxXxXxXy sXsXZ.! + $ xXgXxX] :     # _ xX.XD.lXd   8 0 A.  . / [ v.' M.( ' Q t.4.6.6.6.l M       +.xXY././.-.xXxXxXxXxXxXxXxXwX",
"wXxXxXxXxXxXxXxXxXy t.6.e.! @ $ dXU.xX` 8 .   1 m cX`.F.iXa.$ : 7 Z.+   / [ E [ / n.[ V e.e.r.y.q.K =   . @ o.|...+.=.-.xXxXxXxXxXxXxXxXwX",
"wXxXxXxXxXxXxXxXxXy e.e.e.R $ + /.D.9 . f.1 8 f.@ , jXkXxXa.h + : A.$.o 7 _ B.[ m.F s.z e.e.e.e.p j.o   , b.$.j.v.n.k.t xXxXxXxXxXxXxXxXwX",
"wXxXxXxXxXxXxXxXxXy t.6.e.! + $ ,Xb   . f.@ . S.O   9 xXxXa.e.  * :     : l./ / W m.( 1.e.6.u.e.j '       # - : - - I 4 xXxXxXxXxXxXxXxXwX",
"wXxXxXxXxXxXxXxXxXy 7.cX8.! + + cX, = 8 _ : 1 s.d , * iXxXa.e., * :     + ) N.v.v.Q E >.5.xXi.e.z n       O H dX2X!.0 u xXxXxXxXxXxXxXxXwX",
"wXxXxXxXxXxXxXxXxXy 5X1XZ.Q + # $XN f 9 3 . . 2 f V m T xXD e.a # 0 0 = o j./ / ' M.M 0.$XxXZ.5.S 1       Y xX=.I.^.].& xXxXxXxXxXxXxXxXwX",
"wXxXxXxXxXxXxXxXxXy e.5.e.R @ # S.+ > # > # * : 4 : $ t cXD e.>.  J Z.;   I k.P ) / N 7.Z.$XjXi.K =     . pXdX+.O.T.`.q xXxXxXxXxXxXxXxXwX",
"wXxXxXxXxXxXxXxXxXy e.q.x B + # tX; n V V B K B d 7 $ } *XR w.t.    - .   k.C dXI b.C e.e.p.t.<.W $     O cXO._ o.U.Q.4 xXxXxXxXxXxXxXxXwX",
"wXxXxXxXxXxXxXxXxXy e.1.b.Z 5 # xX5 O . * + $ $ . - 1 ].W.|.k e.  O xX8   C U K...C v e.e.t.,.a n O     o cX$.` +.I.W., xXxXxXxXxXxXxXxXwX",
"wXxXxXxXxXxXxXxXxXy e.1.M./ 8 # cXA.U m m.P B n.B m 5 E.K.J.X.s .   * o   #.J.xXH.5XK e.j f B N d 3 .     n :.Z Z Y 2.u xXxXxXxXxXxXxXxXwX",
"wXxXxXxXxXxXxXxXxXy >.g C A ^ Y @ .   7 V Q W B V >.l 4XK.rXJ.9X@ O >     7 X.G.J.R.K a z.E Q n.L V ' > G 1 + ( B.k e.u xXxXxXxXxXxXxXxXwX",
"wXxXxXxXxXxXxXxXxX& @.Y.` k.+.xX>       : , a h w.e.f @.H.R.H.=.# : xX$   h k tXQ.>X8 O = > * m : = $ + eXG * C b.V e.u xXxXxXxXxXxXxXxXwX",
"wXxXxXxXxXxXxXxXxX& Q.T.o.) ^ xX5       L <.e.e.e.e.d / Z ).^ b.:   : O   a w.g ~.L.; 9 d 8 3 > 7 9 m 9 B G   v n >.e.u xXxXxXxXxXxXxXxXwX",
"wXxXxXxXxXxXxXxXxX& oXQ.%./ @XxX:       / t.t.i.y.e.V { L +.o./ = # 7X$.O < e.k lXL.o m . 3 O > + 5 . 9 > G   6 w.t.e.u xXxXxXxXxXxXxXxXwX",
"wXxXxXxXxXxXxXxXxX& ~.OXI.o.xXfX#     o ! 6.cX1XZ.i.N [ v.E { M.: . : - 0 $ e.k xXT.7 9 = 3 . * . : = 7 J G   7 4.d.d.q xXxXxXxXxXxXxXxXwX",
"wXxXxXxXxXxXxXxXxXi H E.,XxXdX0       # D 4.Z.xX7Xp.P ' / M.[ / 0     $ d . e.k xXaXm N ! ] 8 3 d ' S 9 W G   7 5.1X Xa xXxXxXxXxXxXxXxXwX",
"wXxXxXxXxXxXxXxXxXu Z 5 : 6 6 o       : 2.e.9.xX7.8.C k.x.E _ m.N     - >   >.k xXxX+.    f 7 + d >   o 6XG   7 e.0.7.u xXxXxXxXxXxXxXxXwX",
"wXxXxXxXxXxXxXxXxXq V.I I l.n.b.-     M 8.e.r.6.t.j n.{ ) M.z./ k.O #X#.> @ & k xXxXxX3   d 9 9 n >   b Y.G   9 e.e.e.u xXxXxXxXxXxXxXxXwX",
"wXxXxXxXxXxXxXxXxX..^ ` Y ` I 7 +   . ! t.e.e.e.e.k I k.k.P ) B.) o o #.3 3 o k jXQ.uXcXG 8 > + 1 8 #.H..Xm   9 e.u.u.u xXxXxXxXxXxXxXxXwX",
"wXxXxXxXxXxXxXxXxX-.(.W.R.xX@.      * D e.4.5.u.e.V B.) _ V.c./ k.:   Y U Y   * 4XP.W.xXsXm     @ m xXXXlXG   9 5.Z.Z.c xXxXxXxXxXxXxXxXwX",
"wXxXxXxXxXxXxXxXxX-.(.].R.xX@.      n 3.5.9.p.9.<./ / c.{ / / b.' 9   J : A.o o 7XH.0XxXI d .   O J U xXxXn   9 y.d.d.a xXxXxXxXxXxXxXxXwX",
"wXxXxXxXxXxXxXxXxX-.(.].K.xX=.    . Q t.6.p.jX7.z / h./ k.n.b.) [ x.. n + .     : OXxXxX#.L L $ L I eXdXxXG   0 t.6.0.< xXxXxXxXxXxXxXxXwX",
"wXxXxXxXxXxXxXxXxX-.(.W.U.cX=.    1 2.e.t.6.7.5.D s./ m.) v Z k.j.) - : :   n $.* M xXxXW.I.A.L $XxXrXF.E.G   0 e.8.K *.xXxXxXxXxXxXxXxXwX",
"wXxXxXxXxXxXxXxXxX-.(.'.W.sX=.  . ( u.e.e.e.e.<.L { v.C _ I B.L I m.n o #.  0 = $.. Y xXR.H.xXxXxXxXcXF.W.G   0 s *.xX-.xXxXxXxXxXxXxXxXwX",
"wXxXxXxXxXxXxXxXxX-.(.OXU.pX=.  > 2.e.e.e.e.e.2.n./ I _ [ ; n / v.A [ + 8 N   , n   . Y *XE.xXzX~.cXxXQ.3XG   T iXxXxX-.xXxXxXxXxXxXxXxXwX",
"wXxXxXxXxXxXxXxXxX-.(.^.T.zX=.O Q u.d.p.d.t.y.' I Z n.M .     # { / ) 5   , U 0 - #   . J pXxX(.P..XxXlXdXY Y xXxXxXxX-.xXxXxXxXxXxXxXxXwX",
"wXxXxXxXxXxXxXxXxX-.(.Q.R.xXg.Z 3.t.1XxXZ.6.z Z _ / :             6 M.I o       . Y >     > 5XjXF.hXlX~.^.dXxXxXxXxXxX-.xXxXxXxXxXxXxXxXwX",
"wXxXxXxXxXxXxXxXxX-.).=XU.xX!.S e.e.p.cXiX+XI n.B @     o < s +     # B N         O +       o J -X'.Q.rXxXxXxXxXxXxXxX-.xXxXxXxXxXxXxXxXwX",
"wXxXxXxXxXxXxXxXxX-.(.~.U.cX^.1.e.e.d. Xy.D P v $ .   + U ^.g.K &       7 * * : : $           @ o.3XxXxXxXxXxXxXxXxXxX-.xXxXxXxXxXxXxXxXwX",
"wXxXxXxXxXxXxXxXxX-.(.^.Q.zX_.$.2.e.e.e.z C U g.*X.X3 J R.R.(.(.@.1.# O H Q.`.^.'.(.X.o   # H 4XxXxXxXxXxXxXxXxXxXxXxX-.xXxXxXxXxXxXxXxXwX",
"wXxXxXxXxXxXxXxXxX-.)..XR.jX(.vXgXQ j h Y .X=X%X).oXg.[.%XE.].oX].` 1.o.XX*X].].oX^.'.O.g.kXxXxXxXxXxXxXxXxXxXxXxXxXxX-.xXxXxXxXxXxXxXxXwX",
"wXxXxXxXxXxXxXxXxX-.'.&XU.zX(.cXxXxX!..X].].oX].).oXE.G.g.R..X>XdX4XY tX9XtX&X`.I.4X~./.xXxXxXxXxXxXxXxXxXxXxXxXxXxXxX-.xXxXxXxXxXxXxXxXwX",
"wXxXxXxXxXxXxXxXxX-.(.Q.T.xX(.cXxXxX/.oX&X.X^.I.H.U.).(./.OX4XdX%X'.Y.!.&XcXdXK.Q.T.~.=XxXxXxXxXfX;X;X;XqXxXxXxXxXxXxX-.xXxXxXxXxXxXxXxXwX",
"wXxXxXxXxXxXxXxXxX-.).^.E.xX`.cXxXxXpXQ.U.K.I.W.^./.).oX^.6XcX2X'.I.Y.I././.fXY.E.oXzXxXxXxXxXxXcXr     <XxXxXxXxXxXxX-.xXxXxXxXxXxXxXxXwX",
"wXxXxXxXxXxXxXxXxX-.'.`.I.cX(.xXxXxXxXcXaXcX].'.(.)._.oX=XcXE.U.G.I.4XXXI./.'.'.,X~.>XxXxXzXfXxXxX<X  r xXxXzXfXxXxXxX-.xXxXxXxXxXxXxXxXwX",
"wXxXxXxXxXxXxXxXxX-.).!.U.cX(.xXxXxXxXxXxXxX.X]..XXX`..X-XxX~.OXzX~.W.G.oXXXOXE.~.3X(.zX*.    % :XzX  {.jX|     w qXxX-.xXxXxXxXxXxXxXxXwX",
"wXxXxXxXxXxXxXxXxX-.'.W.Q.jX'.xXxXxXxXxXxXxX'..XOXoX`.].oXxXgXaX>X%X(.=X-XxXxXT.!.^.oX..          ;Xw :Xe         X yX-.xXxXxXxXxXxXxXxXwX",
"wXxXxXxXxXxXxXxXxX-.'.oXI.dX(.xXxXxXxXxXxXxX]..XoXoX].[.oXxXxXhXkXrXxXpXoXcXxXQ.~.xXyX            X w e             &.-.xXxXxXxXxXxXxXxXwX",
"wXxXxXxXxXxXxXxXxX-.(.^.I.jX`.xXxXxXxXxXxXxXoX].oXOX.X.X~.&XW.W.G.rXxXOXH.E.!.U.Q.`.:X                              e -.xXxXxXxXxXxXxXxXwX",
"wXxXxXxXxXxXxXxXxX-.).E.T.cX`.xXxXxXxXxXxXxX2X`.].OXXX.XU.J.K.H.F.E.xX^.F.H.Y.G.%X^.5X                              | -.xXxXxX<X;XzXxXxXwX",
"wXxXxXxXxXxXxXxXxX-.).^.R.xX(.xXxXxXxXxXxXxXaX/./.]..X].W.`.T.U.`.uXxX~.E.I.I.I./.rXcXe                             <X-.xXuXuX}. .jXwXxXwX",
"wXxXxXxXxXxXxXxXxX-.'.XXI.xX(.xXxXxXxXxXxXxXzX~.~./.`..XW.R.U.W.E.!.xXpXT.U.T.K..XxXxXfXr       %       X X     X }.xX-.:X    -...%   | wX",
"wXxXxXxXxXxXxXxXxX-.).Q.T.xX(.xXxXxXxXxXxXxX*X} H.I.K.U.R.tX3XXX*XuXwX,X.XE.Y.J.U.xXxXxXxXyX<XqX%         {.qXqXzXxXxX-. .              <X",
"wXxXxXxXxXxXxXxXxX-.*X).R.4XQ.xXxXxXxXxXxXxXT >.j h k l c c c c c T c R l l j ,.f 0XxXxXxXxXxX..            uXxXxXxXxX-.}.             .wX",
"wXxXxXxXxXxXxXxXxX-.xX3XU.~.cXxXxXxXxXxXxXg.O + O $ , < a s s h h s s a & , + o   0 xXxXxXxXzX              {.xXxXxXxX-.xXyX}.    ..qXxXwX",
"wXxXxXxXxXxXxXxXxX-.xXxXxXxXxXxXxXxXxXxXaXm 8 7 U +   5 K B *   . 8 m M =   7 B n > ,XxXxXxXfX              *.xXxXxXxX-.xXxX..    X xXxXwX",
"wXxXxXxXxXxXxXxXxX-.xXxXxXxXxXxXxXxXxXxXO.+ J 3 > L f > . o 7 , m =   # Z K 7 , 3 # v xXxXxXxXw             ;XxXxXxXxX-.xXxX{.    e xXxXwX",
"wXxXxXxXxXxXxXxXxX-.xXxXxXxXxXxXxXxXxX=X= O B V.o > > > b.b.> d 1 ) l.B.# J O I j.  # +XxXxXxX<X          | xXxXxXxXxX-.xXxXxX;X}.hXxXxXwX",
"wXxXxXxXxXxXxXxXxX-.xXxXxXxXxXxXxXxXcXT = b.C.C.d . . 7 C.b.o $ o d C.V.# . o _ N.( 5 0 xXxXxXxXqX| w r {.cXxXxXxXxXxX-.xXxXxXxXxXxXxXxXwX",
"wXxXxXxXxXxXxXxXxX*.zXxXxXxXxXxXxXxXg.$.C.C.C.C.C., M C.C.C.j.o : N.C.C.m.= L C.C.C.N.W ).xXxXxXxXxXxXxXcXxXxXxXxXxXzX&.hXw ;.xXxXxXqXX wX",
"wXxXxXxXxXxXxXxXxXfX..-.-.;.-.;.-.*.t F F F F F F F F F F F F J A F F F F F F F F F F A t -.;.-.;.-.;.;.-.;.-.;.;.-...uXxXyXX ;XxXxXqXX wX",
"wXxXxXxXxXxXxXxXxXxXxXzXhXhXhXhXhXlXhXhXhXlXhXhXhXhXhXhXhXhXhXhXhXhXhXhXhXhXhXhXhXhXhXhXhXhXhXhXhXhXhXhXhXhXhXhXhXzXxXxXxXxX<XX wXxXqXX wX",
"wXxXxXxXxXxXxXxXxXxXxXxXxXxXxXxXxXxXxXxXxXxXxXxXxXxXxXxXxXxXxXxXxXxXxXxXxXxXxXxXxXxXxXxXxXxXxXxXxXxXxXxXxXxXxXxXxXxXxXxXxXxXxX{.w hX}.X wX",
"wXxXxXxXxXxXxXxXxXxXxXxXxXxXxXxXxXxXxXxXxXxXxXxXxXxXxXxXxXxXxXxXxXxXxXxXxXxXxXxXxXxXxXxXxXxXxXxXxXxXxXxXxXxXxXxXxXxXxXxXxXxXxXxX&.% % X wX",
"wXxXxXxXxXxXxXxXxXxXxXxXxXxXxXxXxXxXxXxXxXxXxXxXxXxXxXxXxXxXxXxXxXxXxXxXxXxXxXxXxXxXxXxXxXxXxXxXxXxXxXxXxXxXxXxXxXxXxXxXxXxXxXxX;.r <XX wX",
"wXxXxXxXxXxXxXxXxXxXxXxXxXxXxXxXxXxXxXxXxXxXxXxXxXxXxXxXxXxXxXxXxXxXxXxXxXxXxXxXxXxXxXxXxXxXxXxXxXxXxXxXxXxXxXxXxXxXxXxXxXxXxX{.e hXqXX wX",
"wXxXxXxXxXxXxXxXxXxXxXxXxXxXxXxXxXxXxXxXxXxXxXxXxXxXxXxXxXxXxXxXxXxXxXxXxXxXxXxXxXxXxXxXxXxXxXxXxXxXxXxXxXxXxXxXxXxXxXxXxXxX}.w jXxXqXX wX",
"wXxXxXxXxXxXxXxXxXxXxXxXxXxXxXxXxXxXxXxXxXxXxXxXxXxXxXxXxXxXxXxXxXxXxXxXxXxXxXxXxXxXxXxXxXxXxXxXxXxXxXxXxXxXxXxXxXxXxXxXxX}.% fXxXxXqXX wX",
"qXxXxXxXxXxXxXxXxXxXxXxXxXxXxXxXxXxXxXxXxXxXxXxXxXxXxXxXxXxXxXxXxXxXxXxXxXxXxXxXxXxXxXxXxXxXxXxXxXxXxXxXxXxXxXxXxXxXxXxXxXxXxXxXxXxXxXxXqX",
"cXqXwXwXwXwXwXwXwXwXwXwXwXwXwXwXwXwXwXwXwXwXwXwXwXwXwXwXwXwXwXwXwXwXwXwXwXwXwXwXwXwXwXwXwXwXwXwXwXwXwXwXwXwXwXwXwXwXwXwXwXwXwXwXwXwXwXqXcX"
};
