/* XPM */
static const char *king_hearts[] = {
/* columns rows colors chars-per-pixel */
"69 100 230 2 ",
"   c #010201",
".  c #050A03",
"X  c #0A0E05",
"o  c #0D1206",
"O  c #071508",
"+  c #121407",
"@  c #141508",
"#  c #161909",
"$  c #1B1C0A",
"%  c #1B1509",
"&  c #18160C",
"*  c #221F0B",
"=  c #321809",
"-  c #24220D",
";  c #29250E",
":  c #28280F",
">  c #2E2911",
",  c #2B2714",
"<  c #332C13",
"1  c #352D17",
"2  c #3A3216",
"3  c #3D3519",
"4  c #373218",
"5  c #34382B",
"6  c #1E210C",
"7  c #4C1E0A",
"8  c #791908",
"9  c #6A1E0A",
"0  c #5A2C11",
"q  c #433C1D",
"w  c #463717",
"e  c #533012",
"r  c #65260D",
"t  c #78240E",
"y  c #6A2D14",
"u  c #68361A",
"i  c #763016",
"p  c #573C25",
"a  c #423D26",
"s  c #693C27",
"d  c #334E1B",
"f  c #49411E",
"g  c #4A491C",
"h  c #554C1D",
"j  c #5D511F",
"k  c #4B4422",
"l  c #4E4924",
"z  c #4A4427",
"x  c #534B24",
"c  c #5B4D23",
"v  c #554727",
"b  c #555126",
"n  c #5D5123",
"m  c #5B542A",
"M  c #585529",
"N  c #474835",
"B  c #5A5638",
"V  c #554D35",
"C  c #67442C",
"Z  c #615629",
"A  c #635B2C",
"S  c #635728",
"D  c #684A36",
"F  c #615F3D",
"G  c #645C34",
"H  c #7A4824",
"J  c #6E6928",
"K  c #67622C",
"L  c #77742B",
"P  c #666331",
"I  c #6A6532",
"U  c #6B6A35",
"Y  c #69693A",
"T  c #716E34",
"R  c #6D713A",
"E  c #777836",
"W  c #706D2B",
"Q  c #64562F",
"!  c #273C47",
"~  c #37474A",
"^  c #38546A",
"/  c #3C6575",
"(  c #4A4D43",
")  c #4A524A",
"_  c #565A47",
"`  c #465557",
"'  c #585B57",
"]  c #6B5A42",
"[  c #5B6759",
"{  c #5C634A",
"}  c #696948",
"|  c #656B58",
" . c #6A7759",
".. c #747557",
"X. c #707547",
"o. c #516B6C",
"O. c #666666",
"+. c #6A6C68",
"@. c #787A65",
"#. c #737373",
"$. c #677769",
"%. c #851808",
"&. c #991406",
"*. c #960E05",
"=. c #B60904",
"-. c #A71105",
";. c #8F2510",
":. c #AE250B",
">. c #C90502",
",. c #DF0000",
"<. c #D30301",
"1. c #E10C0C",
"2. c #E11313",
"3. c #E21A1A",
"4. c #E42626",
"5. c #E63737",
"6. c #817F31",
"7. c #864C34",
"8. c #847258",
"9. c #EA5A5A",
"0. c #E84545",
"q. c #EC6969",
"w. c #EE7979",
"e. c #7E8238",
"r. c #738354",
"t. c #798368",
"y. c #708770",
"u. c #5E856B",
"i. c #B6B31C",
"p. c #858835",
"a. c #92942E",
"s. c #ABAE25",
"d. c #D4CA0A",
"f. c #E2D200",
"g. c #898D71",
"h. c #808453",
"j. c #C7BE12",
"k. c #185798",
"l. c #3B729D",
"z. c #1156A1",
"x. c #185BA3",
"c. c #1E61A4",
"v. c #2D6BA4",
"b. c #2464A4",
"n. c #326EA2",
"m. c #3571A2",
"M. c #3B75A2",
"N. c #3F78A2",
"B. c #265382",
"V. c #447B9F",
"C. c #4B7E9C",
"Z. c #4D7487",
"A. c #427AA1",
"S. c #477CA0",
"D. c #4E819E",
"F. c #54859D",
"G. c #5D8B9D",
"H. c #58889D",
"J. c #628E9D",
"K. c #6D8E90",
"L. c #65919D",
"P. c #6C959D",
"I. c #6F989C",
"U. c #749B9D",
"Y. c #799E9E",
"T. c #7F9B97",
"R. c #7B9187",
"E. c #7DA19D",
"W. c #5385A0",
"Q. c #759BA0",
"!. c #7EA2A2",
"~. c #8C9988",
"^. c #9AA28A",
"/. c #83A59E",
"(. c #8AAA9F",
"). c #87A89E",
"_. c #98A997",
"`. c #A8AC93",
"'. c #84A5A2",
"]. c #8BAAA3",
"[. c #88A9A2",
"{. c #91AEA3",
"}. c #92AFA9",
"|. c #95B2A4",
" X c #9BB5A5",
".X c #9BB6AA",
"XX c #9EB8AC",
"oX c #9DB6A7",
"OX c #9BB5B0",
"+X c #A3BBAC",
"@X c #ABBBA8",
"#X c #B4BCA6",
"$X c #A6BDB1",
"%X c #F18C8C",
"&X c #F29898",
"*X c #F4A5A5",
"=X c #F6B8B8",
"-X c #ABC1AC",
";X c #ABC1B4",
":X c #ADC3B8",
">X c #B8C9B8",
",X c #B6C7AE",
"<X c #C6D3BD",
"1X c #C6C7B3",
"2X c #BDCEC2",
"3X c #CBCBCB",
"4X c #C3C3C3",
"5X c #C4D3C4",
"6X c #CAD6C5",
"7X c #CDD9CB",
"8X c #CBD7C7",
"9X c #D4DBCA",
"0X c #D7DED3",
"qX c #F8CBCB",
"wX c #F7C3C3",
"eX c #FAD8D8",
"rX c #DBE3D5",
"tX c #DDE6D9",
"yX c #D9E0CF",
"uX c #E3E9DA",
"iX c #EEEEEE",
"pX c #E8EDE5",
"aX c #FCE7E7",
"sX c #EDF1E7",
"dX c #F2F5ED",
"fX c #F4F6F1",
"gX c #FEF4F3",
"hX c #F9FBF6",
"jX c #FFFFFF",
"kX c #F6F8F2",
/* pixels */
"hX4X3X3X3X3X3X3X3X3X3X3X3X3X3X3X3X3X3X3X3X3X3X3X3X3X3X3X3X3X3X3X3X3X3X3X3X3X3X3X3X3X3X3X3X3X3X3X3X3X3X3X3X3X3X3X3X3X3X3X3X3X3X3X3X3X3X4XhX",
"4XjXjXjXjXjXjXjXjXjXjXjXjXjXjXjXjXjXjXjXjXjXjXjXjXjXjXjXjXjXjXjXjXjXjXjXjXjXjXjXjXjXjXjXjXjXjXjXjXjXjXjXjXjXjXjXjXjXjXjXjXjXjXjXjXjXjXjX4X",
"3X,.aXjXjX*X3.aXjXjXjXjXjXjXjXjXjXjXjXjXjXjXjXjXjXjXjXjXjXjXjXjXjXjXjXjXjXjXjXjXjXjXjXjXjXjXjXjXjXjXjXjXjXjXjXjXjXjXjXjXjXjXjXjXjXjXjXjX3X",
"3X,.aXjXwX3.eXjXjXjXjXjXjXjXjXjXjXjXjXjXjXjXjXjXjXjXjXjXjXjXjXjXjXjXjXjXjXjXjXjXjXjXjXjXjXjXjXjXjXjXjXjXjXjXjXjXjXjXjXjXjXjXjXjXjXjXjXjX3X",
"4X1.aXeX3.wXjXjXjXjXjXjXjXjXjXjXjXjXjXjXjXjXjXjXjXjXjXjXjXjXjXjXjXjXjXjXjXjXjXjXjXjXjXjXjXjXjXjXjXjXjXjXjXjXjXjXjXjXjXjXjXjXjXjXjXjXjXjX3X",
"4X1.wX4.=XjXjXjXjXjXjXjXjXjXjXjXjXjXjXjXjXjXjXjXjXjXjXjXjXjXjXjXjXjXjXjXjXjXjXjXjXjXjXjXjXjXjXjXjXjXjXjXjXjXjXjXjXjXjXjXjXjXjXjXjXjXjXjX3X",
"4X1.3.2.&XjXjXjXjXjXjXjXjXjXjXjXjXjXjXjXjXjXjXjXjXjXjXjXjXjXjXjXjXjXjXjXjXjXjXjXjXjXjXjXjXjXjXjXjXjXjXjXjXjXjXjXjXjXjXjXjXjXjXjXjXjXjXjX3X",
"3X1.=XwX2.eXjXjXjXjXjXjXjXjXjXjXjXjXjXjXjXjXjXjXjXjXjXjXjXjXjXjXjXjXjXjXjXjXjXjXjXjXjXjXjXjXjXjXjXjXjXjXjXjXjXjXjXjXjXjXjXjXjXjXjXjXjXjX3X",
"3X,.aXjX&X3.gXjXjXjXjXjXjXjXjXjXjXjXjXjXjXjXjXjXjXjXjXjXjXjXjXjXjXjXjXjXjXjXjXjXjXjXjXjXjXjXjXjXjXjXjXjXjXjXjXjXjXjXjXjXjXjXjXjXjXjXjXjX3X",
"3X,.eXjXjX9.0.jXjXiXO.O.O.O.O.O.O.O.O.O.O.O.N N F F F _ B } B Y F F F F B Y F F F F F F F F F F F 5 | O.O.O.O.O.O.O.O.pXjXjXjXjXjXjXjXjX3X",
"3X,.aXjXjXgX4.w.jX+.iXjXjXjXjXjXjXjXjXjXjXjXrXB i.f.f.f.f.4 b f.f.f.d.$ M f.f.f.f.k L f.f.f.f.f.p.$.jXjXjXjXjXjXjXjXiX+.jXjXjXjXjXjXjXjX3X",
"3XjXjXjXjXjXjXjXjX#.jXjXjXjXjXjXjXjXjXjXjXjXjX~.o x d.f.f < $ Z f.f.1 - $ K f.f.q o - f.f.f.K m ' hXjXjXjXjXjXjXjXjXjX#.jXjXjXjXjXjXjXjX3X",
"3X*X3.3.wX9.,.9.hX#.jXjXjXjXjXjXjXjXjXjXjXjXjXjX_   f f.3 w o q f.d.# f X l f.i.. l   q d.< X 1 tXjXhXjXjXjXjXjXjXjXjX#.jXjXjXjXjXjXjXjX3X",
"3X4.,.,.3.,.,.,.=X#.jXjXaX*Xw.&XaXjXjXgX*Xw.&XeXkX4 k 4 2 q q < + * 2 3 b < * q q M < k a.+ 2 >XjX`.X.$.jXjXjXjXjXjXjX#.jXjXjXjXjXjXjXjX3X",
"3X5.,.,.,.,.,.,.wX#.jX=X2.,.,.,.2.eXgX4.,.,.,.,.%X5X3 f M X   q M b 1   @ M q k - . M ; * < R.jXjXr.p.[ F.G.P.>XjXjXjX#.jXjXjXjXjXjXjXjX3X",
"3XwX1.,.,.,.1.9.jX#.gX2.,.,.,.,.,.0.w.,.,.,.,.,.1.wXt..         . . .       X       . $ * ^ I.'.Y.{ Y o.J.{.].J.J.g.rX#.jXjXjXjXjXjXjXjX3X",
"3XjX&X1.,.,.5.gXjX#.*X,.,.,.,.,.,.,.1.,.,.,.,.,.,.q.jX( a } ^.#X1X9X<X1X`.@.N 3 ; $ X . ~ W.n.].m.}  .9XU.P..X'...E  .#.jXjXjXjXjXjXjXjX3X",
"3XjXjXw.,.3.aXjXjX#.&X,.,.,.,.,.,.,.1.,.,.,.,.1.,.9.jX.X}.+X0XjXjX0XJ.F.P.5XuXJ.U.P.F.U.v.M.n.J.H.} r.hXn.l.n.A.B A u.#.jXjXjXjXjXjXjXjX3X",
"3XjXjXhX5.=XjXjXjX#.wX,.,.,.,.,.1.,.,.,.,.,.,.,.,.%XjX].m.C.A.+XjX[.G.Q.L.W././.J.I.'.{.W.Y.M.].F.{  .hXXXM.M.V.Z.| @X#.jXjXjXjXjXjXjXjX3X",
"3XjXjXjXqXjXjXjXjX#.jX5.,.,.,.,.,.,.,.,.1.,.,.,.2.gXjXJ.b.S.S.H.hXV.v.c.n.m.).[.(.L.U.Y.E.Q.].].].} u.$XjX>XjXpXQ.jXjX#.jXjXjXjXjXjXjXjX3X",
"3XjXjXjXjXjXjXjXjX#.jXeX1.1.,.,.,.1.,.,.,.,.,.,.=XjX9XH.b.m.m.V.jXY.b.F.D.C.[.7XP././.E.).+XjXjXt.e.u.'  ... .o.yXjXjX#.jXjXjXjXjXjXjXjX3X",
"3XjXjXjXjXjXjXjXjX#.jXjX=X,.,.,.,.,.,.,.,.,.,.%XjX>XE.G.|.{.P.Q.jXjX{.oXdXjXjXjX/.U.J./.E.|.hXjXg.X.[ S i.s.s.Y >XjXjX#.jXjXjXjXjXjXjXjX3X",
"3XjXjXjXjXjXjXjXjX#.jXjXjX&X,.,.,.,.,.,.1.1.9.jXjXtXI.V.+XhX,X;XjXtXhX<XkXjXjXjX|.E.(./.E.).;XjXjXjXY n x g j n y.jXjX#.jXjXjXjXjXjXjXjX3X",
"3XjXjXjXjXjXjXjXjX#.jXjXjXjXq.,.,.,.,.1.,.0.hXjXjXjXjX/.}.jX-X/.J.<X+XjXjXjXjXuX<XL.Y.U.)./.{.jXjXjXZ x n K S g $.jXjX#.jXjXjXjXjXjXjXjX3X",
"3XjXjXjXjXjXjXjXjX#.jXjXjXjXjX0.,.,.,.,.4.gXhXjXfX[.8XW.J.jXkX+X5XY.sXjXjXjXsX-X|.(.E.U.).).E.>XjXjXY j n d h T y.jXjX#.jXjXjXjXjXjXjXjX3X",
"3XjXjXjXjXjXjXjXjX#.jXjXjXjXjXgX4.,.,.1.eXjXjXjX]..XC.P.F.jXH.m.n.n.].jXjXjX<X).G.E.|.).).E.).{.jX#XU J U Z A A y.jXjX#.jXjXjXjXjXjXjXjX3X",
"3XjXjXjXjXjXjXjXjX#.jXjXjXjXjXjX=X1.,.%XjXjXjXjX|.J.].Y.P.sX5X].G.,XrXjXdX>X|.J.S.J.{.].).(. X].jXX.R a.Y a.E p.R -XjX#.jXjXjXjXjXjXjXjX3X",
"3XjXjXjXjXjXjXjXjX#.jXjXjXjXjXjXjX9.4.hXjXjXjX$XS.l.{.|.).|.kXhXuXjXhXuX X].H.P.,XN.].}.].]. X].^.j S r T P h r M { jX#.jXjXjXjXjXjXjXjX3X",
"3XjXjXjXjXjXjXjXjX#.jXjXjXjXjXjXjXwX%XjXrXP.b.Y.dXM.L.).Y.).>X,X7.8.|./.D.l.F.|./..X/.U.P.Y.Q.].g u <.1.r S %.1.%.d _.#.jXjXjXjXjXjXjXjX3X",
"3XjXjXjXjXjXjXjXjX#.jXjXjXjXjXjXjXjX6XP.'.[.A.8XpX>Xv.U.E.|..XZ.&.;.E.].V.@XG.o.} _ o.N.v.z.b.Z.w = X X . . X . X . $ , jXjXjXjXjXjXjXjX3X",
"3XjXjXjXjXjXjXjXjX#.jXjXjXjXjXjX0X} X.$.jXjXtXU.>X2XJ.` } ( s &.,.,.s Q.D.D.} M E n R.jX7XV.[.jXuX$                   @ jXjXjXjXjXjXjXjX3X",
"3XjXjXjXjXjXjXjXjX#.jXjXjXjXjX..Y A ; ; ..pXXXG.n.7XsXt ,.,.,.,.,.,.>.i w l U R Z B fXY.<XXXjXhX;                     @ jXjXjXjXjXjXjXjX3X",
"3XjXjXjXjXjXjXjXjX#.jXjXjX8XY R : 3 # f k ^.uXXXb.>XjX] ,.,.,.,.,.,.1.,.7 Y p.A Z R.jX$XJ.$XdX} 2             .   .   @ jXjXjXjXjXjXjXjX3X",
"3XjXjXjXjXjXjXjXjX#.jXjXg.X.z @ 3 > M 6 < < tXhXsXU.$X>X;.,.,.,.,.,.<.0 U E P L m fX.Xx.Q.6X... A n k.z.z.z.z.z.z.z.z.~ jXjXjXjXjXjXjXjX3X",
"3XjXjXjXjXjXjXjXjX#.jXX.R < + 3 M < X 4 3 m V jX9XY.8XjXD 1.,.,.,.<.0 U E I Z A  .5X|.m.$X9X2 % X a.x ) ^ ` V A V ^ z.~ jXjXjXjXjXjXjXjX3X",
"3XjXjXjXjXjXjXjXjX+.} Y > @ f b - + < P y =.-.t.+XQ.b.tX9X=.,.,.<.0 I T T S E m 8XXXU.dXjXB X $ , 3 P a.E a.i.K p.6.G 5 jXjXjXjXjXjXjXjX3X",
"3XjXjXjXjXjXjXjXjXN A , $ b < ; $ g p &.,.,.,.y kX+XM.0XjXi 1.<.0 I E I S A A v jX{.P.Y.g.; < . 1 . a.e 3 j ( k.^ V { N jXjXjXjXjXjXjXjX3X",
"3XjXjXjXjXjXjXjXjX, > # A $ < > M w -.,.,.1.,.=. .dX+X+X'.} >.0 I L p.A K Z X | $Xx.!.jX1 X b 6 -   k y 8 k _ z.z.z.z.! jXjXjXjXjXjXjXjX3X",
"3XjXjXjXjXjXjXjXjX4 # P ; - 2 M %.e e ,.1.1.,.,.s $X5Xv.@XuXw G T P A Z P . o tXdXH.7X`.: s.< - q - - c 1.%.x ' z.z.z.~ jXjXjXjXjXjXjXjX3X",
"3XjXjXjXjXjXjXjXjX6 K : # f q 7 h Z A 0 =.>.t B R.U.C.b.n.dXZ T E T K m . = y Q.+XoXjX2 q 3 o 3   k @ K ,.,.e R ` z.z.! jXjXjXjXjXjXjXjX3X",
"3XjXjXjXjXjXjXjXjXz , @ x n I J A S W I f l 8XjXjX-XL.M.E.jXY G A Z J . = ,.p jXm.@X/.X k . . l @ 2 o E =.,.p $.R / z.~ hXjXjXjXjXjXjXjX3X",
"3XjXjXjXjXjXjXjXjX, o b G R P E Z p.A j E t.jXjXjX,X].H.N.|.h.T Z c . = ,.>.} Q.z.>X}   q f f z > . . p.=.,.s ]. .R / ~ jXjXjXjXjXjXjXjX3X",
"3XjXjXjXjXjXjXjXjX+ k P P e.T n p.U E j E t.jXjXjX>X].I.m.L.yXg S   = 1.,.&.<X9XA.0X1   f > - x + q X L <.,.s {.8X[ R ~ jXjXjXjXjXjXjXjX3X",
"3XjXjXjXjXjXjXjXjXa h Y E R U K h p.A Z I  .jXjXhX;X[.D.v.S.jXq . = ,.1.,.%.+X>X+XjX@ X < . o <   l @ Z ,.,.C |.XXm.' 5 jXjXjXjXjXjXjXjX3X",
"3XjXjXjXjXjXjXjXjX1 e.R E P E I E U P c w ` L.>XuX9Xl.U.rX'.jX: = 1.,.,.,.y jXL.{.U.. q 3 I 4 + l $ < u ,.,.C  X>XH.[.+.jXjXjXjXjXjXjXjX3X",
"3XjXjXjXjXjXjXjXjXV P p.T E E E A m e =.u z.z.z.k.^ _ >X7X'.{.p 1.1.,.,.,.u yXx.'.^.2 $ < > x - +   L %.,.,.C +X7X!..X#.jXjXjXjXjXjXjXjX3X",
"3XjXjXjXjXjXjXjXjX, J Z Z K c A j d -.,.u k.z.` } f 6 +X,Xx.9Xv ,.1.1.,.,.p yXG.$X..2 <   k o @ > + I >.,.1.C +X:XD.!.#.jXjXjXjXjXjXjXjX3X",
"3XjXjXjXjXjXjXjXjX| R.Z.~.Z.p *.*.=.,.,.y k._ b o   o ^.].b..XB   + 7     N jX/.hXV K j q - $ 2 - K i ,.,.1.C  X+Xv.G.#.jXjXjXjXjXjXjXjX3X",
"3XjXjXjXjXjXjXjXjX#.].G.5XL.D ,.,.,.,.1.r Z 1   . o l @.hX/.jX]   * a..   _ '.S.'.a o x $ ; $ + : S <.1.,.,.C {.>XW.].#.jXjXjXjXjXjXjXjX3X",
"3XjXjXjXjXjXjXjXjX#.P.v.+XP.D ,.,.,.,.>.e ; . M q > $ t.+Xb.].8.x @   ; P +.>Xz.7XY 2 .   k   $ L &.1.,.,.,.C ].8XP..X#.jXjXjXjXjXjXjXjX3X",
"3XjXjXjXjXjXjXjXjX#.!.V.:XI.D ,.,.,.,.r 3   $ - . q < @.uXx.9Xg.q o   - M | 2XD.6Xa < q q ; # E 0 ,.,.,.,.,.C /.$XN.P.#.jXjXjXjXjXjXjXjX3X",
"3XjXjXjXjXjXjXjXjX#.{.L.5XE.D ,.,.,.&.n X ; k @ k $ o t.{.U./.}   * a.o   _ pXW.rXF 2     < E ) i ,.,.,.,.,.C E.:XM.Q.#.jXjXjXjXjXjXjXjX3X",
"3XjXjXjXjXjXjXjXjX#.'.D.>XE.D ,.1.1.0 % f o o l . i.3 ~.jX(.jX{   + w X   N $Xz.}.} . , T P ^ z.i 1.,.8 r 7 f B G Y F N jXjXjXjXjXjXjXjX3X",
"3XjXjXjXjXjXjXjXjX#.H.b.OXE.D ,.1.*.q   f . f . . # k ,XY.v.$X] ,.,.,.,.,.D OXM..X~.Z F ( k.z.z.t 1.8 d A E Y Y E A E 4 jXjXjXjXjXjXjXjX3X",
"3XjXjXjXjXjXjXjXjX#.P.M.;X/.] <.,.y ;   f # 4 Z * q @ uX'.x.sXD ,.,.,.,.<.e 6X{.6X6Xk.v.l.n.x.z.i %.A h S E Y a.I e.Y N jXjXjXjXjXjXjXjX3X",
"3XjXjXjXjXjXjXjXjX( {.J.7XQ.D ,.,.u o 3 : 3 o M w o 6 ;XU.U..Xi ,.,.,.<.% ; hX].'.C.M.+XkXjXrX{ f a.A S A T E U E E c 1 jXjXjXjXjXjXjXjX3X",
"3XjXjXjXjXjXjXjXjXz / D.5XE.D ,.,.c X 1   q     q   4 hXuXhX5X;.,.,.<.+ @ m rXA.n.J.1XsXjXjXjXX.A j n I j A E P p.G P 5 jXjXjXjXjXjXjXjX3X",
"3XjXjXjXjXjXjXjXjX5 Y / XXE.D ,.,.k   k + q l > <   +..Xb.'.tX&.1.>.+ & s.h  X{.S..X<XtXjXjXjXr.K n L A T j U E Y R 4 6 jXjXjXjXjXjXjXjX3X",
"3XjXjXjXjXjXjXjXjX! ~ } u.Y.C ,.>.k   - $ q A - > X 8X+Xx.rX~.>.>.+ $ P m p.| Q.A.H. X$XjXjXjXX.A S Z U I I I U R > @ , jXjXjXjXjXjXjXjX3X",
"3XjXjXjXjXjXjXjXjX! z.` T o.C ,.1.x   b . k .   2 , ;X+XQ.yX] >.X % s.c A S { jX+Xn.V.oXuXjX_.r e J Y m K R n I > # 3 B jXjXjXjXjXjXjXjX3X",
"3XjXjXjXjXjXjXjXjX! z.z.` U p 1.,.v o q   k $ 3 q  .jX{.uXXX0 X * I Z U 6.R c fXV.b.G.G.' u *.1.,.&.c j :.i K - 6 3 b , jXjXjXjXjXjXjXjX3X",
"3XjXjXjXjXjXjXjXjX! z.z.x.) I 9 ,.u @ ; k ; 2 E $ dX].v.2X9X. - a.A Z I U c 7 g.>XH.tX].s ,.1.,.1.,.9 i H x $ # z z # , jXjXjXjXjXjXjXjX3X",
"3XjXjXjXjXjXjXjXjX5 ^ z.z.z.) K r t 3   2 + q X _ 0XI.x.rXB - U A P a.T M 8 ,.a ].'.$XpX~.&.,.,.1.>.r I > $ < M k 6 3 B jXjXjXjXjXjXjXjX3X",
"3XjXjXjXjXjXjXjXjXN p.R _ ( B S S f A   l   ; w dX.XP.+XiXv a.I m A Y m 8 ,.,.t gX>Xb.{.jXp ,.<.8 v f $ # ; a.4 6 1 p.N jXjXjXjXjXjXjXjX3X",
"3XjXjXjXjXjXjXjXjX5 ) _ a.d.E ] _ B h > < < - h.jXpXY.7X~.l I A a.U M %.1.1.,.=.t.sXM.P.Q.#X0 w m & < o q W 2 $ k r.g.#.jXjXjXjXjXjXjXjX3X",
"3XjXjXjXjXjXjXjXjX! z.z.^ ` B.z.z.z.` A X X l jX8Xx.Q.jXZ E c I U c %.1.,.1.,.,.u 5X+X+XuXjX} ; o 3 * a.< < @ M r.`.jX#.jXjXjXjXjXjXjXjX3X",
"3XjXjXjXjXjXjXjXjX! z.z.z.z.z.z.z.z.z.V x # 0XU.].x.8X7Xn A E U c %.,.,.,.,.1.,.%.@X0XI.<XpXkX2 1 L n # q $ E r.rXjXjX#.jXjXjXjXjXjXjXjX3X",
"3XjXjXjXjXjXjXjXjX+   . . .   . .       : #XjXfXP.}.hXG n I I n 8 ,.,.1.,.,.,.,.<.p jX>Xx.}.>X6Xv 2 # > w r.g.hXjXjXjX#.jXjXjXjXjXjXjXjX3X",
"3XjXjXjXjXjXjXjXjXo                   . 8.jXrX8X(.$X,Xc U I P z p t ,.,.1.1.>.8 8 7 0XkXJ.U.$XhX^.; 1 p.r.6XjXjXjXjXjX#.jXjXjXjXjXjXjXjX3X",
"3XjXjXjXjXjXjXjXjX+                 . ' jXjXG.b.+XhXB j A B Z.H.S.Q.C >.,.8 p D.K./ C.sX$XP.6XdXjXR.} ^.jXjXjXjXjXjXjX#.jXjXjXjXjXjXjXjX3X",
"3XjXjXjXjXjXjXjXjX, 3 o X * + . o = y s q Z.x.b.v.n.Z.o...l.J..Xb.Q.[.;.8 $.(.).|.P.b.$X7X5Xx.J.'.+XgXgXjXjXjXjXjXjXjX#.jXjXjXjXjXjXjXjX3X",
"3XjXjXjXjXjXjXjXjX#.hXf 2 8 r L w =.8 w x ].U.Y.Q.I.Y.L.U. Xm.m.H.P.'.8.H 5X@X X{.).L.V.7X{.J.<XjXjX&X&XjXjXjXjXjXjXjX#.jXjXjXjXjXjXjXjX3X",
"3XjXjXjXjXjXjXjXjX#.jX^.Z A n A E < m m `. X'.|./.].(.A.U.C.F.'.$XuXdXhX8XpXsX,X|./.'.V.U.fXjXjXjXjX5.4.hXjXjXjXjXjXjX#.jXjXjXjXjXjXjXjX3X",
"3XjXjXjXjXjXjXjXjX#.jXhXX.S I p.U d.U X.jX]./.|.].]./.P.F.H.E.<XdXjX+X{.G.P.5XhXH.P.U.D.}.jXjXjXjX&X,.,.%XhXjXjXjXjXjX#.jXjXjXjXjXjXjXjX3X",
"3XjXjXjXjXjXjXjXjX#.jXjX@.E n h I j X.@XjX}.Y.)./.(.).E.L.E.<XjXjXjX'.V.n.l.U.jXF.J.M.+X].jXjXjXeX1.,.,.1.wXjXjXjXjXjX#.jXjXjXjXjXjXjXjX3X",
"3XjXjXjXjXjXjXjXjX#.jXjX,Xd h d g g B jXjXkXE./.U.E.E./.[.oXsXjXjXjXhX].:X/.fXjX'.F.7X!.fXjXjXgX4.,.,.,.1.3.aXhXjXjXjX#.jXjXjXjXjXjXjXjX3X",
"3XjXjXjXjXjXjXjXjX#.jXjX} G a.I R A r.jXjXjX{.E.(.).Y.L./.pXjXjXjXjXyXoXL.E..XjX$XW.jXjXjXjXhX5.1.,.,.,.,.,.5.gXjXjXjX#.jXjXjXjXjXjXjXjX3X",
"3XjXjXjXjXjXjXjXjX#.jXjX`.g j n h g } 9XtXjXpXU.Y.U.Y.).{.kXjXjXjX>XjXtXjX>X].jX>Xn.L.>XjXjXq.1.,.,.,.,.,.1.,.9.jXjXjX#.jXjXjXjXjXjXjXjX3X",
"3XjXjXjXjXjXjXjXjX#.jXjXhX_ R X.I A [ R } hXjX).)./.Y.G.!.hXjXjXsX.X'.jXjXP.L.].'.F.]./.jX%X,.,.,.,.1.,.,.,.,.1.%XjXjX#.jXjXjXjXjXjXjXjX3X",
"3XjXjXjXjXjXjXjXjX#.jXjX9XE.jXjXhX/.[ R } jXjXuXL.U.E./.E.,X/.V.m.M.b.G.jXV.b.v.b.L.U.pX=X,.,.,.,.,.,.,.,.,.,.,.,.*XjX#.jXjXjXjXjXjXjXjX3X",
"3XjXjXjXjXjXjXjXjX#.jX9XU.5X].oXfXjX} [ !.[.[.'.H.[.U./.Y. X-XN.v.b.n.A.jXS.v.v.v.W.jXgX3.,.,.1.,.,.,.,.,.,.,.,.,.3.gX#.jXjXjXjX=XjXjXjX3X",
"3XjXjXjXjXjXjXjXjX#.t.n V b.N.M.G.jXE o.V.E.b.W.N.!.oX).J.E.P.C.W.G.W.'.jX.Xl.F.m.L.jX*X,.,.,.,.,.,.1.,.,.,.1.,.,.,.&X#.jXjXjXwX2.aXjXjX3X",
"3XjXjXjXjXjXjXjXjX#. .n { S.V.l.A.kXX.o.V.L.m.P.W.Z.L.)./.W.sX8XQ.G.Q.uXjXjX0XOX8XE.jXw.,.,.,.,.,.,.1.,.,.,.,.,.,.,.w.#.jXjXgX4.,.0.hXjX3X",
"3XjXjXjXjXjXjXjXjX#.@X .K.E.-XoX|.E.E u.v.!.v.D.^ . . @ * 4 z } g.`.#X#X`.g.] z 1 ( jX&X,.,.,.,.,.,.1.1.,.,.,.,.1.,.%X#.jXhX5.,.,.,.q.hX3X",
"3XjXjXjXjXjXjXjXjX#.jXjX5XF.N.G.Q.| K  .P.P.D.o.- $       . +         .           . ~.aX<.1.,.,.,.,.q.q.,.,.,.,.,.1.aX#.jXq.,.,.,.,.,.&X3X",
"3XjXjXjXjXjXjXjXjX#.jXjXjXjXtX+X].{ p.y.jXjX@X4 - - l   * 3 3 l X   3 b l 3   + M q f rX=X3.,.,.1.4.aXgX5.,.,.,.3.=XjX#.eX,.,.,.,.1.,.1.3X",
"3XjXjXjXjXjXjXjXjX#.jXjXjXjXjXjXjXg.} ^.jX7X: # s.x 2 q q q ; , f w 3 $ $ > x Y < ; < 3 jXgX=X&X=XhXjXjXjX=X&X=XgXjXjX#.eX,.,.1.4.1.,.1.3X",
"3XjXjXjXjXjXjXjXjX#.jXjXjXjXjXjXjXjXhXjXpX< o $ j.q X M o f.f.q ; 4 2 f.f.4 > < < f.$ # | jXjXjXjXjXjXjXjXjXjXjXjXjXjX#.jX%X4.9.eX0.4.=X3X",
"3XjXjXjXjXjXjXjXjX#.jXjXjXjXjXjXjXjXjXkX_ c L f.f.d.$ $ x f.f.q $ $ > f.f.k $ $ k f.i.q $ @XjXjXjXjXjXjXjXjXjXjXjXjXjX#.jXjXjXjXjXjXjXjX3X",
"3XjXjXjXjXjXjXjXjX+.iXjXjXjXjXjXjXjXjX| 6.f.f.f.f.f.L m f.f.f.f.f ; f.f.f.f.q 3 f.f.f.f.i.B pXjXjXjXjXjXjXjXjXjXjXjXfX+.jXw.4.gXjXjXaX,.3X",
"3XjXjXjXjXjXjXjXjX0X' #.#.#.#.#.#.#.` 1 J J J J J J J J J J J J J J J J J J J J J J J J J 3 5 #.#.#.#.#.#.#.#.#.#.#.' 0XjXjX0.9.jXjXaX,.4X",
"3XjXjXjXjXjXjXjXjXjXjXfXiXiXkXiXiXiXiXiXiXiXiXiXiXiXiXiXiXiXiXiXiXiXiXiXiXiXiXiXiXiXiXiXiXiXiXiXfXiXfXiXfXiXiXfXiXfXjXjXjXjXaX4.&XjXaX,.3X",
"3XjXjXjXjXjXjXjXjXjXjXjXjXjXjXjXjXjXjXjXjXjXjXjXjXjXjXjXjXjXjXjXjXjXjXjXjXjXjXjXjXjXjXjXjXjXjXjXjXjXjXjXjXjXjXjXjXjXjXjXjXjXjXqX1.qX*X1.3X",
"3XjXjXjXjXjXjXjXjXjXjXjXjXjXjXjXjXjXjXjXjXjXjXjXjXjXjXjXjXjXjXjXjXjXjXjXjXjXjXjXjXjXjXjXjXjXjXjXjXjXjXjXjXjXjXjXjXjXjXjXjXjXjXjX&X3.4.1.4X",
"3XjXjXjXjXjXjXjXjXjXjXjXjXjXjXjXjXjXjXjXjXjXjXjXjXjXjXjXjXjXjXjXjXjXjXjXjXjXjXjXjXjXjXjXjXjXjXjXjXjXjXjXjXjXjXjXjXjXjXjXjXjXjXjX=X4.wX1.3X",
"3XjXjXjXjXjXjXjXjXjXjXjXjXjXjXjXjXjXjXjXjXjXjXjXjXjXjXjXjXjXjXjXjXjXjXjXjXjXjXjXjXjXjXjXjXjXjXjXjXjXjXjXjXjXjXjXjXjXjXjXjXjXjXqX3.eXeX1.3X",
"3XjXjXjXjXjXjXjXjXjXjXjXjXjXjXjXjXjXjXjXjXjXjXjXjXjXjXjXjXjXjXjXjXjXjXjXjXjXjXjXjXjXjXjXjXjXjXjXjXjXjXjXjXjXjXjXjXjXjXjXjXjXeX3.=XjXaX,.3X",
"3XjXjXjXjXjXjXjXjXjXjXjXjXjXjXjXjXjXjXjXjXjXjXjXjXjXjXjXjXjXjXjXjXjXjXjXjXjXjXjXjXjXjXjXjXjXjXjXjXjXjXjXjXjXjXjXjXjXjXjXjXaX4.*XjXjXaX,.3X",
"4XjXjXjXjXjXjXjXjXjXjXjXjXjXjXjXjXjXjXjXjXjXjXjXjXjXjXjXjXjXjXjXjXjXjXjXjXjXjXjXjXjXjXjXjXjXjXjXjXjXjXjXjXjXjXjXjXjXjXjXjXjXjXjXjXjXjXhX4X",
"hX4X3X3X3X3X3X3X3X3X3X3X3X3X3X3X3X3X3X3X3X3X3X3X3X3X3X3X3X3X3X3X3X3X3X3X3X3X3X3X3X3X3X3X3X3X3X3X3X3X3X3X3X3X3X3X3X3X3X3X3X3X3X3X3X3X3X4XhX"
};
