/* XPM */
static const char *king_spades[] = {
/* columns rows colors chars-per-pixel */
"69 100 220 2 ",
"   c #010200",
".  c #0B0400",
"X  c #0C0C0C",
"o  c #140501",
"O  c #1B0503",
"+  c #1A0807",
"@  c #131313",
"#  c #1C1C1C",
"$  c #230705",
"%  c #270806",
"&  c #2A0906",
"*  c #2D0A09",
"=  c #2A0503",
"-  c #340D0B",
";  c #380C0A",
":  c #3B110D",
">  c #291512",
",  c #3D1313",
"<  c #2F0F12",
"1  c #39271B",
"2  c #3C1A2C",
"3  c #222222",
"4  c #2B2B2B",
"5  c #383838",
"6  c #3C2A31",
"7  c #450908",
"8  c #550402",
"9  c #43160E",
"0  c #461812",
"q  c #4B1C11",
"w  c #471A19",
"e  c #581512",
"r  c #660808",
"t  c #790405",
"y  c #681916",
"u  c #791716",
"i  c #780F13",
"p  c #4F2012",
"a  c #4E221E",
"s  c #532413",
"d  c #5B2C15",
"f  c #592716",
"g  c #5F3116",
"h  c #42331C",
"j  c #692918",
"k  c #7A251A",
"l  c #623416",
"z  c #663917",
"x  c #693C17",
"c  c #6B3B18",
"v  c #77371B",
"b  c #481C25",
"n  c #761C25",
"m  c #4C2223",
"M  c #532926",
"N  c #5B322B",
"B  c #593734",
"V  c #45372C",
"C  c #672B2C",
"Z  c #653B34",
"A  c #702E2A",
"S  c #6E4217",
"D  c #6D4218",
"F  c #714418",
"G  c #764A18",
"H  c #794E18",
"J  c #774619",
"K  c #7D5318",
"L  c #554835",
"P  c #68443B",
"I  c #605E36",
"U  c #665A39",
"Y  c #704F2C",
"T  c #6E6928",
"R  c #696423",
"E  c #79633D",
"W  c #362D52",
"Q  c #2D3A6A",
"!  c #5C3747",
"~  c #304672",
"^  c #454545",
"/  c #585556",
"(  c #574749",
")  c #674943",
"_  c #744C43",
"`  c #76544A",
"'  c #695753",
"]  c #7C6257",
"[  c #6F645C",
"{  c #656565",
"}  c #6C6D6B",
"|  c #676A65",
" . c #737373",
".. c #7C7C7C",
"X. c #6E7770",
"o. c #41526A",
"O. c #8A0709",
"+. c #970506",
"@. c #861418",
"#. c #8F0E14",
"$. c #A70304",
"%. c #B30201",
"&. c #BA0202",
"*. c #832D1D",
"=. c #851621",
"-. c #C50000",
";. c #CC0000",
":. c #D30000",
">. c #DE0000",
",. c #845C17",
"<. c #825918",
"1. c #85491D",
"2. c #8A6417",
"3. c #8E6917",
"4. c #876017",
"5. c #926D16",
"6. c #957315",
"7. c #9D7D14",
"8. c #997715",
"9. c #856A2C",
"0. c #866855",
"q. c #8C7668",
"w. c #897567",
"e. c #75847A",
"r. c #B4990E",
"t. c #A28313",
"y. c #A98B12",
"u. c #A68B15",
"i. c #AF9210",
"p. c #B29510",
"a. c #BDA20D",
"s. c #CBB508",
"d. c #CDB708",
"f. c #DBC902",
"g. c #E2D200",
"h. c #E0CF01",
"j. c #9C8A7B",
"k. c #89897A",
"l. c #A18C7D",
"z. c #1A5B9B",
"x. c #336B8E",
"c. c #3A6F8B",
"v. c #3D728B",
"b. c #246294",
"n. c #2B6691",
"m. c #2F688F",
"M. c #1156A1",
"N. c #234984",
"B. c #437589",
"V. c #4B7A88",
"C. c #4A7886",
"Z. c #527E88",
"A. c #507E87",
"S. c #548087",
"D. c #5A8487",
"F. c #568288",
"G. c #5F8888",
"H. c #5C8688",
"J. c #648B88",
"K. c #6A8F89",
"L. c #678985",
"P. c #6E928A",
"I. c #73958B",
"U. c #7B9B8E",
"Y. c #77958A",
"T. c #798D81",
"R. c #8A8A8A",
"E. c #819F8E",
"W. c #879686",
"Q. c #819F90",
"!. c #989898",
"~. c #999685",
"^. c #A99C8B",
"/. c #84A291",
"(. c #8AA594",
"). c #8EA996",
"_. c #91AA97",
"`. c #94AD9A",
"'. c #9BB29D",
"]. c #B4AA9A",
"[. c #AAAA98",
"{. c #9EB4A0",
"}. c #A6A6A6",
"|. c #A1B6A1",
" X c #A5B9A3",
".X c #ACBEA9",
"XX c #B8B9A7",
"oX c #B4B4B4",
"OX c #BCBCBC",
"+X c #BCAEA1",
"@X c #C4BBAE",
"#X c #AFC1AB",
"$X c #B3C4AE",
"%X c #BBCAB5",
"&X c #BAC9B4",
"*X c #C6C9B9",
"=X c #C5D1BE",
"-X c #C3C0AF",
";X c #C2C2C2",
":X c #CBCBCB",
">X c #CAD5C2",
",X c #C9D4C2",
"<X c #D4DCCC",
"1X c #D6D8CA",
"2X c #DBDBDB",
"3X c #D5D6D1",
"4X c #E1DFD5",
"5X c #DDE4D7",
"6X c #E3E9DD",
"7X c #E2E7DB",
"8X c #E3E3E3",
"9X c #EAEEE5",
"0X c #EDEDED",
"qX c #E7ECE1",
"wX c #EDF1E9",
"eX c #F1F3ED",
"rX c #F4F5F2",
"tX c #F7F9F5",
"yX c #FFFFFF",
"uX c #F8FAF7",
/* pixels */
"uX;X:X:X:X:X:X:X:X:X:X:X:X:X:X:X:X:X:X:X:X:X:X:X:X:X:X:X:X:X:X:X:X:X:X:X:X:X:X:X:X:X:X:X:X:X:X:X:X:X:X:X:X:X:X:X:X:X:X:X:X:X:X:X:X:X:X;XuX",
";XyXyXyXyXyXyXyXyXyXyXyXyXyXyXyXyXyXyXyXyXyXyXyXyXyXyXyXyXyXyXyXyXyXyXyXyXyXyXyXyXyXyXyXyXyXyXyXyXyXyXyXyXyXyXyXyXyXyXyXyXyXyXyXyXyXyXyX;X",
":XyX  8XyXyX}.3 8XyXyXyXyXyXyXyXyXyXyXyXyXyXyXyXyXyXyXyXyXyXyXyXyXyXyXyXyXyXyXyXyXyXyXyXyXyXyXyXyXyXyXyXyXyXyXyXyXyXyXyXyXyXyXyXyXyXyXyX:X",
":XuX  8XyX;X# 3XyXyXyXyXyXyXyXyXyXyXyXyXyXyXyXyXyXyXyXyXyXyXyXyXyXyXyXyXyXyXyXyXyXyXyXyXyXyXyXyXyXyXyXyXyXyXyXyXyXyXyXyXyXyXyXyXyXyXyXyX:X",
":XuX  8X3X# :XyXyXyXyXyXyXyXyXyXyXyXyXyXyXyXyXyXyXyXyXyXyXyXyXyXyXyXyXyXyXyXyXyXyXyXyXyXyXyXyXyXyXyXyXyXyXyXyXyXyXyXyXyXyXyXyXyXyXyXyXyX:X",
":XuX  :X3 oXyXyXyXyXyXyXyXyXyXyXyXyXyXyXyXyXyXyXyXyXyXyXyXyXyXyXyXyXyXyXyXyXyXyXyXyXyXyXyXyXyXyXyXyXyXyXyXyXyXyXyXyXyXyXyXyXyXyXyXyXyXyX:X",
":XuX  3 @ }.yXyXyXyXyXyXyXyXyXyXyXyXyXyXyXyXyXyXyXyXyXyXyXyXyXyXyXyXyXyXyXyXyXyXyXyXyXyXyXyXyXyXyXyXyXyXyXyXyXyXyXyXyXyXyXyXyXyXyXyXyXyX:X",
":XyX  oX:X@ :XyXyXyXyXyXyXyXyXyXyXyXyXyXyXyXyXyXyXyXyXyXyXyXyXyXyXyXyXyXyXyXyXyXyXyXyXyXyXyXyXyXyXyXyXyXyXyXyXyXyXyXyXyXyXyXyXyXyXyXyXyX:X",
":XyX  8XyX!.3 0XyXyXyXyXyXyXyXyXyXyXyXyXyXyXyXyXyXuXyXyXyXyXyXyXyXyXyXyXyXyXyXyXyXyXyXyXyXyXyXyXyXyXyXyXyXyXyXyXyXyXyXyXyXyXyXyXyXyXyXyX:X",
":XuX  8XyXyX/ ^ uX0X{ { { { { { { { { { { { | 5 I ' I I I I I I I I I I I I I I I I I I I I I I I I I 5 { { { { { { { 8XyXyXyXyXyXyXyXyX:X",
":XuX  8XyXyXrX4 .. .8XyXyXyXyXyXyXyXyXyXyXyXyX'.Y f.g.g.g.g.g.g.g.g.g.g.g.d.g.g.g.g.g.g.g.g.g.g.g.g.u.| yXyXyXyXyXyX0X} yXyXyXyXyXyXyXyX:X",
":XyXyXyXyXyXyXyXyX .yXyXyXyXyXyXyX!.;XuXyXyXyXyX^ a.g.g.g.g.a.K h.g.g.g.7.  D g.g.g.g.- & g.g.g.g.y.B 9XyXyXyXyXyXyXyX .yXyXyXyXyXyXyXyX:X",
":XyXyXyX{ 0XyXyXyX .yXyXyXyXyXyX2XX 4 rXyXyXyXyX%Xw g g.f.g.s   x f.g.f.- % $ r.g.g.9 $ o f.g.d.S . ~.yXyXyXyXyXyXyXyX .yXyXyXyXyXyXyXyX:X",
":XyXyX!.  ^ uXyXyX .yXyXyXyXyXuX5     / yXyXyXyXyX/   f f.f.& 9   l g.5.  %   l g.g.O % . K g.: . M uXyXyXyXyXyXyXyXyX .yXyXyXyXyXyXyXyX:X",
":XyX:X.     ..yXyX .yXyXyXyXyX{         R.yXyXyXyX<Xm   y.f.o . o t.,.3.q s - G & 9 s 9 $ i.i.H $ <XyXyXyXyXyXyX5XyXyX .yXyXyXyXyXyXyXyX:X",
":X0X3         OXyX .yXyXyXyXR.            oXyXyXyXyXX.: K 9 p s K &   O f @.F p - 9 v v p     . ] yXyXyXyXyXtXU.`.%XyX .yXyXyXyXyXyXyXyX:X",
":X{           # uX .yXyXyXOX              @ 2XyXyXyX9Xb 0 * q i $.n p 0 t $.+.r e r %.-.@.k f m yXyXyXyXyXuXJ.5XyX%X$X .yXyXyXyXyXyXyXyX:X",
";XX             }. .yXyX8X@                 5 uXyXyXyXk.= & = e w b 6 W W ~ ~ ~ ~ ~ W W W b b XXyXyXyXyXyXrX`.yXyXyX(. .yXyXyXyXyXyXyXyX:X",
":X@   3 3 5     OX .yXuX(                     ..yXyXyXrX~ ~ n.v.Z.Z./.'.yXqX<XeXuXyXeX7X*X|.P.yXyXyXyXyXyXrX`.yX<XyX(. .yXyXyXyXyXyXyXyX:X",
":X:XR.2XX }.!.}.yX .yX}.                        :XyXyXyX`.'. X{.Q.Q.'.%XK.J.F.B.c.I.tXc.C.C.K.yXyXyXyXyXyXrX`.yX#XyX). .yXyXyXyXyXyXyXyX:X",
":XyXyX!.@ ( yXyXyX .uX3                         ^ yXyXyX`.{.'._.!.). XuX=XU.P.D.).6XqXG.J.J.A.yXyXyXyXyXyXrX`.yX XyX). .yXyXyXyXyXyXyXyX:X",
":XyXyXyXyXyXyXyXyX .oX                            8XyX<X_.{.).'. X X#X$Xn.m.M.b.Z.yXqXb.b.z.I.yXyXyXyXyXyXrX`.yX'.yX(. .yXyXyXyXyXyXyXyX:X",
":XyXyXyXyXyXyXyXyX ...                            }.yX'.`.{.{.#X X`.#XyX7X XK.c..XyXyXx.I./.F.yXyXyXyXyXyXrX`.yX'.yX(. .yXyXyXyXyXyXyXyX:X",
":XyXyXyXyXyXyXyXyX .R.          4 3 5 @           oXyX(.`.{._.{.`./.,XyXyXyX>X>XeXyXyX(.$XyXm.<XyXyXyXyXyXrX`.yX`.yX). .yXyXyXyXyXyXyXyX:X",
":XyXyXyXyXyXyXyXyX .2XX       3 2X. 4 OX.       3 uX,X(.{.).{.(.`.).uXyXyXyXyXyX/.uX6X_.yXyXc.{.yXyXyXyXyXtX_.yX'.yX(. .yXyXyXyXyXyXyXyX:X",
":XyXyXyXyXyXyXyXyX .yX3X/ 3 / 8XoX    2X:X^ 3 { 8XyX(.(.`._.{.{.'.J.yXyXyXtX`.wX`.J.V.{.rX>XV./.yXyXyXyXyXrX`.tX`.yX(. .yXyXyXyXyXyXyXyX:X",
":XyXyXyXyXyXyXyXyX .yXyXyXyXyXyX/     R.yXyXyX,X0X5X_.`.).).`././.A.%XyXyX|.<X%XZ.Y._.V.#XY.c.K.yXyXyXyXyXrX`.<X#XyX(. .yXyXyXyXyXyXyXyX:X",
":XyXyXyXyXyXyXyXyX .yXyXyXyXyX0XX     3 yXyX(.'.Y.I.(._.).)._.).S.G./.<XyXwXU.G.G.P.P.F.`..Xc.H.yXyXyXyXyXrX_.=X=XyX(. .yXyXyXyXyXyXyXyX:X",
":XyXyXyXyXyXyXyXyX .yXyXyXyXyX}.^ ^ ^ ^ :XyX`.U.I.'.'.).(.`.Y.n./.P.J.(.<XyXyX=X'.G.J.`.rX(.F.U.yXyXyXyXyXeX_.=X=XyX(. .yXyXyXyXyXyXyXyX:X",
":XyXyXyXyXyXyXyXyX .yXyXyXyXyXyXyXyXyXyXyX-XB ~.'.'./.(.(.| < | I.P.P.G.<X<XyXyXyXwXqXyX7XH.I./ Z 6XyXyXyXwX_.=X#XyX(. .yXyXyXyXyXyXyXyX:X",
":XyXyXyXyXyXyXyXyX .yXyXyXyXyXyXyXyXrXw.9 O   & B / ) B B     * B , X._._.'.'.9XyXyXyX<Xv.B.V.N   o Z eXyXwX_.tXU.yX/. .yXyXyXyXyXyXyXyX:X",
":XyXyXyXyXyXyXyXyX .yXyXyXyXyXyXeX` | O   ) _ & l %.;.-.<.0 - h.l   ' U.U.P.U.`.%X=XB c.K.K.M ; P N   % ] 9X_.yXI.yX(. .yXyXyXyXyXyXyXyX:X",
":XyXyXyXyXyXyXyXyX .yXyXyXyXyX0.@.&.! l.. ` yX: - u >.>.u 8.+ & 8.% O L _ b (.).Y.' t e.U.E.o P yX`   - s a k.yXU.yX/. .yXyXyXyXyXyXyXyX:X",
":XyXyXyXyXyXyXyXyX .yXyXyX^.u ;.>.@.#X).N   w o   z &.>.%.i.$   0 d.&     . e.X.(.e >.C T.M   Z N - - G p S ` yX/.yX/. .yXyXyXyXyXyXyXyX:X",
":XyXyXyXyXyXyXyXyX .yXrX_ %.>.>.>.!  Xz.>X$   P a $ u >.>.j f   . K : * & 7., M a %.>.j 9 o w     % S y.0 l ` yX/.yX/. .yXyXyXyXyXyXyXyX:X",
":XyXyXyXyXyXyXyXyX .+Xn :.>.>.>.%.G.Z.x.Z.0.o 1X9X. l &.>.@.t.    * r.6.* $ o q u >.#.r.$ *XyX$ o ,.g x d.F ` yX/.yX/. .yXyXyXyXyXyXyXyX:X",
":XyXyXyXyXyXyXyXyX6 8 >.>.>.>.>.=.<XB.x.D.,X* - w.  & @.>.&.u.O & f.3.3.f.O   3.$.;.<.9   w.&Xo G S S f s 2._ yXY.yXE. .yXyXyXyXyXyXyXyX:X",
":XyXyXyXyXyXyXyXyX1 x u :.>.>.>.n ,Xz.M.%XV.0.  & $   l >.>.v q o z y.t.l   % v >.@.y.    9   0 ,.p 6.7.7.@.` yXI.yXQ. .yXyXyXyXyXyXyXyX:X",
":XyXyXyXyXyXyXyXyX1 H <.j -.>.>.n V.Q.v.=Xz.<X$ - ^.M s $.>.u F   q 6.K 9   g @.:.H 9 $ m   o K 8.s f <.u >._ yXI.yX/. .yXyXyXyXyXyXyXyX:X",
":XyXyXyXyXyXyXyXyXh F G K j -.>.n =Xb.M.=XM.U.N , yXN % k >.+.t.& <.  . 8.$ 4.-.O.a.O 1X7X  l K : d.K J :.>.) yXP.yXQ. .yXyXyXyXyXyXyXyX:X",
":XyXyXyXyXyXyXyXyXh y.d K ,.j ;.=.5XS.n.#Xb.n.].  - &   c >.%.r.. q   . , % J >.v z . w.w.O 3.r.q , y.$.>.>.P yXG.yXU. .yXyXyXyXyXyXyXyX:X",
":XyXyXyXyXyXyXyXyX> z H H s 2.y O.P.F.V.K.P.M.=X%   w   g -.:.2.$         p @.-.6.*   w   p p d d.K *.>.>.>.Z yXH.yXI.X.yXyXyXyXyXyXyXyX:X",
":XyXyXyXyXyXyXyXyX+ $ D H ,.H 4.r ( /.M.z.,Xz.(.a O q.M s +.>.1.: o s O   F +.+.r.  0 O     : & 9 t.&.>.>.:.Z yXF.qXP.X.yXyXyXyXyXyXyXyX:X",
":XyXyXyXyXyXyXyXyX+   & S 2.S 4.z , <XI.v.H.'.S.` ; yXw.- u >.v 9 K 8.,.  2.-.k F M yXN         & e >.:.@.J v 9.Y ` U L yXyXyXyXyXyXyXyX:X",
":XyXyXyXyXyXyXyXyXo     : ,.x G S 9 / Z.C.M.Y.U.[.  0 * o j -.v p 2.& 6.. K $.H 0 : ].a w i 8 .     8 j g.7.c c D K 6.L yXyXyXyXyXyXyXyX:X",
":XyXyXyXyXyXyXyXyXO   - s z y.F c H 7 XXS.V.B.b.7X. o O   K K 7.0 K o 3.o i.3.y.O O w   P &.>.-.8     - h.f ] -Xe./ : > yXyXyXyXyXyXyXyX:X",
":XyXyXyXyXyXyXyXyX+   K l S S G H S k A `.F.S.M.<XO m _ O         f d p           o .   _ :.>.>.+.S 0     Z yX_.J.|.qX> yXyXyXyXyXyXyXyX:X",
":XyXyXyXyXyXyXyXyX+   S a.- q 7.S S x ;.A _./.v.%XO ^.uX$         H H K         o +XZ   ` >.>.>.&.K l l 9 P 9Xb.Z.Q.W.1 yXyXyXyXyXyXyXyX:X",
":XyXyXyXyXyXyXyXyXO ; , q.[.w H ,.G 2.O.>.u k.P.&X= $ Z   r +.+.e <.<.8.e +.+.t , uX].O P >.>.>.:.f G x 5.0.tXn.A.%X~.> yXyXyXyXyXyXyXyX:X",
":XyXyXyXyXyXyXyXyX+ [ n.U.eX@Xf y.3.z k >.>.%.C [.=   $   $.>.>.j 6.g.4.1.>.>.+.  ) o % 1.>.>.>.>.j ,.<.,.9.uXA.v.K. X> yXyXyXyXyXyXyXyX:X",
":XyXyXyXyXyXyXyXyX> &XA.n.$XyXc S x y.f >.>.>.:.q.$ , ` O $.>.>.v 5.s.K *.>.>.+.  %   * !.C &.>.>.k s <.p.G ]. XB.V.) > yXyXyXyXyXyXyXyX:X",
":XyXyXyXyXyXyXyXyX> ]. XJ.P.yXN G x H S -.>.>.>.j.o j.yX= ; 8 8 q 8.H t.9 8 8 = % 4Xm - _.oX~.=.>.+.K l 6.,.M ` N $ o > yXyXyXyXyXyXyXyX:X",
":XyXyXyXyXyXyXyXyX> ..Z.n.I.yXw o * g K $.>.>.;.l.  ; N           J 7.x         m <X] % Q.b.$XL.n -.l G H p.z q f.s   > yXyXyXyXyXyXyXyX:X",
":XyXyXyXyXyXyXyXyX> 8XQ.Z.|.yXw %   . - +.>.>.%.w.        . .     l q f   o .     Z $ O |.M.J.(.<Xn k S K 6.<.6.g G   > yXyXyXyXyXyXyXyX:X",
":XyXyXyXyXyXyXyXyXO & V 0.q.M x h.&     . t :.#.N   Z % $ s.t.f.  2.& z J y.2.y.  o .   %Xx.c.z.Q.W.i S g K i.8.s -   > yXyXyXyXyXyXyXyX:X",
":XyXyXyXyXyXyXyXyXR s.y.8.6.4.a.d.O.+.o     . ; - Z wXM q k +.y.  3.- x c u :.J o Z l.. ^.J.Z.M.U.K.' y S F F K s     > yXyXyXyXyXyXyXyX:X",
":XyXyXyXyXyXyXyXyXV U U Y 9.G v #.>.>.c 0 o       w 1X- K +.#.H   K i.d d u >.*.- >XuX; ` B.(.c.V.K.rXy G l x y.G :   > yXyXyXyXyXyXyXyX:X",
":XyXyXyXyXyXyXyXyX{ U.$X_.yXC >.>.>.+.x l q d $   . $   <.-.*.p   o 9 . 9 v >.#.s $ ]   m U.z.'.M.z.&X! #.H K ,.5.G : > yXyXyXyXyXyXyXyX:X",
":XyXyXyXyXyXyXyXyX{ U.wXI.yXC >.>.>.4.<.2.l ,., o B   ; j >.1.%         ; J >.%.H   &   $ %XM.Y.m.P.K...&.k K l G S S V yXyXyXyXyXyXyXyX:X",
":XyXyXyXyXyXyXyXyX{ U.yXP.yXC >.>.#.c l d 5.7.  @X[.O H @.;.t.o z   o 2.& 2.:.>.<.  M P . ~.b.c.I.M.C.tX#.:.v J K q 6.h yXyXyXyXyXyXyXyX:X",
":XyXyXyXyXyXyXyXyX| U.yXP.yXC >.&.,.3.K z 6.f   l.q.% 4.;.+.3.& S O o G O r.$.>.k < j.yXw a I.z.`.z.K.'.=.>.:.v F x <.V yXyXyXyXyXyXyXyX:X",
":XyXyXyXyXyXyXyXyX| /.yXU.yXC >.v g f x S y..   $   z u >.*.0   - y.,.-   ,.@.>.+.F , w.O o OXz.{.b.G.P.=.>.>.;.j G S V yXyXyXyXyXyXyXyX:X",
":XyXyXyXyXyXyXyXyX| /.eX/.yXC u S d.H H t., o N . o y.%.-.7.o o 4.6.7.7.o q v >.:.,.. O ,   Z Z./.M.n.9X=.>.>.>.:.u l 1 yXyXyXyXyXyXyXyX:X",
":XyXyXyXyXyXyXyXyX| /.<X{.yXZ 4.d 9 d.d <.  5X^.. x k >.@.H     G 7.7.F . O 5.;.>.*.p - yXq.o |.x.v./.$X$.>.>.>.>.:.9 ( yXyXyXyXyXyXyXyX:X",
":XyXyXyXyXyXyXyXyX| E.$X$XyXN 3.6.d 5.p.o   5X` O 7.&.>.v % % f - 2.t.&     7.O.>.$.6.* +X`   M K.G.Z.| >.>.>.>.%.Z 0X .yXyXyXyXyXyXyXyX:X",
":XyXyXyXyXyXyXyXyX} /. X,XyXP q K G a.&   o O . 0 i >.O.P P - 9   o . 2.o   s j >.>.k s   w .   k.z.9X! >.>.;.u ^.yXyX .yXyXyXyXyXyXyXyX:X",
":XyXyXyXyXyXyXyXyX| /. X<XyXB ,.l r.9 9 ] N + k._.n >.N L.K.E.O . . - a.p   o t.%.>.%.6.. ; @XM $ _.W.$.:.#.] uXyXyXyX .yXyXyXyXyXyXyXyX:X",
":XyXyXyXyXyXyXyXyX| (.%X%XyX} N S 0   Z yX_ - )./.' O.T./.(.{.( /.k.* + a.s $ H i >.>.k G , yXq.  w / i _ 9XyXyXyXyXyX .yXyXyXyXyXyXyXyX:X",
":XyXyXyXyXyXyXyXyX| (.eX_.yXU.yXk.;   : w , ~ _.v.V.0.=X<X/.P._.).U.'   , G . * H %.$.t <.- $ N   & w.qXyXyXyXyXyXyXyX .yXyXyXyXyXyXyXyX:X",
":XyXyXyXyXyXyXyXyX} (.yX/.yXQ.yXyXrX] &   X.K.v.U.uXyXyXyXqX%XU.&XH.J.} Y.0   & L } W.W./ N . w j.yXyXyXyXyXyXyXyXyXyX .yXyXyXyXyXyXyXyX:X",
":XyXyXyXyXyXyXyXyX} /.yXU.yX/.yXyXyXyX9X) e._.J.yXeX#X5XyXyXyX,X#XP.I.K.(.o.( ).).'.|.).|.XXT.yXyXyXyXyXyXuXyXyXyXyXyX .yXyXyXyXyXyXyXyX:X",
":XyXyXyXyXyXyXyXyX} (.yX`.9X/.yXyXyXyXyXyXH.c.,X,XZ.D.D.I.uXyXyXqXU.(.K.I.K.`.'.).).Q.Q.=X X'.yX}.3 3 3 3 oXyXyXyXyXyX .yXyXyXyXyXyXyXyX:X",
":XyXyXyXyXyXyXyXyX} (.yX`.qX/.yXyXyXyXyXuXx.B./.G.S.U.J.v.V.J.rXyXqXP.A.U./._.`.(.'. XQ.Q.E.,XyXuX#     > yXyXyXyXyXyX .yXyXyXyXyXyXyXyX:X",
":XyXyXyXyXyXyXyXyX} ).yX(.yX/.yXyXyXyXyXqXS.J.Y.%XD.#XJ. X6X(.7XyXyX&Xx.(.`.'.'.'.'./.yXyXyXyXyXyX .    Z.yXyXyXyXyXyX .yXyXyXyXyXyXyXyX:X",
":XyXyXyXyXyXyXyXyX} ).yX(.yX/.yXyXyXyXyXuXF.Q.<XrXI.x.H.E.rX<XyXyXyX9X_._.).'.(._.'. XyX:X^ X 5 :X:X    3X:X5 X ^ :XyX .yXyXyXyXyXyXyXyX:X",
":XyXyXyXyXyXyXyXyX} ).yX(.yX/.yXyXyXyXyXyXU.F.yX9X.XyXqX'.yXyXyXyXyX,X).)._.`.`.).).tX8XX       X ;X@ # :XX       X 0X .yXyXyXyXyXyXyXyX:X",
":XyXyXyXyXyXyXyXyX} ).yX).yX/.yXyXyXyXyXyX.XJ.rX'./.yXyXyX XuXyXyXyX`.'.`.|.'.'.`.`.yX!.          @ 4 4 @           !. .yXyXyXyXyXyXyXyX:X",
":XyXyXyXyXyXyXyXyX} (.yX).yX/.yXyXyXyXyXyXuXB.V.S.S.yXyXP.x.S._.,XyX`.'.(.'.(./.'.=XyX!.                            !. .yXyXyXyXyXyXyXyX:X",
":XyXyXyXyXyXyXyXyX} ).yX'.yXU.yXyXyXyXyXyXuXx.M.b.b.yXyXn.z.z.V.c.5X_.Q.Q._._.(.'.uXyX:X                            3X .yXyXyXyXyXyXyXyX:X",
":XyXyXyXyXyXyXyXyX} (.yX XyXU.yXyXyXyXyXyXqXm.Y./.G.yX.XP.U. X'.=X=X/.Q._.'.{.(.`.yXyXyX5                         5 yX .yXyXyX4   OXyXyX:X",
":XyXyXyXyXyXyXyXyX} (.yX.XyXU.yXyXyXyXyXyXyXZ.B.F.U.yXI.B.x.B.V._..XQ.).{._._.P.).yXyXyX;X                        :XyX .uXR.!.R.# :X .3X:X",
":XyXyXyXyXyXyXyXyX} (.yXwXyXU.yXyXyXyXyXyXuXZ. X=X7XuXyXyXyXyXyXqXI.J.Z.c.b.~ W ( yXyXyXyX}                     ..yXyX .!.    4 4 X   3 :X",
":XyXyXyXyXyXyXyXyX} (.yXyXyXY.yXyXyXyXyXyXk.- < 2 b W W W W W W W b 2 , 7 7 O ; & +XyXyXyXuX4                 5 yXyXyX .!.            3 ;X",
":XyXyXyXyXyXyXyXyX .(.<XyX$X XyXyXyXyXyX<X& $ * 8 &.t - $ = O.+.7 ; = y +.j =   O w yXyXyXyX3XX             @ 2XyXyXyX .0X@           R.:X",
":XyXyXyXyXyXyXyXyX .yX(.U.$XyXyXyXyXyXyXM f - * * c 9 .   O f j : % o 9 d 9 z t.p.o q.yXyXyXyXoX  .         oXyXyXyXyX .yXoX        W uX:X",
":XyXyXyXyXyXyXyXyX .yXyX5XyXyXyXyXyXyXk.. - g.2.O O 9 s.K s.; * 9 s.f.5.o o . h.7.  * tXyXyXyXyXZ.O       R.yXyXyXyXyX .yXyX .    @ 6XyX:X",
":XyXyXyXyXyXyXyXyX .yXyXyXyXyXyXyXyX6X* $ s g.5.$ &   s.g.,.  0   4.g.2.. : s g.g.a.o ` yXyXyXyXyX/     / uXyXyXyXyXyX .yXyXyX5 . ;XyXyX:X",
":XyXyXyXyXyXyXyXyX .yXyXyXyXyXyXyXyXB & r.g.g.a.  o p.g.g.g.p   g g.g.g.5.  l g.g.g.7.0 7XyXyXyXyX0X3 3 rXyXyXyXyXyXyX .yXyXyX8XR.yXyXyX:X",
":XyXyXyXyXyXyXyXyX .yXyXyXyXyXyXyX.XD g.g.g.g.g.l <.g.g.g.g.2.- i.g.g.g.g.p.f.g.g.g.h.i.) yXyXyXyXyXoXOXyXyXyXyXyXyXyX .yXyXyXyXyXyXyXyX:X",
":XyXyXyXyXyXyXyXyX} 0XyXyXyXyXyXrXB f.g.g.g.g.g.g.h.g.g.g.g.g.g.g.g.g.g.g.g.g.g.g.g.g.h.N =XyXyXyXyXuXyXyXyXyXyXyXyXuX| ..4 uXyXyX8X  yX:X",
":XyXyXyXyXyXyXyXyX8X{ }  ... .../ L T T T T T T T T T T T T T T T T T T T T T T T T T T R 6 .. . ... ..... . .....} / 2XuX^ / yXyX8X  uX:X",
":XyXyXyXyXyXyXyXyXyXuXrXrX0X0X0X0XqX0X0X0X0X0X0X0X0X0X0X0X0X0X0X0X0X0X0XeX0X0X0X0XeX0X0XeX9X0X0X0XrX0X0X0X0X0X0X0XrXyXyXyX0X3 !.yX8X  uX:X",
":XyXyXyXyXyXyXyXyXyXyXyXyXyXyXyXyXyXyXyXyXyXyXyXyXyXyXyXyXyXyXyXyXyXyXyXyXyXyXyXyXyXyXyXyXyXyXyXyXyXyXyXyXyXyXyXyXyXyXyXyXyX:XX :XoX  uX:X",
":XyXyXyXyXyXyXyXyXyXyXyXyXyXyXyXyXyXyXyXyXyXyXyXyXyXyXyXyXyXyXyXyXyXyXyXyXyXyXyXyXyXyXyXyXyXyXyXyXyXyXyXyXyXyXyXyXyXyXyXyXyXyX}.# 3   yX:X",
":XyXyXyXyXyXyXyXyXyXyXyXyXyXyXyXyXyXyXyXyXyXyXyXyXyXyXyXyXyXyXyXyXyXyXyXyXyXyXyXyXyXyXyXyXyXyXyXyXyXyXyXyXyXyXyXyXyXyXyXyXyXyXoX3 :X  uX:X",
":XyXyXyXyXyXyXyXyXyXyXyXyXyXyXyXyXyXyXyXyXyXyXyXyXyXyXyXyXyXyXyXyXyXyXyXyXyXyXyXyXyXyXyXyXyXyXyXyXyXyXyXyXyXyXyXyXyXyXyXyXyX;X# 3X8X  uX:X",
":XyXyXyXyXyXyXyXyXyXyXyXyXyXyXyXyXyXyXyXyXyXyXyXyXyXyXyXyXyXyXyXyXyXyXyXyXyXyXyXyXyXyXyXyXyXyXyXyXyXyXyXyXyXyXyXyXyXyXyXyX2X# ;XyX2X  uX:X",
":XyXyXyXyXyXyXyXyXyXyXyXyXyXyXyXyXyXyXyXyXyXyXyXyXyXyXyXyXyXyXyXyXyXyXyXyXyXyXyXyXyXyXyXyXyXyXyXyXyXyXyXyXyXyXyXyXyXyXyX8X3 }.yXyX8X  yX:X",
";XyXyXyXyXyXyXyXyXyXyXyXyXyXyXyXyXyXyXyXyXyXyXyXyXyXyXyXyXyXyXyXyXyXyXyXyXyXyXyXyXyXyXyXyXyXyXyXyXyXyXyXyXyXyXyXyXyXyXyXyXyXyXyXyXyXyXyX;X",
"uX;X:X:X:X:X:X:X:X:X:X:X:X:X:X:X:X:X:X:X:X:X:X:X:X:X:X:X:X:X:X:X:X:X:X:X:X:X:X:X:X:X:X:X:X:X:X:X:X:X:X:X:X:X:X:X:X:X:X:X:X:X:X:X:X:X:X;XuX"
};
