/* XPM */
static const char *nine_spades[] = {
/* columns rows colors chars-per-pixel */
"69 100 250 2 ",
"   c black",
".  c #010101",
"X  c #020202",
"o  c gray1",
"O  c #040404",
"+  c gray2",
"@  c #060606",
"#  c #070707",
"$  c gray3",
"%  c #090909",
"&  c gray4",
"*  c #0B0B0B",
"=  c #0C0C0C",
"-  c gray5",
";  c #0E0E0E",
":  c gray6",
">  c #101010",
",  c #111111",
"<  c gray7",
"1  c #131313",
"2  c gray8",
"3  c #151515",
"4  c #161616",
"5  c gray9",
"6  c #181818",
"7  c #191919",
"8  c gray10",
"9  c #1B1B1B",
"0  c gray11",
"q  c #1D1D1D",
"w  c #1E1E1E",
"e  c gray12",
"r  c #202020",
"t  c gray13",
"y  c #222222",
"u  c #232323",
"i  c gray14",
"p  c #252525",
"a  c gray15",
"s  c #272727",
"d  c #282828",
"f  c gray16",
"g  c #2A2A2A",
"h  c gray17",
"j  c #2C2C2C",
"k  c #2D2D2D",
"l  c gray18",
"z  c #2F2F2F",
"x  c gray19",
"c  c #313131",
"v  c #323232",
"b  c gray20",
"n  c #343434",
"m  c #353535",
"M  c gray21",
"N  c #373737",
"B  c gray22",
"V  c #393939",
"C  c #3A3A3A",
"Z  c gray23",
"A  c #3C3C3C",
"S  c gray24",
"D  c #3E3E3E",
"F  c #3F3F3F",
"G  c gray25",
"H  c #414141",
"J  c gray26",
"K  c #434343",
"L  c #444444",
"P  c gray27",
"I  c #464646",
"U  c gray28",
"Y  c #484848",
"T  c #494949",
"R  c gray29",
"E  c #4B4B4B",
"W  c #4C4C4C",
"Q  c gray30",
"!  c #4E4E4E",
"~  c gray31",
"^  c #505050",
"/  c gray32",
"(  c #535353",
")  c gray33",
"_  c #555555",
"`  c #565656",
"'  c gray34",
"]  c #585858",
"[  c gray35",
"{  c #5A5A5A",
"}  c #5B5B5B",
"|  c gray36",
" . c #5D5D5D",
".. c gray37",
"X. c #5F5F5F",
"o. c #606060",
"O. c gray38",
"+. c #626262",
"@. c gray39",
"#. c #646464",
"$. c #656565",
"%. c gray40",
"&. c #676767",
"*. c #686868",
"=. c DimGray",
"-. c #6A6A6A",
";. c gray42",
":. c #6C6C6C",
">. c #6D6D6D",
",. c gray43",
"<. c #6F6F6F",
"1. c gray44",
"2. c #727272",
"3. c gray45",
"4. c #747474",
"5. c gray46",
"6. c #767676",
"7. c #777777",
"8. c gray47",
"9. c #797979",
"0. c gray48",
"q. c #7B7B7B",
"w. c #7C7C7C",
"e. c gray49",
"r. c #7E7E7E",
"t. c gray50",
"y. c #808080",
"u. c #818181",
"i. c gray51",
"p. c #838383",
"a. c #848484",
"s. c #868686",
"d. c gray53",
"f. c #888888",
"g. c #898989",
"h. c gray54",
"j. c #8B8B8B",
"k. c #8D8D8D",
"l. c #8E8E8E",
"z. c #909090",
"x. c gray57",
"c. c #929292",
"v. c #939393",
"b. c gray58",
"n. c #959595",
"m. c gray59",
"M. c #979797",
"N. c #989898",
"B. c gray60",
"V. c #9A9A9A",
"C. c #9B9B9B",
"Z. c gray61",
"A. c #9D9D9D",
"S. c gray62",
"D. c #9F9F9F",
"F. c #A0A0A0",
"G. c gray63",
"H. c #A2A2A2",
"J. c gray64",
"K. c #A4A4A4",
"L. c #A5A5A5",
"P. c gray65",
"I. c #A7A7A7",
"U. c gray66",
"Y. c #A9A9A9",
"T. c #AAAAAA",
"R. c gray67",
"E. c #ACACAC",
"W. c gray68",
"Q. c #AEAEAE",
"!. c #AFAFAF",
"~. c gray69",
"^. c #B1B1B1",
"/. c #B2B2B2",
"(. c gray70",
"). c #B4B4B4",
"_. c gray71",
"`. c #B6B6B6",
"'. c #B7B7B7",
"]. c gray72",
"[. c #B9B9B9",
"{. c gray73",
"}. c #BBBBBB",
"|. c #BCBCBC",
" X c gray74",
".X c gray",
"XX c gray75",
"oX c #C0C0C0",
"OX c #C1C1C1",
"+X c gray76",
"@X c #C3C3C3",
"#X c gray77",
"$X c #C5C5C5",
"%X c #C6C6C6",
"&X c gray78",
"*X c #C8C8C8",
"=X c gray79",
"-X c #CACACA",
";X c #CBCBCB",
":X c gray80",
">X c #CDCDCD",
",X c #CECECE",
"<X c gray81",
"1X c gray82",
"2X c #D2D2D2",
"3X c LightGray",
"4X c gray83",
"5X c #D5D5D5",
"6X c gray84",
"7X c #D7D7D7",
"8X c #D8D8D8",
"9X c gray85",
"0X c #DADADA",
"qX c gray86",
"wX c gainsboro",
"eX c #DDDDDD",
"rX c gray87",
"tX c #DFDFDF",
"yX c gray88",
"uX c #E1E1E1",
"iX c #E2E2E2",
"pX c gray89",
"aX c #E4E4E4",
"sX c gray90",
"dX c #E6E6E6",
"fX c #E7E7E7",
"gX c gray91",
"hX c #E9E9E9",
"jX c #EAEAEA",
"kX c gray92",
"lX c #ECECEC",
"zX c gray93",
"xX c #EEEEEE",
"cX c #EFEFEF",
"vX c gray94",
"bX c #F1F1F1",
"nX c gray95",
"mX c #F3F3F3",
"MX c #F4F4F4",
"NX c gray96",
"BX c #F6F6F6",
"VX c gray97",
"CX c #F8F8F8",
"ZX c #F9F9F9",
"AX c gray98",
"SX c #FBFBFB",
"DX c gray99",
"FX c #FDFDFD",
"GX c #FEFEFE",
"HX c white",
/* pixels */
"AX+X;X:X:X:X:X:X:X:X:X:X:X:X:X:X:X:X:X:X:X:X:X:X:X:X:X:X:X:X:X:X:X:X:X:X:X:X:X:X:X:X:X:X:X:X:X:X:X:X:X:X:X:X:X:X:X:X:X:X:X:X:X:X:X:X;X+XAX",
"@XGXHXHXHXHXHXHXHXHXHXHXHXHXHXHXHXHXHXHXHXHXHXHXHXHXHXHXHXHXHXHXHXHXHXHXHXHXHXHXHXHXHXHXHXHXHXHXHXHXHXHXHXHXHXHXHXHXHXHXHXHXHXHXHXHXHXGX#X",
";XHXHXHXHXHXHXHXHXHXHXHXHXHXHXHXHXHXHXHXHXvXFXHXHXHXHXHXHXHXHXHXHXHXHXHXHXHXHXHXHXHXHXHXHXHXHXdXHXHXHXHXHXHXHXHXHXHXHXHXHXHXHXHXHXHXHXHX;X",
";XHXHXHXHX@XM : y T.HXHXHXHXHXHXHXHXHXHXHXq.Y.HXHXHXHXHXHXHXHXHXHXHXHXHXHXHXHXHXHXHXHXHXHXHXhXl MXHXHXHXHXHXHXHXHXHXHXHXHXHXHXHXHXHXHXHX;X",
";XHXHXHXlX> A.FX X& 8XHXHXHXHXHXHXHXHXHX*X+ 3 dXHXHXHXHXHXHXHXHXHXHXHXHXHXHXHXHXHXHXHXHXHXGXE   @.HXHXHXHXHXHXHXHXHXHXHXHXHXHXHXHXHXHXHX;X",
";XHXHXHX/.t HXHXHX( t.HXHXHXHXHXHXHXHXlXt     C ZXHXHXHXHXHXHXHXHXHXHXHXHXHXHXHXHXHXHXHXHXp.      V.HXHXHXHXHXHXHXHXHXHXHXHXHXHXHXHXHXHX;X",
";XHXHXHX(.r HXHXHXo.] HXHXHXHXHXHXHXSXH         -.HXHXHXHXHXHXHXHXHXHXHXHXHXHXHXHXHXHXHX].o       + +XHXHXHXHXHXHXHXHXHXHXHXHXHXHXHXHXHX;X",
";XHXHXHXzX> A.FX$X6 ~ HXHXHXHXHXHXHX>.            V.HXHXHXHXHXHXHXHXHXHXHXHXHXHXHXHXHX9X>           6 aXHXHXHXHXHXHXHXHXHXHXHXHXHXHXHXHX;X",
";XHXHXHXHX+XB q ` #.O.HXHXHXHXHXHXF.              # &XHXHXHXHXHXHXHXHXHXHXHXHXHXHXHXnXd               V ZXHXHXHXHXHXHXHXHXHXHXHXHXHXHXHX;X",
";XHXHXHXHXHXHXHXHXH b.HXHXHXHXHX1X&                 0 jXHXHXHXHXHXHXHXHXHXHXHXHXHXGX_                   >.HXHXHXHXHXHXHXHXHXHXHXHXHXHXHX;X",
";XHXHXHXMXe OXGXL.1 zXHXHXHXHXvXy                     I FXHXHXHXHXHXHXHXHXHXHXHXHXz.                      T.HXHXHXHXHXHXHXHXHXHXHXHXHXHX;X",
";XHXHXHXHXU.y : b *XHXHXHXHXHXO.                        x.HXHXHXHXHXHXHXHXHXHXHX7X%                       > pXHXHXHXHXHXHXHXHXHXHXHXHXHX;X",
";XHXHXHXHXHXZXnXHXHXHXHXHXHX`.                          & qXHXHXHXHXHXHXHXHXHXGXN                           ! HXHXHXHXHXHXHXHXHXHXHXHXHX;X",
";XHXHXHXHXHXs.4.HXHXHXHXHXDXh                             ' HXHXHXHXHXHXHXHXHXU.                              .XHXHXHXHXHXHXHXHXHXHXHXHX;X",
";XHXHXHXHX@X+ . T.HXHXHXHXY.                              . 6XHXHXHXHXHXHXHXHXk                               P HXHXHXHXHXHXHXHXHXHXHXHX;X",
";XHXHXHXuX3     = 4XHXHXHX..                                j.HXHXHXHXHXHXHXsX                                @ MXHXHXHXHXHXHXHXHXHXHXHX;X",
";XHXHXSXV         g NXHXHXn               . .               O.HXHXHXz.bXHXHX.X              o   o               5XHXHXHXHXHXHXHXHXHXHXHX;X",
";XHXHX7.            %.HXHXW             +.* x M             q.HXHXqX- *.HXHXqX            , ;.  ,.@           o vXHXHXHXHXHXHXHXHXHXHXHX;X",
";XHX*XX               '.HX!.          P 7X  : tX9         # 8XHXBXc     Y.HXHXU         %  X+.  9.V.X         o.HXHXHXHXHXHXHXHXHXHXHXHX;X",
";XHX!                 Z HXHXc.;   X $.CXx.    .XaXZ     9 ).HXHXo.      % >XHXxX] +   p ;XFX6   j HX!.6   $ &.NXHXHXHXHXHXHXHXHXHXHXHXHX;X",
";XHXq       @ @       & HXHXHXZX5XpXHXHXH     ,.HXHX9XwXFXHXHXj.          e jXHXHXZXiXFXHX#X      0XHXDXiXSXHXHXHXHXHXHXHXHXHXHXHXHXHXHX;X",
";XHX(     i @._ g     J HXHXHXHXHXHXHXwXX     1 VXHXHXHXHXHX}.o             K SXHXHXHXHXHXX.      7.HXHXHXHXHXHXHXHXHXHXHXHXHXHXHXHXHXHX;X",
";XHXcXy.9.jXz q lXe.q.jXHXHXHXHXHXHXHX3.        G.HXHXHXHXiX2                 6.HXHXHXHXjX%       4 NXHXHXHXHXHXHXHXHXHXHXHXHXHXHXHXHXHX;X",
";XHXHXHXHX1X     XHXHXHXHXHXHXHXHXHXNX<.%.%.%.%.p.GXHXHXCXm                   . ~.HXHXHX*Xf.f.f.f.f.3XHXHXHXHXHXHXHXHXHXHXHXHXHXHXHXHXHX;X",
";XHXHXHXHX^.7.7.P.HXHXHXHXHXHXHXHXHXHXHXHXHXHXHXHXHXHXHX4.                      > pXHXHXHXHXHXHXHXHXHXHXHXHXHXHXHXHXHXHXHXHXHXHXHXHXHXHX;X",
";XHXHXHXHXHXHXHXHXHXHXHXHXHXHXHXHXHXHXHXHXHXHXHXHXHXHX%Xo                         I GXHXHXHXHXHXHXHXHXHXHXHXHXHXHXHXHXHXHXHXHXHXHXHXHXHX;X",
";XHXHXHXHXHXHXHXHXHXHXHXHXHXHXHXHXHXHXHXHXHXHXHXHXHXGXc                             ~.HXHXHXHXHXHXHXHXHXHXHXHXHXHXHXHXHXHXHXHXHXHXHXHXHX;X",
";XHXHXHXHXHXHXHXHXHXHXHXHXHXHXHXHXHXHXHXHXHXHXHXHXHXU.                              j FXHXHXHXHXHXHXHXHXHXHXHXHXHXHXHXHXHXHXHXHXHXHXHXHX;X",
";XHXHXHXHXHXHXHXHXHXHXHXHXHXHXHXHXHXHXHXHXCXxXHXHXHXE                                 >XHXHXHXrXHXHXHXHXHXHXHXHXHXHXHXHXHXHXHXHXHXHXHXHX;X",
";XHXHXHXHXHXHXHXHXHXHXHXHXHXHXHXHXHXHXHXHXb.e.HXHXHX,                                 x.HXHXmXs eXHXHXHXHXHXHXHXHXHXHXHXHXHXHXHXHXHXHXHX;X",
";XHXHXHXHXHXHXHXHXHXHXHXHXHXHXHXHXHXHXHX8X* + =XHXHX1             b   k o             b.HXHXO.  B AXHXHXHXHXHXHXHXHXHXHXHXHXHXHXHXHXHXHX;X",
";XHXHXHXHXHXHXHXHXHXHXHXHXHXHXHXHXHXHXmXj     w hXHX]           f '.  T f.          X 8XHXF.      >.HXHXHXHXHXHXHXHXHXHXHXHXHXHXHXHXHXHX;X",
";XHXHXHXHXHXHXHXHXHXHXHXHXHXHXHXHXHXGX_         Z ZXpXu       v aXi.  * BXy..     . d.HX%X#         C.HXHXHXHXHXHXHXHXHXHXHXHXHXHXHXHXHX;X",
";XHXHXHXHXHXHXHXHXHXHXHXHXHXHXHXHXHXy.            :.HXMXG.6.M.BXHXm     _.HX%X8.f.>XHXfX9           + @XHXHXHXHXHXHXHXHXHXHXHXHXHXHXHXHX;X",
";XHXHXHXHXHXHXHXHXHXHXHXHXHXHXHXHX/.X               S.HXHXHXHXHX7X.     ] HXHXHXHXHXZXB               8 fXHXHXHXHXHXHXHXHXHXHXHXHXHXHXHX;X",
";XHXHXHXHXHXHXHXHXHXHXHXHXHXHXHXtX<                 $ >XHXHXHXHX<.      @ hXHXHXHXHX=.                  G SXHXHXHXHXHXHXHXHXHXHXHXHXHXHX;X",
";XHXHXHXHXHXHXHXHXHXHXHXHXHXHXCXx                     u nXHXHXfXq , , , , r.HXHXHXI.                      q.HXHXHXHXHXHXHXHXHXHXHXHXHXHX;X",
";XHXHXHXHXHXHXHXHXHXHXHXHXHXHX7.                        @.HXHXHXHXHXHXHXHXHXHXHXsX<                       X +XHXHXHXHXHXHXHXHXHXHXHXHXHX;X",
";XHXHXHXHXHXHXHXHXHXHXHXHXHX;Xo                           '.HXHXHXHXHXHXHXHXHXHX~                           s AXHXHXHXHXHXHXHXHXHXHXHXHX;X",
";XHXHXHXHXHXHXHXHXHXHXHXHXHXJ                             j FXHXHXHXHXHXHXHXHX@X                              n.HXHXHXHXHXHXHXHXHXHXHXHX;X",
";XHXHXHXHXHXHXHXHXHXHXHXHX$X                                W.HXHXHXHXHXHXHXHXR                               q GXHXHXHXHXHXHXHXHXHXHXHX;X",
";XHXHXHXHXHXHXHXHXHXHXHXHXw.                                #.HXHXHXHXHXHXHXZX*                                 3XHXHXHXHXHXHXHXHXHXHXHX;X",
";XHXHXHXHXHXHXHXHXHXHXHXHX`               X X               D HXHXHXHXHXHXHXuX              +   +               (.HXHXHXHXHXHXHXHXHXHXHX;X",
";XHXHXHXHXHXHXHXHXHXHXHXHX3.            ^ f 1 X.            | HXHXHXHXHXHXHXCX&           & r.  *.5             5XHXHXHXHXHXHXHXHXHXHXHX;X",
";XHXHXHXHXHXHXHXHXHXHXHXHX5X#         N gX#   0XC         o #XHXHXHXHXHXHXHXHX5.        @ Q.y.  / +X=         Y HXHXHXHXHXHXHXHXHXHXHXHX;X",
";XHXHXHXHXHXHXHXHXHXHXHXHXHX[.p   X ..NXW.    m.BX+.o   q T.HXHXHXHXHXHXHXHXHXSXe.5   p +XHXn   = CX1Xn   : @.bXHXHXHXHXHXHXHXHXHXHXHXHX;X",
";XHXHXHXHXHXHXHXHXHXHXHXHXHXHXHXkXkXHXHX .    P HXHXcXgXHXHXHXHXHXHXHXHXHXHXHXHXHXHXmXHXHXyX.     /.HXHXmXHXHXHXHXHXHXHXHXHXHXHXHXHXHXHX;X",
";XHXHXHXHXHXHXHXHXHXHXHXHXHXHXHXHXHXHXcX&     . wXHXHXHXHXHXHXHXHXHXHXHXHXHXHXHXHXHXHXHXHXq.      ~ HXHXHXHXHXHXHXHXHXHXHXHXHXHXHXHXHXHX;X",
";XHXHXHXHXHXHXHXHXHXHXHXHXHXHXHXHXHXHXl.        7.HXHXHXHXHXHXHXHXHXHXHXHXHXHXHXHXHXHXHXBX7       O rXHXHXHXHXHXHXHXHXHXHXHXHXHXHXHXHXHX;X",
";XHXHXHXHXHXHXHXHXHXHXHXHXHXHXHXHXHXDXg.7.7.7.7.u.CXHXHXHXHXHXHXHXHXHXHXHXHXHXHXHXHXHXHXwXB.B.B.B.B.=XHXHXHXHXHXHXHXHXHXHXHXHXHXHXHXHXHX;X",
";XHXHXHXHXHXHXHXHXHXHXHXHXHXHXHXHXHXHXHXHXHXHXHXHXHXHXHXHXHXHXHXHXHXHXHXHXHXHXHXHXHXHXHXHXHXHXHXHXHXHXHXHXHXHXHXHXHXHXHXHXHXHXHXHXHXHXHX;X",
";XHXHXHXHXHXHXHXHXHXHXHXHXHXHXHXHXHXGXeXeXeXeXeXeXCXHXHXHXHXHXHXHXHXHXHXHXHXHXHXHXHXHXHXhX:X:X:X:X:XqXHXHXHXHXHXHXHXHXHXHXHXHXHXHXHXHXHX;X",
";XHXHXHXHXHXHXHXHXHXHXHXHXHXHXHXHXHXHX*.        Z FXHXHXHXHXHXHXHXHXHXHXHXHXHXHXHXHXHXHXzX,         ].HXHXHXHXHXHXHXHXHXHXHXHXHXHXHXHXHX;X",
";XHXHXHXHXHXHXHXHXHXHXHXHXHXHXHXHXHXHXeXX       Q.HXHXHXHXHXHXHXHXHXHXHXHXHXHXHXHXHXHXHXHX1.      f GXHXHXHXHXHXHXHXHXHXHXHXHXHXHXHXHXHX;X",
";XHXHXHXHXHXHXHXHXHXHXHXHXHXHXHXHXHXHXHXP     7 AXHXHXHXHXHXHXHXHXHXHXHXHXHXHXHXHXHXHXHXHX7X      z.HXHXHXHXHXHXHXHXHXHXHXHXHXHXHXHXHXHX;X",
";XHXHXHXHXHXHXHXHXHXHXHXHXHXNXg.~ R R.HXA.    >.HX,X' I 0.fXHXHXHXHXHXHXHXHXHXHX|.) l ' 8XHXz   . sXCX9.z I n.FXHXHXHXHXHXHXHXHXHXHXHXHX;X",
";XHXHXHXHXHXHXHXHXHXHXHXHXVXM         1.fXX   {.R.%       8 aXHXHXHXHXHXHXHXHXU..       > XXq.  n vXZ         #.HXHXHXHXHXHXHXHXHXHXHXHX;X",
";XHXHXHXHXHXHXHXHXHXHXHXHXZ.            f.g X ].@           >.HXHXHXHXHXHXHXHXt           , b.  :.I           . 9XHXHXHXHXHXHXHXHXHXHXHX;X",
";XHXHXHXHXHXHXHXHXHXHXHXHX%.            o 5 % 1             M HXHXHXHXHXHXHXvX              1   3               U.HXHXHXHXHXHXHXHXHXHXHX;X",
";XHXHXHXHXHXHXHXHXHXHXHXHX2.                                G HXHXHXHXHXHXHXCX%                                 ].HXHXHXHXHXHXHXHXHXHXHX;X",
";XHXHXHXHXHXHXHXHXHXHXHXHX/.                                u.HXHXHXHXHXHXHXHXK                               # MXHXHXHXHXHXHXHXHXHXHXHX;X",
";XHXHXHXHXHXHXHXHXHXHXHXHXAXu                             $ iXHXHXHXHXHXHXHXHX^.                              ;.HXHXHXHXHXHXHXHXHXHXHXHX;X",
";XHXHXHXHXHXHXHXHXHXHXHXHXHXJ.                            3.HXHXHXHXHXHXHXHXHXHXC                           = dXHXHXHXHXHXHXHXHXHXHXHXHX;X",
";XHXHXHXHXHXHXHXHXHXHXHXHXHXGXY                         t nXHXHXHXHXHXHXHXHXHXHX6X%                         N.HXHXHXHXHXHXHXHXHXHXHXHXHX;X",
";XHXHXHXHXHXHXHXHXHXHXHXHXHXHXiX>                     X OXHXHXHXHXHXHXHXHXHXHXHXHXj.                      Y GXHXHXHXHXHXHXHXHXHXHXHXHXHX;X",
";XHXHXHXHXHXHXHXHXHXHXHXHXHXHXHX/..                   u.HXHXHXHXHXHXHXHXHXHXHXHXHXGX^                   6 fXHXHXHXHXHXHXHXHXHXHXHXHXHXHX;X",
";XHXHXHXHXHXHXHXHXHXHXHXHXHXHXHXHX6.                U FXHXHXHXHXHXHXHXHXHXHXHXHXHXHXxXy               + #XHXHXHXHXHXHXHXHXHXHXHXHXHXHXHX;X",
";XHXHXHXHXHXHXHXHXHXHXHXHXHXHXHXHXFXT             r kXHXHXHXHXHXHXHXHXHXHXHXHXHXHXHXHX1X*             m.HXHXHXHXHXHXHXHXHXHXHXHXHXHXHXHX;X",
";XHXHXHXHXHXHXHXHXHXHXHXHXHXHXHXHXHXxXi         = 2XHXHXHXHXHXHXHXHXHXHXHXHXHXHXHXHXHXHXQ..         X.HXHXHXHXHXHXHXHXHXHXHXHXHXHXHXHXHX;X",
";XHXHXHXHXHXHXHXHXHXHXHXHXHXHXHXHXHXHX6X;     . Y.HXHXHXHXHXHXHXHXHXHXHXHXHXHXHXHXHXHXHXHX9.      V CXHXHXHXHXHXHXHXHXHXHXHXHXHXHXHXHXHX;X",
";XHXHXHXHXHXHXHXHXHXHXHXHXHXHXHXHXHXHXHXU.    9.HXHXHXHXHXHXHXHXHXHXHXHXHXHXHXHXHXHXHXHXHXFXI   4 dXHXHXHXHXHXHXHXHXHXHXHXHXHXHXHXHXHXHX;X",
";XHXHXHXHXHXHXHXHXHXHXHXHXHXHXHXHXHXHXHXHX@.N SXHXHXHXHXHXHXHXHXHXHXHXHXHXHXHXHXHXHXHXHXHXHXfX3 _.HXHXHXHXHXHXHXHXHXHXHXHXHXHXHXHXHXHXHX;X",
";XHXHXHXHXHXHXHXHXHXHXHXHXHXHXHXHXHXHXHXHXgX$XHXHXHXHXHXHXHXHXHXHXHXHXHXHXHXHXHXHXHXHXHXHXHXHX XHXHXHXHXHXHXHXHXHXHXHXHXHXHXHXHXHXHXHXHX;X",
";XHXHXHXHXHXHXHXHXHXHXHXHXHXHXHXHXHXHXHXHXHXHXHXHXHXHXHXHXHXHXHXHXHXHXHXHXHXHXHXHXHXHXHXHXHXHXHXHXHXHXHXHXHXHXHXHXHXHXHXHXHXHXHXHXHXHXHX;X",
";XHXHXHXHXHXHXHXHXHXHXHXHXHXHXHXHXHXHXHXHXHXHXHXHXHXHXHXHXHXHXHXHXHXHXHXHXHXHXHXHXHXHXHXHXHXHXHXHXHXHXHXHXHXHXHXHXHXHXHXHXHXHXHXHXHXHXHX;X",
";XHXHXHXHXHXHXHXHXHXHXHXHXHXHXHXHXHXHXHXHXHXHXHXHXHXHXHXHXHXHXHXHXHXHXHXHXHXHXHXHXHXHXHXHXHXHXHXHXHXHXHXHXHXHXHXHXHXHXHX$XT.T.&XHXHXHXHX;X",
";XHXHXHXHXHXHXHXHXHXHXHXHXHXHXHXHXHXHXHXHXHXHXHXHXHXHXHXHXHXHXHXHXHXHXHXHXHXHXHXHXHXHXHXHXHXHXHXHXHXHXHXHXHXHXHXHXHXHXHX!.    `.HXHXHXHX;X",
";XHXHXHXHXHXHXHXHXHXHXHXHXHXHXHXHXHXHXe.y y y y k hXHXHXHXHXHXHXHXHXHXHXHXHXHXHXHXHXHXHXkXt , , , , 0.HXHXHXHXHXHXSXT.Y.BX4 0 CXI.W.DXHX;X",
";XHXHXHXHXHXHXHXHXHXHXHXHXHXHXHXHXHXHXuXo       <.HXHXHXHXHXHXHXHXHXHXHXHXHXHXHXHXHXHXHXHX7.      O sXHXHXHXHXHXHX .    P { O.U     %.HX;X",
";XHXHXHXHXHXHXHXHXHXHXHXHXHXHXHXHXHXHXHXR       4XHXHXHXHXHXHXHXHXHXHXHXHXHXHXHXHXHXHXHXHXeXX     ( HXHXHXHXHXHXHX,       , <       6 HX;X",
";XHXHXHXHXHXHXHXHXHXHXHXHXHXHX0XV.k.8XHXY.    n HXAXU.j._.SXHXHXHXHXHXHXHXHXHXHXNXH.7.x.bXHXA     !.HX<X8.d.-XHXHXv                 C HX;X",
";XHXHXHXHXHXHXHXHXHXHXHXHXHXx.o     + M.bX@   i.jXS       b zXHXHXHXHXHXHXHXHXsXa       i 6Xg.  $ MXm.O     . y.HXK.                E.HX;X",
";XHXHXHXHXHXHXHXHXHXHXHXHX8Xo           Z.F    Xc           &.HXHXHXHXHXHXHXHX..          9 `.  J D.          . 1XGX!             / HXHX;X",
";XHXHXHXHXHXHXHXHXHXHXHXHXx.            # v   D             0 HXHXHXHXHXHXHXHX8             z   k @             k.HXjX7         0 lXHXHX;X",
";XHXHXHXHXHXHXHXHXHXHXHXHXh.                                1 HXHXHXHXHXHXHXHX6                                 h.HXHXoX+     @ %XHXHXHX;X",
";XHXHXHXHXHXHXHXHXHXHXHXHX+X                                Q HXHXHXHXHXHXHXHX/                                 %XHXHXHXc.    V.HXHXHXHX;X",
";XHXHXHXHXHXHXHXHXHXHXHXHXAXr                               L.HXHXHXHXHXHXHXHX~.                              s DXHXHXHXHX} @.HXHXHXHXHX;X",
";XHXHXHXHXHXHXHXHXHXHXHXHXHXG.                            k FXHXHXHXHXHXHXHXHXHXV                             R.HXHXHXHXHXjXxXHXHXHXHXHX;X",
";XHXHXHXHXHXHXHXHXHXHXHXHXHXDXC                         X oXHXHXHXHXHXHXHXHXHXHX,X+                         L GXHXHXHXHXHXHXHXHXHXHXHXHX;X",
";XHXHXHXHXHXHXHXHXHXHXHXHXHXHXeX=                       2.HXHXHXHXHXHXHXHXHXHXHXHXr.                      : uXHXHXHXHXHX&Xb > i R.HXHXHX;X",
";XHXHXHXHXHXHXHXHXHXHXHXHXHXHXHXZ.                    c VXHXHXHXHXHXHXHXHXHXHXHXHXSXS                   . R.HXHXHXHXHXkX, L.GXOXe NXHXHX;X",
";XHXHXHXHXHXHXHXHXHXHXHXHXHXHXHXHX@.                > wXHXHXHXHXHXHXHXHXHXHXHXHXHXHXfX7                 2.HXHXHXHXHXHXc.J HXHXHXHXHXHXHX;X",
";XHXHXHXHXHXHXHXHXHXHXHXHXHXHXHXHXVXn             X /.HXHXHXHXHXHXHXHXHXHXHXHXHXHXHXHXOX+             D AXHXHXHXHXHXHXX.%.[ w V $XHXHXHX;X",
";XHXHXHXHXHXHXHXHXHXHXHXHXHXHXHXHXHXdX8           a.HXHXHXHXHXHXHXHXHXHXHXHXHXHXHXHXHXHXb.          w hXHXHXHXHXHXHXHX~ 6 $XFXZ.< xXHXHX;X",
";XHXHXHXHXHXHXHXHXHXHXHXHXHXHXHXHXHXHX$X@       ^ GXHXHXHXHXHXHXHXHXHXHXHXHXHXHXHXHXHXHXHX$.      $ -XHXHXHXHXHXHXHXHX` O.HXHXHXe ).HXHX;X",
";XHXHXHXHXHXHXHXHXHXHXHXHXHXHXHXHXHXHXHXn.    j mXHXHXHXHXHXHXHXHXHXHXHXHXHXHXHXHXHXHXHXHXCXN     J.HXHXHXHXHXHXHXHXHXe._ HXHXHXt (.HXHX;X",
";XHXHXHXHXHXHXHXHXHXHXHXHXHXHXHXHXHXHXHXHX] $ 1XHXHXHXHXHXHXHXHXHXHXHXHXHXHXHXHXHXHXHXHXHXHXrX: O.HXHXHXHXHXHXHXHXHXHX4X% XXGXD.> kXHXHX;X",
";XHXHXHXHXHXHXHXHXHXHXHXHXHXHXHXHXHXHXHXHXhXs.HXHXHXHXHXHXHXHXHXHXHXHXHXHXHXHXHXHXHXHXHXHXHXHXv.xXHXHXHXHXHXHXHXHXHXHXHXP.r ; m OXHXHXHX;X",
"@XGXHXHXHXHXHXHXHXHXHXHXHXHXHXHXHXHXHXHXHXHXGXHXHXHXHXHXHXHXHXHXHXHXHXHXHXHXHXHXHXHXHXHXHXHXHXHXHXHXHXHXHXHXHXHXHXHXHXHXHXHXHXHXHXHXHXGX#X",
"AX+X;X:X:X:X:X:X:X:X:X:X:X:X:X:X:X:X:X:X:X:X:X:X:X:X:X:X:X:X:X:X:X:X:X:X:X:X:X:X:X:X:X:X:X:X:X:X:X:X:X:X:X:X:X:X:X:X:X:X:X:X:X:X:X:X;X+XAX"
};
