/* XPM */
static const char *nine_clubs[] = {
/* columns rows colors chars-per-pixel */
"69 100 251 2 ",
"   c black",
".  c #010101",
"X  c #020202",
"o  c gray1",
"O  c #040404",
"+  c gray2",
"@  c #060606",
"#  c #070707",
"$  c gray3",
"%  c #090909",
"&  c gray4",
"*  c #0B0B0B",
"=  c #0C0C0C",
"-  c gray5",
";  c #0E0E0E",
":  c gray6",
">  c #101010",
",  c #111111",
"<  c gray7",
"1  c #131313",
"2  c gray8",
"3  c #151515",
"4  c #161616",
"5  c gray9",
"6  c #181818",
"7  c #191919",
"8  c gray10",
"9  c #1B1B1B",
"0  c gray11",
"q  c #1D1D1D",
"w  c #1E1E1E",
"e  c gray12",
"r  c #202020",
"t  c gray13",
"y  c #222222",
"u  c #232323",
"i  c gray14",
"p  c #252525",
"a  c gray15",
"s  c #272727",
"d  c #282828",
"f  c gray16",
"g  c #2A2A2A",
"h  c gray17",
"j  c #2C2C2C",
"k  c #2D2D2D",
"l  c gray18",
"z  c #2F2F2F",
"x  c gray19",
"c  c #313131",
"v  c gray20",
"b  c #343434",
"n  c #353535",
"m  c gray21",
"M  c #373737",
"N  c gray22",
"B  c #393939",
"V  c #3A3A3A",
"C  c gray23",
"Z  c #3C3C3C",
"A  c #3E3E3E",
"S  c #3F3F3F",
"D  c gray25",
"F  c #414141",
"G  c gray26",
"H  c #434343",
"J  c #444444",
"K  c gray27",
"L  c #464646",
"P  c gray28",
"I  c #484848",
"U  c #494949",
"Y  c gray29",
"T  c #4B4B4B",
"R  c #4C4C4C",
"E  c gray30",
"W  c #4E4E4E",
"Q  c gray31",
"!  c #505050",
"~  c #515151",
"^  c gray32",
"/  c #535353",
"(  c gray33",
")  c #555555",
"_  c #565656",
"`  c gray34",
"'  c #585858",
"]  c gray35",
"[  c #5A5A5A",
"{  c #5B5B5B",
"}  c gray36",
"|  c #5D5D5D",
" . c gray37",
".. c #5F5F5F",
"X. c #606060",
"o. c gray38",
"O. c #626262",
"+. c gray39",
"@. c #646464",
"#. c #656565",
"$. c gray40",
"%. c #676767",
"&. c #686868",
"*. c DimGray",
"=. c #6A6A6A",
"-. c gray42",
";. c #6C6C6C",
":. c #6D6D6D",
">. c gray43",
",. c #6F6F6F",
"<. c gray44",
"1. c #717171",
"2. c #727272",
"3. c gray45",
"4. c #747474",
"5. c gray46",
"6. c #767676",
"7. c #777777",
"8. c gray47",
"9. c #797979",
"0. c gray48",
"q. c #7B7B7B",
"w. c #7C7C7C",
"e. c gray49",
"r. c #7E7E7E",
"t. c gray50",
"y. c #808080",
"u. c #818181",
"i. c gray51",
"p. c #838383",
"a. c #848484",
"s. c gray52",
"d. c #868686",
"f. c gray53",
"g. c #888888",
"h. c #898989",
"j. c gray54",
"k. c #8B8B8B",
"l. c gray55",
"z. c #8D8D8D",
"x. c #8E8E8E",
"c. c gray56",
"v. c #909090",
"b. c gray57",
"n. c #929292",
"m. c #939393",
"M. c gray58",
"N. c #959595",
"B. c #979797",
"V. c #989898",
"C. c gray60",
"Z. c #9A9A9A",
"A. c #9B9B9B",
"S. c gray61",
"D. c #9D9D9D",
"F. c gray62",
"G. c #9F9F9F",
"H. c #A0A0A0",
"J. c gray63",
"K. c #A2A2A2",
"L. c gray64",
"P. c #A4A4A4",
"I. c #A5A5A5",
"U. c gray65",
"Y. c gray66",
"T. c #A9A9A9",
"R. c #AAAAAA",
"E. c gray67",
"W. c #ACACAC",
"Q. c gray68",
"!. c #AEAEAE",
"~. c #AFAFAF",
"^. c gray69",
"/. c #B1B1B1",
"(. c #B2B2B2",
"). c gray70",
"_. c #B4B4B4",
"`. c gray71",
"'. c #B6B6B6",
"]. c #B7B7B7",
"[. c gray72",
"{. c #B9B9B9",
"}. c gray73",
"|. c #BBBBBB",
" X c #BCBCBC",
".X c gray74",
"XX c gray",
"oX c gray75",
"OX c #C0C0C0",
"+X c #C1C1C1",
"@X c gray76",
"#X c #C3C3C3",
"$X c gray77",
"%X c #C5C5C5",
"&X c #C6C6C6",
"*X c gray78",
"=X c #C8C8C8",
"-X c gray79",
";X c #CACACA",
":X c #CBCBCB",
">X c gray80",
",X c #CDCDCD",
"<X c #CECECE",
"1X c gray81",
"2X c #D0D0D0",
"3X c gray82",
"4X c #D2D2D2",
"5X c LightGray",
"6X c gray83",
"7X c #D5D5D5",
"8X c #D7D7D7",
"9X c #D8D8D8",
"0X c gray85",
"qX c #DADADA",
"wX c gray86",
"eX c gainsboro",
"rX c #DDDDDD",
"tX c gray87",
"yX c #DFDFDF",
"uX c gray88",
"iX c #E1E1E1",
"pX c #E2E2E2",
"aX c gray89",
"sX c #E4E4E4",
"dX c gray90",
"fX c #E6E6E6",
"gX c #E7E7E7",
"hX c gray91",
"jX c #E9E9E9",
"kX c #EAEAEA",
"lX c gray92",
"zX c #ECECEC",
"xX c gray93",
"cX c #EEEEEE",
"vX c #EFEFEF",
"bX c gray94",
"nX c #F1F1F1",
"mX c gray95",
"MX c #F3F3F3",
"NX c #F4F4F4",
"BX c gray96",
"VX c #F6F6F6",
"CX c gray97",
"ZX c #F8F8F8",
"AX c #F9F9F9",
"SX c gray98",
"DX c #FBFBFB",
"FX c gray99",
"GX c #FDFDFD",
"HX c #FEFEFE",
"JX c white",
/* pixels */
"SX@X:X>X>X>X>X>X>X>X>X>X>X>X>X>X>X>X>X>X>X>X>X>X>X>X>X>X>X>X>X>X>X>X>X>X>X>X>X>X>X>X>X>X>X>X>X>X>X>X>X>X>X>X>X>X>X>X>X>X>X>X>X>X>X>X:X@XSX",
"#XHXJXJXJXJXJXJXJXJXJXJXJXJXJXJXJXJXJX6Xd.;.u.;XJXJXJXJXJXJXJXJXJXJXJXJXJXJXJXJXJXJXJXJXJXfXh. .o.N.bXJXJXJXJXJXJXJXJXJXJXJXJXJXJXJXJXHX$X",
":XJXJXJX#Xm : y R.JXJXJXJXJXJXJXJXHX6.X         X.SXJXJXJXJXJXJXJXJXJXJXJXJXJXJXJXJXJXJX(.-         6 :XJXJXJXJXJXJXJXJXJXJXJXJXJXJXJXJX:X",
":XJXJXzX> D.GX.X& 9XJXJXJXJXJXJXJXb.              6.JXJXJXJXJXJXJXJXJXJXJXJXJXJXJXJXJXwX&             7 nXJXJXJXJXJXJXJXJXJXJXJXJXJXJXJX:X",
":XJXJX(.t JXJXJX/ t.JXJXJXJXJXJXJX9               $ VXJXJXJXJXJXJXJXJXJXJXJXJXJXJXJXJX6.                C.JXJXJXJXJXJXJXJXJXJXJXJXJXJXJX:X",
":XJXJX).r JXJXJXX.' JXJXJXJXJXJXjX                  :XJXJXJXJXJXJXJXJXJXJXJXJXJXJXJXJXI                 =.JXJXJXJXJXJXJXJXJXJXJXJXJXJXJX:X",
":XJXJXxX> D.GX%X6 Q JXJXJXJXJXJXNXo                 qXJXJXJXJXJXJXJXJXJXJXJXJXJXJXJXJX[                 r.JXJXJXJXJXJXJXJXJXJXJXJXJXJXJX:X",
":XJXJXJX@XN q _ @.o.JXJXJXJXJXJXJXH               s JXJXJXJXJXJXJXJXJXJXJXJXJXJXJXJXJXE.              . ,XJXJXJXJXJXJXJXJXJXJXJXJXJXJXJX:X",
":XJXJXJXJXJXJXJXF M.JXJXJXJXJXJXJX,XX             ^.JXJXJXJXJXJXJXJXJXJXJXJXJXJXJXJXJXHXM             ] JXJXJXJXJXJXJXJXJXJXJXJXJXJXJXJX:X",
":XJXJXNXe +XHXI.1 xXJXJXJXJX$X9.$.g. .          R c.$.4.}.JXJXJXJXJXJXJXJXJXJXJXqXt.) O.i.<         w s.| ` h.gXJXJXJXJXJXJXJXJXJXJXJXJX:X",
":XJXJXJXY.y : v =XJXJXJXZX(         + +       X $         F bXJXJXJXJXJXJXJXJXb.+         @         @         = ^.JXJXJXJXJXJXJXJXJXJXJX:X",
":XJXJXJXJXJXJXJXJXJXJXJX=.                                  W JXJXJXJXJXJXJXXX.                                 @ eXJXJXJXJXJXJXJXJXJXJX:X",
":XJXJXJXJXJXdX>XZXJXJXcX@                                     9XJXJXJXJXJXJX!                                     3.JXJXJXJXJXJXJXJXJXJX:X",
":XJXJXJXHXO.    4 #XJX*X                                      R.JXJXJXJXJXJXp                                     I JXJXJXJXJXJXJXJXJXJX:X",
":XJXJXJX!.        a JX*X                X   X                 E.JXJXJXJXJXJXh                 + +                 W JXJXJXJXJXJXJXJXJXJX:X",
":XJXJXJXx.        # FXZX1               +.  +.              # jXnXY.a.v.<XJX3.              l D _ 6               V.JXJXJXJXJXJXJXJXJXJX:X",
":XJXJXJX2X.       U JXJXB.            m 1X  [.E             w./.1         ^ yX9           ; 3Xb ` '.O           c ZXJXJXJXJXJXJXJXJXJXJX:X",
":XJXxXx.e.D     * 1.0.{.JXz.%       / cX_.  V.VX@.X     O 9.-X+             ( wXN       z <XHX< n JX{.r       T kXJXJXJXJXJXJXJXJXJXJXJX:X",
":XkXq                   u.JXcX/.U.9XJXJX<.  _ JXJXyXR.W.hXJX/                 6XJX7X`.2XJXJX;X  + kXJXFX-X`.yXJXJXJXJXJXJXJXJXJXJXJXJXJX:X",
":Xz.                    & FXJXJXJXJXJXbX3   $ pXJXJXJXJXJXJXq                 D.JXJXJXJXJXJX}     y.JXJXJXJXJXJXJXJXJXJXJXJXJXJXJXJXJXJX:X",
":Xs.        # @         + ZXJXJXJXJXHX .      L SXJXJXJXJXJXi                 I.JXJXJXJXJXQ.X     % =XJXJXJXJXJXJXJXJXJXJXJXJXJXJXJXJXJX:X",
":XeX%     . e.I m       | JXJXJXJXJXGXcXcXcXcXcXDXJXJXJXJXJX-.              @ fXJXJXJXJXJXJXJXJXJXJXJXJXJXJXJXJXJXJXJXJXJXJXJXJXJXJXJXJX:X",
":XJX:X] P (.Q.a mX>.H u.ZXJXJXJXJXJXJXJXJXJXJXJXJXJXJXJXJXJXsX*             2.JXJXJXJXJXJXJXJXJXJXJXJXJXJXJXJXJXJXJXJXJXJXJXJXJXJXJXJXJX:X",
":XJXJXJXJXJX!   -XJXJXJXJXJXJXJXJXJXJXJXJXJXJXJXJXJXJXfXZ.7.b.w..         g P.w.y.XXHXJXJXJXJXJXJXJXJXJXJXJXJXJXJXJXJXJXJXJXJXJXJXJXJXJX:X",
":XJXJXJXJXxXC.C.].JXJXJXJXJXJXJXJXJXJXJXJXJXJXJXJXJXv.&       O *         >         N dXJXJXJXJXJXJXJXJXJXJXJXJXJXJXJXJXJXJXJXJXJXJXJXJX:X",
":XJXJXJXJXJXJXJXJXJXJXJXJXJXJXJXJXJXJXJXJXJXJXJXJXY.                                  l FXJXJXJXJXJXJXJXJXJXJXJXJXJXJXJXJXJXJXJXJXJXJXJX:X",
":XJXJXJXJXJXJXJXJXJXJXJXJXJXJXJXJXJXJXJXJXJXJXJXJXk                                     ~.JXJXJXJXJXJXJXJXJXJXJXJXJXJXJXJXJXJXJXJXJXJXJX:X",
":XJXJXJXJXJXJXJXJXJXJXJXJXJXJXJXJXJXJXJXJXJXJXJXZXo                                     e.JXJXJXJXJXJXJXJXJXJXJXJXJXJXJXJXJXJXJXJXJXJXJX:X",
":XJXJXJXJXJXJXJXJXJXJXJXJXJXJXJXJXJXJXJXJXJXJXJXNX.                 . .                 6.JXJXJXJXJXJXJXJXJXJXJXJXJXJXJXJXJXJXJXJXJXJXJX:X",
":XJXJXJXJXJXJXJXJXJXJXJXJXJXJXJXJXJXJX3Xc.w.Z.gXJXb               D 4 _ .               '.vXZ.,.2.U.VXJXJXJXJXJXJXJXJXJXJXJXJXJXJXJXJXJX:X",
":XJXJXJXJXJXJXJXJXJXJXJXJXJXJXJXJXAXX.        % B.[..           > rX$ h.;.            A XX3         u 7XJXJXJXJXJXJXJXJXJXJXJXJXJXJXJXJX:X",
":XJXJXJXJXJXJXJXJXJXJXJXJXJXJXJXJX-.              (.G.=       i <XjX  -.FX1.X       F 1X;             r NXJXJXJXJXJXJXJXJXJXJXJXJXJXJXJX:X",
":XJXJXJXJXJXJXJXJXJXJXJXJXJXJXJXlXO               n JXzXL.z.`.DXJXY.  j JXJXrXA.v.$XHXq.                F.JXJXJXJXJXJXJXJXJXJXJXJXJXJXJX:X",
":XJXJXJXJXJXJXJXJXJXJXJXJXJXJXJX{.                O AXJXJXJXJXJXJXG     $XJXJXJXJXJXJXU                 -.JXJXJXJXJXJXJXJXJXJXJXJXJXJXJX:X",
":XJXJXJXJXJXJXJXJXJXJXJXJXJXJXJX#X                & HXJXJXJXJXJXG.      z mXJXJXJXJXJX`                 q.JXJXJXJXJXJXJXJXJXJXJXJXJXJXJX:X",
":XJXJXJXJXJXJXJXJXJXJXJXJXJXJXJXZX1               ~ JXJXJXJXJXJXpXrXrXrXrXMXJXJXJXJXJXL.                *XJXJXJXJXJXJXJXJXJXJXJXJXJXJXJX:X",
":XJXJXJXJXJXJXJXJXJXJXJXJXJXJXJXJXb.            o 4XJXJXJXJXJXJXJXJXJXJXJXJXJXJXJXJXJXGXv             ~ JXJXJXJXJXJXJXJXJXJXJXJXJXJXJXJX:X",
":XJXJXJXJXJXJXJXJXJXJXJXJXJX@Xu.8.G.C           *.n.7.x.qXJXJXJXJXJXJXJXJXJXJXJXdXc.$.2.h.:         9 c.:.&.C.vXJXJXJXJXJXJXJXJXJXJXJXJX:X",
":XJXJXJXJXJXJXJXJXJXJXJXcXG         - .       # #       o 5.HXJXJXJXJXJXJXJXJXH.&         %         %         2  XJXJXJXJXJXJXJXJXJXJXJX:X",
":XJXJXJXJXJXJXJXJXJXJXJXH                                   h.JXJXJXJXJXJXJX&XX                                 & pXJXJXJXJXJXJXJXJXJXJX:X",
":XJXJXJXJXJXJXJXJXJXJX-X                                    < FXJXJXJXJXJXJX)                                     8.JXJXJXJXJXJXJXJXJXJX:X",
":XJXJXJXJXJXJXJXJXJXJXV.                                      rXJXJXJXJXJXJXs                                     Y JXJXJXJXJXJXJXJXJXJX:X",
":XJXJXJXJXJXJXJXJXJXJXM.                .   .                 0XJXJXJXJXJXJXd                 o o                 T JXJXJXJXJXJXJXJXJXJX:X",
":XJXJXJXJXJXJXJXJXJXJX6X.               ]   ]               q GXJXJXJXJXJXJX;.              a A ^ <               b.JXJXJXJXJXJXJXJXJXJX:X",
":XJXJXJXJXJXJXJXJXJXJXJX}             ( I.  0Xr             K.JXJXJXJXJXJXJXsX2           % =Xn ] W.X           d BXJXJXJXJXJXJXJXJXJXJX:X",
":XJXJXJXJXJXJXJXJXJXJXJXVX[       . O.ZXd.  >XyXM       $ x.JXJXJXJXJXJXJXJXJX3Xg       y #XHX3 N JXW.3       C aXJXJXJXJXJXJXJXJXJXJXJX:X",
":XJXJXJXJXJXJXJXJXJXJXJXJXJX6XZ.D.0XJXJXK   l.JXHX@XN.P.hXJXJXJXJXJXJXJXJXJXJXJXGX&XU.+XFXJX1X  @ cXJXCX{.U.1XJXJXJXJXJXJXJXJXJXJXJXJXJX:X",
":XJXJXJXJXJXJXJXJXJXJXJXJXJXJXJXJXJXJX0XO   d DXJXJXJXJXJXJXJXJXJXJXJXJXJXJXJXJXJXJXJXJXJXJX#.    h.JXJXJXJXJXJXJXJXJXJXJXJXJXJXJXJXJXJX:X",
":XJXJXJXJXJXJXJXJXJXJXJXJXJXJXJXJXJXAXS       t.JXJXJXJXJXJXJXJXJXJXJXJXJXJXJXJXJXJXJXJXJX[.o     - 4XJXJXJXJXJXJXJXJXJXJXJXJXJXJXJXJXJX:X",
":XJXJXJXJXJXJXJXJXJXJXJXJXJXJXJXJXJXVXrXrXrXrXtXJXJXJXJXJXJXJXJXJXJXJXJXJXJXJXJXJXJXJXJXJXMXcXcXcXcXBXJXJXJXJXJXJXJXJXJXJXJXJXJXJXJXJXJX:X",
":XJXJXJXJXJXJXJXJXJXJXJXJXJXJXJXJXJXJXJXJXJXJXJXJXJXJXJXJXJXJXJXJXJXJXJXJXJXJXJXJXJXJXJXJXmXcXcXcXcXBXJXJXJXJXJXJXJXJXJXJXJXJXJXJXJXJXJX:X",
":XJXJXJXJXJXJXJXJXJXJXJXJXJXJXJXJXJXcXf        .HXJXJXJXJXJXJXJXJXJXJXJXJXJXJXJXJXJXJXJXJX_.o     = <XJXJXJXJXJXJXJXJXJXJXJXJXJXJXJXJXJX:X",
":XJXJXJXJXJXJXJXJXJXJXJXJXJXJXJXJXJXJX*X.   8 NXJXJXJXJXJXJXJXJXJXJXJXJXJXJXJXJXJXJXJXJXJXJXO.    f.JXJXJXJXJXJXJXJXJXJXJXJXJXJXJXJXJXJX:X",
":XJXJXJXJXJXJXJXJXJXJXJXJXJXMX#X*XBXJXJXN   t.JXJXhX+X,XFXJXJXJXJXJXJXJXJXJXJXJXHX:XR.&XGXJX<X  @ xXJXZXoXW.5XJXJXJXJXJXJXJXJXJXJXJXJXJX:X",
":XJXJXJXJXJXJXJXJXJXJXJXHXi.&     : k.HXr.  $XbX .o     q _.JXJXJXJXJXJXJXJXJX5Xk       p %XHX2 M JX~.5       S dXJXJXJXJXJXJXJXJXJXJXJX:X",
":XJXJXJXJXJXJXJXJXJXJXJX8.            6.K.  iXM           o  XJXJXJXJXJXJXJXfX4           & :Xn ' ~.X           h VXJXJXJXJXJXJXJXJXJXJX:X",
":XJXJXJXJXJXJXJXJXJXJXuXO             . 1.  2.              j JXJXJXJXJXJXJX,.              d S / 2               m.JXJXJXJXJXJXJXJXJXJX:X",
":XJXJXJXJXJXJXJXJXJXJXZ.                @   @                 yXJXJXJXJXJXJXf                 o o                 R JXJXJXJXJXJXJXJXJXJX:X",
":XJXJXJXJXJXJXJXJXJXJXm.                                      8XJXJXJXJXJXJXs                                     U JXJXJXJXJXJXJXJXJXJX:X",
":XJXJXJXJXJXJXJXJXJXJX.X                                    % AXJXJXJXJXJXJX/                                     7.JXJXJXJXJXJXJXJXJXJX:X",
":XJXJXJXJXJXJXJXJXJXJXGXj                                   <.JXJXJXJXJXJXJX$XX                                 % uXJXJXJXJXJXJXJXJXJXJX:X",
":XJXJXJXJXJXJXJXJXJXJXJXeXy         O .       +           W ZXJXJXJXJXJXJXJXJXD.%         $         $         < {.JXJXJXJXJXJXJXJXJXJXJX:X",
":XJXJXJXJXJXJXJXJXJXJXJXJXCXC.} ) w.K         X =.-.) %._.JXJXJXJXJXJXJXJXJXJXJXiXj.$.<.f.>         0 z.-.%.M.xXJXJXJXJXJXJXJXJXJXJXJXJX:X",
":XJXJXJXJXJXJXJXJXJXJXJXJXJXJXJXJXT.            * aXJXJXJXJXJXJXJXJXJXJXJXJXJXJXJXJXJXGXb             / JXJXJXJXJXJXJXJXJXJXJXJXJXJXJXJX:X",
":XJXJXJXJXJXJXJXJXJXJXJXJXJXJXJXFXr               +.JXJXJXJXJXJXJXJXJXJXJXJXJXJXJXJXJXI.                =XJXJXJXJXJXJXJXJXJXJXJXJXJXJXJX:X",
":XJXJXJXJXJXJXJXJXJXJXJXJXJXJXJX;X                , JXJXJXJXJXJXJXJXJXJXJXJXJXJXJXJXJX'                 q.JXJXJXJXJXJXJXJXJXJXJXJXJXJXJX:X",
":XJXJXJXJXJXJXJXJXJXJXJXJXJXJXJX'.                X ZXJXJXJXJXJXJXJXJXJXJXJXJXJXJXJXJXI                 -.JXJXJXJXJXJXJXJXJXJXJXJXJXJXJX:X",
":XJXJXJXJXJXJXJXJXJXJXJXJXJXJXJXpX                f JXJXJXJXJXJXJXJXJXJXJXJXJXJXJXJXJX9.                D.JXJXJXJXJXJXJXJXJXJXJXJXJXJXJX:X",
":XJXJXJXJXJXJXJXJXJXJXJXJXJXJXJXJX^               C.JXJXJXJXJXJXJXJXJXJXJXJXJXJXJXJXJXuX-             e NXJXJXJXJXJXJXJXJXJXJXJXJXJXJXJX:X",
":XJXJXJXJXJXJXJXJXJXJXJXJXJXJXJXJXxXB           >.HXJXJXJXJXJXJXJXJXJXJXJXJXJXJXJXJXJXJX|.<         e 4XJXJXJXJXJXJXJXJXJXJXJXJXJXJXJXJX:X",
":XJXJXJXJXJXJXJXJXJXJXJXJXJXJXJXJXJXFXT.@.( 2.*XJXJXJXJXJXJXJXJXJXJXJXJXJXJXJXJXJXJXJXJXJXxXN.-.>.J.BXJXJXJXJXJXJXJXJXJXJXJXJXJXJXJXJXJX:X",
":XJXJXJXJXJXJXJXJXJXJXJXJXJXJXJXJXJXJXJXJXJXJXJXJXJXJXJXJXJXJXJXJXJXJXJXJXJXJXJXJXJXJXJXJXJXJXJXJXJXJXJXJXJXJXJXJXJXJXJXJXJXJXJXJXJXJXJX:X",
":XJXJXJXJXJXJXJXJXJXJXJXJXJXJXJXJXJXJXJXJXJXJXJXJXJXJXJXJXJXJXJXJXJXJXJXJXJXJXJXJXJXJXJXJXJXJXJXJXJXJXJXJXJXJXJXJXJXJXJXJXJXJXJXJXJXJXJX:X",
":XJXJXJXJXJXJXJXJXJXJXJXJXJXJXJXJXJXJXJXJXJXJXJXJXJXJXJXJXJXJXJXJXJXJXJXJXJXJXJXJXJXJXJXJXJXJXJXJXJXJXJXJXJXJXJXJXJXJXJXJXJXJXJXJXJXJXJX:X",
":XJXJXJXJXJXJXJXJXJXJXJXJXJXJXJXJXJXJXJXJXJXJXJXJXJXJXJXJXJXJXJXJXJXJXJXJXJXJXJXJXJXJXJXJXJXJXJXJXJXJXJXJXJXJXJXJXJXJXJXJXJXJXJXJXJXJXJX:X",
":XJXJXJXJXJXJXJXJXJXJXJXJXJXJXJXJXJXJXJXJXJXJXJXJXJXJXJXJXJXJXJXJXJXJXJXJXJXJXJXJXJXJXJXJXJXJXJXJXJXJXJXJXJXJXJXJXJXJXJX_.g.g.lXJXJXJXJX:X",
":XJXJXJXJXJXJXJXJXJXJXJXJXJXJXJXJXJXJXJXJXJXJXJXJXJXJXJXJXJXJXJXJXJXJXJXJXJXJXJXJXJXJXJXJXJXJXJXJXJXJXJXJXJXJXJXJXJXJXJX0XX ( JXJXJXJXJX:X",
":XJXJXJXJXJXJXJXJXJXJXJXJXJXJXJXJXJXJXJXJXJXJXJXJXJXJXJXJXJXJXJXJXJXJXJXJXJXJXJXJXJXJXJXJXJXJXJXJXJXJXJXJXJXJXJXMX,.x _ gXb E.P.b G '.JX:X",
":XJXJXJXJXJXJXJXJXJXJXJXJXJXJXJXJXJXJXJXJXJXJXJXJXJXJXJXJXJXJXJXJXJXJXJXJXJXJXJXJXJXJXJXJXJXJXJXJXJXJXJXJXJXJXJX'       i Y :.      o ,X:X",
":XJXJXJXJXJXJXJXJXJXJXJXJXJXJXJXJXJXfXd , , , 3.JXJXJXJXJXJXJXJXJXJXJXJXJXJXJXJXJXJXJXJXJX$.      a lXJXJXJXJXDX@         O O         0.:X",
":XJXJXJXJXJXJXJXJXJXJXJXJXJXJXJXJXJXJXE.    r ZXJXJXJXJXJXJXJXJXJXJXJXJXJXJXJXJXJXJXJXJXJXCXw     @XJXJXJXJXJXJX2                     k.:X",
":XJXJXJXJXJXJXJXJXJXJXJXJXJXZX5X0XFXJXHXr   l.JXJXbX2XiXJXJXJXJXJXJXJXJXJXJXJXJXFX>XoXdXJXJXs.  v JXJXBX&X@XnXJXC.X     .     .     a xX:X",
":XJXJXJXJXJXJXJXJXJXJXJXHXd.:     e Y.JX&.  6XbX+.@     v >XJXJXJXJXJXJXJXJXJX].w     X ] xX:X  8.HXx.:     # w.GX3Xx.i.=     V n.K.NXJX:X",
":XJXJXJXJXJXJXJXJXJXJXJX3.            B.x.  bXb           = 5XJXJXJXJXJXJXJXOXO           c fX  A.q.            1.JXJXU         +XJXJXJX:X",
":XJXJXJXJXJXJXJXJXJXJX8XX             $ 5.= <.              K JXJXJXJXJXJXJXc               ,.X ,.X             o qXJX=         p.JXJXJX:X",
":XJXJXJXJXJXJXJXJXJXJXj.                $ O +               o mXJXJXJXJXJXfX                +   +                 n.JXM         ~.JXJXJX:X",
":XJXJXJXJXJXJXJXJXJXJXt.                                      jXJXJXJXJXJXuX                                      k.JX6Xa   X 2.JXJXJXJX:X",
":XJXJXJXJXJXJXJXJXJXJXU.                                    < JXJXJXJXJXJXGX-                                     '.JXJXGX0XzXJXJXJXJXJX:X",
":XJXJXJXJXJXJXJXJXJXJXVX6                                   q.JXJXJXJXJXJXJX9.                                  d FXJXJX*Xv > i E.JXJXJX:X",
":XJXJXJXJXJXJXJXJXJXJXJX=X<         X         o           W ZXJXJXJXJXJXJXJXAX(           +         +         t qXJXJXlX, I.HX+Xe BXJXJX:X",
":XJXJXJXJXJXJXJXJXJXJXJXJXzXi.U K <.Z         $ ;.` J { Q.HXJXJXJXJXJXJXJXJXJXJX{.=.) ;.>.o         F t._ } V.VXJXJXJXn.G JXJXJXJXJXJXJX:X",
":XJXJXJXJXJXJXJXJXJXJXJXJXJXJXJXJXG.            7 mXJXJXJXJXJXJXJXJXJXJXJXJXJXJXJXJXJXgX-             J.JXJXJXJXJXJXJX..$.] w B %XJXJXJX:X",
":XJXJXJXJXJXJXJXJXJXJXJXJXJXJXJXCX7               e.JXJXJXJXJXJXJXJXJXJXJXJXJXJXJXJXJX*.              8 SXJXJXJXJXJXJXQ 6 %XGXS.< cXJXJX:X",
":XJXJXJXJXJXJXJXJXJXJXJXJXJXJXJX{.                s JXJXJXJXJXJXJXJXJXJXJXJXJXJXJXJXJX5                 @XJXJXJXJXJXJX_ o.JXJXJXe _.JXJX:X",
":XJXJXJXJXJXJXJXJXJXJXJXJXJXJXJXJ.                - JXJXJXJXJXJXJXJXJXJXJXJXJXJXJXJXHX+                 Q.JXJXJXJXJXJXe.) JXJXJXt ).JXJX:X",
":XJXJXJXJXJXJXJXJXJXJXJXJXJXJXJX:X                N JXJXJXJXJXJXJXJXJXJXJXJXJXJXJXJXJXc                 eXJXJXJXJXJXJX6X% oXHXG.> lXJXJX:X",
":XJXJXJXJXJXJXJXJXJXJXJXJXJXJXJXHXm               K.JXJXJXJXJXJXJXJXJXJXJXJXJXJXJXJXJXH.              E JXJXJXJXJXJXJXJXU.r ; n +XJXJXJX:X",
":XJXJXJXJXJXJXJXJXJXJXJXJXJXJXJXJXtXu           ,.JXJXJXJXJXJXJXJXJXJXJXJXJXJXJXJXJXJXJX5..         M lXJXJXJXJXJXJXJXJXJXJXJXJXJXJXJXJX:X",
"#XHXJXJXJXJXJXJXJXJXJXJXJXJXJXJXJXJXBXn.~ L $.OXJXJXJXJXJXJXJXJXJXJXJXJXJXJXJXJXJXJXJXJXJX:X5._ #.T.FXJXJXJXJXJXJXJXJXJXJXJXJXJXJXJXJXHX$X",
"SX@X:X>X>X>X>X>X>X>X>X>X>X>X>X>X>X>X>X>X>X>X>X>X>X>X>X>X>X>X>X>X>X>X>X>X>X>X>X>X>X>X>X>X>X>X>X>X>X>X>X>X>X>X>X>X>X>X>X>X>X>X>X>X>X>X:X@XSX"
};
