/* XPM */
static const char *nine_hearts[] = {
/* columns rows colors chars-per-pixel */
"69 100 245 2 ",
"   c #DF0000",
".  c #DF0101",
"X  c #DF0202",
"o  c #DF0303",
"O  c #DF0404",
"+  c #E00505",
"@  c #E00606",
"#  c #E00707",
"$  c #E00808",
"%  c #E00909",
"&  c #E00A0A",
"*  c #E00B0B",
"=  c #E10C0C",
"-  c #E10D0D",
";  c #E10E0E",
":  c #E10F0F",
">  c #E11010",
",  c #E11111",
"<  c #E11212",
"1  c #E11313",
"2  c #E21414",
"3  c #E21515",
"4  c #E21616",
"5  c #E21717",
"6  c #E21818",
"7  c #E21919",
"8  c #E21A1A",
"9  c #E21B1B",
"0  c #E31C1C",
"q  c #E31D1D",
"w  c #E31E1E",
"e  c #E31F1F",
"r  c #E32020",
"t  c #E32121",
"y  c #E32222",
"u  c #E32323",
"i  c #E42424",
"p  c #E42626",
"a  c #E42727",
"s  c #E42828",
"d  c #E42A2A",
"f  c #E42B2B",
"g  c #E52C2C",
"h  c #E52D2D",
"j  c #E52E2E",
"k  c #E52F2F",
"l  c #E53030",
"z  c #E53131",
"x  c #E53232",
"c  c #E53333",
"v  c #E63434",
"b  c #E63535",
"n  c #E63636",
"m  c #E63737",
"M  c #E63838",
"N  c #E63939",
"B  c #E63A3A",
"V  c #E63B3B",
"C  c #E73C3C",
"Z  c #E73D3D",
"A  c #E73E3E",
"S  c #E73F3F",
"D  c #E74040",
"F  c #E74141",
"G  c #E74242",
"H  c #E74343",
"J  c #E84545",
"K  c #E84646",
"L  c #E84747",
"P  c #E84848",
"I  c #E84949",
"U  c #E84A4A",
"Y  c #E84B4B",
"T  c #E94C4C",
"R  c #E94D4D",
"E  c #E94E4E",
"W  c #E94F4F",
"Q  c #E95050",
"!  c #E95151",
"~  c #E95252",
"^  c #E95353",
"/  c #EA5454",
"(  c #EA5555",
")  c #EA5656",
"_  c #EA5858",
"`  c #EA5959",
"'  c #EA5A5A",
"]  c #EA5B5B",
"[  c #EB5D5D",
"{  c #EB5E5E",
"}  c #EB5F5F",
"|  c #EB6060",
" . c #EB6161",
".. c #EB6262",
"X. c #EB6363",
"o. c #EC6464",
"O. c #EC6565",
"+. c #EC6666",
"@. c #EC6767",
"#. c #EC6868",
"$. c #EC6A6A",
"%. c #EC6B6B",
"&. c #ED6C6C",
"*. c #ED6D6D",
"=. c #ED6E6E",
"-. c #ED6F6F",
";. c #ED7070",
":. c #ED7171",
">. c #ED7272",
",. c #ED7373",
"<. c #EE7474",
"1. c #EE7575",
"2. c #EE7676",
"3. c #EE7878",
"4. c #EE7979",
"5. c #EE7A7A",
"6. c #EE7B7B",
"7. c #EF7D7D",
"8. c #EF7E7E",
"9. c #EF7F7F",
"0. c #EF8181",
"q. c #EF8282",
"w. c #EF8383",
"e. c #F08484",
"r. c #F08585",
"t. c #F08686",
"y. c #F08787",
"u. c #F08888",
"i. c #F08989",
"p. c #F08A8A",
"a. c #F08B8B",
"s. c #F18D8D",
"d. c #F19090",
"f. c #F19292",
"g. c #F19393",
"h. c #F29494",
"j. c #F29595",
"k. c #F29797",
"l. c #F29898",
"z. c #F29999",
"x. c #F29A9A",
"c. c #F29B9B",
"v. c #F39C9C",
"b. c #F39D9D",
"n. c #F39E9E",
"m. c #F39F9F",
"M. c #F3A0A0",
"N. c #F3A1A1",
"B. c #F3A2A2",
"V. c #F3A3A3",
"C. c #F4A4A4",
"Z. c #F4A5A5",
"A. c #F4A6A6",
"S. c #F4A7A7",
"D. c #F4A8A8",
"F. c #F4A9A9",
"G. c #F4AAAA",
"H. c #F4ABAB",
"J. c #F5ACAC",
"K. c #F5ADAD",
"L. c #F5AEAE",
"P. c #F5B0B0",
"I. c #F5B1B1",
"U. c #F5B2B2",
"Y. c #F5B3B3",
"T. c #F6B4B4",
"R. c #F6B5B5",
"E. c #F6B6B6",
"W. c #F6B7B7",
"Q. c #F6B8B8",
"!. c #F6B9B9",
"~. c #F6BABA",
"^. c #F6BBBB",
"/. c #F7BCBC",
"(. c #F7BDBD",
"). c #F7BEBE",
"_. c #F7BFBF",
"`. c gray76",
"'. c #C3C3C3",
"]. c gray77",
"[. c #CBCBCB",
"{. c gray80",
"}. c #F7C0C0",
"|. c #F7C1C1",
" X c #F7C2C2",
".X c #F7C3C3",
"XX c #F8C4C4",
"oX c #F8C5C5",
"OX c #F8C6C6",
"+X c #F8C7C7",
"@X c #F8C8C8",
"#X c #F8CACA",
"$X c #F8CBCB",
"%X c #F9CCCC",
"&X c #F9CDCD",
"*X c #F9CFCF",
"=X c #F9D0D0",
"-X c #F9D2D2",
";X c #F9D3D3",
":X c #FAD4D4",
">X c #FAD5D5",
",X c #FAD6D6",
"<X c #FAD7D7",
"1X c #FAD8D8",
"2X c #FAD9D9",
"3X c #FADADA",
"4X c #FADBDB",
"5X c #FBDCDC",
"6X c #FBDDDD",
"7X c #FBDEDE",
"8X c #FBDFDF",
"9X c #FBE0E0",
"0X c #FBE1E1",
"qX c #FBE2E2",
"wX c #FBE3E3",
"eX c #FCE4E4",
"rX c #FCE5E5",
"tX c #FCE6E6",
"yX c #FCE7E7",
"uX c #FCE8E8",
"iX c #FCE9E9",
"pX c #FCEAEA",
"aX c #FCEBEB",
"sX c #FDECEC",
"dX c #FDEDED",
"fX c #FDEEEE",
"gX c #FDEFEF",
"hX c #FDF0F0",
"jX c #FDF1F1",
"kX c #FDF2F2",
"lX c #FDF3F3",
"zX c #FEF4F4",
"xX c #FEF5F5",
"cX c #FEF6F6",
"vX c #FEF7F7",
"bX c gray98",
"nX c #FEF8F8",
"mX c #FEF9F9",
"MX c #FEFAFA",
"NX c #FEFBFB",
"BX c #FFFCFC",
"VX c #FFFDFD",
"CX c #FEFEFE",
"ZX c #FFFEFE",
"AX c white",
/* pixels */
"bX`.[.{.{.{.{.{.{.{.{.{.{.{.{.{.{.{.{.{.{.{.{.{.{.{.{.{.{.{.{.{.{.{.{.{.{.{.{.{.{.{.{.{.{.{.{.{.{.{.{.{.{.{.{.{.{.{.{.{.{.{.{.{.{.{.[.`.bX",
"'.CXAXAXAXAXAXAXAXAXAXAXAXAXAXAXAXAXAXAXAXAXAXAXAXAXAXAXAXAXAXAXAXAXAXAXAXAXAXAXAXAXAXAXAXAXAXAXAXAXAXAXAXAXAXAXAXAXAXAXAXAXAXAXAXAXAXCX].",
"[.AXAXAXAXAXAXAXAXAXAXAXAXAXAXAXnX#X}.wXAXAXAXAXAXtX|.@XcXAXAXAXAXAXAXAXAXAXAXAXAXAXZXAXAXAXAXAXAXAXZXAXAXAXAXAXAXAXAXAXAXAXAXAXAXAXAXAX[.",
"[.AXAXAXAX.Xn : y G.AXAXAXAXNX0.;     . ! fXAXkX` X     * 3.mXAXAXAXAXAXAXAXBXf.j X $ C }.AXAXkX&.4   1 { 5XAXAXAXAXAXAXAXAXAXAXAXAXAXAX[.",
"[.AXAXAXsX> b.VX(.& 1XAXAXAX..            K AX^             / AXAXAXAXAXAXNXE           O /.mXm           ; #XAXAXAXAXAXAXAXAXAXAXAXAXAX[.",
"[.AXAXAXU.t AXAXAX^ 9.AXAX@X                k..               ~.AXAXAXAXAXl.              k M.              a VXAXAXAXAXAXAXAXAXAXAXAXAX[.",
"[.AXAXAXY.r AXAXAX| _ AXAX6.                =                 *.AXAXAXAXAXV                 0                 @XAXAXAXAXAXAXAXAXAXAXAXAX[.",
"[.AXAXAXdX> b.VXoX6 W AXAXo.                                  ( AXAXAXAXAX6                                   C.AXAXAXAXAXAXAXAXAXAXAXAX[.",
"[.AXAXAXAX XM q ) o. .AXAXw.                                  1.AXAXAXAXAXs                                   R.AXAXAXAXAXAXAXAXAXAXAXAX[.",
"[.AXAXAXAXAXAXAXAXF h.AXAX9X$                               O <XAXAXAXAXAX6.                                3 zXAXAXAXAXAXAXAXAXAXAXAXAX[.",
"[.AXAXAXzXe |.ZXZ.1 dXAXAXAX3.                              &.AXAXAXAXAXAXhX2                               h.AXAXAXAXAXAXAXAXAXAXAXAXAX[.",
"[.AXAXAXAXD.y : c @XAXAXAXAXMXV                           j xXAXAXAXAXAXAXAXY..                           H BXAXAXAXAXAXAXAXAXAXAXAXAXAX[.",
"[.AXAXAXAXAXAXAXAXAXAXAXAXAXAXqX8                       4 7XAXAXAXAXAXAXAXAXAX5.                        t sXAXAXAXAXAXAXAXAXAXAXAXAXAXAX[.",
"[.AXlXy.` 5.zXAXc._ >.5XAXAXAXAX-X:                   % OXAXAXAXAXAXAXAXAXAXAXZX[                     1 1XAXAXAXAXAXAXAXAXAXAXAXAXAXAXAX[.",
"[.MXn       R h.      - 4XAXAXAXAXQ.+               O U.AXAXAXAXAXAXAXAXAXAXAXAXnXA                 % .XAXAXAXAXAXAXAXAXAXAXAXAXAXAXAXAX[.",
"[.|.          2         5.AXAXAXAXAXv.              z.AXAXAXAXAXAXAXAXAXAXAXAXAXAXhXh             X J.AXAXAXAXAXAXAXAXAXAXAXAXAXAXAXAXAX[.",
"[.P.                    #.AXAXAXAXAXAX=.          %.AX3X,.S Z &.3XAXAXAX!._ M U a.hX6X,           y.AXAXAXAXAXAXAXAXAXAXAXAXAXAXAXAXAXAX[.",
"[.hX1                   /.AXAXAXAXAXAXMXB       n mXB.#         = XXAXy.          q :X~.o       R ZXAXAXAXAXAXAXAXAXAXAXAXAXAXAXAXAXAXAX[.",
"[.AXG..               O.AXAXAXAXAXAXAXAX3X#   O =X>XO             s 3Xo             a MX#.    < pXAXAXAXAXAXAXAXAXAXAXAXAXAXAXAXAXAXAXAX[.",
"[.AXAX8.            Z mXAXAXAXAXAXAXAXAXAX6.  >.AX*.                m                 T.hX7   c.AXAXAXAXAXAXAXAXAXAXAXAXAXAXAXAXAXAXAXAX[.",
"[.AXAXZX^         u sXAXAXAXAXAXAXAXAXAXAXsX% qXAXA                                   r.AXi.w VXAXAXAXAXAXAXAXAXAXAXAXAXAXAXAXAXAXAXAXAX[.",
"[.AXAXAXcXv     - ;XAXAXAXAXAXAXAXAXAXAXAXAXc.AXAXF                                   u.AXuXq.AXAXAXAXAXAXAXAXAXAXAXAXAXAXAXAXAXAXAXAXAX[.",
"[.AXAXAXAX9X-   L.AXAXAXAXAXAXAXAXAXAXAXAXAXAXAXAXr.                                  %XAXAXnXAXAXAXAXAXAXAXAXAXAXAXAXAXAXAXAXAXAXAXAXAX[.",
"[.AXAXAXAXAXp.P AXAXAXAXAXAXAXAXAXAXAXAXAXAXAXAXAXkX5                               ~ AXAXAXAXAXAXAXAXAXAXAXAXAXAXAXAXAXAXAXAXAXAXAXAXAX[.",
"[.AXAXAXAXAXgX^.AXAXAXAXAXAXAXAXAXAXAXAXAXAXAXAXAXAXS.                            1 9XAXAXAXAXAXAXAXAXAXAXAXAXAXAXAXAXAXAXAXAXAXAXAXAXAX[.",
"[.AXAXAXAXAXAXAXAXAXAXAXAXAXAXAXAXAXAXAXAXAXAXAXAXAXAX=.                        o Q.AXAXAXAXAXAXAXAXAXAXAXAXAXAXAXAXAXAXAXAXAXAXAXAXAXAX[.",
"[.AXAXAXAXAXAXAXAXAXAXAXAXAXAXAXAXAXAXAXAXAXAXAXAXAXAXBXW                       f.AXAXAXAXAXAXAXAXAXAXAXAXAXAXAXAXAXAXAXAXAXAXAXAXAXAXAX[.",
"[.AXAXAXAXAXAXAXAXAXAXAXAXAXAXAXAXAXAXAXAXAXAXAXAXAXAXAXlXc                   2.AXAXAXAXAXAXAXAXAXAXAXAXAXAXAXAXAXAXAXAXAXAXAXAXAXAXAXAX[.",
"[.AXAXAXAXAXAXAXAXAXAXAXAXAXAXAXAXAXAXAXAXAXAXAXAXAXAXAXAXtXr               _ VXAXAXAXAXAXAXAXAXAXAXAXAXAXAXAXAXAXAXAXAXAXAXAXAXAXAXAXAX[.",
"[.AXAXAXAXAXAXAXAXAXAXAXAXAXAXAXtXK.M.+XZXAXAXAXAX#XN.H.qXAX>X-           V mXAXVXwXyXAXAXAXAXAXAXcX6XlXAXAXAXAXAXAXAXAXAXAXAXAXAXAXAXAX[.",
"[.AXAXAXAXAXAXAXAXAXAXAXAXAXzXX.o       v qXAXyXC       X ' hXP..       5 eXxX1.<     e Z.AXAXeXE X   o D +XAXAXAXAXAXAXAXAXAXAXAXAXAXAX[.",
"[.AXAXAXAXAXAXAXAXAXAXAXAXAXY             v ZXF             A VX@.      W.cXM             F.zXp           + W.AXAXAXAXAXAXAXAXAXAXAXAXAX[.",
"[.AXAXAXAXAXAXAXAXAXAXAXAX^.                9.                K.hX7   ( AXi.              i d.              0 MXAXAXAXAXAXAXAXAXAXAXAXAX[.",
"[.AXAXAXAXAXAXAXAXAXAXAXAX2.                @                 @.AXg.X 7XAXv                 1                 |.AXAXAXAXAXAXAXAXAXAXAXAX[.",
"[.AXAXAXAXAXAXAXAXAXAXAXAXo.                                  ( AXhXE AXAX5                                   V.AXAXAXAXAXAXAXAXAXAXAXAX[.",
"[.AXAXAXAXAXAXAXAXAXAXAXAXa.                                  7.AXAXuXAXAXj                                   ^.AXAXAXAXAXAXAXAXAXAXAXAX[.",
"[.AXAXAXAXAXAXAXAXAXAXAXAXaX:                               % 0XAXAXAXAXAXp.                                e nXAXAXAXAXAXAXAXAXAXAXAXAX[.",
"[.AXAXAXAXAXAXAXAXAXAXAXAXAXa.                              9.AXAXAXAXAXAXcXe                               A.AXAXAXAXAXAXAXAXAXAXAXAXAX[.",
"[.AXAXAXAXAXAXAXAXAXAXAXAXAXVXU                           F NXAXAXAXAXAXAXAX+X@                           ` AXAXAXAXAXAXAXAXAXAXAXAXAXAX[.",
"[.AXAXAXAXAXAXAXAXAXAXAXAXAXAXdXs                       u pXAXAXAXAXAXAXAXAXAXg.                        x xXAXAXAXAXAXAXAXAXAXAXAXAXAXAX[.",
"[.AXAXAXAXAXAXAXAXAXAXAXAXAXAXAX7X5                   2 3XAXAXAXAXAXAXAXAXAXAXAX;.                    0 wXAXAXAXAXAXAXAXAXAXAXAXAXAXAXAX[.",
"[.AXAXAXAXAXAXAXAXAXAXAXAXAXAXAXAX%X=               % oXAXAXAXAXAXAXAXAXAXAXAXAXVX/                 , >XAXAXAXAXAXAXAXAXAXAXAXAXAXAXAXAX[.",
"[.AXAXAXAXAXAXAXAXAXAXAXAXAXAXAXAXAXT.o           X P.AXAXAXAXAXAXAXAXAXAXAXAXAXAXvXV             $  XAXAXAXAXAXAXAXAXAXAXAXAXAXAXAXAXAX[.",
"[.AXAXAXAXAXAXAXAXAXAXAXAXAXAXAXAXAXAXr.          q.AXAXAXAXAXAXAXAXAXAXAXAXAXAXAXAXiX0           b.AXAXAXAXAXAXAXAXAXAXAXAXAXAXAXAXAXAX[.",
"[.AXAXAXAXAXAXAXAXAXAXAXAXAXAXAXAXAXAXZXT       L VXAXAXAXAXAXAXAXAXAXAXAXAXAXAXAXAXAX+X@       O.AXAXAXAXAXAXAXAXAXAXAXAXAXAXAXAXAXAXAX[.",
"[.AXAXAXAXAXAXAXAXAXAXAXAXAXAXAXAXAXAXAXtX:   % 7XAXAXAXAXAXAXAXAXAXAXAXAXAXAXAXAXAXAXAX6.    q lXAXAXAXAXAXAXAXAXAXAXAXAXAXAXAXAXAXAXAX[.",
"[.AXAXAXAXAXAXAXAXAXAXAXAXAXAXAXAXAXAXAXAXa.  q.AXAXAXAXAXAXAXAXAXAXAXAXAXAXAXAXAXAXAXAXcXy   K.AXAXAXAXAXAXAXAXAXAXAXAXAXAXAXAXAXAXAXAX[.",
"[.AXAXAXAXAXAXAXAXAXAXAXAXAXAXAXAXAXAXAXAXkX< pXAXAXAXAXAXAXAXAXAXAXAXAXAXAXAXAXAXAXAXAXAXh.p ZXAXAXAXAXAXAXAXAXAXAXAXAXAXAXAXAXAXAXAXAX[.",
"[.AXAXAXAXAXAXAXAXAXAXAXAXAXAXAXAXAXAXAXAXAXI.AXAXAXAXAXAXAXAXAXAXAXAXAXAXAXAXAXAXAXAXAXAXhXf.AXAXAXAXAXAXAXAXAXAXAXAXAXAXAXAXAXAXAXAXAX[.",
"[.AXAXAXAXAXAXAXAXAXAXAXAXAXAXAXAXAXAXAXAXAXAXAXAXAXAXAXAXAXAXAXAXAXAXAXAXAXAXAXAXAXAXAXAXAXVXAXAXAXAXAXAXAXAXAXAXAXAXAXAXAXAXAXAXAXAXAX[.",
"[.AXAXAXAXAXAXAXAXAXAXAXAXAXAXAXAXAXAXAXAXAX@XAXAXAXAXAXAXAXAXAXAXAXAXAXAXAXAXAXAXAXAXAXAXAXtXAXAXAXAXAXAXAXAXAXAXAXAXAXAXAXAXAXAXAXAXAX[.",
"[.AXAXAXAXAXAXAXAXAXAXAXAXAXAXAXAXAXAXAXAXmXw gXAXAXAXAXAXAXAXAXAXAXAXAXAXAXAXAXAXAXAXAXAX1XX.AXAXAXAXAXAXAXAXAXAXAXAXAXAXAXAXAXAXAXAXAX[.",
"[.AXAXAXAXAXAXAXAXAXAXAXAXAXAXAXAXAXAXAXAXV.  d.AXAXAXAXAXAXAXAXAXAXAXAXAXAXAXAXAXAXAXAXAX,.= hXAXAXAXAXAXAXAXAXAXAXAXAXAXAXAXAXAXAXAXAX[.",
"[.AXAXAXAXAXAXAXAXAXAXAXAXAXAXAXAXAXAXAXkX9   ; tXAXAXAXAXAXAXAXAXAXAXAXAXAXAXAXAXAXAXAX5X$   =.AXAXAXAXAXAXAXAXAXAXAXAXAXAXAXAXAXAXAXAX[.",
"[.AXAXAXAXAXAXAXAXAXAXAXAXAXAXAXAXAXAXAX&.      ) AXAXAXAXAXAXAXAXAXAXAXAXAXAXAXAXAXAXZXI     o $XAXAXAXAXAXAXAXAXAXAXAXAXAXAXAXAXAXAXAX[.",
"[.AXAXAXAXAXAXAXAXAXAXAXAXAXAXAXAXAXAXD.          g.AXAXAXAXAXAXAXAXAXAXAXAXAXAXAXAXAXa.        r sXAXAXAXAXAXAXAXAXAXAXAXAXAXAXAXAXAXAX[.",
"[.AXAXAXAXAXAXAXAXAXAXAXAXAXAXAXAXAX=X=           + |.AXAXAXAXAXAXAXAXAXAXAXAXAXAXAX).O           T VXAXAXAXAXAXAXAXAXAXAXAXAXAXAXAXAXAX[.",
"[.AXAXAXAXAXAXAXAXAXAXAXAXAXAXAXAXrXq               : -XAXAXAXAXAXAXAXAXAXAXAXAXAX,X,               #.AXAXAXAXAXAXAXAXAXAXAXAXAXAXAXAXAX[.",
"[.AXAXAXAXAXAXAXAXAXAXAXAXAXAXAXgXh                   r yXAXAXAXAXAXAXAXAXAXAXAXtXr                   s.AXAXAXAXAXAXAXAXAXAXAXAXAXAXAXAX[.",
"[.AXAXAXAXAXAXAXAXAXAXAXAXAXAXnXD                       c lXAXAXAXAXAXAXAXAXAXkXz                     . C.AXAXAXAXAXAXAXAXAXAXAXAXAXAXAX[.",
"[.AXAXAXAXAXAXAXAXAXAXAXAXAXAX+.                          Q ZXAXAXAXAXAXAXAXVXY                         $ %XAXAXAXAXAXAXAXAXAXAXAXAXAXAX[.",
"[.AXAXAXAXAXAXAXAXAXAXAXAXAXZ.                              h.AXAXAXAXAXAXAXe.                            r fXAXAXAXAXAXAXAXAXAXAXAXAXAX[.",
"[.AXAXAXAXAXAXAXAXAXAXAXAXlX7                               > sXAXAXAXAXAX6X#                               -.AXAXAXAXAXAXAXAXAXAXAXAXAX[.",
"[.AXAXAXAXAXAXAXAXAXAXAXAXj.                                  u.AXAXAXAXAX}                                 @ yXAXAXAXAXAXAXAXAXAXAXAXAX[.",
"[.AXAXAXAXAXAXAXAXAXAXAXAXO.                                  ) AXAXAXAXAXq                                   G.AXAXAXAXAXAXAXAXAXAXAXAX[.",
"[.AXAXAXAXAXAXAXAXAXAXAXAX:.                X                 ..AXAXAXAXAX0                                   G.AXAXAXAXAXAXAXAXAXAXAXAX[.",
"[.AXAXAXAXAXAXAXAXAXAXAXAXL.                o.                M.AXAXAXAXAXT               . N                 2XAXAXAXAXAXAXAXAXAXAXAXAX[.",
"[.AXAXAXAXAXAXAXAXAXAXAXAXBXb             u mXj             d mXAXAXAXAXAX~.              T (.              P AXAXAXAXAXAXAXAXAXAXAXAXAX[.",
"[.AXAXAXAXAXAXAXAXAXAXAXAXAXyXS         9 =XAX<Xt         M 0XAXAXAXAXAXAXAXp.o         9 7XAX%.          l iXAXAXAXAXAXAXAXAXAXAXAXAXAX[.",
"[.AXAXAXAXAXAXAXAXAXAXAXAXAXAXAXoXu.7.B.zXAXAXAXcXA.8.t.}.ZXAXAXAXAXAXAXAXAXAX=X=.S J 6.iXAXAXAXJ.( V ^ n.mXAXAXAXAXAXAXAXAXAXAXAXAXAXAX[.",
"[.AXAXAXAXAXAXAXAXAXAXAXAXAXAXAXAXAXAXAXAXAXAXAXAXAXAXAXAXAXAXAXAXAXAXAXAXAXAXAXAXAXAXAXAXAXAXAXAXAXAXAXAXAXAXAXAXAXAXAXAXAXAXAXAXAXAXAX[.",
"[.AXAXAXAXAXAXAXAXAXAXAXAXAXAXAXAXAXAXAXAXAXAXAXAXAXAXAXAXAXAXAXAXAXAXAXAXAXAXAXAXAXAXAXAXAXAXAXAXAXAXAXAXAXAXAXAXAXAXAXAXAXAXAXAXAXAXAX[.",
"[.AXAXAXAXAXAXAXAXAXAXAXAXAXAXAXAXAXAXAXAXAXAXAXAXAXAXAXAXAXAXAXAXAXAXAXAXAXAXAXAXAXAXAXAXAXAXAXAXAXAXAXAXAXAXAXAXAXAXAXAXAXAXAXAXAXAXAX[.",
"[.AXAXAXAXAXAXAXAXAXAXAXAXAXAXAXAXAXAXAXAXAXAXAXAXAXAXAXAXAXAXAXAXAXAXAXAXAXAXAXAXAXAXAXAXAXAXAXAXAXAXAXAXAXAXAXAXAXAXAXAXAXAXAXAXAXAXAX[.",
"[.AXAXAXAXAXAXAXAXAXAXAXAXAXAXAXAXAXAXAXAXAXAXAXAXAXAXAXAXAXAXAXAXAXAXAXAXAXAXAXAXAXAXAXAXAXAXAXAXAXAXAXAXAXAXAXAXAXAXAXAXzXNXAXAXAXAXAX[.",
"[.AXAXAXAXAXAXAXAXAXAXAXAXAXAXAXAXAXAXAXAXAXAXAXAXAXAXAXAXAXAXAXAXAXAXAXAXAXAXAXAXAXAXAXAXAXAXAXAXAXAXAXAXAXAXAXAXAXAXAXAXb.I.AXAXAXAXAX[.",
"[.AXAXAXAXAXAXAXAXAXAXAXAXAXAXAXAXAXAXAXAXAXAXAXAXAXAXAXAXAXAXAXAXAXAXAXAXAXAXAXAXAXAXAXAXAXAXAXAXAXAXAXAXAXAXAXAXAXAXAXnXp h NXAXAXAXAX[.",
"[.AXAXAXAXAXAXAXAXAXAXAXAXAXAXAXAXAXAXAXAXAXAXAXAXAXAXAXAXAXAXAXAXAXAXAXAXAXAXAXAXAXAXAXAXAXAXAXAXAXAXAXAXAXAXAXAXAXAXAX$.    7.AXAXAXAX[.",
"[.AXAXAXAXAXAXAXAXAXAXAXAXAXAXAXAXAXAXAXAXAXA.AXAXAXAXAXAXAXAXAXAXAXAXAXAXAXAXAXAXAXAXAXAXZX*XAXAXAXAXAXAXAXAXAXAXAXAXv.      . A.AXAXAX[.",
"[.AXAXAXAXAXAXAXAXAXAXAXAXAXAXAXAXAXAXAXAXhX= qXAXAXAXAXAXAXAXAXAXAXAXAXAXAXAXAXAXAXAXAXAX.XW AXAXAXAXAXAXAXAXAXAXAX(.+         % $XAXAX[.",
"[.AXAXAXAXAXAXAXAXAXAXAXAXAXAXAXAXAXAXAXAXy.  ,.AXAXAXAXAXAXAXAXAXAXAXAXAXAXAXAXAXAXAXAXAX] O 8XAXAXAXAXAXAXAXAXAX7X2             7 wXAX[.",
"[.AXAXAXAXAXAXAXAXAXAXAXAXAXAXAXAXAXAXAXqX=   O =XAXAXAXAXAXAXAXAXAXAXAXAXAXAXAXAXAXAXAXXX.   I AXAXAXAXAXAXAXAXmXd                 B ZX[.",
"[.AXAXAXAXAXAXAXAXAXAXAXAXAXAXAXAXAXAXVXP       n mXAXAXAXAXAXAXAXAXAXAXAXAXAXAXAXAXAXvXh       H.AXAXAXAXAXAXAXN.                    W.[.",
"[.AXAXAXAXAXAXAXAXAXAXAXAXAXAXAXAXAXAX9.          $.AXAXAXAXAXAXAXAXAXAXAXAXAXAXAXAXAXX.        - ,XAXAXAXAXAXAX8.                    g.[.",
"[.AXAXAXAXAXAXAXAXAXAXAXAXAXAXAXAXAXK.X             x.AXAXAXAXAXAXAXAXAXAXAXAXAXAXAXk.            g jXAXAXAXAXAXE.        n t       . %X[.",
"[.AXAXAXAXAXAXAXAXAXAXAXAXAXAXAXAX#X*               o I.AXAXAXAXAXAXAXAXAXAXAXAXAXE.O               F mXAXAXAXAXAX3.O   2 &X).=   $ p.AX[.",
"[.AXAXAXAXAXAXAXAXAXAXAXAXAXAXAX5X4                   & @XAXAXAXAXAXAXAXAXAXAXAX%X=                   | ZXAXAXAXAXAXdX*XzXAXAXjX*XhXAXAX[.",
"[.AXAXAXAXAXAXAXAXAXAXAXAXAXAXiXy                       7 0XAXAXAXAXAXAXAXAXAX6X5                       9.AXAXAXAXAXAXAXAXAXAXAXAXAXAXAX[.",
"[.AXAXAXAXAXAXAXAXAXAXAXAXAXBXJ                           l cXAXAXAXAXAXAXAXzXf                           G.AXAXAXAXAXAX+Xc > i H.AXAXAX[.",
"[.AXAXAXAXAXAXAXAXAXAXAXAXAXq.                              >.AXAXAXAXAXAXAX{                             - 5XAXAXAXAXaX, Z.ZX|.e xXAXAX[.",
"[.AXAXAXAXAXAXAXAXAXAXAXAXrX*                               @ 4XAXAXAXAXAXOX.                               ~ AXAXAXAXf.G AXAXAXAXAXAXAX[.",
"[.AXAXAXAXAXAXAXAXAXAXAXAXy.                                  4.AXAXAXAXAXT                                   1XAXAXAX} +.` w N oXAXAXAX[.",
"[.AXAXAXAXAXAXAXAXAXAXAXAXo.                                  / AXAXAXAXAX6                                   Z.AXAXAXW 6 oXVXv.< fXAXAX[.",
"[.AXAXAXAXAXAXAXAXAXAXAXAX4.                %                 $.AXAXAXAXAXy                 .                 L.AXAXAX)  .AXAXAXe T.AXAX[.",
"[.AXAXAXAXAXAXAXAXAXAXAXAX.X                s.                T.AXAXAXAXAX[               $ )               o yXAXAXAX7.( AXAXAXt Y.AXAX[.",
"[.AXAXAXAXAXAXAXAXAXAXAXAXAX_             A AXT             Y ZXAXAXAXAXAX:X$             @.:XO             $.AXAXAXAX:X% _.ZXm.> aXAXAX[.",
"[.AXAXAXAXAXAXAXAXAXAXAXAXAXnX<.%       J pXAXfXR       @ &.xXAXAXAXAXAXAXAXW.2         Z kXAXc.O       . } mXAXAXAXAXAXA.r ; b |.AXAXAX[.",
"[.AXAXAXAXAXAXAXAXAXAXAXAXAXAXAXjX(.P.<XAXAXAXAXAX4XI.^.gXAXAXAXAXAXAXAXAXAXAXlXV.<.5.P.BXAXAXAX5Xp.:.u.-XAXAXAXAXAXAXAXAXAXAXAXAXAXAXAX[.",
"'.CXAXAXAXAXAXAXAXAXAXAXAXAXAXAXAXAXAXAXAXAXAXAXAXAXAXAXAXAXAXAXAXAXAXAXAXAXAXAXAXAXAXAXAXAXAXAXAXAXAXAXAXAXAXAXAXAXAXAXAXAXAXAXAXAXAXCX].",
"bX`.[.{.{.{.{.{.{.{.{.{.{.{.{.{.{.{.{.{.{.{.{.{.{.{.{.{.{.{.{.{.{.{.{.{.{.{.{.{.{.{.{.{.{.{.{.{.{.{.{.{.{.{.{.{.{.{.{.{.{.{.{.{.{.{.[.`.bX"
};
