/* XPM */
static const char *nine_diamonds[] = {
/* columns rows colors chars-per-pixel */
"69 100 242 2 ",
"   c #DF0000",
".  c #DF0101",
"X  c #DF0202",
"o  c #DF0303",
"O  c #DF0404",
"+  c #E00505",
"@  c #E00606",
"#  c #E00707",
"$  c #E00808",
"%  c #E00909",
"&  c #E00A0A",
"*  c #E00B0B",
"=  c #E10C0C",
"-  c #E10D0D",
";  c #E10E0E",
":  c #E10F0F",
">  c #E11010",
",  c #E11111",
"<  c #E11212",
"1  c #E11313",
"2  c #E21414",
"3  c #E21515",
"4  c #E21616",
"5  c #E21717",
"6  c #E21818",
"7  c #E21919",
"8  c #E21A1A",
"9  c #E21B1B",
"0  c #E31C1C",
"q  c #E31D1D",
"w  c #E31E1E",
"e  c #E31F1F",
"r  c #E32020",
"t  c #E32121",
"y  c #E32222",
"u  c #E42424",
"i  c #E42525",
"p  c #E42626",
"a  c #E42727",
"s  c #E42828",
"d  c #E42929",
"f  c #E42A2A",
"g  c #E42B2B",
"h  c #E52C2C",
"j  c #E52E2E",
"k  c #E52F2F",
"l  c #E53030",
"z  c #E53131",
"x  c #E53232",
"c  c #E53333",
"v  c #E63434",
"b  c #E63535",
"n  c #E63636",
"m  c #E63737",
"M  c #E63838",
"N  c #E63939",
"B  c #E63B3B",
"V  c #E73C3C",
"C  c #E73E3E",
"Z  c #E73F3F",
"A  c #E74040",
"S  c #E74141",
"D  c #E74242",
"F  c #E74343",
"G  c #E84545",
"H  c #E84646",
"J  c #E84747",
"K  c #E84848",
"L  c #E84A4A",
"P  c #E84B4B",
"I  c #E94C4C",
"U  c #E94D4D",
"Y  c #E94E4E",
"T  c #E94F4F",
"R  c #E95050",
"E  c #E95151",
"W  c #E95252",
"Q  c #E95353",
"!  c #EA5454",
"~  c #EA5555",
"^  c #EA5656",
"/  c #EA5757",
"(  c #EA5858",
")  c #EA5959",
"_  c #EA5B5B",
"`  c #EB5C5C",
"'  c #EB5D5D",
"]  c #EB5E5E",
"[  c #EB5F5F",
"{  c #EB6060",
"}  c #EB6161",
"|  c #EB6262",
" . c #EB6363",
".. c #EC6464",
"X. c #EC6565",
"o. c #EC6666",
"O. c #EC6767",
"+. c #EC6868",
"@. c #EC6969",
"#. c #EC6A6A",
"$. c #EC6B6B",
"%. c #ED6C6C",
"&. c #ED6E6E",
"*. c #ED6F6F",
"=. c #ED7171",
"-. c #ED7272",
";. c #ED7373",
":. c #EE7474",
">. c #EE7575",
",. c #EE7676",
"<. c #EE7777",
"1. c #EE7878",
"2. c #EE7979",
"3. c #EE7A7A",
"4. c #EE7B7B",
"5. c #EF7C7C",
"6. c #EF7D7D",
"7. c #EF7E7E",
"8. c #EF7F7F",
"9. c #EF8383",
"0. c #F08484",
"q. c #F08585",
"w. c #F08686",
"e. c #F08787",
"r. c #F08888",
"t. c #F08A8A",
"y. c #F08B8B",
"u. c #F18C8C",
"i. c #F18D8D",
"p. c #F18F8F",
"a. c #F19090",
"s. c #F19191",
"d. c #F19292",
"f. c #F29494",
"g. c #F29595",
"h. c #F29797",
"j. c #F29898",
"k. c #F29999",
"l. c #F29A9A",
"z. c #F29B9B",
"x. c #F39C9C",
"c. c #F39D9D",
"v. c #F39E9E",
"b. c #F39F9F",
"n. c #F3A0A0",
"m. c #F3A1A1",
"M. c #F3A2A2",
"N. c #F3A3A3",
"B. c #F4A4A4",
"V. c #F4A5A5",
"C. c #F4A6A6",
"Z. c #F4A7A7",
"A. c #F4A8A8",
"S. c #F4A9A9",
"D. c #F4AAAA",
"F. c #F4ABAB",
"G. c #F5ACAC",
"H. c #F5ADAD",
"J. c #F5AEAE",
"K. c #F5AFAF",
"L. c #F5B1B1",
"P. c #F5B2B2",
"I. c #F5B3B3",
"U. c #F6B4B4",
"Y. c #F6B6B6",
"T. c #F6B7B7",
"R. c #F6B8B8",
"E. c #F6B9B9",
"W. c #F6BABA",
"Q. c #F6BBBB",
"!. c #F7BCBC",
"~. c #F7BDBD",
"^. c #F7BEBE",
"/. c #F7BFBF",
"(. c gray76",
"). c #C3C3C3",
"_. c gray77",
"`. c #CBCBCB",
"'. c gray80",
"]. c #F7C0C0",
"[. c #F7C1C1",
"{. c #F7C2C2",
"}. c #F7C3C3",
"|. c #F8C4C4",
" X c #F8C5C5",
".X c #F8C6C6",
"XX c #F8C7C7",
"oX c #F8C8C8",
"OX c #F8C9C9",
"+X c #F8CACA",
"@X c #F9CCCC",
"#X c #F9CDCD",
"$X c #F9CECE",
"%X c #F9CFCF",
"&X c #F9D0D0",
"*X c #F9D2D2",
"=X c #F9D3D3",
"-X c #FAD4D4",
";X c #FAD5D5",
":X c #FAD7D7",
">X c #FAD8D8",
",X c #FAD9D9",
"<X c #FADADA",
"1X c #FADBDB",
"2X c #FBDCDC",
"3X c #FBDDDD",
"4X c #FBDEDE",
"5X c #FBDFDF",
"6X c #FBE0E0",
"7X c #FBE1E1",
"8X c #FBE2E2",
"9X c #FBE3E3",
"0X c #FCE4E4",
"qX c #FCE5E5",
"wX c #FCE6E6",
"eX c #FCE7E7",
"rX c #FCE8E8",
"tX c #FCE9E9",
"yX c #FCEAEA",
"uX c #FCEBEB",
"iX c #FDECEC",
"pX c #FDEDED",
"aX c #FDEEEE",
"sX c #FDEFEF",
"dX c #FDF0F0",
"fX c #FDF1F1",
"gX c #FDF2F2",
"hX c #FDF3F3",
"jX c #FEF4F4",
"kX c #FEF5F5",
"lX c #FEF6F6",
"zX c #FEF7F7",
"xX c gray98",
"cX c #FEF8F8",
"vX c #FEF9F9",
"bX c #FEFAFA",
"nX c #FEFBFB",
"mX c #FFFCFC",
"MX c #FFFDFD",
"NX c #FEFEFE",
"BX c #FFFEFE",
"VX c white",
/* pixels */
"xX(.`.'.'.'.'.'.'.'.'.'.'.'.'.'.'.'.'.'.'.'.'.'.'.'.'.'.'.'.'.'.'.'.'.'.'.'.'.'.'.'.'.'.'.'.'.'.'.'.'.'.'.'.'.'.'.'.'.'.'.'.'.'.'.'.`.(.xX",
").NXVXVXVXVXVXVXVXVXVXVXVXVXVXVXVXVXVXVXVXVXmXVXVXVXVXVXVXVXVXVXVXVXVXVXVXVXVXVXVXVXVXVXVXVXmXVXVXVXVXVXVXVXVXVXVXVXVXVXVXVXVXVXVXVXVXNX_.",
"`.VXVXVX}.n : y D.VXVXVXVXVXVXVXVXVXVXVXVXcX#.VXVXVXVXVXVXVXVXVXVXVXVXVXVXVXVXVXVXVXVXVXVXVXX.vXVXVXVXVXVXVXVXVXVXVXVXVXVXVXVXVXVXVXVXVX`.",
"`.VXVXiX> c.MX~.& >XVXVXVXVXVXVXVXVXVXVXVXz.X ,XVXVXVXVXVXVXVXVXVXVXVXVXVXVXVXVXVXVXVXVXVX=X. M.VXVXVXVXVXVXVXVXVXVXVXVXVXVXVXVXVXVXVXVX`.",
"`.VXVXP.t VXVXVXQ 8.VXVXVXVXVXVXVXVXVXVXzXw   ^ VXVXVXVXVXVXVXVXVXVXVXVXVXVXVXVXVXVXVXVXVXU   t cXVXVXVXVXVXVXVXVXVXVXVXVXVXVXVXVXVXVXVX`.",
"`.VXVXI.r VXVXVX{ ( VXVXVXVXVXVXVXVXVXVXe.    . XXVXVXVXVXVXVXVXVXVXVXVXVXVXVXVXVXVXVXVX].      p.VXVXVXVXVXVXVXVXVXVXVXVXVXVXVXVXVXVXVX`.",
"`.VXVXpX> c.MX X6 T VXVXVXVXVXVXVXVXVX4X*       d zXVXVXVXVXVXVXVXVXVXVXVXVXVXVXVXVXVXcXf       * 3XVXVXVXVXVXVXVXVXVXVXVXVXVXVXVXVXVXVX`.",
"`.VXVXVX{.M q ^ ..} VXVXVXVXVXVXVXVXMXC           6.VXVXVXVXVXVXVXVXVXVXVXVXVXVXVXVXVX>.          D BXVXVXVXVXVXVXVXVXVXVXVXVXVXVXVXVXVX`.",
"`.VXVXVXVXVXVXVXS f.VXVXVXVXVXVXVXVX4.            o I.VXVXVXVXVXVXVXVXVXVXVXVXVXVXVXY.o             9.VXVXVXVXVXVXVXVXVXVXVXVXVXVXVXVXVX`.",
"`.VXVXjXe [.BXV.1 pXVXVXVXVXVXVXVXA..               - *XVXVXVXVXVXVXVXVXVXVXVXVXVX-X;               . C.VXVXVXVXVXVXVXVXVXVXVXVXVXVXVXVX`.",
"`.VXVXVXA.y : c oXVXVXVXVXVXVXVXK.@                   q <XVXVXVXVXVXVXVXVXVXVXVX;X7                   $ Y.VXVXVXVXVXVXVXVXVXVXVXVXVXVXVX`.",
"`.VXVXVXVXVXVXmXVXVXVXVXVXVXVXZ.+                       8 =XVXVXVXVXVXVXVXVXVX$X4                       # H.VXVXVXVXVXVXVXVXVXVXVXVXVXVX`.",
"`.VXVXVXVXVX].B.VXVXVXVXVXBXr.X                           = J.VXVXVXVXVXVXVXF.*                           . <.MXVXVXVXVXVXVXVXVXVXVXVXVX`.",
"`.VXVXVXVXMXN e kXVXVXVXVXmX<.                            # b.VXVXVXVXVXVXVXB.%                             o.nXVXVXVXVXVXVXVXVXVXVXVXVX`.",
"`.VXVXVXVXj.    6.VXVXVXVXVXVXl.o                       2 +XVXVXVXVX}.VXVXVXVX|.,                       O n.VXVXVXVXVXVXVXVXVXVXVXVXVXVX`.",
"`.VXVXVX4X<     # #XVXVXVXVXVXVXA.O                   4 *XVXVXVXVX&X9 vXVXVXVXVX%X2                   + F.VXVXVXVXVXVXVXVXVXVXVXVXVXVXVX`.",
"`.VXVXiXg         9 6XVXVXVXVXVXVXx.                % +XVXVXVXVXVXR   h.VXVXVXVXVX@X&                 l.VXVXVXVXVXVXVXVXVXVXVXVXVXVXVXVX`.",
"`.VX7Xh             w -XVXVXVXVXVXVX&.            . A.VXVXVXVXVX.X.   4 gXVXVXVXVXVXF..             <.VXVXVXVXVXVXVXVXVXVXVXVXVXVXVXVXVX`.",
"`.VXd.X               1.VXVXVXVXVXVXnXn           ;.VXVXVXVXVXnXx       >.VXVXVXVXVXVX%.          V MXVXVXVXVXVXVXVXVXVXVXVXVXVXVXVXVXVX`.",
"`.VXVXN.o           t.VXVXVXVXVXVXVXVX:X$       a lXVXVXVXVXVX0.        X |.VXVXVXVXVXkXu       & <XVXVXVXVXVXVXVXVXVXVXVXVXVXVXVXVXVXVX`.",
"`.VXVXVXs.        <.VXVXVXVXVXVXVXVXVXVX8.      ].VXVXVXVXVX#X#           d gXVXVXVXVXVXE.      r.VXVXVXVXVXVXVXVXVXVXVXVXVXVXVXVXVXVXVX`.",
"`.VXVXVXVXW     m MXVXVXVXVXVXVXVXVXVXVXjX7   R VXVXVXVXVXwXq               K mXVXVXVXVXVXJ   0 lXVXVXVXVXVXVXVXVXVXVXVXVXVXVXVXVXVXVXVX`.",
"`.VXVXVXVX8X= o $XVXVXVXVXVXVXVXVXVXVXVXVXf.. =XVXVXVXVXsXx                   $.BXVXVXVXVX#X  z.VXVXVXVXVXVXVXVXVXVXVXVXVXVXVXVXVXVXVXVX`.",
"`.VXVXVXVXVXw.#.VXVXVXVXVXVXVXVXVXVXVXVXVXkX{ VXVXVXVXsXm                       o.MXVXVXVXVX_ zXVXVXVXVXVXVXVXVXVXVXVXVXVXVXVXVXVXVXVXVX`.",
"`.VXVXVXVXVXdX7XVXVXVXVXVXVXVXVXVXVXVXVXVXVXvXVXVXVX2Xf                           / kXVXVXVXvXVXVXVXVXVXVXVXVXVXVXVXVXVXVXVXVXVXVXVXVXVX`.",
"`.VXVXVXVXVXVXVXVXVXVXVXVXVXVXVXVXVXVXVXVXVXVXVXVXvXd                               +.VXVXVXVXVXVXVXVXVXVXVXVXVXVXVXVXVXVXVXVXVXVXVXVXVX`.",
"`.VXVXVXVXVXVXVXVXVXVXVXVXVXVXVXVXVXVXVXVXVX1XVXVXVX8Xx                           | cXVXVXVX1XVXVXVXVXVXVXVXVXVXVXVXVXVXVXVXVXVXVXVXVXVX`.",
"`.VXVXVXVXVXVXVXVXVXVXVXVXVXVXVXVXVXVXVXVX5Xf MXVXVXVXjXS                       >.VXVXVXVXmXs 8XVXVXVXVXVXVXVXVXVXVXVXVXVXVXVXVXVXVXVXVX`.",
"`.VXVXVXVXVXVXVXVXVXVXVXVXVXVXVXVXVXVXVXVX@.  D.VXVXVXVXjXB                   <.VXVXVXVXVXN.  =.VXVXVXVXVXVXVXVXVXVXVXVXVXVXVXVXVXVXVXVX`.",
"`.VXVXVXVXVXVXVXVXVXVXVXVXVXVXVXVXVXVXVX,X+   y vXVXVXVXVXiXu               W MXVXVXVXVXvXy   @ 2XVXVXVXVXVXVXVXVXVXVXVXVXVXVXVXVXVXVXVX`.",
"`.VXVXVXVXVXVXVXVXVXVXVXVXVXVXVXVXVXVXVXI       i.VXVXVXVXVX=X%           j kXVXVXVXVXVXq.      ! VXVXVXVXVXVXVXVXVXVXVXVXVXVXVXVXVXVXVX`.",
"`.VXVXVXVXVXVXVXVXVXVXVXVXVXVXVXVXVXVXN.        & <XVXVXVXVXVXi.        O @XVXVXVXVXVX:X$         F.VXVXVXVXVXVXVXVXVXVXVXVXVXVXVXVXVXVX`.",
"`.VXVXVXVXVXVXVXVXVXVXVXVXVXVXVXVXVX0X1           V nXVXVXVXVXmXN       6.VXVXVXVXVXvXm           5 rXVXVXVXVXVXVXVXVXVXVXVXVXVXVXVXVXVX`.",
"`.VXVXVXVXVXVXVXVXVXVXVXVXVXVXVXVXlXn                .VXVXVXVXVX+X.   9 kXVXVXVXVXVXO.              v kXVXVXVXVXVXVXVXVXVXVXVXVXVXVXVXVX`.",
"`.VXVXVXVXVXVXVXVXVXVXVXVXVXVXVXmXE                   p.VXVXVXVXVX/   v.VXVXVXVXVXw.                  ( MXVXVXVXVXVXVXVXVXVXVXVXVXVXVXVX`.",
"`.VXVXVXVXVXVXVXVXVXVXVXVXVXVXmX`                     . p.VXVXVXVX*Xq bXVXVXVXVXy.                      ( nXVXVXVXVXVXVXVXVXVXVXVXVXVXVX`.",
"`.VXVXVXVXVXVXVXVXVXVXVXVXVXfXP                           8.BXVXVXVXOXVXVXVXMX1.                          R hXVXVXVXVXVXVXVXVXVXVXVXVXVX`.",
"`.VXVXVXVXVXVXVXVXVXVXVXVXbXz                               %.VXVXVXVXVXVXVX..                              n nXVXVXVXVXVXVXVXVXVXVXVXVX`.",
"`.VXVXVXVXVXVXVXVXVXVXVXVXVX$Xw                           B eXVXVXVXVXVXVXVXqXM                           0 +XVXVXVXVXVXVXVXVXVXVXVXVXVX`.",
"`.VXVXVXVXVXVXVXVXVXVXVXVXVXVX8Xi                       P zXVXVXVXVXVXVXVXVXVXcXY                       a 0XVXVXVXVXVXVXVXVXVXVXVXVXVXVX`.",
"`.VXVXVXVXVXVXVXVXVXVXVXVXVXVXVXqXu                   E bXVXVXVXVXVXVXVXVXVXVXVXcXL                   f tXVXVXVXVXVXVXVXVXVXVXVXVXVXVXVX`.",
"`.VXVXVXVXVXVXVXVXVXVXVXVXVXVXVXVX>X,               x kXVXVXVXVXVXVXVXVXVXVXVXVXVXhXk               1 1XVXVXVXVXVXVXVXVXVXVXVXVXVXVXVXVX`.",
"`.VXVXVXVXVXVXVXVXVXVXVXVXVXVXVXVXVX!.o           7 qXVXVXVXVXVXVXVXVXVXVXVXVXVXVXVX8X4           O {.VXVXVXVXVXVXVXVXVXVXVXVXVXVXVXVXVX`.",
"`.VXVXVXVXVXVXVXVXVXVXVXVXVXVXVXVXVXVX:.          K.VXVXVXVXVXVXVXVXVXVXVXVXVXVXVXVXVXL.          5.VXVXVXVXVXVXVXVXVXVXVXVXVXVXVXVXVXVX`.",
"`.VXVXVXVXVXVXVXVXVXVXVXVXVXVXVXVXVXVXlXp       [ VXVXVXVXVXVXVXVXVXVXVXVXVXVXVXVXVXVXVX/       h cXVXVXVXVXVXVXVXVXVXVXVXVXVXVXVXVXVXVX`.",
"`.VXVXVXVXVXVXVXVXVXVXVXVXVXVXVXVXVXVXVXY.    - rXVXVXVXVXVXVXVXVXVXVXVXVXVXVXVXVXVXVXVXqX*     !.VXVXVXVXVXVXVXVXVXVXVXVXVXVXVXVXVXVXVX`.",
"`.VXVXVXVXVXVXVXVXVXVXVXVXVXVXVXVXVXVXVXVXF   0.VXVXVXVXVXVXVXVXVXVXVXVXVXVXVXVXVXVXVXVXVX6.  I VXVXVXVXVXVXVXVXVXVXVXVXVXVXVXVXVXVXVXVX`.",
"`.VXVXVXVXVXVXVXVXVXVXVXVXVXVXVXVXVXVXVXVX{.: fXVXVXVXVXVXVXVXVXVXVXVXVXVXVXVXVXVXVXVXVXVXfX: oXVXVXVXVXVXVXVXVXVXVXVXVXVXVXVXVXVXVXVXVX`.",
"`.VXVXVXVXVXVXVXVXVXVXVXVXVXVXVXVXVXVXVXVXVXG.VXVXVXVXVXVXVXVXVXVXVXVXVXVXVXVXVXVXVXVXVXVXVXG.VXVXVXVXVXVXVXVXVXVXVXVXVXVXVXVXVXVXVXVXVX`.",
"`.VXVXVXVXVXVXVXVXVXVXVXVXVXVXVXVXVXVXVXVXVXVXVXVXVXVXVXVXVXVXVXVXVXVXVXVXVXVXVXVXVXVXVXVXVXVXVXVXVXVXVXVXVXVXVXVXVXVXVXVXVXVXVXVXVXVXVX`.",
"`.VXVXVXVXVXVXVXVXVXVXVXVXVXVXVXVXVXVXVXVXVXVXVXVXVXVXVXVXVXVXVXVXVXVXVXVXVXVXVXVXVXVXVXVXVXVXVXVXVXVXVXVXVXVXVXVXVXVXVXVXVXVXVXVXVXVXVX`.",
"`.VXVXVXVXVXVXVXVXVXVXVXVXVXVXVXVXVXVXVXVXVXm.VXVXVXVXVXVXVXVXVXVXVXVXVXVXVXVXVXVXVXVXVXVXVXm.VXVXVXVXVXVXVXVXVXVXVXVXVXVXVXVXVXVXVXVXVX`.",
"`.VXVXVXVXVXVXVXVXVXVXVXVXVXVXVXVXVXVXVXVXW.* iXVXVXVXVXVXVXVXVXVXVXVXVXVXVXVXVXVXVXVXVXVXiX* {.VXVXVXVXVXVXVXVXVXVXVXVXVXVXVXVXVXVXVXVX`.",
"`.VXVXVXVXVXVXVXVXVXVXVXVXVXVXVXVXVXVXVXVXB   5.VXVXVXVXVXVXVXVXVXVXVXVXVXVXVXVXVXVXVXVXVX;.  A VXVXVXVXVXVXVXVXVXVXVXVXVXVXVXVXVXVXVXVX`.",
"`.VXVXVXVXVXVXVXVXVXVXVXVXVXVXVXVXVXVXVXG.    % 8XVXVXVXVXVXVXVXVXVXVXVXVXVXVXVXVXVXVXVX5X#     Y.VXVXVXVXVXVXVXVXVXVXVXVXVXVXVXVXVXVXVX`.",
"`.VXVXVXVXVXVXVXVXVXVXVXVXVXVXVXVXVXVXjXy       T VXVXVXVXVXVXVXVXVXVXVXVXVXVXVXVXVXVXVXR       y jXVXVXVXVXVXVXVXVXVXVXVXVXVXVXVXVXVXVX`.",
"`.VXVXVXVXVXVXVXVXVXVXVXVXVXVXVXVXVXVX@.          D.VXVXVXVXVXVXVXVXVXVXVXVXVXVXVXVXVXN.          -.VXVXVXVXVXVXVXVXVXVXVXVXVXVXVXVXVXVX`.",
"`.VXVXVXVXVXVXVXVXVXVXVXVXVXVXVXVXVXI..           3 5XVXVXVXVXVXVXVXVXVXVXVXVXVXVXVX2X<           X E.VXVXVXVXVXVXVXVXVXVXVXVXVXVXVXVXVX`.",
"`.VXVXVXVXVXVXVXVXVXVXVXVXVXVXVXVX-X:               f dXVXVXVXVXVXVXVXVXVXVXVXVXVXfXg               ; =XVXVXVXVXVXVXVXVXVXVXVXVXVXVXVXVX`.",
"`.VXVXVXVXVXVXVXVXVXVXVXVXVXVXVX3Xq                   H lXVXVXVXVXVXVXVXVXVXVXVXjXZ                   y 7XVXVXVXVXVXVXVXVXVXVXVXVXVXVXVX`.",
"`.VXVXVXVXVXVXVXVXVXVXVXVXVXVX,X0                       F jXVXVXVXVXVXVXVXVXVXfXV                       r 3XVXVXVXVXVXVXVXVXVXVXVXVXVXVX`.",
"`.VXVXVXVXVXVXVXVXVXVXVXVXVX{.4                           k 5XVXVXVXVXVXVXVX8Xx                           2 ^.VXVXVXVXVXVXVXVXVXVXVXVXVX`.",
"`.VXVXVXVXVXVXVXVXVXVXVXVXbXm                               -.VXVXVXVXVXVXVX$.                              V nXVXVXVXVXVXVXVXVXVXVXVXVX`.",
"`.VXVXVXVXVXVXVXVXVXVXVXVXVXlX/                         X i.VXVXVXVXVXVXVXVXBXw..                         ' zXVXVXVXVXVXVXVXVXVXVXVXVXVX`.",
"`.VXVXVXVXVXVXVXVXVXVXVXVXVXVXBX$.                    o b.VXVXVXVXVXVXVXVXVXVXVXl.X                     +.MXVXVXVXVXVXVXVXVXVXVXVXVXVXVX`.",
"`.VXVXVXVXVXVXVXVXVXVXVXVXVXVXVXBX'                   c.VXVXVXVXVXVXVXVXVXVXVXVXVXg.                  X.BXVXVXVXVXVXVXVXVXVXVXVXVXVXVXVX`.",
"`.VXVXVXVXVXVXVXVXVXVXVXVXVXVXVXVXbXA               ,.VXVXVXVXVXVXVXVXVXVXVXVXVXVXVX&.              C vXVXVXVXVXVXVXVXVXVXVXVXVXVXVXVXVX`.",
"`.VXVXVXVXVXVXVXVXVXVXVXVXVXVXVXVXVXyX6           G MXVXVXVXVXVXVXVXVXVXVXVXVXVXVXVXmXZ           0 pXVXVXVXVXVXVXVXVXVXVXVXVXVXVXVXVXVX`.",
"`.VXVXVXVXVXVXVXVXVXVXVXVXVXVXVXVXVXVXP.        ; 7XVXVXVXVXVXVXVXVXVXVXVXVXVXVXVXVXVX5X=         Y.VXVXVXVXVXVXVXVXVXVXVXVXVXVXVXVXVXVX`.",
"`.VXVXVXVXVXVXVXVXVXVXVXVXVXVXVXVXVXVXVX^       h.VXVXVXVXVXVXVXVXVXVXVXVXVXVXVXVXVXVXVXp.      ] VXVXVXVXVXVXVXVXVXVXVXVXVXVXVXVXVXVXVX`.",
"`.VXVXVXVXVXVXVXVXVXVXVXVXVXVXVXVXVXVXVX5X$   d nXVXVXVXVXVXVXVXVXVXVXVXVXVXVXVXVXVXVXVXnXd   % 9XVXVXVXVXVXVXVXVXVXVXVXVXVXVXVXVXVXVXVX`.",
"`.VXVXVXVXVXVXVXVXVXVXVXVXVXVXVXVXVXVXVXVX=.  P.VXVXVXVXVXVXVXVXVXVXVXVXVXVXVXVXVXVXVXVXVXF.  2.VXVXVXVXVXVXVXVXVXVXVXVXVXVXVXVXVXVXVXVX`.",
"`.VXVXVXVXVXVXVXVXVXVXVXVXVXVXVXVXVXVXVXVX0Xc BXVXVXVXVXVXVXVXVXVXVXVXVXVXVXVXVXVXVXVXVXVXBXl eXVXVXVXVXVXVXVXVXVXVXVXVXVXVXVXVXVXVXVXVX`.",
"`.VXVXVXVXVXVXVXVXVXVXVXVXVXVXVXVXVXVXVXVXVX8XVXVXVXVXVXVXVXVXVXVXVXVXVXVXVXVXVXVXVXVXVXVXVX8XVXVXVXVXVXVXVXVXVXVXVXVXVXVXVXVXVXVXVXVXVX`.",
"`.VXVXVXVXVXVXVXVXVXVXVXVXVXVXVXVXVXVXVXVXVXVXVXVXVXVXVXVXVXVXVXVXVXVXVXVXVXVXVXVXVXVXVXVXVXVXVXVXVXVXVXVXVXVXVXVXVXVXVXVXVXVXVXVXVXVXVX`.",
"`.VXVXVXVXVXVXVXVXVXVXVXVXVXVXVXVXVXVXVXVXVXlXVXVXVXVXVXVXVXVXVXVXVXVXVXVXVXVXVXVXVXVXVXVXVXlXVXVXVXVXVXVXVXVXVXVXVXVXVXVXnX<XVXVXVXVXVX`.",
"`.VXVXVXVXVXVXVXVXVXVXVXVXVXVXVXVXVXVXVXVXgX! VXVXVXVXVXVXVXVXVXVXVXVXVXVXVXVXVXVXVXVXVXVXVXT jXVXVXVXVXVXVXVXVXVXVXVXVXVXm.~ VXVXVXVXVX`.",
"`.VXVXVXVXVXVXVXVXVXVXVXVXVXVXVXVXVXVXVXVXu.  @XVXVXVXVXVXVXVXVXVXVXVXVXVXVXVXVXVXVXVXVXVX.X  f.VXVXVXVXVXVXVXVXVXVXVXVXgX8   ~.VXVXVXVX`.",
"`.VXVXVXVXVXVXVXVXVXVXVXVXVXVXVXVXVXVXVXsX2   S VXVXVXVXVXVXVXVXVXVXVXVXVXVXVXVXVXVXVXVXVXD   4 gXVXVXVXVXVXVXVXVXVXVXVX*.    s vXVXVXVX`.",
"`.VXVXVXVXVXVXVXVXVXVXVXVXVXVXVXVXVXVXVX>.      T.VXVXVXVXVXVXVXVXVXVXVXVXVXVXVXVXVXVXVXK.      7.VXVXVXVXVXVXVXVXVXVXU.o       } VXVXVX`.",
"`.VXVXVXVXVXVXVXVXVXVXVXVXVXVXVXVXVXVX%X+       e gXVXVXVXVXVXVXVXVXVXVXVXVXVXVXVXVXVXdX0       @ *XVXVXVXVXVXVXVXVXQ.&           3.VXVX`.",
"`.VXVXVXVXVXVXVXVXVXVXVXVXVXVXVXVXVXvXk           @.VXVXVXVXVXVXVXVXVXVXVXVXVXVXVXVXVX .          v nXVXVXVXVXVXVXF.#               X.VX`.",
"`.VXVXVXVXVXVXVXVXVXVXVXVXVXVXVXVXVXO.            . M.VXVXVXVXVXVXVXVXVXVXVXVXVXVXVXv.              ..VXVXVXVXVXVXrXm             , [.VX`.",
"`.VXVXVXVXVXVXVXVXVXVXVXVXVXVXVXVXt.                # |.VXVXVXVXVXVXVXVXVXVXVXVXVX~.+                 d.VXVXVXVXVXVXgXm         : %XVXVX`.",
"`.VXVXVXVXVXVXVXVXVXVXVXVXVXVXVXk.X                   > XXVXVXVXVXVXVXVXVXVXVXVX|.;                   X c.VXVXVXVXVXVXrX9     . Y.VXVXVX`.",
"`.VXVXVXVXVXVXVXVXVXVXVXVXVXVXt..                       ; /.VXVXVXVXVXVXVXVXVXE.*                       X d.VXVXVXVXVXVXG.    } VXVXVXVX`.",
"`.VXVXVXVXVXVXVXVXVXVXVXVXbX{                             + h.VXVXVXVXVXVXVXa.O                             o.nXVXVXVXVXVXP < yXVXVXVXVX`.",
"`.VXVXVXVXVXVXVXVXVXVXVXVXVXk.O                           < Q.VXVXVXVXVXVXVXR.,                           O r.VXVXVXVXVXVX-Xt.VXVXVXVXVX`.",
"`.VXVXVXVXVXVXVXVXVXVXVXVXVXVXU.$                       t 2XVXVXVXVXVXVXVXVXVX>Xq                       * E.VXVXVXVXVXVXVXVXnXVXVXVXVXVX`.",
"`.VXVXVXVXVXVXVXVXVXVXVXVXVXVXVX!.&                   i 8XVXVXVXVXVXVXVXVXVXVXVX4Xr                   - {.VXVXVXVXVXVXVXXXc > u F.VXVXVX`.",
"`.VXVXVXVXVXVXVXVXVXVXVXVXVXVXVXVXJ.X               1 1XVXVXVXVXVXVXVXVXVXVXVXVXVX>X,               X P.VXVXVXVXVXVXVXuX, V.BX[.e kXVXVX`.",
"`.VXVXVXVXVXVXVXVXVXVXVXVXVXVXVXVXVXe.            @ [.VXVXVXVXVXVXVXVXVXVXVXVXVXVXVX!.+             p.VXVXVXVXVXVXVXVXd.D VXVXVXVXVXVXVX`.",
"`.VXVXVXVXVXVXVXVXVXVXVXVXVXVXVXVXVXVXK           e.VXVXVXVXVXVXVXVXVXVXVXVXVXVXVXVXVX8.          I VXVXVXVXVXVXVXVXVX[ o.) w N  XVXVXVX`.",
"`.VXVXVXVXVXVXVXVXVXVXVXVXVXVXVXVXVXVX0X>       z bXVXVXVXVXVXVXVXVXVXVXVXVXVXVXVXVXVXnXc       > 0XVXVXVXVXVXVXVXVXVXT 6  XMXx.< aXVXVX`.",
"`.VXVXVXVXVXVXVXVXVXVXVXVXVXVXVXVXVXVXVXa.    X %XVXVXVXVXVXVXVXVXVXVXVXVXVXVXVXVXVXVXVXoX.     j.VXVXVXVXVXVXVXVXVXVX^ } VXVXVXe U.VXVX`.",
"`.VXVXVXVXVXVXVXVXVXVXVXVXVXVXVXVXVXVXVXbXi   { VXVXVXVXVXVXVXVXVXVXVXVXVXVXVXVXVXVXVXVXVX/   s nXVXVXVXVXVXVXVXVXVXVX6.~ VXVXVXt I.VXVX`.",
"`.VXVXVXVXVXVXVXVXVXVXVXVXVXVXVXVXVXVXVXVXM.O 4XVXVXVXVXVXVXVXVXVXVXVXVXVXVXVXVXVXVXVXVXVX,XX S.VXVXVXVXVXVXVXVXVXVXVX-X% /.BXb.> uXVXVX`.",
"`.VXVXVXVXVXVXVXVXVXVXVXVXVXVXVXVXVXVXVXVXbX<.VXVXVXVXVXVXVXVXVXVXVXVXVXVXVXVXVXVXVXVXVXVXVX;.nXVXVXVXVXVXVXVXVXVXVXVXVXC.r ; b [.VXVXVX`.",
").NXVXVXVXVXVXVXVXVXVXVXVXVXVXVXVXVXVXVXVXVXBXVXVXVXVXVXVXVXVXVXVXVXVXVXVXVXVXVXVXVXVXVXVXVXBXVXVXVXVXVXVXVXVXVXVXVXVXVXVXVXVXVXVXVXVXNX_.",
"xX(.`.'.'.'.'.'.'.'.'.'.'.'.'.'.'.'.'.'.'.'.'.'.'.'.'.'.'.'.'.'.'.'.'.'.'.'.'.'.'.'.'.'.'.'.'.'.'.'.'.'.'.'.'.'.'.'.'.'.'.'.'.'.'.'.`.(.xX"
};
