/* XPM */
static const char *queen_clubs[] = {
/* columns rows colors chars-per-pixel */
"69 100 235 2 ",
"   c #000100",
".  c #050B04",
"X  c #0C0C0C",
"o  c #090E05",
"O  c #0A1206",
"+  c #0D1608",
"@  c #0F1909",
"#  c #131C0A",
"$  c #181A0A",
"%  c #121212",
"&  c #1D1D1D",
"*  c #361713",
"=  c #1B220D",
"-  c #17230D",
";  c #23250E",
":  c #27270F",
">  c #262910",
",  c #2C2B12",
"<  c #292615",
"1  c #332E14",
"2  c #372917",
"3  c #2B3313",
"4  c #343115",
"5  c #3B3316",
"6  c #3A3719",
"7  c #31240F",
"8  c #1A3235",
"9  c #162F38",
"0  c #242423",
"q  c #2B2B2B",
"w  c #3A3628",
"e  c #393839",
"r  c #2B392E",
"t  c #7A1E11",
"y  c #472914",
"u  c #592815",
"i  c #43351A",
"p  c #443A1B",
"a  c #4B3B1C",
"s  c #473418",
"d  c #533D1E",
"f  c #59361C",
"g  c #682717",
"h  c #772617",
"j  c #6B3318",
"k  c #4A3A23",
"l  c #593B23",
"z  c #593A3C",
"x  c #683924",
"c  c #75332C",
"v  c #450F11",
"b  c #384435",
"n  c #3F511E",
"m  c #4B431E",
"M  c #53421E",
"N  c #5A411F",
"B  c #4D4428",
"V  c #544220",
"C  c #5B4422",
"Z  c #5C4A24",
"A  c #5C4A2B",
"S  c #534925",
"D  c #5E5A22",
"F  c #584B36",
"G  c #5D543A",
"H  c #474B34",
"J  c #624422",
"K  c #644C25",
"L  c #684B28",
"P  c #734B28",
"I  c #65522B",
"U  c #6B542A",
"Y  c #6A5427",
"T  c #735D2B",
"R  c #76592A",
"E  c #674738",
"W  c #685736",
"Q  c #735C34",
"!  c #794839",
"~  c #6E6928",
"^  c #7B662B",
"/  c #6D633C",
"(  c #776737",
")  c #373B4C",
"_  c #5D3D4F",
"`  c #3B4966",
"'  c #344E6F",
"]  c #346C7A",
"[  c #396C76",
"{  c #3C7175",
"}  c #2F697F",
"|  c #3C4156",
" . c #494849",
".. c #5B5845",
"X. c #585956",
"o. c #4C4E4B",
"O. c #665A42",
"+. c #734E49",
"@. c #576959",
"#. c #5E6C53",
"$. c #696545",
"%. c #786848",
"&. c #777757",
"*. c #6F7350",
"=. c #405163",
"-. c #4C7B6F",
";. c #42736D",
":. c #517E6E",
">. c #587964",
",. c #437572",
"<. c #497970",
"1. c #456E6E",
"2. c #656565",
"3. c #6A6B6A",
"4. c #737373",
"5. c #7B7B7B",
"6. c #637C62",
"7. c #98160E",
"8. c #881D12",
"9. c #971B15",
"0. c #8E190F",
"q. c #B70E09",
"w. c #A8130D",
"e. c #A81815",
"r. c #B8121C",
"t. c #B4100B",
"y. c #8A2518",
"u. c #981F20",
"i. c #A71A26",
"p. c #B21721",
"a. c #863335",
"s. c #973836",
"d. c #8D292D",
"f. c #A2272B",
"g. c #C8090A",
"h. c #D40405",
"j. c #DE0001",
"k. c #D1070B",
"l. c #C60B13",
"z. c #8A4F35",
"x. c #85692B",
"c. c #86752B",
"v. c #927D2B",
"b. c #867933",
"n. c #836834",
"m. c #843042",
"M. c #915647",
"N. c #847858",
"B. c #8F6F52",
"V. c #A07961",
"C. c #728653",
"Z. c #55816E",
"A. c #5B856E",
"S. c #5E886E",
"D. c #5D8871",
"F. c #638A6F",
"G. c #6A886A",
"H. c #788666",
"J. c #658C70",
"K. c #698E71",
"L. c #6D9272",
"P. c #729574",
"I. c #769876",
"U. c #799A76",
"Y. c #7C9D79",
"T. c #769978",
"R. c #7B9263",
"E. c #B9AA1C",
"W. c #988829",
"Q. c #948532",
"!. c #8E8C33",
"~. c #A39524",
"^. c #AFA927",
"/. c #C7BB14",
"(. c #D7C909",
"). c #DED103",
"_. c #CCC213",
"`. c #E2D200",
"'. c #898E52",
"]. c #85956B",
"[. c #819F7B",
"{. c #889975",
"}. c #8F8D69",
"|. c #A69375",
" X c #83A27C",
".X c #8AA47D",
"XX c #99A67C",
"oX c #9FA86F",
"OX c #1F5D8F",
"+X c #1B5C94",
"@X c #13569D",
"#X c #16599B",
"$X c #255387",
"%X c #2B6682",
"&X c #246189",
"*X c #266287",
"=X c #1156A1",
"-X c #888888",
";X c #9B9B9B",
":X c #8AA681",
">X c #8EA983",
",X c #87A580",
"<X c #92AC86",
"1X c #98AB87",
"2X c #9AB18C",
"3X c #9EB491",
"4X c #A7B996",
"5X c #B0AD90",
"6X c #A7A7A7",
"7X c #B8B8B8",
"8X c #B9BCAE",
"9X c #B29C81",
"0X c #C5BBA3",
"qX c #AEC19E",
"wX c #B2C29E",
"eX c #B6C6A5",
"rX c #C9D4B9",
"tX c #D2D6BD",
"yX c #C6CAAE",
"uX c #CBCBCB",
"iX c #C3C3C3",
"pX c #D5DCC5",
"aX c #D7D7D7",
"sX c #D9E2CB",
"dX c #DEE3D2",
"fX c #E4E8D9",
"gX c #EDEDED",
"hX c #E7E9E3",
"jX c #ECF1E3",
"kX c #F3F5EC",
"lX c #F0F2E6",
"zX c #F4F4F4",
"xX c #F9FAF5",
"cX c #FFFFFF",
"vX c #F7F8F1",
/* pixels */
"xXiXuXuXuXuXuXuXuXuXuXuXuXuXuXuXuXuXuXuXuXuXuXuXuXuXuXuXuXuXuXuXuXuXuXuXuXuXuXuXuXuXuXuXuXuXuXuXuXuXuXuXuXuXuXuXuXuXuXuXuXuXuXuXuXuXuXiXzX",
"iXcXcXcXcXcXcXcXcXcXcXcXcXcXcXcXcXcXcXcXcXcXcXcXcXcXcXcXcXcXcXcXcXcXcXcXcXcXcXcXcXcXcXcXcXcXcXcXcXcXcXcXcXcXcXcXcXcXcXcXcXcXcXcXcXcXcXcXiX",
"uXzX5.& & & 2.gXcXcXcXcXcXcXcXcXcXcXcXcXcXcXcXcXcXcXcXcXcXcXcXcXcXcXcXcXcXcXcXcXcXcXcXcXcXcXcXcXcXcXcXcXcXcXcXcXcXcXcXcXcXcXcXcXcXcXcXcXuX",
"uXo.o.gXcXzX4.0 zXcXcXcXcXcXcXcXcXcXcXcXcXcXcXcXcXcXcXcXcXcXcXcXcXcXcXcXcXcXcXcXcXcXcXcXcXcXcXcXcXcXcXcXcXcXcXcXcXcXcXcXcXcXcXcXcXcXcXcXuX",
"6XX zXcXcXcXcXe ;XcXcXcXcXcXcXcXcXcXcXcXcXcXcXcXcXcXcXcXcXcXcXcXcXcXcXcXcXcXcXcXcXcXcXcXcXcXcXcXcXcXcXcXcXcXcXcXcXcXcXcXcXcXcXcXcXcXcXcXuX",
"5.e cXcXcXcXcX4.3.cXcXcXcXcXcXcXcXcXcXcXcXcXcXcXcXcXcXcXcXcXcXcXcXcXcXcXcXcXcXcXcXcXcXcXcXcXcXcXcXcXcXcXcXcXcXcXcXcXcXcXcXcXcXcXcXcXcXcXuX",
"5.e cXcXcXcXcX3.4.cXcXcXcXcXcXcXcXcXcXcXcXcXcXcXcXcXcXcXcXcXcXcXcXcXcXcXcXcXcXcXcXcXcXcXcXcXcXcXcXcXcXcXcXcXcXcXcXcXcXcXcXcXcXcXcXcXcXcXuX",
"6X% zXcXcXcXcXe ;XcXcXcXcXcXcXcXcXcXcXcXcXcXcXcXcXcXcXcXcXcXcXcXcXcXcXcXcXcXcXcXcXcXcXcXcXcXcXcXcXcXcXcXcXcXcXcXcXcXcXcXcXcXcXcXcXcXcXcXuX",
"uX .o.zXcXcX-Xq xXcXcXcXcXcXcXcXcXcXcXcXcXcXcXcXcXcXcXcXcXcXcXcXcXcXcXcXcXcXcXcXcXcXcXcXxXcXcXcXcXcXcXcXcXcXcXcXcXcXcXcXcXcXcXcXcXcXcXcXuX",
"uXzX3.& q 0 X.gXcXgX2.2.2.2.2.2.2.2.X.2.2.2.2.2.2.2.2.2.2.2.2.w 2 e b b r b b b 8 b $ . * v * 1 D D D D D D D B b 2.2.hXcXcXcXcXcXcXcXcXuX",
"uXcXcXcX4.X.cXcXcX4.hXcXcXcXcXzX4.X   X X.gXcXcXcXcXcXcXcXcXcX+.+.L.L.K.eXP.I.Y.-.<.G   $ j.0.N (.).~ ).E.).).!. XcXgX3.cXcXcXcXcXcXcXcXuX",
"uXcXcXhX;Xe q -XcX4.cXcXcXcXcXX.          e cXcXcXcXcXcXcXcXcX+.! U.L.:XcX XP.P.J.,.-.:   y j.j P Y . # @ E.).!. XcXcX4.cXcXcXcXcXcXcXcXuX",
"uXcXzX&     7XcXcX4.cXcXcXcXaX              6XcXcXcXcXcXcXcXcXx +.K.L.cXcXxXY. XP.] L.X.. . t.g.f Z - 1 ; (.`.!.Y.cXcX4.cXcXcXcXcXcXcXcXuX",
"uXcXaX      -XcXcX4.cXcXcXcX6X              5.cXcXcXcXcXcXcXcXc +.P.jXcXcXcXcX<X X] P.F.,   $ j.8.^ P . 1 `.`.~.&.cXcX4.cXcXcXcXcXcXcXcXuX",
"uXxXuXe   X 6XgXcX4.cXcXcXcXiX              ;XcXcXcXcXcXcXcXxXd._ :.J.tXcX4X-.A.A.] A.L.@..   g j.u x.K v.`.`._.#.cXcX4.cXcXcXcXcXcXcXcXuX",
"iXq           X iX4.cXcXcXcXcXq           % gXcXcXcXcXcXcXcX5Xe._ 6X8XL.cXfX4X[.2XU.{ P.Z.4   . g.q.f E./.1 W.W.$.cXcX4.cXcXcXcXcXcXcXxXuX",
"6X              5.4.cXcXzX7X6X6XX         -X7X7XgXcXcXcXcXcXE j.+.L.<.[ cX X{ ,.{ { ,.L.I.>.o   7 j.h P v.  #   I xXcX4.cXcXcXcXcXcXcXcXuX",
"iX0   & o.X.  X 7X4.cX6X%       %       %       X -XcXcXcXxXh j.z { { Z.cXY.} { Z.A.{ Z.J.Z.i     0.j.u ^ 1 > > W 4XcX4.cXcXcXcXcXcXcXcXuX",
"uXgX7XgX0 uXiXaXcX4.uX                              6XcXcXW q.7.< ,XK.L.cXsXY.tXxXcX3XZ.J.L.F.O   + j.q.J R + > E.O.cX4.cXcXcXcXcXcXcXcXuX",
"uXcXcXhX;XiXcXcXcX4.3.                              e cXfXj j.7 = gXeXeXcXqXsXtXcXcXcX-.Y.Y.-.k     y j.h P ^ ^ ).E lX4.cXcXcXcXcXcXcXcXuX",
"uXcXcXcXcXcXcXcXcX4. .                              0 cXl h.j.o + cX>XY.-.F.4XcXcXcXcXF.I..XY.L.@   . w.j.f R c.+ 6 $.4.cXcXcXcXcXcXcXcXuX",
"uXcXcXcXcXcXcXcXcX4.4.            0   q             o.N.8.j.7.  . eXcX,XxXpXcXcXcXcXcXrX;. XY.F.B     $ j.t.N C O > > 2.cXcXcXcXcXcXcXcXuX",
"uXcXcXcXcXcXcXcXcX4.hXX         . 7X  7XX           8Xg j.j.:     O.>XZ.-.,.F.cXcXcXcXcX,.P..XI.P.$     u j.g v.p # 3 2 cXcXcXcXcXcXcXcXuX",
"uXcXcXcXcXcXcXcXcX4.cX7X&     & 7XaX. 6XuXq     X 6Xl h.j.h..     , Y.A.-.P.Y.cXcXcXcXjX{ Z.Y.<X:.F     . g.8.a A 6 w < cXcXcXcXcXcXcXcXuX",
"uXcXcXcXcXcXcXcXcX4.cXcXxXuXuXxXcX-X  3.cXcXaXiXzXN.0.j.j.u       O pX4XA. XzXcXcXcXpXP.jX-. XU..XL.=     @ G tXcXcXcX4.cXcXcXcXcXcXcXcXuX",
"uXcXcXcXcXcXcXcXcX4.cXcXcXcXcXcXzX0   % hXcXcXcXxXj j.j.j.+         k cXcXcXcXcXxXL.L.kXkXY.-.[.Y.P...      $.cXcXcXcX4.cXcXcXcXcXcXcXcXuX",
"uXcXcXcXcXcXcXcXcX4.cXcXcXcXcXcXiX4.5.5.6XcXcXcX$.l.j.j.t           . $.cXcXxX].X.` ` ` =.=.=.Y.<XI.F.;     # zXcXcXcX4.cXcXcXcXcXcXcXcXuX",
"uXcXcXcXcXcXcXcXcX4.cXcXcXcXcXcXcXcXcXcXcXcXcXcXh j.j.j.5 C L L K L Y Y U U U U Y U R R Y P K @.:X>XK.#..     i cXcXcX4.cXcXcXcXcXcXcXcXuX",
"uXcXcXcXcXcXcXcXcX4.cXcXcXcXcXcXcXcXcXcXcXcXcXyX9.j.j.g p a a a a a a d l V V V d m d V M m m A  X>X XK.,     . |.cXcX4.cXcXcXcXcXcXcXcXuX",
"uXcXcXcXcXcXcXcXcX4.cXcXcXcXcXfXQ 5XcXcXcXcXcXW h.j.j.O   # d a o . > a > . o a a # . = p 5 o O F <X XP.6..     = cXcX4.cXcXcXcXcXcXcXcXuX",
"uXcXcXcXcXcXcXcXcX3.cXcXcXcXqXo./.$.%XxXcXcXcXc j.j.y     , Z >     Z Y o   = R i     M ^ =   # K G. X>X<.6       A cX4.cXcXcXcXcXcXcXcXuX",
"uXcXcXcXcXcXcXcXcX4.cXcXcXcX/ S Z S ..wXcXcXcXc j.w.a W.>     d R @   $ T 5     5 Y #   O K Z     p Y. X>X6.o     O yX4.cXcXcXcXcXcXcXcXuX",
"uXcXcXcXcXcXcXcXxX4.cXcXcXcX( Y ~.Y (.XXcXcXcXd.j.3 a M ; $ ; l i # # 5 C ; @ # C M # O 3 M 3 + - M I  X,X:.k       ; 4.cXcXcXcXcXcXcXcXuX",
"uXcXcXcXcXcXcXcXcX4.}.C.xXcX&.S L D ' jXcXcXcXa.y 6 I N 6 s s f f a 4 M 6 K U K V K i p a d l x C k 6 F <X:X-.5     . 2 cXcXcXcXcXcXcXcXuX",
"uXcXcXcXcXcXcXcXcX4.N.^ / 5XrXS U #.Z.cXcXcXcXE #   N.Y f j.s.f.j.y # K + ~.`.1 @ E.+ + B.l.h.h.h.h.M.u k T.T.A.B $ X o cXcXcXcXcXcXcXcXuX",
"uXcXcXcXcXcXcXcXcX4.jXW T ( rXD ].xXkXlXxXcXhX%X` . @ B.c.c 5X0Xp.$ ; , ; `.T # K : o ! xX}.k.j.j.s.fXV.e.y O.[.F.:.T.b cXcXcXcXcXcXcXcXuX",
"uXcXcXcXcXcXcXcXcX4.cXlX*.Z S W Q Y K ^ *.kX[ =X=X,   XXQ x B.M.r.O a ; K ).# C = . 7.s.V.s.h.j.j.s.|.M.l.j.y +X{ ,.] 8 cXcXcXcXcXcXcXcXuX",
"uXcXcXcXcXcXcXcXcX4.cXcX2XZ.O.m m W ( C.fX[ =X=X=Xe   W Q j k.k.w.. L O ).N = C @ g k.j.l.j.j.j.k.p.f.i.r.d.$X=X=X=X=X9 cXcXcXcXcXcXcXcXuX",
"uXcXcXcXcXcXcXcXcX4.cXqXZ.rXL.jX<.eXcXfXk >.#X=X=Xe   N.( g j.j.u $ 5 , ).# C # 2 zXs.j.j.l.a.+.H.&.%.$.#.=X=X=X=X=X=X9 cXcXcXcXcXcXcXcXuX",
"uXcXcXcXcXcXcXcXcX4.cX:.eXZ.-.4XcXF.}.f i.@.Y.=X=X; . 0Xx.h j.j.7 1 : Y Y # Y # |.tX0Xr.m.}.I I I Z d k J I F  .@X=X=X9 cXcXcXcXcXcXcXcXuX",
"uXcXcXcXcXcXcXcXcX4.cXU.F.F.:XeXcXO.h d.].A.,.D.e   5 ( T 9.r.j.$ M = _.: 1 < y h.f.p.&.U K p # 5 K i 3 N i < K A  .=X9 cXcXcXcXcXcXcXcXuX",
"uXcXcXcXcXcXcXcXcX4.cXF.L.Z.zXxXE 9.a.4X,.+X%X:.1 ; |.( s M.|.r.+ N $ ).# C # h.j.9.N.A N d ^ P 4 5 6 3 N P d J C Q F < cXcXcXcXcXcXcXcXuX",
"uXcXcXcXcXcXcXcXcX4.cX6.Z..XjXx e.! 8X%XOX<.<.=XL.#.Y K 2 dXjXs.# d 4 R O k 7 j.e.H.I k 4 4 k J c., 6 M i 3 1 d ^.3 B 6 cXcXcXcXcXcXcXcXuX",
"uXcXcXcXcXcXcXcXcX4.cXn.>.H.j e.%.,XOX-.[.%X,.%X>.C.m 6 s r.r.g.# 5 M i C # 0.k.O.A L v.P v.i ; , m K N 5 5 i N ; 4 ( b cXcXcXcXcXcXcXcXuX",
"uXcXcXcXcXcXcXcXcX4.vXL $.h u.}.S.@X@XqX<X=X,.N.Q S m = ^ u j.w.$ = ^ , K $ j.c Q d C i d i < b.W o.' =.o.W J = M %..Xb cXcXcXcXcXcXcXcXuX",
"uXcXcXcXcXcXcXcXcX4.cXF y.d.4X,.{ { Z.#X&XJ.( x.m J > x.s y j.t , - E.- K : q.$.I i J R > s W ` =X=X=X#X=X=XS Y C.4X{ 9 cXcXcXcXcXcXcXcXuX",
"uXcXcXcXcXcXcXcXcX3.P u.c eX} %X%X[ +X+X{.W ( F U i a E.: i g.u , = _.- 5 u y.Q C W.M W., ( ' =X@Xe 5 k ' H ~ C.qX} =Xr cXcXcXcXcXcXcXcXuX",
"uXcXcXcXcXcXcXcXcX* e.+.3X+X,.cXZ.&X%X}.Q K ` @XI 4 v.J + C u 7 1 + ^ + < h f A N d 4 5 W.=.=X' 7 e.j.w.6 !.R..X+XS.] r cXcXcXcXcXcXcXcXuX",
"uXcXcXcXcXcXcXcXcX* N.L.&XOX%XL.OX{ N.^ 5 : =X=XF ; R 4 i R       . , .       6 , K z.= / =X=X7 h.j.0.M !.{.F.=X%XcX3X9 cXcXcXcXcXcXcXcXuX",
"uXcXcXcXcXcXcXcXcX2.<.=X,.{ OX@XA.%.^ 4 0.9.=X=XJ k ^ R p ^       ^ `.Y       a V b.^.p ..=X| g j.h J C.2X,.=XJ.*X1.&Xe cXcXcXcXcXcXcXcXuX",
"uXcXcXcXcXcXcXcXcX8 <.Y.{ A.+XY.Q R 2 q.j.h =X=XI i Q.z., Y     . K /.a       p K M Q.a ..=Xe 7.f U %.wX} +X*X-.D.+X,X< cXcXcXcXcXcXcXcXuX",
"uXcXcXcXcXcXcXcXcX8  XkX&X*X{.( C 2 j.j.9.| =X=.T > N a > C O   .   =     . . m i P P i ..=X| 3 c.C.2X&X{ fX] =X%XXXy v cXcXcXcXcXcXcXcXuX",
"uXcXcXcXcXcXcXcXcXo.+X] ] '.( E 1 8.8.c ` =X#XA a R J E.d %.f g 1 + W.- > t j.M = c.c.a / ' A !.'.P.+X] I.:X] { N.u h w cXcXcXcXcXcXcXcXuX",
"uXcXcXcXcXcXcXcXcX8 =X-.N.x.F $X=X=X=X=X=X#XA ^ 1 Q.x.a c.C.h 7 d - _.= = 7.j.x i E.> 5 U S C.XX-.=XOX*X%X@XA.W h c 5X4.cXcXcXcXcXcXcXcXuX",
"uXcXcXcXcXcXcXcXcX8 L.( c.m A o.=X=X=X=X .A ^ ; d 3 N 3 %.C g.+ ^ = Q.3 ; g.j.h a L f M Y C.4X] { { ] &X} .Xl y.x W vX4.cXcXcXcXcXcXcXcXuX",
"uXcXcXcXcXcXcXcXcX..Q T 3 = 1 Q I A A I ^ 5 ; v.P /.d b.*.u g.+ a > K < 4 h.j.h.J - p F #.4X*X#XrXfX+X*X2Xf y.z W W xX4.cXcXcXcXcXcXcXcXuX",
"uXcXcXcXcXcXcXcXcXp V m J x.R ; # ; ; $ 1 d P a d 1 ^ $.s h.u > ; i i 5 = i.B.i.j n Z G.Z.+X,.*X,.%X[ }.u u.&.sX@.C.cX4.cXcXcXcXcXcXcXcXuX",
"uXcXcXcXcXcXcXcXcX< V : ^ l a M R ~.J J R p n.W.: ^ $.l w.j.# i + c.4 K = V.cX5Xy.~ *.S 1X&XZ.,.%X:.O.g c XXcX XZ.L.cX4.cXcXcXcXcXcXcXcXuX",
"uXcXcXcXcXcXcXcXcX8  .R a 4 d ^.U 1 a L 5 4 1 a c./ M 8.j.0.# i O (.# K = k.tXr.x '.a   w 1X+X+XT.l y.c pX4XpXZ.Z.D.cX4.cXcXcXcXcXcXcXcXuX",
"uXcXcXcXcXcXcXcXcX8 =X$XF T i 5 4 = 5 i 4 5 ^ / $.i ! V.f.$ > , : ~.; : 7 j.j.w.c.].. + @X{ F.G.f y.E rXcXU.D.-.qXS.cX4.cXcXcXcXcXcXcXcXuX",
"uXcXcXcXcXcXcXcXcX8 =X=X=X$X .W $.( Q Q ( $.O.y u r.9XtXg # I . T a # 5 u j.j.y.Q.S   ) =X=XZ.B g %.cXeXjXdX{ ,X2XL.cX4.cXcXcXcXcXcXcXcXuX",
"uXcXcXcXcXcXcXcXcX8 =X=X=X=X=Xk y l k f f u g k.j.j.f.z.O < p # `.$ Y . w.j.j.y.b.i   ' =X=X=X-.3XaX( Q G 9X[.eXA.eXcX4.cXcXcXcXcXcXcXcXuX",
"uXcXcXcXcXcXcXcXcX9 =X=X=X=X) 8.l.s.s.l.j.j.k.s.r.j.j.: = d . N W.. K = r.s.l.y.( k   ) =X=X#XqX'.T Q.b.L n O.G 2XcXcX4.cXcXcXcXcXcXcXcXuX",
"uXcXcXcXcXcXcXcXcXr :.P.K.,.z g.f.vXcXs.j.j.B.xXcXp.y   > a # `.5 a , $ xXxX0Xy.Q.W   ; =X=XT.cX&.G.'.oX'.W W R R }.cX4.cXcXcXcXcXcXcXcXuX",
"uXcXcXcXcXcXcXcXcX$ 5 W -.L.<X2.i.M.M.j.j.j.k.yXz.g # T a . Y /.o 4 = 7 f.vXr.j.P ( =   q [ cXcXcXcXcX5XI C.dX/ b.Q.4X4.cXcXcXcXcXcXcXcXuX",
"uXcXcXcXcXcXcXcXcX+     - *.J.Y.Z.c f x f f f u y . O V > - Y p - M O : u g g g 1 Z A   O c cXcXcXcX1.W _.o.J.kX*.( ].4.cXcXcXcXcXcXcXcXuX",
"uXcXcXcXcXcXcXcXcXX.+     @ @.T.>XA.N M M l M M d d N C C Z K K Z J C K L L Y Y P L I 6 t c cXcXcX5XL Z I M O.cXcXyXpX4.cXcXcXcXcXcXcXcXuX",
"uXcXcXcXcXcXcXcXcX4.A       < ] .X>X$.M     1 v.5   . Y x..   - x.i     a T $   . Z Z > j.a.cXcXcX'./.K W.~ '.cXcXcXcX4.cXcXcXcXcXcXcXcXuX",
"uXcXcXcXcXcXcXcXcX4.cX=       G J.3X2XH O . 4 5 # O @ 5 , O . > i # . + a i O   - i 7 q.j.a.cXcXcXxX' S U S :.cXcXcXcX4.cXcXcXcXcXcXcXcXuX",
"uXcXcXcXcXcXcXcXcX4.cX9X.     # D..X<XU.G #   @ (.Z     K ).=   O (.v..   5 (.5     y j.j.z.cXcXcXcXU.$.'.Z.2XcXcXcXcX4.cXcXcXcXcXcXcXcXuX",
"uXcXcXcXcXcXcXcXcX4.cXcXa       B Z.1X.XG.4 5 i C i 1 1 d V 1 1 5 a 5 , < p a 4 ; $ j.j.j.&.cXcXcXcXcXcXcXcXcXcXcXcXcX4.cXcXcXcXcXcXcXcXuX",
"uXcXcXcXcXcXcXcXcX4.cXcXxX$     O F.2X2X.X..m d d k d d C C C M C d d d N M l a 1 g j.j.r.pXcXcXcXcXcXcXcXcXcXcXcXcXcX4.cXcXcXcXcXcXcXcXuX",
"uXcXcXcXcXcXcXcXcX4.cXcXcXN.      p <.4X XP.o.W W W W I I W $.$.$.A 5 5 1 1 1 1 , j.j.j.a.cXcXcXcXcXcXcXcXcXcXcXcXcXcX4.cXcXcXcXcXcXcXcXuX",
"uXcXcXcXcXcXcXcXcX4.cXcXcXcX5     o >.,X>X[.F.*X%X] } +X-.sXcXcXcXfX#           u j.j.t.1XcXcXcX;X2.2.2.uXcXcXcXcXcXcX4.cXcXcXcXcXcXcXcXuX",
"uXcXcXcXcXcXcXcXcX4.cXcXcXcXpXo     5 -. X.X X-.cXkXF.4XcXcXcXtXfXpXN.        O j.j.j.+.cXcXcXcXfX.    .cXcXcXcXcXcXcX4.cXcXcXcXcXcXcXcXuX",
"uXcXcXcXcXcXcXcXcX3.cXcXjX{.k :     . #.I.U. XA.2XK.jXcXcXcXcXeXA.eXcX-       u j.j.i.yXhX6XiXcXcXX.  6XcXgX7X7XzXcXcX4.cXcXcXcXcXcXcXcXuX",
"uXcXcXcXcXcXcXcXcX< 3 > S S y j.$     , :..XU.L.%XvXcXcXcXcX X-.] { Z.B     . h.j.g.%.5.      0 uX;X  gX-XX     % 7XcX4.cXcXcXcXcXcXcXcXuX",
"uXcXcXcXcXcXcXcXcXw 3 $ > Y d g.t..     #.I. XK.Z.hXcXcXcXcXyX<X4XrXjX0X    : j.j.a.;X          % ;X% 6X          % hX4.cXcXcXcXcXcXcXcXuX",
"uXcXcXcXcXcXcXcXcX4.4 @ . K T u j.y     > -.>XI.<.K.cXcXcXcXcXY.T. X4XcX+   t j.u.eXe             0 % X             -X4.cXcXcXcXcXcXcXcXuX",
"uXcXcXcXcXcXcXcXcX4.XXV > ~.x.Y 8.j.$   . G U. XI.Z.cXcXcXcXcX.X:X4X2XcX= . j.k.+.cXX                               2.4.cXcXcXcXcXcXcXcXuX",
"uXcXcXcXcXcXcXcXcX4.cXA ).l a R f h.7.    = -..XY.,.rXcXcXxX4XxXcXsXY.vX1 = j.d.hXcXq                               -X4.cXcXcXzXgXxXcXcXuX",
"uXcXcXcXcXcXcXcXcX4.cX%.c.1 . M /.g j.2     F P.:XF.K.cX4X<X.X:XcXI.:. XH g k.%.cXcX;X                            X hX3.cXcXcX-X& gXcXcXuX",
"uXcXcXcXcXcXcXcXcX4.cXfXA - > # J L 7.h.O   # { .XY.] %X[ [ ] -.cXA.] OX' y.i.fXcXcXcX-XX     X X       &       0 uXcX4.aXe & ;X2.X.% -XuX",
"uXcXcXcXcXcXcXcXcX4.cXcXZ + =   ^ R f j.8.    k D.:X{ 3X>XD.:XeXcXU.4X[.#.t.+.cXcXcXcXcXzXiXiX5.        X 7X7XuXcXcXcX4.2.    X X       7X",
"uXcXcXcXcXcXcXcXcX4.cXcXI ^.(.L )./.P g j.:   + ,.I.S.Z.2XeX2X3XcX<XP.[.X.l.H.cXcXcXcXcXcXcXaXX           e cXcXcXcXcX4.5.        .   % 7X",
"uXcXcXcXcXcXcXcXcX4.cXcXO.^ `.`.C , T P w.g..   5 Z.J.] P.L.Y.fXcXcXpX:X..p.pXcXcXcXcXcXcXcX5.              aXcXcXcXcX4.xX;X4.X   e 4.aXuX",
"uXcXcXcXcXcXcXcXcX4.cXcX].Y `.`.s   4 _.f j.g   O >.L.] Y.:XqXcXcXcXrXP.O.d.cXcXcXcXcXcXcXcX2.              7XcXcXcXcX4.cXcX-X    X xXcXuX",
"uXcXcXcXcXcXcXcXcX4.cXcX3XI `.(.+ = O J L h j.#   5 [ { L.U.:XqXcXxXK.L.+.m.cXcXcXcXcXcXcXcX;X            . gXcXcXcXcX4.cXcX5.    X zXcXuX",
"uXcXcXcXcXcXcXcXcX4.cXcX4XL `.`.1 1 + T x.d t.t.. . #.{ A.>XY. XdX<X X X..+.cXcXcXcXcXcXcXcXzXe           5.cXcXcXcXcX4.cX-X0 &  .7XcXcXuX",
"uXcXcXcXcXcXcXcXcX3.zXcX4XL `.`.`.`.).`.`.A u j.y   , A.,.<X>XY.L. X XL.E +.cXcXcXcXcXcXcXcXcXgX2.%   0 ;XcXcXcXcXcXzX3.cXcXcXX.4.xXcXcXuX",
"uXcXcXcXcXcXcXcXcXfXX.4.@.5 ~ ~ ~ ~ ~ ~ ~ 5 p * v $ o e b H o.o.b H o.H k w 5.4.4.5.5.4.4.5.5.4.4.5.4.4.4.5.4.5.5.4.X.aXcXgX2.0 0 & 3.zXuX",
"uXcXcXcXcXcXcXcXcXcXcXzXgXgXgXgXgXgXgXgXgXzXgXgXgXgXgXgXgXgXgXjXgXgXgXgXgXgXgXgXgXgXgXgXgXgXgXgXgXgXzXgXzXgXgXgXgXzXcXcXxXq 5.cXcXzXo. .uX",
"uXcXcXcXcXcXcXcXcXcXcXcXcXcXcXcXcXcXcXcXcXcXcXcXcXcXcXcXcXcXcXcXcXcXcXcXcXcXcXcXcXcXcXcXcXcXcXcXcXcXcXcXcXcXcXcXcXcXcXcX;Xe cXcXcXcXzX% 6X",
"uXcXcXcXcXcXcXcXcXcXcXcXcXcXcXcXcXcXcXcXcXcXcXcXcXcXcXcXcXcXcXcXcXcXcXcXcXcXcXcXcXcXcXcXcXcXcXcXcXcXcXcXcXcXcXcXcXcXcXcX3.4.cXcXcXcXcXe 5.",
"uXcXcXcXcXcXcXcXcXcXcXcXcXcXcXcXcXcXcXcXcXcXcXcXcXcXcXcXcXcXcXcXcXcXcXcXcXcXcXcXcXcXcXcXcXcXcXcXcXcXcXcXcXcXcXcXcXcXcXcX3.4.cXcXcXcXcXe 5.",
"uXcXcXcXcXcXcXcXcXcXcXcXcXcXcXcXcXcXcXcXcXcXcXcXcXcXcXcXcXcXcXcXcXcXcXcXcXcXcXcXcXcXcXcXcXcXcXcXcXcXcXcXcXcXcXcXcXcXcXcX;Xe cXcXcXcXgXX 6X",
"uXcXcXcXcXcXcXcXcXcXcXcXcXcXcXcXcXcXcXcXcXcXcXcXcXcXcXcXcXcXcXcXcXcXcXcXcXcXcXcXcXcXcXcXcXcXcXcXcXcXcXcXcXcXcXcXcXcXcXcXzX0 4.zXcXgXo.o.uX",
"uXcXcXcXcXcXcXcXcXcXcXcXcXcXcXcXcXcXcXcXcXcXcXcXcXcXcXcXcXcXcXcXcXcXcXcXcXcXcXcXcXcXcXcXcXcXcXcXcXcXcXcXcXcXcXcXcXcXcXcXcXgX2.& & 0 5.zXuX",
"iXcXcXcXcXcXcXcXcXcXcXcXcXcXcXcXcXcXcXcXcXcXcXcXcXcXcXcXcXcXcXcXcXcXcXcXcXcXcXcXcXcXcXcXcXcXcXcXcXcXcXcXcXcXcXcXcXcXcXcXcXcXcXcXcXcXcXcXiX",
"zXiXuXuXuXuXuXuXuXuXuXuXuXuXuXuXuXuXuXuXuXuXuXuXuXuXuXuXuXuXuXuXuXuXuXuXuXuXuXuXuXuXuXuXuXuXuXuXuXuXuXuXuXuXuXuXuXuXuXuXuXuXuXuXuXuXuXiXxX"
};
