/* XPM */
static const char *queen_spades[] = {
/* columns rows colors chars-per-pixel */
"69 100 237 2 ",
"   c #010000",
".  c #0C0000",
"X  c #0B0B0B",
"o  c #140102",
"O  c #1B0203",
"+  c #1B0808",
"@  c #1B1B1B",
"#  c #131313",
"$  c #240304",
"%  c #2B0505",
"&  c #2D0709",
"*  c #350B0A",
"=  c #3A0D0C",
"-  c #370203",
";  c #3E100D",
":  c #391615",
">  c #3A0E14",
",  c #35251D",
"<  c #292929",
"1  c gray22",
"2  c #392630",
"3  c #490405",
"4  c #580708",
"5  c #42130E",
"6  c #451613",
"7  c #4C1B12",
"8  c #4D1E1D",
"9  c #451616",
"0  c #551A14",
"q  c #500E13",
"w  c #670405",
"e  c #760406",
"r  c #681614",
"t  c #791816",
"y  c #700F10",
"u  c #542314",
"i  c #5C2B15",
"p  c #55251A",
"a  c #452B1C",
"s  c #652918",
"d  c #77251B",
"f  c #633316",
"g  c #6A3C17",
"h  c #6B3D19",
"j  c #683718",
"k  c #773A1B",
"l  c #471B27",
"z  c #4C2427",
"x  c #502925",
"c  c #552B27",
"v  c #5B3528",
"b  c #593834",
"n  c #482F36",
"m  c #6B2326",
"M  c #663A35",
"N  c #6C332B",
"B  c #7B1B21",
"V  c #3B453D",
"C  c #4F451E",
"Z  c #6E4119",
"A  c #6F4217",
"S  c #724418",
"D  c #764A18",
"F  c #7A4D19",
"G  c #774419",
"H  c #7E5418",
"J  c #7C5517",
"K  c #594C31",
"L  c #6B4526",
"P  c #7A5929",
"I  c #694538",
"U  c #73512F",
"Y  c #6D6820",
"T  c #7E6236",
"R  c #393051",
"E  c #2F3C69",
"W  c #463748",
"Q  c #334A73",
"!  c #464846",
"~  c #4B544A",
"^  c #585858",
"/  c #574B48",
"(  c #6C4A43",
")  c #725549",
"_  c #7C6349",
"`  c #4E5867",
"'  c #656565",
"]  c #6B6C6B",
"[  c #737373",
"{  c #7B7B7B",
"}  c #7D7468",
"|  c #476173",
" . c #880508",
".. c #960608",
"X. c #880D12",
"o. c #841416",
"O. c #900E14",
"+. c #A70305",
"@. c #B70202",
"#. c #BC151B",
"$. c #AB1016",
"%. c #822A1D",
"&. c #B61C22",
"*. c #A01F23",
"=. c #9A2E2F",
"-. c #AB292D",
";. c #B2252A",
":. c #AA3838",
">. c #AC2D31",
",. c #881D21",
"<. c #C50001",
"1. c #CA0101",
"2. c #CA080C",
"3. c #D50102",
"4. c #DD0001",
"5. c #D2060A",
"6. c #C80C12",
"7. c #C11219",
"8. c #845C17",
"9. c #845919",
"0. c #864C1D",
"q. c #8A6417",
"w. c #8F6A16",
"e. c #8B651A",
"r. c #926C16",
"t. c #926918",
"y. c #967215",
"u. c #9C7B14",
"i. c #987616",
"p. c #896B26",
"a. c #8F7530",
"s. c #9E5A2D",
"d. c #AA4944",
"f. c #A7544D",
"g. c #AA5B53",
"h. c #836749",
"j. c #836956",
"k. c #8A7554",
"l. c #90784C",
"z. c #AB6359",
"x. c #877566",
"c. c #907966",
"v. c #AC6D61",
"b. c #B27568",
"n. c #728279",
"m. c #9C811C",
"M. c #B5990E",
"N. c #A48313",
"B. c #A98A12",
"V. c #AE9211",
"C. c #B39811",
"Z. c #BCA30D",
"A. c #B5A116",
"S. c #9A892E",
"D. c #A58E20",
"F. c #C3AB0A",
"G. c #C1A609",
"H. c #CAB508",
"J. c #CAB409",
"K. c #D1BC07",
"L. c #D9C703",
"P. c #E2D200",
"I. c #E0CF01",
"U. c #998755",
"Y. c #968473",
"T. c #908672",
"R. c #A3957C",
"E. c #AA8674",
"W. c #A6A460",
"Q. c #17589B",
"!. c #1F4A8A",
"~. c #376D8C",
"^. c #276493",
"/. c #386E8C",
"(. c #1156A1",
"). c #205F97",
"_. c #4B7A88",
"`. c #447589",
"'. c #517E88",
"]. c #598488",
"[. c #638B88",
"{. c #698E89",
"}. c #6D918A",
"|. c #7B9B8E",
" X c #74968C",
".X c #798C80",
"XX c #868686",
"oX c #839E8E",
"OX c #999999",
"+X c #949A88",
"@X c #A69A87",
"#X c #BA9785",
"$X c #84A291",
"%X c #8EA996",
"&X c #89A594",
"*X c #94AD9A",
"=X c #93A894",
"-X c #9BB29D",
";X c #AEAB96",
":X c #9FB5A0",
">X c #A9A9A9",
",X c #A6BAA4",
"<X c #B5B7A3",
"1X c #B4B4B4",
"2X c #BBBBBB",
"3X c #C19787",
"4X c #C7A999",
"5X c #C4BCAD",
"6X c #AFC1AB",
"7X c #B3C3AD",
"8X c #BAC9B4",
"9X c #B7C6B1",
"0X c #C5CAB8",
"qX c #C5D1BE",
"wX c #D4C2B4",
"eX c #CBCBCB",
"rX c #C4C4C3",
"tX c #CAD5C2",
"yX c #CCD7C4",
"uX c #D3DCCC",
"iX c #D9D7CB",
"pX c #D4D4D4",
"aX c #DCDDD8",
"sX c #D3CEC2",
"dX c #DCE3D4",
"fX c #DEE6D9",
"gX c #E4E9DD",
"hX c #E2E6DA",
"jX c #E6E6E6",
"kX c #EBEEE5",
"lX c #EDEDED",
"zX c #E7ECE2",
"xX c #EDF1E9",
"cX c #F1F3ED",
"vX c #F4F5F3",
"bX c #FFFFFF",
"nX c #F8F9F6",
/* pixels */
"nXrXeXeXeXeXeXeXeXeXeXeXeXeXeXeXeXeXeXeXeXeXeXeXeXeXeXeXeXeXeXeXeXeXeXeXeXeXeXeXeXeXeXeXeXeXeXeXeXeXeXeXeXeXeXeXeXeXeXeXeXeXeXeXeXeXeXrXnX",
"rXbXXX< X @ ] vXbXbXbXbXbXbXbXbXbXbXbXbXbXbXbXbXbXbXbXbXbXbXbXbXbXbXbXbXbXbXbXbXbXbXbXbXbXbXbXbXbXbXbXbXbXbXbXbXbXbXbXbXbXbXbXbXbXbXbXbXrX",
"eX] < rXvXpX! 1 bXbXbXbXbXbXbXbXbXbXbXbXbXbXbXbXbXbXbXbXbXbXbXbXbXbXbXbXbXbXbXbXbXbXbXbXbXbXbXbXbXbXbXbXbXbXbXbXbXbXbXbXbXbXbXbXbXbXbXbXeX",
"1X  pXbXbXbXnX@ 1XbXbXbXbXbXbXbXbXbXbXbXbXbXbXbXbXbXbXbXbXbXbXbXbXbXbXbXbXbXbXbXbXbXbXbXbXbXbXbXbXbXbXbXbXbXbXbXbXbXbXbXbXbXbXbXbXbXbXbXeX",
"XX< bXbXbXbXbX' [ bXbXbXbXbXbXbXbXbXbXbXbXbXbXbXbXbXbXbXbXbXbXbXbXbXbXbXbXbXbXbXbXbXbXbXbXbXbXbXbXbXbXbXbXbXbXbXbXbXbXbXbXbXbXbXbXbXbXbXeX",
"{ ! bXbXbXbXbXXX^ bXbXbXbXbXbXbXbXbXbXbXbXbXbXbXbXbXbXbXbXbXbXbXbXbXbXbXbXbXbXbXbXbXbXbXbXbXbXbXbXbXbXbXbXbXbXbXbXbXbXbXbXbXbXbXbXbXbXbXeX",
"XX< bXbXbXbXbX' { bXbXbXbXbXbXbXbXbXbXbXbXbXbXbXbXbXbXbXbXbXbXbXbXbXbXbXbXbXbXbXbXbXbXbXbXbXbXbXbXbXbXbXbXbXbXbXbXbXbXbXbXbXbXbXbXbXbXbXeX",
"1X  aXbXbXbXnX@ 1XbXbXbXbXbXbXbXbXbXbXbXbXbXbXbXbXbXbXbXbXbXbXbXbXbXbXbXbXbXbXbXbXbXbXbXbXbXbXbXbXbXbXbXbXbXbXbXbXbXbXbXbXbXbXbXbXbXbXbXeX",
"eX' < eXbXgX^ R bXbXbXbXbXbXbXbXbXbXbXbXbXbXbXbXbXbXbXbXbXnXbXbXbXbXbXbXbXbXbXbXbXbXbXbXnXbXbXbXbXbXbXbXbXbXbXbXbXbXbXbXbXbXbXbXbXbXbXbXeX",
"eXnX{ @ X # ] vXbXlX' ' ' ' ' ' ' ' ' ' ' ' ' ' ' ' , K Y K Y C + o + a C > 6 $ + o + ! ! ! ~ ~ ~ V ' ' ' ' ' ' ' ' ' jXbXbXbXbXbXbXbXbXeX",
"eXbXbXbX' { bXbXbX] lXbXbXbXbXbXbXaXbXbXbXbXbXbXbXbXb P.L.I.P.H.o u 6 q.F 3...      9  X|.*X$X|.oX].vXbXbXbXbXbXbXbXlX] bXbXbXbXbXbXbXbXeX",
"eXbXbXbX] @ lXbXbX[ bXbXbXbXbXbXvX< 2XbXbXbXbXbXbXbXI I.P.I.P.P.% . A L. .4.$     . n. X|.vXyX|.*X].cXbXbXbXbXbXbXbXbX[ bXbXbXbXbXbXbXbXeX",
"eXbXbX2X  < @ [ bX] bXbXbXbXbXbX]   @ lXbXbXbXbXbXbXx.C.P.P.P.P.= = q.k 4.e       z  X$XxXbXbXyX$X].cXbXbXbXbXbXbXbXbX[ bXbXbXbXbXbXbXbXeX",
"eXbXhX#     OXbXbX[ bXbXbXbXbX>X      1 nXbXbXbXbXbX+Xw.P.P.P.P.F 8.N.+.1..     $ =XuXvXbXbXbXbXfX].vXbXbXbXbXbXbXbXbX[ bXbXbXbXbXbXbXbXeX",
"eXnX1       X aXbX[ bXbXbXbXeXX         ' bXbXbXbXbX<Xq.P.P.F 7 9.P.d 4.4       ) ].~./.].cXbX*X_./.uXbXbXbXbXbXbXbXbX[ bXbXbXbXbXbXbXbXrX",
"eXXX          < bX[ bXbXbXlX@             OXbXbXbXbX<XJ 7 * O   q.B.@.@..     > fX*X|.,XyXnX9X].,X'.oXbXbXbXbXbXbXbXbX[ bXbXbXbXbXbXbXbXeX",
"rX#             2X[ bXbXbX~               X eXbXbXbX=Xq.=   i f q.t 4.3     . T.^.^.Q.Q.6XbX|.^.Q.^.~.bXbXbXbXnXI bXbX[ bXbXbXbXbXbXbXbXeX",
"rXX   # @ <     >X[ bXbXXX                  < vXbXbXY.u.V.. = q.r.<.+.      z dXuX-X|./.qXbX{.]. X].(.dXbXbXbXR.i.c.bX[ bXbXbXbXbXbXbXbXeX",
"eX>X^ rXX OX] { nX[ bXeXX                     ] bXbX) K.r.  f u.X.4.$     o iXbXbXbXqX6XbXbX:X8XbX%X(.%XbXbXcXP e P vX[ bXbXbXbXbXbXbXbXeX",
"eXbXbX>X  ^ bXbXbX[ bX1                         eXbXb P.B.Z F 0.3. .      M bXbXbXbXbXbXbXbX9XkXbX&X(.].bXbXxXa.4 U bX[ bXbXbXbXbXbXbXbXeX",
"eXbXbXlXhXaXbXbXbX[ 2X                          ~ bXc P.Z.y.L...3.o     O 8XbXbXbXbXbXqXxXbXuX8XbX|.(.^.bXbXnX_ u.@XbX[ bXbXbXbXbXbXbXbXeX",
"eXbXbXbXbXbXbXbXbX[ ]                           X lXI v S H k 4.w       / %XbXbXbXbXbX*X|.`.}.gXbX].(.(.fXbXh.J $ w.Y.[ bXbXbXbXbXbXbXbXeX",
"eXbXbXbXbXbXbXbXbX[ ^           #   #             lXbXvX;X/ q ..      & $X{.tXbXbXbXbXbXdXzXgXbXnXQ.(.(.8XbXT w.* M.h.[ bXbXbXbXbXbXbXbXeX",
"eXbXbXbXbXbXbXbXbX[ XX        X >X  [ <         < bXbXbXbXbXdX>       x.oX X[.zXbXbXbX-X[.]./.8X9X(.(.(.-XbXjX;Xc @XvX[ bXbXbXbXbXbXbXbXeX",
"eXbXbXbXbXbXbXbXbX[ vX~     X 1X>X  1 jX1     # rXbXbXbXbXbXx.      * ]. X X|.].gXbXbX7X X~.*XvX_.(.(.(.|.bXnXqXH bXbX[ bXbXbXbXbXbXbXbXeX",
"eXbXbXbXbXbXbXbXbX[ bXbXeX>XlXbX^     jXnX2X2XvXbXbXbXbXbXwXo       9.L b R Q ~.^.-XnXbX8XqXaX,X(.(.(.(.}.bXbX;Xi.aXbX[ bXbXbXbXbXbXbXbXeX",
"eXbXbXbXbXbXbXbXbX[ bXbXbXbXbXlXX     XXbXbXbXbXbXbXbXbXgX*       = H 8.q.C.N.q.F L I h.@X2Xk.n Q.(.(.(.].bXbX;Xu.@XbX[ bXbXbXbXbXbXbXbXeX",
"eXbXbXbXbXbXbXbXbX] bXbXbXbXbXXX      < nXbXbXbXbXbXbXnX>       O 7 N.i K.q.J J 8.w.8.D f u 9.S : E (.Q.'.bXbXW.q.k.bX[ bXbXbXbXbXbXbXbXeX",
"eXbXbXbXbXbXbXbXbX[ bXbXbXbXbXpXeXeXeXeXvXbXbXbXbXbXbXz       . . 7 9.N.N.7 u.5 N.7 N.u i.i u.7 9.= R (.`.bXbXW.9.k.bX] bXbXbXbXbXbXbXbXeX",
"eXbXbXbXbXbXbXbXbX[ bXbXbXbXbXbXbXbXbXbXbXbXbXbXbXnXM +.$   $ i 6 o y.B.q.9.8.r.8.D r.D 9.9.8.H f o 5 9 ~.bXbXU.9.l.bX[ bXbXbXbXbXbXbXbXeX",
"rXbXbXbXbXbXbXbXbX[ bXj.j.k.U Y.M nXbXbXbXbXbXbXnXM z.z.:.$   % q.7 . 8.q.i 9.J r.8.8.8.8.8.9.N.F O 9.  q sXbXS.y.U bX[ bXbXbXbXbXbXbXbXeX",
"eXbXbXbXbXbXbXbXbX[ bXc.+.8.L.e M bXbXbXbXbXbXvXm @.g.4.f.2.-   O D 7 O A r.Z.F.r.w.y.i.u.u.H.i.7 & 5 o 4.O.,Xm.M.p bX[ bXbXbXbXbXbXbXbXeX",
"eXbXbXbXbXbXbXbXbX[ bXT.f = 6 q L cXbXbXbXbXjXI s @.>.;.;.>.:.3 7 h f u o i u.y.= * 5 = 5 ; u.i.% u N.4 6.b.O.N.L.9 bX] bXbXbXbXbXbXbXbXeX",
"eXbXbXbXbXbXbXbXbX[ bXl.Z.f N.j B.0XbXbXbXqX^.R e.9.+.:.6.g.z.4.w     f i & 6 N.r.7 u D S u w.J.. j .  .z.5.3.N.u.8 bX[ bXbXbXbXbXbXbXbXeX",
"eXbXbXbXbXbXbXbXbX[ bX;X4 f j 4 M bXbXbX*XQ.(.(.E e.t.+.4.z.#.z.:.e   $ F A * * N.q.f i g u w.q.o S . $.d.4.4.y u q c.[ bXbXbXbXbXbXbXbXeX",
"eXbXbXbXbXbXbXbXbX[ bXT.m P i.0 M bXkX^ n (.(.(.(.E p.t.+.v.4.:.z.b. .* & 5 8.$ $ N.9.u 7 f q.u * 9.- #.z.6.6.d A o.+.n bXbXbXbXbXbXbXbXeX",
"eXbXbXbXbXbXbXbXbX[ bXbXbX+XD h.bX,X).W i.E (.(.(.).+XS.G >.;.:.4.#.:.o..   7 q.* O u.F S 9.r.% 7 & 3 4.5Xg.+.u.9.0 4.x bXbXbXbXbXbXbXbXeX",
"eXbXbXbXbXbXbXbXbX, _ kXbXnXU M.U E (.K I.R (.(.^.uX6X@XF.o.b.5.4.:.;.#.@.. 8.7 S = o r.D J F.. A *  .4.E.4.4.r 5 ..4.x bXbXbXbXbXbXbXbXeX",
"eXbXbXbXbXbXbXbXbX9 i.U ) sX' 7 F B.z N P.2 Q./.qX_.^.uXp.%.6.g.f.3Xv.f.b.=.$   % f 7 o J 8.r.O A $ @.&.wX#.4.o.u X.4.x bXbXbXbXbXbXbXbXeX",
"eXbXbXbXbXbXbXbXbXp d P.u O l 9 F.D H.h H.R ].dXvX{. XbXl.g  .+.1.#.;.4.5.f.$.% 5 Z H i   f i u u . 4.#.7.d.4.9.N.0 4.x bXbXbXbXbXbXbXbXeX",
"eXbXbXbXbXbXbXbXbX8 <.8.G.o Z.7 7 L M f v [.uX{.`.bXvXbXl.S 6 u k +.5.z.3.&.d.2.-   $ s u   . 7 * 3 #.4.5.f.4.J V.0 4.x bXbXbXbXbXbXbXbXeX",
"eXbXbXbXbXbXbXbXbX8 4.r I.6 & V._ bXbXbX9X$X].(.dXyXcXbXa.S j j $ D ..v.&.b.z.&.#.3   i q.5 h f u e f.4.d.;.4.F u.r 4.x bXbXbXbXbXbXbXbXeX",
"eXbXbXbXbXbXbXbXbXp  .M.y.o = u.jXbXqX%X-X[.kX,X8X~.,X<XC.7 j F H & h O.:.6.g.4.f.g.4 - . D 7 = 5 @.#.f.4X6.4.0.w.d 4.x bXbXbXbXbXbXbXbXeX",
"eXbXbXbXbXbXbXbXbX8 0 L.5 ; S a.bXbXfXnXkX{.bX,XQ._.xXT e.+ O * N.H & j o.3.f.4.2.7.:.e O i i $ h <.+.+.d.-.4.%.J %.4.x bXbXbXbXbXbXbXbXeX",
"eXbXbXbXbXbXbXbXbX8 1.s K.% i a.bXnX8X%X[. XbXbX:X=Xp.B.: v D H & N.J * i t >.d.5.d.z.7. .h A 5 j @.0.M.o.6.4.%.8.o.4.x bXbXbXbXbXbXbXbXeX",
"eXbXbXbXbXbXbXbXbX8 4.e L.& p p.bXgX%X|. X6XgXbX2Xa.r.l (.(.Q.b e.% y.D = 7 t &.g.>.&.>.-.F = = k d B.L H.d <.,.8.O.4.x bXbXbXbXbXbXbXbXeX",
"eXbXbXbXbXbXbXbXbX8 <.9.r.* 8.r.' &X$X`.{.Q.9X;Xa.H R (.(.(.(.Q.n q.% 8.h 6 = r 3.4.#.d.;.$.k k r Z.h.zXk.C.8.r J  .4.x bXbXbXbXbXbXbXbXeX",
"eXbXbXbXbXbXbXbXbX8 t P.= p ) ^ gXbXbXqXQ.].<Xi.9.^ _._._._._._._./ M p I L 8 c c m m m m m m r N.T 9X^.,X@Xp.G.f  .4.x bXbXbXbXbXbXbXbXeX",
"eXbXbXbXbXbXbXbXbX9 N.P v qX|.^.qXbXbXbXgX+Xp.q.% ; > 6 9 9 9 9 9 6 9 9 6 9 9 9 9 9 9 = > ; > p.i.<X[.(.].hXiXT Z.t.X.z bXbXbXbXbXbXbXbXeX",
"eXbXbXbXbXbXbXbXbX: 9 Y.bX7XQ.[.bXqXgXbXdXP u.o                                             u N.+XvX_.qXbX]._.bXR.P u., bXbXbXbXbXbXbXbXeX",
"eXbXbXbXbXbXbXbXbX, N.t.) lXqXtXdX].'.gXU C.O                                             5 Z.j.bXbXnXbXyX(.).6XfX) f : bXbXbXbXbXbXbXbXeX",
"eXbXbXbXbXbXbXbXbX8 @.s J.P @XdX^.(.0X} F.v M ) ( ( ( ( ( ( ( ( I M M M M M M M M M b x 6 J.k.].,XbXbXbX-X XfX) > L.k z bXbXbXbXbXbXbXbXeX",
"eXbXbXbXbXbXbXbXbX8 4. .5 9.u.h.:X].@XB.r 5 3  .X.O.O.O.4 h & L v = 9 W (.(.(.(.(.(.Q.K J.k.yXQ.^.,X8X8X+Xb L 7 i M.+.x bXbXbXbXbXbXbXbXeX",
"eXbXbXbXbXbXbXbXbX8 4.X.J w d F.U @Xp.k o.j D %.f.;.4.4.3.t S * e.9.% h n (.(.(.(.E L G.l.bX$X{.|.,XdXtXx.F.q.o M.r 4.x bXbXbXbXbXbXbXbXeX",
"eXbXbXbXbXbXbXbXbX8 4.t u.X.4.O.B.u.B.+.S 6 = 8.=.:.z.b.g.>.o.H * w.9.& j v !.(.R 9.A.T.bXbXbX|.-X-X$XjXzXm.& ; N...4.c bXbXbXbXbXbXbXbXeX",
"eXbXbXbXbXbXbXbXbX8 4.w Z.o.4.;.@.k y 1.f = 5 w.3 2.b.4.4.g.6.X.J * r.F = p D f f B.<X`._.bXzX].|.|.*XbXnXm.9 . V.8.+.x bXbXbXbXbXbXbXbXeX",
"eXbXbXbXbXbXbXbXbX8 4.4 L.d 4.;.;.1.4.+.g $ s 8.. - f.7.;.6.d.4...J & q.G u = $ C.@X,X(.~.yXqX{.*XyXbXbXsXN.F & 5 P.r x bXbXbXbXbXbXbXbXeX",
"eXbXbXbXbXbXbXbXbX8 4.q P.%.4.>.#Xv.#.e 7 7 7 J = u $ =.2.4.v.;.;...F % 8.S 9.Z a.bX%X$XdX^.,X:XcX8XuXbX_ B.  $ F.k <.x bXbXbXbXbXbXbXbXeX",
"eXbXbXbXbXbXbXbXbXp 3.7 P.%.4.d.#.4.;.3 8.5 7 = i.=   $ *.4.4X>.;.:.@.G & $ O w.k.bXbXuX[.(.[.}.T.rX8Xx.D Z f = L.y 4.x bXbXbXbXbXbXbXbXeX",
"eXbXbXbXbXbXbXbXbX8 <.p P.0.4.g.4.4.3.. O 7 o . 7 h * & $ @.g.4.7.&.-.@.r j 5 N.c.bX8XfX].uX*XE q.u 9 y.f & e.O y.B.@.x bXbXbXbXbXbXbXbXeX",
"eXbXbXbXbXbXbXbXbXz <.p K.k 4.d.#.:.+.  7 5 i y.O 5 A V.o o o.:.4.4.6.5.6.4.1.u.k.vXQ.].kX$X(.W I.7 K.D y.c R 9 > P.d c bXbXbXbXbXbXbXbXeX",
"eXbXbXbXbXbXbXbXbX8 4.y 7 +.4.7.4X3.w 7 F o J i w.O = f u   O B f.z.3X3Xd.f.&.0.T ].`.8X{.(.(.b P.z n D N.6 =XbX5XT D , bXbXbXbXbXbXbXbXeX",
"eXbXbXbXbXbXbXbXbXp 4.0 j t 4.4.E.4.- $ D . q.B.J r.% % J y.r.  ..&.f.4.4.4.f.o.G.x.tX_.(.(.(.K L.R (.| I m.U bXbXbX5X! bXbXbXbXbXbXbXbXeX",
"eXbXbXbXbXbXbXbXbX8 <.7 H.G 4.f.#X#.  5 7 = q.u 5 8.r.& % r.7 .   e f.4.4.d.&.>.G u.` (.(.(.(.R F E $XnX<XM 8 c.zXgXbX[ bXbXbXbXbXbXbXbXrX",
"eXbXbXbXbXbXbXbXbXn X.r u  .4.5.;.B : H $ i q.7 A 5 8.r.= & D f h 5 4 z.4X;.4.g.<.8.y.E (.(.(.(.W tXbXbXm 4 K.f w 5XbX[ bXbXbXbXbXbXbXbXeX",
"eXbXbXbXbXbXbXbXbX[ ;X7 q.r 4.4.;.4 o f . D J i A h 7 9.q.7 O i A     3 7.d.;.z.5.*.0.t.R Q.(._.xXbXbXuXv * 7 * u @XbX[ bXbXbXbXbXbXbXbXeX",
"eXbXbXbXbXbXbXbXbX[ uX7 L.8.4.6.d.% & u . r.g A f i 7 5 9.9.i O 7 r.o O 3 3.v.f.5.7.<.9.e.E |.nXbXbXbXY.L.p L.p V.l.bX[ bXbXbXbXbXbXbXbXeX",
"eXbXbXbXbXbXbXbXbX[ cX7 P.J O.f.3.$ D = * u.u 6 7 = 7 * $ r.J g . 7 g N.% - -.&.>.7.E.@.r @XbXbXbXbXbXvXv 3 7 3 r @XbX[ bXbXbXbXbXbXbXbXeX",
"eXbXbXbXbXbXbXbXbX[ bX9 L.a.8XB ... u O i g q.9.9.J y.q.9.u.V.D F   5 h =   $ @.E.7.v...@XbXbXbXbXbXbXbXm q L.f e x.bX[ bXbXbXbXbXbXbXbXeX",
"eXbXbXbXbXbXbXbXbX[ bXp Z.a.bX7X> O u . 9.q.q.w.8.8.w.r.r.D D A B.w.. 7 8.7   O $.d.,.R.bXbXbXbXbXbXbXnXhXjXj.;XuX<XbX[ bXbXbXbXbXbXbXbXeX",
"eXbXbXbXbXbXbXbXbX[ bXI N.l.bXtX(.2 > f y.r.H.D G.f L.f J.F 9.8.8.F h . 7 5 $   O e c.bXbXbXbXbXbXbXbXbXbXbXbXbXbXbXbX[ bXbXbXbXbXbXbXbXeX",
"eXbXbXbXbXbXbXbXbX[ bXk.p.U.bXuX(.(.E > J 7 u.g Z.S K.f Z.5 u.$ q.h 8.u o       . c.bXbXbXbXbXbXlX>X>X>X>X>XbXbXbXbXbX[ bXbXbXbXbXbXbXbXeX",
"eXbXbXbXbXbXbXbXbX[ bXE.8.Y.bXhX(.(.(.!.9 p 6 8 7 g 8.q.e.y.r.q.Z.Z N.$ .       ) bXbXbXbXbXbXbXbX1       '.bXbXbXbXbX[ bXbXbXbXbXbXbXbXeX",
"eXbXbXbXbXbXbXbXbX[ nXR.r.@XbXgX(.(.(.(.Q.( cXbXnX@XI n b v h w.N.e.8.$       c bXbXbXbXbXbXbXbXbX>X      jXbXbXbXbXbX[ bXbXbXbXbXbXbXbXeX",
"eXbXbXbXbXbXbXbXbX[ bX<Xu.qXbXvX(.(.(.(.~.nX&X].xXbXbX8X`.{.].| R b p       ; nXbXbXbXbXbXlXOXOXlXnX#   ! bXaX+X>XnXbX] bXbXbXbXbXbXbXbXeX",
"eXbXbXbXbXbXbXbXbX[ bXhXL cXbXbX^.(.(.(.,X8X'./.].7XbXbXkX`.|.*X%X|.&     O sXbXbXbXbXbX2XX     @ eX^   OX>XX     < jX[ bXbXbXbXbXbXbXbXeX",
"eXbXbXbXbXbXbXbXbX[ iXk.9 R.xXbX`.(.(.^.nXqX6X8XtXxXbXbXbXzX/.%X*Xb       > 0XbXbXbXbXbX<         # {   OX          ] } bXbXbXbXbXbXbXbXeX",
"eXbXbXbXbXbXbXbXbX[ l.L.= L.k.bX{.(.(. XbXbX,X9X$XcXbXbXbXbX8X}.n.O     - <.& z x.dXbXbX            X   X           R [ bXbXbXbXbXbXbXbXeX",
"eXbXbXbXbXbXbXbXbX[ Y.M = P @XbX:X(.(.,XbX|.7X|.yX,XbXbXbXbXbX$Xl       @.+.B.J 9.i z bX<                           ' [ bXbXbXbXbXbXbXbXeX",
"eXbXbXbXbXbXbXbXbX[ bXp.w._ bXbXuX(.(.yXbX%XbXbXdXcXbXbXbXbXbX+X.     4 4.d P.q.N.P.b bX[                           >X[ bXbXbXrX2XeXbXbXeX",
"eXbXbXbXbXbXbXbXbX[ <Xj e P bXbXbX).(.dXbX-XxXbXbXnXcXbXbXbXbX8     . 1...M.S q.F.M.) bXlXX                       1 bX[ bXbXbX{   OXbXbXeX",
"eXbXbXbXbXbXbXbXbX[ 5Xi r h.bXbXbX[.(.kXbX}.8XbXgX%XbXbXbXbX@X      e 3.k r.u . Z.J @XbXbXOX                    X eXbX[ nX] ! >XX 1X! XXeX",
"eXbXbXbXbXbXbXbXbX] bX) e.sXbXbXbX9X(._.^.^.7XbX[.^.^.[.&XuX=     O 4. .L.F =   H.D tXbXbXbX~                   XXbXbX[ 2X    @ # X     1X",
"eXbXbXbXbXbXbXbXbX[ bXgXj.bXbXbXbXnXQ.~.`.~.qXbX}.~.].].[.j.      ..<.8.S = 7   u Z uXbXbXbXlX@               ! bXbXbX[ pX            X 2X",
"eXbXbXbXbXbXbXbXbX[ bXbXbXbXbXbXbXbX[.[.]./.nXyX,X-X%X|.1X$     - 4.t C.i   = = D h zXbXbXbXbXrXX           @ lXbXbXbX[ bX^           .XeX",
"eXbXbXbXbXbXbXbXbX[ bXbXbXbXbXbXbXbX*X X%XxXbXzX].~._.%XI       +.@.N.L.9.S F.P.I.Z uXbXbXbXbXbX+X        X eXbXbXbXbX[ bXlX@       1 nXeX",
"eXbXbXbXbXbXbXbXbX[ bXbXbXbXbXbXbXbX%X{.qXbXbXbXbXyX*Xn.o     3 4.d i.8.w.P.P.P.I.Z 8XbXbXbXbXbXbX'       OXbXbXbXbXbX[ bXbXrX    # aXbXeX",
"eXbXbXbXbXbXbXbXbX[ bXbXbXbXbXbXbXbX%X[.$X7XbXbX*X]. X>     . 1.+.Z.q.o 5 P.P.P.P.q.T.bXbXbXbXbXbXnX1   ] bXbXbXbXbXbX[ bX[ # !   2XbXbXeX",
"eXbXbXbXbXbXbXbXbX[ bXbXbXbXbXbXbXbX%X[.}.$XuX-X X$X` .     w 4.k L.; o u P.P.P.P.F.( bXbXbXbXbXbXbXaX1 vXbXbXbXbXbXbX[ bXbXjX@ { bXbXbXeX",
"eXbXbXbXbXbXbXbXbX] vXbXbXbXbXbXbXbX*X[. X X X].|. X&     o 3...A.A 5 6 = P.P.P.P.P.c bXbXbXbXbXbXbXbXjXbXbXbXbXbXbXvX' bXbXbX{ ' bXbXbXeX",
"eXbXbXbXbXbXbXbXbXjX^ [ [ { [ { [ { ^ ~ ~ ~ ~ ~ ~ K . X o = q a C : o + + Y Y Y Y Y , [ [ { { [ [ { { [ [ { [ { { [ ^ aXbXnX[ # X @ { nXeX",
"eXbXbXbXbXbXbXbXbXbXbXvXlXlXlXlXlXlXlXlXcXvXlXlXlXcXlXlXlXlXcXlXlXlXlXlXlXlXlXlXlXlXvXlXlXlXlXlXlXlXlXlXlXlXlXlXlXvXbXbXbX1 ^ jXbXeX< ' eX",
"eXbXbXbXbXbXbXbXbXbXbXbXbXbXbXbXbXbXbXbXbXbXbXbXbXbXbXbXbXbXbXbXbXbXbXbXbXbXbXbXbXbXbXbXbXbXbXbXbXbXbXbXbXbXbXbXbXbXbXbX1X@ nXbXbXbXpXX 1X",
"eXbXbXbXbXbXbXbXbXbXbXbXbXbXbXbXbXbXbXbXbXbXbXbXbXbXbXbXbXbXbXbXbXbXbXbXbXbXbXbXbXbXbXbXbXbXbXbXbXbXbXbXbXbXbXbXbXbXbXbX{ ] bXbXbXbXbX< XX",
"eXbXbXbXbXbXbXbXbXbXbXbXbXbXbXbXbXbXbXbXbXbXbXbXbXbXbXbXbXbXbXbXbXbXbXbXbXbXbXbXbXbXbXbXbXbXbXbXbXbXbXbXbXbXbXbXbXbXbXbX^ XXbXbXbXbXbX! [ ",
"eXbXbXbXbXbXbXbXbXbXbXbXbXbXbXbXbXbXbXbXbXbXbXbXbXbXbXbXbXbXbXbXbXbXbXbXbXbXbXbXbXbXbXbXbXbXbXbXbXbXbXbXbXbXbXbXbXbXbXbX] ' bXbXbXbXbX< XX",
"eXbXbXbXbXbXbXbXbXbXbXbXbXbXbXbXbXbXbXbXbXbXbXbXbXbXbXbXbXbXbXbXbXbXbXbXbXbXbXbXbXbXbXbXbXbXbXbXbXbXbXbXbXbXbXbXbXbXbXbX1X@ vXbXbXbXaXX 1X",
"eXbXbXbXbXbXbXbXbXbXbXbXbXbXbXbXbXbXbXbXbXbXbXbXbXbXbXbXbXbXbXbXbXbXbXbXbXbXbXbXbXbXbXbXbXbXbXbXbXbXbXbXbXbXbXbXbXbXbXbXbX1 ! pXvXrX< ] eX",
"rXbXbXbXbXbXbXbXbXbXbXbXbXbXbXbXbXbXbXbXbXbXbXbXbXbXbXbXbXbXbXbXbXbXbXbXbXbXbXbXbXbXbXbXbXbXbXbXbXbXbXbXbXbXbXbXbXbXbXbXbXvX] @   < XXbXrX",
"nXrXeXeXeXeXeXeXeXeXeXeXeXeXeXeXeXeXeXeXeXeXeXeXeXeXeXeXeXeXeXeXeXeXeXeXeXeXeXeXeXeXeXeXeXeXeXeXeXeXeXeXeXeXeXeXeXeXeXeXeXeXeXeXeXeXrXrXbX"
};
