/* XPM */
static const char *queen_diamonds[] = {
/* columns rows colors chars-per-pixel */
"69 100 223 2 ",
"   c #010000",
".  c #0C0000",
"X  c #140101",
"o  c #1C0203",
"O  c #1C0909",
"+  c #240405",
"@  c #2B0606",
"#  c #2C0608",
"$  c #2F0809",
"%  c #220D0B",
"&  c #340A0A",
"*  c #3A0E0C",
"=  c #370102",
"-  c #3E100D",
";  c #380D11",
":  c #3B1517",
">  c #2F1B16",
",  c #1A2E3B",
"<  c #3C292D",
"1  c #391E23",
"2  c #490404",
"3  c #550304",
"4  c #42130E",
"5  c #461611",
"6  c #4B1B11",
"7  c #481818",
"8  c #511E14",
"9  c #490D19",
"0  c #6B0203",
"q  c #760203",
"w  c #760C14",
"e  c #6A1319",
"r  c #542314",
"t  c #5C2B15",
"y  c #572716",
"u  c #4E2E1A",
"i  c #642B17",
"p  c #633316",
"a  c #6A3B17",
"s  c #6B3C18",
"d  c #653719",
"f  c #752E1B",
"g  c #441D34",
"h  c #531B28",
"j  c #641727",
"k  c #711728",
"l  c #4B2528",
"z  c #552B27",
"x  c #5B322A",
"c  c #542934",
"v  c #593837",
"b  c #483035",
"n  c #653634",
"m  c #6B312D",
"M  c #3F473B",
"N  c #6E4119",
"B  c #6F4217",
"V  c #714418",
"C  c #764A19",
"Z  c #794E18",
"A  c #744717",
"S  c #7D5318",
"D  c #5F5B29",
"F  c #51472D",
"G  c #6E4C30",
"H  c #6D6828",
"J  c #7B642D",
"K  c #544A16",
"L  c #3B2C4D",
"P  c #2D396A",
"I  c #2A3D72",
"U  c #333563",
"Y  c #4A3947",
"T  c #583E43",
"R  c #4B2D48",
"E  c #324974",
"W  c #3F5961",
"Q  c #444D44",
"!  c #4B5249",
"~  c #595459",
"^  c #534850",
"/  c #754A44",
"(  c #6C5449",
")  c #5B6258",
"_  c #71674E",
"`  c #4C5867",
"'  c #576C73",
"]  c #666666",
"[  c #6B6C6B",
"{  c #737373",
"}  c #797B70",
"|  c #76736A",
" . c #890305",
".. c #9B0102",
"X. c #960609",
"o. c #8A0D14",
"O. c #AC0101",
"+. c #A50204",
"@. c #B40102",
"#. c #BB0101",
"$. c #871622",
"%. c #C30000",
"&. c #CC0000",
"*. c #D40000",
"=. c #DF0000",
"-. c #E00808",
";. c #E11313",
":. c #E31C1C",
">. c #E42929",
",. c #E63A3A",
"<. c #855C17",
"1. c #825918",
"2. c #81421D",
"3. c #8B6417",
"4. c #8D6718",
"5. c #926C16",
"6. c #936C18",
"7. c #967215",
"8. c #997615",
"9. c #9D7B14",
"0. c #95771A",
"q. c #8B752F",
"w. c #916D25",
"e. c #846859",
"r. c #897256",
"t. c #8C7869",
"y. c #835F54",
"u. c #E84747",
"i. c #EA5B5B",
"p. c #EA5454",
"a. c #EC6969",
"s. c #EE7676",
"d. c #D47777",
"f. c #738576",
"g. c #B4990F",
"h. c #B4990E",
"j. c #A38213",
"k. c #AA8C11",
"l. c #A88712",
"z. c #AE9111",
"x. c #B19410",
"c. c #B39B12",
"v. c #BDA40D",
"b. c #BFB213",
"n. c #908B37",
"m. c #92A33E",
"M. c #CAB409",
"N. c #C9B308",
"B. c #D9C704",
"V. c #E0CF01",
"C. c #E2D200",
"Z. c #918775",
"A. c #9DA56A",
"S. c #1A5396",
"D. c #275287",
"F. c #326A8E",
"G. c #3A6C89",
"H. c #3D718B",
"J. c #276493",
"K. c #2F688F",
"L. c #1156A1",
"P. c #4B7A88",
"I. c #457688",
"U. c #517E88",
"Y. c #5B8588",
"T. c #5E8888",
"R. c #578288",
"E. c #648B88",
"W. c #698D87",
"Q. c #6D918A",
"!. c #73958B",
"~. c #77988D",
"^. c #7C9C8E",
"/. c #7B9386",
"(. c #759187",
"). c #819F8F",
"_. c #809587",
"`. c #819F90",
"'. c #939A88",
"]. c #AA998A",
"[. c #84A191",
"{. c #8AA594",
"}. c #8FA996",
"|. c #94AD9A",
" X c #97A996",
".X c #9BB29E",
"XX c #AFA894",
"oX c #9EB4A0",
"OX c #A5BAA4",
"+X c #A8BCA6",
"@X c #B6B1A1",
"#X c #D28585",
"$X c #F08888",
"%X c #F29898",
"&X c #EF8181",
"*X c #CBB5B2",
"=X c #F4A9A9",
"-X c #F6B6B6",
";X c #B3C3AD",
":X c #B6C6B1",
">X c #BCCBB6",
",X c #AFC1AB",
"<X c #C3CCB9",
"1X c #C5D0BD",
"2X c #CBCBCB",
"3X c #C3C3C3",
"4X c #D5DACB",
"5X c #D0D7C8",
"6X c #F8C8C8",
"7X c #FAD4D4",
"8X c #FADADA",
"9X c #E0DBCE",
"0X c #DDE4D6",
"qX c #E3E8DC",
"wX c #EEEEEE",
"eX c #E8EBE3",
"rX c #FCE8E8",
"tX c #EEF1E9",
"yX c #F3F3E9",
"uX c #F5F6F2",
"iX c #FEF4F4",
"pX c #FFFFFF",
"aX c #F7F9F5",
/* pixels */
"aX3X2X2X2X2X2X2X2X2X2X2X2X2X2X2X2X2X2X2X2X2X2X2X2X2X2X2X2X2X2X2X2X2X2X2X2X2X2X2X2X2X2X2X2X2X2X2X2X2X2X2X2X2X2X2X2X2X2X2X2X2X2X2X2X2X2X3XaX",
"3XpX$X>.-.:.a.iXpXpXpXpXpXpXpXpXpXpXpXpXpXpXpXpXpXpXpXpXpXpXpXpXpXpXpXpXpXpXpXpXpXpXpXpXpXpXpXpXpXpXpXpXpXpXpXpXpXpXpXpXpXpXpXpXpXpXpXpX3X",
"2Xa.>.6XiX8Xu.,.pXpXpXpXpXpXpXpXpXpXpXpXpXpXpXpXpXpXpXpXpXpXpXpXpXpXpXpXpXpXpXpXpXpXpXpXpXpXpXpXpXpXpXpXpXpXpXpXpXpXpXpXpXpXpXpXpXpXpXpX2X",
"*X-.7XpXpXpXiX;.=XpXpXpXpXpXpXpXpXpXpXpXpXpXpXpXpXpXpXpXpXpXpXpXpXpXpXpXpXpXpXpXpXpXpXpXpXpXpXpXpXpXpXpXpXpXpXpXpXpXpXpXpXpXpXpXpXpXpXpX2X",
"#X>.pXpXpXpXpXa.a.pXpXpXpXpXpXpXpXpXpXpXpXpXpXpXpXpXpXpXpXpXpXpXpXpXpXpXpXpXpXpXpXpXpXpXpXpXpXpXpXpXpXpXpXpXpXpXpXpXpXpXpXpXpXpXpXpXpXpX2X",
"d.u.pXpXpXpXpXs.i.pXpXpXpXpXpXpXpXpXpXpXpXpXpXpXpXpXpXpXpXpXpXpXpXpXpXpXpXpXpXpXpXpXpXpXpXpXpXpXpXpXpXpXpXpXpXpXpXpXpXpXpXpXpXpXpXpXpXpX2X",
"#X>.pXpXpXpXpXa.s.pXpXpXpXpXpXpXpXpXpXpXpXpXpXpXpXpXpXpXpXpXpXpXpXpXpXpXpXpXpXpXpXpXpXpXpXpXpXpXpXpXpXpXpXpXpXpXpXpXpXpXpXpXpXpXpXpXpXpX2X",
"*X-.8XpXpXpXiX>.-XpXpXpXpXpXpXpXpXpXpXpXpXpXpXpXpXpXpXpXpXpXpXpXpXpXpXpXpXpXpXpXpXpXpXpXpXpXpXpXpXpXpXpXpXpXpXpXpXpXpXpXpXpXpXpXpXpXpXpX2X",
"2Xa.>.7XpXrXp.,.pXpXpXpXpXpXpXpXpXpXpXpXpXpXpXpXpXpXpXpXpXpXpXpXpXpXpXpXpXpXpXpXpXpXpXpXpXpXpXpXpXpXpXpXpXpXpXpXpXpXpXpXpXpXpXpXpXpXpXpX2X",
"2XiXs.:.-.;.a.iXpXeX] ] ] ] ] ] ] ] ] ] ] ] ] ] ] ] ] ] ] ] ] ! ! ! ! ! ! ! ! 1 7 7 % O > F % > D D D D D D D < ! ] ] eXpXpXpXpXpXpXpXpX2X",
"2XpXpXpXa.s.pXpXpX{ eXpXpXpXpXpXpXpXpX7XpXpXpXpXpXpXpXpXpXpXpX`.).{.~.P. X^.{.' O.=.%.. . A 4 @ V.s 5.6 V C.C.s +XpXwX[ pXpXpXpXpXpXpXpX2X",
"2XpXpXpX-X:.rXpXpX{ pXpXpXpXpXpXpXpX-Xi.pXpXpXpXpXpXpXpXpXpXpX`.~.`.|.:X{..X~.^.^ *.-...  o s X 5.  #   o C.C.N <XpXpX{ pXpXpXpXpXpXpXpX2X",
"2XpXpXpXp.a.;.s.pX{ pXpXpXpXpXpXpXpXu.-.rXpXpXpXpXpXpXpXpXpXpX`.[.oX.XpXpX{..X~.^.k =.=.0   # s & . 5 X s C.C.C 1XpXpX{ pXpXpXpXpXpXpXpX2X",
"2XpXpX=X=.i.pXpXpX{ pXpXpXpXpXpXpX6X=.=.a.pXpXpXpXpXpXpXpXpXpX~.|.oXpXpXpXpX;X[.}.E.o.=.*.2   y S 4 &   N.C.C.V :XpXpX{ pXpXpXpXpXpXpXpX2X",
"2XpXrX:.=.=.-XpXpX{ pXpXpXpXpXpXiX,.=.=.-.7XpXpXpXpXpXpXpXpXpX(.;XpXpXpXpXpXpXaXOX{.` @.-.*.o   1.p 4 k.C.C.V.a  XpXpX{ pXpXpXpXpXpXpXpX2X",
"2XrX>.=.=.=.=.-XpX{ pXpXpXpXpXpX=X=.-.=.=.u.pXpXpXpXpXpXpXpX4X: +XOXqXpXpX5XQ.T.^.5XwX/ *.-.#.. X p o V t X 6 + | pXpX{ pXpXpXpXpXpXpXpX3X",
"2Xu.=.=.=.=.=.-.8X{ pXpXpXpXpXrX=.=.=.=.-.=.%XpXpXpXpXpXpXaX; + Q.E.I.eXpXY.!.E.Y.E.Q.tXk -.=...    t @ 6 . 6   v pXpX{ pXpXpXpXpXpXpXpX2X",
"2X8X:.=.=.=.=.=XpX{ pXpXpXpXiX,.=.=.=.=.=.=.-.7XpXpXpXpXpXx   o R.I.H.|.uXP.G.Y.E.Y.>X>X' X.=.-.0   & A 8 X $ X l pXiX{ pXpXpXpXpXpXpXpX2X",
"2XpX7X;.=.=.%XpXpX{ pXpXpXpXp.=.=.=.=.=.=.-.=.;.8XpXpXpX]..   o J.J.H.^.pXH.H.F.J.F.I.pXP.~ %.-.*.2   V S N @ @ t qXpX{ pXpXpXpXpXpXpXpX2X",
"2XpXpX%X=.u.pXpXpX{ pXpXiXi.=.=.=.=.=.-.=.=.=.=.:.8XpXaX&     o E.T.F.oXpX>XF.{.|.1XiXpXQ. Xn *.-.&.o . 8.p s B.4.f.pX{ pXpXpXpXpXpXpXpX2X",
"2XpXpXpX,.8XpXpXpX{ pXpX-X-.=.=.=.=.=.=.=.=.=.=.=.a.iXe.      o pXuXE.eXpXpX>X5XpXpXpXpXOX{.!.$.=.-.@.. + S + - B.c pX{ pXpXpXpXpXpXpXpX2X",
"2XpXpXpXrXpXpXpXpX{ pXpXpX=X-.=.=.=.-.=.=.-.-.=.a.iXpX@       X pXpX{.4XaXOXpXpXpXpXpXpXqXR.}.f.O.=.-. .  & V X a 6 ;X{ pXpXpXpXpXpXpXpX2X",
"2XpXpXpXpXpXpXpXpX{ pXpXpXpX=X=.=.-.-.=.=.=.=.p.pXpXt.        q aXpX{.K.P.[.pXpXpXpXpXpXpXJ.+XOX^ &.-.=.3   + ; 7 ( >X{ pXpXpXpXpXpXpXpX2X",
"2XpXpXpXpXpXpXpXpX{ pXpXpXpXpXs.=.=.=.=.=.=.>.iXpXpX7       2 #.1XpXpX,X5XyXtXpXpXpXpXpX|.Y.!.|.+Xk =.-.=.3 5XpXpXpXpX{ pXpXpXpXpXpXpXpX2X",
"2XpXpXpXpXpXpXpXpX{ pXpXpXpXpXiX,.=.=.-.=.-.7XpXpXyXX       +.=.t.iXJ.L.L.L.~.pXpXpXpX>XP.|.R..X+XW.X.-.=.&.m pXpXpXpX{ pXpXpXpXpXpXpXpX2X",
"2XpXpXpXpXpXpXpXpX{ pXpXpXpXpXpX7X-.=.=.=.&XpXpXpXZ.      . *.-.m iX+X}.^.1XeXpXpXpX>XR.{.[.^.E.+XOX` #.=.=.O.y.pXpXpX{ pXpXpXpXpXpXpXpX2X",
"2XpXpXpXpXpXpXpXpX{ pXpXpXpXpXpXpXs.=.=.>.iXpXpXpXx       2 =.@.T >XpXeX4XpXpXpXpX}.H.^.Y.E./.Y oX+XoXR *.-.=. .].pXpX{ pXpXpXpXpXpXpXpX2X",
"2XpXpXpXpXpXpXpXpX{ pXpXpXpXaXpXpXrX-.-.%XpXpXpXpX7       q +.# T G.:XpXpXpXpX:XI.Y.[. Xe.l o & v OXoXoXw -.=.-.w 4XpX{ pXpXpXpXpXpXpXpX2X",
"2XpXpXpXpXpXpXpXpX{ pXpX4X'.' | _ eXs.:.pXpXpXpXpX#       3 i p # . + ; z l l l r : @ . # t 8.S & Y .X,X' X.-.-.*.e aX{ pXpXpXpXpXpXpXpX2X",
"2XpXpXpXpXpXpXpXpX{ pX;X0.j.1.C.v.y.8X$XpXpXpXpXpX+       @ o a C 6.8.Z p 6 6 6 y B <.S r & # V.k.. ^ [.|.( &.-.=.%.n { pXpXpXpXpXpXpXpX2X",
"2XpXpXpXpXpXpXpXpX{ pXA.j.N C p N.s iXiXpXpXpXpXpXo     + + o V.j.+ X s t * - V t + X h.<.8 @ <.6 t 1.^ ). Xc =.=.=.O.b pXpXpXpXpXpXpXpX2X",
"2XpXpXpXpXpXpXpXpX{ pXf.B.<.q 9 V.5 +XpXpXpXpXpXpXX     k.B.6 t r & & C.j.6 * C.8.* & M.1.& S & s & h.$ l )./.o.-.=.=.l pXpXpXpXpXpXpXpX2X",
"2XpXpXpXpXpXpXpXpX{ pX' c.3.* 6 k.<.0XpXpXpXpXpXpXo 3.- 7.C.& s 6 k.5 * 5 $ + i 6 r V + 4 t C.S X 8 o p + 4 ` Z.@.=.-.z pXpXpXpXpXpXpXpX2X",
"2XpXpXpXpXpXpXpXpX{ pX:Xb.3.C.C.v.N eXpXpXpXpXpXZ.t M.& & # & X S C.t d * C.h.* 4 k.C.4 # & 6 X x.C.p o 8 3.7 F.R *.*.z pXpXpXpXpXpXpXpX2X",
"2XpXpXpXpXpXpXpXpXM r./ 7 N d 5 G t.@X_ pXpXaXQ.b j.A + * 8 C.v.  + 4 $ & S B o + 6 5 5 h.B.@ r r C A 8.6 L L.L.L.k =.z pXpXpXpXpXpXpXpX2X",
"2XpXpXpXpXpXpXpXpX] q.c.4.d ( d _ G S y.pXaXT.L.L.E v 3.7.d N i 4 * 8.C.t - o C.C.& 1.& C.g.+ * S 1.*   U L.L.L.L.S.X.b pXpXpXpXpXpXpXpX2X",
"2XpXpXpXpXpXpXpXpX{ uX~ Y Y b 8 y a m 9XaXR.L.L.L.L.L.D.; 6 <.9.V r p s - * o <.<.* & 6 Z 8.1.d v 7     X I L.L.L.L.P l pXpXpXpXpXpXpXpX2X",
"2XpXpXpXpXpXpXpXpX{ 0XE.:XH.qXpX<X^ eXyX( z U L.L.L.L.L.; .     + 5 p Z 3.8.8.8.6.V y - * ^ ] ^.^.{.c     X I L.L.L.L.Q pXpXpXpXpXpXpXpX2X",
"2XpXpXpXpXpXpXpXpX{ ~.oXoXQ.L ,XpXyX^._ h.c.N L L.L.L.D.1XXXx .   * 5.S d X           X | (.!.{.OXR.P y     X P L.L.L.Q pXpXpXpXpXpXpXpX2X",
"2XpXpXpXpXpXpXpXpX{ R.}.!.P.n.[.pXqX_ h.o   N 3.g L.L.0 +.k n     <.j.Z 1.    7 c G ( Z.~.W.{.OXS.c q x.S     X P L.L.Q pXpXpXpXpXpXpXpX2X",
"2XpXpXpXpXpXpXpXpX{ T.4XF.(.yX>X0X_ k.o   +   d 1.L I @.=.-.q   o g.7.5.*   . / y.m [ ).^.[.OXS.w *.+.B.1.<..   . P L.Q pXpXpXpXpXpXpXpX2X",
"2XpXpXpXpXpXpXpXpX{ Q.E.H..XpX4Xq.k.o s & 9.    V d 9 =.=.=.2   t j.1.<.     .-.-. . X).!.+XD.w *.-.X.N.  r 3.    . P Q pXpXpXpXpXpXpXpX2X",
"2XpXpXpXpXpXpXpXpX{ _.! ' aX5XJ 9.X   c.5.x.3.6 . v.3 *.=.*.. . C <.7.r   X *.=.=.G {.!..XF.j =.-.-.f <.  & a 4..   . < pXpXpXpXpXpXpXpX2X",
"2XpXpXpXpXpXpXpXpX{ A.8.[ ^.n.5.. & c.t C t S . & c.z + 2 3   X 3.h.1.&   2 -.=.X.'.).).[.L %.=.=.=.f t   & B.p 7..   > pXpXpXpXpXpXpXpX2X",
"2XpXpXpXpXpXpXpXpX{ G 6 XXn.<.. 4 . t t S t j.6 k.v [.l       . o + 4 .   0 %.#.j OX.X|.J.w =.=.=.%.8.& 7.- r 4 B 9.X > pXpXpXpXpXpXpXpX2X",
"2XpXpXpXpXpXpXpXpX{ r.( n.S     V 6 S 9.S M.@ z.v W.!.'.                        n {.!..XP @.=.-.-. .v.  X a B.p - t l.1 pXpXpXpXpXpXpXpX2X",
"2XpXpXpXpXpXpXpXpX{ XXn.C   X 6 @     1.* * M.7 E.E.!.OX#                       | [.[.).R -.-.=.=.f p   + d & g.S C t _ pXpXpXpXpXpXpXpX2X",
"2XpXpXpXpXpXpXpXpX! 0.s     6 S       o   S f 3 F.}.}.).h q 3 @ .               '.[..XR.j *.=.=.O.h.+         M.@     F pXpXpXpXpXpXpXpX2X",
"2XpXpXpXpXpXpXpXpXK N     p s       X X - 6.#.O.I Q.}.^.G -.-.=.=.%.O... . .0 = }.|. XP.j =.=.=.f <.  <.5     y   t . F pXpXpXpXpXpXpXpX2X",
"2XpXpXpXpXpXpXpXpXK       a   6 3.o 9.o h.o.=.*.L (.!.[./ =.-.-.=.-.-.=.=.=.=. .|..X|.P.k =.=.O.z.& 4 V o     o   p X b pXpXpXpXpXpXpXpX2X",
"2XpXpXpXpXpXpXpXpXK . $         # 9.X t f *.-.=.g ^.E.).e.=.=.=.=.=.=.=.=.=.-...|.{.|.U.h -.*.f S # 4.. j.o & 9.      F pXpXpXpXpXpXpXpX2X",
"2XpXpXpXpXpXpXpXpXu @ t   6     p 6 . c...=.-.=.< Q.E.}._  ...+.@.#.&.=.=.=.-.O.'.^.{.~.g =.o.N.o o .     & g.6   . 1.F pXpXpXpXpXpXpXpX2X",
"2XpXpXpXpXpXpXpXpXu .   4 N.        r f =.=.-.&.L W.[.}.(             . + 3 0 q ( `.E.|.E 0 l.5   +     & B.&   . 1.i ) pXpXpXpXpXpXpXpX2X",
"2XpXpXpXpXpXpXpXpXK p <.7.l.* Z o   k. .=.-.-...I ^.[.[.v                       7 OX`.|.S.w.1.+ t a   . r 4 . . 3.x 9X{ pXpXpXpXpXpXpXpX2X",
"2XpXpXpXpXpXpXpXpXX 9.t * y B.8 o + 4.*.=.=.-.q I.^.^.oX9                       X  X`.~.m.j.+ N.<.5.Z + $   X 5.z _ t.{ pXpXpXpXpXpXpXpX2X",
"2XpXpXpXpXpXpXpXpXX X 9.s * s & s t f =.=.=.*.g [.E.!.>Xw &.%.=   . 5 @ o X       / Y.m.k.o l.8 Z s 4 * 4 X 7.z } 6 t.{ pXpXpXpXpXpXpXpX2X",
"2XpXpXpXpXpXpXpXpXX   . 7.r N.*   6.o.-.=.=.q D.!.^.`.y.*.-.*..   t S j.Z X   0 0 = n.k.X   d r 3.r B.* o 7.l f.f.S tX{ aXpXpXpXpXpXpXpX2X",
"2XpXpXpXpXpXpXpXpX, X   . 4.t $ . x.#.-.-.@.L {.E.!.+X$.-.-...  . B 7.S p   . *.-.#.t 1.  * S x.<.3.  o 5.z eX.X~ v 0X{ pXpXpXpXpXpXpXpX2X",
"2XpXpXpXpXpXpXpXpX, I X   . 1.8 @ 1.=.=.%.g Y.!.~.Q.t.&.-.-.2   o 5.7.Z 4   3 =.=. .L z.6     x.+ V + 5.x aXpXE.J.~.{.{ pXpXpXpXpXpXpXpX2X",
"2XpXpXpXpXpXpXpXpX, L.I X     S 9.C =.O.g P./.).Q.>Xc $.m 8     s 7.3.<.+    .=.=.e L.E v.4   X   + 5.x pX:X;XP.Y.0X}.{ pXpXpXpXpXpXpXpX2X",
"2XpXpXpXpXpXpXpXpX, L.L.I X     A i q L E.~.).~..X` e./ z #   o 9.<.<.1.  . j w +.g L.L.Y z.t   @ 3.z aXpXR.x D.4XT..X{ pXpXpXpXpXpXpXpX2X",
"2XpXpXpXpXpXpXpXpX, L.L.L.I X     + D.|.!.^.).|.T             * t S S o   X n XX[ S.L.L.L.L <.7.3.n W.pXtX' b ^.Q.!.0X{ pXpXpXpXpXpXpXpX2X",
"2XpXpXpXpXpXpXpXpX, L.L.L.L.I X     c Q.~.W.' ( * r B 1.7.9.x.k.5.Z p 4 #       # L.L.L.L.L.P u ( pX<X' 4XpX{.I.eXQ.pX{ pXpXpXpXpXpXpXpX2X",
"2XpXpXpXpXpXpXpXpX& S.L.L.L.L.I X     l ( J k.9.1.5 & 4 8.<.X @ 8 5.C 8 s 8.<.6 ; E L.L.L.L.L.{.pX].G 5 * l R W ` qXpX{ pXpXpXpXpXpXpXpX2X",
"2XpXpXpXpXpXpXpXpX3 h L.L.L.L.L.I X 6 k.S 4 + v.C.@ <.- C.M.o $ Z C.Z 6 + 5.5.s Z <.x P L.L.|.pX4X0.A _ x <.$ 8 s N t.{ pXpXpXpXpXpXpXpX2X",
"2XpXpXpXpXpXpXpXpX3 &.R L.L.L.E J j.Z 3.4 t + 9.S & 6 5 + o S 5.$ & 4 * + C.C.- r + Z 3.l oXpXpX].G 5Xr.s 5 s d 7 G z { pXpXpXpXpXpXpXpX2X",
"2XpXpXpXpXpXpXpXpX3 =.X.E S.G c.5 . Z C.1.+ r @ 6 6 C.j.- & C.C.$ r B C.p o * # o 8 V.5 Z.pXpXpXpXpXZ.h.N.C.M.9.w.pXpX{ pXpXpXpXpXpXpXpX2X",
"2XpXpXpXpXpXpXpXpX3 =.=.e E.c t + t @ 6 X 7.C.p o + t 4 t B $ & 6 6 8 9.& p + C.9.- y & pXpXpXpXpXpXy.C.p e 6 V.F >XpX{ pXpXpXpXpXpXpXpX2X",
"2XpXpXpXpXpXpXpXpX2 =.=.*.n ^.^ $ 6 k.@ p - p @ l.N.& * B.B.- & z.M.$ $ N s 6 B.5.    $ pXpXpXpXpXpX` N.9.#.q C.m qXpX{ pXpXpXpXpXpXpXpX2X",
"2XpXpXpXpXpXpXpXpX1 %.=.=.O.~ }.] J C.5 r 5.+ 5 j.8.X & y s 6 5 d p + o M.B.+ @ o     & pXpXpXpXpXiX[ M.A i V d l.XXpX{ pXpXpXpXpXpXpXpX2X",
"2XpXpXpXpXpXpXpXpX{ j *.=.=.w _.!.{ : . v.B.+ * a 9.3.d r 5 4 5 r s 4.7.s r & +       ; pXpXpXpXpXs.XX9.8.B.j.M.G yXpX{ pXpXpXpXpXpXpXpX2X",
"2XpXpXpXpXpXpXpXpX} qXw =.=.*.j Y.!.f.$ - Z 9.y @ o * l x T Y v h 1 & o $ t 2 =       7 pXpXpXpXiX;.$Xt.q.T T _ qXpXpX{ pXpXpXpXpXpXpXpX2X",
"2XpXpXpXpXpXpXpXpX{ pX@XX.=.=.#.( {.Y.{ i & o x t.[.E.K.E.4XpXpXpX0XR.|.Z.@ %.=       x pXpXpXpX$X=.:.pXpXpXuXpXpXpXpX{ pXpXpXpXpXpXpXpX2X",
"2XpXpXpXpXpXpXpXpX{ pXpXe.@.=.=.X.f.R.^.~ T !.P.P.^.I.:XpXpXpXpXpXpXtXI.h &.*..       r.pXpXpXrX;.=.=.%XpXpXpXpXpXpXpX{ pXpXpXpXpXpXpXpX2X",
"2XpXpXpXpXpXpXpXpX{ pXpXpXm *.=.*.e E.[.!.K.!.~.Q.H.eXpXpXyX5X,X{.5X0Xt.#.=...        2XpXpXpXs.-.=.=.;.rXpXpXpXpXpXpX{ pXpXpXpXpXpXpXpX2X",
"2XpXpXpXpXpXpXpXpX{ pXpXpXaXe =.-.&.n }.!.U.`.U.R.eXpXpXpXaXS.L.L.L.,XqX+.=.3       @ pXpXpX6X-.=.=.=.=.i.pXpXpXpXpXpX{ pXpXpXpXpXpXpXpX2X",
"2XpXpXpXpXpXpXpXpX{ pXpXpXuX} q -.=.+.| (.!.Y.G.4XpXpXpXpXpX0X,XoX4XaXpXo.*..       z pXpXiX>.=.=.=.-.=.=.=XpXpXpXpXpX{ iXpXpXpXpXpXpXpX2X",
"2XpXpXpXpXpXpXpXpX{ .X( l ; *   +.=.*.w W.^.E.{.pXpXpXpXpXpX1XP.U.I.tXpXk q         XXpXiXu.=.=.-.=.=.=.=.-.6XiXpXpXpX{ pXpXpXpXpXpXpXpX2X",
"2XpXpXpXpXpXpXpXpX{ b 8.& 7 s @ X %.=.*.c `.~.~.pXpXpXpXpXpXoX4XOX:X>XpXn X       ; pXiXp.=.=.=.=.=.=.=.=.=.;.7XpXpXpX{ pXpXpXpXrXpXpXpX2X",
"2XpXpXpXpXpXpXpXpX{  X1.N.  5 s . = *.-.@.^ |.P.pXpXpXpXtX:XpXaXpX+XOXaX(         e.pXp.=.-.=.=.=.=.-.=.=.=.=.;.7XpXpX{ pXpXpX7Xi.pXpXpX2X",
"2XpXpXpXpXpXpXpXpX{ iXF C.9.# s Z   3 -.=. .' P.pXpXaX+X|.Y.OXpXpXE.T.~.~       & aXpX-X-.=.=.-.-.=.=.=.=.=.=.i.iXpXpX{ pXpXpX,.-.-XpXpX2X",
"2XpXpXpXpXpXpXpXpX{ pX( M.& 7 s 3.5    .-.=.h I.0X.XJ.F.K.R.J.0XpXU.F.J.P       ].pXpXpX6X-.=.=.=.=.=.=.=.=.i.pXpXpXpX{ pXpX$X=.=.>.rXpX2X",
"2XpXpXpXpXpXpXpXpX{ pX XV   # + p S + . @.-.%.R +XaXU.G.H.I.J.,XpXH.H.I.^     z pXpXpXpXpX=X=.-.=.=.=.=.=.u.iXpXpXpXpX{ pX=X=.=.=.=.,.rX2X",
"2XpXpXpXpXpXpXpXpX{ pXqX#   -   6 4 5   o &.=...} 1X!.!.Q.E.^.:XpXQ.I.Y.U   # wXpXpXpXpXpXpXs.=.-.=.=.=.;.rXpXpXpXpXiX{ 7X=.=.-.=.-.*.p.2X",
"2XpXpXpXpXpXpXpXpX{ pXpX:   # + 9.+ t 6   2 -.-.e 0X0X~.I.I.^.uXpXuX`.E.~ o *XpXpXpXpXpXpXpXiX>.=.=.=.-.=XpXpXpXpXpXpX{ pX%X=.=.=.=.>.iX2X",
"2XpXpXpXpXpXpXpXpX{ pXpXb N.V.C.C.j.* 5.6   0 -.*.c .XOXaXpXpXpXpXpXpXuX) Z.aXpXpXpXpXpXpXpXpX-X=.=.=.u.pXpXpXpXpXpXpX{ pXpX$X=.=.>.rXpX2X",
"2XpXpXpXpXpXpXpXpX{ pXpXv C.C.C.S   $ 7.7.+   ..=.O.~  X}.>XpXpXpXpXtX!.P.pXpXpXpXpXpXpXpXpXpXpXu.-.=.7XpXpXpXpXpXpXpX{ pXpXpX,.=.-XpXpX2X",
"2XpXpXpXpXpXpXpXpX{ pXpXT B.C.C.y o * + p p . . %.=.w /.}.OX{.aXpXuX~.|.T.pXpXpXpXpXpXpXpXpXpXpX6X=.p.pXpXpXpXpXpXpXpX{ pXs.;.i.p.pXpXpX2X",
"2XpXpXpXpXpXpXpXpX{ pXpXT N.C.g.  . o X * y 5   + *.=.j ^..X+X{.uX^.|.1XR.pXpXpXpXpXpXpXpXpXpXpXpX,.6XpXpXpXpXpXpXpXpX{ pXpXrX;.-XpXpXpX2X",
"2XpXpXpXpXpXpXpXpX] uXpXv B.C.B.# # r r Z   s -   3 =.&.^ [.|.OXP.Q.:X^.T.pXpXpXpXpXpXpXpXpXpXpXpX6XpXpXpXpXpXpXpXpXuX[ pXpXpXs.a.pXpXpX2X",
"2XpXpXpXpXpXpXpXpXeX~ { < H H H H H H H H % > K % o 5 7 : ! ) ~ ] Q ] ! ! { { { { } { U.{ } { } { { } { U.{ { } { { ~ 0XpXiXa.;.-.:.s.iX2X",
"2XpXpXpXpXpXpXpXpXpXpXuXtXtXuXwXwXwXwXwXwXwXwXwXwXwXwXwXwXuXtXtXwXtXtXwXwXwXwXuXwXwXwXwXwXwXwXwXuXwXwXwXrXwXwXwXwXuXpXpXpX,.i.rXiX7X>.a.2X",
"2XpXpXpXpXpXpXpXpXpXpXpXpXpXpXpXpXpXpXpXpXpXpXpXpXpXpXpXpXpXpXpXpXpXpXpXpXpXpXpXpXpXpXpXpXpXpXpXpXpXpXpXpXpXpXpXpXpXpXpX=X>.iXpXpXpX7X-.*X",
"2XpXpXpXpXpXpXpXpXpXpXpXpXpXpXpXpXpXpXpXpXpXpXpXpXpXpXpXpXpXpXpXpXpXpXpXpXpXpXpXpXpXpXpXpXpXpXpXpXpXpXpXpXpXpXpXpXpXpXpXs.a.pXpXpXpXpX>.#X",
"2XpXpXpXpXpXpXpXpXpXpXpXpXpXpXpXpXpXpXpXpXpXpXpXpXpXpXpXpXpXpXpXpXpXpXpXpXpXpXpXpXpXpXpXpXpXpXpXpXpXpXpXpXpXpXpXpXpXpXpXi.&XpXpXpXpXpXu.d.",
"2XpXpXpXpXpXpXpXpXpXpXpXpXpXpXpXpXpXpXpXpXpXpXpXpXpXpXpXpXpXpXpXpXpXpXpXpXpXpXpXpXpXpXpXpXpXpXpXpXpXpXpXpXpXpXpXpXpXpXpXa.a.pXpXpXpXpX>.#X",
"2XpXpXpXpXpXpXpXpXpXpXpXpXpXpXpXpXpXpXpXpXpXpXpXpXpXpXpXpXpXpXpXpXpXpXpXpXpXpXpXpXpXpXpXpXpXpXpXpXpXpXpXpXpXpXpXpXpXpXpX=X:.pXpXpXpX7X-.*X",
"2XpXpXpXpXpXpXpXpXpXpXpXpXpXpXpXpXpXpXpXpXpXpXpXpXpXpXpXpXpXpXpXpXpXpXpXpXpXpXpXpXpXpXpXpXpXpXpXpXpXpXpXpXpXpXpXpXpXpXpXiX,.u.8XiX6X>.a.2X",
"3XpXpXpXpXpXpXpXpXpXpXpXpXpXpXpXpXpXpXpXpXpXpXpXpXpXpXpXpXpXpXpXpXpXpXpXpXpXpXpXpXpXpXpXpXpXpXpXpXpXpXpXpXpXpXpXpXpXpXpXpXiXa.:.=.>.$XpX3X",
"aX3X2X2X2X2X2X2X2X2X2X2X2X2X2X2X2X2X2X2X2X2X2X2X2X2X2X2X2X2X2X2X2X2X2X2X2X2X2X2X2X2X2X2X2X2X2X2X2X2X2X2X2X2X2X2X2X2X2X2X2X2X2X2X2X2X2X3XaX"
};
