/* XPM */
static const char *queen_hearts[] = {
/* columns rows colors chars-per-pixel */
"69 100 221 2 ",
"   c #000000",
".  c #0C0001",
"X  c #130101",
"o  c #1C0203",
"O  c #1F0C0E",
"+  c #240406",
"@  c #2B0609",
"#  c #2C0507",
"$  c #33090D",
"%  c #390304",
"&  c #230F11",
"*  c #360C10",
"=  c #3A0E12",
"-  c #251214",
";  c #3D1115",
":  c #3E121A",
">  c #32241C",
",  c #3A1A2A",
"<  c #352E2B",
"1  c #470101",
"2  c #580102",
"3  c #43161A",
"4  c #46191C",
"5  c #4A1C1E",
"6  c #431317",
"7  c #510F16",
"8  c #640102",
"9  c #770000",
"0  c #721019",
"q  c #4B1E21",
"w  c #451B26",
"e  c #59182B",
"r  c #781828",
"t  c #6B1B2E",
"y  c #4E2222",
"u  c #4C232B",
"i  c #512523",
"p  c #552B26",
"a  c #542A2B",
"s  c #5C3329",
"d  c #5F382A",
"f  c #4A2736",
"g  c #572836",
"h  c #583538",
"j  c #633C2C",
"k  c #682931",
"l  c #3D403B",
"z  c #6A651D",
"x  c #5A572E",
"c  c #66412D",
"v  c #69452E",
"b  c #6D4A2E",
"n  c #704F2F",
"m  c #75542F",
"M  c #7B5D2F",
"N  c #674737",
"B  c #755531",
"V  c #6C503C",
"C  c #7F622F",
"Z  c #7D6738",
"A  c #3A2E52",
"S  c #2F3B6D",
"D  c #4C3547",
"F  c #563A44",
"G  c #493C55",
"H  c #492A4B",
"J  c #643743",
"K  c #364647",
"L  c #304577",
"P  c #5B4649",
"I  c #49524D",
"U  c #574A56",
"Y  c #5A5959",
"T  c #494B4E",
"R  c #654A47",
"E  c #674B54",
"W  c #6B5553",
"Q  c #755B59",
"!  c #6E5546",
"~  c #756A52",
"^  c #494A65",
"/  c #555667",
"(  c #4C546F",
")  c #5A6778",
"_  c #666666",
"`  c #6A696A",
"'  c #766565",
"]  c #737373",
"[  c #76787A",
"{  c #6C6F73",
"}  c #675B62",
"|  c #860406",
" . c #990408",
".. c #920C16",
"X. c #A90204",
"o. c #B90102",
"O. c #8C1626",
"+. c #CB0000",
"@. c #C50000",
"#. c #DF0000",
"$. c #D40000",
"%. c #E10D0D",
"&. c #E00707",
"*. c #E21919",
"=. c #E42626",
"-. c #E73C3C",
";. c #E63535",
":. c #866B2E",
">. c #84682F",
",. c #8E762D",
"<. c #937B2C",
"1. c #866F34",
"2. c #8B7649",
"3. c #87736D",
"4. c #E84848",
"5. c #EA5757",
"6. c #D37B7B",
"7. c #EC6868",
"8. c #ED7373",
"9. c #EE7979",
"0. c #70806D",
"q. c #9A832B",
"w. c #978935",
"e. c #AA9826",
"r. c #A49027",
"t. c #B8AA23",
"y. c #BCAC1E",
"u. c #C6B71A",
"i. c #DCD00F",
"p. c #D5C914",
"a. c #CFC215",
"s. c #908671",
"d. c #15549C",
"f. c #1C4E90",
"g. c #24528F",
"h. c #376292",
"j. c #1156A1",
"k. c #175CA3",
"l. c #1E61A3",
"z. c #2868A5",
"x. c #316EA3",
"c. c #3C75A1",
"v. c #3873A3",
"b. c #487C9E",
"n. c #526C85",
"m. c #667983",
"M. c #447BA1",
"N. c #487FA0",
"B. c #425C80",
"V. c #4D829F",
"C. c #52859F",
"Z. c #5B8B9F",
"A. c #58869B",
"S. c #618E9E",
"D. c #6A8A93",
"F. c #64919F",
"G. c #6B959F",
"H. c #6F999F",
"J. c #749B9F",
"K. c #7A9798",
"L. c #72888D",
"P. c #7BA29F",
"I. c #4D82A0",
"U. c #5587A0",
"Y. c #608EA0",
"T. c #6994A0",
"R. c #739BA1",
"E. c #799FA1",
"W. c #7CA1A2",
"Q. c #988C84",
"!. c #98958A",
"~. c #8D9891",
"^. c #93A49D",
"/. c #AAA59A",
"(. c #A1A38E",
"). c #83A6A3",
"_. c #8CACA4",
"`. c #8AAAA7",
"'. c #91AEA5",
"]. c #93B1A6",
"[. c #95B2AA",
"{. c #9CB7AB",
"}. c #9CB7B1",
"|. c #A2BBAC",
" X c #A9B8A9",
".X c #B8B6AB",
"XX c #A4BDB2",
"oX c #A8BEB4",
"OX c #B1ADA3",
"+X c #A1928B",
"@X c #EF8282",
"#X c #F39B9B",
"$X c #F08888",
"%X c #CFA3A3",
"&X c #F4A6A6",
"*X c #F6B6B6",
"=X c #ACC3B5",
"-X c #BBCCBD",
";X c #B4C7B9",
":X c #C7C6BA",
">X c #BBCDC1",
",X c #BFD0C5",
"<X c #CBCBCB",
"1X c #C2C4C3",
"2X c #C8D6C7",
"3X c #D3D9CB",
"4X c #D5DED3",
"5X c #CFDAD1",
"6X c #FAD9D9",
"7X c #F8C7C7",
"8X c #DBE4D7",
"9X c #E2E8DD",
"0X c #EEEEEE",
"qX c #E7EBE3",
"wX c #FCE9E9",
"eX c #EEF1E8",
"rX c #FDF3F3",
"tX c #F9FBF6",
"yX c #FFFFFF",
"uX c #F4F6F2",
"iX c #F2F5ED",
/* pixels */
"tX1X<X<X<X<X<X<X<X<X<X<X<X<X<X<X<X<X<X<X<X<X<X<X<X<X<X<X<X<X<X<X<X<X<X<X<X<X<X<X<X<X<X<X<X<X<X<X<X<X<X<X<X<X<X<X<X<X<X<X<X<X<X<X<X<X<X1XuX",
"1XyXyXyXyXyXyXyXyXyXyXyXyXyXyXyXyXyXyXyXyXyXyXyXyXyXyXyXyXyXyXyXyXyXyXyXyXyXyXyXyXyXyXyXyXyXyXyXyXyXyXyXyXyXyXyXyXyXyXyXyXyXyXyXyXyXyXyX1X",
"<XtX9.=.*.=.7.wXyXyXyXyXyXyXyXyXyXyXyXyXyXyXyXyXyXyXyXyXyXyXyXyXyXyXyXyXyXyXyXyXyXyXyXyXyXyXyXyXyXyXyXyXyXyXyXyXyXyXyXyXyXyXyXyXyXyXyXyX<X",
"<X4.4.wXyXrX8.=.rXyXyXyXyXyXyXyXyXyXyXyXyXyXyXyXyXyXyXyXyXyXyXyXyXyXyXyXyXyXyXyXyXyXyXyXyXyXyXyXyXyXyXyXyXyXyXyXyXyXyXyXyXyXyXyXyXyXyXyX<X",
"%X%.rXyXyXyXyX;.#XyXyXyXyXyXyXyXyXyXyXyXyXyXyXyXyXyXyXyXyXyXyXyXyXyXyXyXyXyXyXyXyXyXyXyXyXyXyXyXyXyXyXyXyXyXyXyXyXyXyXyXyXyXyXyXyXyXyXyX<X",
"6.-.yXyXyXyXyX8.7.yXyXyXyXyXyXyXyXyXyXyXyXyXyXyXyXyXyXyXyXyXyXyXyXyXyXyXyXyXyXyXyXyXyXyXyXyXyXyXyXyXyXyXyXyXyXyXyXyXyXyXyXyXyXyXyXyXyXyX<X",
"6.-.yXyXyXyXyX8.8.yXyXyXyXyXyXyXyXyXyXyXyXyXyXyXyXyXyXyXyXyXyXyXyXyXyXyXyXyXyXyXyXyXyXyXyXyXyXyXyXyXyXyXyXyXyXyXyXyXyXyXyXyXyXyXyXyXyXyX<X",
"%X%.rXyXyXyXyX;.#XyXyXyXyXyXyXyXyXyXyXyXyXyXyXyXyXyXyXyXyXyXyXyXyXyXyXyXyXyXyXyXyXyXyXyXyXyXyXyXyXyXyXyXyXyXyXyXyXyXyXyXyXyXyXyXyXyXyXyX<X",
"<X4.5.rXyXyX$X=.yXyXyXyXyXyXyXyXyXyXyXyXyXyXyXyXyXyXyXyXyXyXyXyXyXyXyXyXyXyXyXyXyXyXyXyXyXyXyXyXyXyXyXyXyXyXyXyXyXyXyXyXyXyXyXyXyXyXyXyX<X",
"<XrX7.*.=.=.7.wXyXqX_ _ _ _ _ _ _ _ _ _ _ _ _ _ _ _ _ _ _ _ Y K I I I _ I I l O X - : & O O > x x x x x x < Y _ _ _ _ qXyXyXyXyXyXyXyXyX<X",
"<XyXyXyX8.5.yXyXyX{ qXyXyXyXyXyXyXyXyXyXyXyXyXyXyXyXyXyXyXyX;XI.|.{.5XyX;X'.'.w   X $.0 : m <.i.i.i.i.i.i.U tXyXyXyXqX` yXyXyXyXyXyXyXyX<X",
"<XyX&X*XwX4.*.9.yX] yXyX6X8.4.-.@XrXyXyX*X5.-.5.&XyXyXyXyXyX;XZ.].-XyXyXyX|.[.L..   8 @.o :.s i.i.i.i.i.i.P yXyXyXyXyX] yXyXyXyXyXyXyXyX<X",
"<X5.#.#.9.%.#.%.6X] yX*X&.#.#.#.#.-.yX#X#.#.#.#.#.5.yXyXyXyX;XS.4XyXyXyXyXyX=XJ.w     @.9 3 + p i.i.i.i.i.U yXyXyXyXyX] yXyXyXyXyXyXyXyX<X",
"<X*.#.#.#.#.#.#.&X] rX*.#.#.#.#.#.#.#X%.#.#.#.#.#.#.#XyXyXyX;XM.b.J.tXyX}.V.U.;XD.X   1 #.% y u.,.t.i.i.i./ yXyXyXyXyX] yXyXyXyXyXyXyXyX<X",
"<X7.#.#.#.#.#.#.wX] *X#.#.#.#.#.#.#.%.#.#.#.#.#.#.#.4.yXyXyXf v.G.Z.F.iXV.V.I.c.U.u      . .$ B # s i.i.i.U yXyXyXyXyX] yXyXyXyXyXyXyXyX<X",
"<XrX;.#.#.#.#.*XyX] &X#.#.#.#.&.#.#.#.#.#.#.#.#.#.#.;.yXyXw   z.z.v.v.yXZ.z.z.x.T. XX   + #.2 * 6 :.i.i.i.F yXyXyXyXyX] yXyXyXyXyXyXyXtX<X",
"<XyXwX%.#.#.$XyXyX] 7X#.#.#.#.#.#.#.#.&.#.#.#.#.&.#.7.yXu     g.c.N.v.yXY.z.c.c.M._.u     9 o.# p.M i.i.i.P yXyXyXyXyX] yXyXyXyXyXyXyXyX<X",
"<XyXyX*X#.5.yXyXyX{ yX4.#.#.#.#.#.#.#.#.#.#.#.#.#.#.7XQ       { uX|.F.yXeXT.[.tXyXXX~..   . +.8 $ # m i.i.P yXyXyXyXyX] yXyXyXyXyXyXyXyX<X",
"<XyXyXyX7.wXyXyXyX] yX7X&.#.#.#.#.#.#.#.#.#.#.#.&.8.:XX       { yX2X_.yXyXyX-XyXyX|.|.w     2 $.7 = M :.e.P 8XyXyXyXyX] yXyXyXyXyXyXyXyX<X",
"<XyXyXyXyXyXyXyXyX] yXyX&X#.#.#.#.#.#.#.#.#.&.#.-.yX3       y U.yX=X2XyX5X8XyXyXyX[._.D.X     X.| $ d ; p C ~.yXyXyXyX] yXyXyXyXyXyXyXyX<X",
"<XyXyXyXyXyXyXyXyX] yXyXyX9.#.#.#.#.#.#.#.#.#.=.wX+X      +  XN.yX8Xb.M.C._.yXyXyX|.2XJ.f     # #.7 $ = r.p.U yXyXyXyX] yXyXyXyXyXyXyXyX<X",
"<XyXyXyXyXyXyXyXyX] yXyXyXyX5.#.#.#.#.#.#.#.*.6XyX4       3.[.b.iXyXeX5XqXuXyXyXyXtX_.=XD.X     | X.# u.s i.F tXyXyXyX] yXyXyXyXyXyXyXyX<X",
"<XyXyXyXyXyXyXyXyX] yXyXyXyXyX-.#.#.#.&.#.&.7XyX9XX     @ |.].Z.{.2Xz.d.z.Z.yXyXyXyXA.W.:Xf     . +.1 # $ b u [.yXyXyX] yXyXyXyXyXyXyXyX<X",
"<XyXyXyXyXyXyXyXyX] yXyXyXyXyXwX=.#.#.#.#.&XyXyXE       ' |._.b.V.tX8XP.|.9XyXyXyXW.;XyX5XK.X     1 e D m.S.E.>XyXyXyX] yXyXyXyXyXyXyXyX<X",
"<XyXyXyXyXyXyXyXyX] yXyXyXyXyXyX7X#.#.#.7.yXyXyX3     X -XP.C.x.V.{.3XP._.yXyXiXE.5XyXyXyX=Xf       !.yXyXyXyX0X<XyXyX] yXyXyXyXyXyXyXyX<X",
"<XyXyXyXyXyXyXyXyX{ yXyXyXyXyXyXyX8.#.*.rXyXyXyX+     = ^ ( ~.yXyX].-XyXyXyX=XW.qXyXyXtX3.^ K.X     ; yXyXyX|.V Z !.8X] yXyXyXyXyXyXyXyX<X",
"<XyXyXyXyXyXyXyXyX] yXyXyXyXyXyXyXrX%.#XyXyXyX3X    X q d <.c 2.s..X_.).).).3XyXiX!.Q c s f ).u       3.yXuXS <.q.L ).] yXyXyXyXyXyXyXyX<X",
"<XyXyXyXyXyXyXyXyX] yXyXyXyXyXyXyXyX8.rXyXyXyXQ . 4 n B C B b n p j N ! ! V ! h j j j s s F ).K.X     @ tX! >.% 8 i M Y yXyXyXyXyXyXyXyX<X",
"<XyXyXyXyXyXyXyXyX] yXyXyXyXyXyXyXyXtXyXyX.XN : s j p $ M C M v v p j M >.c j m b s v j v f W.[.f       J 1.a.1 9 b y.T yXyXyXyXyXyXyXyX<X",
"<XyXyXyXyXyXyXyXyX] yXyXyXyXyXyXyXyXyX4XE u b j * M 6     p b M >.m j p s s s s s b v j i o _ W.D.X     X Q.^ s m f A.] yXyXyXyXyXyXyXyX<X",
"<XyXyXyXyXyXyXyXyX] yXyXyXyXyXyXyXyX'.0 t ,.C X   + 5 . $ j M . + i n v m v j n p * c j *   o L.R.u       q |.V r.D.-X] yXyXyXyXyXyXyXyX<X",
"<XyXyXyXyXyXyXyXyX] yXyXyXyXyXyX.X3 _ ^...O.q.@   s j ,.; v v     i b 5   # m j     c m j o y $ F D.X       OX} P tX.XT yXyXyXyXyXyXyXyX<X",
"<XyXyXyXyXyXyXyXyX] yXyXyXyXyXQ X   . R 1Xr  .B n ,.B j     4 5 + b v ;   * b M     ; 4 o v v 3   $ $ . 3 3.uX3.' 4Xc l tXyXyXyXyXyXyXyX<X",
"<XyXyXyXyXyXyXyXyX] yXyXyX9Xw           w <X}  .0 1.q.=     j v v   X y p 3 @ o c m p     p b j m M + f Q.s.yXQ.Q h C A yXyXyXyXyXyXyXyX<X",
"<XyXyXyXyXyXyXyXyX] yXyXOX@           3 o + 3.OXt  .0 M >.5 :.m 5     j m v     p v :.  o y <.c +     * L n R Q.3 :.c x yXyXyXyXyXyXyXyX<X",
"<XyXyXyXyXyXyXyXyX] yX3.o       X   . 5 i =   w -XQ.k  .| k m ,.v 4 * M M s o @ p :.:.,.m 6 .       X n.v.f a a y v ~ _ yXyXyXyXyXyXyXyX<X",
"<XyXyXyXyXyXyXyXyX[ W .     X p q.@ + q 5 4 o h Y.M.=X XE O.e S L / Y N j b ! ~ Y ^ H 2 o           D ).b.h.h * - c ~.] yXyXyXyXyXyXyXyX<X",
"<XyXyXyXyXyXyXyXyX-         m M 4 e.# = . @ yX[.8Xx.oXv.G.2XH.j.k.{.R.f m s v.R.z.j.d.' +         @ T.XXZ.x.x.D : ( 4X] yXyXyXyXyXyXyXyX<X",
"<XyXyXyXyXyXyXyXyX& 6 *   + e.i 2 q.i   . Q A.M.).K.R.-XS.( e S d.C.W.F n N H.Z.k.j.S O.+         ^ _.`.b.2X_.J R.M.U.] yXyXyXyXyXyXyXyX<X",
"<XyXyXyXyXyXyXyXyX& 5 * 5   = u.r.v     h U.).N.A.b.).L.r o.#.g j.x.[.D C V W.F.d.j.r #.%       @ R.`.[.=Xc.W 9XW.[.T.K yXyXyXyXyXyXyXyX<X",
"<XyXyXyXyXyXyXyXyXO 3 . i .   + 3     * yX}.v.8XE.J.R o.&.#.#.0 j.z.].T m N Z._.j.j. .#.1       f W.N.x.F.m.s.-Xz.M.XXK yXyXyXyXyXyXyXyX<X",
"<XyXyXyXyXyXyXyXyXO 4 $ 4 4 v       . OXM.R.U._.R.J $.&.#.#.#.X.f.l.).G C P C.V.j.L +.#.1       n.).R.R.c.W yX}.z.I.R.I yXyXyXyXyXyXyXyX<X",
"<XyXyXyXyXyXyXyXyXO X p 3 q y ; y X q `.F.N.M.E.B.X.&.&.#.#.#.#.A d.Z.G C V F.c.k.H #.#.1     # R.}.x.C.:XW yX}.}.v.Y.K yXyXyXyXyXyXyXyX<X",
"<XyXyXyXyXyXyXyXyXO     o $ 5 4 * @ /.x.:XU.H.Z.d.S @.&.#.#.#.&.e j.b.^ C R J.z.j.t #.#.1 o w g.W.[.XXb.E 3.yXyXyXA./ < yXyXyXyXyXyXyXyX<X",
"<XyXyXyXyXyXyXyXyXO     o   ; 3 m * yX=Xv.[.R.R.M.j.H ..O. .@.#...j.c./ M P W.z.j. .#.$.e j.j.x.).I.c.V.u $ !.%X' $   - yXyXyXyXyXyXyXyX<X",
"<XyXyXyXyXyXyXyXyXO . 5 e.+     o u Z.I.[.T.I.I.2XM.j.^ ' s.[ J 7 d.c.( n R T.l.L +.$.t j.k.Z.I.`.U.c.c.3 p = = @ * . - yXyXyXyXyXyXyXyX<X",
"<XyXyXyXyXyXyXyXyXO q >.5 r.X     Q Z.I.V.P.S.x.E.XXl.: p # o 4 3.Y.z.( b P F.k.H &.r j.x.`.>XZ.W.v.=X8X# i X @ ; o 6 & yXyXyXyXyXyXyXyX<X",
"<XyXyXyXyXyXyXyXyX& t.7 2 r.5     .XF.`.T.W.g S.U.E.z.w s e.u.i @ : /.) y P C.d.t X.f.x.{.[.M.N.,X>XR.Y.o $ 6 i i 3 5 & yXyXyXyXyXyXyXyX<X",
"<XyXyXyXyXyXyXyXyXO $ y.,.>.    . 9Xc.c.W._.9 E.v.W.v.A @ X @ :.e.v # h Q.U z.k...t z._.J.M.I.I.`.x.W.F..     @ X o p & yXyXyXyXyXyXyXyX<X",
"<XyXyXyXyXyXyXyXyXO   o p       + qX=X9XV.P.0 G.N.8XU.f.s.:XE # o v t.p + Q ;XU.k S z.J.S.M.g D.W.W.c.P.        @     & yXyXyXyXyXyXyXyX<X",
"<XyXyXyXyXyXyXyXyX&     .       $ `.v.H.Z.S.E x.oX`.k.g | d.F.3X3.+ $ ,.<.q o * w j.v.).c.E.9 R.G.J.4X/.      4 a.d . & yXyXyXyXyXyXyXyX<X",
"<XyXyXyXyXyXyXyXyX- C y s 4 .   3 H.2XC.}.A.b.b.[.N.k. ...d.V.w W 3Xg X 4 v i.C : S J.3XM.E.0 E.5X).x.'     6 y.6 ,.$ & yXyXyXyXyXyXyXyX<X",
"<XyXyXyXyXyXyXyXyX& i + 3 p q 4 a W.c.Z.;XV.V.=XE.x.H $.t j.U.h m h.W.;Xu X o ; j A l.`.).c./ ).N.A.Y.R   . n >.2 s ,.& yXyXyXyXyXyXyXyX<X",
"<XyXyXyXyXyXyXyXyXO q 4 p 5 @ s R ,X2XZ.H.C.2XS.x.S X.#.G k.Y.d :.( d.l.F /.' y f g.l.S._.x.C.E.U.v.N.w       q.e.u.o & yXyXyXyXyXyXyXyX<X",
"<XyXyXyXyXyXyXyXyXO     @ q q $ ' c.v.C.P.F.c.l.S | #.@.f.z.G.h ,.( v.j. .X...t t t f.N.).H.Y.R.R.[.`.$ y X   . j .   & yXyXyXyXyXyXyXyX<X",
"<XyXyXyXyXyXyXyXyXO + F yXyXyXw !.V.c.x.P.x.d.A 7 #.#...j.z.K.s C / b.j.r #.#.#.#.&.t j.S.T.R.qXU.c.(.@ : = y         & yXyXyXyXyXyXyXyX<X",
"<XyXyXyXyXyXyXyXyXT P.V.tXtXyXW =Xx.;X2X_., o   2 #.#.r j.c.R.s M ( M.j.H &.&.#.#.#.$.g k.T.).v.2XM.a $ ; s ; s 5 o   & yXyXyXyXyXyXyXyX<X",
"<XyXyXyXyXyXyXyXyXl =Xx.).|.yXW qX=Xc.J.)       8 #.#.H j.b.T.s >.^ I.j.S #.#.#.#.#.&. .L.E.x.N.E.S.o   + @ * 3 * y X & yXyXyXyXyXyXyXyX<X",
"<XyXyXyXyXyXyXyXyXK ).Z.z.}./.s.v.c.U.W.g       2 &.$.S j.S.Z.s >.^ R.j.d.X.#.#.#.#...] ).oXM.oXN.a     X o p X v @ * & yXyXyXyXyXyXyXyX<X",
"<XyXyXyXyXyXyXyXyXI R.F.z.<XW ).[.x.c.W.@       8 &.X.d.k.'.D.p B G ).z.d.r #.#.+.t ~.E.N.}.'.U.3.    @ r.q . o s + * & yXyXyXyXyXyXyXyX<X",
"<XyXyXyXyXyXyXyXyX` R.T.,X' :XR.Z.2X_.E         2 &.O.j.k.;Xb.s ,.G [.z.j.e @.r ] J.[.M.W.M.F.L.+   + a.i r.i   + d 4 - yXyXyXyXyXyXyXyX<X",
"<XyXyXyXyXyXyXyXyX{ 5XI.G R C.<X[.I.).@         1 t L j.l.R.L.s b U ).c.j.f.( G.b.=X|.U.XXc.D.@     v M 8 s r.o   +   - yXyXyXyXyXyXyXyX<X",
"<XyXyXyXyXyXyXyXyX] eX: * w h.b.Y.W.P           @ k L j.N.b.( ; i D G.).j.k.U :X;XC.E.c.2X;X$   @ a . e.<.p.$       : Y yXyXyXyXyXyXyXyX<X",
"<XyXyXyXyXyXyXyXyX] Q v y u Z ( Y.m.X           % 7 h R j s j j c c V U ^ S 8 X.r Q 3XT.) + $ m 5 y .   n o       w 8X] yXyXyXyXyXyXyXyX<X",
"<XyXyXyXyXyXyXyXyX{ N n q U N ,.z.*         $ 5 i 5 B j #     r.m 4   o p n n s 0 o...J 2XF X X j a           . D eXyX] yXyXyXyXyXyXyXyX<X",
"<XyXyXyXyXyXyXyXyXD v ! N oXQ.P ( .   . 4 s j .   o C c 4     M v 3     j v p o y M r X...' OX* o @         o _ tXyXyX] yXyXyXyXyXyXyXyX<X",
"<XyXyXyXyXyXyXyXyX< 1.(.R  XyXtX3.+ 4 i o :.v ;     v p 3 i i $ ; 3 ; + :.v ;     6 m >.r @.t :Xg         $ ^.yXyXyXyX{ yXyXyXyXyXyXyXyX<X",
"<XyXyXyXyXyXyXyXuXx ] yXR OXQ +     : u X s b 3 p v *   + n v     5 j i   $ 3 X X ,.M y p n |  .s.Q X . f 8XyXyXyXyXyX] yXyXyXyXyXyXyXyX<X",
"<XyXyXyXyXyXyXyXyX` yX9Xa s.3.      o P./.: .   s c p   . i p .   5 v ;   + n M $ c n o   + M 0 X.E ) [ yXyXyXyXyXyXyX] yXyXyXyXyXyXyXyX<X",
"<XyXyXyXyXyXyXyXyX{ `.Y i.~ G.;       F {.{.#   $ m j M M :.C M M m C s ; : C v     * X   4 j M e J 4XyXyXyXyXyXyXyXyX] yXyXyXyXyXyXyXyX<X",
"<XyXyXyXyXyXyXyXyXY W u e 5 ! ] .     O _._.Q p q.j s i 5 y c j s p 3 s c n n *   X b C * m p P !.yXyXyXyXyXyXyXyXyXyX] yXyXyXyXyXyXyXyX<X",
"<XyXyXyXyXyXyXyXtX< i.c 9 8 p.s.g       R [.{.3 5 j p j >.c p p b d c y v c s v b 5 m b X u } uXyXyXrXyXyXyXyXyXyXyXyX] yXyXyXyXyXyXyXyX<X",
"<XyXyXyXyXyXyXyXyXY R u 5 4 W /.9Xo     + [.`.q s j m 1.2.2.s.s.0.2.~ m p s v B j n s o + qXyXyXyX6X@XyXyXyXyXyXyXyXyX] yXyXyXyXyXyXyXyX<X",
"<XyXyXyXyXyXyXyXyX{ [.^ i.,.I.yXyXW       P [.: 1.s.!.iXyX8X).{.,X,XP.=Xs.2.c c i @     6 yXyXyXyX8.=.rXyXyXyXyXyXyXyX] yXyXyXyXyXyXyXyX<X",
"<XyXyXyXyXyXyXyXyX] yX9X3.(.yXyXyXyX@     + {._ 9XyXyXyX|.].tXeX8XtXeXW.rXeX) U ^       g yXyXyX6X&.#.$XyXyXyXyXyXyXyX] yXyXyXyXyXyXyXyX<X",
"<XyXyXyXyXyXyXyXyX] yXyXyXyXyXyXyXtXE       G iXyXyXyXP.-XyXtXiXF.F.8X8Xv.V.P.].h       Q.yXyXyX-.#.#.&.6XyXyXyXyXyXyX{ yXyXyXyXyXyXyXyX<X",
"<XyXyXyXyXyXyXyXyX{ yXyXyX~.w q : * 2 1     + E.|.yX).5XyXyXyX}.F.W.;XyXZ.J.{.{.$     o tXyXyX8.#.#.#.#.=.rXyXyXyXyXyX] yXyXyXyXyXyXyXyX<X",
"<XyXyXyXyXyXyXyXyX] yXyXyX|.4 y.$ @ + @..     U [.C.;XyXyXyXyXS.c.c.v.tX-XA.=X'       u yXyX&X#.#.#.#.#.&.4.yXyXyXyXyX] yXyXyXyXyXyXyXyX<X",
"<XyXyXyXyXyXyXyXyX] yXyXyXuXF i.e.r.* | 9     + W.|.[.yXyXyXyX8X}.].;XyXtXV.|.$       %XyX*X&.#.#.&.#.#.#.#.7.yXyXyXyX] yXyXyXyXyXyXyXyX<X",
"<XyXyXyXyXyXyXyXyX] yXyXyXyX/ a.j # + # +.+     U _.].uXyXyXyXG.).Z.V.iXyXc.P       , yX6X%.&.#.#.#.#.#.#.#.#.$XyXyXyX] yXyXyXyXyXyXyXyX<X",
"<XyXyXyXyXyXyXyXyX] yXyXyXyX_.>.v * n 6 2 X.    @ P.[.,XyXyXyX4XqXyX).yXyX( .     X :XwX*.#.#.#.#.#.#.#.#.#.#.#.*XyXyX] yXyXyXyXrXyXyXyX<X",
"<XyXyXyXyXyXyXyXyX] yXyXyXyX9XP i.p.m + n X.1     U _.|.yXyX;XyXyXyXW.2XyXu       F yX-.#.#.#.#.#.#.#.#.#.#.#.#.#.6XyX] yXyXyX6X5.yXyXyX<X",
"<XyXyXyXyXyXyXyXyX] yXyXyXyXyXP i.i.n . # # @..   @ `.-XtX=XJ.b.5XyXx.).}.w     * uX&X#.#.#.#.#.#.#.#.#.#.#.#.#.#.5.yX] yXyXyX4.#.*XtXyX<X",
"<XyXyXyXyXyXyXyXyX] yXyXyXyXyXP i.i.a.C e.+ | 8     / 8Xz.x.c.z.W.0Xk.x.v.f   + 3XyX-.#.#.#.&.#.#.#.#.#.#.#.#.#.#.#.wX] yXyX8.#.#.*.6XyX<X",
"<XyXyXyXyXyXyXyXyX] yXyXyXyXyXD i.i.i.i + + # @.X   @ 8XR.c.x.z.`.qXz.z.z.f o OXyXyX*.&.&.&.#.#.#.#.&.#.#.#.#.#.#.#.7X] yX&X#.#.#.#.=.wX<X",
"<XyXyXyXyXyXyXyXyX] yXyXyXyXyXh i.i.i.i # <.5 2 |     Q Y.N.I.Y.I.tXZ.c.M.h.(.yXyXyX=.&.#.&.#.#.#.#.%.#.#.#.#.#.#.#.6X] 6X&.#.#.#.#.#.5.<X",
"<XyXyXyXyXyXyXyXyX{ yXyXyXyXyXf i.i.i.a.i.b * s o.+   @ _._.T.T.>XyXtX[.T.U.3XyXyXyX$X&.#.&.#.#.#.;.$X#.#.#.#.#.#.;.yX] &X#.#.#.#.#.#.=.<X",
"<XyXyXyXyXyXyXyXyX] yXyXyXyXyXh i.i.i.i.i.M X @ % X.    U _.`.tXyXyXyXyXXXM.5XyXyXyXtX4.#.#.#.#.%.7XrX;.#.#.#.#.*.6XyX] wX*.#.*.@X#.#.8.<X",
"<XyXyXyXyXyXyXyXyX{ yXyXyXyXyXF i.i.i.i.i.p.p u.+  .2   @ R._.`.uXyXyXW.P.I.5XyXyXyXyXyX&X8.4.8.6XyXyXrX$X5.5.#XrXyXyX{ yX@X*.4.rX7X7XyX<X",
"<XyXyXyXyXyXyXyXyX` uXyXyXyXyXh i.i.i.i.i.i.C 5 6 i o..   U P.|.`.yX]._.[.A.8XyXyXyXyXyXyXyXyXyXyXyXyXyXyXyXyXyXyXyXuX` yXyXyX5.8.yXyXyX<X",
"<XyXyXyXyXyXyXyXyXqXY { ] [ ] > z z z z z z > - ; X $ $ . & K I Y Y I I I K { [ [ ] [ ] [ [ [ [ [ [ [ ] ] [ [ ] [ { Y 4XyXrX7.=.=.*.7.rX<X",
"<XyXyXyXyXyXyXyXyXyXyXuX0X0X0X0X0X0X0X0X0X0X0X0XeX0X0X0X0X0X0X0X0X0X0X0XiX0X0X0X0XiX0X0X0X0X0X0X0X0X0X0X0X0X0X0X0XuXyXyXrX=.9.yXyXrX5.4.<X",
"<XyXyXyXyXyXyXyXyXyXyXyXyXyXyXyXyXyXyXyXyXyXyXyXyXyXyXyXyXyXyXyXyXyXyXyXyXyXyXyXyXyXyXyXyXyXyXyXyXyXyXyXyXyXyXyXyXyXyXyX#X;.yXyXyXyXrX%.%X",
"<XyXyXyXyXyXyXyXyXyXyXyXyXyXyXyXyXyXyXyXyXyXyXyXyXyXyXyXyXyXyXyXyXyXyXyXyXyXyXyXyXyXyXyXyXyXyXyXyXyXyXyXyXyXyXyXyXyXyXyX8.8.yXyXyXyXyX-.6.",
"<XyXyXyXyXyXyXyXyXyXyXyXyXyXyXyXyXyXyXyXyXyXyXyXyXyXyXyXyXyXyXyXyXyXyXyXyXyXyXyXyXyXyXyXyXyXyXyXyXyXyXyXyXyXyXyXyXyXyXyX7.8.yXyXyXyXyX-.6.",
"<XyXyXyXyXyXyXyXyXyXyXyXyXyXyXyXyXyXyXyXyXyXyXyXyXyXyXyXyXyXyXyXyXyXyXyXyXyXyXyXyXyXyXyXyXyXyXyXyXyXyXyXyXyXyXyXyXyXyXyX#X;.yXyXyXyXrX#.%X",
"<XyXyXyXyXyXyXyXyXyXyXyXyXyXyXyXyXyXyXyXyXyXyXyXyXyXyXyXyXyXyXyXyXyXyXyXyXyXyXyXyXyXyXyXyXyXyXyXyXyXyXyXyXyXyXyXyXyXyXyXrX=.8.yXyXwX5.4.<X",
"<XyXyXyXyXyXyXyXyXyXyXyXyXyXyXyXyXyXyXyXyXyXyXyXyXyXyXyXyXyXyXyXyXyXyXyXyXyXyXyXyXyXyXyXyXyXyXyXyXyXyXyXyXyXyXyXyXyXyXyXyXwX7.*.*.=.8.yX<X",
"1XyXyXyXyXyXyXyXyXyXyXyXyXyXyXyXyXyXyXyXyXyXyXyXyXyXyXyXyXyXyXyXyXyXyXyXyXyXyXyXyXyXyXyXyXyXyXyXyXyXyXyXyXyXyXyXyXyXyXyXyXyXyXyXyXyXyXyX1X",
"tX1X<X<X<X<X<X<X<X<X<X<X<X<X<X<X<X<X<X<X<X<X<X<X<X<X<X<X<X<X<X<X<X<X<X<X<X<X<X<X<X<X<X<X<X<X<X<X<X<X<X<X<X<X<X<X<X<X<X<X<X<X<X<X<X<X<X1XtX"
};
