/* XPM */
static const char *red_[] = {
/* columns rows colors chars-per-pixel */
"69 100 70 1 ",
"  c #000000",
". c #0C0C0C",
"X c #151515",
"o c #1B1B1B",
"O c gray13",
"+ c #2C2C2C",
"@ c #343434",
"# c #3C3C3C",
"$ c #444444",
"% c #4E4E4E",
"& c #535353",
"* c #5B5B5B",
"= c gray39",
"- c #6C6C6C",
"; c #747474",
": c #7A7A7A",
"> c #DF0000",
", c #DE0909",
"< c #E00505",
"1 c #E00B0B",
"2 c #E11414",
"3 c #E21B1B",
"4 c #E32323",
"5 c #E42B2B",
"6 c #E53434",
"7 c #E63B3B",
"8 c #E74242",
"9 c #E84545",
"0 c #E94B4B",
"q c #E95353",
"w c #EB5D5D",
"e c #EC6464",
"r c #ED6B6B",
"t c #EE7575",
"y c #EE7B7B",
"u c #868686",
"i c #8C8C8C",
"p c #929292",
"a c gray61",
"s c #A2A2A2",
"d c #ADADAD",
"f c #B3B3B3",
"g c #BCBCBC",
"h c #D09D9D",
"j c #EF8282",
"k c #F08686",
"l c #F08B8B",
"z c #F19393",
"x c #F29B9B",
"c c #F4A3A3",
"v c #F4ABAB",
"b c #F6B4B4",
"n c #F6BBBB",
"m c #C3C3C3",
"M c #CCC2C2",
"N c #CBCBCB",
"B c #D4D4D4",
"V c #DCDCDC",
"C c #F7C2C2",
"Z c #F8C5C5",
"A c #F9CCCC",
"S c #F9D3D3",
"D c #FADBDB",
"F c #E3E3E3",
"G c #ECECEC",
"H c #FCE4E4",
"J c #FDECEC",
"K c #F2F2F2",
"L c #FEF3F3",
"P c #FFFFFF",
/* pixels */
"PgNNNNNNNNNNNNNNNNNNNNNNNNNNNNNNNNNNNNNNNNNNNNNNNNNNNNNNNNNNNNNNNNNgP",
"mPPPP3<rPPPPPPPPPPPPPPPPPPPPPPPPPPPPPPPPPPPPPPPPPPPPPPPPPPPPPPPPPPPPg",
"NPPPH>>xPPPPPPPPPPPPPPPPPPPPPPPPPPPPPPPPPPPPPPPPPPPPPPPPPPPPPPPPPPPPN",
"NPPPb>>APPPPPPPPPPPPPPPPPPPPPPPPPPPPPPPPPPPPPPPPPPPPPPPPPPPPPPPPPPPPN",
"NPPPj>,PPPPPPPPPPPPPPPPPPPPPPPPPPPPPPPPPPPPPPPPPPPPPPPPPPPPPPPPPPPPPN",
"NPPP0>6PPPPPPPPPPPPPPPPPPPPPPPPPPPPPPPPPPPPPPPPPPPPPPPPPPPPPPPPPPPPPN",
"NPPP3>rPPPPPPPPPPPPPPPPPPPPPPPPPPPPPPPPPPPPPPPPPPPPPPPPPPPPPPPPPPPPPN",
"NPPH>>xPPPPPPPPPPPPPPPPPPPPPPPPPPPPPPPPPPPPPPPPPPPPPPPPPPPPPPPPPPPPPN",
"NPPb>>SPPPPPPPPPPPPPPPPPPPPPPPPPPPPPPPPPPPPPPPPPPPPPPPPPPPPPPPPPPPPPN",
"NPPj>>PPPPPPPPPPPPPPPPPPPPPPPPPPPPPPPPPPPPPPPPPPPPPPPPPPPPPPPPPPPPPPN",
"NPP8>8PPPPPPPPPPPPPPPPPPPPPPPPPPPPPPPPPPPPPPPPPPPPPPPPPPPPPPPPPPPPPPN",
"NLx>>xPPPPPPPPPPPPPPPPPPPPPPPPPPPPPPPPPPPPPPPPPPPPPPPPPPPPPPPPPPPPPPN",
"M>>>8PSyyLPPPPPPPPPPPPPPPPPPPPPPPPPPPPPPPPPPPPPPPPPPPPPPPPPPPPPPPPPPN",
"h,6jLr12>rPPPPPPPPPPPPPPPPPPPPPPPPPPPPPPPPPPPPPPPPPPPPPPPPPPPPPPPPPPN",
"NPPPt,SZ>qPPPPPPPPPPPPPPPPPPPPPPPPPPPPPPPPPPPPPPPPPPPPPPPPPPPPPPPPPPN",
"NPPH>ePA>yPPPPPPPPPPPPPPPPPPPPPPPPPPPPPPPPPPPPPPPPPPPPPPPPPPPPPPPPPPN",
"NPPx>cPx>nPPPPPPPPPPPPPPPPPPPPPPPPPPPPPPPPPPPPPPPPPPPPPPPPPPPPPPPPPPN",
"NPPr>bP66PPPPPPPPPPPPPPPPPPPPPPPPPPPPPPPPPPPPPPPPPPPPPPPPPPPPPPPPPPPN",
"NPPj>002ZPPPPPPPPPPPPPPPPPPPPPPPPPPPPPPPPPPPPPPPPPPPPPPPPPPPPPPPPPPPN",
"NPPH52rJPPPPPPPPPPPPPPPPPPPPPPPPPPPPPPPPPPPPPPPPPPPPPPPPPPPPPPPPPPPPN",
"NPPPPPLljPPPPPPPPPPPPPPPPPPPPPPPPPPPPPPPPPPPPPPPPPPPPPPPPPPPPPPPPPPPN",
"NPPPPZ3>yPPPPPPPPPPPPPPPPPPPPPPPPPPPPPPPPPPPPPPPPPPPPPPPPPPPPPPPPPPPN",
"NPPPA1tPPPPPPPPPPPPPPPPPPPPPPPPPPPPPPPPPPPPPPPPPPPPPPPPPPPPPPPPPPPPPm",
"NPPP9>JPPPPPPPPPPPPPPPPPPPPPPPPPPPPPPPPPPPPPPPPPPPPPPPPPPPPPPPPPPPPPN",
"NPPL<7PCrbPPPPPPPPPPPPPPPPPPPPPPPPPPPPPPPPPPPPPPPPPPPPPPPPPPPPPPPPPPN",
"NPPn>yx>>lPPPPPPPPPPPPJnbDPPPPPPPPPPPPPPPPPPPPPPPPPPPPPPPPPPPPPPPPPPN",
"NPPj>01blPPPPPPPPPPPJe>>>>7APPPPPPPPPPPPPPPPPPPPPPPPPPPPPPPPPPPPPPPPN",
"NPP0>>bPPPPPPPPPPPPH4>>>>>>,nPPPPPPPPPPPPPPPPPPPPPPPPPPPPPPPPPPPPPPPN",
"NPP2>>yPPPPPPPPPPPP6>>>>>>>>2JPPPPPPPPPPPPPPPPPPPPPPPPPPPPPPPPPPPPPPN",
"NPH>w11LPPPPPPPPPPv>>>>>>>>>>xPPPPPPPPPPPPPPPPPPPPPPPPPPPPPPPPPPPPPPN",
"NPc>xr>zPPPPPPPPPPr>>>>>>>>>>0PPPPPPPPPPPPPPPPPPPPPPFms:#FPPPPPPPPPPN",
"NPr3DS>3PPPHPPPPPPr>>>>>>>>>>1PPPPPPPPPPPPPPFfp-&@X     @PPPPPPPPPPPN",
"NPDPPPe>yPDqPPPPPPc>>>>>>>>>>>JPPPPPPPPPFp$X            *PPPPPPPPPPPN",
"NPPPLxt0>722PLxq0tZ2>>>>>>>>>>SPPPPPPPB$                uPPPPPPPPPPPN",
"NPPH53>xAzlHD5>>>>>,>>>>>>>>>>nPPPPPPm.                 sPPPPPPPPPPPN",
"NPP96k>ZPPPJ4<>>>>>>>>>>>>>>>>vPPPPPKX                  gPPPPPPPPPPPN",
"NPD>71kPPPPt>>>>>>>>>>>>>>>>>>xPPPPPa                   BPPPPPPPPPPPN",
"NPc>1vPSPPP1>>>>>>>>>>>>>>>>>>lPPPPP:                   KPPPPPPPPPPPN",
"NPt>bPywPPS>>>>>>>>>>>>>>>>>>>yPPPPPa                  XPPPPPPPPPPPPN",
"NPj>755HPPS>>>>>>>>>>>>>>>>>>>ePPPPPGX                 +PPPPPPPPPPPPN",
"NPD42tLPPPP1>>>>>>>>>>>>>>>>>>0PPPPPPf.                %PPPPPPPPPPPPN",
"NPPPPPPPPPPr>>>>>>>>>>>>>>>>>>4PPPPPPPB;&$*-.          ;PPPPPPPPPPPPN",
"NPPLxxzrJPPJ4>>>>>>>>>>>>>>>>>1PPPPPPPPPPPN#           aPPPPPPPPPPPPN",
"NPb4>>>2PPPPH6>>>>>>>>>>>>>>>>>CPPPPPPPPV*  .;         NPPPPPPPPPPPPN",
"NPtt>qZyPPPPPPnt6,>>>>>>>>>>>>>kPPPPPPg&    ;u        .KPPPPPPPPPPPPN",
"NPPy>ZPPPPPPPPPPPPLDAncxje04>>>6PPPPG+     XG-        $PPPPPPPPPPPPPN",
"NPP7>PPPPPPPPPPPPPPPPPPPPPPPHve1APPPPBX    uP-        pPPPPPPPPPPPPPN",
"NPP>9PPPPPPPPPPPPPPPPPPPPPPPPPPJCPPPPPBX  .GPp       .GPPPPPPPPPPPPPN",
"NPb>jPPPPPPPPPPPPPPPPPPPPPPPPPPPPPPPPPPBX =PPF.      :PPPPPPPPPPPPPPN",
"NPy7SPPPPPPPPPPPPPPPPPPPPPPPPPPPPPPPPPPPBXNPPPf.    *PPPPPPPPPPPPDyZN",
"NPLPPPPPPPPPPPPPPPPm;=;mPPPPPPPPPPPPPPPPPBPPPPPF;$&fPPPPPPPPPPPPP7>LN",
"NPPPPPPPPPPPPPPPPG$     %KPPPPPPPPPPPPPPPPPPPPPPPPPPPPPPPPPPPPPPP17PN",
"NPPPPPPPPPPPPPPPP#       $PPPBuPPPPPPPPPPPPPPPPPPPPPPPPPPPPPPPPPC>yPN",
"NPPPPPPPPPPPPPPPi         dPPf iPPPPPPPPPPPPPPPPPPPPPPPPPPPPPPPPj>nPN",
"NPPPPPPPPPPPPPPP@         *PP-  iPPPPPPHPPPPPPPPPPPPPPPPPPPPPPnP7>SAN",
"NPPPPPPPPPPPPPPP.         @PG.   iPPPPP88xJPPPPPPPPPPPPPPPPPPS<3>>3CN",
"NPPPPPPPPPPPPPPPX         @P=  .$;FPPPPx>>>7tvDPPPPPPPPPPPPPPc1e2rHPN",
"NPPPPPPPPPPPPPPP*         =a .-FPPPPPPPL<>>>>>>136999743PPPPPPPPPPPPN",
"NPPPPPPPPPPPPPPPN         &.XmPPPPPPPPPP7>>>>>>>>>>>>>>5PPPPPPPPvevPN",
"NPPPPPPPPPPPPPPPPu         OdsusVPPPPPPPl>>>>>>>>>>>>>>9PPPPPPH7,>>JN",
"NPPPPPPPPPPPPPPPPPaX       .     =KPPPPPZ>>>>>>>>>>>>>>0PPPPPP4eLe>ZN",
"NPPPPPPPPPPPPPPPPGs:+             #PPPPPL>>>>>>>>>>>>>>qPPPPPPzPn2>JN",
"NPPPPPPPPPPPPPPV%                  pPPPPP5>>>>>>>>>>>>>qPPPPPPPl,22PN",
"NPPPPPPPPPPPPPNX                   @PPPPPq>>>>>>>>>>>>>7PPPPPPx>v>tPN",
"NPPPPPPPPPPPPP@                    .PPPPPe>>>>>>>>>>>>>4PPPDPP8>w4JPN",
"NPPPPPPPPPPPPN          ..         .PPPPPy>>>>>>>>>>>>>1PS3>>0y2eJPPN",
"NPPPPPPPPPPPPa          X#         $PPPPPl>>>>>>>>>>>>>>HS3An13HPPPPN",
"NPPPPPPPPPPPPs          @g         dPPPPPl>>>>>>>>>>>>>>vPnPPz>wPZqnN",
"NPPPPPPPPPPPPB          ;Pu       =PPPPPPk>>>>>>>>>>>>>>yPPPPL2<Hq>JN",
"NPPPPPPPPPPPPP$         NPPdO   .pPPPPPPPy>>>>>>>>>>>>>>7PPPPPk>y44PN",
"NPPPPPPPPPPPPPVX       &PPPPPNdmPPPPPPPPPw>>>>>>>>>>>>>>>JPPPPJ,2>qPN",
"NPPPPPPPPPPPPPPNO     #KPPPPPPPPPPPPPPPPPjrylxxkrw61>>>>>cPPPPPw>>zPN",
"NPPPPPPPPPPPPPPPKa&$*dPPPPPPPPPPPPPPPPPPPPPPPPPPPPPPZz91>9PPLHZ23>APN",
"NPPPPPPPPPPPPPPPPPPPPPPPPPPPPPPPPPPPPPPPPPPPPPPPPPPPPPPLc0HPr31x6,PPN",
"NPPPPPPPPPPPPPPPPPPPPPPPPPPPPPPPPPPPPPPPPPPPPPPPPPPPPPPPPPPL63vL>7PPN",
"NPPPPPPPPPPPPPPPPPPPPPPPPPPPPPPPPPPPPPPPPPPPPPPPPPPPPPPPPPPPPPPb>jPPN",
"NPPPPPPPPPPPPPPPPPPPPPPPPPPPPPPPPPPPPPPPPPPPPPPPPPPPPPPPPPPPPPPq2DPPN",
"NPPPPPPPPPPPPPPPPPPPPPPPPPPPPPPPPPPPPPPPPPPPPPPPPPPPPPPPPPPPPy92CPPPN",
"NPPPPPPPPPPPPPPPPPPPPPPPPPPPPPPPPPPPPPPPPPPPPPPPPPPPPPPPPPPPA4qDPPPPN",
"NPPPPPPPPPPPPPPPPPPPPPPPPPPPPPPPPPPPPPPPPPPPPPPPPPPPPPPPPPPPPPPxevPPN",
"NPPPPPPPPPPPPPPPPPPPPPPPPPPPPPPPPPPPPPPPPPPPPPPPPPPPPPPPPPPPPA54>,LPN",
"NPPPPPPPPPPPPPPPPPPPPPPPPPPPPPPPPPPPPPPPPPPPPPPPPPPPPPPPPPPPL20P0>CPN",
"NPPPPPPPPPPPPPPPPPPPPPPPPPPPPPPPPPPPPPPPPPPPPPPPPPPPPPPPPPPPl>SPw>DPN",
"NPPPPPPPPPPPPPPPPPPPPPPPPPPPPPPPPPPPPPPPPPPPPPPPPPPPPPPPPPPP63PP44PPN",
"NPPPPPPPPPPPPPPPPPPPPPPPPPPPPPPPPPPPPPPPPPPPPPPPPPPPPPPPPPPP15Pn>xPPN",
"NPPPPPPPPPPPPPPPPPPPPPPPPPPPPPPPPPPPPPPPPPPPPPPPPPPPPPPPPPPL><t2wPPPN",
"NPPPPPPPPPPPPPPPPPPPPPPPPPPPPPPPPPPPPPPPPPPPPPPPPPPPPPPPPPPPj17vPLj5,",
"NPPPPPPPPPPPPPPPPPPPPPPPPPPPPPPPPPPPPPPPPPPPPPPPPPPPPPPPPPPPPPPPP9>>>",
"NPPPPPPPPPPPPPPPPPPPPPPPPPPPPPPPPPPPPPPPPPPPPPPPPPPPPPPPPPPPPPPPx>>xM",
"NPPPPPPPPPPPPPPPPPPPPPPPPPPPPPPPPPPPPPPPPPPPPPPPPPPPPPPPPPPPPPPP8>8PN",
"NPPPPPPPPPPPPPPPPPPPPPPPPPPPPPPPPPPPPPPPPPPPPPPPPPPPPPPPPPPPPPPP,>jPN",
"NPPPPPPPPPPPPPPPPPPPPPPPPPPPPPPPPPPPPPPPPPPPPPPPPPPPPPPPPPPPPPPS>>bPN",
"NPPPPPPPPPPPPPPPPPPPPPPPPPPPPPPPPPPPPPPPPPPPPPPPPPPPPPPPPPPPPPPx>>HPN",
"NPPPPPPPPPPPPPPPPPPPPPPPPPPPPPPPPPPPPPPPPPPPPPPPPPPPPPPPPPPPPPPe>3PPN",
"NPPPPPPPPPPPPPPPPPPPPPPPPPPPPPPPPPPPPPPPPPPPPPPPPPPPPPPPPPPPPPP6>0PPN",
"NPPPPPPPPPPPPPPPPPPPPPPPPPPPPPPPPPPPPPPPPPPPPPPPPPPPPPPPPPPPPPP1>jPPN",
"NPPPPPPPPPPPPPPPPPPPPPPPPPPPPPPPPPPPPPPPPPPPPPPPPPPPPPPPPPPPPPA>>bPPN",
"NPPPPPPPPPPPPPPPPPPPPPPPPPPPPPPPPPPPPPPPPPPPPPPPPPPPPPPPPPPPPPx<>JPPN",
"mPPPPPPPPPPPPPPPPPPPPPPPPPPPPPPPPPPPPPPPPPPPPPPPPPPPPPPPPPPPPPe<3PPPm",
"PgNNNNNNNNNNNNNNNNNNNNNNNNNNNNNNNNNNNNNNNNNNNNNNNNNNNNNNNNNNNNNNNNNgP"
};
