/* XPM */
static const char *seven_clubs[] = {
/* columns rows colors chars-per-pixel */
"69 100 245 2 ",
"   c black",
".  c #010101",
"X  c #020202",
"o  c gray1",
"O  c #040404",
"+  c gray2",
"@  c #060606",
"#  c #070707",
"$  c gray3",
"%  c #090909",
"&  c gray4",
"*  c #0B0B0B",
"=  c #0C0C0C",
"-  c gray5",
";  c #0E0E0E",
":  c gray6",
">  c #101010",
",  c #111111",
"<  c gray7",
"1  c #131313",
"2  c gray8",
"3  c #151515",
"4  c #161616",
"5  c gray9",
"6  c #181818",
"7  c #191919",
"8  c gray10",
"9  c #1B1B1B",
"0  c gray11",
"q  c #1D1D1D",
"w  c #1E1E1E",
"e  c gray12",
"r  c #202020",
"t  c #222222",
"y  c #232323",
"u  c gray14",
"i  c #252525",
"p  c gray15",
"a  c #272727",
"s  c gray16",
"d  c #2A2A2A",
"f  c gray17",
"g  c #2C2C2C",
"h  c #2D2D2D",
"j  c gray18",
"k  c #2F2F2F",
"l  c gray19",
"z  c #313131",
"x  c gray20",
"c  c #343434",
"v  c #353535",
"b  c gray21",
"n  c #373737",
"m  c gray22",
"M  c #393939",
"N  c #3A3A3A",
"B  c gray23",
"V  c #3C3C3C",
"C  c gray24",
"Z  c #3E3E3E",
"A  c gray25",
"S  c gray26",
"D  c #434343",
"F  c #444444",
"G  c gray27",
"H  c #464646",
"J  c gray28",
"K  c #484848",
"L  c #494949",
"P  c gray29",
"I  c #4B4B4B",
"U  c #4C4C4C",
"Y  c #4E4E4E",
"T  c gray31",
"R  c #505050",
"E  c gray32",
"W  c #535353",
"Q  c gray33",
"!  c #555555",
"~  c #565656",
"^  c gray34",
"/  c #585858",
"(  c gray35",
")  c #5A5A5A",
"_  c #5B5B5B",
"`  c gray36",
"'  c #5D5D5D",
"]  c gray37",
"[  c #5F5F5F",
"{  c #606060",
"}  c gray38",
"|  c #626262",
" . c gray39",
".. c #646464",
"X. c gray40",
"o. c #676767",
"O. c #686868",
"+. c DimGray",
"@. c #6A6A6A",
"#. c gray42",
"$. c #6C6C6C",
"%. c #6D6D6D",
"&. c gray43",
"*. c #6F6F6F",
"=. c gray44",
"-. c #717171",
";. c #727272",
":. c gray45",
">. c #747474",
",. c gray46",
"<. c #767676",
"1. c #777777",
"2. c gray47",
"3. c #797979",
"4. c gray48",
"5. c #7B7B7B",
"6. c #7C7C7C",
"7. c gray49",
"8. c #7E7E7E",
"9. c gray50",
"0. c #808080",
"q. c #818181",
"w. c gray51",
"e. c #838383",
"r. c #848484",
"t. c gray52",
"y. c #868686",
"u. c gray53",
"i. c #888888",
"p. c gray54",
"a. c #8B8B8B",
"s. c gray55",
"d. c #8D8D8D",
"f. c #8E8E8E",
"g. c gray56",
"h. c #909090",
"j. c gray57",
"k. c #929292",
"l. c #939393",
"z. c gray58",
"x. c #959595",
"c. c gray59",
"v. c #979797",
"b. c #989898",
"n. c gray60",
"m. c #9A9A9A",
"M. c #9B9B9B",
"N. c gray61",
"B. c #9D9D9D",
"V. c #A0A0A0",
"C. c gray63",
"Z. c #A2A2A2",
"A. c gray64",
"S. c #A4A4A4",
"D. c #A5A5A5",
"F. c gray65",
"G. c #A7A7A7",
"H. c gray66",
"J. c #A9A9A9",
"K. c #AAAAAA",
"L. c gray67",
"P. c #ACACAC",
"I. c gray68",
"U. c #AEAEAE",
"Y. c #AFAFAF",
"T. c gray69",
"R. c #B1B1B1",
"E. c #B2B2B2",
"W. c gray70",
"Q. c #B4B4B4",
"!. c gray71",
"~. c #B6B6B6",
"^. c #B7B7B7",
"/. c gray72",
"(. c #B9B9B9",
"). c gray73",
"_. c #BBBBBB",
"`. c #BCBCBC",
"'. c gray74",
"]. c gray",
"[. c gray75",
"{. c #C0C0C0",
"}. c #C1C1C1",
"|. c gray76",
" X c #C3C3C3",
".X c gray77",
"XX c #C5C5C5",
"oX c #C6C6C6",
"OX c gray78",
"+X c #C8C8C8",
"@X c gray79",
"#X c #CACACA",
"$X c #CBCBCB",
"%X c gray80",
"&X c #CDCDCD",
"*X c #CECECE",
"=X c gray81",
"-X c #D0D0D0",
";X c gray82",
":X c #D2D2D2",
">X c LightGray",
",X c gray83",
"<X c #D5D5D5",
"1X c gray84",
"2X c #D7D7D7",
"3X c #D8D8D8",
"4X c gray85",
"5X c #DADADA",
"6X c gray86",
"7X c gainsboro",
"8X c #DDDDDD",
"9X c gray87",
"0X c #DFDFDF",
"qX c gray88",
"wX c #E1E1E1",
"eX c #E2E2E2",
"rX c gray89",
"tX c #E4E4E4",
"yX c gray90",
"uX c #E6E6E6",
"iX c #E7E7E7",
"pX c gray91",
"aX c #E9E9E9",
"sX c #EAEAEA",
"dX c gray92",
"fX c #ECECEC",
"gX c gray93",
"hX c #EEEEEE",
"jX c #EFEFEF",
"kX c gray94",
"lX c #F1F1F1",
"zX c gray95",
"xX c #F3F3F3",
"cX c #F4F4F4",
"vX c gray96",
"bX c #F6F6F6",
"nX c gray97",
"mX c #F8F8F8",
"MX c #F9F9F9",
"NX c gray98",
"BX c #FBFBFB",
"VX c gray99",
"CX c #FDFDFD",
"ZX c #FEFEFE",
"AX c white",
/* pixels */
"NX|.$X%X%X%X%X%X%X%X%X%X%X%X%X%X%X%X%X%X%X%X%X%X%X%X%X%X%X%X%X%X%X%X%X%X%X%X%X%X%X%X%X%X%X%X%X%X%X%X%X%X%X%X%X%X%X%X%X%X%X%X%X%X%X%X$X|.NX",
" XZXAXAXAXAXAXAXAXAXAXAXAXAXAXAXAXAXAXAXAXAXAXAXAXAXAXAXAXAXAXAXAXAXAXAXAXAXAXAXAXAXAXAXAXAXAXAXAXAXAXAXAXAXAXAXAXAXAXAXAXAXAXAXAXAXAXZX.X",
"$XAXAXU.# # # # O Q AXAXAXAXAXAXAXAXAXAXAXAXAXAXAXAXAXAXAXAXAXAXAXAXAXAXAXAXAXAXAXAXAXAXAXAXAXAXAXAXAXAXAXAXAXAXAXAXAXAXAXAXAXAXAXAXAXAX$X",
"$XAXAXAXAXAXAXCXm T.AXAXAXAXAXAXAXAXAXAXAX&X0.X.6.OXAXAXAXAXAXAXAXAXAXAXAXAXAXAXAXAXNXA. .^ 1.=XAXAXAXAXAXAXAXAXAXAXAXAXAXAXAXAXAXAXAXAX$X",
"$XAXAXAXAXAXAXl.R AXAXAXAXAXAXAXAXAXAXCX#..         ] NXAXAXAXAXAXAXAXAXAXAXAXAXAXuXk         X 9.AXAXAXAXAXAXAXAXAXAXAXAXAXAXAXAXAXAXAX$X",
"$XAXAXAXAXAXgX2 8XAXAXAXAXAXAXAXAXAXAXi.              2.AXAXAXAXAXAXAXAXAXAXAXAXAXA               K.AXAXAXAXAXAXAXAXAXAXAXAXAXAXAXAXAXAX$X",
"$XAXAXAXAXAX7.X.AXAXAXAXAXAXAXAXAXAXZX3               % mXAXAXAXAXAXAXAXAXAXAXAX;X                B AXAXAXAXAXAXAXAXAXAXAXAXAXAXAXAXAXAX$X",
"$XAXAXAXAXNX, &XAXAXAXAXAXAXAXAXAXAXeX                  -XAXAXAXAXAXAXAXAXAXAXAXS.                - AXAXAXAXAXAXAXAXAXAXAXAXAXAXAXAXAXAX$X",
"$XAXAXAXAX`.q AXAXAXAXAXAXAXAXAXAXAXkXX                 qXAXAXAXAXAXAXAXAXAXAXAX/.                t AXAXAXAXAXAXAXAXAXAXAXAXAXAXAXAXAXAX$X",
"$XAXAXAXAX0.R AXAXAXAXAXAXAXAXAXAXAXAXA               k AXAXAXAXAXAXAXAXAXAXAXAXvX3               >.AXAXAXAXAXAXAXAXAXAXAXAXAXAXAXAXAXAX$X",
"$XAXAXAXAX..O.AXAXAXAXAXAXAXAXAXAXAXAX+X.             ^.AXAXAXAXAXAXAXAXAXAXAXAXAXc.            1 gXAXAXAXAXAXAXAXAXAXAXAXAXAXAXAXAXAXAX$X",
"$XAXAXAXAXAXAXAXAXAXAXAXAXAXAXAX`.>.X.r.`           R i.X.;.~.ZXAXAXAXAXAXxXz.) ~ 9.N         + =.O.! #.].AXAXAXAXAXAXAXAXAXAXAXAXAXAXAX$X",
"$XAXAXAXAXAXyX%XmXAXAXAXAXAXvXP         + O       X #         A kXAXAXAX:X8         +         +           ` BXAXAXAXAXAXAXAXAXAXAXAXAXAX$X",
"$XAXAXAXZX|     4  XAXAXAXAX{                                   R AXAXMXe                                   w.AXAXAXAXAXAXAXAXAXAXAXAXAX$X",
"$XAXAXAXU.        p AXAXAXaXO                                   . 7XAXL.                                    3 AXAXAXAXAXAXAXAXAXAXAXAXAX$X",
"$XAXAXAXf.        # VXAXAX{.                                      Y.AXq.                                      sXAXAXAXAXAXAXAXAXAXAXAXAX$X",
"$XAXAXAX-X.       L AXAXAX|.                o   o                 R.AXi.                + X o               . kXAXAXAXAXAXAXAXAXAXAXAXAX$X",
"$XAXgXf.7.A     * -.4.(.AXbX,               X.  X.              & hXAX;X.             O &.* X.              C AXAXAXAXAXAXAXAXAXAXAXAXAX$X",
"$XsXq                   q.AXc.            C %X  '.I             y.AXAXAXX.            u.h.  fXd           # #XAXAXAXAXAXAXAXAXAXAXAXAXAX$X",
"$Xd.                    & VXAXh.&     X _ zXU.  B.bXX.o     # e.ZXAXAXAXBX,.@     1 v.AX$.  1XsXW X     y ].AXAXAXAXAXAXAXAXAXAXAXAXAXAX$X",
"$Xt.        # @         + mXAXAXkX!.U.9XAXAX+.  ) AXAXrXY.W.gXAXAXAXAXAXAXAXjX}.OXnXAXAXp   h.AXAXtX].=XCXAXAXAXAXAXAXAXAXAXAXAXAXAXAXAX$X",
"$X7X%     . 7.K b       ' AXAXAXAXAXAXAXAXfX>   % tXAXAXAXAXAXAXAXAXAXAXAXAXAXAXAXAXAX!.    p NXAXAXAXAXAXAXAXAXAXAXAXAXAXAXAXAXAXAXAXAX$X",
"$XAX$X( J E.I.p zX&.D q.mXAXAXAXAXAXAXAXCXQ       J BXAXAXAXAXkXp.Y H O.oXAXAXAXAXAXiXe       =.AXAXAXAXAXAXAXAXAXAXAXAXAXAXAXAXAXAXAXAX$X",
"$XAXAXAXAXAXR   @XAXAXAXAXAXAXAXAXAXAXAXCXhXhXhXhXhXVXAXAXAX,X8         . 7.AXAXAXAXAXAXAXAXAXAXAXAXAXAXAXAXAXAXAXAXAXAXAXAXAXAXAXAXAXAX$X",
"$XAXAXAXAXgXn.n.^.AXAXAXAXAXAXAXAXAXAXAXAXAXAXAXAXAXAXAXAXNXa               R.AXAXAXAXAXAXAXAXAXAXAXAXAXAXAXAXAXAXAXAXAXAXAXAXAXAXAXAXAX$X",
"$XAXAXAXAXAXAXAXAXAXAXAXAXAXAXAXAXAXAXAXAXAXAXAXAXAXAXAXAX).                K AXAXAXAXAXAXAXAXAXAXAXAXAXAXAXAXAXAXAXAXAXAXAXAXAXAXAXAXAX$X",
"$XAXAXAXAXAXAXAXAXAXAXAXAXAXAXAXAXAXAXAXAXAXAXAXAXAXAXAXAXj.                w AXAXAXAXAXAXAXAXAXAXAXAXAXAXAXAXAXAXAXAXAXAXAXAXAXAXAXAXAX$X",
"$XAXAXAXAXAXAXAXAXAXAXAXAXAXAXAXAXAXAXAXAXAXAXAXAXAXAXAXAXK.                m AXAXAXAXAXAXAXAXAXAXAXAXAXAXAXAXAXAXAXAXAXAXAXAXAXAXAXAXAX$X",
"$XAXAXAXAXAXAXAXAXAXAXAXAXAXAXAXAXAXAXAXAXAXAXAXAXAXAXAXAXkX,               g.AXAXAXAXAXAXAXAXAXAXAXAXAXAXAXAXAXAXAXAXAXAXAXAXAXAXAXAXAX$X",
"$XAXAXAXAXAXAXAXAXAXAXAXAXAXAXAXAXAXAXAXAXAXAXAXAXAXAXAXAXAXh.            u mXAXAXAXAXAXAXAXAXAXAXAXAXAXAXAXAXAXAXAXAXAXAXAXAXAXAXAXAXAX$X",
"$XAXAXAXAXAXAXAXAXAXAXAXAXAXAXAXAXAXAXAXAXAXAXAXAXAXyX5.J H -.x         * &.E F ` W.AXAXAXAXAXAXAXAXAXAXAXAXAXAXAXAXAXAXAXAXAXAXAXAXAXAX$X",
"$XAXAXAXAXAXAXAXAXAXAXAXAXAXAXAXAXAXAXAXAXAXAXAXAX(.*         o         o           / BXAXAXAXAXAXAXAXAXAXAXAXAXAXAXAXAXAXAXAXAXAXAXAXAX$X",
"$XAXAXAXAXAXAXAXAXAXAXAXAXAXAXAXAXAXAXAXAXAXAXAXgX;                                   p.AXAXAXAXAXAXAXAXAXAXAXAXAXAXAXAXAXAXAXAXAXAXAXAX$X",
"$XAXAXAXAXAXAXAXAXAXAXAXAXAXAXAXAXAXAXAXAXAXAXAXz.                                    t AXAXAXAXAXAXAXAXAXAXAXAXAXAXAXAXAXAXAXAXAXAXAXAX$X",
"$XAXAXAXAXAXAXAXAXAXAXAXAXAXAXAXAXAXAXAXAXAXAXAX&.                                    X mXAXAXAXAXAXAXAXAXAXAXAXAXAXAXAXAXAXAXAXAXAXAXAX$X",
"$XAXAXAXAXAXAXAXAXAXAXAXAXAXAXAXAXAXAXAXAXAXAXAX3.                $ # .               & CXAXAXAXAXAXAXAXAXAXAXAXAXAXAXAXAXAXAXAXAXAXAXAX$X",
"$XAXAXAXAXAXAXAXAXAXAXAXAXAXAXAXAXAXAXAXAXAXAXAX+X              - *.q {               ^ AXAXAXAXAXAXAXAXAXAXAXAXAXAXAXAXAXAXAXAXAXAXAXAX$X",
"$XAXAXAXAXAXAXAXAXAXAXAXAXAXAXAXAXAXAXAXAXAXAXAXAX .          X G.7.* kXd           < 0XAXAXAXAXAXAXAXAXAXAXAXAXAXAXAXAXAXAXAXAXAXAXAXAX$X",
"$XAXAXAXAXAXAXAXAXAXAXAXAXAXAXAXAXAXAXAXAXAXAXAXAXVX6.=     p ~.AX~   tXfX` O     C <XAXAXAXAXAXAXAXAXAXAXAXAXAXAXAXAXAXAXAXAXAXAXAXAXAX$X",
"$XAXAXAXAXAXAXAXAXAXAXAXAXAXAXAXAXAXAXAXAXAXAXAXAXAXAXbX:X8XZXAXNX<   M.AXAXjX=XyXAXAXAXAXAXAXAXAXAXAXAXAXAXAXAXAXAXAXAXAXAXAXAXAXAXAXAX$X",
"$XAXAXAXAXAXAXAXAXAXAXAXAXAXAXAXAXAXAXAXAXVX$XW.+XBXAXAXAXAXAXAXb.    s BXAXAXAXAXAXAXsXY.V.}.VXAXAXAXAXAXAXAXAXAXAXAXAXAXAXAXAXAXAXAXAX$X",
"$XAXAXAXAXAXAXAXAXAXAXAXAXAXAXAXAXAXAXAXW.q       5 H.AXAXAXAX8Xr , , , w.AXAXAXAXVX,.O       r }.AXAXAXAXAXAXAXAXAXAXAXAXAXAXAXAXAXAXAX$X",
"$XAXAXAXAXAXAXAXAXAXAXAXAXAXAXAXAXAXAX/.o           . K.AXAXAXAXAXAXAXAXAXAXAXAXAX-.            % >XAXAXAXAXAXAXAXAXAXAXAXAXAXAXAXAXAXAX$X",
"$XAXAXAXAXAXAXAXAXAXAXAXAXAXAXAXAXAXAXg               q ZXAXAXAXAXAXAXAXAXAXAXAXtXO               W AXAXAXAXAXAXAXAXAXAXAXAXAXAXAXAXAXAX$X",
"$XAXAXAXAXAXAXAXAXAXAXAXAXAXAXAXAXAXfX                  5XAXAXAXAXAXAXAXAXAXAXAXP.                3 AXAXAXAXAXAXAXAXAXAXAXAXAXAXAXAXAXAX$X",
"$XAXAXAXAXAXAXAXAXAXAXAXAXAXAXAXAXAXuX                  ,XAXAXAXAXAXAXAXAXAXAXAXL.                3 AXAXAXAXAXAXAXAXAXAXAXAXAXAXAXAXAXAX$X",
"$XAXAXAXAXAXAXAXAXAXAXAXAXAXAXAXAXAXAXt               2 BXAXAXAXAXAXAXAXAXAXAXAXiXO               ! AXAXAXAXAXAXAXAXAXAXAXAXAXAXAXAXAXAX$X",
"$XAXAXAXAXAXAXAXAXAXAXAXAXAXAXAXAXAXAXB.              d.AXAXAXAXAXAXAXAXAXAXAXAXAX$.            o :XAXAXAXAXAXAXAXAXAXAXAXAXAXAXAXAXAXAX$X",
"$XAXAXAXAXAXAXAXAXAXAXAXAXAXAXAXnX'.K.&XD           n &XK.).vXAXAXAXAXAXAXAX9XC.N._.i           -.E.n.!.cXAXAXAXAXAXAXAXAXAXAXAXAXAXAXAX$X",
"$XAXAXAXAXAXAXAXAXAXAXAXAXAXAXx.,       w O       X e       - a.AXAXAXAXxX( .       8         & >       2 D.AXAXAXAXAXAXAXAXAXAXAXAXAXAX$X",
"$XAXAXAXAXAXAXAXAXAXAXAXAXAXl.                                  r.AXAXAXL                                 X R.AXAXAXAXAXAXAXAXAXAXAXAXAX$X",
"$XAXAXAXAXAXAXAXAXAXAXAXAXvX<                                   & fXAX X                                    h AXAXAXAXAXAXAXAXAXAXAXAXAX$X",
"$XAXAXAXAXAXAXAXAXAXAXAXAX#X                                      ).AXa.                                    . xXAXAXAXAXAXAXAXAXAXAXAXAX$X",
"$XAXAXAXAXAXAXAXAXAXAXAXAX).                                      J.AX8.                                      iXAXAXAXAXAXAXAXAXAXAXAXAX$X",
"$XAXAXAXAXAXAXAXAXAXAXAXAXaXo               B   B               . 6XAX!.                G = M               r AXAXAXAXAXAXAXAXAXAXAXAXAX$X",
"$XAXAXAXAXAXAXAXAXAXAXAXAXAX..            4 [.  !.e             ! AXAXCXv             I x.X ,X&             B.AXAXAXAXAXAXAXAXAXAXAXAXAX$X",
"$XAXAXAXAXAXAXAXAXAXAXAXAXAXcXH         q *X`.  K.2Xi         B hXAXAXAXrXj         U xX5.  tX[.4       X 5.AXAXAXAXAXAXAXAXAXAXAXAXAXAX$X",
"$XAXAXAXAXAXAXAXAXAXAXAXAXAXAXZXT.@.} x.lXAXq.  ;.AXvXm...o.J.VXAXAXAXAXAXNXK.:.5.'.ZXAXZ   J.AXkXm.*.e.>XAXAXAXAXAXAXAXAXAXAXAXAXAXAXAX$X",
"$XAXAXAXAXAXAXAXAXAXAXAXAXAXAXAXAXAXAXAXAXVXp   9 nXAXAXAXAXAXAXAXAXAXAXAXAXAXAXAXAXAX5XX   J AXAXAXAXAXAXAXAXAXAXAXAXAXAXAXAXAXAXAXAXAX$X",
"$XAXAXAXAXAXAXAXAXAXAXAXAXAXAXAXAXAXAXAXAXd.      7.AXAXAXAXAXAXAXAXAXAXAXAXAXAXAXAXVXH       P.AXAXAXAXAXAXAXAXAXAXAXAXAXAXAXAXAXAXAXAX$X",
"$XAXAXAXAXAXAXAXAXAXAXAXAXAXAXAXAXAXAXAXVXI.K.K.K.L.MXAXAXAXAXAXAXAXAXAXAXAXAXAXAXAXgX_._._._.XXAXAXAXAXAXAXAXAXAXAXAXAXAXAXAXAXAXAXAXAX$X",
"$XAXAXAXAXAXAXAXAXAXAXAXAXAXAXAXAXAXAXAXAXAXAXAXAXAXAXAXAXAXAXAXAXAXAXAXAXAXAXAXAXAXAXAXAXAXAXAXAXAXAXAXAXAXAXAXAXAXAXAXAXAXAXAXAXAXAXAX$X",
"$XAXAXAXAXAXAXAXAXAXAXAXAXAXAXAXAXAXAXAXAXAXAXAXAXAXAXAXAXAXAXAXAXAXAXAXAXAXAXAXAXAXAXAXAXAXAXAXAXAXAXAXAXAXAXAXAXAXAXAXAXAXAXAXAXAXAXAX$X",
"$XAXAXAXAXAXAXAXAXAXAXAXAXAXAXAXAXAXAXAXAXAXAXAXAXAXAXAXAXAXAXAXAXAXAXAXAXAXAXAXAXAXAXAXAXAXAXAXAXAXAXAXAXAXAXAXAXAXAXAXAXAXAXAXAXAXAXAX$X",
"$XAXAXAXAXAXAXAXAXAXAXAXAXAXAXAXAXAXAXAXAXAXAXAXAXAXAXAXAXAXAXAXAXAXAXAXAXAXAXAXAXAXAXAXAXAXAXAXAXAXAXAXAXAXAXAXAXAXAXAXAXAXAXAXAXAXAXAX$X",
"$XAXAXAXAXAXAXAXAXAXAXAXAXAXAXAXAXAXAXAXAXAXAXAXAXAXAXAXAXAXAXAXAXAXAXAXAXAXAXAXAXAXAXAXAXAXAXAXAXAXAXAXAXAXAXAXAXAXAXAXAXAXAXAXAXAXAXAX$X",
"$XAXAXAXAXAXAXAXAXAXAXAXAXAXAXAXAXAXAXAXAXAXAXAXAXAXAXAXAXAXAXAXAXAXAXAXAXAXAXAXAXAXAXAXAXAXAXAXAXAXAXAXAXAXAXAXAXAXAXAXAXAXAXAXAXAXAXAX$X",
"$XAXAXAXAXAXAXAXAXAXAXAXAXAXAXAXAXAXAXAXAXAXAXAXAXAXAXAXAXAXAXAXAXAXAXAXAXAXAXAXAXAXAXAXAXAXAXAXAXAXAXAXAXAXAXAXAXAXAXAXAXAXAXAXAXAXAXAX$X",
"$XAXAXAXAXAXAXAXAXAXAXAXAXAXAXAXAXAXAXAXAXAXAXAXAXAXAXAXAXAXAXAXAXAXAXAXAXAXAXAXAXAXAXAXAXAXAXAXAXAXAXAXAXAXAXAXAXAXAXAXAXAXAXAXAXAXAXAX$X",
"$XAXAXAXAXAXAXAXAXAXAXAXAXAXAXAXAXAXAXAXAXAXAXAXAXAXAXAXAXAXAXAXAXAXAXAXAXAXAXAXAXAXAXAXAXAXAXAXAXAXAXAXAXAXAXAXAXAXAXAXAXAXAXAXAXAXAXAX$X",
"$XAXAXAXAXAXAXAXAXAXAXAXAXAXAXAXAXAXAXAXAXAXAXAXAXAXAXAXAXAXAXAXAXAXAXAXAXAXAXAXAXAXAXAXAXAXAXAXAXAXAXAXAXAXAXAXAXAXAXAXAXAXAXAXAXAXAXAX$X",
"$XAXAXAXAXAXAXAXAXAXAXAXAXAXAXAXAXAXAXAXAXAXAXAXAXAXAXAXAXAXAXAXAXAXAXAXAXAXAXAXAXAXAXAXAXAXAXAXAXAXAXAXAXAXAXAXAXAXAXAXAXAXAXAXAXAXAXAX$X",
"$XAXAXAXAXAXAXAXAXAXAXAXAXAXAXAXAXAXAXAXAXAXAXAXAXAXAXAXAXAXAXAXAXAXAXAXAXAXAXAXAXAXAXAXAXAXAXAXAXAXAXAXAXAXAXAXAXAXAXAXAXAXAXAXAXAXAXAX$X",
"$XAXAXAXAXAXAXAXAXAXAXAXAXAXAXAXAXAXAXAXAXAXAXAXAXAXAXAXAXAXAXAXAXAXAXAXAXAXAXAXAXAXAXAXAXAXAXAXAXAXAXAXAXAXAXAXAXAXAXAXAXAXAXAXAXAXAXAX$X",
"$XAXAXAXAXAXAXAXAXAXAXAXAXAXAXAXAXAXAXAXAXAXAXAXAXAXAXAXAXAXAXAXAXAXAXAXAXAXAXAXAXAXAXAXAXAXAXAXAXAXAXAXAXAXAXAXAXAXAXAXAXAXAXAXAXAXAXAX$X",
"$XAXAXAXAXAXAXAXAXAXAXAXAXAXAXAXAXAXAXAXAXAXAXAXAXAXAXAXAXAXAXAXAXAXAXAXAXAXAXAXAXAXAXAXAXAXAXAXAXAXAXAXAXAXAXAXAXAXAXAXQ.i.i.dXAXAXAXAX$X",
"$XAXAXAXAXAXAXAXAXAXAXAXAXAXAXAXAXAXAXAXCX'._._._._.nXAXAXAXAXAXAXAXAXAXAXAXAXAXAXAXgXK.K.K.K.^.AXAXAXAXAXAXAXAXAXAXAXAX4XX Q AXAXAXAXAX$X",
"$XAXAXAXAXAXAXAXAXAXAXAXAXAXAXAXAXAXAXAXAXt.      #.AXAXAXAXAXAXAXAXAXAXAXAXAXAXAXAXZX~       !.AXAXAXAXAXAXAXAXxX*.l ~ iXc L.S.c S ~.AX$X",
"$XAXAXAXAXAXAXAXAXAXAXAXAXAXAXAXAXAXAXAXAXNXu   1 zXAXAXAXAXAXAXAXAXAXAXAXAXAXAXAXAXAXtX+   I AXAXAXAXAXAXAXAXAX/       u P %.      o &X$X",
"$XAXAXAXAXAXAXAXAXAXAXAXAXAXAXAX.X8.>.D.mXAX0.  O.AXBXU.2.4.(.ZXAXAXAXAXAXbXm. .@.J.BXAXL   K.AXpXp.[ -.}.AXAXBX@         O O         4.$X",
"$XAXAXAXAXAXAXAXAXAXAXAXAXAXMX)         a 1X`.  Z.rXx         K zXAXAXAX8Xu         M dXe.  rX!.:         ..CXAX2                     a.$X",
"$XAXAXAXAXAXAXAXAXAXAXAXAXAX>.            0 oX  !.g             _ AXAXVXk             V m.. &X$             d.AXn.X     .     .     p gX$X",
"$XAXAXAXAXAXAXAXAXAXAXAXAXkX#               G   G               . 7XAXQ.                B $ c               5 CXAX;Xf.w.=     N k.Z.cXAX$X",
"$XAXAXAXAXAXAXAXAXAXAXAXAX{.                                      D.AXw.                                      wXAXAXAXL         }.AXAXAX$X",
"$XAXAXAXAXAXAXAXAXAXAXAXAX&X                                      E.AXk.                                      zXAXAXAX=         e.AXAXAX$X",
"$XAXAXAXAXAXAXAXAXAXAXAXAXvX>                                   @ yXAX=X.                                   z AXAXAXAXn         Y.AXAXAX$X",
"$XAXAXAXAXAXAXAXAXAXAXAXAXAXa.                                  ;.AXAXAX`                                 O (.AXAXAXAX,Xp   X ;.AXAXAXAX$X",
"$XAXAXAXAXAXAXAXAXAXAXAXAXAXAXu.&       3 O       X 6       + <.CXAXAXAXNX=.+       t .       % 7       w Q.AXAXAXAXAXAXCX4XfXAXAXAXAXAX$X",
"$XAXAXAXAXAXAXAXAXAXAXAXAXAXAXAXgXI.n._.T           V ].n.H.iXAXAXAXAXAXAXAXhXQ.I.@Xr           o.XXK.OXBXAXAXAXAXAXAXAXAXAXo.X.AXAXAXAX$X",
"$XAXAXAXAXAXAXAXAXAXAXAXAXAXAXAXAXAXAXP.              k.AXAXAXAXAXAXAXAXAXAXAXAXAX..              |.AXAXAXAXAXAXAXAXAXAXAXAXY w.AXAXAXAX$X",
"$XAXAXAXAXAXAXAXAXAXAXAXAXAXAXAXAXAXAXh               4 VXAXAXAXAXAXAXAXAXAXAXAXyXo               L AXAXAXAXAXAXAXAXAXAXAXAX8 {.AXAXAXAX$X",
"$XAXAXAXAXAXAXAXAXAXAXAXAXAXAXAXAXAXgX                  :XAXAXAXAXAXAXAXAXAXAXAXI.                ; AXAXAXAXAXAXAXAXAXAXAX$X2 BXAXAXAXAX$X",
"$XAXAXAXAXAXAXAXAXAXAXAXAXAXAXAXAXAXgX.                 :XAXAXAXAXAXAXAXAXAXAXAXW.                2 AXAXAXAXAXAXAXAXAXAXAX .q.AXAXAXAXAX$X",
"$XAXAXAXAXAXAXAXAXAXAXAXAXAXAXAXAXAXAXf               2 VXAXAXAXAXAXAXAXAXAXAXAXdX$               ! AXAXAXAXAXAXAXAXAXAX7X2 hXAXAXAXAXAX$X",
"$XAXAXAXAXAXAXAXAXAXAXAXAXAXAXAXAXAXAXE..             m.AXAXAXAXAXAXAXAXAXAXAXAXAXr.            - 3XAXAXAXAXAXAXAXAXAXAXR x.AXAXAXAXAXAX$X",
"$XAXAXAXAXAXAXAXAXAXAXAXAXAXAXAXAXAXAXAXF.<       * l.AXAXAXAXAXAXAXAXAXAXAXAXAXAXAXs.-       h $XAXAXAXAXAXAXAXAXAXAXT.m CXAXAXAXAXAXAX$X",
"$XAXAXAXAXAXAXAXAXAXAXAXAXAXAXAXAXAXAXAXAXbX/.B.Q.zXAXAXAXAXAXAXAXAXAXAXAXAXAXAXAXAXAXbX|.R.:XAXAXAXAXAXAXAXAXAXAXAXAXQ O # # # # U.AXAX$X",
"$XAXAXAXAXAXAXAXAXAXAXAXAXAXAXAXAXAXAXAXAXAXAXAXAXAXAXAXAXAXAXAXAXAXAXAXAXAXAXAXAXAXAXAXAXAXAXAXAXAXAXAXAXAXAXAXAXAXAXAXAXAXAXAXAXAXAXAX$X",
" XZXAXAXAXAXAXAXAXAXAXAXAXAXAXAXAXAXAXAXAXAXAXAXAXAXAXAXAXAXAXAXAXAXAXAXAXAXAXAXAXAXAXAXAXAXAXAXAXAXAXAXAXAXAXAXAXAXAXAXAXAXAXAXAXAXAXZX.X",
"NX|.$X%X%X%X%X%X%X%X%X%X%X%X%X%X%X%X%X%X%X%X%X%X%X%X%X%X%X%X%X%X%X%X%X%X%X%X%X%X%X%X%X%X%X%X%X%X%X%X%X%X%X%X%X%X%X%X%X%X%X%X%X%X%X%X$X|.NX"
};
