/* XPM */
static const char *seven_diamonds[] = {
/* columns rows colors chars-per-pixel */
"69 100 237 2 ",
"   c #DF0000",
".  c #DF0101",
"X  c #DF0202",
"o  c #DF0303",
"O  c #DF0404",
"+  c #E00404",
"@  c #E00505",
"#  c #E00606",
"$  c #E00707",
"%  c #E00808",
"&  c #E00909",
"*  c #E00A0A",
"=  c #E00B0B",
"-  c #E10C0C",
";  c #E10D0D",
":  c #E10E0E",
">  c #E10F0F",
",  c #E11010",
"<  c #E11111",
"1  c #E11212",
"2  c #E11313",
"3  c #E21414",
"4  c #E21515",
"5  c #E21616",
"6  c #E21717",
"7  c #E21919",
"8  c #E21A1A",
"9  c #E21B1B",
"0  c #E31D1D",
"q  c #E31E1E",
"w  c #E31F1F",
"e  c #E32020",
"r  c #E32121",
"t  c #E42424",
"y  c #E42525",
"u  c #E42626",
"i  c #E42727",
"p  c #E42828",
"a  c #E42929",
"s  c #E42A2A",
"d  c #E42B2B",
"f  c #E52C2C",
"g  c #E52D2D",
"h  c #E52E2E",
"j  c #E52F2F",
"k  c #E53030",
"l  c #E53232",
"z  c #E53333",
"x  c #E63434",
"c  c #E63535",
"v  c #E63636",
"b  c #E63737",
"n  c #E63838",
"m  c #E63939",
"M  c #E63A3A",
"N  c #E63B3B",
"B  c #E73C3C",
"V  c #E73E3E",
"C  c #E73F3F",
"Z  c #E74040",
"A  c #E74242",
"S  c #E74343",
"D  c #E84444",
"F  c #E84646",
"G  c #E84848",
"H  c #E84B4B",
"J  c #E94C4C",
"K  c #E94D4D",
"L  c #E94E4E",
"P  c #E94F4F",
"I  c #E95050",
"U  c #E95151",
"Y  c #E95252",
"T  c #EA5454",
"R  c #EA5555",
"E  c #EA5656",
"W  c #EA5757",
"Q  c #EA5858",
"!  c #EA5959",
"~  c #EA5B5B",
"^  c #EB5D5D",
"/  c #EB5E5E",
"(  c #EB6060",
")  c #EB6161",
"_  c #EB6262",
"`  c #EB6363",
"'  c #EC6464",
"]  c #EC6565",
"[  c #EC6666",
"{  c #EC6767",
"}  c #EC6868",
"|  c #EC6A6A",
" . c #EC6B6B",
".. c #ED6C6C",
"X. c #ED6E6E",
"o. c #ED6F6F",
"O. c #ED7070",
"+. c #ED7171",
"@. c #ED7272",
"#. c #ED7373",
"$. c #EE7474",
"%. c #EE7575",
"&. c #EE7676",
"*. c #EE7777",
"=. c #EE7878",
"-. c #EE7979",
";. c #EE7A7A",
":. c #EF7C7C",
">. c #EF7D7D",
",. c #EF7E7E",
"<. c #EF7F7F",
"1. c #EF8080",
"2. c #EF8181",
"3. c #EF8282",
"4. c #F08484",
"5. c #F08686",
"6. c #F08787",
"7. c #F08888",
"8. c #F08989",
"9. c #F08A8A",
"0. c #F08B8B",
"q. c #F18C8C",
"w. c #F18D8D",
"e. c #F19090",
"r. c #F19191",
"t. c #F19292",
"y. c #F19393",
"u. c #F29494",
"i. c #F29595",
"p. c #F29696",
"a. c #F29797",
"s. c #F29898",
"d. c #F29999",
"f. c #F29B9B",
"g. c #F39C9C",
"h. c #F39D9D",
"j. c #F39E9E",
"k. c #F3A0A0",
"l. c #F3A1A1",
"z. c #F3A2A2",
"x. c #F3A3A3",
"c. c #F4A4A4",
"v. c #F4A5A5",
"b. c #F4A6A6",
"n. c #F4A7A7",
"m. c #F4A8A8",
"M. c #F4A9A9",
"N. c #F4AAAA",
"B. c #F4ABAB",
"V. c #F5ACAC",
"C. c #F5ADAD",
"Z. c #F5AEAE",
"A. c #F5AFAF",
"S. c #F5B0B0",
"D. c #F5B1B1",
"F. c #F5B2B2",
"G. c #F5B3B3",
"H. c #F6B4B4",
"J. c #F6B5B5",
"K. c #F6B6B6",
"L. c #F6B7B7",
"P. c #F6B8B8",
"I. c #F6B9B9",
"U. c #F6BABA",
"Y. c #F6BBBB",
"T. c #F7BCBC",
"R. c #F7BDBD",
"E. c #F7BEBE",
"W. c #F7BFBF",
"Q. c gray76",
"!. c #C3C3C3",
"~. c gray77",
"^. c #CBCBCB",
"/. c gray80",
"(. c #F7C0C0",
"). c #F7C1C1",
"_. c #F7C2C2",
"`. c #F7C3C3",
"'. c #F8C5C5",
"]. c #F8C7C7",
"[. c #F8C8C8",
"{. c #F8C9C9",
"}. c #F8CACA",
"|. c #F8CBCB",
" X c #F9CCCC",
".X c #F9CDCD",
"XX c #F9CECE",
"oX c #F9CFCF",
"OX c #F9D0D0",
"+X c #F9D1D1",
"@X c #F9D2D2",
"#X c #F9D3D3",
"$X c #FAD4D4",
"%X c #FAD5D5",
"&X c #FAD6D6",
"*X c #FAD7D7",
"=X c #FAD8D8",
"-X c #FAD9D9",
";X c #FADADA",
":X c #FADBDB",
">X c #FBDCDC",
",X c #FBDDDD",
"<X c #FBDEDE",
"1X c #FBE0E0",
"2X c #FBE1E1",
"3X c #FBE2E2",
"4X c #FBE3E3",
"5X c #FCE4E4",
"6X c #FCE5E5",
"7X c #FCE6E6",
"8X c #FCE7E7",
"9X c #FCE8E8",
"0X c #FCE9E9",
"qX c #FCEAEA",
"wX c #FCEBEB",
"eX c #FDECEC",
"rX c #FDEDED",
"tX c #FDEEEE",
"yX c #FDEFEF",
"uX c #FDF0F0",
"iX c #FDF1F1",
"pX c #FDF2F2",
"aX c #FDF3F3",
"sX c #FEF4F4",
"dX c #FEF5F5",
"fX c #FEF6F6",
"gX c #FEF7F7",
"hX c gray98",
"jX c #FEF8F8",
"kX c #FEF9F9",
"lX c #FEFAFA",
"zX c #FEFBFB",
"xX c #FFFCFC",
"cX c #FFFDFD",
"vX c #FEFEFE",
"bX c #FFFEFE",
"nX c white",
/* pixels */
"hXQ.^./././././././././././././././././././././././././././././././././././././././././././././././././././././././././././././././.^.Q.hX",
"!.vXnXnXnXnXnXnXnXnXnXnXnXnXnXnXnXnXnXnXnXnXnXnXnXnXnXnXnXnXnXnXnXnXnXnXnXnXnXnXnXnXnXnXnXnXnXnXnXnXnXnXnXnXnXnXnXnXnXnXnXnXnXnXnXnXnXvX~.",
"^.nXnXZ.$ $ $ $ + T nXnXnXnXnXnXnXnXnXnXnXnXnXnXnXnXnXnXnXnXnXnXnXnXnXnXnXnXnXnXnXnXnXnXnXnXnXnXnXnXnXnXnXnXnXnXnXnXnXnXnXnXnXnXnXnXnXnX^.",
"^.nXnXnXnXnXnXcXn S.nXnXnXnXnXnXnXnXnXnXnXnXnXnXnXnXnXnXnXnXnXnXnXnXnXnXnXnXnXnXnXnXnXnXnXnXnXnXnXnXnXnXnXnXnXnXnXnXnXnXnXnXnXnXnXnXnXnX^.",
"^.nXnXnXnXnXnXy.I nXnXnXnXnXnXnXnXnXnXnXnXnXnXnXnXnXnXnXnXnXnXnXnXnXnXnXnXnXnXnXnXnXnXnXnXnXnXnXnXnXnXnXnXnXnXnXnXnXnXnXnXnXnXnXnXnXnXnX^.",
"^.nXnXnXnXnXrX3 ,XnXnXnXnXnXnXnXnXnXnXnXnXnXnXnXnXnXnXnXnXnXnXnXnXnXnXnXnXnXnXnXnXnXnXnXnXnXnXnXnXnXnXnXnXnXnXnXnXnXnXnXnXnXnXnXnXnXnXnX^.",
"^.nXnXnXnXnX>.[ nXnXnXnXnXnXnXnXnXnXnXnXnXnXnXnXnXnXnXnXnXnXnXnXnXnXnXnXnXnXnXnXnXnXnXnXnXnXnXnXnXnXnXnXnXnXnXnXnXnXnXnXnXnXnXnXnXnXnXnX^.",
"^.nXnXnXnXlX< .XnXnXnXnXnXnXnXnXnXnXnXnXnXnXnXnXnXnXnXnXnXnXnXnXnXnXnXnXnXnXnXnXnXnXnXnXnXnXnXnXnXnXnXnXnXnXnXnXnXnXnXnXnXnXnXnXnXnXnXnX^.",
"^.nXnXnXnXT.0 nXnXnXnXnXnXnXnXnXnXnXnXnXnXnXnXnXnXnXnXnXnXnXnXnXnXnXnXnXnXnXnXnXnXnXnXnXnXnXnXnXnXnXnXnXnXnXnXnXnXnXnXnXnXnXnXnXnXnXnXnX^.",
"^.nXnXnXnX1.I nXnXnXnXnXnXnXnXnXnXnXnXnXnXnXn.nXnXnXnXnXnXnXnXnXnXnXnXnXnXnXnXnXnXnXnXnXnX6XK.nXnXnXnXnXnXnXnXnXnXnXnXnXnXnXnXnXnXnXnXnX^.",
"^.nXnXnXnX' } nXnXnXnXnXnXnXnXnXnXnXnXnXnX-X@ >XnXnXnXnXnXnXnXnXnXnXnXnXnXnXnXnXnXnXnXnXnX&.N nXnXnXnXnXnXnXnXnXnXnXnXnXnXnXnXnXnXnXnXnX^.",
"^.nXnXnXnXnXnXxXnXnXnXnXnXnXnXnXnXnXnXnXnX^   _ nXnXnXnXnXnXnXnXnXnXnXnXnXnXnXnXnXnXnXnX0X:   U.nXnXnXnXnXnXnXnXnXnXnXnXnXnXnXnXnXnXnXnX^.",
"^.nXnXnXnXnX(.c.nXnXnXnXnXnXnXnXnXnXnXnXOXX   X oXnXnXnXnXnXnXnXnXnXnXnXnXnXnXnXnXnXnXnX}     j cXnXnXnXnXnXnXnXnXnXnXnXnXnXnXnXnXnXnXnX^.",
"^.nXnXnXnXcXm w dXnXnXnXnXnXnXnXnXnXnXxXm       V cXnXnXnXnXnXnXnXnXnXnXnXnXnXnXnXnXnXXXO       y.nXnXnXnXnXnXnXnXnXnXnXnXnXnXnXnXnXnXnX^.",
"^.nXnXnXnXs.    >.nXnXnXnXnXnXnXnXnXnXq.          t.nXnXnXnXnXnXnXnXnXnXnXnXnXnXnXnXkXf         * :XnXnXnXnXnXnXnXnXnXnXnXnXnXnXnXnXnXnX^.",
"^.nXnXnX<X1     $ .XnXnXnXnXnXnXnXnXoX*           = @XnXnXnXnXnXnXnXnXnXnXnXnXnXnXnXX.            M jXnXnXnXnXnXnXnXnXnXnXnXnXnXnXnXnXnX^.",
"^.nXnXeXd         9 1XnXnXnXnXnXnX7X0               w 9XnXnXnXnXnXnXnXnXnXnXnXnXnXg.                W bXnXnXnXnXnXnXnXnXnXnXnXnXnXnXnXnX^.",
"^.nX2Xf             q $XnXnXnXnXtXl                   v uXnXnXnXnXnXnXnXnXnXnXnXA.O                   ;.nXnXnXnXnXnXnXnXnXnXnXnXnXnXnXnX^.",
"^.nXt.X               =.nXnXnXwXk                       x rXnXnXnXnXnXnXnXnXnXN.@                       %.bXnXnXnXnXnXnXnXnXnXnXnXnXnXnX^.",
"^.nXnXx.o           9.nXnXnX-Xp                           t %XnXnXnXnXnXnXnXe.o                           E dXnXnXnXnXnXnXnXnXnXnXnXnXnX^.",
"^.nXnXnXr.        *.nXnXnXnXJ                               U nXnXnXnXnXnX:X5                             @ S.nXnXnXnXnXnXnXnXnXnXnXnXnX^.",
"^.nXnXnXnXY     b cXnXnXnXnXlX{                           ..zXnXnXnXnXnXnXnX2Xj                         2 _.nXnXnXnXnXnXnXnXnXnXnXnXnXnX^.",
"^.nXnXnXnX3X- o XXnXnXnXnXnXnXnX,.                      *.nXnXnXnXnXnXnXnXnXnXyXn                     5 +XnXnXnXnXnXnXnXnXnXnXnXnXnXnXnX^.",
"^.nXnXnXnXnX5.| nXnXnXnXnXnXnXnXnX#.                  -.nXnXnXnXnXnXnXnXnXnXnXnXuXg                 > $XnXnXnXnXnXnXnXnXnXnXnXnXnXnXnXnX^.",
"^.nXnXnXnXnXuX2XnXnXnXnXnXnXnXnXnXcXP               Y cXnXnXnXnXnXbXa.nXnXnXnXnXnX1X6             o G.nXnXnXnXnXnXnXnXnXnXnXnXnXnXnXnXnX^.",
"^.nXnXnXnXnXnXnXnXnXnXnXnXnXnXnXnXnXaXi           a sXnXnXnXnXnXnXD.* eXnXnXnXnXnXnX).X           6.nXnXnXnXnXnXnXnXnXnXnXnXnXnXnXnXnXnX^.",
"^.nXnXnXnXnXnXnXnXnXnXnXnXnXnXnXnXnXnX].o       o {.nXnXnXnXnXnXcXz   =.nXnXnXnXnXnXnXo.        b xXnXnXnXnXnXnXnXnXnXnXnXnXnXnXnXnXnXnX^.",
"^.nXnXnXnXnXnXnXnXnXnXnXnXnXnXnXnXnXnXnXo.      $.nXnXnXnXnXnXnXx.    & 3XnXnXnXnXnXnXdXr     # &XnXnXnXnXnXnXnXnXnXnXnXnXnXnXnXnXnXnXnX^.",
"^.nXnXnXnXnXnXnXnXnXnXnXnXnXnXnXnXnXnXnXyX2   4 iXnXnXnXnXnXnXyX9       J nXnXnXnXnXnXnXn.    X.nXnXnXnXnXnXnXnXnXnXnXnXnXnXnXnXnXnXnXnX^.",
"^.nXnXnXnXnXnXnXnXnXnXnXnXnXnXnXnXnXnXnXnX0.  e.nXnXnXnXnXnXnX/           v.nXnXnXnXnXnXbXz - qXnXnXnXnXnXnXnXnXnXnXnXnXnXnXnXnXnXnXnXnX^.",
"^.nXnXnXnXnXnXnXnXnXnXnXnXnXnXnXnXnXnXnXnXsXy sXnXnXnXnXnXnXb.            1 :XnXnXnXnXnXnXN.O.nXnXnXnXnXnXnXnXnXnXnXnXnXnXnXnXnXnXnXnXnX^.",
"^.nXnXnXnXnXnXnXnXnXnXnXnXnXnXnXnXnXnXnXnXnX<XnXnXnXnXnXnX|.*               i tXnXnXnXnXnXxX8XnXnXnXnXnXnXnXnXnXnXnXnXnXnXnXnXnXnXnXnXnX^.",
"^.nXnXnXnXnXnXnXnXnXnXnXnXnXnXnXnXnXnXnXnXnXnXnXnXnXnXnX$X5                   C aXnXnXnXnXnXnXnXnXnXnXnXnXnXnXnXnXnXnXnXnXnXnXnXnXnXnXnX^.",
"^.nXnXnXnXnXnXnXnXnXnXnXnXnXnXnXnXnXnXnXnXnXnXnXnXnXnXoX4                       N uXnXnXnXnXnXnXnXnXnXnXnXnXnXnXnXnXnXnXnXnXnXnXnXnXnXnX^.",
"^.nXnXnXnXnXnXnXnXnXnXnXnXnXnXnXnXnXnXnXnXnXnXnXnXnXJ.>                           u *XnXnXnXnXnXnXnXnXnXnXnXnXnXnXnXnXnXnXnXnXnXnXnXnXnX^.",
"^.nXnXnXnXnXnXnXnXnXnXnXnXnXnXnXnXnXnXnXnXnXnXnXnXkXB                               :.nXnXnXnXnXnXnXnXnXnXnXnXnXnXnXnXnXnXnXnXnXnXnXnXnX^.",
"^.nXnXnXnXnXnXnXnXnXnXnXnXnXnXnXnXnXnXnXnXnXnXnXnXnXkX(                         O g.nXnXnXnXnXnXnXnXnXnXnXnXnXnXnXnXnXnXnXnXnXnXnXnXnXnX^.",
"^.nXnXnXnXnXnXnXnXnXnXnXnXnXnXnXnXnXnXnXnXnXnXnXnXnXnXbXO.                    # V.nXnXnXnXnXnXnXnXnXnXnXnXnXnXnXnXnXnXnXnXnXnXnXnXnXnXnX^.",
"^.nXnXnXnXnXnXnXnXnXnXnXnXnXnXnXnXnXnXnXnXnX5XnXnXnXnXnXnX]                 . B.nXnXnXnXnXlX3XnXnXnXnXnXnXnXnXnXnXnXnXnXnXnXnXnXnXnXnXnX^.",
"^.nXnXnXnXnXnXnXnXnXnXnXnXnXnXnXnXnXnXnXnXdXs fXnXnXnXnXnXlXS               4.nXnXnXnXnXnXz.} nXnXnXnXnXnXnXnXnXnXnXnXnXnXnXnXnXnXnXnXnX^.",
"^.nXnXnXnXnXnXnXnXnXnXnXnXnXnXnXnXnXnXnXnXe.  i.nXnXnXnXnXnXrX9           I bXnXnXnXnXnXcXg & 6XnXnXnXnXnXnXnXnXnXnXnXnXnXnXnXnXnXnXnXnX^.",
"^.nXnXnXnXnXnXnXnXnXnXnXnXnXnXnXnXnXnXnXpX6   5 pXnXnXnXnXnXnXJ.        2 8XnXnXnXnXnXnXj.    ] nXnXnXnXnXnXnXnXnXnXnXnXnXnXnXnXnXnXnXnX^.",
"^.nXnXnXnXnXnXnXnXnXnXnXnXnXnXnXnXnXnXnX$.      ;.nXnXnXnXnXnXnX~       z.nXnXnXnXnXnXiX9     o XXnXnXnXnXnXnXnXnXnXnXnXnXnXnXnXnXnXnXnX^.",
"^.nXnXnXnXnXnXnXnXnXnXnXnXnXnXnXnXnXnXXX@       O |.nXnXnXnXnXnX5X*   c bXnXnXnXnXnXnX'         j kXnXnXnXnXnXnXnXnXnXnXnXnXnXnXnXnXnXnX^.",
"^.nXnXnXnXnXnXnXnXnXnXnXnXnXnXnXnXnXfXd           j gXnXnXnXnXnXnX%.  T.nXnXnXnXnXnXP..           >.nXnXnXnXnXnXnXnXnXnXnXnXnXnXnXnXnXnX^.",
"^.nXnXnXnXnXnXnXnXnXnXnXnXnXnXnXnXbX!               R bXnXnXnXnXnX9XB nXnXnXnXnXnX>X3             . m.nXnXnXnXnXnXnXnXnXnXnXnXnXnXnXnXnX^.",
"^.nXnXnXnXnXnXnXnXnXnXnXnXnXnXnXnX;.                  1.nXnXnXnXnXnX8XnXnXnXnXnXqXy                 = }.nXnXnXnXnXnXnXnXnXnXnXnXnXnXnXnX^.",
"^.nXnXnXnXnXnXnXnXnXnXnXnXnXnXnX7.                      2.nXnXnXnXnXnXnXnXnXnX0Xg                     , ].nXnXnXnXnXnXnXnXnXnXnXnXnXnXnX^.",
"^.nXnXnXnXnXnXnXnXnXnXnXnXnXxX+.                          &.cXnXnXnXnXnXnXnX-Xu                         : K.nXnXnXnXnXnXnXnXnXnXnXnXnXnX^.",
"^.nXnXnXnXnXnXnXnXnXnXnXnXnXY                               E nXnXnXnXnXnX:X,                             o V.nXnXnXnXnXnXnXnXnXnXnXnXnX^.",
"^.nXnXnXnXnXnXnXnXnXnXnXnXnXOXe                           0  XnXnXnXnXnXnXnXd.#                           [ kXnXnXnXnXnXnXnXnXnXnXnXnXnX^.",
"^.nXnXnXnXnXnXnXnXnXnXnXnXnXnX8Xd                       h 0XnXnXnXnXnXnXnXnXnXK.%                       4.nXnXnXnXnXnXnXnXnXnXnXnXnXnXnX^.",
"^.nXnXnXnXnXnXnXnXnXnXnXnXnXnXnXqXg                   k eXnXnXnXnXnXnXnXnXnXnXnXY.$                   8.nXnXnXnXnXnXnXnXnXnXnXnXnXnXnXnX^.",
"^.nXnXnXnXnXnXnXnXnXnXnXnXnXnXnXnX6X9               7 4XnXnXnXnXnXnXnXnXnXnXnXnXnXM..               ` nXnXnXnXnXnXnXnXnXnXnXnXnXnXnXnXnX^.",
"^.nXnXnXnXnXnXnXnXnXnXnXnXnXnXnXnXnX[.$           % |.nXnXnXnXnXnXnXnXnXnXnXnXnXnXnX-.            A zXnXnXnXnXnXnXnXnXnXnXnXnXnXnXnXnXnX^.",
"^.nXnXnXnXnXnXnXnXnXnXnXnXnXnXnXnXnXnX5.          0.nXnXnXnXnXnXnXnXnXnXnXnXnXnXnXnXzXx         > 3XnXnXnXnXnXnXnXnXnXnXnXnXnXnXnXnXnXnX^.",
"^.nXnXnXnXnXnXnXnXnXnXnXnXnXnXnXnXnXnXzXc       n xXnXnXnXnXnXnXnXnXnXnXnXnXnXnXnXnXnX+X#       h.nXnXnXnXnXnXnXnXnXnXnXnXnXnXnXnXnXnXnX^.",
"^.nXnXnXnXnXnXnXnXnXnXnXnXnXnXnXnXnXnXnX}..   X .XnXnXnXnXnXnXnXnXnXnXnXnXnXnXnXnXnXnXnX@.    b bXnXnXnXnXnXnXnXnXnXnXnXnXnXnXnXnXnXnXnX^.",
"^.nXnXnXnXnXnXnXnXnXnXnXnXnXnXnXnXnXnXnXnXQ   / nXnXnXnXnXnXnXnXnXnXnXnXnXnXnXnXnXnXnXnXrX<   `.nXnXnXnXnXnXnXnXnXnXnXnXnXnXnXnXnXnXnXnX^.",
"^.nXnXnXnXnXnXnXnXnXnXnXnXnXnXnXnXnXnXnXnX=XO ;XnXnXnXnXnXnXnXnXnXnXnXnXnXnXnXnXnXnXnXnXnX,.D nXnXnXnXnXnXnXnXnXnXnXnXnXnXnXnXnXnXnXnXnX^.",
"^.nXnXnXnXnXnXnXnXnXnXnXnXnXnXnXnXnXnXnXnXnXj.nXnXnXnXnXnXnXnXnXnXnXnXnXnXnXnXnXnXnXnXnXnX0XE.nXnXnXnXnXnXnXnXnXnXnXnXnXnXnXnXnXnXnXnXnX^.",
"^.nXnXnXnXnXnXnXnXnXnXnXnXnXnXnXnXnXnXnXnXnXnXnXnXnXnXnXnXnXnXnXnXnXnXnXnXnXnXnXnXnXnXnXnXnXnXnXnXnXnXnXnXnXnXnXnXnXnXnXnXnXnXnXnXnXnXnX^.",
"^.nXnXnXnXnXnXnXnXnXnXnXnXnXnXnXnXnXnXnXnXnXnXnXnXnXnXnXnXnXnXnXnXnXnXnXnXnXnXnXnXnXnXnXnXnXnXnXnXnXnXnXnXnXnXnXnXnXnXnXnXnXnXnXnXnXnXnX^.",
"^.nXnXnXnXnXnXnXnXnXnXnXnXnXnXnXnXnXnXnXnXnXnXnXnXnXnXnXnXnXnXnXnXnXnXnXnXnXnXnXnXnXnXnXnXnXnXnXnXnXnXnXnXnXnXnXnXnXnXnXnXnXnXnXnXnXnXnX^.",
"^.nXnXnXnXnXnXnXnXnXnXnXnXnXnXnXnXnXnXnXnXnXnXnXnXnXnXnXnXnXnXnXnXnXnXnXnXnXnXnXnXnXnXnXnXnXnXnXnXnXnXnXnXnXnXnXnXnXnXnXnXnXnXnXnXnXnXnX^.",
"^.nXnXnXnXnXnXnXnXnXnXnXnXnXnXnXnXnXnXnXnXnXnXnXnXnXnXnXnXnXnXnXnXnXnXnXnXnXnXnXnXnXnXnXnXnXnXnXnXnXnXnXnXnXnXnXnXnXnXnXnXnXnXnXnXnXnXnX^.",
"^.nXnXnXnXnXnXnXnXnXnXnXnXnXnXnXnXnXnXnXnXnXnXnXnXnXnXnXnXnXnXnXnXnXnXnXnXnXnXnXnXnXnXnXnXnXnXnXnXnXnXnXnXnXnXnXnXnXnXnXnXnXnXnXnXnXnXnX^.",
"^.nXnXnXnXnXnXnXnXnXnXnXnXnXnXnXnXnXnXnXnXnXnXnXnXnXnXnXnXnXnXnXnXnXnXnXnXnXnXnXnXnXnXnXnXnXnXnXnXnXnXnXnXnXnXnXnXnXnXnXnXnXnXnXnXnXnXnX^.",
"^.nXnXnXnXnXnXnXnXnXnXnXnXnXnXnXnXnXnXnXnXnXuXnXnXnXnXnXnXnXnXnXnXnXnXnXnXnXnXnXnXnXnXnXnXbXrXnXnXnXnXnXnXnXnXnXnXnXnXnXnXnXnXnXnXnXnXnX^.",
"^.nXnXnXnXnXnXnXnXnXnXnXnXnXnXnXnXnXnXnXnXlXV zXnXnXnXnXnXnXnXnXnXnXnXnXnXnXnXnXnXnXnXnXnXD.*.nXnXnXnXnXnXnXnXnXnXnXnXnXnXnXnXnXnXnXnXnX^.",
"^.nXnXnXnXnXnXnXnXnXnXnXnXnXnXnXnXnXnXnXnXk.  v.nXnXnXnXnXnXnXnXnXnXnXnXnXnXnXnXnXnXnXnXnXN , yXnXnXnXnXnXnXnXnXnXnXnXnXnXnXnXnXnXnXnXnX^.",
"^.nXnXnXnXnXnXnXnXnXnXnXnXnXnXnXnXnXnXnXgXw   r jXnXnXnXnXnXnXnXnXnXnXnXnXnXnXnXnXnXnXnXA.    &.nXnXnXnXnXnXnXnXnXnXnXnXnXnXnXnXnXnXnXnX^.",
"^.nXnXnXnXnXnXnXnXnXnXnXnXnXnXnXnXnXnXnX6.      w.nXnXnXnXnXnXnXnXnXnXnXnXnXnXnXnXnXnXjXi     % ,XnXnXnXnXnXnXnXnXnXnXnXnXnXnXnXnXnXnXnX^.",
"^.nXnXnXnXnXnXnXnXnXnXnXnXnXnXnXnXnXnX-X&       * :XnXnXnXnXnXnXnXnXnXnXnXnXnXnXnXnXnX;.        Z bXnXnXnXnXnXnXnXnXnXnXnXnXnXnXnXnXnXnX^.",
"^.nXnXnXnXnXnXnXnXnXnXnXnXnXnXnXnXnXxXB           C cXnXnXnXnXnXnXnXnXnXnXnXnXnXnXnX XO           u.nXnXnXnXnXnXnXnXnXnXnXnXnXnXnXnXnXnX^.",
"^.nXnXnXnXnXnXnXnXnXnXnXnXnXnXnXnXnXo.              %.nXnXnXnXnXnXnXnXnXnXnXnXnXnX8Xq             @ W.nXnXnXnXnXnXnXnXnXnXzX;XnXnXnXnXnX^.",
"^.nXnXnXnXnXnXnXnXnXnXnXnXnXnXnXnXp.                  g.nXnXnXnXnXnXnXnXnXnXnXnXdXv                 4 ,XnXnXnXnXnXnXnXnXnXl.R nXnXnXnXnX^.",
"^.nXnXnXnXnXnXnXnXnXnXnXnXnXnXnXv.O                   o k.nXnXnXnXnXnXnXnXnXnXdXS                     q :XnXnXnXnXnXnXnXpX8   R.nXnXnXnX^.",
"^.nXnXnXnXnXnXnXnXnXnXnXnXnXnXr.X                       X p.nXnXnXnXnXnXnXnXqXM                         9 oXnXnXnXnXnXnXo.    p kXnXnXnX^.",
"^.nXnXnXnXnXnXnXnXnXnXnXnXbX{                                .nXnXnXnXnXnX,Xw                             * K.nXnXnXnXH.o       ) nXnXnX^.",
"^.nXnXnXnXnXnXnXnXnXnXnXnXnXL.,                           : F.nXnXnXnXnXnXbX<..                           G tXnXnXnXY.*           ;.nXnX^.",
"^.nXnXnXnXnXnXnXnXnXnXnXnXnXnX%X8                       0 -XnXnXnXnXnXnXnXnXnXf.X                       ] xXnXnXnXB.$               ] nX^.",
"^.nXnXnXnXnXnXnXnXnXnXnXnXnXnXnX:X0                   w <XnXnXnXnXnXnXnXnXnXnXnXz.X                    .bXnXnXnXnX9Xb             < ).nX^.",
"^.nXnXnXnXnXnXnXnXnXnXnXnXnXnXnXnX%X>               ; #XnXnXnXnXnXnXnXnXnXnXnXnXnX7.                I cXnXnXnXnXnXnXpXb         > oXnXnX^.",
"^.nXnXnXnXnXnXnXnXnXnXnXnXnXnXnXnXnXG.X           o L.nXnXnXnXnXnXnXnXnXnXnXnXnXnXnX(             k sXnXnXnXnXnXnXnXnX9X9     . K.nXnXnX^.",
"^.nXnXnXnXnXnXnXnXnXnXnXnXnXnXnXnXnXnX+.          *.nXnXnXnXnXnXnXnXnXnXnXnXnXnXnXnXdXy         $ $XnXnXnXnXnXnXnXnXnXnXV.    ) nXnXnXnX^.",
"^.nXnXnXnXnXnXnXnXnXnXnXnXnXnXnXnXnXnXdXy       p fXnXnXnXnXnXnXnXnXnXnXnXnXnXnXnXnXnX'.X       8.nXnXnXnXnXnXnXnXnXnXnXnXH 1 qXnXnXnXnX^.",
"^.nXnXnXnXnXnXnXnXnXnXnXnXnXnXnXnXnXnXnXI.      W.nXnXnXnXnXnXnXnXnXnXnXnXnXnXnXnXnXnXnX(     s zXnXnXnXnXnXnXnXnXnXnXnXnX$X9.nXnXnXnXnX^.",
"^.nXnXnXnXnXnXnXnXnXnXnXnXnXnXnXnXnXnXnXnXF   K nXnXnXnXnXnXnXnXnXnXnXnXnXnXnXnXnXnXnXnX5X*   G.nXnXnXnXnXnXnXnXnXnXnXnXnXnXzXnXnXnXnXnX^.",
"^.nXnXnXnXnXnXnXnXnXnXnXnXnXnXnXnXnXnXnXnX{.  .XnXnXnXnXnXnXnXnXnXnXnXnXnXnXnXnXnXnXnXnXnXo.x nXnXnXnXnXnXnXnXnXnXnXnXnXnXnX{ [ nXnXnXnX^.",
"^.nXnXnXnXnXnXnXnXnXnXnXnXnXnXnXnXnXnXnXnXnX3.nXnXnXnXnXnXnXnXnXnXnXnXnXnXnXnXnXnXnXnXnXnX1XC.nXnXnXnXnXnXnXnXnXnXnXnXnXnXnXL 3.nXnXnXnX^.",
"^.nXnXnXnXnXnXnXnXnXnXnXnXnXnXnXnXnXnXnXnXnXnXnXnXnXnXnXnXnXnXnXnXnXnXnXnXnXnXnXnXnXnXnXnXnXnXnXnXnXnXnXnXnXnXnXnXnXnXnXnXnX8 (.nXnXnXnX^.",
"^.nXnXnXnXnXnXnXnXnXnXnXnXnXnXnXnXnXnXnXnXnXnXnXnXnXnXnXnXnXnXnXnXnXnXnXnXnXnXnXnXnXnXnXnXnXnXnXnXnXnXnXnXnXnXnXnXnXnXnXnX|.3 zXnXnXnXnX^.",
"^.nXnXnXnXnXnXnXnXnXnXnXnXnXnXnXnXnXnXnXnXnXnXnXnXnXnXnXnXnXnXnXnXnXnXnXnXnXnXnXnXnXnXnXnXnXnXnXnXnXnXnXnXnXnXnXnXnXnXnXnX` 2.nXnXnXnXnX^.",
"^.nXnXnXnXnXnXnXnXnXnXnXnXnXnXnXnXnXnXnXnXnXnXnXnXnXnXnXnXnXnXnXnXnXnXnXnXnXnXnXnXnXnXnXnXnXnXnXnXnXnXnXnXnXnXnXnXnXnXnX>X3 tXnXnXnXnXnX^.",
"^.nXnXnXnXnXnXnXnXnXnXnXnXnXnXnXnXnXnXnXnXnXnXnXnXnXnXnXnXnXnXnXnXnXnXnXnXnXnXnXnXnXnXnXnXnXnXnXnXnXnXnXnXnXnXnXnXnXnXnXI i.nXnXnXnXnXnX^.",
"^.nXnXnXnXnXnXnXnXnXnXnXnXnXnXnXnXnXnXnXnXnXnXnXnXnXnXnXnXnXnXnXnXnXnXnXnXnXnXnXnXnXnXnXnXnXnXnXnXnXnXnXnXnXnXnXnXnXnXS.n cXnXnXnXnXnXnX^.",
"^.nXnXnXnXnXnXnXnXnXnXnXnXnXnXnXnXnXnXnXnXnXnXnXnXnXnXnXnXnXnXnXnXnXnXnXnXnXnXnXnXnXnXnXnXnXnXnXnXnXnXnXnXnXnXnXnXnXnXT + $ $ $ $ Z.nXnX^.",
"!.vXnXnXnXnXnXnXnXnXnXnXnXnXnXnXnXnXnXnXnXnXnXnXnXnXnXnXnXnXnXnXnXnXnXnXnXnXnXnXnXnXnXnXnXnXnXnXnXnXnXnXnXnXnXnXnXnXnXnXnXnXnXnXnXnXnXvX~.",
"hXQ.^./././././././././././././././././././././././././././././././././././././././././././././././././././././././././././././././.^.Q.hX"
};
