/* XPM */
static const char *seven_hearts[] = {
/* columns rows colors chars-per-pixel */
"69 100 239 2 ",
"   c #DF0000",
".  c #DF0101",
"X  c #DF0202",
"o  c #DF0303",
"O  c #DF0404",
"+  c #E00404",
"@  c #E00505",
"#  c #E00606",
"$  c #E00707",
"%  c #E00808",
"&  c #E00909",
"*  c #E00A0A",
"=  c #E00B0B",
"-  c #E10C0C",
";  c #E10D0D",
":  c #E10E0E",
">  c #E10F0F",
",  c #E11010",
"<  c #E11111",
"1  c #E11212",
"2  c #E11313",
"3  c #E21414",
"4  c #E21515",
"5  c #E21616",
"6  c #E21717",
"7  c #E21818",
"8  c #E21919",
"9  c #E21A1A",
"0  c #E21B1B",
"q  c #E31C1C",
"w  c #E31D1D",
"e  c #E31F1F",
"r  c #E32020",
"t  c #E32121",
"y  c #E32222",
"u  c #E32323",
"i  c #E42424",
"p  c #E42626",
"a  c #E42727",
"s  c #E42828",
"d  c #E42929",
"f  c #E42A2A",
"g  c #E42B2B",
"h  c #E52C2C",
"j  c #E52D2D",
"k  c #E52F2F",
"l  c #E53232",
"z  c #E53333",
"x  c #E63434",
"c  c #E63535",
"v  c #E63636",
"b  c #E63737",
"n  c #E63838",
"m  c #E63939",
"M  c #E63A3A",
"N  c #E63B3B",
"B  c #E73C3C",
"V  c #E73D3D",
"C  c #E73E3E",
"Z  c #E73F3F",
"A  c #E74040",
"S  c #E74141",
"D  c #E74343",
"F  c #E84545",
"G  c #E84646",
"H  c #E84747",
"J  c #E84848",
"K  c #E84949",
"L  c #E84A4A",
"P  c #E84B4B",
"I  c #E94C4C",
"U  c #E94D4D",
"Y  c #E94E4E",
"T  c #E94F4F",
"R  c #E95050",
"E  c #E95151",
"W  c #E95252",
"Q  c #E95353",
"!  c #EA5454",
"~  c #EA5555",
"^  c #EA5656",
"/  c #EA5757",
"(  c #EA5858",
")  c #EA5959",
"_  c #EA5B5B",
"`  c #EB5C5C",
"'  c #EB5E5E",
"]  c #EB5F5F",
"[  c #EB6060",
"{  c #EB6161",
"}  c #EB6262",
"|  c #EB6363",
" . c #EC6464",
".. c #EC6565",
"X. c #EC6666",
"o. c #EC6767",
"O. c #EC6868",
"+. c #EC6969",
"@. c #EC6A6A",
"#. c #EC6B6B",
"$. c #ED6C6C",
"%. c #ED6D6D",
"&. c #ED6E6E",
"*. c #ED6F6F",
"=. c #ED7171",
"-. c #ED7272",
";. c #ED7373",
":. c #EE7474",
">. c #EE7575",
",. c #EE7777",
"<. c #EE7878",
"1. c #EE7A7A",
"2. c #EE7B7B",
"3. c #EF7C7C",
"4. c #EF7D7D",
"5. c #EF7E7E",
"6. c #EF7F7F",
"7. c #EF8080",
"8. c #EF8181",
"9. c #EF8282",
"0. c #EF8383",
"q. c #F08484",
"w. c #F08585",
"e. c #F08686",
"r. c #F08787",
"t. c #F08888",
"y. c #F08989",
"u. c #F08A8A",
"i. c #F08B8B",
"p. c #F18C8C",
"a. c #F18D8D",
"s. c #F18E8E",
"d. c #F19090",
"f. c #F19191",
"g. c #F19292",
"h. c #F19393",
"j. c #F29494",
"k. c #F29595",
"l. c #F29797",
"z. c #F29898",
"x. c #F29A9A",
"c. c #F29B9B",
"v. c #F39C9C",
"b. c #F39D9D",
"n. c #F39F9F",
"m. c #F3A0A0",
"M. c #F3A1A1",
"N. c #F3A2A2",
"B. c #F4A4A4",
"V. c #F4A5A5",
"C. c #F4A6A6",
"Z. c #F4A9A9",
"A. c #F4AAAA",
"S. c #F4ABAB",
"D. c #F5ADAD",
"F. c #F5AEAE",
"G. c #F5AFAF",
"H. c #F5B0B0",
"J. c #F5B1B1",
"K. c #F5B2B2",
"L. c #F5B3B3",
"P. c #F6B5B5",
"I. c #F6B6B6",
"U. c #F6B7B7",
"Y. c #F6B8B8",
"T. c #F6B9B9",
"R. c #F6BBBB",
"E. c #F7BCBC",
"W. c #F7BDBD",
"Q. c #F7BEBE",
"!. c #F7BFBF",
"~. c gray76",
"^. c #C3C3C3",
"/. c gray77",
"(. c #CBCBCB",
"). c gray80",
"_. c #F7C0C0",
"`. c #F7C1C1",
"'. c #F7C2C2",
"]. c #F7C3C3",
"[. c #F8C4C4",
"{. c #F8C5C5",
"}. c #F8C6C6",
"|. c #F8C7C7",
" X c #F8C8C8",
".X c #F8C9C9",
"XX c #F8CBCB",
"oX c #F9CCCC",
"OX c #F9CDCD",
"+X c #F9CECE",
"@X c #F9CFCF",
"#X c #F9D0D0",
"$X c #F9D1D1",
"%X c #F9D2D2",
"&X c #F9D3D3",
"*X c #FAD4D4",
"=X c #FAD5D5",
"-X c #FAD6D6",
";X c #FAD7D7",
":X c #FAD8D8",
">X c #FAD9D9",
",X c #FADBDB",
"<X c #FBDCDC",
"1X c #FBDDDD",
"2X c #FBDEDE",
"3X c #FBDFDF",
"4X c #FBE0E0",
"5X c #FBE2E2",
"6X c #FBE3E3",
"7X c #FCE4E4",
"8X c #FCE5E5",
"9X c #FCE6E6",
"0X c #FCE7E7",
"qX c #FCE8E8",
"wX c #FCE9E9",
"eX c #FCEAEA",
"rX c #FCEBEB",
"tX c #FDECEC",
"yX c #FDEDED",
"uX c #FDEEEE",
"iX c #FDEFEF",
"pX c #FDF0F0",
"aX c #FDF1F1",
"sX c #FDF2F2",
"dX c #FDF3F3",
"fX c #FEF4F4",
"gX c #FEF5F5",
"hX c #FEF6F6",
"jX c #FEF7F7",
"kX c gray98",
"lX c #FEF8F8",
"zX c #FEF9F9",
"xX c #FEFAFA",
"cX c #FEFBFB",
"vX c #FFFCFC",
"bX c #FFFDFD",
"nX c #FEFEFE",
"mX c #FFFEFE",
"MX c white",
/* pixels */
"kX~.(.).).).).).).).).).).).).).).).).).).).).).).).).).).).).).).).).).).).).).).).).).).).).).).).).).).).).).).).).).).).).).).).(.~.kX",
"^.nXMXMXMXMXMXMXMXMXMXMXMXMXMXMXMXMXMXMXMXMXMXMXMXMXMXMXMXMXMXMXMXMXMXMXMXMXMXMXMXMXMXMXMXMXMXMXMXMXMXMXMXMXMXMXMXMXMXMXMXMXMXMXMXMXMXnX/.",
"(.MXMXMXMXMXMXMXMXMXMXMXMXMXMXMXMXMXMXMXMXMXMXMXMXMXMXMXMXMXMXMXMXMXMXMXMXMXMXMXMXMXMXMXMXMXMXMXMXMXMXMXMXMXMXMXMXMXMXMXMXMXMXMXMXMXMXMX(.",
"(.MXMXMXF.$ $ $ $ + ! MXMXMXMXcXH.;.@.s.wXMXMXMXtXf.#.=.S.xXMXMXMXMXMXMXMXMXMX3X4.L P 1.7XMXMXMX_.| F ^ x.hXMXMXMXMXMXMXMXMXMXMXMXMXMXMX(.",
"(.MXMXMXMXMXMXMXbXn H.MXMXMX2Xj         < ].MXXX4         a -XMXMXMXMXMXMXMXC.&         3 #XMXu..         a 2XMXMXMXMXMXMXMXMXMXMXMXMXMX(.",
"(.MXMXMXMXMXMXMXh.R MXMXMXzXs             9 gXi             e fXMXMXMXMXMX*X@             x >XX             l bXMXMXMXMXMXMXMXMXMXMXMXMX(.",
"(.MXMXMXMXMXMXyX3 1XMXMXMXC.                ~                 z.MXMXMXMXMXO.                Z                 !.MXMXMXMXMXMXMXMXMXMXMXMX(.",
"(.MXMXMXMXMXMX4.X.MXMXMXMX&.                .                 ] MXMXMXMXMXb                                   s.MXMXMXMXMXMXMXMXMXMXMXMX(.",
"(.MXMXMXMXMXxX< OXMXMXMXMXo.                                  ( MXMXMXMXMXb                                   a.MXMXMXMXMXMXMXMXMXMXMXMX(.",
"(.MXMXMXMXMXE.w MXMXMXMXMXb.                                  d.MXMXMXMXMX<.                                  +XMXMXMXMXMXMXMXMXMXMXMXMX(.",
"(.MXMXMXMXMX7.R MXMXMXMXMXzXu                               5 sXMXMXMXMXMXrX>                               W MXMXMXMXMXMXMXMXMXMXMXMXMX(.",
"(.MXMXMXMXMX .O.MXMXMXMXMXMXH..                             C.MXMXMXMXMXMXMXl.                            1 3XMXMXMXMXMXMXMXMXMXMXMXMXMX(.",
"(.MXMXMXMXMXMXMXMXMXMXMXMXMXMX:.                          $.MXMXMXMXMXMXMXMXMX`                         X I.MXMXMXMXMXMXMXMXMXMXMXMXMXMX(.",
"(.MXdXr.) 1.fXMXc.( -.<XMXMXMXvXT                       S zXMXMXMXMXMXMXMXMXMXjXB                       d.MXMXMXMXMXMXMXMXMXMXMXMXMXMXMX(.",
"(.xXv       U j.      ; ,XMXMXMXfXz                   k aXMXMXMXMXMXMXMXMXMXMXMXtXa                   -.MXMXMXMXMXMXMXMXMXMXMXMXMXMXMXMX(.",
"(.`.          3         1.MXMXMXMXeXi               0 5XMXMXMXMXMXMXMXMXMXMXMXMXMX2X6               ^ bXMXMXMXMXMXMXMXMXMXMXMXMXMXMXMXMX(.",
"(.H.                    O.MXMXMXMXMX;X>           : =XMXMXMXMXMXMXMXMXMXMXMXMXMXMXMX.X$           m lXMXMXMXMXMXMXMXMXMXMXMXMXMXMXMXMXMX(.",
"(.pX2                   E.MXMXMXMXMXMXK.X       . S.MXMXMXMXMXMXMXMXMXMXMXMXMXMXMXMXMXx.        5 7XMXMXMXMXMXMXMXMXMXMXMXMXMXMXMXMXMXMX(.",
"(.MXA..               ..MXMXMXMXMXMXMXMX;.      %.MXMXMXMXMXMXMXMXMXMXMXMXMXMXMXMXMXMXMX(       U.MXMXMXMXMXMXMXMXMXMXMXMXMXMXMXMXMXMXMX(.",
"(.MXMX5.            V zXMXMXMXMXMXMXMXMXgXt   7 pXMXMXMXMXMXMXMXMXMXMXMXMXMXMXMXMXMXMXMXqX,   ^ MXMXMXMXMXMXMXMXMXMXMXMXMXMXMXMXMXMXMXMX(.",
"(.MXMXmXQ         u tXMXMXMXMXMXMXMXMXMXMXZ.  n.MXMXMXMXMXMXMXMXMXMXMXMXMXMXMXMXMXMXMXMXMXe.o 4XMXMXMXMXMXMXMXMXMXMXMXMXMXMXMXMXMXMXMXMX(.",
"(.MXMXMXhXx     ; &XMXMXMXMXMXMXMXMXMXMXMXcXs gXMXMXMXMXMXMXmXMXMXMXMXMXMXMXmXMXMXMXMXMXMXqXI MXMXMXMXMXMXMXMXMXMXMXMXMXMXMXMXMXMXMXMXMX(.",
"(.MXMXMXMX4X;   F.MXMXMXMXMXMXMXMXMXMXMXMXMX&XMXMXMXMX`.J * X u a.bXMXMXv.d O $ A L.MXMXMXMX6XMXMXMXMXMXMXMXMXMXMXMXMXMXMXMXMXMXMXMXMXMX(.",
"(.MXMXMXMXMXu.J MXMXMXMXMXMXMXMXMXMXMXMXMXMXMXMXMXMXc.X           $.MXw.            0.MXMXMXMXMXMXMXMXMXMXMXMXMXMXMXMXMXMXMXMXMXMXMXMXMX(.",
"(.MXMXMXMXMXiXR.MXMXMXMXMXMXMXMXMXMXMXMXMXMXMXMXMX5X%             X [.&             X +XMXMXMXMXMXMXMXMXMXMXMXMXMXMXMXMXMXMXMXMXMXMXMXMX(.",
"(.MXMXMXMXMXMXMXMXMXMXMXMXMXMXMXMXMXMXMXMXMXMXMXMXs.                q                 :.MXMXMXMXMXMXMXMXMXMXMXMXMXMXMXMXMXMXMXMXMXMXMXMX(.",
"(.MXMXMXMXMXMXMXMXMXMXMXMXMXMXMXMXMXMXMXMXMXMXMXMX#.                                  R MXMXMXMXMXMXMXMXMXMXMXMXMXMXMXMXMXMXMXMXMXMXMXMX(.",
"(.MXMXMXMXMXMXMXMXMXMXMXMXMXMXMXMXMXMXMXMXMXMXMXMX3.                                  { MXMXMXMXMXMXMXMXMXMXMXMXMXMXMXMXMXMXMXMXMXMXMXMX(.",
"(.MXMXMXMXMXMXMXMXMXMXMXMXMXMXMXMXMXMXMXMXMXMXMXMX+X.                                 I.MXMXMXMXMXMXMXMXMXMXMXMXMXMXMXMXMXMXMXMXMXMXMXMX(.",
"(.MXMXMXMXMXMXMXMXMXMXMXMXMXMXMXMXMXMXMXMXMXMXMXMXMX)                               S MXMXMXMXMXMXMXMXMXMXMXMXMXMXMXMXMXMXMXMXMXMXMXMXMX(.",
"(.MXMXMXMXMXMXMXMXMXMXMXMXMXMXMXMXMXMXMXMXMXMXMXMXMXtXr                           < 1XMXMXMXMXMXMXMXMXMXMXMXMXMXMXMXMXMXMXMXMXMXMXMXMXMX(.",
"(.MXMXMXMXMXMXMXMXMXMXMXMXMXMXMXMXMXMXMXMXMXMXMXMXMXMX|.%                       o I.MXMXMXMXMXMXMXMXMXMXMXMXMXMXMXMXMXMXMXMXMXMXMXMXMXMX(.",
"(.MXMXMXMXMXMXMXMXMXMXMXMXMXMXMXMXMXMXMXMXMXMXMXMXMXMXMXA.X                     h.MXMXMXMXMXMXMXMXMXMXMXMXMXMXMXMXMXMXMXMXMXMXMXMXMXMXMX(.",
"(.MXMXMXMXMXMXMXMXMXMXMXMXMXMXMXMXMXMXMXMXMXMXMXMXMXMXMXMXi.                  <.MXMXMXMXMXMXMXMXMXMXMXMXMXMXMXMXMXMXMXMXMXMXMXMXMXMXMXMX(.",
"(.MXMXMXMXMXMXMXMXMXMXMXMXMXMXMXMXMXMXMXMXMXMXMXMXMXMXMXMXMX&.              ) mXMXMXMXMXMXMXMXMXMXMXMXMXMXMXMXMXMXMXMXMXMXMXMXMXMXMXMXMX(.",
"(.MXMXMXMXMXMXMXMXMXMXMXMXMXMXMXMXMXMXMXMXMXMXMXMXMXMXMXMXMXvXG           m zXMXMXMXMXMXMXMXMXMXMXMXMXMXMXMXMXMXMXMXMXMXMXMXMXMXMXMXMXMX(.",
"(.MXMXMXMXMXMXMXMXMXMXMXMXMXMXMXMXMXMXMXMXMXMXMXMXMXMXMXMXMXMXyXy       5 6XMXMXMXMXMXMXMXMXMXMXMXMXMXMXMXMXMXMXMXMXMXMXMXMXMXMXMXMXMXMX(.",
"(.MXMXMXMXMXMXMXMXMXMXMXMXMXMXMXMXMXMXMXMXMXMXMXMXMXMXMXMXMXMXMX`..     S.MXMXMXMXMXMXMXMXMXMXMXMXMXMXMXMXMXMXMXMXMXMXMXMXMXMXMXMXMXMXMX(.",
"(.MXMXMXMXMXMXMXMXMXMXMXMXMXMXMXMXMXMXMXMXMXMXMXMXMXMXMXMXMXMXMXMX_   G MXMXMXMXMXMXMXMXMXMXMXMXMXMXMXMXMXMXMXMXMXMXMXMXMXMXMXMXMXMXMXMX(.",
"(.MXMXMXMXMXMXMXMXMXMXMXMXMXMXMXMXMXMXMXMXMXMXMXMXMXMXMXMXMXMXMXMX1X. |.MXMXMXMXMXMXMXMXMXMXMXMXMXMXMXMXMXMXMXMXMXMXMXMXMXMXMXMXMXMXMXMX(.",
"(.MXMXMXMXMXMXMXMXMXMXMXMXMXMXMXMXMXMXMXMXMXMXMXMXMXMXMXMXMXMXMXMXMX+.MXMXMXMXMXMXMXMXMXMXMXMXMXMXMXMXMXMXMXMXMXMXMXMXMXMXMXMXMXMXMXMXMX(.",
"(.MXMXMXMXMXMXMXMXMXMXMXMXMXMXMXMXMXMXMXMXMXMXMXMXMXMXMXMXMXMXMXMXMXzXMXMXMXMXMXMX9X9XMXMXMXMXMXMXzX4XsXMXMXMXMXMXMXMXMXMXMXMXMXMXMXMXMX(.",
"(.MXMXMXMXMXMXMXMXMXMXMXMXMXMX[.U < # g l.mXMXMXn.k $ > J W.MXMXMXMXMXMXMXMXxXw.9     7 k.MXMXiX' #   X b T.MXMXMXMXMXMXMXMXMXMXMXMXMXMX(.",
"(.MXMXMXMXMXMXMXMXMXMXMXMXMXc.X           <.MXw.          . s.MXMXMXMXMXMXbXU             d.bXM           . m.MXMXMXMXMXMXMXMXMXMXMXMXMX(.",
"(.MXMXMXMXMXMXMXMXMXMXMXMX4X%             O .X%             O -XMXMXMXMXMXV.              1 B.              ; yXMXMXMXMXMXMXMXMXMXMXMXMX(.",
"(.MXMXMXMXMXMXMXMXMXMXMXMXu.                e                 2.MXMXMXMXMXT                 3                 V.MXMXMXMXMXMXMXMXMXMXMXMX(.",
"(.MXMXMXMXMXMXMXMXMXMXMXMXX.                                  / MXMXMXMXMXl                                   r.MXMXMXMXMXMXMXMXMXMXMXMX(.",
"(.MXMXMXMXMXMXMXMXMXMXMXMX:.                                  X.MXMXMXMXMXK                                   n.MXMXMXMXMXMXMXMXMXMXMXMX(.",
"(.MXMXMXMXMXMXMXMXMXMXMXMX}.                                  Y.MXMXMXMXMXB.                                > tXMXMXMXMXMXMXMXMXMXMXMXMX(.",
"(.MXMXMXMXMXMXMXMXMXMXMXMXMXT                               D MXMXMXMXMXMXbXl                               y.MXMXMXMXMXMXMXMXMXMXMXMXMX(.",
"(.MXMXMXMXMXMXMXMXMXMXMXMXMX0X8                           < 1XMXMXMXMXMXMXMX:X:                           S cXMXMXMXMXMXMXMXMXMXMXMXMXMX(.",
"(.MXMXMXMXMXMXMXMXMXMXMXMXMXMXQ.@                       o U.MXMXMXMXMXMXMXMXMXS.X                       r wXMXMXMXMXMXMXMXMXMXMXMXMXMXMX(.",
"(.MXMXMXMXMXMXMXMXMXMXMXMXMXMXMXV..                     h.MXMXMXMXMXMXMXMXMXMXMXy.                    > %XMXMXMXMXMXMXMXMXMXMXMXMXMXMXMX(.",
"(.MXMXMXMXMXMXMXMXMXMXMXMXMXMXMXMX6.                  <.MXMXMXMXMXMXMXMXMXMXMXMXMX#.                % `.MXMXMXMXMXMXMXMXMXMXMXMXMXMXMXMX(.",
"(.MXMXMXMXMXMXMXMXMXMXMXMXMXMXMXMXmX{               ) mXMXMXMXMXMXMXMXMXMXMXMXMXMXbXE             X A.MXMXMXMXMXMXMXMXMXMXMXMXMXMXMXMXMX(.",
"(.MXMXMXMXMXMXMXMXMXMXMXMXMXMXMXMXMXxXV           m zXMXMXMXMXMXMXMXMXMXMXMXMXMXMXMXfXh           8.MXMXMXMXMXMXMXMXMXMXMXMXMXMXMXMXMXMX(.",
"(.MXMXMXMXMXMXMXMXMXMXMXMXMXMXMXMXMXMXqX0       5 6XMXMXMXMXMXMXMXMXMXMXMXMXMXMXMXMXMX>X:       L bXMXMXMXMXMXMXMXMXMXMXMXMXMXMXMXMXMXMX(.",
"(.MXMXMXMXMXMXMXMXMXMXMXMXMXMXMXMXMXMXMXU.      D.MXMXMXMXMXMXMXMXMXMXMXMXMXMXMXMXMXMXMXk.    : 8XMXMXMXMXMXMXMXMXMXMXMXMXMXMXMXMXMXMXMX(.",
"(.MXMXMXMXMXMXMXMXMXMXMXMXMXMXMXMXMXMXMXMXE   H MXMXMXMXMXMXMXMXMXMXMXMXMXMXMXMXMXMXMXMXbXv   f.MXMXMXMXMXMXMXMXMXMXMXMXMXMXMXMXMXMXMXMX(.",
"(.MXMXMXMXMXMXMXMXMXMXMXMXMXMXMXMXMXMXMXMX=X  XXMXMXMXMXMXMXMXMXMXMXMXMXMXMXMXMXMXMXMXMXMXH.1 lXMXMXMXMXMXMXMXMXMXMXMXMXMXMXMXMXMXMXMXMX(.",
"(.MXMXMXMXMXMXMXMXMXMXMXMXMXMXMXMXMXMXMXMXMX..MXMXMXMXMXMXMXMXMXMXMXMXMXMXMXMXMXMXMXMXMXMXcXr.MXMXMXMXMXMXMXMXMXMXMXMXMXMXMXMXMXMXMXMXMX(.",
"(.MXMXMXMXMXMXMXMXMXMXMXMXMXMXMXMXMXMXMXMXMXjXMXMXMXMXMXMXMXMXMXMXMXMXMXMXMXMXMXMXMXMXMXMXMXbXMXMXMXMXMXMXMXMXMXMXMXMXMXMXMXMXMXMXMXMXMX(.",
"(.MXMXMXMXMXMXMXMXMXMXMXMXMXMXMXMXMXMXMXMXMXMXMXMXMXMXMXMXMXMXMXMXMXMXMXMXMXMXMXMXMXMXMXMXMXMXMXMXMXMXMXMXMXMXMXMXMXMXMXMXMXMXMXMXMXMXMX(.",
"(.MXMXMXMXMXMXMXMXMXMXMXMXMXMXMXMXMXMXMXMXMXMXMXMXMXMXMXMXMXMXMXMXMXMXMXMXMXMXMXMXMXMXMXMXMXMXMXMXMXMXMXMXMXMXMXMXMXMXMXMXMXMXMXMXMXMXMX(.",
"(.MXMXMXMXMXMXMXMXMXMXMXMXMXMXMXMXMXMXMXMXMXMXMXMXMXMXMXMXMXMXMXMXMXMXMXMXMXMXMXMXMXMXMXMXMXMXMXMXMXMXMXMXMXMXMXMXMXMXMXMXMXMXMXMXMXMXMX(.",
"(.MXMXMXMXMXMXMXMXMXMXMXMXMXMXMXMXMXMXMXMXMXMXMXMXMXMXMXMXMXMXMXMXMXMXMXMXMXMXMXMXMXMXMXMXMXMXMXMXMXMXMXMXMXMXMXMXMXMXMXMXMXMXMXMXMXMXMX(.",
"(.MXMXMXMXMXMXMXMXMXMXMXMXMXMXMXMXMXMXMXMXMXMXMXMXMXMXMXMXMXMXMXMXMXMXMXMXMXMXMXMXMXMXMXMXMXMXMXMXMXMXMXMXMXMXMXMXMXMXMXMXMXMXMXMXMXMXMX(.",
"(.MXMXMXMXMXMXMXMXMXMXMXMXMXMXMXMXMXMXMXMXMXMXMXMXMXMXMXMXMXMXMXMXMXMXMXMXMXMXMXMXMXMXMXMXMXMXMXMXMXMXMXMXMXMXMXMXMXMXMXMXMXMXMXMXMXMXMX(.",
"(.MXMXMXMXMXMXMXMXMXMXMXMXMXMXMXMXMXMXMXMXMXMXMXMXMXMXMXMXMXMXMXMXMXMXMXMXMXMXMXMXMXMXMXMXMXMXMXMXMXMXMXMXMXMXMXMXMXMXMXMXMXMXMXMXMXMXMX(.",
"(.MXMXMXMXMXMXMXMXMXMXMXMXMXMXMXMXMXMXMXMXMXMXMXMXMXMXMXMXMXMXMXMXMXMXMXMXMXMXMXMXMXMXMXMXMXMXMXMXMXMXMXMXMXMXMXMXMXMXMXMXMXMXMXMXMXMXMX(.",
"(.MXMXMXMXMXMXMXMXMXMXMXMXMXMXMXMXMXMXMXMXMXMXMXMXMXMXMXMXMXMXMXMXMXMXMXMXMXMXMXMXMXMXMXMXMXMXMXMXMXMXMXMXMXMXMXMXMXMXMXMXMXMXMXMXMXMXMX(.",
"(.MXMXMXMXMXMXMXMXMXMXMXMXMXMXMXMXMXMXMXMXMXMXMXMXMXMXMXMXMXMXMXMXMXMXMXMXMXMXMXMXMXMXMXMXMXMXMXMXMXMXMXMXMXMXMXMXMXMXMXMXMXMXMXMXMXMXMX(.",
"(.MXMXMXMXMXMXMXMXMXMXMXMXMXMXMXMXMXMXMXMXMXMXMXMXMXMXMXMXMXMXMXMXMXMXMXMXMXMXMXMXMXMXMXMXMXMXMXMXMXMXMXMXMXMXMXMXMXMXMXMXMXMXMXMXMXMXMX(.",
"(.MXMXMXMXMXMXMXMXMXMXMXMXMXMXMXMXMXMXMXMXMXMXMXMXMXMXMXMXMXMXMXMXMXMXMXMXMXMXMXMXMXMXMXMXMXMXMXMXMXMXMXMXMXMXMXMXMXMXMXMXMXMXMXMXMXMXMX(.",
"(.MXMXMXMXMXMXMXMXMXMXMXMXMXMXMXMXMXMXMXMXMXMXMXMXMXMXMXMXMXMXMXMXMXMXMXMXMXMXMXMXMXMXMXMXMXMXMXMXMXMXMXMXMXMXMXMXMXMXMXMXfXcXMXMXMXMXMX(.",
"(.MXMXMXMXMXMXMXMXMXMXMXMXMXMXMXMXMXMXMXMXMXMXMXMXMXMXMXMXMXMXMXMXMXMXMXMXMXMXMXMXMXMXMXMXMXMXMXMXMXMXMXMXMXMXMXMXMXMXMXMXb.J.MXMXMXMXMX(.",
"(.MXMXMXMXMXMXMXMXMXMXMXMXMXMXMXMXMXMXMXMXMXA.MXMXMXMXMXMXMXMXMXMXMXMXMXMXMXMXMXMXMXMXMXMXMXiXMXMXMXMXMXMXMXMXMXMXMXMXMXlXp j cXMXMXMXMX(.",
"(.MXMXMXMXMXMXMXMXMXMXMXMXMXMXMXMXMXMXMXMXaX: 8XMXMXMXMXMXMXMXMXMXMXMXMXMXMXMXMXMXMXMXMXMXaX` MXMXMXMXMXMXMXMXMXMXMXMXMX@.    4.MXMXMXMX(.",
"(.MXMXMXMXMXMXMXMXMXMXMXMXMXMXMXMXMXMXMXMXu.  ,.MXMXMXMXMXMXMXMXMXMXMXMXMXMXMXMXMXMXMXMXMXz.@ 0XMXMXMXMXMXMXMXMXMXMXMXv.      . C.MXMXMX(.",
"(.MXMXMXMXMXMXMXMXMXMXMXMXMXMXMXMXMXMXMX9X:   # =XMXMXMXMXMXMXMXMXMXMXMXMXMXMXMXMXMXMXMXsXq   } MXMXMXMXMXMXMXMXMXMXW.@         & XXMXMX(.",
"(.MXMXMXMXMXMXMXMXMXMXMXMXMXMXMXMXMXMXmXI       M xXMXMXMXMXMXMXMXMXMXMXMXMXMXMXMXMXMXMX;.    . '.MXMXMXMXMXMXMXMX2X3             8 6XMX(.",
"(.MXMXMXMXMXMXMXMXMXMXMXMXMXMXMXMXMXMX0.          *.MXMXMXMXMXMXMXMXMXMXMXMXMXMXMXMXMXR.o       w eXMXMXMXMXMXMXzXf                 M mX(.",
"(.MXMXMXMXMXMXMXMXMXMXMXMXMXMXMXMXMXK.o             n.MXMXMXMXMXMXMXMXMXMXMXMXMXMXMX2X1           F vXMXMXMXMXMXM.                    U.(.",
"(.MXMXMXMXMXMXMXMXMXMXMXMXMXMXMXMXoX=               @ T.MXMXMXMXMXMXMXMXMXMXMXMXMXpXj               ..MXMXMXMXMX5.                    h.(.",
"(.MXMXMXMXMXMXMXMXMXMXMXMXMXMXMX<X5                   : #XMXMXMXMXMXMXMXMXMXMXMXlXC                   e.MXMXMXMXI.        v t       . oX(.",
"(.MXMXMXMXMXMXMXMXMXMXMXMXMXMXrXi                       0 6XMXMXMXMXMXMXMXMXMXbX~                     . M.MXMXMXMX<.O   3 OXQ.-   % u.MX(.",
"(.MXMXMXMXMXMXMXMXMXMXMXMXMXbXH                           v lXMXMXMXMXMXMXMXMX<.                        # {.MXMXMXMXyX@XfXMXMXaX@XpXMXMX(.",
"(.MXMXMXMXMXMXMXMXMXMXMXMXMXe.                              >.MXMXMXMXMXMXMXG..                           0 wXMXMXMXMXMXMXMXMXMXMXMXMXMX(.",
"(.MXMXMXMXMXMXMXMXMXMXMXMX9X-                               $ 1XMXMXMXMXMXdX8                               [ MXMXMXMXMXMXMXo.X.MXMXMXMX(.",
"(.MXMXMXMXMXMXMXMXMXMXMXMXt.                                  1.MXMXMXMXMXq.                                X :XMXMXMXMXMXMXY 9.MXMXMXMX(.",
"(.MXMXMXMXMXMXMXMXMXMXMXMX .                                  ~ MXMXMXMXMXB                                   g.MXMXMXMXMXMX9 _.MXMXMXMX(.",
"(.MXMXMXMXMXMXMXMXMXMXMXMX<.                %                 +.MXMXMXMXMXc                                   i.MXMXMXMXMXXX3 cXMXMXMXMX(.",
"(.MXMXMXMXMXMXMXMXMXMXMXMX`.                t.                K.MXMXMXMXMX[                 j                 I.MXMXMXMXMX| 8.MXMXMXMXMX(.",
"(.MXMXMXMXMXMXMXMXMXMXMXMXMX!             N MXJ             G mXMXMXMXMXMX}..             a XX              i zXMXMXMXMX<X3 uXMXMXMXMXMX(.",
"(.MXMXMXMXMXMXMXMXMXMXMXMXMXjX&.#       Z 0XMXtXH       @ X.dXMXMXMXMXMXMXMXp.X         & !.MX*.          5 +XMXMXMXMXMXR k.MXMXMXMXMXMX(.",
"(.MXMXMXMXMXMXMXMXMXMXMXMXMXMXMXyXU.D.$XMXMXMXMXMX=XF.P.eXMXMXMXMXMXMXMXMXMXMX X' f f ` #XMXMXMXN.D i n 2.wXMXMXMXMXMXH.n bXMXMXMXMXMXMX(.",
"(.MXMXMXMXMXMXMXMXMXMXMXMXMXMXMXMXMXMXMXMXMXMXMXMXMXMXMXMXMXMXMXMXMXMXMXMXMXMXMXMXMXMXMXMXMXMXMXMXMXMXMXMXMXMXMXMXMXMX! + $ $ $ $ F.MXMX(.",
"(.MXMXMXMXMXMXMXMXMXMXMXMXMXMXMXMXMXMXMXMXMXMXMXMXMXMXMXMXMXMXMXMXMXMXMXMXMXMXMXMXMXMXMXMXMXMXMXMXMXMXMXMXMXMXMXMXMXMXMXMXMXMXMXMXMXMXMX(.",
"^.nXMXMXMXMXMXMXMXMXMXMXMXMXMXMXMXMXMXMXMXMXMXMXMXMXMXMXMXMXMXMXMXMXMXMXMXMXMXMXMXMXMXMXMXMXMXMXMXMXMXMXMXMXMXMXMXMXMXMXMXMXMXMXMXMXMXnX/.",
"kX~.(.).).).).).).).).).).).).).).).).).).).).).).).).).).).).).).).).).).).).).).).).).).).).).).).).).).).).).).).).).).).).).).).(.~.kX"
};
