/* XPM */
static const char *seven_spades[] = {
/* columns rows colors chars-per-pixel */
"69 100 237 2 ",
"   c black",
".  c #010101",
"X  c #020202",
"o  c gray1",
"O  c #040404",
"+  c gray2",
"@  c #060606",
"#  c #070707",
"$  c gray3",
"%  c #090909",
"&  c gray4",
"*  c #0B0B0B",
"=  c #0C0C0C",
"-  c gray5",
";  c #0E0E0E",
":  c gray6",
">  c #101010",
",  c #111111",
"<  c gray7",
"1  c #131313",
"2  c gray8",
"3  c #151515",
"4  c #161616",
"5  c gray9",
"6  c #181818",
"7  c #191919",
"8  c gray10",
"9  c #1B1B1B",
"0  c gray11",
"q  c #1D1D1D",
"w  c #1E1E1E",
"e  c gray12",
"r  c gray13",
"t  c #222222",
"y  c #232323",
"u  c gray14",
"i  c #252525",
"p  c gray15",
"a  c #272727",
"s  c #282828",
"d  c gray16",
"f  c #2A2A2A",
"g  c gray17",
"h  c #2C2C2C",
"j  c #2D2D2D",
"k  c gray18",
"l  c #2F2F2F",
"z  c gray19",
"x  c #313131",
"c  c #323232",
"v  c gray20",
"b  c gray21",
"n  c gray22",
"m  c #393939",
"M  c #3A3A3A",
"N  c gray23",
"B  c #3C3C3C",
"V  c gray24",
"C  c #3E3E3E",
"Z  c #3F3F3F",
"A  c gray25",
"S  c #414141",
"D  c gray26",
"F  c #434343",
"G  c #444444",
"H  c gray27",
"J  c #464646",
"K  c gray28",
"L  c #484848",
"P  c #494949",
"I  c #4C4C4C",
"U  c gray30",
"Y  c #4E4E4E",
"T  c gray31",
"R  c #505050",
"E  c gray32",
"W  c #535353",
"Q  c gray33",
"!  c #555555",
"~  c #565656",
"^  c gray34",
"/  c #585858",
"(  c gray35",
")  c #5A5A5A",
"_  c #5B5B5B",
"`  c gray36",
"'  c #5D5D5D",
"]  c gray37",
"[  c #5F5F5F",
"{  c #606060",
"}  c gray38",
"|  c #626262",
" . c gray39",
".. c #646464",
"X. c #656565",
"o. c gray40",
"O. c #676767",
"+. c #686868",
"@. c #6A6A6A",
"#. c gray42",
"$. c #6C6C6C",
"%. c #6D6D6D",
"&. c gray43",
"*. c #6F6F6F",
"=. c gray44",
"-. c #717171",
";. c #727272",
":. c gray45",
">. c #747474",
",. c gray46",
"<. c #777777",
"1. c gray47",
"2. c #797979",
"3. c #7B7B7B",
"4. c #7C7C7C",
"5. c gray49",
"6. c #7E7E7E",
"7. c gray50",
"8. c #808080",
"9. c #818181",
"0. c gray51",
"q. c #838383",
"w. c #848484",
"e. c #868686",
"r. c gray53",
"t. c #888888",
"y. c #898989",
"u. c #8B8B8B",
"i. c gray55",
"p. c #8D8D8D",
"a. c #8E8E8E",
"s. c gray56",
"d. c #909090",
"f. c gray57",
"g. c #929292",
"h. c #939393",
"j. c gray58",
"k. c #959595",
"l. c #979797",
"z. c #989898",
"x. c gray60",
"c. c #9A9A9A",
"v. c #9B9B9B",
"b. c #9D9D9D",
"n. c gray62",
"m. c gray63",
"M. c #A2A2A2",
"N. c gray64",
"B. c #A4A4A4",
"V. c gray65",
"C. c #A7A7A7",
"Z. c gray66",
"A. c #A9A9A9",
"S. c #AAAAAA",
"D. c gray67",
"F. c #ACACAC",
"G. c gray68",
"H. c #AEAEAE",
"J. c #AFAFAF",
"K. c gray69",
"L. c #B1B1B1",
"P. c gray70",
"I. c #B4B4B4",
"U. c gray71",
"Y. c #B6B6B6",
"T. c #B7B7B7",
"R. c gray72",
"E. c #B9B9B9",
"W. c gray73",
"Q. c #BBBBBB",
"!. c #BCBCBC",
"~. c gray74",
"^. c gray",
"/. c gray75",
"(. c #C0C0C0",
"). c #C1C1C1",
"_. c gray76",
"`. c #C3C3C3",
"'. c gray77",
"]. c #C5C5C5",
"[. c #C6C6C6",
"{. c gray78",
"}. c #C8C8C8",
"|. c gray79",
" X c #CACACA",
".X c #CBCBCB",
"XX c gray80",
"oX c #CDCDCD",
"OX c #CECECE",
"+X c gray81",
"@X c #D0D0D0",
"#X c gray82",
"$X c #D2D2D2",
"%X c LightGray",
"&X c gray83",
"*X c #D5D5D5",
"=X c gray84",
"-X c #D7D7D7",
";X c #D8D8D8",
":X c gray85",
">X c #DADADA",
",X c gainsboro",
"<X c #DDDDDD",
"1X c gray87",
"2X c #DFDFDF",
"3X c gray88",
"4X c #E1E1E1",
"5X c #E2E2E2",
"6X c gray89",
"7X c #E4E4E4",
"8X c gray90",
"9X c #E6E6E6",
"0X c #E7E7E7",
"qX c gray91",
"wX c #E9E9E9",
"eX c #EAEAEA",
"rX c gray92",
"tX c #ECECEC",
"yX c gray93",
"uX c #EEEEEE",
"iX c #EFEFEF",
"pX c gray94",
"aX c #F1F1F1",
"sX c gray95",
"dX c #F3F3F3",
"fX c #F4F4F4",
"gX c gray96",
"hX c #F6F6F6",
"jX c gray97",
"kX c #F8F8F8",
"lX c #F9F9F9",
"zX c gray98",
"xX c #FBFBFB",
"cX c gray99",
"vX c #FDFDFD",
"bX c #FEFEFE",
"nX c white",
/* pixels */
"zX_..XXXXXXXXXXXXXXXXXXXXXXXXXXXXXXXXXXXXXXXXXXXXXXXXXXXXXXXXXXXXXXXXXXXXXXXXXXXXXXXXXXXXXXXXXXXXXXXXXXXXXXXXXXXXXXXXXXXXXXXXXXXXXXX.X_.zX",
"`.bXnXnXnXnXnXnXnXnXnXnXnXnXnXnXnXnXnXnXnXnXnXnXnXnXnXnXnXnXnXnXnXnXnXnXnXnXnXnXnXnXnXnXnXnXnXnXnXnXnXnXnXnXnXnXnXnXnXnXnXnXnXnXnXnXnXbX'.",
".XnXnXnXnXnXnXnXnXnXnXnXnXnXnXnXnXnXnXnXnXnXnXnXnXnXnXnXnXnXnXnXnXnXnXnXnXnXnXnXnXnXnXnXnXnXnXnXnXnXnXnXnXnXnXnXnXnXnXnXnXnXnXnXnXnXnXnX.X",
".XnXnXnXH.# # # # O Q nXnXnXnXnXnXnXnXnXnXnXnXnXnXnXnXnXnXnXnXnXnXnXnXnXnXnXnXnXnXnXnXnXnXnXnXnXnXnXnXnXnXnXnXnXnXnXnXnXnXnXnXnXnXnXnXnX.X",
".XnXnXnXnXnXnXnXvXn K.nXnXnXnXnXnXnXnXnXnXnXnXnXnXnXnXnXnXnXnXnXnXnXnXnXnXnXnXnXnXnXnXnXnXnXnXnXnXnXnXnXnXnXnXnXnXnXnXnXnXnXnXnXnXnXnXnX.X",
".XnXnXnXnXnXnXnXh.R nXnXnXnXnXnXnXnXnXnXnXnXnXnXnXnXnXnXnXnXnXnXnXnXnXnXnXnXnXnXnXnXnXnXnXnXnXnXnXnXnXnXnXnXnXnXnXnXnXnXnXnXnXnXnXnXnXnX.X",
".XnXnXnXnXnXnXyX2 <XnXnXnXnXnXnXnXnXnXnXnXnXnXnXnXnXnXnXnXnXnXnXnXnXnXnXnXnXnXnXnXnXnXnXnXnXnXnXnXnXnXnXnXnXnXnXnXnXnXnXnXnXnXnXnXnXnXnX.X",
".XnXnXnXnXnXnX5.o.nXnXnXnXnXnXnXnXnXnXnXnXnXbXnXnXnXnXnXnXnXnXnXnXnXnXnXnXnXnXnXnXnXnXnXnXnXxXnXnXnXnXnXnXnXnXnXnXnXnXnXnXnXnXnXnXnXnXnX.X",
".XnXnXnXnXnXzX, oXnXnXnXnXnXnXnXnXnXnXnXnXnX;.vXnXnXnXnXnXnXnXnXnXnXnXnXnXnXnXnXnXnXnXnXnXzX{ nXnXnXnXnXnXnXnXnXnXnXnXnXnXnXnXnXnXnXnXnX.X",
".XnXnXnXnXnX!.q nXnXnXnXnXnXnXnXnXnXnXnXnXF.  e.nXnXnXnXnXnXnXnXnXnXnXnXnXnXnXnXnXnXnXnXnX<.  c.nXnXnXnXnXnXnXnXnXnXnXnXnXnXnXnXnXnXnXnX.X",
".XnXnXnXnXnX8.R nXnXnXnXnXnXnXnXnXnXnXnX>X>   + `.nXnXnXnXnXnXnXnXnXnXnXnXnXnXnXnXnXnXnXU.X   & @XnXnXnXnXnXnXnXnXnXnXnXnXnXnXnXnXnXnXnX.X",
".XnXnXnXnXnX..+.nXnXnXnXnXnXnXnXnXnXnXdXh       5 5XnXnXnXnXnXnXnXnXnXnXnXnXnXnXnXnXnX:X>       e eXnXnXnXnXnXnXnXnXnXnXnXnXnXnXnXnXnXnX.X",
".XnXnXnXnXnXlXsXnXnXnXnXnXnXnXnXnXnXbXQ           x gXnXnXnXnXnXnXnXnXnXnXnXnXnXnXnXsXg           B zXnXnXnXnXnXnXnXnXnXnXnXnXnXnXnXnXnX.X",
".XnXnXnXnXnXe.>.nXnXnXnXnXnXnXnXnXnX8.              ] nXnXnXnXnXnXnXnXnXnXnXnXnXnXvXY               =.nXnXnXnXnXnXnXnXnXnXnXnXnXnXnXnXnX.X",
".XnXnXnXnX`.+ . S.nXnXnXnXnXnXnXnXI.X                 k.nXnXnXnXnXnXnXnXnXnXnXnXnX0.                  M.nXnXnXnXnXnXnXnXnXnXnXnXnXnXnXnX.X",
".XnXnXnX4X3     = &XnXnXnXnXnXnX1X<                   # |.nXnXnXnXnXnXnXnXnXnXnXQ.o                   = -XnXnXnXnXnXnXnXnXnXnXnXnXnXnXnX.X",
".XnXnXxXm         f gXnXnXnXnXvXC                       r dXnXnXnXnXnXnXnXnXnXiX0                       x lXnXnXnXnXnXnXnXnXnXnXnXnXnXnX.X",
".XnXnX<.            o.nXnXnXnXi.                          @.nXnXnXnXnXnXnXnXnX`                           7.nXnXnXnXnXnXnXnXnXnXnXnXnXnX.X",
".XnX}.X               T.nXnXeX-                           X +XnXnXnXnXnXnXnX|..                           $ 5XnXnXnXnXnXnXnXnXnXnXnXnXnX.X",
".XnXY                 N nXnX=.                              U nXnXnXnXnXnXnXF                               o.nXnXnXnXnXnXnXnXnXnXnXnXnX.X",
".XnXq       @ @       & nXnX8                               O pXnXnXnXnXnXiXo                               1 vXnXnXnXnXnXnXnXnXnXnXnXnX.X",
".XnXW     u  .! f     D nX4X                                  !.nXnXnXnXnX!.                                  <XnXnXnXnXnXnXnXnXnXnXnXnX.X",
".XnXiX8.2.eXl q tX5.3.eXnXqX              C   M               ].nXnXnXnXnX}.            X P   J             . rXnXnXnXnXnXnXnXnXnXnXnXnX.X",
".XnXnXnXnX#X    ~.nXnXnXnXnXv           ( j.  ;.#.          7 kXnXnXnXnXnXzXe           p.&.  d.)           C nXnXnXnXnXnXnXnXnXnXnXnXnX.X",
".XnXnXnXnXL.<.<.V.nXnXnXnXnX%X9       | lXY   g cX*.      : ~.nXnXnXN.nXnXnX|.7     O j.nXi   K zXO.      d 1XnXnXnXnXnXnXnXnXnXnXnXnXnX.X",
".XnXnXnXnXnXnXnXnXnXnXnXnXnXnXdXS.r.!.nXgX&     ,XnX[.y.B.tXnXnXnXE.+ '.nXnXnXgXE.n.,XnX=X    # aXnXoXn./.xXnXnXnXnXnXnXnXnXnXnXnXnXnXnX.X",
".XnXnXnXnXnXnXnXnXnXnXnXnXnXnXnXnXnXnXnXm.      6.nXnXnXnXnXnXnX9X6   e tXnXnXnXnXnXnXnX,.      z.nXnXnXnXnXnXnXnXnXnXnXnXnXnXnXnXnXnXnX.X",
".XnXnXnXnXnXnXnXnXnXnXnXnXnXnXnXnXnXnXnXN       9 xXnXnXnXnXnXzXV       F xXnXnXnXnXnXkX4       c nXnXnXnXnXnXnXnXnXnXnXnXnXnXnXnXnXnXnX.X",
".XnXnXnXnXnXnXnXnXnXnXnXnXnXnXnXnXnXnX{.t t t t t A.nXnXnXnXnXX.          ;.nXnXnXnXnXY.G G G G G +XnXnXnXnXnXnXnXnXnXnXnXnXnXnXnXnXnXnX.X",
".XnXnXnXnXnXnXnXnXnXnXnXnXnXnXnXnXnXnXnXnXnXnXnXnXnXnXnXnXnXk.              n.nXnXnXnXnXnXnXnXnXnXnXnXnXnXnXnXnXnXnXnXnXnXnXnXnXnXnXnXnX.X",
".XnXnXnXnXnXnXnXnXnXnXnXnXnXnXnXnXnXnXnXnXnXnXnXnXnXnXnXnX].@               % +XnXnXnXnXnXnXnXnXnXnXnXnXnXnXnXnXnXnXnXnXnXnXnXnXnXnXnXnX.X",
".XnXnXnXnXnXnXnXnXnXnXnXnXnXnXnXnXnXnXnXnXnXnXnXnXnXnXnXwX9                   u iXnXnXnXnXnXnXnXnXnXnXnXnXnXnXnXnXnXnXnXnXnXnXnXnXnXnXnX.X",
".XnXnXnXnXnXnXnXnXnXnXnXnXnXnXnXnXnXnXnXnXnXnXnXnXnXnXbXP                       / nXnXnXnXnXnXnXnXnXnXnXnXnXnXnXnXnXnXnXnXnXnXnXnXnXnXnX.X",
".XnXnXnXnXnXnXnXnXnXnXnXnXnXnXnXnXnXnXnXnXnXnXnXnXnXnXx.                          Z.nXnXnXnXnXnXnXnXnXnXnXnXnXnXnXnXnXnXnXnXnXnXnXnXnXnX.X",
".XnXnXnXnXnXnXnXnXnXnXnXnXnXnXnXnXnXnXnXnXnXnXnXnXnXtX:                           4 sXnXnXnXnXnXnXnXnXnXnXnXnXnXnXnXnXnXnXnXnXnXnXnXnXnX.X",
".XnXnXnXnXnXnXnXnXnXnXnXnXnXnXnXnXnXnXnXnXnXnXnXnXnX>.                              0.nXnXnXnXnXnXnXnXnXnXnXnXnXnXnXnXnXnXnXnXnXnXnXnXnX.X",
".XnXnXnXnXnXnXnXnXnXnXnXnXnXnXnXnXnXnXnXnXnXnXnXnXvX1                               9 nXnXnXnXnXnXnXnXnXnXnXnXnXnXnXnXnXnXnXnXnXnXnXnXnX.X",
".XnXnXnXnXnXnXnXnXnXnXnXnXnXnXnXnXnXnXnXnXnXnXnXnX#X                                  ,XnXnXnXnXnXnXnXnXnXnXnXnXnXnXnXnXnXnXnXnXnXnXnXnX.X",
".XnXnXnXnXnXnXnXnXnXnXnXnXnXnXnXnXnXnXnXnXnXrXnXnX|.              r   e               *XnXnX6XnXnXnXnXnXnXnXnXnXnXnXnXnXnXnXnXnXnXnXnXnX.X",
".XnXnXnXnXnXnXnXnXnXnXnXnXnXnXnXnXnXnXnXnXxXM 0XnXgX;           G w.  u.z           3 xXnXqXf pXnXnXnXnXnXnXnXnXnXnXnXnXnXnXnXnXnXnXnXnX.X",
".XnXnXnXnXnXnXnXnXnXnXnXnXnXnXnXnXnXnXnXnX3.  K bXnXv.X       D iXL   Q 5Xk       o Z.nXbXP   ) nXnXnXnXnXnXnXnXnXnXnXnXnXnXnXnXnXnXnXnX.X",
".XnXnXnXnXnXnXnXnXnXnXnXnXnXnXnXnXnXnXnXR.o     9.nXnX[.$.Y a.zXdX$   - lXdXw.Y &.XXnXnX8.      h.nXnXnXnXnXnXnXnXnXnXnXnXnXnXnXnXnXnXnX.X",
".XnXnXnXnXnXnXnXnXnXnXnXnXnXnXnXnXnXnX:X>       . D.nXnXnXnXnXnXm.      G.nXnXnXnXnXnXL.X       O ^.nXnXnXnXnXnXnXnXnXnXnXnXnXnXnXnXnXnX.X",
".XnXnXnXnXnXnXnXnXnXnXnXnXnXnXnXnXnXsXf           - &XnXnXnXnXnXM       K nXnXnXnXnX;X:           1 1XnXnXnXnXnXnXnXnXnXnXnXnXnXnXnXnXnX.X",
".XnXnXnXnXnXnXnXnXnXnXnXnXnXnXnXnXbXY               p pXnXnXnX).        X XXnXnXnXaXa               c jXnXnXnXnXnXnXnXnXnXnXnXnXnXnXnXnX.X",
".XnXnXnXnXnXnXnXnXnXnXnXnXnXnXnXnXq.                  Y bXnXnXfXuXuXuXuXuXgXnXnXbXQ                    .nXnXnXnXnXnXnXnXnXnXnXnXnXnXnXnX.X",
".XnXnXnXnXnXnXnXnXnXnXnXnXnXnXnX~.o                     a.nXnXnXnXnXnXnXnXnXnXnXa.                      m.nXnXnXnXnXnXnXnXnXnXnXnXnXnXnX.X",
".XnXnXnXnXnXnXnXnXnXnXnXnXnXnXpXw                       # $XnXnXnXnXnXnXnXnXnX=X$                       ; 3XnXnXnXnXnXnXnXnXnXnXnXnXnXnX.X",
".XnXnXnXnXnXnXnXnXnXnXnXnXnXnX..                          c cXnXnXnXnXnXnXnXbXb                           K nXnXnXnXnXnXnXnXnXnXnXnXnXnX.X",
".XnXnXnXnXnXnXnXnXnXnXnXnXnX%XX                             m.nXnXnXnXnXnXnXC.                              W.nXnXnXnXnXnXnXnXnXnXnXnXnX.X",
".XnXnXnXnXnXnXnXnXnXnXnXnXnX/                               y nXnXnXnXnXnXnXj                               Z nXnXnXnXnXnXnXnXnXnXnXnXnX.X",
".XnXnXnXnXnXnXnXnXnXnXnXnXcX,                                 ;XnXnXnXnXnX8X                                O aXnXnXnXnXnXnXnXnXnXnXnXnX.X",
".XnXnXnXnXnXnXnXnXnXnXnXnX8X              .   .               H.nXnXnXnXnX).              O   O               $XnXnXnXnXnXnXnXnXnXnXnXnX.X",
".XnXnXnXnXnXnXnXnXnXnXnXnXjX$           o *.  ' ;              XnXnXnXnXnX3X            < *.  =.$           o iXnXnXnXnXnXnXnXnXnXnXnXnX.X",
".XnXnXnXnXnXnXnXnXnXnXnXnXnXX.        . g.i.  ^ L.+         v vXnXnXnXnXnXnXT         * /. .  >.N.o         | nXnXnXnXnXnXnXnXnXnXnXnXnX.X",
".XnXnXnXnXnXnXnXnXnXnXnXnXnXhX} o   > C.nXA   > zX^.0     F 6XnXnXnXnXnXnXnXsX} %   f OXvX7   a nXT.e   * $.hXnXnXnXnXnXnXnXnXnXnXnXnXnX.X",
".XnXnXnXnXnXnXnXnXnXnXnXnXnXnXnXgX&XgXnXrXO     E.nXxX*XuXnXnXnXnXnXnXnXnXnXnXnXvXwXnXnX].      *XnXnXqXbXnXnXnXnXnXnXnXnXnXnXnXnXnXnXnX.X",
".XnXnXnXnXnXnXnXnXnXnXnXnXnXnXnXnXnXnXnXu.      ^ nXnXnXnXnXnXnXnXnXnXnXnXnXnXnXnXnXnXnX[       ;.nXnXnXnXnXnXnXnXnXnXnXnXnXnXnXnXnXnXnX.X",
".XnXnXnXnXnXnXnXnXnXnXnXnXnXnXnXnXnXnXcXi       @ 9XnXnXnXnXnXnXnXnXnXnXnXnXnXnXnXnXnXeX&       1 dXnXnXnXnXnXnXnXnXnXnXnXnXnXnXnXnXnXnX.X",
".XnXnXnXnXnXnXnXnXnXnXnXnXnXnXnXnXnXnX-X<.<.<.<.<.W.nXnXnXnXnXnXnXnXnXnXnXnXnXnXnXnXnX{.t.t.t.t.t.+XnXnXnXnXnXnXnXnXnXnXnXnXnXnXnXnXnXnX.X",
".XnXnXnXnXnXnXnXnXnXnXnXnXnXnXnXnXnXnXnXnXnXnXnXnXnXnXnXnXnXnXnXnXnXnXnXnXnXnXnXnXnXnXnXnXnXnXnXnXnXnXnXnXnXnXnXnXnXnXnXnXnXnXnXnXnXnXnX.X",
".XnXnXnXnXnXnXnXnXnXnXnXnXnXnXnXnXnXnXnXnXnXnXnXnXnXnXnXnXnXnXnXnXnXnXnXnXnXnXnXnXnXnXnXnXnXnXnXnXnXnXnXnXnXnXnXnXnXnXnXnXnXnXnXnXnXnXnX.X",
".XnXnXnXnXnXnXnXnXnXnXnXnXnXnXnXnXnXnXnXnXnXnXnXnXnXnXnXnXnXnXnXnXnXnXnXnXnXnXnXnXnXnXnXnXnXnXnXnXnXnXnXnXnXnXnXnXnXnXnXnXnXnXnXnXnXnXnX.X",
".XnXnXnXnXnXnXnXnXnXnXnXnXnXnXnXnXnXnXnXnXnXnXnXnXnXnXnXnXnXnXnXnXnXnXnXnXnXnXnXnXnXnXnXnXnXnXnXnXnXnXnXnXnXnXnXnXnXnXnXnXnXnXnXnXnXnXnX.X",
".XnXnXnXnXnXnXnXnXnXnXnXnXnXnXnXnXnXnXnXnXnXnXnXnXnXnXnXnXnXnXnXnXnXnXnXnXnXnXnXnXnXnXnXnXnXnXnXnXnXnXnXnXnXnXnXnXnXnXnXnXnXnXnXnXnXnXnX.X",
".XnXnXnXnXnXnXnXnXnXnXnXnXnXnXnXnXnXnXnXnXnXnXnXnXnXnXnXnXnXnXnXnXnXnXnXnXnXnXnXnXnXnXnXnXnXnXnXnXnXnXnXnXnXnXnXnXnXnXnXnXnXnXnXnXnXnXnX.X",
".XnXnXnXnXnXnXnXnXnXnXnXnXnXnXnXnXnXnXnXnXnXnXnXnXnXnXnXnXnXnXnXnXnXnXnXnXnXnXnXnXnXnXnXnXnXnXnXnXnXnXnXnXnXnXnXnXnXnXnXnXnXnXnXnXnXnXnX.X",
".XnXnXnXnXnXnXnXnXnXnXnXnXnXnXnXnXnXnXnXnXnXnXnXnXnXnXnXnXnXnXnXnXnXnXnXnXnXnXnXnXnXnXnXnXnXnXnXnXnXnXnXnXnXnXnXnXnXnXnXnXnXnXnXnXnXnXnX.X",
".XnXnXnXnXnXnXnXnXnXnXnXnXnXnXnXnXnXnXnXnXnXnXnXnXnXnXnXnXnXnXnXnXnXnXnXnXnXnXnXnXnXnXnXnXnXnXnXnXnXnXnXnXnXnXnXnXnXnXnXnXnXnXnXnXnXnXnX.X",
".XnXnXnXnXnXnXnXnXnXnXnXnXnXnXnXnXnXnXnXnXnXnXnXnXnXnXnXnXnXnXnXnXnXnXnXnXnXnXnXnXnXnXnXnXnXnXnXnXnXnXnXnXnXnXnXnXnXnXnXnXnXnXnXnXnXnXnX.X",
".XnXnXnXnXnXnXnXnXnXnXnXnXnXnXnXnXnXnXnXnXnXnXnXnXnXnXnXnXnXnXnXnXnXnXnXnXnXnXnXnXnXnXnXnXnXnXnXnXnXnXnXnXnXnXnXnXnXnXnXnXnXnXnXnXnXnXnX.X",
".XnXnXnXnXnXnXnXnXnXnXnXnXnXnXnXnXnXnXOX! ! ! ! ! K.nXnXnXnXnXnXnXnXnXnXnXnXnXnXnXnXnXY.G G G G G |.nXnXnXnXnXnXnXnXnXnXnXnXnXnXnXnXnXnX.X",
".XnXnXnXnXnXnXnXnXnXnXnXnXnXnXnXnXnXnXbXh       - aXnXnXnXnXnXnXnXnXnXnXnXnXnXnXnXnXnXlX5       h bXnXnXnXnXnXnXnXnXnXnXnXnXnXnXnXnXnXnX.X",
".XnXnXnXnXnXnXnXnXnXnXnXnXnXnXnXnXnXnXnXg.      o.nXnXnXnXnXnXnXnXnXnXnXnXnXnXnXnXnXnXnX<.      g.nXnXnXnXnXnXnXnXnXnXnXnXnXnXnXnXnXnXnX.X",
".XnXnXnXnXnXnXnXnXnXnXnXnXnXnXnX,XE.6XnXiX@     {.nXuXE.%XvXnXnXnXnXnXnXnXnXnXkX(.B.<XnX:X    + yXnX=XN.].cXnXnXnXnXnXnXnXnXnXnXnXnXnXnX.X",
".XnXnXnXnXnXnXnXnXnXnXnXnXnXrXS     O 6.bXH   7 bXL.:     f -XnXnXnXnXnXnXnX+Xe     o e.bXs   S bX9..     g 1XnXnXnXnXnX].S.S.{.nXnXnXnX.X",
".XnXnXnXnXnXnXnXnXnXnXnXnXnXT           #.s.   .Z.X         a xXnXnXnXnXnXcXu           4.-.  u.,.          B nXnXnXnXnXJ.    Y.nXnXnXnX.X",
".XnXnXnXnXnXnXnXnXnXnXnXnXaXo             /   ~ %             }.nXnXnXnXnXoX            . P   R               0XnXxXS.A.hX4 0 kXC.G.cXnX.X",
".XnXnXnXnXnXnXnXnXnXnXnXnX4X                                  P.nXnXnXnXnX(.                                  ;XnX'     H ) } K     o.nX.X",
".XnXnXnXnXnXnXnXnXnXnXnXnXvX2                                 5XnXnXnXnXnXpXo                               > cXnX,       , <       6 nX.X",
".XnXnXnXnXnXnXnXnXnXnXnXnXnX{                               v nXnXnXnXnXnXnXJ                               { nXnXc                 M nX.X",
".XnXnXnXnXnXnXnXnXnXnXnXnXnX2X@                             Y.nXnXnXnXnXnXnX.X.                           + <XnXnXB.                F.nX.X",
".XnXnXnXnXnXnXnXnXnXnXnXnXnXnX:.                          J nXnXnXnXnXnXnXnXnX'                           1.nXnXnXbXY             E nXnX.X",
".XnXnXnXnXnXnXnXnXnXnXnXnXnXnXkXg                       : 5XnXnXnXnXnXnXnXnXnXpXq                       f jXnXnXnXnXeX7         0 tXnXnX.X",
".XnXnXnXnXnXnXnXnXnXnXnXnXnXnXnX.X#                     Z.nXnXnXnXnXnXnXnXnXnXnX!.o                   % #XnXnXnXnXnXnX(.+     @ [.nXnXnX.X",
".XnXnXnXnXnXnXnXnXnXnXnXnXnXnXnXnXl.                  %.nXnXnXnXnXnXnXnXnXnXnXnXnXw.                  n.nXnXnXnXnXnXnXnXg.    c.nXnXnXnX.X",
".XnXnXnXnXnXnXnXnXnXnXnXnXnXnXnXnXnX[               m lXnXnXnXnXnXnXnXnXnXnXnXnXnXbXY               o.nXnXnXnXnXnXnXnXnXnX_  .nXnXnXnXnX.X",
".XnXnXnXnXnXnXnXnXnXnXnXnXnXnXnXnXnXjXb           6 7XnXnXnXnXnXnXnXnXnXnXnXnXnXnXnXsXg           m kXnXnXnXnXnXnXnXnXnXnXeXuXnXnXnXnXnX.X",
".XnXnXnXnXnXnXnXnXnXnXnXnXnXnXnXnXnXnX9X8       + `.nXnXnXnXnXnXnXnXnXnXnXnXnXnXnXnXnX:X>       7 8XnXnXnXnXnXnXnXnXnXnXnXnXnXnXnXnXnXnX.X",
".XnXnXnXnXnXnXnXnXnXnXnXnXnXnXnXnXnXnXnX'.@     b.nXnXnXnXnXnXnXnXnXnXnXnXnXnXnXnXnXnXnXI.X   # |.nXnXnXnXnXnXnXnXnXnXnXnXnXO.o.nXnXnXnX.X",
".XnXnXnXnXnXnXnXnXnXnXnXnXnXnXnXnXnXnXnXnXu.  { nXnXnXnXnXnXnXnXnXnXnXnXnXnXnXnXnXnXnXnXnX<.  f.nXnXnXnXnXnXnXnXnXnXnXnXnXnXY 0.nXnXnXnX.X",
".XnXnXnXnXnXnXnXnXnXnXnXnXnXnXnXnXnXnXnXnXbXI sXnXnXnXnXnXnXnXnXnXnXnXnXnXnXnXnXnXnXnXnXnXzX( bXnXnXnXnXnXnXnXnXnXnXnXnXnXnX8 (.nXnXnXnX.X",
".XnXnXnXnXnXnXnXnXnXnXnXnXnXnXnXnXnXnXnXnXnXfXnXnXnXnXnXnXnXnXnXnXnXnXnXnXnXnXnXnXnXnXnXnXnXlXnXnXnXnXnXnXnXnXnXnXnXnXnXnX.X2 xXnXnXnXnX.X",
".XnXnXnXnXnXnXnXnXnXnXnXnXnXnXnXnXnXnXnXnXnXnXnXnXnXnXnXnXnXnXnXnXnXnXnXnXnXnXnXnXnXnXnXnXnXnXnXnXnXnXnXnXnXnXnXnXnXnXnXnX .9.nXnXnXnXnX.X",
".XnXnXnXnXnXnXnXnXnXnXnXnXnXnXnXnXnXnXnXnXnXnXnXnXnXnXnXnXnXnXnXnXnXnXnXnXnXnXnXnXnXnXnXnXnXnXnXnXnXnXnXnXnXnXnXnXnXnXnX,X2 uXnXnXnXnXnX.X",
".XnXnXnXnXnXnXnXnXnXnXnXnXnXnXnXnXnXnXnXnXnXnXnXnXnXnXnXnXnXnXnXnXnXnXnXnXnXnXnXnXnXnXnXnXnXnXnXnXnXnXnXnXnXnXnXnXnXnXnXR k.nXnXnXnXnXnX.X",
".XnXnXnXnXnXnXnXnXnXnXnXnXnXnXnXnXnXnXnXnXnXnXnXnXnXnXnXnXnXnXnXnXnXnXnXnXnXnXnXnXnXnXnXnXnXnXnXnXnXnXnXnXnXnXnXnXnXnXK.n vXnXnXnXnXnXnX.X",
".XnXnXnXnXnXnXnXnXnXnXnXnXnXnXnXnXnXnXnXnXnXnXnXnXnXnXnXnXnXnXnXnXnXnXnXnXnXnXnXnXnXnXnXnXnXnXnXnXnXnXnXnXnXnXnXnXnXnXQ O # # # # H.nXnX.X",
"`.bXnXnXnXnXnXnXnXnXnXnXnXnXnXnXnXnXnXnXnXnXnXnXnXnXnXnXnXnXnXnXnXnXnXnXnXnXnXnXnXnXnXnXnXnXnXnXnXnXnXnXnXnXnXnXnXnXnXnXnXnXnXnXnXnXnXbX'.",
"zX_..XXXXXXXXXXXXXXXXXXXXXXXXXXXXXXXXXXXXXXXXXXXXXXXXXXXXXXXXXXXXXXXXXXXXXXXXXXXXXXXXXXXXXXXXXXXXXXXXXXXXXXXXXXXXXXXXXXXXXXXXXXXXXXX.X_.zX"
};
