/* XPM */
static const char *six_spades[] = {
/* columns rows colors chars-per-pixel */
"69 100 229 2 ",
"   c black",
".  c #010101",
"X  c #020202",
"o  c gray1",
"O  c #040404",
"+  c gray2",
"@  c #060606",
"#  c #070707",
"$  c gray3",
"%  c #090909",
"&  c gray4",
"*  c #0B0B0B",
"=  c #0C0C0C",
"-  c gray5",
";  c #0E0E0E",
":  c gray6",
">  c #101010",
",  c #111111",
"<  c gray7",
"1  c #131313",
"2  c gray8",
"3  c #151515",
"4  c #161616",
"5  c gray9",
"6  c #181818",
"7  c #191919",
"8  c gray10",
"9  c #1B1B1B",
"0  c gray11",
"q  c #1D1D1D",
"w  c #1E1E1E",
"e  c gray12",
"r  c #202020",
"t  c gray13",
"y  c #222222",
"u  c gray14",
"i  c #252525",
"p  c gray15",
"a  c #272727",
"s  c #282828",
"d  c gray16",
"f  c #2A2A2A",
"g  c gray17",
"h  c #2C2C2C",
"j  c #2D2D2D",
"k  c #2F2F2F",
"l  c gray19",
"z  c #313131",
"x  c #323232",
"c  c gray20",
"v  c #343434",
"b  c #353535",
"n  c gray21",
"m  c #373737",
"M  c gray22",
"N  c #393939",
"B  c #3A3A3A",
"V  c gray23",
"C  c #3C3C3C",
"Z  c gray24",
"A  c #3E3E3E",
"S  c gray25",
"D  c #414141",
"F  c gray26",
"G  c #434343",
"H  c #444444",
"J  c gray27",
"K  c #464646",
"L  c gray28",
"P  c #484848",
"I  c gray29",
"U  c #4B4B4B",
"Y  c #4C4C4C",
"T  c gray30",
"R  c #4E4E4E",
"E  c gray31",
"W  c #505050",
"Q  c #515151",
"!  c gray32",
"~  c #535353",
"^  c gray33",
"/  c #555555",
"(  c #565656",
")  c #5A5A5A",
"_  c #5B5B5B",
"`  c #5D5D5D",
"'  c gray37",
"]  c #5F5F5F",
"[  c gray38",
"{  c #626262",
"}  c gray39",
"|  c #646464",
" . c #656565",
".. c gray40",
"X. c #686868",
"o. c DimGray",
"O. c #6A6A6A",
"+. c gray42",
"@. c #6C6C6C",
"#. c #6D6D6D",
"$. c gray43",
"%. c #6F6F6F",
"&. c #717171",
"*. c #727272",
"=. c gray45",
"-. c #747474",
";. c gray46",
":. c #777777",
">. c gray47",
",. c #797979",
"<. c gray48",
"1. c #7B7B7B",
"2. c gray49",
"3. c #7E7E7E",
"4. c gray50",
"5. c #808080",
"6. c #818181",
"7. c gray51",
"8. c #838383",
"9. c #848484",
"0. c #868686",
"q. c gray53",
"w. c #888888",
"e. c #898989",
"r. c gray54",
"t. c #8B8B8B",
"y. c gray55",
"u. c #8D8D8D",
"i. c gray56",
"p. c #909090",
"a. c gray57",
"s. c #929292",
"d. c gray58",
"f. c #959595",
"g. c #989898",
"h. c gray60",
"j. c #9A9A9A",
"k. c #9B9B9B",
"l. c gray61",
"z. c #9D9D9D",
"x. c gray62",
"c. c #9F9F9F",
"v. c #A0A0A0",
"b. c gray63",
"n. c #A2A2A2",
"m. c #A4A4A4",
"M. c gray65",
"N. c #A7A7A7",
"B. c gray66",
"V. c #A9A9A9",
"C. c #AAAAAA",
"Z. c gray67",
"A. c #ACACAC",
"S. c gray68",
"D. c #AEAEAE",
"F. c #AFAFAF",
"G. c gray69",
"H. c #B1B1B1",
"J. c #B2B2B2",
"K. c gray70",
"L. c #B6B6B6",
"P. c #B7B7B7",
"I. c gray72",
"U. c #B9B9B9",
"Y. c gray73",
"T. c #BBBBBB",
"R. c gray74",
"E. c gray",
"W. c gray75",
"Q. c #C0C0C0",
"!. c #C1C1C1",
"~. c gray76",
"^. c #C3C3C3",
"/. c gray77",
"(. c #C5C5C5",
"). c #C6C6C6",
"_. c gray78",
"`. c #C8C8C8",
"'. c #CACACA",
"]. c #CBCBCB",
"[. c gray80",
"{. c #CDCDCD",
"}. c gray81",
"|. c #D0D0D0",
" X c gray82",
".X c LightGray",
"XX c gray83",
"oX c #D5D5D5",
"OX c gray84",
"+X c #D7D7D7",
"@X c #D8D8D8",
"#X c gray85",
"$X c gray86",
"%X c gainsboro",
"&X c #DDDDDD",
"*X c gray87",
"=X c #DFDFDF",
"-X c gray88",
";X c #E1E1E1",
":X c #E2E2E2",
">X c gray89",
",X c #E4E4E4",
"<X c gray90",
"1X c #E6E6E6",
"2X c #E7E7E7",
"3X c gray91",
"4X c #E9E9E9",
"5X c #EAEAEA",
"6X c gray92",
"7X c #ECECEC",
"8X c gray93",
"9X c #EEEEEE",
"0X c #EFEFEF",
"qX c gray94",
"wX c #F1F1F1",
"eX c gray95",
"rX c #F3F3F3",
"tX c #F4F4F4",
"yX c gray96",
"uX c #F6F6F6",
"iX c gray97",
"pX c #F8F8F8",
"aX c #F9F9F9",
"sX c gray98",
"dX c #FBFBFB",
"fX c gray99",
"gX c #FDFDFD",
"hX c #FEFEFE",
"jX c white",
/* pixels */
"sX~.].[.[.[.[.[.[.[.[.[.[.[.[.[.[.[.[.[.[.[.[.[.[.[.[.[.[.[.[.[.[.[.[.[.[.[.[.[.[.[.[.[.[.[.[.[.[.[.[.[.[.[.[.[.[.[.[.[.[.[.[.[.[.[.].~.sX",
"^.hXjXjXjXjXjXjXjXjXjXjXjXjXjXjXjXjXjXjXjXjXjXjXjXjXjXjXjXjXjXjXjXjXjXjXjXjXjXjXjXjXjXjXjXjXjXjXjXjXjXjXjXjXjXjXjXjXjXjXjXjXjXjXjXjXjXhX/.",
"].jXjXjXjXjXjXjXjXjXjXjXjXjXjXjXjXjXjXjXjXjXjXjXjXjXjXjXjXjXjXjXjXjXjXjXjXjXjXjXjXjXjXjXjXjXjXjXjXjXjXjXjXjXjXjXjXjXjXjXjXjXjXjXjXjXjXjX].",
"].jXjXjXjXrX' : 1 &.fXjXjXjXjXjXjXjXjXjXjXjXjXjXjXjXjXjXjXjXjXjXjXjXjXjXjXjXjXjXjXjXjXjXjXjXjXjXjXjXjXjXjXjXjXjXjXjXjXjXjXjXjXjXjXjXjXjX].",
"].jXjXjXjX' ( rX,Xn R.jXjXjXjXjXjXjXjXjXjXjXjXjXjXjXjXjXjXjXjXjXjXjXjXjXjXjXjXjXjXjXjXjXjXjXjXjXjXjXjXjXjXjXjXjXjXjXjXjXjXjXjXjXjXjXjXjX].",
"].jXjXjX0X# 1XjXjXjXjXjXjXjXjXjXjXjXjXjXjXjXjXjXjXjXjXjXjXjXjXjXjXjXjXjXjXjXjXjXjXjXjXjXjXjXjXjXjXjXjXjXjXjXjXjXjXjXjXjXjXjXjXjXjXjXjXjX].",
"].jXjXjX!.8 e.a i 5.gXjXjXjXjXjXjXjXjXjXjXjXjXjXjXjXjXjXjXjXjXjXjXjXjXjXjXjXjXjXjXjXjXjXjXjXjXjXjXjXjXjXjXjXjXjXjXjXjXjXjXjXjXjXjXjXjXjX].",
"].jXjXjXF.O y.gX&Xr j.jXjXjXjXjXjXjXjXjXjXjXjXjXjXjXjXjXjXjXjXjXjXjXjXjXjXjXjXjXjXjXjXjXjXjXjXjXjXjXjXjXjXjXjXjXjXjXjXjXjXjXjXjXjXjXjXjX].",
"].jXjXjX!.@ gXjXjX6.Q jXjXjXjXjXjXjXjXjXjXjXjXjXjXjXjXjXjXjXjXjXjXjXjXjXjXjXjXjXjXjXjXjXjXjXjXjXjXjXjXjXjXjXjXjXjXjXjXjXjXjXjXjXjXjXjXjX].",
"].jXjXjX<XX 9XjXjX5.( jXjXjXjXjXjXjXjXjXjXjXjXgXjXjXjXjXjXjXjXjXjXjXjXjXjXjXjXjXjXjXjXjXjXaXjXjXjXjXjXjXjXjXjXjXjXjXjXjXjXjXjXjXjXjXjXjX].",
"].jXjXjXjXT ..sX-Xe n.jXjXjXjXjXjXjXjXjXjXjX2X7.jXjXjXjXjXjXjXjXjXjXjXjXjXjXjXjXjXjXjXjXjX-.=XjXjXjXjXjXjXjXjXjXjXjXjXjXjXjXjXjXjXjXjXjX].",
"].jXjXjXjX2XY : q 8.hXjXjXjXjXjXjXjXjXjXjXjXE # |.jXjXjXjXjXjXjXjXjXjXjXjXjXjXjXjXjXjXjX'.+ A fXjXjXjXjXjXjXjXjXjXjXjXjXjXjXjXjXjXjXjXjX].",
"].jXjXjXjXjXaXeXjXjXjXjXjXjXjXjXjXjXjXjXjXi.    s wXjXjXjXjXjXjXjXjXjXjXjXjXjXjXjXjXjX5Xe     3.jXjXjXjXjXjXjXjXjXjXjXjXjXjXjXjXjXjXjXjX].",
"].jXjXjXjXjX0.-.jXjXjXjXjXjXjXjXjXjXjXjXR.O       R gXjXjXjXjXjXjXjXjXjXjXjXjXjXjXjXdXD       . C.jXjXjXjXjXjXjXjXjXjXjXjXjXjXjXjXjXjXjX].",
"].jXjXjXjX^.+ . C.jXjXjXjXjXjXjXjXjXjX-X3           3.jXjXjXjXjXjXjXjXjXjXjXjXjXjXjX@.          = .XjXjXjXjXjXjXjXjXjXjXjXjXjXjXjXjXjXjX].",
"].jXjXjX;X3     = XXjXjXjXjXjXjXjXjXyXk             . D.jXjXjXjXjXjXjXjXjXjXjXjXjXc.              i 0XjXjXjXjXjXjXjXjXjXjXjXjXjXjXjXjXjX].",
"].jXjXdXN         f yXjXjXjXjXjXjXjX]                 = OXjXjXjXjXjXjXjXjXjXjXjX|.%                 Y hXjXjXjXjXjXjXjXjXjXjXjXjXjXjXjXjX].",
"].jXjX:.            ..jXjXjXjXjXjXf.                    j yXjXjXjXjXjXjXjXjXjX9Xt                     w.jXjXjXjXjXjXjXjXjXjXjXjXjXjXjXjX].",
"].jX`.X               P.jXjXjXjX+X%                       +.jXjXjXjXjXjXjXjXjX)                       O '.jXjXjXjXjXjXjXjXjXjXjXjXjXjXjX].",
"].jXR                 V jXjXjXdXb                         . T.jXjXjXjXjXjXjXD.                          g pXjXjXjXjXjXjXjXjXjXjXjXjXjXjX].",
"].jXq       @ @       & jXjXjXj.                            a dXjXjXjXjXjXsXy                             p.jXjXjXjXjXjXjXjXjXjXjXjXjXjX].",
"].jX~     u } / f     F jXjXaXq                               b.jXjXjXjXjXg.                              4 uXjXjXjXjXjXjXjXjXjXjXjXjXjX].",
"].jX0X5.,.5Xk q 7X2.1.5XjXjXW.                                U jXjXjXjXjXK                                 Y.jXjXjXjXjXjXjXjXjXjXjXjXjX].",
"].jXjXjXjX X    R.jXjXjXjXjXr.                                1 jXjXjXjXjX1                                 0.jXjXjXjXjXjXjXjXjXjXjXjXjX].",
"].jXjXjXjXH.:.:.M.jXjXjXjXjXs.            * b   Z             q jXjXjXjXjXt             R   B :             f.jXjXjXjXjXjXjXjXjXjXjXjXjX].",
"].jXjXjXjXjXjXjXjXjXjXjXjXjX$Xo         X H.Z   U.s           O.jXjXjXjXjX-.          S R.  M K.X         $ :XjXjXjXjXjXjXjXjXjXjXjXjXjX].",
"].jXjXjXjXjXjXjXjXjXjXjXjXjXjXh.+     = D.qX+   4.<Xb       N qXjXjXjXjXjXyXY       ^ tX<.  o 6XJ.;     - Z.jXjXjXjXjXjXjXjXjXjXjXjXjXjX].",
"].jXjXjXjXjXjXjXjXjXjXjXjXjXjXjX;Xv.s.:XjXN.    x jXsXD.i.R.gXjXjXjXjXjXjXjXjX Xm./.jXjXh     c.jX7XN.L.9XjXjXjXjXjXjXjXjXjXjXjXjXjXjXjX].",
"].jXjXjXjXjXjXjXjXjXjXjXjXjXjXjXjXjXjXjXjXP       }.jXjXjXjXjXjXjXjXjXjXjXjXjXjXjXjXjX'.      S jXjXjXjXjXjXjXjXjXjXjXjXjXjXjXjXjXjXjXjX].",
"].jXjXjXjXjXjXjXjXjXjXjXjXjXjXjXjXjXjXjX=XX       @.jXjXjXjXjXjXjXjXjXjXjXjXjXjXjXjXjX}       . +XjXjXjXjXjXjXjXjXjXjXjXjXjXjXjXjXjXjXjX].",
"].jXjXjXjXjXjXjXjXjXjXjXjXjXjXjXjXjXjXjXe.c c c c Z 9XjXjXjXjXjXjXjXjXjXjXjXjXjXjXjX8XI H H H H u.jXjXjXjXjXjXjXjXjXjXjXjXjXjXjXjXjXjXjX].",
"].jXjXjXjXjXjXjXjXjXjXjXjXjXjXjXjXjXjXjXjXjXjXjXjXjXjXjXjXjXjXjXjXjXjXjXjXjXjXjXjXjXjXjXjXjXjXjXjXjXjXjXjXjXjXjXjXjXjXjXjXjXjXjXjXjXjXjX].",
"].jXjXjXjXjXjXjXjXjXjXjXjXjXjXjXjXjXjXjXjXjXjXjXjXjXjXjXjXjXjXjXjXjXjXjXjXjXjXjXjXjXjXjXjXjXjXjXjXjXjXjXjXjXjXjXjXjXjXjXjXjXjXjXjXjXjXjX].",
"].jXjXjXjXjXjXjXjXjXjXjXjXjXjXjXjXjXjXjXjXjXjXjXjXjXjXjXjXjXjXjXjXjXjXjXjXjXjXjXjXjXjXjXjXjXjXjXjXjXjXjXjXjXjXjXjXjXjXjXjXjXjXjXjXjXjXjX].",
"].jXjXjXjXjXjXjXjXjXjXjXjXjXjXjXjXjXjXjXjXjXjXjXjXjXjXjXjXjXjXjXjXjXjXjXjXjXjXjXjXjXjXjXjXjXjXjXjXjXjXjXjXjXjXjXjXjXjXjXjXjXjXjXjXjXjXjX].",
"].jXjXjXjXjXjXjXjXjXjXjXjXjXjXjXjXjXjXjXjXjXjXjXjXjXjXjXjXjXjXjXjXjXjXjXjXjXjXjXjXjXjXjXjXjXjXjXjXjXjXjXjXjXjXjXjXjXjXjXjXjXjXjXjXjXjXjX].",
"].jXjXjXjXjXjXjXjXjXjXjXjXjXjXjXjXjXjXjXjXjXjXjXjXjXjXjXjXjXjXjXjXjXjXjXjXjXjXjXjXjXjXjXjXjXjXjXjXjXjXjXjXjXjXjXjXjXjXjXjXjXjXjXjXjXjXjX].",
"].jXjXjXjXjXjXjXjXjXjXjXjXjXjXjXjXjXjXjXjXjXjXjXjXjXjXjXjXjXjXjXjXjXjXjXjXjXjXjXjXjXjXjXjXjXjXjXjXjXjXjXjXjXjXjXjXjXjXjXjXjXjXjXjXjXjXjX].",
"].jXjXjXjXjXjXjXjXjXjXjXjXjXjXjXjXjXjXjXjXjXjX6XjXjXjXjXjXjXjXjXjXjXjXjXjXjXjXjXjXjXjXjXjX>XjXjXjXjXjXjXjXjXjXjXjXjXjXjXjXjXjXjXjXjXjXjX].",
"].jXjXjXjXjXjXjXjXjXjXjXjXjXjXjXjXjXjXjXjXjX}.T jXjXjXjXjXjXjXjXjXjXjXjXjXjXjXjXjXjXjXjXjXQ K.jXjXjXjXjXjXjXjXjXjXjXjXjXjXjXjXjXjXjXjXjX].",
"].jXjXjXjXjXjXjXjXjXjXjXjXjXjXjXjXjXjXjXjXuXh   z.jXjXjXjXjXjXjXjXjXjXjXjXjXjXjXjXjXjXjXv.  7 5XjXjXjXjXjXjXjXjXjXjXjXjXjXjXjXjXjXjXjXjX].",
"].jXjXjXjXjXjXjXjXjXjXjXjXjXjXjXjXjXjXjXjX{     $ ].jXjXjXjXjXjXjXjXjXjXjXjXjXjXjXjXjX|.*     C aXjXjXjXjXjXjXjXjXjXjXjXjXjXjXjXjXjXjXjX].",
"].jXjXjXjXjXjXjXjXjXjXjXjXjXjXjXjXjXjXjXi.        w 4XjXjXjXjXjXjXjXjXjXjXjXjXjXjXjX7Xy         $.jXjXjXjXjXjXjXjXjXjXjXjXjXjXjXjXjXjXjX].",
"].jXjXjXjXjXjXjXjXjXjXjXjXjXjXjXjXjXjX^.+           C aXjXjXjXjXjXjXjXjXjXjXjXjXjXdXD             l.jXjXjXjXjXjXjXjXjXjXjXjXjXjXjXjXjXjX].",
"].jXjXjXjXjXjXjXjXjXjXjXjXjXjXjXjXjX-X2               $.jXjXjXjXjXjXjXjXjXjXjXjXjX%.              $ '.jXjXjXjXjXjXjXjXjXjXjXjXjXjXjXjXjX].",
"].jXjXjXjXjXjXjXjXjXjXjXjXjXjXjXjXpXb                   n.jXjXjXjXjXjXjXjXjXjXjXB.                  q 6XjXjXjXjXjXjXjXjXjXjXjXjXjXjXjXjX].",
"].jXjXjXjXjXjXjXjXjXjXjXjXjXjXjXjXo.                    = @XjXjXjXjXjXjXjXjXjX@X=                     U hXjXjXjXjXjXjXjXjXjXjXjXjXjXjXjX].",
"].jXjXjXjXjXjXjXjXjXjXjXjXjXjXjXY..                       x sXjXjXjXjXjXjXjXfXm                         h.jXjXjXjXjXjXjXjXjXjXjXjXjXjXjX].",
"].jXjXjXjXjXjXjXjXjXjXjXjXjXjXeX9                           q.jXjXjXjXjXjXjXt.                          = :XjXjXjXjXjXjXjXjXjXjXjXjXjXjX].",
"].jXjXjXjXjXjXjXjXjXjXjXjXjXjX3.                            = 4XjXjXjXjXjX0X<                             { jXjXjXjXjXjXjXjXjXjXjXjXjXjX].",
"].jXjXjXjXjXjXjXjXjXjXjXjXjXrX-                               1.jXjXjXjXjX9.                              o >XjXjXjXjXjXjXjXjXjXjXjXjXjX].",
"].jXjXjXjXjXjXjXjXjXjXjXjXjXL.                                l jXjXjXjXjXZ                                 x.jXjXjXjXjXjXjXjXjXjXjXjXjX].",
"].jXjXjXjXjXjXjXjXjXjXjXjXjXu.              .   .             # jXjXjXjXjX8             o   O               1.jXjXjXjXjXjXjXjXjXjXjXjXjX].",
"].jXjXjXjXjXjXjXjXjXjXjXjXjXN.            y W   O.            y jXjXjXjXjXM             6.  K c             k.jXjXjXjXjXjXjXjXjXjXjXjXjX].",
"].jXjXjXjXjXjXjXjXjXjXjXjXjXrX8         1 OXb   S.]           w.jXjXjXjXjXM.          =.Y.  w -Xq         7 wXjXjXjXjXjXjXjXjXjXjXjXjXjX].",
"].jXjXjXjXjXjXjXjXjXjXjXjXjXjX.Xz     z %X2XX   [ gX3.#   $ >.gXjXjXjXjXjXjXh.9   ; d.jX$.    |.1XL   o A OXjXjXjXjXjXjXjXjXjXjXjXjXjXjX].",
"].jXjXjXjXjXjXjXjXjXjXjXjXjXjXjXjX4X+XhXjXg.    4 sXjXqXoXaXjXjXjXjXjXjXjXjXjXjX7XsXjXgXe     3.jXjX9XpXjXjXjXjXjXjXjXjXjXjXjXjXjXjXjXjX].",
"].jXjXjXjXjXjXjXjXjXjXjXjXjXjXjXjXjXjXjXjXv       S.jXjXjXjXjXjXjXjXjXjXjXjXjXjXjXjXjXP.      0 fXjXjXjXjXjXjXjXjXjXjXjXjXjXjXjXjXjXjXjX].",
"].jXjXjXjXjXjXjXjXjXjXjXjXjXjXjXjXjXjXjX'.        H jXjXjXjXjXjXjXjXjXjXjXjXjXjXjXjXjXY         F.jXjXjXjXjXjXjXjXjXjXjXjXjXjXjXjXjXjXjX].",
"].jXjXjXjXjXjXjXjXjXjXjXjXjXjXjXjXjXjXjXB.:.:.:.:.:.4XjXjXjXjXjXjXjXjXjXjXjXjXjXjXjX0Xw.w.w.w.w.M.jXjXjXjXjXjXjXjXjXjXjXjXjXjXjXjXjXjXjX].",
"].jXjXjXjXjXjXjXjXjXjXjXjXjXjXjXjXjXjXjXjXjXjXjXjXjXjXjXjXjXjXjXjXjXjXjXjXjXjXjXjXjXjXjXjXjXjXjXjXjXjXjXjXjXjXjXjXjXjXjXjXjXjXjXjXjXjXjX].",
"].jXjXjXjXjXjXjXjXjXjXjXjXjXjXjXjXjXjXjXjXjXjXjXjXjXjXjXjXjXjXjXjXjXjXjXjXjXjXjXjXjXjXjXjXjXjXjXjXjXjXjXjXjXjXjXjXjXjXjXjXjXjXjXjXjXjXjX].",
"].jXjXjXjXjXjXjXjXjXjXjXjXjXjXjXjXjXjXjXjXjXjXjXjXjXjXjXjXjXjXjXjXjXjXjXjXjXjXjXjXjXjXjXjXjXjXjXjXjXjXjXjXjXjXjXjXjXjXjXjXjXjXjXjXjXjXjX].",
"].jXjXjXjXjXjXjXjXjXjXjXjXjXjXjXjXjXjXjXjXjXjXjXjXjXjXjXjXjXjXjXjXjXjXjXjXjXjXjXjXjXjXjXjXjXjXjXjXjXjXjXjXjXjXjXjXjXjXjXjXjXjXjXjXjXjXjX].",
"].jXjXjXjXjXjXjXjXjXjXjXjXjXjXjXjXjXjXjXjXjXjXjXjXjXjXjXjXjXjXjXjXjXjXjXjXjXjXjXjXjXjXjXjXjXjXjXjXjXjXjXjXjXjXjXjXjXjXjXjXjXjXjXjXjXjXjX].",
"].jXjXjXjXjXjXjXjXjXjXjXjXjXjXjXjXjXjXjXjXjXjXjXjXjXjXjXjXjXjXjXjXjXjXjXjXjXjXjXjXjXjXjXjXjXjXjXjXjXjXjXjXjXjXjXjXjXjXjXjXjXjXjXjXjXjXjX].",
"].jXjXjXjXjXjXjXjXjXjXjXjXjXjXjXjXjXjXjXjXjXjXjXjXjXjXjXjXjXjXjXjXjXjXjXjXjXjXjXjXjXjXjXjXjXjXjXjXjXjXjXjXjXjXjXjXjXjXjXjXjXjXjXjXjXjXjX].",
"].jXjXjXjXjXjXjXjXjXjXjXjXjXjXjXjXjXjXjXjXjXjXjXjXjXjXjXjXjXjXjXjXjXjXjXjXjXjXjXjXjXjXjXjXjXjXjXjXjXjXjXjXjXjXjXjXjXjXjXjXjXjXjXjXjXjXjX].",
"].jXjXjXjXjXjXjXjXjXjXjXjXjXjXjXjXjXjXjXjXjXjXjXjXjXjXjXjXjXjXjXjXjXjXjXjXjXjXjXjXjXjXjXjXjXjXjXjXjXjXjXjXjXjXjXjXjXjXjXjXjXjXjXjXjXjXjX].",
"].jXjXjXjXjXjXjXjXjXjXjXjXjXjXjXjXjXjXjXb.........X.8XjXjXjXjXjXjXjXjXjXjXjXjXjXjXjX7XI H H H H 0.jXjXjXjXjXjXjXjXjXjXjXjXjXjXjXjXjXjXjX].",
"].jXjXjXjXjXjXjXjXjXjXjXjXjXjXjXjXjXjXjX|.        ~ jXjXjXjXjXjXjXjXjXjXjXjXjXjXjXjXjX .         XjXjXjXjXjXjXjXjXjXjXjXjXjXjXjXjXjXjXjX].",
"].jXjXjXjXjXjXjXjXjXjXjXjXjXjXjXjXjXjXjXjXN       T.jXjXjXjXjXjXjXjXjXjXjXjXjXjXjXjXjX}.      N jXjXjXjXjXjXjXjXjXjXjXjXjXjXjXjXjXjXjXjX].",
"].jXjXjXjXjXjXjXjXjXjXjXjXjXjXjXdX X^.iXjXl.    e hXjX*X!.5XjXjXjXjXjXjXjXjXjX@XS.).jXjXk     h.jXeXF.T.qXjXjXjXjXjXjXjXjXjXjXjXjXjXjXjX].",
"].jXjXjXjXjXjXjXjXjXjXjXjXjXjXQ.0     8 /.4XX   #.fX*.X   X { sXjXjXjXjXjXpX~       P 0X2.  X 2X_.7     - Z.jXjXjXjXjXjXjXjXjXjXjXjXjXjX].",
"].jXjXjXjXjXjXjXjXjXjXjXjXjX6X:         # Q.m   P.)           3.jXjXjXjXjX<.          c E.  c `.%         # -XjXjXjXjXjXjXjXjXjXjXjXjXjX].",
"].jXjXjXjXjXjXjXjXjXjXjXjXjXx.            4 K   }             t jXjXjXjXjXp             R   Z 6             a.jXjXjXjXjX(.C.C._.jXjXjXjX].",
"].jXjXjXjXjXjXjXjXjXjXjXjXjXr.                                * jXjXjXjXjX5                                 5.jXjXjXjXjXF.    L.jXjXjXjX].",
"].jXjXjXjXjXjXjXjXjXjXjXjXjXI.                                B jXjXjXjXjXP                                 K.jXjXdXC.V.uX4 0 pXN.S.fXjX].",
"].jXjXjXjXjXjXjXjXjXjXjXjXjXyX,                               w.jXjXjXjXjXj.                              < rXjXjX`     J ) [ L     ..jX].",
"].jXjXjXjXjXjXjXjXjXjXjXjXjXjXw.                            3 eXjXjXjXjXjXsXu                             r.jXjXjX,       , <       6 jX].",
"].jXjXjXjXjXjXjXjXjXjXjXjXjXjXyXy                           j.jXjXjXjXjXjXjXG.                          p uXjXjXjXx                 B jX].",
"].jXjXjXjXjXjXjXjXjXjXjXjXjXjXjX(.o                       J hXjXjXjXjXjXjXjXjX'                       X ^.jXjXjXjXm.                A.jX].",
"].jXjXjXjXjXjXjXjXjXjXjXjXjXjXjXjX:.                    4 <XjXjXjXjXjXjXjXjXjX0Xy                     4.jXjXjXjXjXhXR             ! jXjX].",
"].jXjXjXjXjXjXjXjXjXjXjXjXjXjXjXjXfXJ                 X U.jXjXjXjXjXjXjXjXjXjXjX X&                 G fXjXjXjXjXjXjX5X7         0 7XjXjX].",
"].jXjXjXjXjXjXjXjXjXjXjXjXjXjXjXjXjX2X9               9.jXjXjXjXjXjXjXjXjXjXjXjXjXc.              e 5XjXjXjXjXjXjXjXjXQ.+     @ ).jXjXjX].",
"].jXjXjXjXjXjXjXjXjXjXjXjXjXjXjXjXjXjX{.%           Q hXjXjXjXjXjXjXjXjXjXjXjXjXjXjX#.          % [.jXjXjXjXjXjXjXjXjXjXs.    j.jXjXjXjX].",
"].jXjXjXjXjXjXjXjXjXjXjXjXjXjXjXjXjXjXjXn.        d wXjXjXjXjXjXjXjXjXjXjXjXjXjXjXjXdXD       . M.jXjXjXjXjXjXjXjXjXjXjXjX_ } jXjXjXjXjX].",
"].jXjXjXjXjXjXjXjXjXjXjXjXjXjXjXjXjXjXjXjX$.    < %XjXjXjXjXjXjXjXjXjXjXjXjXjXjXjXjXjX5Xe     ;.jXjXjXjXjXjXjXjXjXjXjXjXjX5X9XjXjXjXjXjX].",
"].jXjXjXjXjXjXjXjXjXjXjXjXjXjXjXjXjXjXjXjXdXM   G.jXjXjXjXjXjXjXjXjXjXjXjXjXjXjXjXjXjXjX'.+ n sXjXjXjXjXjXjXjXjXjXjXjXjXjXjXjXjXjXjXjXjX].",
"].jXjXjXjXjXjXjXjXjXjXjXjXjXjXjXjXjXjXjXjXjX+X] jXjXjXjXjXjXjXjXjXjXjXjXjXjXjXjXjXjXjXjXjX-.#XjXjXjXjXjXjXjXjXjXjXjXjXhX6.w > R 3XjXjXjX].",
"].jXjXjXjXjXjXjXjXjXjXjXjXjXjXjXjXjXjXjXjXjXjXrXjXjXjXjXjXjXjXjXjXjXjXjXjXjXjXjXjXjXjXjXjXpXjXjXjXjXjXjXjXjXjXjXjXjXjXv.t ;XsX| E jXjXjX].",
"].jXjXjXjXjXjXjXjXjXjXjXjXjXjXjXjXjXjXjXjXjXjXjXjXjXjXjXjXjXjXjXjXjXjXjXjXjXjXjXjXjXjXjXjXjXjXjXjXjXjXjXjXjXjXjXjXjXjX/ 6.jXjX8XX <XjXjX].",
"].jXjXjXjXjXjXjXjXjXjXjXjXjXjXjXjXjXjXjXjXjXjXjXjXjXjXjXjXjXjXjXjXjXjXjXjXjXjXjXjXjXjXjXjXjXjXjXjXjXjXjXjXjXjXjXjXjXjXQ 6.jXjXgX@ ~.jXjX].",
"].jXjXjXjXjXjXjXjXjXjXjXjXjXjXjXjXjXjXjXjXjXjXjXjXjXjXjXjXjXjXjXjXjXjXjXjXjXjXjXjXjXjXjXjXjXjXjXjXjXjXjXjXjXjXjXjXjXjXh.t =XgXy.O G.jXjX].",
"].jXjXjXjXjXjXjXjXjXjXjXjXjXjXjXjXjXjXjXjXjXjXjXjXjXjXjXjXjXjXjXjXjXjXjXjXjXjXjXjXjXjXjXjXjXjXjXjXjXjXjXjXjXjXjXjXjXjXgX4.i a t.7 ~.jXjX].",
"].jXjXjXjXjXjXjXjXjXjXjXjXjXjXjXjXjXjXjXjXjXjXjXjXjXjXjXjXjXjXjXjXjXjXjXjXjXjXjXjXjXjXjXjXjXjXjXjXjXjXjXjXjXjXjXjXjXjXjXjXjXjX,X# 0XjXjX].",
"].jXjXjXjXjXjXjXjXjXjXjXjXjXjXjXjXjXjXjXjXjXjXjXjXjXjXjXjXjXjXjXjXjXjXjXjXjXjXjXjXjXjXjXjXjXjXjXjXjXjXjXjXjXjXjXjXjXjXR.m ,XrX( ] jXjXjX].",
"].jXjXjXjXjXjXjXjXjXjXjXjXjXjXjXjXjXjXjXjXjXjXjXjXjXjXjXjXjXjXjXjXjXjXjXjXjXjXjXjXjXjXjXjXjXjXjXjXjXjXjXjXjXjXjXjXjXjXfX%.< : ` rXjXjXjX].",
"^.hXjXjXjXjXjXjXjXjXjXjXjXjXjXjXjXjXjXjXjXjXjXjXjXjXjXjXjXjXjXjXjXjXjXjXjXjXjXjXjXjXjXjXjXjXjXjXjXjXjXjXjXjXjXjXjXjXjXjXjXjXjXjXjXjXjXhX/.",
"sX~.].[.[.[.[.[.[.[.[.[.[.[.[.[.[.[.[.[.[.[.[.[.[.[.[.[.[.[.[.[.[.[.[.[.[.[.[.[.[.[.[.[.[.[.[.[.[.[.[.[.[.[.[.[.[.[.[.[.[.[.[.[.[.[.].~.sX"
};
