/* XPM */
static const char *six_hearts[] = {
/* columns rows colors chars-per-pixel */
"69 100 234 2 ",
"   c #DF0000",
".  c #DF0101",
"X  c #DF0202",
"o  c #DF0303",
"O  c #DF0404",
"+  c #E00404",
"@  c #E00505",
"#  c #E00606",
"$  c #E00707",
"%  c #E00808",
"&  c #E00909",
"*  c #E00A0A",
"=  c #E00B0B",
"-  c #E10C0C",
";  c #E10D0D",
":  c #E10E0E",
">  c #E10F0F",
",  c #E11010",
"<  c #E11111",
"1  c #E11212",
"2  c #E11313",
"3  c #E21414",
"4  c #E21515",
"5  c #E21717",
"6  c #E21818",
"7  c #E21919",
"8  c #E21A1A",
"9  c #E21B1B",
"0  c #E31D1D",
"q  c #E31E1E",
"w  c #E31F1F",
"e  c #E32020",
"r  c #E32121",
"t  c #E32222",
"y  c #E32323",
"u  c #E42424",
"i  c #E42525",
"p  c #E42626",
"a  c #E42727",
"s  c #E42828",
"d  c #E42929",
"f  c #E42A2A",
"g  c #E42B2B",
"h  c #E52C2C",
"j  c #E52D2D",
"k  c #E52E2E",
"l  c #E52F2F",
"z  c #E53030",
"x  c #E53232",
"c  c #E53333",
"v  c #E63434",
"b  c #E63535",
"n  c #E63636",
"m  c #E63737",
"M  c #E63838",
"N  c #E63939",
"B  c #E63A3A",
"V  c #E63B3B",
"C  c #E73D3D",
"Z  c #E74040",
"A  c #E74141",
"S  c #E74242",
"D  c #E74343",
"F  c #E84444",
"G  c #E84545",
"H  c #E84747",
"J  c #E84848",
"K  c #E84949",
"L  c #E84B4B",
"P  c #E94C4C",
"I  c #E94D4D",
"U  c #E94E4E",
"Y  c #E94F4F",
"T  c #E95050",
"R  c #E95151",
"E  c #E95252",
"W  c #E95353",
"Q  c #EA5454",
"!  c #EA5555",
"~  c #EA5656",
"^  c #EA5858",
"/  c #EA5959",
"(  c #EA5A5A",
")  c #EA5B5B",
"_  c #EB5C5C",
"`  c #EB5D5D",
"'  c #EB5E5E",
"]  c #EB5F5F",
"[  c #EB6060",
"{  c #EB6161",
"}  c #EB6262",
"|  c #EC6464",
" . c #EC6565",
".. c #EC6666",
"X. c #EC6767",
"o. c #EC6868",
"O. c #EC6969",
"+. c #EC6A6A",
"@. c #EC6B6B",
"#. c #ED6C6C",
"$. c #ED6D6D",
"%. c #ED6E6E",
"&. c #ED6F6F",
"*. c #ED7070",
"=. c #ED7171",
"-. c #ED7272",
";. c #EE7575",
":. c #EE7676",
">. c #EE7878",
",. c #EE7A7A",
"<. c #EE7B7B",
"1. c #EF7D7D",
"2. c #EF7E7E",
"3. c #EF7F7F",
"4. c #EF8080",
"5. c #EF8181",
"6. c #EF8282",
"7. c #EF8383",
"8. c #F08484",
"9. c #F08585",
"0. c #F08787",
"q. c #F08888",
"w. c #F08989",
"e. c #F08A8A",
"r. c #F08B8B",
"t. c #F18C8C",
"y. c #F18D8D",
"u. c #F18E8E",
"i. c #F18F8F",
"p. c #F19090",
"a. c #F19191",
"s. c #F19393",
"d. c #F29494",
"f. c #F29595",
"g. c #F29696",
"h. c #F29898",
"j. c #F29999",
"k. c #F29A9A",
"l. c #F29B9B",
"z. c #F39C9C",
"x. c #F39D9D",
"c. c #F39E9E",
"v. c #F39F9F",
"b. c #F3A0A0",
"n. c #F3A1A1",
"m. c #F3A2A2",
"M. c #F4A4A4",
"N. c #F4A5A5",
"B. c #F4A6A6",
"V. c #F4A7A7",
"C. c #F4A8A8",
"Z. c #F4A9A9",
"A. c #F4AAAA",
"S. c #F4ABAB",
"D. c #F5AEAE",
"F. c #F5AFAF",
"G. c #F5B0B0",
"H. c #F5B1B1",
"J. c #F6B5B5",
"K. c #F6B6B6",
"L. c #F6B7B7",
"P. c #F6B8B8",
"I. c #F6B9B9",
"U. c #F6BBBB",
"Y. c #F7BCBC",
"T. c #F7BDBD",
"R. c #F7BEBE",
"E. c #F7BFBF",
"W. c gray76",
"Q. c #C3C3C3",
"!. c gray77",
"~. c #CBCBCB",
"^. c gray80",
"/. c #F7C0C0",
"(. c #F7C1C1",
"). c #F7C2C2",
"_. c #F8C4C4",
"`. c #F8C5C5",
"'. c #F8C6C6",
"]. c #F8C7C7",
"[. c #F8C8C8",
"{. c #F8CACA",
"}. c #F8CBCB",
"|. c #F9CCCC",
" X c #F9CDCD",
".X c #F9CECE",
"XX c #F9CFCF",
"oX c #F9D2D2",
"OX c #F9D3D3",
"+X c #FAD4D4",
"@X c #FAD6D6",
"#X c #FAD7D7",
"$X c #FAD8D8",
"%X c #FAD9D9",
"&X c #FADADA",
"*X c #FADBDB",
"=X c #FBDCDC",
"-X c #FBDDDD",
";X c #FBDEDE",
":X c #FBDFDF",
">X c #FBE0E0",
",X c #FBE1E1",
"<X c #FBE2E2",
"1X c #FBE3E3",
"2X c #FCE4E4",
"3X c #FCE5E5",
"4X c #FCE6E6",
"5X c #FCE7E7",
"6X c #FCE8E8",
"7X c #FCE9E9",
"8X c #FCEAEA",
"9X c #FCEBEB",
"0X c #FDECEC",
"qX c #FDEDED",
"wX c #FDEEEE",
"eX c #FDEFEF",
"rX c #FDF0F0",
"tX c #FDF1F1",
"yX c #FDF2F2",
"uX c #FDF3F3",
"iX c #FEF4F4",
"pX c #FEF5F5",
"aX c #FEF6F6",
"sX c #FEF7F7",
"dX c gray98",
"fX c #FEF8F8",
"gX c #FEF9F9",
"hX c #FEFAFA",
"jX c #FEFBFB",
"kX c #FFFCFC",
"lX c #FFFDFD",
"zX c #FEFEFE",
"xX c #FFFEFE",
"cX c white",
/* pixels */
"dXW.~.^.^.^.^.^.^.^.^.^.^.^.^.^.^.^.^.^.^.^.^.^.^.^.^.^.^.^.^.^.^.^.^.^.^.^.^.^.^.^.^.^.^.^.^.^.^.^.^.^.^.^.^.^.^.^.^.^.^.^.^.^.^.^.~.W.dX",
"Q.zXcXcXcXcXcXcXcXcXcXcXcXcXcXcXcXcXcXcXcXcXcXcXcXcXcXcXcXcXcXcXcXcXcXcXcXcXcXcXcXcXcXcXcXcXcXcXcXcXcXcXcXcXcXcXcXcXcXcXcXcXcXcXcXcXcXzX!.",
"~.cXcXcXcXcXcXcXcXcXcXcXcXcXcXcXcXcXcXcXcXcXcXcXcXcXcXcXcXcXcXcXcXcXcXcXcXcXcXcXcXcXcXcXcXcXcXcXcXcXcXcXcXcXcXcXcXcXcXcXcXcXcXcXcXcXcXcX~.",
"~.cXcXcXcXuX' > 2 =.kXcXcXcXcXcXcXcXcXcXcXcXcXcXcXcXcXcXcXcXcXcXcXcXcXcXcXcXcXcXcXcXcXcXcXcXcXcXcXcXcXcXcXcXcXcXcXcXcXcXcXcXcXcXcXcXcXcX~.",
"~.cXcXcXcX' ~ uX2Xn T.cXcXcXcXcXcXcXcXcXcXcXcXcXcXcXcXcXcXcXcXcXcXcXcXcXcXcXcXcXcXcXcXcXcXcXcXcXcXcXcXcXcXcXcXcXcXcXcXcXcXcXcXcXcXcXcXcX~.",
"~.cXcXcXeX$ 4XcXcXcXcXcXcXcXcXcXcXcXcXcXcXcXcXcXcXcXcXcXcXcXcXcXcXcXcXcXcXcXcXcXcXcXcXcXcXcXcXcXcXcXcXcXcXcXcXcXcXcXcXcXcXcXcXcXcXcXcXcX~.",
"~.cXcXcX(.8 w.a i 4.lXcXcXcXcXcXcXcXcXcXcXcXcXcXcXcXcXcXcXcXcXcXcXcXcXcXcXcXcXcXcXcXcXcXcXcXcXcXcXcXcXcXcXcXcXcXcXcXcXcXcXcXcXcXcXcXcXcX~.",
"~.cXcXcXF.+ t.lX-Xe k.cXcXcXcXcXcXcXcXcXcXcXcXcXcXcXcXcXcXcXcXcXcXcXcXcXcXcXcXcXcXcXcXcXcXcXcXcXcXcXcXcXcXcXcXcXcXcXcXcXcXcXcXcXcXcXcXcX~.",
"~.cXcXcX(.# lXcXcX5.R cXcXcXcXcXcXcXcXcXcXcXcXcXcXcXcXcXcXcXcXcXcXcXcXcXcXcXcXcXcXcXcXcXcXcXcXcXcXcXcXcXcXcXcXcXcXcXcXcXcXcXcXcXcXcXcXcX~.",
"~.cXcXcX3XX wXcXcX4.~ cXcXcXcXcXcXcXcXcXcXcXcXcXcXcXcXcXcXcXcXcXcXcXcXcXcXcXcXfX-X9XcXcXcXcXcXcX0X-XsXcXcXcXcXcXcXcXcXcXcXcXcXcXcXcXcXcX~.",
"~.cXcXcXcXI ..hX>Xw m.cXcXcXcXcX2XX.8   4 ..qXcXcX{.G * o g r.hXcXcXcXcXcX,X~ %     z `.cXcX[.x     $ Q :XcXcXcXcXcXcXcXcXcXcXcXcXcXcXcX~.",
"~.cXcXcXcX5XP > 0 7.xXcXcXcXcX@X4           h iX{.%           A sXcXcXcX;X5           * +X#X=           3 &XcXcXcXcXcXcXcXcXcXcXcXcXcXcX~.",
"~.cXcXcXcXcXcXcXcXcXcXcXcXcXcXM               i.S               9.cXcXcXE               ~ _               L cXcXcXcXcXcXcXcXcXcXcXcXcXcX~.",
"~.cXuX0./ ,.iXcXl.^ -.=XcXcX&X                0                 d cXcXaX#               $ =               O yXcXcXcXcXcXcXcXcXcXcXcXcXcX~.",
"~.hXn       I d.      ; *XcXL.                                  @ xXcX>X                                    $XcXcXcXcXcXcXcXcXcXcXcXcXcX~.",
"~.(.          3         ,.cX].                                  4 cXcXuX@                                 o eXcXcXcXcXcXcXcXcXcXcXcXcXcX~.",
"~.G.                    o.cXjXw                                 O.cXcXcX~                                 T cXcXcXcXcXcXcXcXcXcXcXcXcXcX~.",
"~.rX2                   Y.cXcXM.                              - 5XcXcXcX*X$                             # $XcXcXcXcXcXcXcXcXcXcXcXcXcXcX~.",
"~.cXA..                .cXcXcXxXQ                             v.cXcXcXcXcXf.                            d.cXcXcXcXcXcXcXcXcXcXcXcXcXcXcX~.",
"~.cXcX2.            C gXcXcXcXcXtXs                         $.cXcXcXcXcXcXcX]                         ] cXcXcXcXcXcXcXcXcXcXcXcXcXcXcXcX~.",
"~.cXcXxXW         y 0XcXcXcXcXcXcX;X6                     L jXcXcXcXcXcXcXcXhXG                     Z fXcXcXcXcXcXcXcXcXcXcXcXcXcXcXcXcX~.",
"~.cXcXcXaXv     ; OXcXcXcXcXcXcXcXcX}.=                 n iXcXcXcXcXcXcXcXcXcXrXj                 k tXcXcXcXcXcXcXcXcXcXcXcXcXcXcXcXcXcX~.",
"~.cXcXcXcX>X;   D.cXcXcXcXcXcXcXcXcXcXJ.O             t 6XcXcXcXcXcXcXcXcXcXcXcX1X9             q 2XcXcXcXcXcXcXcXcXcXcXcXcXcXcXcXcXcXcX~.",
"~.cXcXcXcXcXe.J cXcXcXcXcXcXcXcXcXcXcXcXy.          ; #XcXcXcXcXcXcXcXcXcXcXcXcXcXXX&         % |.cXcXcXcXcXcXcXcXcXcXcXcXcXcXcXcXcXcXcX~.",
"~.cXcXcXcXcXeXU.cXcXcXcXcXcXcXcXcXcXcXcXcX~       . A.cXcXcXcXcXcXcXcXcXcXcXcXcXcXcXk.        x.cXcXcXcXcXcXcXcXcXcXcXcXcXcXcXcXcXcXcXcX~.",
"~.cXcXcXcXcXcXcXcXcXcXcXcXcXcXcXcXcXcXcXcXtX8     ] cXcXcXcXcXcXcXcXcXcXcXcXcXcXcXcXcXL     H cXcXcXcXcXcXcXcXcXcXcXcXcXcXcXcXcXcXcXcXcX~.",
"~.cXcXcXcXcXcXcXcXcXcXcXcXcXcXcXcXcXcXcXcXcXN.  > 4XcXcXcXcXcXcXcXcXcXcXcXcXcXcXcXcXcX=X% % =XcXcXcXcXcXcXcXcXcXcXcXcXcXcXcXcXcXcXcXcXcX~.",
"~.cXcXcXcXcXcXcXcXcXcXcXcXcXcXcXcXcXcXcXcXcXcXf <.cXcXcXcXcXcXcXcXcXcXcXcXcXcXcXcXcXcXcX{ ] cXcXcXcXcXcXcXcXcXcXcXcXcXcXcXcXcXcXcXcXcXcX~.",
"~.cXcXcXcXcXcXcXcXcXcXcXcXcXcXcXcXcXcXcXcXcXcXy.$XcXcXcXcXcXcXcXcXcXcXcXcXcXcXcXcXcXcXcX_.E.cXcXcXcXcXcXcXcXcXcXcXcXcXcXcXcXcXcXcXcXcXcX~.",
"~.cXcXcXcXcXcXcXcXcXcXcXcXcXcXcXcXcXcXcXcXcXcXfXcXcXcXcXcXcXcXcXcXcXcXcXcXcXcXcXcXcXcXcXcXxXcXcXcXcXcXcXcXcXcXcXcXcXcXcXcXcXcXcXcXcXcXcX~.",
"~.cXcXcXcXcXcXcXcXcXcXcXcXcXcXcXcXcXcXcXcXcXcXcXcXcXcXcXcXcXcXcXcXcXcXcXcXcXcXcXcXcXcXcXcXcXcXcXcXcXcXcXcXcXcXcXcXcXcXcXcXcXcXcXcXcXcXcX~.",
"~.cXcXcXcXcXcXcXcXcXcXcXcXcXcXcXcXcXcXcXcXcXcXcXcXcXcXcXcXcXcXcXcXcXcXcXcXcXcXcXcXcXcXcXcXcXcXcXcXcXcXcXcXcXcXcXcXcXcXcXcXcXcXcXcXcXcXcX~.",
"~.cXcXcXcXcXcXcXcXcXcXcXcXcXcXcXcXcXcXcXcXcXcXcXcXcXcXcXcXcXcXcXcXcXcXcXcXcXcXcXcXcXcXcXcXcXcXcXcXcXcXcXcXcXcXcXcXcXcXcXcXcXcXcXcXcXcXcX~.",
"~.cXcXcXcXcXcXcXcXcXcXcXcXcXcXcXcXcXcXcXcXcXcXcXcXcXcXcXcXcXcXcXcXcXcXcXcXcXcXcXcXcXcXcXcXcXcXcXcXcXcXcXcXcXcXcXcXcXcXcXcXcXcXcXcXcXcXcX~.",
"~.cXcXcXcXcXcXcXcXcXcXcXcXcXcXcXcXcXcXcXcXcXcXcXcXcXcXcXcXcXcXcXcXcXcXcXcXcXcXcXcXcXcXcXcXcXcXcXcXcXcXcXcXcXcXcXcXcXcXcXcXcXcXcXcXcXcXcX~.",
"~.cXcXcXcXcXcXcXcXcXcXcXcXcXcXcXcXcXcXcXcXcXcXcXcXcXcXcXcXcXcXcXcXcXcXcXcXcXcXcXcXcXcXcXcXcXcXcXcXcXcXcXcXcXcXcXcXcXcXcXcXcXcXcXcXcXcXcX~.",
"~.cXcXcXcXcXcXcXcXcXcXcXcXcXcXcXcXcXcXcXcXcXcXcXcXcXcXcXcXcXcXcXcXcXcXcXcXcXcXcXcXcXcXcXcXcXcXcXcXcXcXcXcXcXcXcXcXcXcXcXcXcXcXcXcXcXcXcX~.",
"~.cXcXcXcXcXcXcXcXcXcXcXcXcXcXcXcXcXcXcXcXcXcXcXcXcXcXcXcXcXcXcXcXcXcXcXcXcXcXcXcXcXcXcXcXcXcXcXcXcXcXcXcXcXcXcXcXcXcXcXcXcXcXcXcXcXcXcX~.",
"~.cXcXcXcXcXcXcXcXcXcXcXcXcXcXcXcXcXcXcXcXcXcXcXcXcXcXcXcXcXcXcXcXcXcXcXcXcXcXcXcXcXcXcXcXcXcXcXcXcXcXcXcXcXcXcXcXcXcXcXcXcXcXcXcXcXcXcX~.",
"~.cXcXcXcXcXcXcXcXcXcXcXcXcXcXcXcX[.,.{ ;.'.cXcXcXhXN.#.} t.2XcXcXcXcXcXcXcXL.] C I a.sXcXcXfXs.I C ' J.cXcXcXcXcXcXcXcXcXcXcXcXcXcXcXcX~.",
"~.cXcXcXcXcXcXcXcXcXcXcXcXcXcXhX)           <.cXyXN         % l.cXcXcXcXkX)           M aXsXV           ~ hXcXcXcXcXcXcXcXcXcXcXcXcXcXcX~.",
"~.cXcXcXcXcXcXcXcXcXcXcXcXcXcX*.              T.&.            X Y.cXcXcX8.              6.q.              1.cXcXcXcXcXcXcXcXcXcXcXcXcXcX~.",
"~.cXcXcXcXcXcXcXcXcXcXcXcXcXrX#               G -               F cXcXlX6               8 e               2 kXcXcXcXcXcXcXcXcXcXcXcXcXcX~.",
"~.cXcXcXcXcXcXcXcXcXcXcXcXcXE.                                  ; cXcX3X                                    :XcXcXcXcXcXcXcXcXcXcXcXcXcX~.",
"~.cXcXcXcXcXcXcXcXcXcXcXcXcXI.                                  $ xXcX4X                                    >XcXcXcXcXcXcXcXcXcXcXcXcXcX~.",
"~.cXcXcXcXcXcXcXcXcXcXcXcXcX0X#                                 Z cXcXcXf                                 u cXcXcXcXcXcXcXcXcXcXcXcXcXcX~.",
"~.cXcXcXcXcXcXcXcXcXcXcXcXcXcX%.                                U.cXcXcXS.                                V.cXcXcXcXcXcXcXcXcXcXcXcXcXcX~.",
"~.cXcXcXcXcXcXcXcXcXcXcXcXcXcX0X9                             ^ cXcXcXcXxXP                             K xXcXcXcXcXcXcXcXcXcXcXcXcXcXcX~.",
"~.cXcXcXcXcXcXcXcXcXcXcXcXcXcXcX`.@                         f uXcXcXcXcXcXwXt                         r qXcXcXcXcXcXcXcXcXcXcXcXcXcXcXcX~.",
"~.cXcXcXcXcXcXcXcXcXcXcXcXcXcXcXcXN..                     3 &XcXcXcXcXcXcXcX@X1                     > oXcXcXcXcXcXcXcXcXcXcXcXcXcXcXcXcX~.",
"~.cXcXcXcXcXcXcXcXcXcXcXcXcXcXcXcXcX4.                  = {.cXcXcXcXcXcXcXcXcX(.$                 % (.cXcXcXcXcXcXcXcXcXcXcXcXcXcXcXcXcX~.",
"~.cXcXcXcXcXcXcXcXcXcXcXcXcXcXcXcXcXxX{               o F.cXcXcXcXcXcXcXcXcXcXcXZ.X             . M.cXcXcXcXcXcXcXcXcXcXcXcXcXcXcXcXcXcX~.",
"~.cXcXcXcXcXcXcXcXcXcXcXcXcXcXcXcXcXcXhXD             g.cXcXcXcXcXcXcXcXcXcXcXcXcX9.            w.cXcXcXcXcXcXcXcXcXcXcXcXcXcXcXcXcXcXcX~.",
"~.cXcXcXcXcXcXcXcXcXcXcXcXcXcXcXcXcXcXcXqXr         _ cXcXcXcXcXcXcXcXcXcXcXcXcXcXxXW         Y xXcXcXcXcXcXcXcXcXcXcXcXcXcXcXcXcXcXcXcX~.",
"~.cXcXcXcXcXcXcXcXcXcXcXcXcXcXcXcXcXcXcXcX'.X     s aXcXcXcXcXcXcXcXcXcXcXcXcXcXcXcXrX8     9 tXcXcXcXcXcXcXcXcXcXcXcXcXcXcXcXcXcXcXcXcX~.",
"~.cXcXcXcXcXcXcXcXcXcXcXcXcXcXcXcXcXcXcXcXcXO.    T.cXcXcXcXcXcXcXcXcXcXcXcXcXcXcXcXcXC.    Z.cXcXcXcXcXcXcXcXcXcXcXcXcXcXcXcXcXcXcXcXcX~.",
"~.cXcXcXcXcXcXcXcXcXcXcXcXcXcXcXcXcXcXcXcXcXeX: R cXcXcXcXcXcXcXcXcXcXcXcXcXcXcXcXcXcXcXM m cXcXcXcXcXcXcXcXcXcXcXcXcXcXcXcXcXcXcXcXcXcX~.",
"~.cXcXcXcXcXcXcXcXcXcXcXcXcXcXcXcXcXcXcXcXcXcXX.L.cXcXcXcXcXcXcXcXcXcXcXcXcXcXcXcXcXcXcXc.k.cXcXcXcXcXcXcXcXcXcXcXcXcXcXcXcXcXcXcXcXcXcX~.",
"~.cXcXcXcXcXcXcXcXcXcXcXcXcXcXcXcXcXcXcXcXcXcX%XkXcXcXcXcXcXcXcXcXcXcXcXcXcXcXcXcXcXcXcXiXtXcXcXcXcXcXcXcXcXcXcXcXcXcXcXcXcXcXcXcXcXcXcX~.",
"~.cXcXcXcXcXcXcXcXcXcXcXcXcXcXcXcXcXcXcXcXcXcXcXcXcXcXcXcXcXcXcXcXcXcXcXcXcXcXcXcXcXcXcXcXcXcXcXcXcXcXcXcXcXcXcXcXcXcXcXcXcXcXcXcXcXcXcX~.",
"~.cXcXcXcXcXcXcXcXcXcXcXcXcXcXcXcXcXcXcXcXcXcXcXcXcXcXcXcXcXcXcXcXcXcXcXcXcXcXcXcXcXcXcXcXcXcXcXcXcXcXcXcXcXcXcXcXcXcXcXcXcXcXcXcXcXcXcX~.",
"~.cXcXcXcXcXcXcXcXcXcXcXcXcXcXcXcXcXcXcXcXcXcXcXcXcXcXcXcXcXcXcXcXcXcXcXcXcXcXcXcXcXcXcXcXcXcXcXcXcXcXcXcXcXcXcXcXcXcXcXcXcXcXcXcXcXcXcX~.",
"~.cXcXcXcXcXcXcXcXcXcXcXcXcXcXcXcXcXcXcXcXcXcXcXcXcXcXcXcXcXcXcXcXcXcXcXcXcXcXcXcXcXcXcXcXcXcXcXcXcXcXcXcXcXcXcXcXcXcXcXcXcXcXcXcXcXcXcX~.",
"~.cXcXcXcXcXcXcXcXcXcXcXcXcXcXcXcXcXcXcXcXcXcXcXcXcXcXcXcXcXcXcXcXcXcXcXcXcXcXcXcXcXcXcXcXcXcXcXcXcXcXcXcXcXcXcXcXcXcXcXcXcXcXcXcXcXcXcX~.",
"~.cXcXcXcXcXcXcXcXcXcXcXcXcXcXcXcXcXcXcXcXcXcXcXcXcXcXcXcXcXcXcXcXcXcXcXcXcXcXcXcXcXcXcXcXcXcXcXcXcXcXcXcXcXcXcXcXcXcXcXcXcXcXcXcXcXcXcX~.",
"~.cXcXcXcXcXcXcXcXcXcXcXcXcXcXcXcXcXcXcXcXcXcXcXcXcXcXcXcXcXcXcXcXcXcXcXcXcXcXcXcXcXcXcXcXcXcXcXcXcXcXcXcXcXcXcXcXcXcXcXcXcXcXcXcXcXcXcX~.",
"~.cXcXcXcXcXcXcXcXcXcXcXcXcXcXcXcXcXcXcXcXcXcXcXcXcXcXcXcXcXcXcXcXcXcXcXcXcXcXcXcXcXcXcXcXcXcXcXcXcXcXcXcXcXcXcXcXcXcXcXcXcXcXcXcXcXcXcX~.",
"~.cXcXcXcXcXcXcXcXcXcXcXcXcXcXcXcXcXcXcXcXcXcXcXcXcXcXcXcXcXcXcXcXcXcXcXcXcXcXcXcXcXcXcXcXcXcXcXcXcXcXcXcXcXcXcXcXcXcXcXcXcXcXcXcXcXcXcX~.",
"~.cXcXcXcXcXcXcXcXcXcXcXcXcXcXcXcXcXcXcXcXcXcXcXcXcXcXcXcXcXcXcXcXcXcXcXcXcXcXcXcXcXcXcXcXcXcXcXcXcXcXcXcXcXcXcXcXcXcXcXcXcXcXcXcXcXcXcX~.",
"~.cXcXcXcXcXcXcXcXcXcXcXcXcXcXcXcXcXcXcXcXcXcX3XxXcXcXcXcXcXcXcXcXcXcXcXcXcXcXcXcXcXcXcX0X5XcXcXcXcXcXcXcXcXcXcXcXcXcXcXcXcXcXcXcXcXcXcX~.",
"~.cXcXcXcXcXcXcXcXcXcXcXcXcXcXcXcXcXcXcXcXcXcX;./.cXcXcXcXcXcXcXcXcXcXcXcXcXcXcXcXcXcXcXp.q.cXcXcXcXcXcXcXcXcXcXcXcXcXcXcXcXcXcXcXcXcXcX~.",
"~.cXcXcXcXcXcXcXcXcXcXcXcXcXcXcXcXcXcXcXcXcXfX6 ( cXcXcXcXcXcXcXcXcXcXcXcXcXcXcXcXcXcXkXh u hXcXcXcXcXcXcXcXcXcXcXcXcXcXcXcXcXcXcXcXcXcX~.",
"~.cXcXcXcXcXcXcXcXcXcXcXcXcXcXcXcXcXcXcXcXcX5.  X '.cXcXcXcXcXcXcXcXcXcXcXcXcXcXcXcXcXd.    e.cXcXcXcXcXcXcXcXcXcXcXcXcXcXcXcXcXcXcXcXcX~.",
"~.cXcXcXcXcXcXcXcXcXcXcXcXcXcXcXcXcXcXcXcX*X&     z hXcXcXcXcXcXcXcXcXcXcXcXcXcXcXcX3X<     = -XcXcXcXcXcXcXcXcXcXcXcXcXcXcXcXcXcXcXcXcX~.",
"~.cXcXcXcXcXcXcXcXcXcXcXcXcXcXcXcXcXcXcXsXc         %.cXcXcXcXcXcXcXcXcXcXcXcXcXcXhXC         l pXcXcXcXcXcXcXcXcXcXcXcXcXiXjXcXcXcXcXcX~.",
"~.cXcXcXcXcXcXcXcXcXcXcXcXcXcXcXcXcXcXcX'             M.cXcXcXcXcXcXcXcXcXcXcXcXcX+.            ' xXcXcXcXcXcXcXcXcXcXcXcXx.H.cXcXcXcXcX~.",
"~.cXcXcXcXcXcXcXcXcXcXcXcXcXcXcXcXcXcX5.              # T.cXcXcXcXcXcXcXcXcXcXcXr.                4.cXcXcXcXcXcXcXcXcXcXfXp j jXcXcXcXcX~.",
"~.cXcXcXcXcXcXcXcXcXcXcXcXcXcXcXcXcXb..                 1 @XcXcXcXcXcXcXcXcXcXZ.X                 . v.cXcXcXcXcXcXcXcXcX+.    1.cXcXcXcX~.",
"~.cXcXcXcXcXcXcXcXcXcXcXcXcXcXcXcXT.#                     e 5XcXcXcXcXcXcXcX(.%                     @ P.cXcXcXcXcXcXcXz.      . B.cXcXcX~.",
"~.cXcXcXcXcXcXcXcXcXcXcXcXcXcXcX#X;                         m fXcXcXcXcXcX,X3                         ; #XcXcXcXcXcXT.@         & }.cXcX~.",
"~.cXcXcXcXcXcXcXcXcXcXcXcXcXcXpXf                             @.cXcXcXcXjXb                             k gXcXcXcX;X3             7 1XcX~.",
"~.cXcXcXcXcXcXcXcXcXcXcXcXcXcX2.                              . '.cXcXcXf.                                u.cXcXgXf                 B xX~.",
"~.cXcXcXcXcXcXcXcXcXcXcXcXcXtX=                                 L cXcXlX9                                 5 kXcXn.                    L.~.",
"~.cXcXcXcXcXcXcXcXcXcXcXcXcXY.                                  * cXcX<X                                    *XcX2.                    s.~.",
"~.cXcXcXcXcXcXcXcXcXcXcXcXcXY.                                  * cXcX8X                                    1XcXK.        n r       . |.~.",
"~.cXcXcXcXcXcXcXcXcXcXcXcXcX8Xo               m $               V cXcXcXy               a j               0 xXcXcX>.O   3  XR.-   % e.cX~.",
"~.cXcXcXcXcXcXcXcXcXcXcXcXcXcX'               D.{               S.cXcXcXc.              g.z.              h.cXcXcXcXqXXXiXcXcXtXXXrXcXcX~.",
"~.cXcXcXcXcXcXcXcXcXcXcXcXcXcXyXA           [ xX7Xp         X 4.cXcXcXcXcX7.o         ) lXxX]         o 2.cXcXcXcXcXcXcXcXcXcXcXcXcXcXcX~.",
"~.cXcXcXcXcXcXcXcXcXcXcXcXcXcXcXlXS.` D ^ A.xXcXcXrXw.I G &..XcXcXcXcXcXcXcX-Xe...;.I.xXcXcXcXU.:...w.*XcXcXcXcXcXcXcXxX5.q , U 6XcXcXcX~.",
"~.cXcXcXcXcXcXcXcXcXcXcXcXcXcXcXcXcXcXcXcXcXcXcXcXcXcXcXcXcXcXcXcXcXcXcXcXcXcXcXcXcXcXcXcXcXcXcXcXcXcXcXcXcXcXcXcXcXcXb.r ,XhX| Y cXcXcX~.",
"~.cXcXcXcXcXcXcXcXcXcXcXcXcXcXcXcXcXcXcXcXcXcXcXcXcXcXcXcXcXcXcXcXcXcXcXcXcXcXcXcXcXcXcXcXcXcXcXcXcXcXcXcXcXcXcXcXcXcX! 5.cXcXqXX 3XcXcX~.",
"~.cXcXcXcXcXcXcXcXcXcXcXcXcXcXcXcXcXcXcXcXcXcXcXcXcXcXcXcXcXcXcXcXcXcXcXcXcXcXcXcXcXcXcXcXcXcXcXcXcXcXcXcXcXcXcXcXcXcXR 5.cXcXlX# ).cXcX~.",
"~.cXcXcXcXcXcXcXcXcXcXcXcXcXcXcXcXcXcXcXcXcXcXcXcXcXcXcXcXcXcXcXcXcXcXcXcXcXcXcXcXcXcXcXcXcXcXcXcXcXcXcXcXcXcXcXcXcXcXj.r :XlXt.+ G.cXcX~.",
"~.cXcXcXcXcXcXcXcXcXcXcXcXcXcXcXcXcXcXcXcXcXcXcXcXcXcXcXcXcXcXcXcXcXcXcXcXcXcXcXcXcXcXcXcXcXcXcXcXcXcXcXcXcXcXcXcXcXcXlX3.i a r.7 ).cXcX~.",
"~.cXcXcXcXcXcXcXcXcXcXcXcXcXcXcXcXcXcXcXcXcXcXcXcXcXcXcXcXcXcXcXcXcXcXcXcXcXcXcXcXcXcXcXcXcXcXcXcXcXcXcXcXcXcXcXcXcXcXcXcXcXcX2X$ eXcXcX~.",
"~.cXcXcXcXcXcXcXcXcXcXcXcXcXcXcXcXcXcXcXcXcXcXcXcXcXcXcXcXcXcXcXcXcXcXcXcXcXcXcXcXcXcXcXcXcXcXcXcXcXcXcXcXcXcXcXcXcXcXT.m 2XuX~ ] cXcXcX~.",
"~.cXcXcXcXcXcXcXcXcXcXcXcXcXcXcXcXcXcXcXcXcXcXcXcXcXcXcXcXcXcXcXcXcXcXcXcXcXcXcXcXcXcXcXcXcXcXcXcXcXcXcXcXcXcXcXcXcXcXkX&.1 > ` uXcXcXcX~.",
"~.cXcXcXcXcXcXcXcXcXcXcXcXcXcXcXcXcXcXcXcXcXcXcXcXcXcXcXcXcXcXcXcXcXcXcXcXcXcXcXcXcXcXcXcXcXcXcXcXcXcXcXcXcXcXcXcXcXcXcXcXcXcXcXcXcXcXcX~.",
"Q.zXcXcXcXcXcXcXcXcXcXcXcXcXcXcXcXcXcXcXcXcXcXcXcXcXcXcXcXcXcXcXcXcXcXcXcXcXcXcXcXcXcXcXcXcXcXcXcXcXcXcXcXcXcXcXcXcXcXcXcXcXcXcXcXcXcXzX!.",
"dXW.~.^.^.^.^.^.^.^.^.^.^.^.^.^.^.^.^.^.^.^.^.^.^.^.^.^.^.^.^.^.^.^.^.^.^.^.^.^.^.^.^.^.^.^.^.^.^.^.^.^.^.^.^.^.^.^.^.^.^.^.^.^.^.^.~.W.dX"
};
