/* XPM */
static const char *six_diamonds[] = {
/* columns rows colors chars-per-pixel */
"69 100 229 2 ",
"   c #DF0000",
".  c #DF0101",
"X  c #DF0202",
"o  c #DF0303",
"O  c #DF0404",
"+  c #E00404",
"@  c #E00505",
"#  c #E00606",
"$  c #E00707",
"%  c #E00808",
"&  c #E00909",
"*  c #E00A0A",
"=  c #E00B0B",
"-  c #E10C0C",
";  c #E10D0D",
":  c #E10E0E",
">  c #E10F0F",
",  c #E11010",
"<  c #E11111",
"1  c #E11212",
"2  c #E11313",
"3  c #E21414",
"4  c #E21515",
"5  c #E21616",
"6  c #E21717",
"7  c #E21818",
"8  c #E21919",
"9  c #E21A1A",
"0  c #E21B1B",
"q  c #E31C1C",
"w  c #E31D1D",
"e  c #E31E1E",
"r  c #E31F1F",
"t  c #E32020",
"y  c #E32121",
"u  c #E32222",
"i  c #E32323",
"p  c #E42525",
"a  c #E42626",
"s  c #E42727",
"d  c #E42828",
"f  c #E42929",
"g  c #E42B2B",
"h  c #E52C2C",
"j  c #E52D2D",
"k  c #E52E2E",
"l  c #E52F2F",
"z  c #E53131",
"x  c #E53232",
"c  c #E53333",
"v  c #E63434",
"b  c #E63535",
"n  c #E63636",
"m  c #E63737",
"M  c #E63939",
"N  c #E63A3A",
"B  c #E63B3B",
"V  c #E73C3C",
"C  c #E73E3E",
"Z  c #E74242",
"A  c #E84444",
"S  c #E84545",
"D  c #E84747",
"F  c #E84848",
"G  c #E84B4B",
"H  c #E94C4C",
"J  c #E94D4D",
"K  c #E94E4E",
"L  c #E94F4F",
"P  c #E95050",
"I  c #E95151",
"U  c #E95252",
"Y  c #EA5454",
"T  c #EA5555",
"R  c #EA5656",
"E  c #EA5757",
"W  c #EA5858",
"Q  c #EA5959",
"!  c #EA5A5A",
"~  c #EB5D5D",
"^  c #EB5E5E",
"/  c #EB5F5F",
"(  c #EB6060",
")  c #EB6161",
"_  c #EB6262",
"`  c #EB6363",
"'  c #EC6464",
"]  c #EC6565",
"[  c #EC6666",
"{  c #EC6767",
"}  c #EC6969",
"|  c #EC6A6A",
" . c #EC6B6B",
".. c #ED6D6D",
"X. c #ED6E6E",
"o. c #ED6F6F",
"O. c #ED7070",
"+. c #ED7171",
"@. c #EE7474",
"#. c #EE7575",
"$. c #EE7676",
"%. c #EE7777",
"&. c #EE7878",
"*. c #EE7979",
"=. c #EE7A7A",
"-. c #EE7B7B",
";. c #EF7D7D",
":. c #EF7E7E",
">. c #EF7F7F",
",. c #EF8080",
"<. c #EF8181",
"1. c #EF8282",
"2. c #EF8383",
"3. c #F08585",
"4. c #F08686",
"5. c #F08787",
"6. c #F08989",
"7. c #F08A8A",
"8. c #F08B8B",
"9. c #F18C8C",
"0. c #F18E8E",
"q. c #F18F8F",
"w. c #F19191",
"e. c #F19292",
"r. c #F19393",
"t. c #F29494",
"y. c #F29797",
"u. c #F29898",
"i. c #F29999",
"p. c #F29A9A",
"a. c #F39C9C",
"s. c #F39D9D",
"d. c #F3A0A0",
"f. c #F3A1A1",
"g. c #F3A2A2",
"h. c #F3A3A3",
"j. c #F4A4A4",
"k. c #F4A5A5",
"l. c #F4A6A6",
"z. c #F4A7A7",
"x. c #F4A8A8",
"c. c #F4A9A9",
"v. c #F4ABAB",
"b. c #F5ACAC",
"n. c #F5AEAE",
"m. c #F5AFAF",
"M. c #F5B0B0",
"N. c #F5B1B1",
"B. c #F5B2B2",
"V. c #F5B3B3",
"C. c #F6B4B4",
"Z. c #F6B5B5",
"A. c #F6B6B6",
"S. c #F6B8B8",
"D. c #F6B9B9",
"F. c #F6BBBB",
"G. c #F7BCBC",
"H. c #F7BDBD",
"J. c #F7BEBE",
"K. c #F7BFBF",
"L. c gray76",
"P. c #C3C3C3",
"I. c gray77",
"U. c #CBCBCB",
"Y. c gray80",
"T. c #F7C0C0",
"R. c #F7C1C1",
"E. c #F7C2C2",
"W. c #F8C5C5",
"Q. c #F8C6C6",
"!. c #F8C7C7",
"~. c #F8C8C8",
"^. c #F8C9C9",
"/. c #F8CACA",
"(. c #F8CBCB",
"). c #F9CCCC",
"_. c #F9CDCD",
"`. c #F9CECE",
"'. c #F9CFCF",
"]. c #F9D0D0",
"[. c #F9D1D1",
"{. c #F9D2D2",
"}. c #F9D3D3",
"|. c #FAD4D4",
" X c #FAD5D5",
".X c #FAD6D6",
"XX c #FAD7D7",
"oX c #FAD8D8",
"OX c #FAD9D9",
"+X c #FADADA",
"@X c #FADBDB",
"#X c #FBDCDC",
"$X c #FBDDDD",
"%X c #FBDEDE",
"&X c #FBDFDF",
"*X c #FBE0E0",
"=X c #FBE1E1",
"-X c #FBE2E2",
";X c #FBE3E3",
":X c #FCE4E4",
">X c #FCE5E5",
",X c #FCE6E6",
"<X c #FCE7E7",
"1X c #FCE8E8",
"2X c #FCE9E9",
"3X c #FCEAEA",
"4X c #FCEBEB",
"5X c #FDECEC",
"6X c #FDEDED",
"7X c #FDEEEE",
"8X c #FDEFEF",
"9X c #FDF0F0",
"0X c #FDF1F1",
"qX c #FDF2F2",
"wX c #FDF3F3",
"eX c #FEF4F4",
"rX c #FEF5F5",
"tX c #FEF6F6",
"yX c #FEF7F7",
"uX c gray98",
"iX c #FEF8F8",
"pX c #FEF9F9",
"aX c #FEFAFA",
"sX c #FEFBFB",
"dX c #FFFCFC",
"fX c #FFFDFD",
"gX c #FEFEFE",
"hX c #FFFEFE",
"jX c white",
/* pixels */
"uXL.U.Y.Y.Y.Y.Y.Y.Y.Y.Y.Y.Y.Y.Y.Y.Y.Y.Y.Y.Y.Y.Y.Y.Y.Y.Y.Y.Y.Y.Y.Y.Y.Y.Y.Y.Y.Y.Y.Y.Y.Y.Y.Y.Y.Y.Y.Y.Y.Y.Y.Y.Y.Y.Y.Y.Y.Y.Y.Y.Y.Y.Y.Y.Y.U.L.uX",
"P.gXjXjXjXjXjXjXjXjXjXjXjXjXjXjXjXjXjXjXjXjXjXjXjXjXjXjXjXjXjXjXjXjXjXjXjXjXjXjXjXjXjXjXjXjXjXjXjXjXjXjXjXjXjXjXjXjXjXjXjXjXjXjXjXjXjXgXI.",
"U.jXjXjXwX^ > 2 +.dXjXjXjXjXjXjXjXjXjXjXjXjXjXjXjXjXjXjXjXjXjXjXjXjXjXjXjXjXjXjXjXjXjXjXjXjXjXjXjXjXjXjXjXjXjXjXjXjXjXjXjXjXjXjXjXjXjXjXU.",
"U.jXjXjX^ R wX:Xn H.jXjXjXjXjXjXjXjXjXjXjXjXjXjXjXjXjXjXjXjXjXjXjXjXjXjXjXjXjXjXjXjXjXjXjXjXjXjXjXjXjXjXjXjXjXjXjXjXjXjXjXjXjXjXjXjXjXjXU.",
"U.jXjX8X$ ,XjXjXjXjXjXjXjXjXjXjXjXjXjXjXjXjXjXjXjXjXjXjXjXjXjXjXjXjXjXjXjXjXjXjXjXjXjXjXjXjXjXjXjXjXjXjXjXjXjXjXjXjXjXjXjXjXjXjXjXjXjXjXU.",
"U.jXjXR.9 6.s p ,.fXjXjXjXjXjXjXjXjXjXjXjXjXjXjXjXjXjXjXjXjXjXjXjXjXjXjXjXjXjXjXjXjXjXjXjXjXjXjXjXjXjXjXjXjXjXjXjXjXjXjXjXjXjXjXjXjXjXjXU.",
"U.jXjXm.+ 9.fX$Xt p.jXjXjXjXjXjXjXjXjXjXjXjXjXjXjXjXjXjXjXjXjXjXjXjXjXjXjXjXjXjXjXjXjXjXjXjXjXjXjXjXjXjXjXjXjXjXjXjXjXjXjXjXjXjXjXjXjXjXU.",
"U.jXjXR.# fXjXjX<.I jXjXjXjXjXjXjXjXjXjXjXjXjXjXjXjXjXjXjXjXjXjXjXjXjXjXjXjXjXjXjXjXjXjXjXjXjXjXjXjXjXjXjXjXjXjXjXjXjXjXjXjXjXjXjXjXjXjXU.",
"U.jXjX>XX 7XjXjX,.R jXjXjXjXjXjXjXjXjXjXjXjXjXjXjXjXjXjXjXjXjXjXjXjXjXjXjXjXjXjXjXjXjXjXjXjXjXjXjXjXjXjXjXjXjXjXjXjXjXjXjXjXjXjXjXjXjXjXU.",
"U.jXjXjXJ [ aX*Xr g.jXjXjXjXjXjXjXjXjXjXjXjXjXaXjXjXjXjXjXjXjXjXjXjXjXjXjXjXjXjXjXjXjXjXjXyXjXjXjXjXjXjXjXjXjXjXjXjXjXjXjXjXjXjXjXjXjXjXU.",
"U.jXjXjX<XH > w 2.hXjXjXjXjXjXjXjXjXjXjXjXjX{.5.jXjXjXjXjXjXjXjXjXjXjXjXjXjXjXjXjXjXjXjXdXI hXjXjXjXjXjXjXjXjXjXjXjXjXjXjXjXjXjXjXjXjXjXU.",
"U.jXjXjXjXjXjXdXjXjXjXjXjXjXjXjXjXjXjXjXjXjX~ 8 yXjXjXjXjXjXjXjXjXjXjXjXjXjXjXjXjXjXjXjXk.  F.jXjXjXjXjXjXjXjXjXjXjXjXjXjXjXjXjXjXjXjXjXU.",
"U.jXjXjXjXjXT.j.jXjXjXjXjXjXjXjXjXjXjXjXjX.XO   7.jXjXjXjXjXjXjXjXjXjXjXjXjXjXjXjXjXjXaXp   b hXjXjXjXjXjXjXjXjXjXjXjXjXjXjXjXjXjXjXjXjXU.",
"U.jXjXjXjXfXM r rXjXjXjXjXjXjXjXjXjXjXjXjXF     < 4XjXjXjXjXjXjXjXjXjXjXjXjXjXjXjXjXjXq.      l.jXjXjXjXjXjXjXjXjXjXjXjXjXjXjXjXjXjXjXjXU.",
"U.jXjXjXjXu.    ;.jXjXjXjXjXjXjXjXjXjXjXj.        ! jXjXjXjXjXjXjXjXjXjXjXjXjXjXjXjX*X;       3 2XjXjXjXjXjXjXjXjXjXjXjXjXjXjXjXjXjXjXjXU.",
"U.jXjXjX%X1     $ _.jXjXjXjXjXjXjXjXjX1X3           m.jXjXjXjXjXjXjXjXjXjXjXjXjXjXhXA           Q jXjXjXjXjXjXjXjXjXjXjXjXjXjXjXjXjXjXjXU.",
"U.jXjX5Xg         0 *XjXjXjXjXjXjXjXaXZ             1 OXjXjXjXjXjXjXjXjXjXjXjXjXjX;.              t.jXjXjXjXjXjXjXjXjXjXjXjXjXjXjXjXjXjXU.",
"U.jX=Xh             e |.jXjXjXjXjXjX[                 u 4XjXjXjXjXjXjXjXjXjXjXjXc..               o C.jXjXjXjXjXjXjXjXjXjXjXjXjXjXjXjXjXU.",
"U.jXe.X               &.jXjXjXjXjX=.                    c 5XjXjXjXjXjXjXjXjXjXV.$                   = G.jXjXjXjXjXjXjXjXjXjXjXjXjXjXjXjXU.",
"U.jXjXh.o           7.jXjXjXjXdX .                        x 1XjXjXjXjXjXjXjXh.@                       * Z.jXjXjXjXjXjXjXjXjXjXjXjXjXjXjXU.",
"U.jXjXjXw.        %.jXjXjXjXqXJ                             0 /.jXjXjXjXhX&..                           o 7.jXjXjXjXjXjXjXjXjXjXjXjXjXjXU.",
"U.jXjXjXjXU     m fXjXjXjXjXqXP                             w (.jXjXjXjXjXi.#                           % f.jXjXjXjXjXjXjXjXjXjXjXjXjXjXU.",
"U.jXjXjXjX-X- o `.jXjXjXjXjXjXfXO.                        m 4XjXjXjXjXjXjXjXJ.-                       4 _.jXjXjXjXjXjXjXjXjXjXjXjXjXjXjXU.",
"U.jXjXjXjXjX4.| jXjXjXjXjXjXjXjXjX=.                    V 0XjXjXjXjXjXjXjXjXjXW.>                   7 |.jXjXjXjXjXjXjXjXjXjXjXjXjXjXjXjXU.",
"U.jXjXjXjXjX9X=XjXjXjXjXjXjXjXjXjXjX}                 d 8XjXjXjXjXjXjXjXjXjXjXjXT.#               & ^.jXjXjXjXjXjXjXjXjXjXjXjXjXjXjXjXjXU.",
"U.jXjXjXjXjXjXjXjXjXjXjXjXjXjXjXjXjXsXA             2 @XjXjXjXjXjXjXjXjXjXjXjXjXjXa.            . z.jXjXjXjXjXjXjXjXjXjXjXjXjXjXjXjXjXjXU.",
"U.jXjXjXjXjXjXjXjXjXjXjXjXjXjXjXjXjXjX4X6           m.jXjXjXjXjXjXjXjXjXjXjXjXjXjXjXE           X.jXjXjXjXjXjXjXjXjXjXjXjXjXjXjXjXjXjXjXU.",
"U.jXjXjXjXjXjXjXjXjXjXjXjXjXjXjXjXjXjXjXc.        / jXjXjXjXjXjXjXjXjXjXjXjXjXjXjXjX4X6       y wXjXjXjXjXjXjXjXjXjXjXjXjXjXjXjXjXjXjXjXU.",
"U.jXjXjXjXjXjXjXjXjXjXjXjXjXjXjXjXjXjXjXjXH     2 6XjXjXjXjXjXjXjXjXjXjXjXjXjXjXjXjXjXg.      S.jXjXjXjXjXjXjXjXjXjXjXjXjXjXjXjXjXjXjXjXU.",
"U.jXjXjXjXjXjXjXjXjXjXjXjXjXjXjXjXjXjXjXjXoXO   0.jXjXjXjXjXjXjXjXjXjXjXjXjXjXjXjXjXjXfXc   D jXjXjXjXjXjXjXjXjXjXjXjXjXjXjXjXjXjXjXjXjXU.",
"U.jXjXjXjXjXjXjXjXjXjXjXjXjXjXjXjXjXjXjXjXjX( 0 iXjXjXjXjXjXjXjXjXjXjXjXjXjXjXjXjXjXjXjXZ.  /.jXjXjXjXjXjXjXjXjXjXjXjXjXjXjXjXjXjXjXjXjXU.",
"U.jXjXjXjXjXjXjXjXjXjXjXjXjXjXjXjXjXjXjXjXjXXX8.jXjXjXjXjXjXjXjXjXjXjXjXjXjXjXjXjXjXjXjXhXO.jXjXjXjXjXjXjXjXjXjXjXjXjXjXjXjXjXjXjXjXjXjXU.",
"U.jXjXjXjXjXjXjXjXjXjXjXjXjXjXjXjXjXjXjXjXjXjXsXjXjXjXjXjXjXjXjXjXjXjXjXjXjXjXjXjXjXjXjXjXfXjXjXjXjXjXjXjXjXjXjXjXjXjXjXjXjXjXjXjXjXjXjXU.",
"U.jXjXjXjXjXjXjXjXjXjXjXjXjXjXjXjXjXjXjXjXjXjXjXjXjXjXjXjXjXjXjXjXjXjXjXjXjXjXjXjXjXjXjXjXjXjXjXjXjXjXjXjXjXjXjXjXjXjXjXjXjXjXjXjXjXjXjXU.",
"U.jXjXjXjXjXjXjXjXjXjXjXjXjXjXjXjXjXjXjXjXjXjXjXjXjXjXjXjXjXjXjXjXjXjXjXjXjXjXjXjXjXjXjXjXjXjXjXjXjXjXjXjXjXjXjXjXjXjXjXjXjXjXjXjXjXjXjXU.",
"U.jXjXjXjXjXjXjXjXjXjXjXjXjXjXjXjXjXjXjXjXjXjXjXjXjXjXjXjXjXjXjXjXjXjXjXjXjXjXjXjXjXjXjXjXjXjXjXjXjXjXjXjXjXjXjXjXjXjXjXjXjXjXjXjXjXjXjXU.",
"U.jXjXjXjXjXjXjXjXjXjXjXjXjXjXjXjXjXjXjXjXjXjXjXjXjXjXjXjXjXjXjXjXjXjXjXjXjXjXjXjXjXjXjXjXjXjXjXjXjXjXjXjXjXjXjXjXjXjXjXjXjXjXjXjXjXjXjXU.",
"U.jXjXjXjXjXjXjXjXjXjXjXjXjXjXjXjXjXjXjXjXjXjXjXjXjXjXjXjXjXjXjXjXjXjXjXjXjXjXjXjXjXjXjXjXjXjXjXjXjXjXjXjXjXjXjXjXjXjXjXjXjXjXjXjXjXjXjXU.",
"U.jXjXjXjXjXjXjXjXjXjXjXjXjXjXjXjXjXjXjXjXjXhX>XjXjXjXjXjXjXjXjXjXjXjXjXjXjXjXjXjXjXjXjXjX%XjXjXjXjXjXjXjXjXjXjXjXjXjXjXjXjXjXjXjXjXjXjXU.",
"U.jXjXjXjXjXjXjXjXjXjXjXjXjXjXjXjXjXjXjXjXjXN.[ jXjXjXjXjXjXjXjXjXjXjXjXjXjXjXjXjXjXjXjX7Xi yXjXjXjXjXjXjXjXjXjXjXjXjXjXjXjXjXjXjXjXjXjXU.",
"U.jXjXjXjXjXjXjXjXjXjXjXjXjXjXjXjXjXjXjXjXjXN % >XjXjXjXjXjXjXjXjXjXjXjXjXjXjXjXjXjXjXjX1.  u.jXjXjXjXjXjXjXjXjXjXjXjXjXjXjXjXjXjXjXjXjXU.",
"U.jXjXjXjXjXjXjXjXjXjXjXjXjXjXjXjXjXjXjXjXn.    ' jXjXjXjXjXjXjXjXjXjXjXjXjXjXjXjXjXjX3X:   5 qXjXjXjXjXjXjXjXjXjXjXjXjXjXjXjXjXjXjXjXjXU.",
"U.jXjXjXjXjXjXjXjXjXjXjXjXjXjXjXjXjXjXjXyXa     o '.jXjXjXjXjXjXjXjXjXjXjXjXjXjXjXjXjX'       -.jXjXjXjXjXjXjXjXjXjXjXjXjXjXjXjXjXjXjXjXU.",
"U.jXjXjXjXjXjXjXjXjXjXjXjXjXjXjXjXjXjXjX$.        l pXjXjXjXjXjXjXjXjXjXjXjXjXjXjXjXH..       O ).jXjXjXjXjXjXjXjXjXjXjXjXjXjXjXjXjXjXjXU.",
"U.jXjXjXjXjXjXjXjXjXjXjXjXjXjXjXjXjXjX!.O           ;.jXjXjXjXjXjXjXjXjXjXjXjXjXjX9Xy           l yXjXjXjXjXjXjXjXjXjXjXjXjXjXjXjXjXjXjXU.",
"U.jXjXjXjXjXjXjXjXjXjXjXjXjXjXjXjXjX>Xq             . x.jXjXjXjXjXjXjXjXjXjXjXjXdXG               T hXjXjXjXjXjXjXjXjXjXjXjXjXjXjXjXjXjXU.",
"U.jXjXjXjXjXjXjXjXjXjXjXjXjXjXjXjXqXz                 = ).jXjXjXjXjXjXjXjXjXjXhX{                   :.jXjXjXjXjXjXjXjXjXjXjXjXjXjXjXjXjXU.",
"U.jXjXjXjXjXjXjXjXjXjXjXjXjXjXjX9XM                     , ~.jXjXjXjXjXjXjXjXhXo.                      %.jXjXjXjXjXjXjXjXjXjXjXjXjXjXjXjXU.",
"U.jXjXjXjXjXjXjXjXjXjXjXjXjXjX:Xc                         > F.jXjXjXjXjXjXiX/                           +.dXjXjXjXjXjXjXjXjXjXjXjXjXjXjXU.",
"U.jXjXjXjXjXjXjXjXjXjXjXjXjX*X8                             O c.jXjXjXjXhXA                               W jXjXjXjXjXjXjXjXjXjXjXjXjXjXU.",
"U.jXjXjXjXjXjXjXjXjXjXjXjXjXjXi.@                           J 0XjXjXjXjXjX{.u                           s oXjXjXjXjXjXjXjXjXjXjXjXjXjXjXU.",
"U.jXjXjXjXjXjXjXjXjXjXjXjXjXjXjXV.%                       O.hXjXjXjXjXjXjXjX1Xj                       V 0XjXjXjXjXjXjXjXjXjXjXjXjXjXjXjXU.",
"U.jXjXjXjXjXjXjXjXjXjXjXjXjXjXjXjXD.$                   #.jXjXjXjXjXjXjXjXjXjX4Xk                   C eXjXjXjXjXjXjXjXjXjXjXjXjXjXjXjXjXU.",
"U.jXjXjXjXjXjXjXjXjXjXjXjXjXjXjXjXjXx..               Y hXjXjXjXjXjXjXjXjXjXjXjX>X0               y 4XjXjXjXjXjXjXjXjXjXjXjXjXjXjXjXjXjXU.",
"U.jXjXjXjXjXjXjXjXjXjXjXjXjXjXjXjXjXjX&.            v tXjXjXjXjXjXjXjXjXjXjXjXjXjX^.$           : XXjXjXjXjXjXjXjXjXjXjXjXjXjXjXjXjXjXjXU.",
"U.jXjXjXjXjXjXjXjXjXjXjXjXjXjXjXjXjXjXsXb         %  XjXjXjXjXjXjXjXjXjXjXjXjXjXjXjX4.          a.jXjXjXjXjXjXjXjXjXjXjXjXjXjXjXjXjXjXjXU.",
"U.jXjXjXjXjXjXjXjXjXjXjXjXjXjXjXjXjXjXjX.X%       0.jXjXjXjXjXjXjXjXjXjXjXjXjXjXjXjXsXv       D hXjXjXjXjXjXjXjXjXjXjXjXjXjXjXjXjXjXjXjXU.",
"U.jXjXjXjXjXjXjXjXjXjXjXjXjXjXjXjXjXjXjXjX@.    f sXjXjXjXjXjXjXjXjXjXjXjXjXjXjXjXjXjX^..   @ +XjXjXjXjXjXjXjXjXjXjXjXjXjXjXjXjXjXjXjXjXU.",
"U.jXjXjXjXjXjXjXjXjXjXjXjXjXjXjXjXjXjXjXjX8X2   Z.jXjXjXjXjXjXjXjXjXjXjXjXjXjXjXjXjXjXjXE   ..jXjXjXjXjXjXjXjXjXjXjXjXjXjXjXjXjXjXjXjXjXU.",
"U.jXjXjXjXjXjXjXjXjXjXjXjXjXjXjXjXjXjXjXjXjX<.v jXjXjXjXjXjXjXjXjXjXjXjXjXjXjXjXjXjXjXjXXX$ ;XjXjXjXjXjXjXjXjXjXjXjXjXjXjXjXjXjXjXjXjXjXU.",
"U.jXjXjXjXjXjXjXjXjXjXjXjXjXjXjXjXjXjXjXjXjX4XB.jXjXjXjXjXjXjXjXjXjXjXjXjXjXjXjXjXjXjXjXjXx.jXjXjXjXjXjXjXjXjXjXjXjXjXjXjXjXjXjXjXjXjXjXU.",
"U.jXjXjXjXjXjXjXjXjXjXjXjXjXjXjXjXjXjXjXjXjXjXjXjXjXjXjXjXjXjXjXjXjXjXjXjXjXjXjXjXjXjXjXjXjXjXjXjXjXjXjXjXjXjXjXjXjXjXjXjXjXjXjXjXjXjXjXU.",
"U.jXjXjXjXjXjXjXjXjXjXjXjXjXjXjXjXjXjXjXjXjXjXjXjXjXjXjXjXjXjXjXjXjXjXjXjXjXjXjXjXjXjXjXjXjXjXjXjXjXjXjXjXjXjXjXjXjXjXjXjXjXjXjXjXjXjXjXU.",
"U.jXjXjXjXjXjXjXjXjXjXjXjXjXjXjXjXjXjXjXjXjXjXjXjXjXjXjXjXjXjXjXjXjXjXjXjXjXjXjXjXjXjXjXjXjXjXjXjXjXjXjXjXjXjXjXjXjXjXjXjXjXjXjXjXjXjXjXU.",
"U.jXjXjXjXjXjXjXjXjXjXjXjXjXjXjXjXjXjXjXjXjXjXjXjXjXjXjXjXjXjXjXjXjXjXjXjXjXjXjXjXjXjXjXjXjXjXjXjXjXjXjXjXjXjXjXjXjXjXjXjXjXjXjXjXjXjXjXU.",
"U.jXjXjXjXjXjXjXjXjXjXjXjXjXjXjXjXjXjXjXjXjXjXjXjXjXjXjXjXjXjXjXjXjXjXjXjXjXjXjXjXjXjXjXjXjXjXjXjXjXjXjXjXjXjXjXjXjXjXjXjXjXjXjXjXjXjXjXU.",
"U.jXjXjXjXjXjXjXjXjXjXjXjXjXjXjXjXjXjXjXjXjXjXjXjXjXjXjXjXjXjXjXjXjXjXjXjXjXjXjXjXjXjXjXjXjXjXjXjXjXjXjXjXjXjXjXjXjXjXjXjXjXjXjXjXjXjXjXU.",
"U.jXjXjXjXjXjXjXjXjXjXjXjXjXjXjXjXjXjXjXjXjXjXjXjXjXjXjXjXjXjXjXjXjXjXjXjXjXjXjXjXjXjXjXjXhXjXjXjXjXjXjXjXjXjXjXjXjXjXjXjXjXjXjXjXjXjXjXU.",
"U.jXjXjXjXjXjXjXjXjXjXjXjXjXjXjXjXjXjXjXjXjX:Xg.jXjXjXjXjXjXjXjXjXjXjXjXjXjXjXjXjXjXjXjXjX=.jXjXjXjXjXjXjXjXjXjXjXjXjXjXjXjXjXjXjXjXjXjXU.",
"U.jXjXjXjXjXjXjXjXjXjXjXjXjXjXjXjXjXjXjXjXjX@.f fXjXjXjXjXjXjXjXjXjXjXjXjXjXjXjXjXjXjXjXG.. [.jXjXjXjXjXjXjXjXjXjXjXjXjXjXjXjXjXjXjXjXjXU.",
"U.jXjXjXjXjXjXjXjXjXjXjXjXjXjXjXjXjXjXjXjX>X=   j.jXjXjXjXjXjXjXjXjXjXjXjXjXjXjXjXjXjXjXB   L jXjXjXjXjXjXjXjXjXjXjXjXjXjXjXjXjXjXjXjXjXU.",
"U.jXjXjXjXjXjXjXjXjXjXjXjXjXjXjXjXjXjXjXjX`     t yXjXjXjXjXjXjXjXjXjXjXjXjXjXjXjXjXjXv.      R.jXjXjXjXjXjXjXjXjXjXjXjXjXjXjXjXjXjXjXjXU.",
"U.jXjXjXjXjXjXjXjXjXjXjXjXjXjXjXjXjXjXjXQ.X       =.jXjXjXjXjXjXjXjXjXjXjXjXjXjXjXjX9Xw       d yXjXjXjXjXjXjXjXjXjXjXjXjXjXjXjXjXjXjXjXU.",
"U.jXjXjXjXjXjXjXjXjXjXjXjXjXjXjXjXjXjXtXp         O /.jXjXjXjXjXjXjXjXjXjXjXjXjXjXjX_           *.jXjXjXjXjXjXjXjXjXjXjXjXjXjXjXjXjXjXjXU.",
"U.jXjXjXjXjXjXjXjXjXjXjXjXjXjXjXjXjXjX_             a 7XjXjXjXjXjXjXjXjXjXjXjXjXjXl..           O S.jXjXjXjXjXjXjXjXjXjXjXjXjXjXjXjXjXjXU.",
"U.jXjXjXjXjXjXjXjXjXjXjXjXjXjXjXjXjX6.                C pXjXjXjXjXjXjXjXjXjXjXjX/.*               ; }.jXjXjXjXjXjXjXjXjXjXsX+XjXjXjXjXjXU.",
"U.jXjXjXjXjXjXjXjXjXjXjXjXjXjXjXjXd.X                   ! dXjXjXjXjXjXjXjXjXjX].3                   r $XjXjXjXjXjXjXjXjXjXf.T jXjXjXjXjXU.",
"U.jXjXjXjXjXjXjXjXjXjXjXjXjXjXjXp.X                       R pXjXjXjXjXjXjXjX/.1                       q XXjXjXjXjXjXjXjXqX9   H.jXjXjXjXU.",
"U.jXjXjXjXjXjXjXjXjXjXjXjXjXhX>.                            B <XjXjXjXjXjXc.*                           ; N.jXjXjXjXjXjXo.    d pXjXjXjXU.",
"U.jXjXjXjXjXjXjXjXjXjXjXjXjX;Xf                             = C.jXjXjXjXhX{                             . -.jXjXjXjXjXC.o       ) jXjXjXU.",
"U.jXjXjXjXjXjXjXjXjXjXjXjXjXjX0XD                         0 ].jXjXjXjXjXjXjXr.X                       # l.jXjXjXjXjXF.*           =.jXjXU.",
"U.jXjXjXjXjXjXjXjXjXjXjXjXjXjXjXpXU                     e @XjXjXjXjXjXjXjXjXjXl.O                   # m.jXjXjXjXjXv.$               ] jXU.",
"U.jXjXjXjXjXjXjXjXjXjXjXjXjXjXjXjXaXA                 3 $XjXjXjXjXjXjXjXjXjXjXjXy.                X b.jXjXjXjXjXjX1Xm             < R.jXU.",
"U.jXjXjXjXjXjXjXjXjXjXjXjXjXjXjXjXjX0Xg             @ J.jXjXjXjXjXjXjXjXjXjXjXjXjXX.              3.jXjXjXjXjXjXjXjXqXm         > '.jXjXU.",
"U.jXjXjXjXjXjXjXjXjXjXjXjXjXjXjXjXjXjX.X%           w.jXjXjXjXjXjXjXjXjXjXjXjXjXjXdXN           J hXjXjXjXjXjXjXjXjXjX1X0     . A.jXjXjXU.",
"U.jXjXjXjXjXjXjXjXjXjXjXjXjXjXjXjXjXjXjX7.        B fXjXjXjXjXjXjXjXjXjXjXjXjXjXjXjXoX&       , ;XjXjXjXjXjXjXjXjXjXjXjXb.    ) jXjXjXjXU.",
"U.jXjXjXjXjXjXjXjXjXjXjXjXjXjXjXjXjXjXjXdXc     % #XjXjXjXjXjXjXjXjXjXjXjXjXjXjXjXjXjX4.      a.jXjXjXjXjXjXjXjXjXjXjXjXjXG 1 3XjXjXjXjXU.",
"U.jXjXjXjXjXjXjXjXjXjXjXjXjXjXjXjXjXjXjXjXT.    #.jXjXjXjXjXjXjXjXjXjXjXjXjXjXjXjXjXjXyXr   k fXjXjXjXjXjXjXjXjXjXjXjXjXjX|.7.jXjXjXjXjXU.",
"U.jXjXjXjXjXjXjXjXjXjXjXjXjXjXjXjXjXjXjXjXjXF : 7XjXjXjXjXjXjXjXjXjXjXjXjXjXjXjXjXjXjXjXs.  V.jXjXjXjXjXjXjXjXjXjXjXjXjXjXjXsXjXjXjXjXjXU.",
"U.jXjXjXjXjXjXjXjXjXjXjXjXjXjXjXjXjXjXjXjXjXK.@.jXjXjXjXjXjXjXjXjXjXjXjXjXjXjXjXjXjXjXjXaXS hXjXjXjXjXjXjXjXjXjXjXjXjXhX<.e , K 1XjXjXjXU.",
"U.jXjXjXjXjXjXjXjXjXjXjXjXjXjXjXjXjXjXjXjXjXjX8XjXjXjXjXjXjXjXjXjXjXjXjXjXjXjXjXjXjXjXjXjXwXjXjXjXjXjXjXjXjXjXjXjXjXjXd.y =XaX' L jXjXjXU.",
"U.jXjXjXjXjXjXjXjXjXjXjXjXjXjXjXjXjXjXjXjXjXjXjXjXjXjXjXjXjXjXjXjXjXjXjXjXjXjXjXjXjXjXjXjXjXjXjXjXjXjXjXjXjXjXjXjXjXjXT <.jXjX6XX >XjXjXU.",
"U.jXjXjXjXjXjXjXjXjXjXjXjXjXjXjXjXjXjXjXjXjXjXjXjXjXjXjXjXjXjXjXjXjXjXjXjXjXjXjXjXjXjXjXjXjXjXjXjXjXjXjXjXjXjXjXjXjXjXI <.jXjXfX# E.jXjXU.",
"U.jXjXjXjXjXjXjXjXjXjXjXjXjXjXjXjXjXjXjXjXjXjXjXjXjXjXjXjXjXjXjXjXjXjXjXjXjXjXjXjXjXjXjXjXjXjXjXjXjXjXjXjXjXjXjXjXjXjXi.y &XfX9.+ M.jXjXU.",
"U.jXjXjXjXjXjXjXjXjXjXjXjXjXjXjXjXjXjXjXjXjXjXjXjXjXjXjXjXjXjXjXjXjXjXjXjXjXjXjXjXjXjXjXjXjXjXjXjXjXjXjXjXjXjXjXjXjXjXfX>.p s 8.8 E.jXjXU.",
"U.jXjXjXjXjXjXjXjXjXjXjXjXjXjXjXjXjXjXjXjXjXjXjXjXjXjXjXjXjXjXjXjXjXjXjXjXjXjXjXjXjXjXjXjXjXjXjXjXjXjXjXjXjXjXjXjXjXjXjXjXjXjX:X$ 8XjXjXU.",
"U.jXjXjXjXjXjXjXjXjXjXjXjXjXjXjXjXjXjXjXjXjXjXjXjXjXjXjXjXjXjXjXjXjXjXjXjXjXjXjXjXjXjXjXjXjXjXjXjXjXjXjXjXjXjXjXjXjXjXH.m :XwXR / jXjXjXU.",
"U.jXjXjXjXjXjXjXjXjXjXjXjXjXjXjXjXjXjXjXjXjXjXjXjXjXjXjXjXjXjXjXjXjXjXjXjXjXjXjXjXjXjXjXjXjXjXjXjXjXjXjXjXjXjXjXjXjXjXdXo.1 > ~ wXjXjXjXU.",
"P.gXjXjXjXjXjXjXjXjXjXjXjXjXjXjXjXjXjXjXjXjXjXjXjXjXjXjXjXjXjXjXjXjXjXjXjXjXjXjXjXjXjXjXjXjXjXjXjXjXjXjXjXjXjXjXjXjXjXjXjXjXjXjXjXjXjXgXI.",
"uXL.U.Y.Y.Y.Y.Y.Y.Y.Y.Y.Y.Y.Y.Y.Y.Y.Y.Y.Y.Y.Y.Y.Y.Y.Y.Y.Y.Y.Y.Y.Y.Y.Y.Y.Y.Y.Y.Y.Y.Y.Y.Y.Y.Y.Y.Y.Y.Y.Y.Y.Y.Y.Y.Y.Y.Y.Y.Y.Y.Y.Y.Y.Y.Y.U.L.uX"
};
