/* XPM */
static const char *six_clubs[] = {
/* columns rows colors chars-per-pixel */
"69 100 240 2 ",
"   c black",
".  c #010101",
"X  c #020202",
"o  c gray1",
"O  c #040404",
"+  c gray2",
"@  c #060606",
"#  c #070707",
"$  c gray3",
"%  c #090909",
"&  c gray4",
"*  c #0B0B0B",
"=  c #0C0C0C",
"-  c gray5",
";  c #0E0E0E",
":  c gray6",
">  c #101010",
",  c #111111",
"<  c gray7",
"1  c #131313",
"2  c gray8",
"3  c #151515",
"4  c #161616",
"5  c gray9",
"6  c #181818",
"7  c #191919",
"8  c gray10",
"9  c #1B1B1B",
"0  c gray11",
"q  c #1D1D1D",
"w  c #1E1E1E",
"e  c gray12",
"r  c #202020",
"t  c gray13",
"y  c #222222",
"u  c #232323",
"i  c gray14",
"p  c #252525",
"a  c gray15",
"s  c #272727",
"d  c #282828",
"f  c gray16",
"g  c #2A2A2A",
"h  c gray17",
"j  c #2C2C2C",
"k  c #2D2D2D",
"l  c gray18",
"z  c gray19",
"x  c #313131",
"c  c #323232",
"v  c gray20",
"b  c #343434",
"n  c #353535",
"m  c gray21",
"M  c #373737",
"N  c #3A3A3A",
"B  c gray23",
"V  c #3C3C3C",
"C  c #3E3E3E",
"Z  c #3F3F3F",
"A  c gray25",
"S  c #414141",
"D  c gray26",
"F  c #434343",
"G  c #444444",
"H  c gray27",
"J  c #464646",
"K  c gray28",
"L  c #484848",
"P  c #494949",
"I  c gray29",
"U  c #4B4B4B",
"Y  c #4C4C4C",
"T  c gray30",
"R  c #4E4E4E",
"E  c gray31",
"W  c #505050",
"Q  c #515151",
"!  c gray32",
"~  c #535353",
"^  c gray33",
"/  c #555555",
"(  c #565656",
")  c gray34",
"_  c #585858",
"`  c gray35",
"'  c #5A5A5A",
"]  c #5B5B5B",
"[  c gray36",
"{  c #5D5D5D",
"}  c gray37",
"|  c #5F5F5F",
" . c #606060",
".. c #626262",
"X. c #646464",
"o. c #656565",
"O. c gray40",
"+. c #676767",
"@. c #686868",
"#. c DimGray",
"$. c #6A6A6A",
"%. c gray42",
"&. c #6C6C6C",
"*. c #6D6D6D",
"=. c gray43",
"-. c #6F6F6F",
";. c gray44",
":. c #717171",
">. c #727272",
",. c gray45",
"<. c #747474",
"1. c #767676",
"2. c #777777",
"3. c gray47",
"4. c #797979",
"5. c gray48",
"6. c #7B7B7B",
"7. c #7C7C7C",
"8. c gray49",
"9. c #7E7E7E",
"0. c gray50",
"q. c #808080",
"w. c #818181",
"e. c gray51",
"r. c #838383",
"t. c #848484",
"y. c gray52",
"u. c gray53",
"i. c #888888",
"p. c #898989",
"a. c gray54",
"s. c #8B8B8B",
"d. c gray55",
"f. c #8D8D8D",
"g. c #8E8E8E",
"h. c gray56",
"j. c #909090",
"k. c #929292",
"l. c #939393",
"z. c #959595",
"x. c gray59",
"c. c #979797",
"v. c #989898",
"b. c gray60",
"n. c #9A9A9A",
"m. c #9B9B9B",
"M. c gray61",
"N. c #9D9D9D",
"B. c gray62",
"V. c #A0A0A0",
"C. c gray63",
"Z. c #A2A2A2",
"A. c gray64",
"S. c #A4A4A4",
"D. c #A5A5A5",
"F. c gray65",
"G. c #A7A7A7",
"H. c gray66",
"J. c #A9A9A9",
"K. c #AAAAAA",
"L. c gray67",
"P. c #ACACAC",
"I. c gray68",
"U. c #AEAEAE",
"Y. c #AFAFAF",
"T. c gray69",
"R. c #B2B2B2",
"E. c gray70",
"W. c #B4B4B4",
"Q. c gray71",
"!. c #B6B6B6",
"~. c #B7B7B7",
"^. c gray72",
"/. c #B9B9B9",
"(. c gray73",
"). c #BBBBBB",
"_. c gray74",
"`. c gray",
"'. c gray75",
"]. c #C0C0C0",
"[. c #C1C1C1",
"{. c gray76",
"}. c #C3C3C3",
"|. c gray77",
" X c #C5C5C5",
".X c #C6C6C6",
"XX c gray78",
"oX c #C8C8C8",
"OX c gray79",
"+X c #CACACA",
"@X c #CBCBCB",
"#X c gray80",
"$X c #CDCDCD",
"%X c #CECECE",
"&X c gray81",
"*X c #D0D0D0",
"=X c gray82",
"-X c #D2D2D2",
";X c gray83",
":X c #D5D5D5",
">X c #D8D8D8",
",X c gray85",
"<X c #DADADA",
"1X c gray86",
"2X c gainsboro",
"3X c #DDDDDD",
"4X c gray87",
"5X c #DFDFDF",
"6X c gray88",
"7X c #E1E1E1",
"8X c #E2E2E2",
"9X c gray89",
"0X c #E4E4E4",
"qX c gray90",
"wX c #E6E6E6",
"eX c #E7E7E7",
"rX c gray91",
"tX c #E9E9E9",
"yX c #EAEAEA",
"uX c gray92",
"iX c #ECECEC",
"pX c gray93",
"aX c #EEEEEE",
"sX c #EFEFEF",
"dX c gray94",
"fX c #F1F1F1",
"gX c gray95",
"hX c #F3F3F3",
"jX c #F4F4F4",
"kX c gray96",
"lX c #F6F6F6",
"zX c gray97",
"xX c #F8F8F8",
"cX c #F9F9F9",
"vX c gray98",
"bX c #FBFBFB",
"nX c gray99",
"mX c #FDFDFD",
"MX c #FEFEFE",
"NX c white",
/* pixels */
"vX{.@X#X#X#X#X#X#X#X#X#X#X#X#X#X#X#X#X#X#X#X#X#X#X#X#X#X#X#X#X#X#X#X#X#X#X#X#X#X#X#X#X#X#X#X#X#X#X#X#X#X#X#X#X#X#X#X#X#X#X#X#X#X#X#X@X{.vX",
"}.MXNXNXNXNXNXNXNXNXNXNXNXNXNXNXNXNXNXNXNXNXNXNXNXNXNXNXNXNXNXNXNXNXNXNXNXNXNXNXNXNXNXNXNXNXNXNXNXNXNXNXNXNXNXNXNXNXNXNXNXNXNXNXNXNXNXMX|.",
"@XNXNXNXhX} : 1 :.nXNXNXNXNXNXNXNXNXNXNXNXNXNXNXNXNXNXNXNXNXNXNXNXNXNXNXNXNXNXNXNXNXNXNXNXNXNXNXNXNXNXNXNXNXNXNXNXNXNXNXNXNXNXNXNXNXNXNX@X",
"@XNXNXNX} ( hX0Xm _.NXNXNXNXNXNXNXNXNXNXNXNXNXNXNXNXNXNXNXNXNXNXNXNXNXNXNXNXNXNXNXNXNXNXNXNXNXNXNXNXNXNXNXNXNXNXNXNXNXNXNXNXNXNXNXNXNXNX@X",
"@XNXNXsX# wXNXNXNXNXNXNXNXNXNXNXNXNXNXNXNXNXNXNXNXNXNXNXNXNXNXNXNXNXNXNXNXNXNXNXNXNXNXNXNXNXNXNXNXNXNXNXNXNXNXNXNXNXNXNXNXNXNXNXNXNXNXNX@X",
"@XNXNX[.8 p.s p q.mXNXNXNXNXNXNXNXNXNXNXNXNXNXNXNXNXNXNXNXNXNXNXNXNXNXNXNXNXNXNXNXNXNXNXNXNXNXNXNXNXNXNXNXNXNXNXNXNXNXNXNXNXNXNXNXNXNXNX@X",
"@XNXNXY.O d.mX3Xr n.NXNXNXNXNXNXNXNXNXNXNXNXNXNXNXNXNXNXNXNXNXNXNXNXNXNXNXNXNXNXNXNXNXNXNXNXNXNXNXNXNXNXNXNXNXNXNXNXNXNXNXNXNXNXNXNXNXNX@X",
"@XNXNX[.@ mXNXNXw.Q NXNXNXNXNXNXNXNXNXNXNXNXNXNXNXNXNXNXNXNXNXNXNXNXNXNXNXNXNXNXNXNXNXNXNXNXNXNXNXNXNXNXNXNXNXNXNXNXNXNXNXNXNXNXNXNXNXNX@X",
"@XNXNXqXX aXNXNXq.( NXNXNXNXNXNXNXNXNXNXNXNXNXNXNXNXNXNXNXNXNXNXNXNXNXNXNXNXNXNXNXNXNXNXNXNXNXNXNXNXNXNXNXNXNXNXNXNXNXNXNXNXNXNXNXNXNXNX@X",
"@XNXNXNXT O.vX6Xe Z.NXNXNXNXNXNXNXNXNXNXNXNXNXNXNXNXNXNXNXNXNXNXNXNXNXNXNXNXNXNXNXNXNXNXNXNXNXNXNXNXNXNXNXNXNXNXNXNXNXNXNXNXNXNXNXNXNXNX@X",
"@XNXNXNXeXY : q r.MXNXNXNXNXNXNXNXNXNXNXNXcX].K._.zXNXNXNXNXNXNXNXNXNXNXNXNXNXNXNXNXNX8XS.v./.xXNXNXNXNXNXNXNXNXNXNXNXNXNXNXNXNXNXNXNXNX@X",
"@XNXNXNXNXNXNXNXNXNXNXNXNXNXNXNXNXNXNXNXK.4       , B.NXNXNXNXNXNXNXNXNXNXNXNXNXNXvX%.X       8 /.NXNXNXNXNXNXNXNXNXNXNXNXNXNXNXNXNXNXNX@X",
"@XNXNXNXNXNXqX#XxXNXNXNXNXNXNXNXNXNXNXR.X             A.NXNXNXNXNXNXNXNXNXNXNXNXNX#.            # $XNXNXNXNXNXNXNXNXNXNXNXNXNXNXNXNXNXNX@X",
"@XNXNXNXMX..    4 }.NXNXNXNXNXNXNXNXNXd               7 mXNXNXNXNXNXNXNXNXNXNXNX8XX               E NXNXNXNXNXNXNXNXNXNXNXNXNXNXNXNXNXNX@X",
"@XNXNXNXU.        a NXNXNXNXNXNXNXNXyX                  >XNXNXNXNXNXNXNXNXNXNXNXL.                2 NXNXNXNXNXNXNXNXNXNXNXNXNXNXNXNXNXNX@X",
"@XNXNXNXg.        # nXNXNXNXNXNXNXNXeX                  :XNXNXNXNXNXNXNXNXNXNXNXI.                5 NXNXNXNXNXNXNXNXNXNXNXNXNXNXNXNXNXNX@X",
"@XNXNXNX*X.       P NXNXNXNXNXNXNXNXNXp               5 nXNXNXNXNXNXNXNXNXNXNXNXtX@               ` NXNXNXNXNXNXNXNXNXNXNXNXNXNXNXNXNXNX@X",
"@XNXpXg.8.A     * :.5./.NXNXNXNXNXNXNXA.              l.NXNXNXNXNXNXNXNXNXNXNXNXNX:.            O ;XNXNXNXNXNXNXNXNXNXNXNXNXNXNXNXNXNXNX@X",
"@XyXq                   w.NXNXNXfX!.H.}.L           V }.H.W.aXNXNXNXNXNXNXNX;XN.f.E.f           ,.G.j.I.sXNXNXNXNXNXNXNXNXNXNXNXNXNXNXNX@X",
"@Xf.                    & nXNXa.=       7 O       X 9       % q.MXNXNXNXdXE         4         & =       : M.NXNXNXNXNXNXNXNXNXNXNXNXNXNX@X",
"@Xy.        # @         + xXs.                                  6.NXNXNXD                                 . L.NXNXNXNXNXNXNXNXNXNXNXNXNX@X",
"@X2X%     . 8.L m       { hX:                                   $ yXNX'.                                    g NXNXNXNXNXNXNXNXNXNXNXNXNX@X",
"@XNX@X` K R.I.a gX=.F w.xXOX                                      ^.NXp.                                      fXNXNXNXNXNXNXNXNXNXNXNXNX@X",
"@XNXNXNXNXNXW   OXNXNXNXNX(.                                      J.NX0.                                      rXNXNXNXNXNXNXNXNXNXNXNXNX@X",
"@XNXNXNXNXpXb.b.~.NXNXNXNXuXO               A   A               . 4XNX/.                U = Z               i NXNXNXNXNXNXNXNXNXNXNXNXNX@X",
"@XNXNXNXNXNXNXNXNXNXNXNXNXNX%.            8 {.  ~.i             [ NXNXMXB             ~ z.X >X-             S.NXNXNXNXNXNXNXNXNXNXNXNXNX@X",
"@XNXNXNXNXNXNXNXNXNXNXNXNXNXlXE         i :X(.  J.3Xj         G fXNXNXNXeXM         ) lX4.  8X.X0       O y.NXNXNXNXNXNXNXNXNXNXNXNXNXNX@X",
"@XNXNXNXNXNXNXNXNXNXNXNXNXNXNXNX(.<.*.C.lXNX8.  =.NXcXG.-.>.W.MXNXNXNXNXNXmXW.0.u.OXNXNXB   F.NXkXS.7.g.1XNXNXNXNXNXNXNXNXNXNXNXNXNXNXNX@X",
"@XNXNXNXNXNXNXNXNXNXNXNXNXNXNXNXNXNXNXNXNXvXy   6 kXNXNXNXNXNXNXNXNXNXNXNXNXNXNXNXNXNX:X.   D NXNXNXNXNXNXNXNXNXNXNXNXNXNXNXNXNXNXNXNXNX@X",
"@XNXNXNXNXNXNXNXNXNXNXNXNXNXNXNXNXNXNXNXNXy.      1.NXNXNXNXNXNXNXNXNXNXNXNXNXNXNXNXvXA       S.NXNXNXNXNXNXNXNXNXNXNXNXNXNXNXNXNXNXNXNX@X",
"@XNXNXNXNXNXNXNXNXNXNXNXNXNXNXNXNXNXNXNXbXP.K.K.K.K.lXNXNXNXNXNXNXNXNXNXNXNXNXNXNXNXuX).).).).{.NXNXNXNXNXNXNXNXNXNXNXNXNXNXNXNXNXNXNXNX@X",
"@XNXNXNXNXNXNXNXNXNXNXNXNXNXNXNXNXNXNXNXNXNXNXNXNXNXNXNXNXNXNXNXNXNXNXNXNXNXNXNXNXNXNXNXNXNXNXNXNXNXNXNXNXNXNXNXNXNXNXNXNXNXNXNXNXNXNXNX@X",
"@XNXNXNXNXNXNXNXNXNXNXNXNXNXNXNXNXNXNXNXNXNXNXNXNXNXNXNXNXNXNXNXNXNXNXNXNXNXNXNXNXNXNXNXNXNXNXNXNXNXNXNXNXNXNXNXNXNXNXNXNXNXNXNXNXNXNXNX@X",
"@XNXNXNXNXNXNXNXNXNXNXNXNXNXNXNXNXNXNXNXNXNXNXNXNXNXNXNXNXNXNXNXNXNXNXNXNXNXNXNXNXNXNXNXNXNXNXNXNXNXNXNXNXNXNXNXNXNXNXNXNXNXNXNXNXNXNXNX@X",
"@XNXNXNXNXNXNXNXNXNXNXNXNXNXNXNXNXNXNXNXNXNXNXNXNXNXNXNXNXNXNXNXNXNXNXNXNXNXNXNXNXNXNXNXNXNXNXNXNXNXNXNXNXNXNXNXNXNXNXNXNXNXNXNXNXNXNXNX@X",
"@XNXNXNXNXNXNXNXNXNXNXNXNXNXNXNXNXNXNXNXNXNXNXNXNXNXNXNXNXNXNXNXNXNXNXNXNXNXNXNXNXNXNXNXNXNXNXNXNXNXNXNXNXNXNXNXNXNXNXNXNXNXNXNXNXNXNXNX@X",
"@XNXNXNXNXNXNXNXNXNXNXNXNXNXNXNXNXNXNXNXNXNXNXNXNXNXNXNXNXNXNXNXNXNXNXNXNXNXNXNXNXNXNXNXNXNXNXNXNXNXNXNXNXNXNXNXNXNXNXNXNXNXNXNXNXNXNXNX@X",
"@XNXNXNXNXNXNXNXNXNXNXNXNXNXNXNXNXNXNXNXNXNXNXNXNXNXNXNXNXNXNXNXNXNXNXNXNXNXNXNXNXNXNXNXNXNXNXNXNXNXNXNXNXNXNXNXNXNXNXNXNXNXNXNXNXNXNXNX@X",
"@XNXNXNXNXNXNXNXNXNXNXNXNXNXNXNXNXNXNXNXNXNXNXNXNXNXNXNXNXNXNXNXNXNXNXNXNXNXNXNXNXNXNXNXNXNXNXNXNXNXNXNXNXNXNXNXNXNXNXNXNXNXNXNXNXNXNXNX@X",
"@XNXNXNXNXNXNXNXNXNXNXNXNXNXNXNXNXNXNXNXNXXX4...1.[.NXNXNXNXNXNXNXNXNXNXNXNXNXNXNXNXxXN.} W :.+XNXNXNXNXNXNXNXNXNXNXNXNXNXNXNXNXNXNXNXNX@X",
"@XNXNXNXNXNXNXNXNXNXNXNXNXNXNXNXNXNXNXnXo.          _ cXNXNXNXNXNXNXNXNXNXNXNXNXNX0Xh         . 4.NXNXNXNXNXNXNXNXNXNXNXNXNXNXNXNXNXNXNX@X",
"@XNXNXNXNXNXNXNXNXNXNXNXNXNXNXNXNXNXNXt.              <.NXNXNXNXNXNXNXNXNXNXNXNXNXV               F.NXNXNXNXNXNXNXNXNXNXNXNXNXNXNXNXNXNX@X",
"@XNXNXNXNXNXNXNXNXNXNXNXNXNXNXNXNXNXMX1               $ xXNXNXNXNXNXNXNXNXNXNXNX&X                N NXNXNXNXNXNXNXNXNXNXNXNXNXNXNXNXNXNX@X",
"@XNXNXNXNXNXNXNXNXNXNXNXNXNXNXNXNXNX8X                  &XNXNXNXNXNXNXNXNXNXNXNXS.                - NXNXNXNXNXNXNXNXNXNXNXNXNXNXNXNXNXNX@X",
"@XNXNXNXNXNXNXNXNXNXNXNXNXNXNXNXNXNXdXX                 7XNXNXNXNXNXNXNXNXNXNXNX/.                i NXNXNXNXNXNXNXNXNXNXNXNXNXNXNXNXNXNX@X",
"@XNXNXNXNXNXNXNXNXNXNXNXNXNXNXNXNXNXNXD               x NXNXNXNXNXNXNXNXNXNXNXNXlX4               2.NXNXNXNXNXNXNXNXNXNXNXNXNXNXNXNXNXNX@X",
"@XNXNXNXNXNXNXNXNXNXNXNXNXNXNXNXNXNXNX%XX             /.NXNXNXNXNXNXNXNXNXNXNXNXNXn.            3 sXNXNXNXNXNXNXNXNXNXNXNXNXNXNXNXNXNXNX@X",
"@XNXNXNXNXNXNXNXNXNXNXNXNXNXNXNX!.%./ 9.[           ! w.( @.T.MXNXNXNXNXNXfXg.R L 5.B         @ -. .G X.^.NXNXNXNXNXNXNXNXNXNXNXNXNXNXNX@X",
"@XNXNXNXNXNXNXNXNXNXNXNXNXNXhXG         o O       X +         B aXNXNXNX%X5         O         O           ( vXNXNXNXNXNXNXNXNXNXNXNXNXNX@X",
"@XNXNXNXNXNXNXNXNXNXNXNXNXNX{                                   T NXNXxXq                                   0.NXNXNXNXNXNXNXNXNXNXNXNXNX@X",
"@XNXNXNXNXNXNXNXNXNXNXNXNXrXo                                     <XNXJ.                                    2 NXNXNXNXNXNXNXNXNXNXNXNXNX@X",
"@XNXNXNXNXNXNXNXNXNXNXNXNX].                                      U.NXw.                                      tXNXNXNXNXNXNXNXNXNXNXNXNX@X",
"@XNXNXNXNXNXNXNXNXNXNXNXNX}.                O   O                 R.NXp.                @ o O               X fXNXNXNXNXNXNXNXNXNXNXNXNX@X",
"@XNXNXNXNXNXNXNXNXNXNXNXNXzX1               $.  $.              * sXNX;X.             + ;.* $.              A NXNXNXNXNXNXNXNXNXNXNXNXNX@X",
"@XNXNXNXNXNXNXNXNXNXNXNXNXNXn.            D #X  _.Q             s.NXNXNX%.            d.j.  pXl           $ $XNXNXNXNXNXNXNXNXNXNXNXNXNX@X",
"@XNXNXNXNXNXNXNXNXNXNXNXNXNXNXx.-     o ..jXI.  M.xX&.+     % p.NXNXNXNXnX7.%     4 N.NX%.  :XpX` o     d |.NXNXNXNXNXNXNXNXNXNXNXNXNXNX@X",
"@XNXNXNXNXNXNXNXNXNXNXNXNXNXNXNXjX(.E.qXNXNX+.  _ NXNXrXQ.^.fXNXNXNXNXNXNXNXhX X$XcXNXNXi   g.NXNXrX[.:XNXNXNXNXNXNXNXNXNXNXNXNXNXNXNXNX@X",
"@XNXNXNXNXNXNXNXNXNXNXNXNXNXNXNXNXNXNXNXNXyX:   $ 7XNXNXNXNXNXNXNXNXNXNXNXNXNXNXNXNXNXR.    u cXNXNXNXNXNXNXNXNXNXNXNXNXNXNXNXNXNXNXNXNX@X",
"@XNXNXNXNXNXNXNXNXNXNXNXNXNXNXNXNXNXNXNXmXW       F vXNXNXNXNXNXNXNXNXNXNXNXNXNXNXNXuXk , , , 7.NXNXNXNXNXNXNXNXNXNXNXNXNXNXNXNXNXNXNXNX@X",
"@XNXNXNXNXNXNXNXNXNXNXNXNXNXNXNXNXNXNXNXNXNXNXNXNXNXNXNXNXNXNXNXNXNXNXNXNXNXNXNXNXNXNXNXNXNXNXNXNXNXNXNXNXNXNXNXNXNXNXNXNXNXNXNXNXNXNXNX@X",
"@XNXNXNXNXNXNXNXNXNXNXNXNXNXNXNXNXNXNXNXNXNXNXNXNXNXNXNXNXNXNXNXNXNXNXNXNXNXNXNXNXNXNXNXNXNXNXNXNXNXNXNXNXNXNXNXNXNXNXNXNXNXNXNXNXNXNXNX@X",
"@XNXNXNXNXNXNXNXNXNXNXNXNXNXNXNXNXNXNXNXNXNXNXNXNXNXNXNXNXNXNXNXNXNXNXNXNXNXNXNXNXNXNXNXNXNXNXNXNXNXNXNXNXNXNXNXNXNXNXNXNXNXNXNXNXNXNXNX@X",
"@XNXNXNXNXNXNXNXNXNXNXNXNXNXNXNXNXNXNXNXNXNXNXNXNXNXNXNXNXNXNXNXNXNXNXNXNXNXNXNXNXNXNXNXNXNXNXNXNXNXNXNXNXNXNXNXNXNXNXNXNXNXNXNXNXNXNXNX@X",
"@XNXNXNXNXNXNXNXNXNXNXNXNXNXNXNXNXNXNXNXNXNXNXNXNXNXNXNXNXNXNXNXNXNXNXNXNXNXNXNXNXNXNXNXNXNXNXNXNXNXNXNXNXNXNXNXNXNXNXNXNXNXNXNXNXNXNXNX@X",
"@XNXNXNXNXNXNXNXNXNXNXNXNXNXNXNXNXNXNXNXNXNXNXNXNXNXNXNXNXNXNXNXNXNXNXNXNXNXNXNXNXNXNXNXNXNXNXNXNXNXNXNXNXNXNXNXNXNXNXNXNXNXNXNXNXNXNXNX@X",
"@XNXNXNXNXNXNXNXNXNXNXNXNXNXNXNXNXNXNXNXNXNXNXNXNXNXNXNXNXNXNXNXNXNXNXNXNXNXNXNXNXNXNXNXNXNXNXNXNXNXNXNXNXNXNXNXNXNXNXNXNXNXNXNXNXNXNXNX@X",
"@XNXNXNXNXNXNXNXNXNXNXNXNXNXNXNXNXNXNXNXNXNXNXNXNXNXNXNXNXNXNXNXNXNXNXNXNXNXNXNXNXNXNXNXNXNXNXNXNXNXNXNXNXNXNXNXNXNXNXNXNXNXNXNXNXNXNXNX@X",
"@XNXNXNXNXNXNXNXNXNXNXNXNXNXNXNXNXNXNXNXNXNXNXNXNXNXNXNXNXNXNXNXNXNXNXNXNXNXNXNXNXNXNXNXNXNXNXNXNXNXNXNXNXNXNXNXNXNXNXNXNXNXNXNXNXNXNXNX@X",
"@XNXNXNXNXNXNXNXNXNXNXNXNXNXNXNXNXNXNXNXNXNXNXNXNXNXNXNXNXNXNXNXNXNXNXNXNXNXNXNXNXNXNXNXNXNXNXNXNXNXNXNXNXNXNXNXNXNXNXNXNXNXNXNXNXNXNXNX@X",
"@XNXNXNXNXNXNXNXNXNXNXNXNXNXNXNXNXNXNXNXNXNXNXNXNXNXNXNXNXNXNXNXNXNXNXNXNXNXNXNXNXNXNXNXNXNXNXNXNXNXNXNXNXNXNXNXNXNXNXNXNXNXNXNXNXNXNXNX@X",
"@XNXNXNXNXNXNXNXNXNXNXNXNXNXNXNXNXNXNXNXnX' y y y P lXNXNXNXNXNXNXNXNXNXNXNXNXNXNXNXuXl , , , ,.NXNXNXNXNXNXNXNXNXNXNXNXNXNXNXNXNXNXNXNX@X",
"@XNXNXNXNXNXNXNXNXNXNXNXNXNXNXNXNXNXNXNXNX9X&   X #XNXNXNXNXNXNXNXNXNXNXNXNXNXNXNXNXNXQ.    e zXNXNXNXNXNXNXNXNXNXNXNXNXNXNXNXNXNXNXNXNX@X",
"@XNXNXNXNXNXNXNXNXNXNXNXNXNXNXNXNXqX3XvXNXNX}   H NXNXbX5X8XNXNXNXNXNXNXNXNXlX@X-XcXNXNXs   i.NXNXiXoX>XNXNXNXNXNXNXNXNXNXNXNXNXNXNXNXNX@X",
"@XNXNXNXNXNXNXNXNXNXNXNXNXNXNX_.j     1 u.nXH.  h.MXc.8     y U.NXNXNXNXMXr.=     6 N.NX-.  *XdX .O     g  XNXNXNXNXNXNXNXNXNXNXNXNXNXNX@X",
"@XNXNXNXNXNXNXNXNXNXNXNXNXNX(.+           } *X  Q.3.          . D.NXNXNX<.            s.z.  iXb           % #XNXNXNXNXNXNXNXNXNXNXNXNXNX@X",
"@XNXNXNXNXNXNXNXNXNXNXNXNXmXu               r.  e..             1 jXNX,XX             + <.# :.              C NXNXNXNXNXW.i.i.uXNXNXNXNX@X",
"@XNXNXNXNXNXNXNXNXNXNXNXNX&X                *   *                 Q.NXh.                # X +               . aXNXNXNXNX,XX ^ NXNXNXNXNX@X",
"@XNXNXNXNXNXNXNXNXNXNXNXNX[.                                      D.NXy.                                      0XhX-.z ( eXb L.S.b D !.NX@X",
"@XNXNXNXNXNXNXNXNXNXNXNXNXqX.                                     @XNXI.                                    > MX_       i I *.      o $X@X",
"@XNXNXNXNXNXNXNXNXNXNXNXNXNXU                                   c MXNXcXw                                   4.bX@         O O         5.@X",
"@XNXNXNXNXNXNXNXNXNXNXNXNXNXeXd           .       .           0 <XNXNXNX&X5         o         O           E cXNX2                     s.@X",
"@XNXNXNXNXNXNXNXNXNXNXNXNXNXNXlXh.J v ^ ' o         W ] v S y.fXNXNXNXNXNXdXs.T K 1.C         @ *.} G  .R.NXNXNXb.X     .     .     a pX@X",
"@XNXNXNXNXNXNXNXNXNXNXNXNXNXNXNXNXNXNX5X&           o #XNXNXNXNXNXNXNXNXNXNXNXNXNXV.            2 aXNXNXNXNXNXNXNX=Xg.e.=     N k.Z.jXNX@X",
"@XNXNXNXNXNXNXNXNXNXNXNXNXNXNXNXNXNXNX'               Z NXNXNXNXNXNXNXNXNXNXNXNXxX8               <.NXNXNXNXNXNXNXNXNXP         [.NXNXNX@X",
"@XNXNXNXNXNXNXNXNXNXNXNXNXNXNXNXNXNXxX$                 qXNXNXNXNXNXNXNXNXNXNXNX`.                e NXNXNXNXNXNXNXNXNX=         r.NXNXNX@X",
"@XNXNXNXNXNXNXNXNXNXNXNXNXNXNXNXNXNX0X                  OXNXNXNXNXNXNXNXNXNXNXNXG.                $ NXNXNXNXNXNXNXNXNXM         Y.NXNXNX@X",
"@XNXNXNXNXNXNXNXNXNXNXNXNXNXNXNXNXNXmX;               X sXNXNXNXNXNXNXNXNXNXNXNX-X                v NXNXNXNXNXNXNXNXNX;Xa   X >.NXNXNXNX@X",
"@XNXNXNXNXNXNXNXNXNXNXNXNXNXNXNXNXNXNX:.              _ NXNXNXNXNXNXNXNXNXNXNXNXNXZ               V.NXNXNXNXNXNXNXNXNXNXmX,XiXNXNXNXNXNX@X",
"@XNXNXNXNXNXNXNXNXNXNXNXNXNXNXNXNXNXNXkXD           c iXNXNXNXNXNXNXNXNXNXNXNXNXNX0Xh           ;.NXNXNXNXNXNXNXNXNXNXMXw.w > R rXNXNXNX@X",
"@XNXNXNXNXNXNXNXNXNXNXNXNXNXNXNXNXNXNXNXnXC.Q n T x.cXNXNXNXNXNXNXNXNXNXNXNXNXNXNXNXxXm.' I %.|.NXNXNXNXNXNXNXNXNXNXNXV.t 7XvXX.E NXNXNX@X",
"@XNXNXNXNXNXNXNXNXNXNXNXNXNXNXNXNXNXNXNXNXNXNXNXNXNXNXNXNXNXNXNXNXNXNXNXNXNXNXNXNXNXNXNXNXNXNXNXNXNXNXNXNXNXNXNXNXNXNX/ w.NXNXpXX qXNXNX@X",
"@XNXNXNXNXNXNXNXNXNXNXNXNXNXNXNXNXNXNXNXNXNXNXNXNXNXNXNXNXNXNXNXNXNXNXNXNXNXNXNXNXNXNXNXNXNXNXNXNXNXNXNXNXNXNXNXNXNXNXQ w.NXNXmX@ {.NXNX@X",
"@XNXNXNXNXNXNXNXNXNXNXNXNXNXNXNXNXNXNXNXNXNXNXNXNXNXNXNXNXNXNXNXNXNXNXNXNXNXNXNXNXNXNXNXNXNXNXNXNXNXNXNXNXNXNXNXNXNXNXb.t 5XmXd.O T.NXNX@X",
"@XNXNXNXNXNXNXNXNXNXNXNXNXNXNXNXNXNXNXNXNXNXNXNXNXNXNXNXNXNXNXNXNXNXNXNXNXNXNXNXNXNXNXNXNXNXNXNXNXNXNXNXNXNXNXNXNXNXNXmX0.p s s.7 {.NXNX@X",
"@XNXNXNXNXNXNXNXNXNXNXNXNXNXNXNXNXNXNXNXNXNXNXNXNXNXNXNXNXNXNXNXNXNXNXNXNXNXNXNXNXNXNXNXNXNXNXNXNXNXNXNXNXNXNXNXNXNXNXNXNXNXNX0X# sXNXNX@X",
"@XNXNXNXNXNXNXNXNXNXNXNXNXNXNXNXNXNXNXNXNXNXNXNXNXNXNXNXNXNXNXNXNXNXNXNXNXNXNXNXNXNXNXNXNXNXNXNXNXNXNXNXNXNXNXNXNXNXNX_.M 0XhX( | NXNXNX@X",
"@XNXNXNXNXNXNXNXNXNXNXNXNXNXNXNXNXNXNXNXNXNXNXNXNXNXNXNXNXNXNXNXNXNXNXNXNXNXNXNXNXNXNXNXNXNXNXNXNXNXNXNXNXNXNXNXNXNXNXnX-.< : { hXNXNXNX@X",
"@XNXNXNXNXNXNXNXNXNXNXNXNXNXNXNXNXNXNXNXNXNXNXNXNXNXNXNXNXNXNXNXNXNXNXNXNXNXNXNXNXNXNXNXNXNXNXNXNXNXNXNXNXNXNXNXNXNXNXNXNXNXNXNXNXNXNXNX@X",
"}.MXNXNXNXNXNXNXNXNXNXNXNXNXNXNXNXNXNXNXNXNXNXNXNXNXNXNXNXNXNXNXNXNXNXNXNXNXNXNXNXNXNXNXNXNXNXNXNXNXNXNXNXNXNXNXNXNXNXNXNXNXNXNXNXNXNXMX|.",
"vX{.@X#X#X#X#X#X#X#X#X#X#X#X#X#X#X#X#X#X#X#X#X#X#X#X#X#X#X#X#X#X#X#X#X#X#X#X#X#X#X#X#X#X#X#X#X#X#X#X#X#X#X#X#X#X#X#X#X#X#X#X#X#X#X#X@X{.vX"
};
