/* XPM */
static const char *ten_clubs[] = {
/* columns rows colors chars-per-pixel */
"69 100 253 2 ",
"   c black",
".  c #010101",
"X  c #020202",
"o  c gray1",
"O  c #040404",
"+  c gray2",
"@  c #060606",
"#  c #070707",
"$  c gray3",
"%  c #090909",
"&  c gray4",
"*  c #0B0B0B",
"=  c #0C0C0C",
"-  c gray5",
";  c #0E0E0E",
":  c gray6",
">  c #101010",
",  c #111111",
"<  c gray7",
"1  c #131313",
"2  c gray8",
"3  c #151515",
"4  c #161616",
"5  c gray9",
"6  c #181818",
"7  c #191919",
"8  c gray10",
"9  c #1B1B1B",
"0  c gray11",
"q  c #1D1D1D",
"w  c #1E1E1E",
"e  c gray12",
"r  c #202020",
"t  c gray13",
"y  c #222222",
"u  c #232323",
"i  c gray14",
"p  c #252525",
"a  c gray15",
"s  c #272727",
"d  c #282828",
"f  c gray16",
"g  c #2A2A2A",
"h  c gray17",
"j  c #2C2C2C",
"k  c #2D2D2D",
"l  c gray18",
"z  c #2F2F2F",
"x  c gray19",
"c  c #313131",
"v  c #323232",
"b  c gray20",
"n  c #343434",
"m  c #353535",
"M  c gray21",
"N  c #373737",
"B  c gray22",
"V  c #393939",
"C  c #3A3A3A",
"Z  c gray23",
"A  c #3C3C3C",
"S  c gray24",
"D  c #3E3E3E",
"F  c #3F3F3F",
"G  c gray25",
"H  c #414141",
"J  c gray26",
"K  c #434343",
"L  c #444444",
"P  c gray27",
"I  c #464646",
"U  c gray28",
"Y  c #484848",
"T  c #494949",
"R  c gray29",
"E  c #4B4B4B",
"W  c #4C4C4C",
"Q  c gray30",
"!  c #4E4E4E",
"~  c gray31",
"^  c #505050",
"/  c #515151",
"(  c gray32",
")  c #535353",
"_  c gray33",
"`  c #555555",
"'  c #565656",
"]  c gray34",
"[  c #585858",
"{  c gray35",
"}  c #5A5A5A",
"|  c #5B5B5B",
" . c gray36",
".. c #5D5D5D",
"X. c gray37",
"o. c #5F5F5F",
"O. c #606060",
"+. c gray38",
"@. c #626262",
"#. c gray39",
"$. c #646464",
"%. c #656565",
"&. c gray40",
"*. c #676767",
"=. c #686868",
"-. c DimGray",
";. c #6A6A6A",
":. c gray42",
">. c #6C6C6C",
",. c #6D6D6D",
"<. c gray43",
"1. c #6F6F6F",
"2. c gray44",
"3. c #717171",
"4. c #727272",
"5. c gray45",
"6. c #747474",
"7. c gray46",
"8. c #767676",
"9. c #777777",
"0. c gray47",
"q. c #797979",
"w. c gray48",
"e. c #7B7B7B",
"r. c #7C7C7C",
"t. c gray49",
"y. c #7E7E7E",
"u. c gray50",
"i. c #808080",
"p. c #818181",
"a. c gray51",
"s. c #838383",
"d. c #848484",
"f. c gray52",
"g. c #868686",
"h. c gray53",
"j. c #888888",
"k. c #898989",
"l. c gray54",
"z. c #8B8B8B",
"x. c gray55",
"c. c #8D8D8D",
"v. c #8E8E8E",
"b. c gray56",
"n. c #909090",
"m. c gray57",
"M. c #929292",
"N. c #939393",
"B. c gray58",
"V. c #959595",
"C. c #979797",
"Z. c #989898",
"A. c gray60",
"S. c #9A9A9A",
"D. c #9B9B9B",
"F. c gray61",
"G. c #9D9D9D",
"H. c gray62",
"J. c #9F9F9F",
"K. c #A0A0A0",
"L. c gray63",
"P. c #A2A2A2",
"I. c gray64",
"U. c #A4A4A4",
"Y. c #A5A5A5",
"T. c gray65",
"R. c #A7A7A7",
"E. c gray66",
"W. c #A9A9A9",
"Q. c #AAAAAA",
"!. c gray67",
"~. c #ACACAC",
"^. c gray68",
"/. c #AEAEAE",
"(. c #AFAFAF",
"). c gray69",
"_. c #B1B1B1",
"`. c #B2B2B2",
"'. c #B4B4B4",
"]. c gray71",
"[. c #B6B6B6",
"{. c #B7B7B7",
"}. c gray72",
"|. c #B9B9B9",
" X c gray73",
".X c #BBBBBB",
"XX c #BCBCBC",
"oX c gray74",
"OX c gray",
"+X c gray75",
"@X c #C0C0C0",
"#X c #C1C1C1",
"$X c gray76",
"%X c #C3C3C3",
"&X c gray77",
"*X c #C5C5C5",
"=X c #C6C6C6",
"-X c gray78",
";X c #C8C8C8",
":X c gray79",
">X c #CACACA",
",X c #CBCBCB",
"<X c gray80",
"1X c #CDCDCD",
"2X c #CECECE",
"3X c gray81",
"4X c #D0D0D0",
"5X c gray82",
"6X c #D2D2D2",
"7X c LightGray",
"8X c gray83",
"9X c #D5D5D5",
"0X c #D7D7D7",
"qX c #D8D8D8",
"wX c gray85",
"eX c #DADADA",
"rX c gray86",
"tX c gainsboro",
"yX c #DDDDDD",
"uX c gray87",
"iX c #DFDFDF",
"pX c gray88",
"aX c #E1E1E1",
"sX c #E2E2E2",
"dX c gray89",
"fX c #E4E4E4",
"gX c gray90",
"hX c #E6E6E6",
"jX c #E7E7E7",
"kX c gray91",
"lX c #E9E9E9",
"zX c #EAEAEA",
"xX c gray92",
"cX c #ECECEC",
"vX c gray93",
"bX c #EEEEEE",
"nX c #EFEFEF",
"mX c gray94",
"MX c #F1F1F1",
"NX c gray95",
"BX c #F3F3F3",
"VX c #F4F4F4",
"CX c gray96",
"ZX c #F6F6F6",
"AX c gray97",
"SX c #F8F8F8",
"DX c #F9F9F9",
"FX c gray98",
"GX c #FBFBFB",
"HX c gray99",
"JX c #FDFDFD",
"KX c #FEFEFE",
"LX c white",
/* pixels */
"FX$X,X<X<X<X<X<X<X<X<X<X<X<X<X<X<X<X<X<X<X<X<X<X<X<X<X<X<X<X<X<X<X<X<X<X<X<X<X<X<X<X<X<X<X<X<X<X<X<X<X<X<X<X<X<X<X<X<X<X<X<X<X<X<X<X,X$XFX",
"%XKXLXLXLXLXLXg.7 % ! jXLXLXLXLXLXLXLX8Xg.>.p.>XLXLXLXLXLXLXLXLXLXLXLXLXLXLXLXLXLXLXLXLXLXhXk.X.+.V.mXLXLXLXLXLXLXLXLXLXLXLXLXLXLXLXLXKX&X",
",XLXJ.; s.LXH.% E.,XC D LXLXLXLXLXKX8.X         O.FXLXLXLXLXLXLXLXLXLXLXLXLXLXLXLXLXLXLX`.-         6 ,XLXLXLXLXLXLXLXLXLXLXLXLXLXLXLXLX,X",
",X>._ F s.LXc 6.LXLX9X  3XLXLXLXLXm.              8.LXLXLXLXLXLXLXLXLXLXLXLXLXLXLXLXLXrX&             7 MXLXLXLXLXLXLXLXLXLXLXLXLXLXLXLX,X",
",X>XLX~ s.SXX ].LXLXLX6 Z.LXLXLXLX9               $ ZXLXLXLXLXLXLXLXLXLXLXLXLXLXLXLXLX8.                A.LXLXLXLXLXLXLXLXLXLXLXLXLXLXLX,X",
",XLXLX~ s.gX  >XLXLXLXk a.LXLXLXlX                  ,XLXLXLXLXLXLXLXLXLXLXLXLXLXLXLXLXY                 ;.LXLXLXLXLXLXLXLXLXLXLXLXLXLXLX,X",
",XLXLX~ s.fX  ,XLXLXLXk a.LXLXLXVXo                 eXLXLXLXLXLXLXLXLXLXLXLXLXLXLXLXLX}                 y.LXLXLXLXLXLXLXLXLXLXLXLXLXLXLX,X",
",XLXLX~ s.SXX ].LXLXLX6 Z.LXLXLXLXK               s LXLXLXLXLXLXLXLXLXLXLXLXLXLXLXLXLX!.              . 1XLXLXLXLXLXLXLXLXLXLXLXLXLXLXLX,X",
",XLXLX~ s.LXc 6.LXLX9X  3XLXLXLXLX1XX             ).LXLXLXLXLXLXLXLXLXLXLXLXLXLXLXLXLXKXN             { LXLXLXLXLXLXLXLXLXLXLXLXLXLXLXLX,X",
",XLXLX~ s.LXG.% W.<XC S LXLX&Xq.&.j.X.          W b.&.6. XLXLXLXLXLXLXLXLXLXLXLXeXu.` @.a.<         w f...] k.jXLXLXLXLXLXLXLXLXLXLXLXLX,X",
",X# # X O # ` g.6 % Q jXSX_         + +       X $         H mXLXLXLXLXLXLXLXLXm.+         @         @         = ).LXLXLXLXLXLXLXLXLXLXLX,X",
",XLXLXLXLXLXLXLXLXLXLXLX;.                                  ! LXLXLXLXLXLXLXOX.                                 @ tXLXLXLXLXLXLXLXLXLXLX,X",
",XLXLXLXLXLXgX<XSXLXLXbX@                                     qXLXLXLXLXLXLX^                                     5.LXLXLXLXLXLXLXLXLXLX,X",
",XLXLXLXKX@.    4 %XLX-X                                      Q.LXLXLXLXLXLXp                                     Y LXLXLXLXLXLXLXLXLXLX,X",
",XLXLXLX/.        a LX-X                X   X                 !.LXLXLXLXLXLXh                 + +                 ! LXLXLXLXLXLXLXLXLXLX,X",
",XLXLXLXv.        # HXSX1               #.  #.              # lXMXE.d.n.2XLX5.              l G ' 6               Z.LXLXLXLXLXLXLXLXLXLX,X",
",XLXLXLX4X.       T LXLXC.            M 3X  }.Q             r._.1         ( iX9           ; 5Xn ] [.O           c SXLXLXLXLXLXLXLXLXLXLX,X",
",XLXvXv.t.G     * 3.w.|.LXc.%       ) bX'.  Z.ZX$.X     O q.:X+             _ rXB       z 2XKX< m LX|.r       E zXLXLXLXLXLXLXLXLXLXLXLX,X",
",XzXq                   p.LXbX_.T.qXLXLX2.  ' LXLXiXQ.~.kXLX)                 8XLX9X].4XLXLX>X  + zXLXHX:X].iXLXLXLXLXLXLXLXLXLXLXLXLXLX,X",
",Xc.                    & HXLXLXLXLXLXmX3   $ sXLXLXLXLXLXLXq                 G.LXLXLXLXLXLX .    i.LXLXLXLXLXLXLXLXLXLXLXLXLXLXLXLXLXLX,X",
",Xf.        # @         + SXLXLXLXLXKXX.      I FXLXLXLXLXLXi                 Y.LXLXLXLXLX^.X     % ;XLXLXLXLXLXLXLXLXLXLXLXLXLXLXLXLXLX,X",
",XtX%     . t.Y M       ..LXLXLXLXLXJXbXbXbXbXbXGXLXLXLXLXLX:.              @ hXLXLXLXLXLXLXLXLXLXLXLXLXLXLXLXLXLXLXLXLXLXLXLXLXLXLXLXLX,X",
",XLX,X{ U `.^.a NX<.K p.SXLXLXLXLXLXLXLXLXLXLXLXLXLXLXLXLXLXfX*             4.LXLXLXLXLXLXLXLXLXLXLXLXLXLXLXLXLXLXLXLXLXLXLXLXLXLXLXLXLX,X",
",XLXLXLXLXLX^   :XLXLXLXLXLXLXLXLXLXLXLXLXLXLXLXLXLXLXhXS.9.m.r..         g U.r.i.OXKXLXLXLXLXLXLXLXLXLXLXLXLXLXLXLXLXLXLXLXLXLXLXLXLXLX,X",
",XLXLXLXLXvXA.A.{.LXLXLXLXLXLXLXLXLXLXLXLXLXLXLXLXLXn.&       O *         >         B gXLXLXLXLXLXLXLXLXLXLXLXLXLXLXLXLXLXLXLXLXLXLXLXLX,X",
",XLXLXLXLXLXLXLXLXLXLXLXLXLXLXLXLXLXLXLXLXLXLXLXLXE.                                  l HXLXLXLXLXLXLXLXLXLXLXLXLXLXLXLXLXLXLXLXLXLXLXLX,X",
",XLXLXLXLXLXLXLXLXLXLXLXLXLXLXLXLXLXLXLXLXLXLXLXLXk                                     (.LXLXLXLXLXLXLXLXLXLXLXLXLXLXLXLXLXLXLXLXLXLXLX,X",
",XLXLXLXLXLXLXLXLXLXLXLXLXLXLXLXLXLXLXLXLXLXLXLXSXo                                     t.LXLXLXLXLXLXLXLXLXLXLXLXLXLXLXLXLXLXLXLXLXLXLX,X",
",XLXLXLXLXLXLXLXLXLXLXLXLXLXLXLXLXLXLXLXLXLXLXLXVX.                 . .                 8.LXLXLXLXLXLXLXLXLXLXLXLXLXLXLXLXLXLXLXLXLXLXLX,X",
",XLXLXLXLXLXLXLXLXLXLXLXLXLXLXLXLXLXLX5Xb.r.S.jXLXn               G 4 ' .               [.nXS.1.4.T.ZXLXLXLXLXLXLXLXLXLXLXLXLXLXLXLXLXLX,X",
",XLXLXLXLXLXLXLXLXLXLXLXLXLXLXLXLXDXO.        % C.}..           > yX$ k.>.            D OX3         u 9XLXLXLXLXLXLXLXLXLXLXLXLXLXLXLXLX,X",
",XLXLXLXLXLXLXLXLXLXLXLXLXLXLXLXLX:.              `.J.=       i 2XlX  :.HX3.X       H 3X;             r VXLXLXLXLXLXLXLXLXLXLXLXLXLXLXLX,X",
",XLXLXLXLXLXLXLXLXLXLXLXLXLXLXLXxXO               m LXcXI.c.].GXLXE.  j LXLXyXD.n.&XKXe.                H.LXLXLXLXLXLXLXLXLXLXLXLXLXLXLX,X",
",XLXLXLXLXLXLXLXLXLXLXLXLXLXLXLX|.                O DXLXLXLXLXLXLXJ     &XLXLXLXLXLXLXT                 :.LXLXLXLXLXLXLXLXLXLXLXLXLXLXLX,X",
",XLXLXLXLXLXLXLXLXLXLXLXLXLXLXLX%X                & KXLXLXLXLXLXJ.      z NXLXLXLXLXLX]                 e.LXLXLXLXLXLXLXLXLXLXLXLXLXLXLX,X",
",XLXLXLXLXLXLXLXLXLXLXLXLXLXLXLXSX1               / LXLXLXLXLXLXsXyXyXyXyXBXLXLXLXLXLXI.                -XLXLXLXLXLXLXLXLXLXLXLXLXLXLXLX,X",
",XLXLXLXLXLXLXLXLXLXLXLXLXLXLXLXLXm.            o 6XLXLXLXLXLXLXLXLXLXLXLXLXLXLXLXLXLXJXb             / LXLXLXLXLXLXLXLXLXLXLXLXLXLXLXLX,X",
",XLXLXLXLXLXLXLXLXLXLXLXLXLX$Xp.0.J.Z           -.M.9.v.eXLXLXLXLXLXLXLXLXLXLXLXgXb.&.4.k.:         9 b.,.=.A.nXLXLXLXLXLXLXLXLXLXLXLXLX,X",
",XLXLXLXLXLXLXLXLXLXLXLXbXJ         - .       # #       o 7.KXLXLXLXLXLXLXLXLXK.&         %         %         2 XXLXLXLXLXLXLXLXLXLXLXLX,X",
",XLXLXLXLXLXLXLXLXLXLXLXK                                   k.LXLXLXLXLXLXLX=XX                                 & sXLXLXLXLXLXLXLXLXLXLX,X",
",XLXLXLXLXLXLXLXLXLXLX:X                                    < HXLXLXLXLXLXLX`                                     0.LXLXLXLXLXLXLXLXLXLX,X",
",XLXLXLXLXLXLXLXLXLXLXZ.                                      yXLXLXLXLXLXLXs                                     R LXLXLXLXLXLXLXLXLXLX,X",
",XLXLXLXLXLXLXLXLXLXLXB.                .   .                 wXLXLXLXLXLXLXd                 o o                 E LXLXLXLXLXLXLXLXLXLX,X",
",XLXLXLXLXLXLXLXLXLXLX8X.               {   {               q JXLXLXLXLXLXLX>.              a D ( <               m.LXLXLXLXLXLXLXLXLXLX,X",
",XLXLXLXLXLXLXLXLXLXLXLX .            _ Y.  wXr             P.LXLXLXLXLXLXLXfX2           % ;Xm { ~.X           d CXLXLXLXLXLXLXLXLXLXLX,X",
",XLXLXLXLXLXLXLXLXLXLXLXZX}       . @.SXg.  <XiXN       $ v.LXLXLXLXLXLXLXLXLX5Xg       y %XKX3 B LX~.3       Z dXLXLXLXLXLXLXLXLXLXLXLX,X",
",XLXLXLXLXLXLXLXLXLXLXLXLXLX8XS.G.wXLXLXP   x.LXKX$XV.U.kXLXLXLXLXLXLXLXLXLXLXLXJX=XT.#XHXLX3X  @ bXLXAX|.T.3XLXLXLXLXLXLXLXLXLXLXLXLXLX,X",
",XLXLXLXLXLXLXLXLXLXLXLXLXLXLXLXLXLXLXwXO   d GXLXLXLXLXLXLXLXLXLXLXLXLXLXLXLXLXLXLXLXLXLXLX%.    k.LXLXLXLXLXLXLXLXLXLXLXLXLXLXLXLXLXLX,X",
",XLXLXLXLXLXLXLXLXLXLXLXLXLXLXLXLXLXDXF       u.LXLXLXLXLXLXLXLXLXLXLXLXLXLXLXLXLXLXLXLXLX}.o     - 6XLXLXLXLXLXLXLXLXLXLXLXLXLXLXLXLXLX,X",
",XLXLXLXLXLXLXLXLXLXLXLXLXLXLXLXLXLXZXyXyXyXyXuXLXLXLXLXLXLXLXLXLXLXLXLXLXLXLXLXLXLXLXLXLXBXbXbXbXbXCXLXLXLXLXLXLXLXLXLXLXLXLXLXLXLXLXLX,X",
",XLXLXLXLXLXLXLXLXLXLXLXLXLXLXLXLXLXLXLXLXLXLXLXLXLXLXLXLXLXLXLXLXLXLXLXLXLXLXLXLXLXLXLXLXNXbXbXbXbXCXLXLXLXLXLXLXLXLXLXLXLXLXLXLXLXLXLX,X",
",XLXLXLXLXLXLXLXLXLXLXLXLXLXLXLXLXLXbXf       X.KXLXLXLXLXLXLXLXLXLXLXLXLXLXLXLXLXLXLXLXLX'.o     = 2XLXLXLXLXLXLXLXLXLXLXLXLXLXLXLXLXLX,X",
",XLXLXLXLXLXLXLXLXLXLXLXLXLXLXLXLXLXLX-X.   8 VXLXLXLXLXLXLXLXLXLXLXLXLXLXLXLXLXLXLXLXLXLXLX@.    h.LXLXLXLXLXLXLXLXLXLXLXLXLXLXLXLXLXLX,X",
",XLXLXLXLXLXLXLXLXLXLXLXLXLXBX%X-XCXLXLXB   u.LXLXkX#X1XHXLXLXLXLXLXLXLXLXLXLXLXKX,XQ.=XJXLX2X  @ vXLXSX+X~.7XLXLXLXLXLXLXLXLXLXLXLXLXLX,X",
",XLXLXLXLXLXLXLXLXLXLXLXKXa.&     : z.KXy.  &XmXX.o     q '.LXLXLXLXLXLXLXLXLX7Xk       p *XKX2 N LX(.5       F gXLXLXLXLXLXLXLXLXLXLXLX,X",
",XLXLXLXLXLXLXLXLXLXLXLX0.            8.P.  aXN           o XXLXLXLXLXLXLXLXhX4           & ,Xm [ (.X           h ZXLXLXLXLXLXLXLXLXLXLX,X",
",XLXLXLXLXLXLXLXLXLXLXpXO             . 3.  4.              j LXLXLXLXLXLXLX1.              d F ) 2               N.LXLXLXLXLXLXLXLXLXLX,X",
",XLXLXLXLXLXLXLXLXLXLXS.                @   @                 iXLXLXLXLXLXLXf                 o o                 W LXLXLXLXLXLXLXLXLXLX,X",
",XLXLXLXLXLXLXLXLXLXLXN.                                      0XLXLXLXLXLXLXs                                     T LXLXLXLXLXLXLXLXLXLX,X",
",XLXLXLXLXLXLXLXLXLXLXoX                                    % DXLXLXLXLXLXLX)                                     9.LXLXLXLXLXLXLXLXLXLX,X",
",XLXLXLXLXLXLXLXLXLXLXJXj                                   2.LXLXLXLXLXLXLX&XX                                 % pXLXLXLXLXLXLXLXLXLXLX,X",
",XLXLXLXLXLXLXLXLXLXLXLXtXy         O .       +           ! SXLXLXLXLXLXLXLXLXG.%         $         $         < |.LXLXLXLXLXLXLXLXLXLXLX,X",
",XLXLXLXLXLXLXLXLXLXLXLXLXAXA. .` r.P         X ;.:.` *.'.LXLXLXLXLXLXLXLXLXLXLXaXl.&.2.h.>         0 c.:.*.B.vXLXLXLXLXLXLXLXLXLXLXLXLX,X",
",XLXLXLXLXLXLXLXLXLXLXLXLXLXLXLXLXW.            * dXLXLXLXLXLXLXLXLXLXLXLXLXLXLXLXLXLXJXn             ) LXLXLXLXLXLXLXLXLXLXLXLXLXLXLXLX,X",
",XLXLXLXLXLXLXLXLXLXLXLXLXLXLXLXHXr               #.LXLXLXLXLXLXLXLXLXLXLXLXLXLXLXLXLXY.                ;XLXLXLXLXLXLXLXLXLXLXLXLXLXLXLX,X",
",XLXLXLXLXLXLXLXLXLXLXLXLXLXLXLX>X                , LXLXLXLXLXDXU , , , ^ GXLXLXLXLXLX[                 e.LXLXLXLXLXLXLXLXLXLXLXLXLXLXLX,X",
",XLXLXLXLXLXLXLXLXLXLXLXLXLXLXLX[.                X SXLXLXLXLXLXeX+   % dXLXLXLXLXLXLXY                 :.LXLXLXLXLXLXLXLXLXLXLXLXLXLXLX,X",
",XLXLXLXLXLXLXLXLXLXLXLXLXLXLXLXsX                f LXGX4X<XVXLXLX/   o.LXLXNX,X7XHXLXq.                G.LXLXLXLXLXLXLXLXLXLXLXLXLXLXLX,X",
",XLXLXLXLXLXLXLXLXLXLXLXLXLXLXLXLX(               A.L.5     ; p.HXA.  Y.FXq.*     9 Q.pX-             e VXLXLXLXLXLXLXLXLXLXLXLXLXLXLXLX,X",
",XLXLXLXLXLXLXLXLXLXLXLXLXLXLXLXLXvXV           <.F.            +.OX  :X'           . W..X<         e 6XLXLXLXLXLXLXLXLXLXLXLXLXLXLXLXLX,X",
",XLXLXLXLXLXLXLXLXLXLXLXLXLXLXLXLXLXHXW.$._ 4.-XVX,               0.  0.              7 DXvXV.:.<.L.CXLXLXLXLXLXLXLXLXLXLXLXLXLXLXLXLXLX,X",
",XLXLXLXLXLXLXLXLXLXLXLXLXLXLXLXLXLXLXLXLXLXLXLX|.                #   #                 &XLXLXLXLXLXLXLXLXLXLXLXLXLXLXLXLXLXLXLXLXLXLXLX,X",
",XLXLXLXLXLXLXLXLXLXLXLXLXLXLXLXLXLXLXLXLXLXLXLX(.                                      |.LXLXLXLXLXLXLXLXLXLXLXLXLXLXLXLXLXLXLXLXLXLXLX,X",
",XLXLXLXLXLXLXLXLXLXLXLXLXLXLXLXLXLXLXLXLXLXLXLX0X                                    . sXLXLXLXLXLXLXLXLXLXLXLXLXLXLXLXLXLXLXLXLXLXLXLX,X",
",XLXLXLXLXLXLXLXLXLXLXLXLXLXLXLXLXLXLXLXLXLXLXLXLXJ                                   ! LXLXLXLXLXLXLXLXLXLXLXLXLXLXLXLXLXLXLXLXLXLXLXLX,X",
",XLXLXLXLXLXLXLXLXLXLXLXLXLXLXLXLXLXLXLXLXLXLXLXLXhXg         . o       o           v xXLXLXLXLXLXLXLXLXLXLXLXLXLXLXLXLX'.j.j.xXLXLXLXLX,X",
",XLXLXLXLXLXLXLXLXLXLXLXLXLXLXLXLXLXLXLXLXLXLXLXLXLXDXS._ L ,.'            .-.L ] J.GXLXLXLXLXLXLXLXLXLXLXLXLXLXLXLXLXLXwXX _ LXLXLXLXLX,X",
",XLXLXLXLXLXLXLXLXLXLXLXLXLXLXLXLXLXLXLXLXLXLXLXLXLXLXLXLXLX:XX           O 7XLXLXLXLXLXLXLXLXLXLXLXLXLXLXLXLXLXBX1.x ' jXn !.U.n J [.LX,X",
",XLXLXLXLXLXLXLXLXLXLXLXLXLXLXLXLXLXLXLXLXLXLXLXLXLXLXLXLXLXD               R LXLXLXLXLXLXLXLXLXLXLXLXLXLXLXLXLX[       i R ,.      o 1X,X",
",XLXLXLXLXLXLXLXLXLXLXLXLXLXLXLXLXLXhXd , , , 5.LXLXLXLXLXkX.               o MXLXLXLXLXLX&.      a xXLXLXLXLXGX@         O O         w.,X",
",XLXLXLXLXLXLXLXLXLXLXLXLXLXLXLXLXLXLX!.    r SXLXLXLXLXLX6X                  tXLXLXLXLXLXAXw     $XLXLXLXLXLXLX2                     z.,X",
",XLXLXLXLXLXLXLXLXLXLXLXLXLXSX7XwXHXLXKXr   x.LXLXmX4XaXLXAX@               - HXHX<X+XgXLXLXf.  b LXLXCX=X$XMXLXA.X     .     .     a vX,X",
",XLXLXLXLXLXLXLXLXLXLXLXKXg.:     e E.LX=.  8XmX#.@     b <X-.              8.{.w     X { vX,X  0.KXv.:     # r.JX5Xv.a.=     C M.P.VXLX,X",
",XLXLXLXLXLXLXLXLXLXLXLX5.            C.v.  mXn           = >XP           ! .XO           c hX  D.e.            3.LXLXT         #XLXLXLX,X",
",XLXLXLXLXLXLXLXLXLXLX0XX             $ 7.= 2.              P KX~.O.T @._.KXc               1.X 1.X             o eXLX=         s.LXLXLX,X",
",XLXLXLXLXLXLXLXLXLXLXl.                $ O +               o NXLXLXLXLXLXhX                +   +                 M.LXN         (.LXLXLX,X",
",XLXLXLXLXLXLXLXLXLXLXu.                                      lXLXLXLXLXLXpX                                      z.LX8Xa   X 4.LXLXLXLX,X",
",XLXLXLXLXLXLXLXLXLXLXT.                                    < LXLXLXLXLXLXJX-                                     [.LXLXJXwXcXLXLXLXLXLX,X",
",XLXLXLXLXLXLXLXLXLXLXZX6                                   e.LXLXLXLXLXLXLXq.                                  d HXLXLXLXLXLXLXLXLXLXLX,X",
",XLXLXLXLXLXLXLXLXLXLXLX;X<         X         o           ! SXLXLXLXLXLXLXLXDX_           +         +         t eXLXhXQ % 7 j.` # O X # @ ",
",XLXLXLXLXLXLXLXLXLXLXLXLXcXa.T P 3.A         $ >.] L | ^.KXLXLXLXLXLXLXLXLXLXLX|.;.` >.<.o         H u.'  .Z.ZXLXLXC A ,XR.$ L.LXs.~ LX,X",
",XLXLXLXLXLXLXLXLXLXLXLXLXLXLXLXLXK.            7 NXLXLXLXLXLXLXLXLXLXLXLXLXLXLXLXLXLXjX-             L.LXLXLXLXLX1X  qXLXLX3.b LXs.~ LX,X",
",XLXLXLXLXLXLXLXLXLXLXLXLXLXLXLXAX7               t.LXLXLXLXLXLXLXLXLXLXLXLXLXLXLXLXLX-.              8 FXLXLXLXLXC.7 LXLXLX'.o DXs.~ LX,X",
",XLXLXLXLXLXLXLXLXLXLXLXLXLXLXLX X                s LXLXLXLXLXLXLXLXLXLXLXLXLXLXLXLXLX5                 $XLXLXLXLXp.l LXLXLX:X  hXs.~ LX,X",
",XLXLXLXLXLXLXLXLXLXLXLXLXLXLXLXP.                - LXLXLXLXLXLXLXLXLXLXLXLXLXLXLXLXKX+                 ^.LXLXLXLXi.z LXLXLX:X  hXs.~ LX,X",
",XLXLXLXLXLXLXLXLXLXLXLXLXLXLXLX<X                B LXLXLXLXLXLXLXLXLXLXLXLXLXLXLXLXLXc                 tXLXLXLXLXC.7 LXLXLX'.o DXs.~ LXL.",
",XLXLXLXLXLXLXLXLXLXLXLXLXLXLXLXKXM               P.LXLXLXLXLXLXLXLXLXLXLXLXLXLXLXLXLXK.              Q LXLXLXLXLX1X  qXLXLX3.b LXs.F _ ] ",
",XLXLXLXLXLXLXLXLXLXLXLXLXLXLXLXLXuXu           1.LXLXLXLXLXLXLXLXLXLXLXLXLXLXLXLXLXLXLX7..         N xXLXLXLXLXLXLXC A <XE.$ L.LXs.; H.,X",
"%XKXLXLXLXLXLXLXLXLXLXLXLXLXLXLXLXLXCXM./ I &.@XLXLXLXLXLXLXLXLXLXLXLXLXLXLXLXLXLXLXLXLXLX,X7.' %.W.HXLXLXLXLXLXLXLXgXW % 6 h.LXLXLXLXKX&X",
"FX$X,X<X<X<X<X<X<X<X<X<X<X<X<X<X<X<X<X<X<X<X<X<X<X<X<X<X<X<X<X<X<X<X<X<X<X<X<X<X<X<X<X<X<X<X<X<X<X<X<X<X<X<X<X<X<X<X<X<X<X<X<X<X<X<X,X$XFX"
};
