/* XPM */
static const char *ten_diamonds[] = {
/* columns rows colors chars-per-pixel */
"69 100 247 2 ",
"   c #DF0000",
".  c #DF0101",
"X  c #DF0202",
"o  c #DF0303",
"O  c #DF0404",
"+  c #E00404",
"@  c #E00505",
"#  c #E00606",
"$  c #E00707",
"%  c #E00808",
"&  c #E00909",
"*  c #E00A0A",
"=  c #E00B0B",
"-  c #E10C0C",
";  c #E10D0D",
":  c #E10E0E",
">  c #E10F0F",
",  c #E11010",
"<  c #E11111",
"1  c #E11212",
"2  c #E11313",
"3  c #E21414",
"4  c #E21515",
"5  c #E21616",
"6  c #E21717",
"7  c #E21818",
"8  c #E21919",
"9  c #E21A1A",
"0  c #E21B1B",
"q  c #E31C1C",
"w  c #E31D1D",
"e  c #E31E1E",
"r  c #E31F1F",
"t  c #E32020",
"y  c #E32121",
"u  c #E32222",
"i  c #E42424",
"p  c #E42525",
"a  c #E42626",
"s  c #E42727",
"d  c #E42828",
"f  c #E42929",
"g  c #E42A2A",
"h  c #E42B2B",
"j  c #E52C2C",
"k  c #E52D2D",
"l  c #E52E2E",
"z  c #E52F2F",
"x  c #E53030",
"c  c #E53131",
"v  c #E53232",
"b  c #E53333",
"n  c #E63434",
"m  c #E63636",
"M  c #E63737",
"N  c #E63838",
"B  c #E63939",
"V  c #E63A3A",
"C  c #E63B3B",
"Z  c #E73C3C",
"A  c #E73D3D",
"S  c #E73E3E",
"D  c #E73F3F",
"F  c #E74040",
"G  c #E74141",
"H  c #E74242",
"J  c #E74343",
"K  c #E84545",
"L  c #E84646",
"P  c #E84747",
"I  c #E84848",
"U  c #E84A4A",
"Y  c #E84B4B",
"T  c #E94C4C",
"R  c #E94D4D",
"E  c #E94E4E",
"W  c #E94F4F",
"Q  c #E95050",
"!  c #E95151",
"~  c #E95252",
"^  c #EA5454",
"/  c #EA5555",
"(  c #EA5656",
")  c #EA5757",
"_  c #EA5858",
"`  c #EA5B5B",
"'  c #EB5C5C",
"]  c #EB5D5D",
"[  c #EB5E5E",
"{  c #EB5F5F",
"}  c #EB6060",
"|  c #EB6161",
" . c #EB6262",
".. c #EB6363",
"X. c #EC6464",
"o. c #EC6565",
"O. c #EC6666",
"+. c #EC6767",
"@. c #EC6868",
"#. c #EC6969",
"$. c #EC6A6A",
"%. c #EC6B6B",
"&. c #ED6C6C",
"*. c #ED6D6D",
"=. c #ED6E6E",
"-. c #ED6F6F",
";. c #ED7171",
":. c #ED7272",
">. c #ED7373",
",. c #EE7474",
"<. c #EE7575",
"1. c #EE7676",
"2. c #EE7777",
"3. c #EE7878",
"4. c #EE7979",
"5. c #EE7A7A",
"6. c #EE7B7B",
"7. c #EF7C7C",
"8. c #EF7D7D",
"9. c #EF7E7E",
"0. c #EF7F7F",
"q. c #EF8383",
"w. c #F08484",
"e. c #F08585",
"r. c #F08686",
"t. c #F08787",
"y. c #F08888",
"u. c #F08A8A",
"i. c #F08B8B",
"p. c #F18C8C",
"a. c #F18D8D",
"s. c #F18F8F",
"d. c #F19090",
"f. c #F19191",
"g. c #F19292",
"h. c #F19393",
"j. c #F29494",
"k. c #F29595",
"l. c #F29696",
"z. c #F29797",
"x. c #F29898",
"c. c #F29999",
"v. c #F29A9A",
"b. c #F29B9B",
"n. c #F39C9C",
"m. c #F39D9D",
"M. c #F39E9E",
"N. c #F39F9F",
"B. c #F3A0A0",
"V. c #F3A1A1",
"C. c #F3A2A2",
"Z. c #F3A3A3",
"A. c #F4A4A4",
"S. c #F4A6A6",
"D. c #F4A7A7",
"F. c #F4A8A8",
"G. c #F4A9A9",
"H. c #F4AAAA",
"J. c #F4ABAB",
"K. c #F5ACAC",
"L. c #F5ADAD",
"P. c #F5AEAE",
"I. c #F5AFAF",
"U. c #F5B0B0",
"Y. c #F5B1B1",
"T. c #F5B2B2",
"R. c #F5B3B3",
"E. c #F6B4B4",
"W. c #F6B6B6",
"Q. c #F6B7B7",
"!. c #F6B8B8",
"~. c #F6B9B9",
"^. c #F6BABA",
"/. c #F6BBBB",
"(. c #F7BCBC",
"). c #F7BDBD",
"_. c #F7BEBE",
"`. c #F7BFBF",
"'. c gray76",
"]. c #C3C3C3",
"[. c gray77",
"{. c #CBCBCB",
"}. c gray80",
"|. c #F7C0C0",
" X c #F7C1C1",
".X c #F7C2C2",
"XX c #F7C3C3",
"oX c #F8C4C4",
"OX c #F8C5C5",
"+X c #F8C6C6",
"@X c #F8C7C7",
"#X c #F8C8C8",
"$X c #F8C9C9",
"%X c #F8CACA",
"&X c #F8CBCB",
"*X c #F9CCCC",
"=X c #F9CDCD",
"-X c #F9CECE",
";X c #F9CFCF",
":X c #F9D0D0",
">X c #F9D1D1",
",X c #F9D2D2",
"<X c #F9D3D3",
"1X c #FAD4D4",
"2X c #FAD5D5",
"3X c #FAD6D6",
"4X c #FAD7D7",
"5X c #FAD8D8",
"6X c #FAD9D9",
"7X c #FADADA",
"8X c #FADBDB",
"9X c #FBDCDC",
"0X c #FBDDDD",
"qX c #FBDEDE",
"wX c #FBDFDF",
"eX c #FBE0E0",
"rX c #FBE1E1",
"tX c #FBE2E2",
"yX c #FBE3E3",
"uX c #FCE4E4",
"iX c #FCE5E5",
"pX c #FCE6E6",
"aX c #FCE7E7",
"sX c #FCE8E8",
"dX c #FCE9E9",
"fX c #FCEAEA",
"gX c #FDECEC",
"hX c #FDEDED",
"jX c #FDEFEF",
"kX c #FDF0F0",
"lX c #FDF1F1",
"zX c #FDF2F2",
"xX c #FDF3F3",
"cX c #FEF4F4",
"vX c #FEF5F5",
"bX c #FEF6F6",
"nX c #FEF7F7",
"mX c gray98",
"MX c #FEF8F8",
"NX c #FEF9F9",
"BX c #FEFAFA",
"VX c #FEFBFB",
"CX c #FFFCFC",
"ZX c #FFFDFD",
"AX c #FEFEFE",
"SX c #FFFEFE",
"DX c white",
/* pixels */
"mX'.{.}.}.}.}.}.}.}.}.}.}.}.}.}.}.}.}.}.}.}.}.}.}.}.}.}.}.}.}.}.}.}.}.}.}.}.}.}.}.}.}.}.}.}.}.}.}.}.}.}.}.}.}.}.}.}.}.}.}.}.}.}.}.}.{.'.mX",
"].AXDXDXDXDXDXDXDXDXDXDXDXDXDXDXDXDXDXDXDXDXCXDXDXDXDXDXDXDXDXDXDXDXDXDXDXDXDXDXDXDXDXDXDXDXCXDXDXDXDXDXDXDXDXDXDXDXDXDXDXDXDXDXDXDXDXAX[.",
"{.DXN.: q.DXDX;XM = e c.DXDXDXDXDXDXDXDXDXMX$.DXDXDXDXDXDXDXDXDXDXDXDXDXDXDXDXDXDXDXDXDXDXDXo.NXDXDXDXDXDXDXDXDXDXDXDXDXDXDXDXDXDXDXDXDX{.",
"{.&.^ D q.DXNXw u.BX=X1 OXDXDXDXDXDXDXDXDXb.X 6XDXDXDXDXDXDXDXDXDXDXDXDXDXDXDXDXDXDXDXDXDX<X. C.DXDXDXDXDXDXDXDXDXDXDXDXDXDXDXDXDXDXDXDX{.",
"{.%XDXW q.DX/.9 SXDXDX=.@.DXDXDXDXDXDXDXnXe   ( DXDXDXDXDXDXDXDXDXDXDXDXDXDXDXDXDXDXDXDXDXR   y MXDXDXDXDXDXDXDXDXDXDXDXDXDXDXDXDXDXDXDX{.",
"{.DXDXW q.DXg.J DXDXDXl.D DXDXDXDXDXDXDXt.    . @XDXDXDXDXDXDXDXDXDXDXDXDXDXDXDXDXDXDXDX|.      s.DXDXDXDXDXDXDXDXDXDXDXDXDXDXDXDXDXDXDX{.",
"{.DXDXW q.DXr.T DXDXDXB.b DXDXDXDXDXDXqX=       f nXDXDXDXDXDXDXDXDXDXDXDXDXDXDXDXDXDXMXg       = 0XDXDXDXDXDXDXDXDXDXDXDXDXDXDXDXDXDXDX{.",
"{.DXDXW q.DXg.A DXDXDXs.D DXDXDXDXDXZXS           8.DXDXDXDXDXDXDXDXDXDXDXDXDXDXDXDXDX<.          H SXDXDXDXDXDXDXDXDXDXDXDXDXDXDXDXDXDX{.",
"{.DXDXW q.DX).3 CXDXDX| %.DXDXDXDXDX6.            o R.DXDXDXDXDXDXDXDXDXDXDXDXDXDXDXW.o             q.DXDXDXDXDXDXDXDXDXDXDXDXDXDXDXDXDX{.",
"{.DXDXW q.DXBXy t.BXOX: %XDXDXDXDXF..               ; ,XDXDXDXDXDXDXDXDXDXDXDXDXDX1X:               . S.DXDXDXDXDXDXDXDXDXDXDXDXDXDXDXDX{.",
"{.$ $ X + $ / <XB * t C.DXDXDXDXI.#                   w 7XDXDXDXDXDXDXDXDXDXDXDX2X8                   % W.DXDXDXDXDXDXDXDXDXDXDXDXDXDXDX{.",
"{.DXDXDXDXDXDXCXDXDXDXDXDXDXDXD.@                       9 <XDXDXDXDXDXDXDXDXDX-X5                       $ L.DXDXDXDXDXDXDXDXDXDXDXDXDXDX{.",
"{.DXDXDXDXDX|.A.DXDXDXDXDXSXy.X                           - P.DXDXDXDXDXDXDXJ.=                           . 2.ZXDXDXDXDXDXDXDXDXDXDXDXDX{.",
"{.DXDXDXDXZXB r vXDXDXDXDXCX2.                            $ N.DXDXDXDXDXDXDXA.&                             O.VXDXDXDXDXDXDXDXDXDXDXDXDX{.",
"{.DXDXDXDXx.    8.DXDXDXDXDXDXv.o                       3 %XDXDXDXDXXXDXDXDXDXoX<                       O B.DXDXDXDXDXDXDXDXDXDXDXDXDXDX{.",
"{.DXDXDXqX1     $ =XDXDXDXDXDXDXF.O                   5 ,XDXDXDXDX:X0 NXDXDXDXDX;X3                   @ J.DXDXDXDXDXDXDXDXDXDXDXDXDXDXDX{.",
"{.DXDXgXh         0 eXDXDXDXDXDXDXn.                & %XDXDXDXDXDXQ   z.DXDXDXDXDX*X*                 v.DXDXDXDXDXDXDXDXDXDXDXDXDXDXDXDX{.",
"{.DXrXj             e 1XDXDXDXDXDXDX=.            . F.DXDXDXDXDX+X.   5 zXDXDXDXDXDXJ..             2.DXDXDXDXDXDXDXDXDXDXDXDXDXDXDXDXDX{.",
"{.DXg.X               3.DXDXDXDXDXDXVXm           >.DXDXDXDXDXVXv       <.DXDXDXDXDXDX&.          Z ZXDXDXDXDXDXDXDXDXDXDXDXDXDXDXDXDXDX{.",
"{.DXDXZ.o           u.DXDXDXDXDXDXDXDX4X%       s bXDXDXDXDXDXw.        X oXDXDXDXDXDXvXi       * 7XDXDXDXDXDXDXDXDXDXDXDXDXDXDXDXDXDXDX{.",
"{.DXDXDXf.        2.DXDXDXDXDXDXDXDXDXDX0.      |.DXDXDXDXDX=X$           f zXDXDXDXDXDX~.      y.DXDXDXDXDXDXDXDXDXDXDXDXDXDXDXDXDXDXDX{.",
"{.DXDXDXDX~     M ZXDXDXDXDXDXDXDXDXDXDXcX8   Q DXDXDXDXDXpXw               I CXDXDXDXDXDXP   q bXDXDXDXDXDXDXDXDXDXDXDXDXDXDXDXDXDXDXDX{.",
"{.DXDXDXDXtX- o -XDXDXDXDXDXDXDXDXDXDXDXDXj.. <XDXDXDXDXjXv                   %.SXDXDXDXDX=X  b.DXDXDXDXDXDXDXDXDXDXDXDXDXDXDXDXDXDXDXDX{.",
"{.DXDXDXDXDXr.$.DXDXDXDXDXDXDXDXDXDXDXDXDXvX} DXDXDXDXjXM                       O.ZXDXDXDXDX` nXDXDXDXDXDXDXDXDXDXDXDXDXDXDXDXDXDXDXDXDX{.",
"{.DXDXDXDXDXkXrXDXDXDXDXDXDXDXDXDXDXDXDXDXDXNXDXDXDX9Xg                           ) vXDXDXDXNXDXDXDXDXDXDXDXDXDXDXDXDXDXDXDXDXDXDXDXDXDX{.",
"{.DXDXDXDXDXDXDXDXDXDXDXDXDXDXDXDXDXDXDXDXDXDXDXDXNXf                               @.DXDXDXDXDXDXDXDXDXDXDXDXDXDXDXDXDXDXDXDXDXDXDXDXDX{.",
"{.DXDXDXDXDXDXDXDXDXDXDXDXDXDXDXDXDXDXDXDXDX8XDXDXDXtXv                            .MXDXDXDX8XDXDXDXDXDXDXDXDXDXDXDXDXDXDXDXDXDXDXDXDXDX{.",
"{.DXDXDXDXDXDXDXDXDXDXDXDXDXDXDXDXDXDXDXDXwXg ZXDXDXDXcXG                       <.DXDXDXDXCXd tXDXDXDXDXDXDXDXDXDXDXDXDXDXDXDXDXDXDXDXDX{.",
"{.DXDXDXDXDXDXDXDXDXDXDXDXDXDXDXDXDXDXDXDX#.  H.DXDXDXDXcXC                   2.DXDXDXDXDXZ.  ;.DXDXDXDXDXDXDXDXDXDXDXDXDXDXDXDXDXDXDXDX{.",
"{.DXDXDXDXDXDXDXDXDXDXDXDXDXDXDXDXDXDXDX6X@   u NXDXDXDXDXgXi               ~ ZXDXDXDXDXNXu   # 9XDXDXDXDXDXDXDXDXDXDXDXDXDXDXDXDXDXDXDX{.",
"{.DXDXDXDXDXDXDXDXDXDXDXDXDXDXDXDXDXDXDXT       a.DXDXDXDXDX<X&           l vXDXDXDXDXDXe.      ^ DXDXDXDXDXDXDXDXDXDXDXDXDXDXDXDXDXDXDX{.",
"{.DXDXDXDXDXDXDXDXDXDXDXDXDXDXDXDXDXDXZ.        * 7XDXDXDXDXDXa.        O *XDXDXDXDXDX4X%         J.DXDXDXDXDXDXDXDXDXDXDXDXDXDXDXDXDXDX{.",
"{.DXDXDXDXDXDXDXDXDXDXDXDXDXDXDXDXDXuX2           Z VXDXDXDXDXCXB       8.DXDXDXDXDXNXM           6 sXDXDXDXDXDXDXDXDXDXDXDXDXDXDXDXDXDX{.",
"{.DXDXDXDXDXDXDXDXDXDXDXDXDXDXDXDXbXm               ..DXDXDXDXDX%X.   0 vXDXDXDXDXDX+.              n vXDXDXDXDXDXDXDXDXDXDXDXDXDXDXDXDX{.",
"{.DXDXDXDXDXDXDXDXDXDXDXDXDXDXDXCX!                   s.DXDXDXDXDX)   M.DXDXDXDXDXr.                  _ ZXDXDXDXDXDXDXDXDXDXDXDXDXDXDXDX{.",
"{.DXDXDXDXDXDXDXDXDXDXDXDXDXDXCX'                     . s.DXDXDXDX,Xw BXDXDXDXDXi.                      _ VXDXDXDXDXDXDXDXDXDXDXDXDXDXDX{.",
"{.DXDXDXDXDXDXDXDXDXDXDXDXDXlXY                           0.SXDXDXDX$XDXDXDXZX3.                          Q xXDXDXDXDXDXDXDXDXDXDXDXDXDX{.",
"{.DXDXDXDXDXDXDXDXDXDXDXDXBXc                               &.DXDXDXDXDXDXDXX.                              m VXDXDXDXDXDXDXDXDXDXDXDXDX{.",
"{.DXDXDXDXDXDXDXDXDXDXDXDXDX-Xe                           C aXDXDXDXDXDXDXDXiXN                           q %XDXDXDXDXDXDXDXDXDXDXDXDXDX{.",
"{.DXDXDXDXDXDXDXDXDXDXDXDXDXDXtXp                       Y nXDXDXDXDXDXDXDXDXDXMXE                       s uXDXDXDXDXDXDXDXDXDXDXDXDXDXDX{.",
"{.DXDXDXDXDXDXDXDXDXDXDXDXDXDXDXiXi                   ! BXDXDXDXDXDXDXDXDXDXDXDXMXU                   g dXDXDXDXDXDXDXDXDXDXDXDXDXDXDXDX{.",
"{.DXDXDXDXDXDXDXDXDXDXDXDXDXDXDXDX5X<               v vXDXDXDXDXDXDXDXDXDXDXDXDXDXxXz               2 8XDXDXDXDXDXDXDXDXDXDXDXDXDXDXDXDX{.",
"{.DXDXDXDXDXDXDXDXDXDXDXDXDXDXDXDXDX(.o           8 iXDXDXDXDXDXDXDXDXDXDXDXDXDXDXDXtX5           O .XDXDXDXDXDXDXDXDXDXDXDXDXDXDXDXDXDX{.",
"{.DXDXDXDXDXDXDXDXDXDXDXDXDXDXDXDXDXDX,.          I.DXDXDXDXDXDXDXDXDXDXDXDXDXDXDXDXDXY.          7.DXDXDXDXDXDXDXDXDXDXDXDXDXDXDXDXDXDX{.",
"{.DXDXDXDXDXDXDXDXDXDXDXDXDXDXDXDXDXDXbXa       { DXDXDXDXDXDXDXDXDXDXDXDXDXDXDXDXDXDXDX)       j MXDXDXDXDXDXDXDXDXDXDXDXDXDXDXDXDXDXDX{.",
"{.DXDXDXDXDXDXDXDXDXDXDXDXDXDXDXDXDXDXDXW.    ; sXDXDXDXDXDXDXDXDXDXDXDXDXDXDXDXDXDXDXDXiX=     (.DXDXDXDXDXDXDXDXDXDXDXDXDXDXDXDXDXDXDX{.",
"{.DXDXDXDXDXDXDXDXDXDXDXDXDXDXDXDXDXDXDXDXJ   w.DXDXDXDXDXDXDXDXDXDXDXDXDXDXDXDXDXDXDXDXDX8.  T DXDXDXDXDXDXDXDXDXDXDXDXDXDXDXDXDXDXDXDX{.",
"{.DXDXDXDXDXDXDXDXDXDXDXDXDXDXDXDXDXDXDXDX.X> lXDXDXDXDXDXDXDXDXDXDXDXDXDXDXDXDXDXDXDXDXDXlX> #XDXDXDXDXDXDXDXDXDXDXDXDXDXDXDXDXDXDXDXDX{.",
"{.DXDXDXDXDXDXDXDXDXDXDXDXDXDXDXDXDXDXDXDXDXK.DXDXDXDXDXDXDXDXDXDXDXDXDXDXDXDXDXDXDXDXDXDXDXK.DXDXDXDXDXDXDXDXDXDXDXDXDXDXDXDXDXDXDXDXDX{.",
"{.DXDXDXDXDXDXDXDXDXDXDXDXDXDXDXDXDXDXDXDXDXDXDXDXDXDXDXDXDXDXDXDXDXDXDXDXDXDXDXDXDXDXDXDXDXDXDXDXDXDXDXDXDXDXDXDXDXDXDXDXDXDXDXDXDXDXDX{.",
"{.DXDXDXDXDXDXDXDXDXDXDXDXDXDXDXDXDXDXDXDXDXDXDXDXDXDXDXDXDXDXDXDXDXDXDXDXDXDXDXDXDXDXDXDXDXDXDXDXDXDXDXDXDXDXDXDXDXDXDXDXDXDXDXDXDXDXDX{.",
"{.DXDXDXDXDXDXDXDXDXDXDXDXDXDXDXDXDXDXDXDXDXV.DXDXDXDXDXDXDXDXDXDXDXDXDXDXDXDXDXDXDXDXDXDXDXV.DXDXDXDXDXDXDXDXDXDXDXDXDXDXDXDXDXDXDXDXDX{.",
"{.DXDXDXDXDXDXDXDXDXDXDXDXDXDXDXDXDXDXDXDX^.= gXDXDXDXDXDXDXDXDXDXDXDXDXDXDXDXDXDXDXDXDXDXgX= .XDXDXDXDXDXDXDXDXDXDXDXDXDXDXDXDXDXDXDXDX{.",
"{.DXDXDXDXDXDXDXDXDXDXDXDXDXDXDXDXDXDXDXDXC   7.DXDXDXDXDXDXDXDXDXDXDXDXDXDXDXDXDXDXDXDXDX>.  F DXDXDXDXDXDXDXDXDXDXDXDXDXDXDXDXDXDXDXDX{.",
"{.DXDXDXDXDXDXDXDXDXDXDXDXDXDXDXDXDXDXDXK.    & tXDXDXDXDXDXDXDXDXDXDXDXDXDXDXDXDXDXDXDXwX$     W.DXDXDXDXDXDXDXDXDXDXDXDXDXDXDXDXDXDXDX{.",
"{.DXDXDXDXDXDXDXDXDXDXDXDXDXDXDXDXDXDXcXu       W DXDXDXDXDXDXDXDXDXDXDXDXDXDXDXDXDXDXDXQ       u cXDXDXDXDXDXDXDXDXDXDXDXDXDXDXDXDXDXDX{.",
"{.DXDXDXDXDXDXDXDXDXDXDXDXDXDXDXDXDXDX#.          H.DXDXDXDXDXDXDXDXDXDXDXDXDXDXDXDXDXZ.          :.DXDXDXDXDXDXDXDXDXDXDXDXDXDXDXDXDXDX{.",
"{.DXDXDXDXDXDXDXDXDXDXDXDXDXDXDXDXDXR..           4 wXDXDXDXDXDXDXDXDXDXDXDXDXDXDXDX9X1           X ~.DXDXDXDXDXDXDXDXDXDXDXDXDXDXDXDXDX{.",
"{.DXDXDXDXDXDXDXDXDXDXDXDXDXDXDXDX1X>               g kXDXDXDXDXDXDXDXDXDXDXDXDXDXlXh               : <XDXDXDXDXDXDXDXDXDXDXDXDXDXDXDXDX{.",
"{.DXDXDXDXDXDXDXDXDXDXDXDXDXDXDX0Xw                   L bXDXDXDXDXDXDXDXDXDXDXDXcXD                   u rXDXDXDXDXDXDXDXDXDXDXDXDXDXDXDX{.",
"{.DXDXDXDXDXDXDXDXDXDXDXDXDXDX6Xq                       J cXDXDXDXDXDXDXDXDXDXlXZ                       t 0XDXDXDXDXDXDXDXDXDXDXDXDXDXDX{.",
"{.DXDXDXDXDXDXDXDXDXDXDXDXDX.X5                           z wXDXDXDXDXDXDXDXtXv                           3 _.DXDXDXDXDXDXDXDXDXDXDXDXDX{.",
"{.DXDXDXDXDXDXDXDXDXDXDXDXBXM                               :.DXDXDXDXDXDXDX%.                              Z VXDXDXDXDXDXDXDXDXDXDXDXDX{.",
"{.DXDXDXDXDXDXDXDXDXDXDXDXDXbX)                         X a.DXDXDXDX%XDXDXDXSXr..                         ] nXDXDXDXDXDXDXDXDXDXDXDXDXDX{.",
"{.DXDXDXDXDXDXDXDXDXDXDXDXDXDXSX%.                    o N.DXDXDXDX/.k SXDXDXDXDXv.X                     @.ZXDXDXDXDXDXDXDXDXDXDXDXDXDXDX{.",
"{.DXDXDXDXDXDXDXDXDXDXDXDXDXDXDXSX]                   m.DXDXDXDXDXG   T.DXDXDXDXDXk.                  o.SXDXDXDXDXDXDXDXDXDXDXDXDXDXDXDX{.",
"{.DXDXDXDXDXDXDXDXDXDXDXDXDXDXDXDXBXF               1.DXDXDXDXDXR.    d VXDXDXDXDXDX=.              S NXDXDXDXDXDXDXDXDXDXDXDXDXDXDXDXDX{.",
"{.DXDXDXDXDXDXDXDXDXDXDXDXDXDXDXDXDXfX7           K ZXDXDXDXDXnXs       g.DXDXDXDXDXCXD           q hXDXDXDXDXDXDXDXDXDXDXDXDXDXDXDXDXDX{.",
"{.DXDXDXDXDXDXDXDXDXDXDXDXDXDXDXDXDXDXT.        : rXDXDXDXDXDX1.        * 8XDXDXDXDXDXwX-         W.DXDXDXDXDXDXDXDXDXDXDXDXDXDXDXDXDXDX{.",
"{.DXDXDXDXDXDXDXDXDXDXDXDXDXDXDXDXDXDXDX(       z.DXDXDXDXDXoXO           S BXDXDXDXDXDXs.      [ DXDXDXDXDXDXDXDXDXDXDXDXDXDXDXDXDXDXDX{.",
"{.DXDXDXDXDXDXDXDXDXDXDXDXDXDXDXDXDXDXDXwX%   f VXDXDXDXDXwX6               ..DXDXDXDXDXVXf   & yXDXDXDXDXDXDXDXDXDXDXDXDXDXDXDXDXDXDXDX{.",
"{.DXDXDXDXDXDXDXDXDXDXDXDXDXDXDXDXDXDXDXDX;.  T.DXDXDXDXgXh                   i.DXDXDXDXDXJ.  4.DXDXDXDXDXDXDXDXDXDXDXDXDXDXDXDXDXDXDXDX{.",
"{.DXDXDXDXDXDXDXDXDXDXDXDXDXDXDXDXDXDXDXDXuXb SXDXDXDXdXl                       q.DXDXDXDXSXx aXDXDXDXDXDXDXDXDXDXDXDXDXDXDXDXDXDXDXDXDX{.",
"{.DXDXDXDXDXDXDXDXDXDXDXDXDXDXDXDXDXDXDXDXDXtXDXDXDX4Xa                           >.CXDXDXDXtXDXDXDXDXDXDXDXDXDXDXDXDXDXDXDXDXDXDXDXDXDX{.",
"{.DXDXDXDXDXDXDXDXDXDXDXDXDXDXDXDXDXDXDXDXDXDXDXDXlX9                               8.DXDXDXDXDXDXDXDXDXDXDXDXDXDXDXDXDXDXDXDXDXDXDXDXDX{.",
"{.DXDXDXDXDXDXDXDXDXDXDXDXDXDXDXDXDXDXDXDXDXbXDXDXDX>Xt                           #.BXDXDXDXbXDXDXDXDXDXDXDXDXDXDXDXDXDXDXVX7XDXDXDXDXDX{.",
"{.DXDXDXDXDXDXDXDXDXDXDXDXDXDXDXDXDXDXDXDXzX^ DXDXDXDXaXj                       2.DXDXDXDXDXW cXDXDXDXDXDXDXDXDXDXDXDXDXDXV./ DXDXDXDXDX{.",
"{.DXDXDXDXDXDXDXDXDXDXDXDXDXDXDXDXDXDXDXDXp.  *XDXDXDXDXsXa                   q.DXDXDXDXDX+X  j.DXDXDXDXDXDXDXDXDXDXDXDXzX9   ).DXDXDXDX{.",
"{.DXDXDXDXDXDXDXDXDXDXDXDXDXDXDXDXDXDXDXjX3   G DXDXDXDXDX0X3               [ DXDXDXDXDXDXH   5 zXDXDXDXDXDXDXDXDXDXDXDX-.    d NXDXDXDX{.",
"{.DXDXDXDXDXDXDXDXDXDXDXDXDXDXDXDXDXDXDX<.      Q.DXDXDXDXDX).X           N MXDXDXDXDXDXI.      9.DXDXDXDXDXDXDXDXDXDXE.o       | DXDXDX{.",
"{.DXDXDXDXDXDXDXDXDXDXDXDXDXDXDXDXDXDX;X@       r zXDXDXDXDXDX;.        % 3XDXDXDXDXDXkXq       # ,XDXDXDXDXDXDXDXDX/.*           5.DXDX{.",
"{.DXDXDXDXDXDXDXDXDXDXDXDXDXDXDXDXDXNXz           #.DXDXDXDXDXvXi       p.DXDXDXDXDXDX..          n VXDXDXDXDXDXDXJ.$               o.DX{.",
"{.DXDXDXDXDXDXDXDXDXDXDXDXDXDXDXDXDX+.            . C.DXDXDXDXDXU.    s BXDXDXDXDXDXM.              X.DXDXDXDXDXDXsXM             <  XDX{.",
"{.DXDXDXDXDXDXDXDXDXDXDXDXDXDXDXDXu.                $ oXDXDXDXDXDXZ   P.DXDXDXDXDX).@                 g.DXDXDXDXDXDXzXM         > ;XDXDX{.",
"{.DXDXDXDXDXDXDXDXDXDXDXDXDXDXDXc.X                   , @XDXDXDXDX!.j SXDXDXDXDXoX:                   X m.DXDXDXDXDXDXsX0     . W.DXDXDX{.",
"{.DXDXDXDXDXDXDXDXDXDXDXDXDXDXu..                       : `.DXDXDXSXXXDXDXDXDX~.=                       X g.DXDXDXDXDXDXK.    | DXDXDXDX{.",
"{.DXDXDXDXDXDXDXDXDXDXDXDXBX}                             @ z.DXDXDXDXDXDXDXd.O                             O.VXDXDXDXDXDXY 1 fXDXDXDXDX{.",
"{.DXDXDXDXDXDXDXDXDXDXDXDXDXc.O                           1 /.DXDXDXDXDXDXDX!.<                           O y.DXDXDXDXDXDX1Xu.DXDXDXDXDX{.",
"{.DXDXDXDXDXDXDXDXDXDXDXDXDXDXE.%                       y 9XDXDXDXDXDXDXDXDXDX5Xw                       = ~.DXDXDXDXDXDXDXDXVXDXDXDXDXDX{.",
"{.DXDXDXDXDXDXDXDXDXDXDXDXDXDXDX(.*                   p tXDXDXDXDXDXDXDXDXDXDXDXqXt                   ; .XDXDXDXDXZ.y = V 3X/ $ + X $ $ {.",
"{.DXDXDXDXDXDXDXDXDXDXDXDXDXDXDXDXP.X               2 8XDXDXDXDXDXDXDXDXDXDXDXDXDX5X<               X T.DXDXDXDX&X> OXBXw.i VXDXq.W DXDX{.",
"{.DXDXDXDXDXDXDXDXDXDXDXDXDXDXDXDXDXt.            #  XDXDXDXDXDXDXDXDXDXDXDXDXDXDXDX(.@             s.DXDXDXDXDX%...DXDXVX2 `.DXq.W DXDX{.",
"{.DXDXDXDXDXDXDXDXDXDXDXDXDXDXDXDXDXDXI           t.DXDXDXDXDXDXDXDXDXDXDXDXDXDXDXDXDX0.          T DXDXDXDXDXDXS f.DXDXDXC h.DXq.W DXDX{.",
"{.DXDXDXDXDXDXDXDXDXDXDXDXDXDXDXDXDXDXuX,       c BXDXDXDXDXDXDXDXDXDXDXDXDXDXDXDXDXDXVXb       , uXDXDXDXDXDXDXv B.DXDXDXT t.DXq.W DXDX{.",
"{.DXDXDXDXDXDXDXDXDXDXDXDXDXDXDXDXDXDXDXd.    X ;XDXDXDXDXDXDXDXDXDXDXDXDXDXDXDXDXDXDXDX#X.     x.DXDXDXDXDXDXDXA x.DXDXDXH h.DXq.W DXDX{.",
"{.DXDXDXDXDXDXDXDXDXDXDXDXDXDXDXDXDXDXDXBXp   } DXDXDXDXDXDXDXDXDXDXDXDXDXDXDXDXDXDXDXDXDX)   d VXDXDXDXDXDXDXDXO.=.DXDXSX9 (.DXq.W DX%X{.",
"{.DXDXDXDXDXDXDXDXDXDXDXDXDXDXDXDXDXDXDXDXC.O qXDXDXDXDXDXDXDXDXDXDXDXDXDXDXDXDXDXDXDXDXDX6XX G.DXDXDXDXDXDXDXDX|.1 =XVXp.e NXDXq.D ^ *.{.",
"{.DXDXDXDXDXDXDXDXDXDXDXDXDXDXDXDXDXDXDXDXBX2.DXDXDXDXDXDXDXDXDXDXDXDXDXDXDXDXDXDXDXDXDXDXDX>.VXDXDXDXDXDXDXDXDXDXk.q * M ;XDXDXq.: M.DX{.",
"].AXDXDXDXDXDXDXDXDXDXDXDXDXDXDXDXDXDXDXDXDXSXDXDXDXDXDXDXDXDXDXDXDXDXDXDXDXDXDXDXDXDXDXDXDXSXDXDXDXDXDXDXDXDXDXDXDXDXDXDXDXDXDXDXDXDXAX[.",
"mX'.{.}.}.}.}.}.}.}.}.}.}.}.}.}.}.}.}.}.}.}.}.}.}.}.}.}.}.}.}.}.}.}.}.}.}.}.}.}.}.}.}.}.}.}.}.}.}.}.}.}.}.}.}.}.}.}.}.}.}.}.}.}.}.}.{.'.mX"
};
