/* XPM */
static const char *ten_spades[] = {
/* columns rows colors chars-per-pixel */
"69 100 252 2 ",
"   c black",
".  c #010101",
"X  c #020202",
"o  c gray1",
"O  c #040404",
"+  c gray2",
"@  c #060606",
"#  c #070707",
"$  c gray3",
"%  c #090909",
"&  c gray4",
"*  c #0B0B0B",
"=  c #0C0C0C",
"-  c gray5",
";  c #0E0E0E",
":  c gray6",
">  c #101010",
",  c #111111",
"<  c gray7",
"1  c #131313",
"2  c gray8",
"3  c #151515",
"4  c #161616",
"5  c gray9",
"6  c #181818",
"7  c #191919",
"8  c gray10",
"9  c #1B1B1B",
"0  c gray11",
"q  c #1D1D1D",
"w  c #1E1E1E",
"e  c gray12",
"r  c #202020",
"t  c gray13",
"y  c #222222",
"u  c #232323",
"i  c gray14",
"p  c #252525",
"a  c gray15",
"s  c #272727",
"d  c #282828",
"f  c gray16",
"g  c #2A2A2A",
"h  c gray17",
"j  c #2C2C2C",
"k  c #2D2D2D",
"l  c gray18",
"z  c #2F2F2F",
"x  c gray19",
"c  c #313131",
"v  c #323232",
"b  c gray20",
"n  c #343434",
"m  c #353535",
"M  c gray21",
"N  c #373737",
"B  c gray22",
"V  c #393939",
"C  c #3A3A3A",
"Z  c gray23",
"A  c #3C3C3C",
"S  c gray24",
"D  c #3E3E3E",
"F  c #3F3F3F",
"G  c gray25",
"H  c #414141",
"J  c gray26",
"K  c #434343",
"L  c #444444",
"P  c gray27",
"I  c #464646",
"U  c gray28",
"Y  c #484848",
"T  c #494949",
"R  c gray29",
"E  c #4B4B4B",
"W  c #4C4C4C",
"Q  c gray30",
"!  c #4E4E4E",
"~  c gray31",
"^  c #505050",
"/  c #515151",
"(  c gray32",
")  c #535353",
"_  c gray33",
"`  c #555555",
"'  c #565656",
"]  c gray34",
"[  c #585858",
"{  c gray35",
"}  c #5A5A5A",
"|  c #5B5B5B",
" . c gray36",
".. c #5D5D5D",
"X. c gray37",
"o. c #5F5F5F",
"O. c #606060",
"+. c gray38",
"@. c #626262",
"#. c gray39",
"$. c #646464",
"%. c #656565",
"&. c gray40",
"*. c #676767",
"=. c #686868",
"-. c DimGray",
";. c #6A6A6A",
":. c gray42",
">. c #6C6C6C",
",. c #6D6D6D",
"<. c gray43",
"1. c #6F6F6F",
"2. c gray44",
"3. c #717171",
"4. c #727272",
"5. c gray45",
"6. c #747474",
"7. c gray46",
"8. c #767676",
"9. c #777777",
"0. c gray47",
"q. c #797979",
"w. c gray48",
"e. c #7B7B7B",
"r. c #7C7C7C",
"t. c gray49",
"y. c #7E7E7E",
"u. c #808080",
"i. c #818181",
"p. c gray51",
"a. c #838383",
"s. c #848484",
"d. c #868686",
"f. c gray53",
"g. c #888888",
"h. c #898989",
"j. c gray54",
"k. c #8B8B8B",
"l. c #8D8D8D",
"z. c #8E8E8E",
"x. c #909090",
"c. c gray57",
"v. c #929292",
"b. c #939393",
"n. c gray58",
"m. c #959595",
"M. c gray59",
"N. c #979797",
"B. c #989898",
"V. c gray60",
"C. c #9A9A9A",
"Z. c #9B9B9B",
"A. c gray61",
"S. c #9D9D9D",
"D. c gray62",
"F. c #9F9F9F",
"G. c #A0A0A0",
"H. c gray63",
"J. c #A2A2A2",
"K. c gray64",
"L. c #A4A4A4",
"P. c #A5A5A5",
"I. c gray65",
"U. c #A7A7A7",
"Y. c gray66",
"T. c #A9A9A9",
"R. c #AAAAAA",
"E. c gray67",
"W. c #ACACAC",
"Q. c gray68",
"!. c #AEAEAE",
"~. c #AFAFAF",
"^. c gray69",
"/. c #B1B1B1",
"(. c #B2B2B2",
"). c gray70",
"_. c #B4B4B4",
"`. c gray71",
"'. c #B6B6B6",
"]. c #B7B7B7",
"[. c gray72",
"{. c #B9B9B9",
"}. c gray73",
"|. c #BBBBBB",
" X c #BCBCBC",
".X c gray74",
"XX c gray",
"oX c gray75",
"OX c #C0C0C0",
"+X c #C1C1C1",
"@X c gray76",
"#X c #C3C3C3",
"$X c gray77",
"%X c #C5C5C5",
"&X c #C6C6C6",
"*X c gray78",
"=X c #C8C8C8",
"-X c gray79",
";X c #CACACA",
":X c #CBCBCB",
">X c gray80",
",X c #CDCDCD",
"<X c #CECECE",
"1X c gray81",
"2X c #D0D0D0",
"3X c gray82",
"4X c #D2D2D2",
"5X c LightGray",
"6X c gray83",
"7X c #D5D5D5",
"8X c gray84",
"9X c #D7D7D7",
"0X c #D8D8D8",
"qX c gray85",
"wX c #DADADA",
"eX c gray86",
"rX c gainsboro",
"tX c #DDDDDD",
"yX c gray87",
"uX c #DFDFDF",
"iX c gray88",
"pX c #E1E1E1",
"aX c #E2E2E2",
"sX c gray89",
"dX c #E4E4E4",
"fX c gray90",
"gX c #E6E6E6",
"hX c #E7E7E7",
"jX c gray91",
"kX c #E9E9E9",
"lX c #EAEAEA",
"zX c gray92",
"xX c #ECECEC",
"cX c gray93",
"vX c #EEEEEE",
"bX c #EFEFEF",
"nX c gray94",
"mX c #F1F1F1",
"MX c gray95",
"NX c #F3F3F3",
"BX c #F4F4F4",
"VX c gray96",
"CX c #F6F6F6",
"ZX c gray97",
"AX c #F8F8F8",
"SX c #F9F9F9",
"DX c gray98",
"FX c #FBFBFB",
"GX c gray99",
"HX c #FDFDFD",
"JX c #FEFEFE",
"KX c white",
/* pixels */
"DX@X:X>X>X>X>X>X>X>X>X>X>X>X>X>X>X>X>X>X>X>X>X>X>X>X>X>X>X>X>X>X>X>X>X>X>X>X>X>X>X>X>X>X>X>X>X>X>X>X>X>X>X>X>X>X>X>X>X>X>X>X>X>X>X>X:X@XDX",
"#XJXKXKXKXKXKXKXKXKXKXKXKXKXKXKXKXKXKXKXKXKXKXKXKXKXKXKXKXKXKXKXKXKXKXKXKXKXKXKXKXKXKXKXKXKXKXKXKXKXKXKXKXKXKXKXKXKXKXKXKXKXKXKXKXKXKXJX$X",
":XKXKXKXKXKXKXd.7 % ! hXKXKXKXKXKXKXKXKXKXnXHXKXKXKXKXKXKXKXKXKXKXKXKXKXKXKXKXKXKXKXKXKXKXKXKXgXKXKXKXKXKXKXKXKXKXKXKXKXKXKXKXKXKXKXKXKX:X",
":XKXF.; a.KXD.% Y.:XC D KXKXKXKXKXKXKXKXKXe.T.KXKXKXKXKXKXKXKXKXKXKXKXKXKXKXKXKXKXKXKXKXKXKXkXl BXKXKXKXKXKXKXKXKXKXKXKXKXKXKXKXKXKXKXKX:X",
":X>._ F a.KXc 6.KXKX7X  1XKXKXKXKXKXKXKX=X+ 3 gXKXKXKXKXKXKXKXKXKXKXKXKXKXKXKXKXKXKXKXKXKXJXE   #.KXKXKXKXKXKXKXKXKXKXKXKXKXKXKXKXKXKXKX:X",
":X;XKX~ a.AXX `.KXKXKX6 B.KXKXKXKXKXKXxXt     C SXKXKXKXKXKXKXKXKXKXKXKXKXKXKXKXKXKXKXKXKXa.      C.KXKXKXKXKXKXKXKXKXKXKXKXKXKXKXKXKXKX:X",
":XKXKX~ a.fX  ;XKXKXKXk p.KXKXKXKXKXFXH         ;.KXKXKXKXKXKXKXKXKXKXKXKXKXKXKXKXKXKXKX[.o       + @XKXKXKXKXKXKXKXKXKXKXKXKXKXKXKXKXKX:X",
":XKXKX~ a.dX  :XKXKXKXk p.KXKXKXKXKX,.            C.KXKXKXKXKXKXKXKXKXKXKXKXKXKXKXKXKXqX>           6 dXKXKXKXKXKXKXKXKXKXKXKXKXKXKXKXKX:X",
":XKXKX~ a.AXX `.KXKXKX6 B.KXKXKXKXG.              # *XKXKXKXKXKXKXKXKXKXKXKXKXKXKXKXMXd               V SXKXKXKXKXKXKXKXKXKXKXKXKXKXKXKX:X",
":XKXKX~ a.KXc 6.KXKX7X  1XKXKXKX3X&                 0 lXKXKXKXKXKXKXKXKXKXKXKXKXKXJX`                   ,.KXKXKXKXKXKXKXKXKXKXKXKXKXKXKX:X",
":XKXKX~ a.KXS.% T.>XC S KXKXKXnXy                     I HXKXKXKXKXKXKXKXKXKXKXKXKXx.                      R.KXKXKXKXKXKXKXKXKXKXKXKXKXKX:X",
":X# # X O # ` d.6 % Q hXKXKXKX+.                        c.KXKXKXKXKXKXKXKXKXKXKX9X%                       > sXKXKXKXKXKXKXKXKXKXKXKXKXKX:X",
":XKXKXKXKXKXSXMXKXKXKXKXKXKX'.                          & eXKXKXKXKXKXKXKXKXKXJXN                           ! KXKXKXKXKXKXKXKXKXKXKXKXKX:X",
":XKXKXKXKXKXd.6.KXKXKXKXKXGXh                             ] KXKXKXKXKXKXKXKXKXY.                              XXKXKXKXKXKXKXKXKXKXKXKXKX:X",
":XKXKXKXKX#X+ . R.KXKXKXKXT.                              . 8XKXKXKXKXKXKXKXKXk                               P KXKXKXKXKXKXKXKXKXKXKXKX:X",
":XKXKXKXpX3     = 6XKXKXKXX.                                k.KXKXKXKXKXKXKXfX                                @ BXKXKXKXKXKXKXKXKXKXKXKX:X",
":XKXKXFXV         g VXKXKXn               . .               +.KXKXKXx.mXKXKXXX              o   o               7XKXKXKXKXKXKXKXKXKXKXKX:X",
":XKXKX9.            &.KXKXW             @.* x M             e.KXKXeX- =.KXKXeX            , :.  <.@           o nXKXKXKXKXKXKXKXKXKXKXKX:X",
":XKX=XX               ].KX~.          P 9X  : uX9         # 0XKXCXc     T.KXKXU         % .X@.  q.C.X         O.KXKXKXKXKXKXKXKXKXKXKXKX:X",
":XKX!                 Z KXKXv.;   X %.AXc.    XXdXZ     9 _.KXKXO.      % ,XKXvX[ +   p :XHX6   j KX~.6   $ *.VXKXKXKXKXKXKXKXKXKXKXKXKX:X",
":XKXq       @ @       & KXKXKXSX7XsXKXKXH     <.KXKXqXrXHXKXKXk.          e lXKXKXSXaXHXKX$X      wXKXGXaXFXKXKXKXKXKXKXKXKXKXKXKXKXKXKX:X",
":XKX)     i #.` g     J KXKXKXKXKXKXKXrXX     1 ZXKXKXKXKXKX|.o             K FXKXKXKXKXKXo.      9.KXKXKXKXKXKXKXKXKXKXKXKXKXKXKXKXKXKX:X",
":XKXbXu.q.lXz q xXt.e.lXKXKXKXKXKXKXKX5.        H.KXKXKXKXaX2                 8.KXKXKXKXlX%       4 VXKXKXKXKXKXKXKXKXKXKXKXKXKXKXKXKXKX:X",
":XKXKXKXKX3X    .XKXKXKXKXKXKXKXKXKXVX1.&.&.&.&.a.JXKXKXAXm                   . ^.KXKXKX=Xg.g.g.g.g.5XKXKXKXKXKXKXKXKXKXKXKXKXKXKXKXKXKX:X",
":XKXKXKXKX/.9.9.I.KXKXKXKXKXKXKXKXKXKXKXKXKXKXKXKXKXKXKX6.                      > sXKXKXKXKXKXKXKXKXKXKXKXKXKXKXKXKXKXKXKXKXKXKXKXKXKXKX:X",
":XKXKXKXKXKXKXKXKXKXKXKXKXKXKXKXKXKXKXKXKXKXKXKXKXKXKX&Xo                         I JXKXKXKXKXKXKXKXKXKXKXKXKXKXKXKXKXKXKXKXKXKXKXKXKXKX:X",
":XKXKXKXKXKXKXKXKXKXKXKXKXKXKXKXKXKXKXKXKXKXKXKXKXKXJXc                             ^.KXKXKXKXKXKXKXKXKXKXKXKXKXKXKXKXKXKXKXKXKXKXKXKXKX:X",
":XKXKXKXKXKXKXKXKXKXKXKXKXKXKXKXKXKXKXKXKXKXKXKXKXKXY.                              j HXKXKXKXKXKXKXKXKXKXKXKXKXKXKXKXKXKXKXKXKXKXKXKXKX:X",
":XKXKXKXKXKXKXKXKXKXKXKXKXKXKXKXKXKXKXKXKXAXvXKXKXKXE                                 ,XKXKXKXyXKXKXKXKXKXKXKXKXKXKXKXKXKXKXKXKXKXKXKXKX:X",
":XKXKXKXKXKXKXKXKXKXKXKXKXKXKXKXKXKXKXKXKXn.t.KXKXKX,                                 c.KXKXNXs tXKXKXKXKXKXKXKXKXKXKXKXKXKXKXKXKXKXKXKX:X",
":XKXKXKXKXKXKXKXKXKXKXKXKXKXKXKXKXKXKXKX0X* + -XKXKX1             b   k o             n.KXKX+.  B DXKXKXKXKXKXKXKXKXKXKXKXKXKXKXKXKXKXKX:X",
":XKXKXKXKXKXKXKXKXKXKXKXKXKXKXKXKXKXKXNXj     w kXKX[           f ].  T g.          X 0XKXG.      ,.KXKXKXKXKXKXKXKXKXKXKXKXKXKXKXKXKXKX:X",
":XKXKXKXKXKXKXKXKXKXKXKXKXKXKXKXKXKXJX`         Z SXsXu       v dXp.  * CXu..     . f.KX&X#         Z.KXKXKXKXKXKXKXKXKXKXKXKXKXKXKXKXKX:X",
":XKXKXKXKXKXKXKXKXKXKXKXKXKXKXKXKXKXu.            >.KXBXH.8.N.CXKXm     `.KX&X0.g.,XKXhX9           + #XKXKXKXKXKXKXKXKXKXKXKXKXKXKXKXKX:X",
":XKXKXKXKXKXKXKXKXKXKXKXKXKXKXKXKX(.X               D.KXKXKXKXKX9X.     [ KXKXKXKXKXSXB               8 hXKXKXKXKXKXKXKXKXKXKXKXKXKXKXKX:X",
":XKXKXKXKXKXKXKXKXKXKXKXKXKXKXKXuX<                 $ ,XKXKXKXKX1.      @ kXKXKXKXKX-.                  G FXKXKXKXKXKXKXKXKXKXKXKXKXKXKX:X",
":XKXKXKXKXKXKXKXKXKXKXKXKXKXKXAXx                     u MXKXKXhXq , , , , y.KXKXKXU.                      e.KXKXKXKXKXKXKXKXKXKXKXKXKXKX:X",
":XKXKXKXKXKXKXKXKXKXKXKXKXKXKX9.                        #.KXKXKXKXKXKXKXKXKXKXKXfX<                       X @XKXKXKXKXKXKXKXKXKXKXKXKXKX:X",
":XKXKXKXKXKXKXKXKXKXKXKXKXKX:Xo                           ].KXKXKXKXKXKXKXKXKXKX~                           s DXKXKXKXKXKXKXKXKXKXKXKXKX:X",
":XKXKXKXKXKXKXKXKXKXKXKXKXKXJ                             j HXKXKXKXKXKXKXKXKX#X                              m.KXKXKXKXKXKXKXKXKXKXKXKX:X",
":XKXKXKXKXKXKXKXKXKXKXKXKX%X                                Q.KXKXKXKXKXKXKXKXR                               q JXKXKXKXKXKXKXKXKXKXKXKX:X",
":XKXKXKXKXKXKXKXKXKXKXKXKXr.                                $.KXKXKXKXKXKXKXSX*                                 5XKXKXKXKXKXKXKXKXKXKXKX:X",
":XKXKXKXKXKXKXKXKXKXKXKXKX'               X X               D KXKXKXKXKXKXKXpX              +   +               ).KXKXKXKXKXKXKXKXKXKXKX:X",
":XKXKXKXKXKXKXKXKXKXKXKXKX5.            ^ f 1 o.             .KXKXKXKXKXKXKXAX&           & y.  =.5             7XKXKXKXKXKXKXKXKXKXKXKX:X",
":XKXKXKXKXKXKXKXKXKXKXKXKX7X#         N jX#   wXC         o $XKXKXKXKXKXKXKXKX7.        @ !.u.  ( @X=         Y KXKXKXKXKXKXKXKXKXKXKXKX:X",
":XKXKXKXKXKXKXKXKXKXKXKXKXKX{.p   X X.VXQ.    M.CX@.o   q R.KXKXKXKXKXKXKXKXKXFXt.5   p @XKXn   = AX3Xn   : #.mXKXKXKXKXKXKXKXKXKXKXKXKX:X",
":XKXKXKXKXKXKXKXKXKXKXKXKXKXKXKXzXzXKXKX..    P KXKXbXjXKXKXKXKXKXKXKXKXKXKXKXKXKXKXNXKXKXiX.     (.KXKXNXKXKXKXKXKXKXKXKXKXKXKXKXKXKXKX:X",
":XKXKXKXKXKXKXKXKXKXKXKXKXKXKXKXKXKXKXbX&     . rXKXKXKXKXKXKXKXKXKXKXKXKXKXKXKXKXKXKXKXKXe.      ~ KXKXKXKXKXKXKXKXKXKXKXKXKXKXKXKXKXKX:X",
":XKXKXKXKXKXKXKXKXKXKXKXKXKXKXKXKXKXKXz.        9.KXKXKXKXKXKXKXKXKXKXKXKXKXKXKXKXKXKXKXCX7       O yXKXKXKXKXKXKXKXKXKXKXKXKXKXKXKXKXKX:X",
":XKXKXKXKXKXKXKXKXKXKXKXKXKXKXKXKXKXGXh.9.9.9.9.i.AXKXKXKXKXKXKXKXKXKXKXKXKXKXKXKXKXKXKXrXV.V.V.V.V.-XKXKXKXKXKXKXKXKXKXKXKXKXKXKXKXKXKX:X",
":XKXKXKXKXKXKXKXKXKXKXKXKXKXKXKXKXKXKXKXKXKXKXKXKXKXKXKXKXKXKXKXKXKXKXKXKXKXKXKXKXKXKXKXKXKXKXKXKXKXKXKXKXKXKXKXKXKXKXKXKXKXKXKXKXKXKXKX:X",
":XKXKXKXKXKXKXKXKXKXKXKXKXKXKXKXKXKXJXtXtXtXtXtXtXAXKXKXKXKXKXKXKXKXKXKXKXKXKXKXKXKXKXKXkX>X>X>X>X>XeXKXKXKXKXKXKXKXKXKXKXKXKXKXKXKXKXKX:X",
":XKXKXKXKXKXKXKXKXKXKXKXKXKXKXKXKXKXKX=.        Z HXKXKXKXKXKXKXKXKXKXKXKXKXKXKXKXKXKXKXcX,         [.KXKXKXKXKXKXKXKXKXKXKXKXKXKXKXKXKX:X",
":XKXKXKXKXKXKXKXKXKXKXKXKXKXKXKXKXKXKXtXX       !.KXKXKXKXKXKXKXKXKXKXKXKXKXKXKXKXKXKXKXKX2.      f JXKXKXKXKXKXKXKXKXKXKXKXKXKXKXKXKXKX:X",
":XKXKXKXKXKXKXKXKXKXKXKXKXKXKXKXKXKXKXKXP     7 DXKXKXKXKXKXKXKXKXKXKXKXKXKXKXKXKXKXKXKXKX9X      x.KXKXKXKXKXKXKXKXKXKXKXKXKXKXKXKXKXKX:X",
":XKXKXKXKXKXKXKXKXKXKXKXKXKXVXh.~ R E.KXS.    ,.KX<X] I w.hXKXKXKXKXKXKXKXKXKXKX X_ l ] 0XKXz   . fXAXq.z I m.HXKXKXKXKXKXKXKXKXKXKXKXKX:X",
":XKXKXKXKXKXKXKXKXKXKXKXKXZXM         2.hXX   }.E.%       8 dXKXKXKXKXKXKXKXKXY..       > oXe.  n nXZ         $.KXKXKXKXKXKXKXKXKXKXKXKX:X",
":XKXKXKXKXKXKXKXKXKXKXKXKXA.            g.g X [.@           ,.KXKXKXKXKXKXKXKXt           , n.  >.I           . qXKXKXKXKXKXKXKXKXKXKXKX:X",
":XKXKXKXKXKXKXKXKXKXKXKXKX&.            o 5 % 1             M KXKXKXKXKXKXKXnX              1   3               Y.KXKXKXKXKXKXKXKXKXKXKX:X",
":XKXKXKXKXKXKXKXKXKXKXKXKX4.                                G KXKXKXKXKXKXKXAX%                                 [.KXKXKXKXKXKXKXKXKXKXKX:X",
":XKXKXKXKXKXKXKXKXKXKXKXKX(.                                i.KXKXKXKXKXKXKXKXK                               # BXKXKXKXKXKXKXKXKXKXKXKX:X",
":XKXKXKXKXKXKXKXKXKXKXKXKXDXu                             $ aXKXKXKXKXKXKXKXKX/.                              :.KXKXKXKXKXKXKXKXKXKXKXKX:X",
":XKXKXKXKXKXKXKXKXKXKXKXKXKXK.                            5.KXKXKXKXKXKXKXKXKXKXC                           = gXKXKXKXKXKXKXKXKXKXKXKXKX:X",
":XKXKXKXKXKXKXKXKXKXKXKXKXKXJXY                         t MXKXFXvXvXvXvXvXvXKXKX8X%                         B.KXKXKXKXKXKXKXKXKXKXKXKXKX:X",
":XKXKXKXKXKXKXKXKXKXKXKXKXKXKXaX>                     X +XKXKXFXc         -.KXKXKXk.                      Y JXKXKXKXKXKXKXKXKXKXKXKXKXKX:X",
":XKXKXKXKXKXKXKXKXKXKXKXKXKXKXKX(..                   i.KXKXKXKXK.      . rXKXKXKXJX^                   6 hXKXKXKXKXKXKXKXKXKXKXKXKXKXKX:X",
":XKXKXKXKXKXKXKXKXKXKXKXKXKXKXKXKX8.                U HXKXKXKXKXAX3     U KXKXKXKXKXvXy               + $XKXKXKXKXKXKXKXKXKXKXKXKXKXKXKX:X",
":XKXKXKXKXKXKXKXKXKXKXKXKXKXKXKXKXHXT             r zXlXi./ +.2XKX$.    G.KX{.) { N.DX3X*             M.KXKXKXKXKXKXKXKXKXKXKXKXKXKXKXKX:X",
":XKXKXKXKXKXKXKXKXKXKXKXKXKXKXKXKXKXvXi         = 4XdXq       $ Y.^.  o lXf..       K FX!..         o.KXKXKXKXKXKXKXKXKXKXKXKXKXKXKXKXKX:X",
":XKXKXKXKXKXKXKXKXKXKXKXKXKXKXKXKXKXKX8X;     . T.KX;.          + (.  l B.            U.KXq.      V AXKXKXKXKXKXKXKXKXKXKXKXKXKXKXKXKXKX:X",
":XKXKXKXKXKXKXKXKXKXKXKXKXKXKXKXKXKXKXKXY.    q.KXKXc             4 # 9 +             ,.KXHXI   4 gXKXKXKXKXKXKXKXKXKXKXKXKXKXKXKXKXKXKX:X",
":XKXKXKXKXKXKXKXKXKXKXKXKXKXKXKXKXKXKXKXKX#.N FXKXKXC                                 7.KXKXhX3 `.KXKXKXKXKXKXKXKXKXKXKXKXKXKXKXKXKXKXKX:X",
":XKXKXKXKXKXKXKXKXKXKXKXKXKXKXKXKXKXKXKXKXjX%XKXKXKXw.                                `.KXKXKX.XKXKXKXKXKXKXKXKXKXKXKXKXKXKXKXKXKXKXKXKX:X",
":XKXKXKXKXKXKXKXKXKXKXKXKXKXKXKXKXKXKXKXKXKXKXKXKXKXyX@                             t SXKXKXKXKXKXKXKXKXKXKXKXKXKXKXKXKXKXKXKXKXKXKXKXKX:X",
":XKXKXKXKXKXKXKXKXKXKXKXKXKXKXKXKXKXKXKXKXKXKXKXKXKXKX=.                            L.KXKXKXKXKXKXKXKXKXKXKXKXKXKXKXKXKXKXKXKXKXKXKXKXKX:X",
":XKXKXKXKXKXKXKXKXKXKXKXKXKXKXKXKXKXKXKXKXKXKXKXKXKXKXbX0                         L JXKXKXKXKXKXKXKXKXKXKXKXKXKXKXKXKXKX%XR.R.*XKXKXKXKX:X",
":XKXKXKXKXKXKXKXKXKXKXKXKXKXKXKXKXKXKXKXKXKXKXKXKXKXKXKX`..                     > sXKXKXKXKXKXKXKXKXKXKXKXKXKXKXKXKXKXKX~.    '.KXKXKXKX:X",
":XKXKXKXKXKXKXKXKXKXKXKXKXKXKXKXKXKXKXt.y y y y k kXKXKXKX5.                  . Q.KXKXKXzXt , , , , w.KXKXKXKXKXKXFXR.T.CX4 0 AXU.Q.GXKX:X",
":XKXKXKXKXKXKXKXKXKXKXKXKXKXKXKXKXKXKXpXo       1.KXKXKXKXFXS                 6.KXKXKXKXKX9.      O fXKXKXKXKXKXKX..    P } +.U     &.KX:X",
":XKXKXKXKXKXKXKXKXKXKXKXKXKXKXKXKXKXKXKXR       6XKXKXKXKXKXjX0             K FXKXKXKXKXKXtXX     ) KXKXKXKXKXKXKX,       , <       6 KX:X",
":XKXKXKXKXKXKXKXKXKXKXKXKXKXKXwXC.l.0XKXT.    n KXDXY.k.`.FXKX<X%         e lXKXVXJ.9.c.mXKXA     ~.KX1X0.f.;XKXKXv                 C KX:X",
":XKXKXKXKXKXKXKXKXKXKXKXKXKXc.o     + N.mX@   p.lXS       b cXKXJ.      % ,XKXfXa       i 8Xh.  $ BXM.O     . u.KXL.                W.KX:X",
":XKXKXKXKXKXKXKXKXKXKXKXKX0Xo           A.F   .Xc           *.KXKX>.    U.KXKXX.          9 '.  J F.          . 3XJX!             ( KXKX:X",
":XKXKXKXKXKXKXKXKXKXKXKXKXc.            # v   D             0 KXKXZXl #.KXKXKX8             z   k @             l.KXlX7         0 xXKXKX:X",
":XKXKXKXKXKXKXKXKXKXKXKXKXj.                                1 KXKXKX.XkXKXKXKX6                                 j.KXKXOX+     @ &XKXKXKX:X",
":XKXKXKXKXKXKXKXKXKXKXKXKX@X                                Q KXKXKXKXKXKXKXKX(                                 &XKXKXKXv.    C.KXKXKXKX:X",
":XKXKXKXKXKXKXKXKXKXKXKXKXDXr                               P.KXKXKXKXKXKXKXKX^.                              s GXKXKXKXKX| #.KXKXKXKXKX:X",
":XKXKXKXKXKXKXKXKXKXKXKXKXKXH.                            k HXKXKXKXKXKXKXKXKXKXV                             E.KXKXKXKXKXlXvXKXKXKXKXKX:X",
":XKXKXKXKXKXKXKXKXKXKXKXKXKXGXC                         X OXKXKXKXKXKXKXKXKXKXKX<X+                         L JXKXgXQ % 7 g.` # O X # # :X",
":XKXKXKXKXKXKXKXKXKXKXKXKXKXKXtX=                       4.KXKXKXKXKXKXKXKXKXKXKXKXy.                      : pXKXKXC A :XU.$ H.KXa.~ KXKX:X",
":XKXKXKXKXKXKXKXKXKXKXKXKXKXKXKXA.                    c ZXKXKXKXKXKXKXKXKXKXKXKXKXFXS                   . E.KXKX,X  0XKXKX3.b KXa.~ KXKX:X",
":XKXKXKXKXKXKXKXKXKXKXKXKXKXKXKXKX#.                > rXKXKXKXKXKXKXKXKXKXKXKXKXKXKXhX7                 4.KXKXKXN.7 KXKXKX_.o SXa.~ KXKX:X",
":XKXKXKXKXKXKXKXKXKXKXKXKXKXKXKXKXZXn             X (.KXKXKXKXKXKXKXKXKXKXKXKXKXKXKXKX+X+             D DXKXKXKXi.l KXKXKX-X  gXa.~ KXKX:X",
":XKXKXKXKXKXKXKXKXKXKXKXKXKXKXKXKXKXgX8           s.KXKXKXKXKXKXKXKXKXKXKXKXKXKXKXKXKXKXn.          w kXKXKXKXKXu.z KXKXKX-X  gXa.~ KXKX:X",
":XKXKXKXKXKXKXKXKXKXKXKXKXKXKXKXKXKXKX%X@       ^ JXKXKXKXKXKXKXKXKXKXKXKXKXKXKXKXKXKXKXKX%.      $ ;XKXKXKXKXKXN.7 KXKXKX_.o SXa.~ KX;X:X",
":XKXKXKXKXKXKXKXKXKXKXKXKXKXKXKXKXKXKXKXm.    j NXKXKXKXKXKXKXKXKXKXKXKXKXKXKXKXKXKXKXKXKXAXN     K.KXKXKXKXKXKX,X  0XKXKX3.b KXa.F _ ,.:X",
":XKXKXKXKXKXKXKXKXKXKXKXKXKXKXKXKXKXKXKXKX[ $ 3XKXKXKXKXKXKXKXKXKXKXKXKXKXKXKXKXKXKXKXKXKXKXyX: +.KXKXKXKXKXKXKXKXC A >XY.$ H.KXa.; D.KX:X",
":XKXKXKXKXKXKXKXKXKXKXKXKXKXKXKXKXKXKXKXKXkXd.KXKXKXKXKXKXKXKXKXKXKXKXKXKXKXKXKXKXKXKXKXKXKXKXb.vXKXKXKXKXKXKXKXKXfXW % 6 f.KXKXKXKXKXKX:X",
"#XJXKXKXKXKXKXKXKXKXKXKXKXKXKXKXKXKXKXKXKXKXJXKXKXKXKXKXKXKXKXKXKXKXKXKXKXKXKXKXKXKXKXKXKXKXKXKXKXKXKXKXKXKXKXKXKXKXKXKXKXKXKXKXKXKXKXJX$X",
"DX@X:X>X>X>X>X>X>X>X>X>X>X>X>X>X>X>X>X>X>X>X>X>X>X>X>X>X>X>X>X>X>X>X>X>X>X>X>X>X>X>X>X>X>X>X>X>X>X>X>X>X>X>X>X>X>X>X>X>X>X>X>X>X>X>X:X@XDX"
};
