/* XPM */
static const char *ten_hearts[] = {
/* columns rows colors chars-per-pixel */
"69 100 251 2 ",
"   c #DF0000",
".  c #DF0101",
"X  c #DF0202",
"o  c #DF0303",
"O  c #DF0404",
"+  c #E00404",
"@  c #E00505",
"#  c #E00606",
"$  c #E00707",
"%  c #E00808",
"&  c #E00909",
"*  c #E00A0A",
"=  c #E00B0B",
"-  c #E10C0C",
";  c #E10D0D",
":  c #E10E0E",
">  c #E10F0F",
",  c #E11010",
"<  c #E11111",
"1  c #E11212",
"2  c #E11313",
"3  c #E21414",
"4  c #E21515",
"5  c #E21616",
"6  c #E21717",
"7  c #E21818",
"8  c #E21919",
"9  c #E21A1A",
"0  c #E21B1B",
"q  c #E31C1C",
"w  c #E31D1D",
"e  c #E31E1E",
"r  c #E31F1F",
"t  c #E32020",
"y  c #E32121",
"u  c #E32222",
"i  c #E32323",
"p  c #E42424",
"a  c #E42626",
"s  c #E42727",
"d  c #E42828",
"f  c #E42A2A",
"g  c #E42B2B",
"h  c #E52C2C",
"j  c #E52D2D",
"k  c #E52E2E",
"l  c #E52F2F",
"z  c #E53030",
"x  c #E53131",
"c  c #E53232",
"v  c #E53333",
"b  c #E63434",
"n  c #E63535",
"m  c #E63636",
"M  c #E63737",
"N  c #E63838",
"B  c #E63939",
"V  c #E63A3A",
"C  c #E63B3B",
"Z  c #E73C3C",
"A  c #E73D3D",
"S  c #E73E3E",
"D  c #E73F3F",
"F  c #E74040",
"G  c #E74141",
"H  c #E74242",
"J  c #E74343",
"K  c #E84545",
"L  c #E84646",
"P  c #E84747",
"I  c #E84848",
"U  c #E84949",
"Y  c #E84A4A",
"T  c #E84B4B",
"R  c #E94C4C",
"E  c #E94D4D",
"W  c #E94E4E",
"Q  c #E94F4F",
"!  c #E95050",
"~  c #E95151",
"^  c #E95252",
"/  c #E95353",
"(  c #EA5454",
")  c #EA5555",
"_  c #EA5656",
"`  c #EA5858",
"'  c #EA5959",
"]  c #EA5A5A",
"[  c #EA5B5B",
"{  c #EB5D5D",
"}  c #EB5E5E",
"|  c #EB5F5F",
" . c #EB6060",
".. c #EB6161",
"X. c #EB6262",
"o. c #EB6363",
"O. c #EC6464",
"+. c #EC6565",
"@. c #EC6666",
"#. c #EC6767",
"$. c #EC6868",
"%. c #EC6A6A",
"&. c #EC6B6B",
"*. c #ED6C6C",
"=. c #ED6D6D",
"-. c #ED6E6E",
";. c #ED6F6F",
":. c #ED7070",
">. c #ED7171",
",. c #ED7272",
"<. c #ED7373",
"1. c #EE7474",
"2. c #EE7575",
"3. c #EE7676",
"4. c #EE7878",
"5. c #EE7979",
"6. c #EE7A7A",
"7. c #EE7B7B",
"8. c #EF7D7D",
"9. c #EF7E7E",
"0. c #EF7F7F",
"q. c #EF8181",
"w. c #EF8282",
"e. c #EF8383",
"r. c #F08484",
"t. c #F08585",
"y. c #F08686",
"u. c #F08787",
"i. c #F08888",
"p. c #F08989",
"a. c #F08A8A",
"s. c #F08B8B",
"d. c #F18C8C",
"f. c #F18D8D",
"g. c #F18F8F",
"h. c #F19090",
"j. c #F19191",
"k. c #F19292",
"l. c #F19393",
"z. c #F29494",
"x. c #F29595",
"c. c #F29696",
"v. c #F29797",
"b. c #F29898",
"n. c #F29999",
"m. c #F29A9A",
"M. c #F29B9B",
"N. c #F39C9C",
"B. c #F39D9D",
"V. c #F39E9E",
"C. c #F39F9F",
"Z. c #F3A0A0",
"A. c #F3A1A1",
"S. c #F3A2A2",
"D. c #F3A3A3",
"F. c #F4A4A4",
"G. c #F4A5A5",
"H. c #F4A6A6",
"J. c #F4A7A7",
"K. c #F4A8A8",
"L. c #F4A9A9",
"P. c #F4AAAA",
"I. c #F4ABAB",
"U. c #F5ACAC",
"Y. c #F5ADAD",
"T. c #F5AEAE",
"R. c #F5B0B0",
"E. c #F5B1B1",
"W. c #F5B2B2",
"Q. c #F5B3B3",
"!. c #F6B4B4",
"~. c #F6B5B5",
"^. c #F6B6B6",
"/. c #F6B7B7",
"(. c #F6B8B8",
"). c #F6B9B9",
"_. c #F6BABA",
"`. c #F6BBBB",
"'. c #F7BCBC",
"]. c #F7BDBD",
"[. c #F7BEBE",
"{. c #F7BFBF",
"}. c gray76",
"|. c #C3C3C3",
" X c gray77",
".X c #CBCBCB",
"XX c gray80",
"oX c #F7C0C0",
"OX c #F7C1C1",
"+X c #F7C2C2",
"@X c #F7C3C3",
"#X c #F8C4C4",
"$X c #F8C5C5",
"%X c #F8C6C6",
"&X c #F8C7C7",
"*X c #F8C8C8",
"=X c #F8C9C9",
"-X c #F8CACA",
";X c #F8CBCB",
":X c #F9CCCC",
">X c #F9CDCD",
",X c #F9CFCF",
"<X c #F9D0D0",
"1X c #F9D2D2",
"2X c #F9D3D3",
"3X c #FAD4D4",
"4X c #FAD5D5",
"5X c #FAD6D6",
"6X c #FAD7D7",
"7X c #FAD8D8",
"8X c #FAD9D9",
"9X c #FADADA",
"0X c #FADBDB",
"qX c #FBDCDC",
"wX c #FBDDDD",
"eX c #FBDEDE",
"rX c #FBDFDF",
"tX c #FBE0E0",
"yX c #FBE1E1",
"uX c #FBE2E2",
"iX c #FBE3E3",
"pX c #FCE4E4",
"aX c #FCE5E5",
"sX c #FCE6E6",
"dX c #FCE7E7",
"fX c #FCE8E8",
"gX c #FCE9E9",
"hX c #FCEAEA",
"jX c #FCEBEB",
"kX c #FDECEC",
"lX c #FDEDED",
"zX c #FDEEEE",
"xX c #FDEFEF",
"cX c #FDF0F0",
"vX c #FDF1F1",
"bX c #FDF2F2",
"nX c #FDF3F3",
"mX c #FEF4F4",
"MX c #FEF5F5",
"NX c #FEF6F6",
"BX c #FEF7F7",
"VX c gray98",
"CX c #FEF8F8",
"ZX c #FEF9F9",
"AX c #FEFAFA",
"SX c #FEFBFB",
"DX c #FFFCFC",
"FX c #FFFDFD",
"GX c #FEFEFE",
"HX c #FFFEFE",
"JX c white",
/* pixels */
"VX}..XXXXXXXXXXXXXXXXXXXXXXXXXXXXXXXXXXXXXXXXXXXXXXXXXXXXXXXXXXXXXXXXXXXXXXXXXXXXXXXXXXXXXXXXXXXXXXXXXXXXXXXXXXXXXXXXXXXXXXXXXXXXXXX.X}.VX",
"|.GXJXJXJXJXJXJXJXJXJXJXJXJXJXJXJXJXJXJXJXJXJXJXJXJXJXJXJXJXJXJXJXJXJXJXJXJXJXJXJXJXJXJXJXJXJXJXJXJXJXJXJXJXJXJXJXJXJXJXJXJXJXJXJXJXJXGX X",
".XJXJXJXJXJXJXJXJXJXJXJXJXJXJXJXCX-XoXiXJXJXJXJXJXsXOX*XNXJXJXJXJXJXJXJXJXJXJXJXJXJXHXJXJXJXJXJXJXJXHXJXJXJXJXJXJXJXJXJXJXJXJXJXJXJXJXJX.X",
".XJXC.: e.JX,XM = e n.JXJXJXSXq.:     . ~ zXJXbX' X     = 4.ZXJXJXJXJXJXJXJXDXk.k X % Z oXJXJXbX*.5   2 } qXJXJXJXJXJXJXJXJXJXJXJXJXJXJX.X",
".X*.( D e.ZXw a.AX>X1 $XJXJXX.            L JX/             ( JXJXJXJXJXJXSXW           O '.ZXM           : -XJXJXJXJXJXJXJXJXJXJXJXJXJX.X",
".X-XJXQ e.`.9 HXJXJX-.$.JX*X                v..               _.JXJXJXJXJXb.              l Z.              s FXJXJXJXJXJXJXJXJXJXJXJXJX.X",
".XJXJXQ e.k.J JXJXJXc.D JX7.                -                 =.JXJXJXJXJXC                 q                 *XJXJXJXJXJXJXJXJXJXJXJXJX.X",
".XJXJXQ e.y.R JXJXJXZ.v JXO.                                  ) JXJXJXJXJX7                                   F.JXJXJXJXJXJXJXJXJXJXJXJX.X",
".XJXJXQ e.k.A JXJXJXg.D JXe.                                  2.JXJXJXJXJXd                                   ~.JXJXJXJXJXJXJXJXJXJXJXJX.X",
".XJXJXQ e.].3 DXJXJX..&.JXtX%                               O 6XJXJXJXJXJX7.                                4 mXJXJXJXJXJXJXJXJXJXJXJXJX.X",
".XJXJXQ e.AXy u.AX$X: -XJXJX4.                              *.JXJXJXJXJXJXcX3                               z.JXJXJXJXJXJXJXJXJXJXJXJXJX.X",
".X$ $ X + $ L B * t S.JXJXJXAXC                           k MXJXJXJXJXJXJXJXQ..                           J DXJXJXJXJXJXJXJXJXJXJXJXJXJX.X",
".XJXJXJXJXJXJXJXJXJXJXJXJXJXJXuX9                       5 eXJXJXJXJXJXJXJXJXJX6.                        y kXJXJXJXJXJXJXJXJXJXJXJXJXJXJX.X",
".XJXnXu.' 6.mXJXM.` ,.qXJXJXJXJX1X>                   & %XJXJXJXJXJXJXJXJXJXJXHX{                     2 7XJXJXJXJXJXJXJXJXJXJXJXJXJXJXJX.X",
".XAXm       E z.      ; 0XJXJXJXJX(.@               O W.JXJXJXJXJXJXJXJXJXJXJXJXCXS                 & @XJXJXJXJXJXJXJXJXJXJXJXJXJXJXJXJX.X",
".XOX          3         6.JXJXJXJXJXN.              n.JXJXJXJXJXJXJXJXJXJXJXJXJXJXcXj             X U.JXJXJXJXJXJXJXJXJXJXJXJXJXJXJXJXJX.X",
".XR.                    $.JXJXJXJXJXJX-.          &.JX9X<.D A *.9XJXJXJX).` N Y s.cXwX<           u.JXJXJXJXJXJXJXJXJXJXJXJXJXJXJXJXJXJX.X",
".XcX2                   '.JXJXJXJXJXJXAXV       m ZXS.$         - #XJXu.          w 3X_.o       E HXJXJXJXJXJXJXJXJXJXJXJXJXJXJXJXJXJXJX.X",
".XJXP..               +.JXJXJXJXJXJXJXJX9X$   O <X4XO             d 9Xo             s AX$.    1 hXJXJXJXJXJXJXJXJXJXJXJXJXJXJXJXJXJXJXJX.X",
".XJXJX9.            A ZXJXJXJXJXJXJXJXJXJX7.  ,.JX=.                M                 !.cX8   M.JXJXJXJXJXJXJXJXJXJXJXJXJXJXJXJXJXJXJXJX.X",
".XJXJXHX/         i kXJXJXJXJXJXJXJXJXJXJXkX& uXJXS                                   t.JXp.e FXJXJXJXJXJXJXJXJXJXJXJXJXJXJXJXJXJXJXJXJX.X",
".XJXJXJXNXb     ; 2XJXJXJXJXJXJXJXJXJXJXJXJXM.JXJXG                                   i.JXfXw.JXJXJXJXJXJXJXJXJXJXJXJXJXJXJXJXJXJXJXJXJX.X",
".XJXJXJXJXtX;   T.JXJXJXJXJXJXJXJXJXJXJXJXJXJXJXJXt.                                  :XJXJXCXJXJXJXJXJXJXJXJXJXJXJXJXJXJXJXJXJXJXJXJXJX.X",
".XJXJXJXJXJXa.I JXJXJXJXJXJXJXJXJXJXJXJXJXJXJXJXJXbX6                               ^ JXJXJXJXJXJXJXJXJXJXJXJXJXJXJXJXJXJXJXJXJXJXJXJXJX.X",
".XJXJXJXJXJXxX`.JXJXJXJXJXJXJXJXJXJXJXJXJXJXJXJXJXJXJ.                            2 tXJXJXJXJXJXJXJXJXJXJXJXJXJXJXJXJXJXJXJXJXJXJXJXJXJX.X",
".XJXJXJXJXJXJXJXJXJXJXJXJXJXJXJXJXJXJXJXJXJXJXJXJXJXJX-.                        o (.JXJXJXJXJXJXJXJXJXJXJXJXJXJXJXJXJXJXJXJXJXJXJXJXJXJX.X",
".XJXJXJXJXJXJXJXJXJXJXJXJXJXJXJXJXJXJXJXJXJXJXJXJXJXJXDXQ                       k.JXJXJXJXJXJXJXJXJXJXJXJXJXJXJXJXJXJXJXJXJXJXJXJXJXJXJX.X",
".XJXJXJXJXJXJXJXJXJXJXJXJXJXJXJXJXJXJXJXJXJXJXJXJXJXJXJXnXv                   3.JXJXJXJXJXJXJXJXJXJXJXJXJXJXJXJXJXJXJXJXJXJXJXJXJXJXJXJX.X",
".XJXJXJXJXJXJXJXJXJXJXJXJXJXJXJXJXJXJXJXJXJXJXJXJXJXJXJXJXsXt               ` FXJXJXJXJXJXJXJXJXJXJXJXJXJXJXJXJXJXJXJXJXJXJXJXJXJXJXJXJX.X",
".XJXJXJXJXJXJXJXJXJXJXJXJXJXJXJXsXY.Z.&XHXJXJXJXJX-XA.I.uXJX4X;           C ZXJXFXiXdXJXJXJXJXJXJXNXwXnXJXJXJXJXJXJXJXJXJXJXJXJXJXJXJXJX.X",
".XJXJXJXJXJXJXJXJXJXJXJXJXJXmXo.o       b uXJXdXZ       X ] cXR..       6 pXMX2.1     r G.JXJXpXW X   o F &XJXJXJXJXJXJXJXJXJXJXJXJXJXJX.X",
".XJXJXJXJXJXJXJXJXJXJXJXJXJXT             b HXG             S FX#.      /.NXN             L.mXa           @ /.JXJXJXJXJXJXJXJXJXJXJXJXJX.X",
".XJXJXJXJXJXJXJXJXJXJXJXJX`.                0.                Y.cX8   ) JXp.              p h.              q AXJXJXJXJXJXJXJXJXJXJXJXJX.X",
".XJXJXJXJXJXJXJXJXJXJXJXJX3.                #                 #.JXl.X eXJXb                 2                 OXJXJXJXJXJXJXJXJXJXJXJXJX.X",
".XJXJXJXJXJXJXJXJXJXJXJXJXO.                                  ) JXcXW JXJX6                                   D.JXJXJXJXJXJXJXJXJXJXJXJX.X",
".XJXJXJXJXJXJXJXJXJXJXJXJXs.                                  8.JXJXfXJXJXk                                   `.JXJXJXJXJXJXJXJXJXJXJXJX.X",
".XJXJXJXJXJXJXJXJXJXJXJXJXjX>                               & yXJXJXJXJXJXa.                                r CXJXJXJXJXJXJXJXJXJXJXJXJX.X",
".XJXJXJXJXJXJXJXJXJXJXJXJXJXs.                              0.JXJXJXJXJXJXNXr                               H.JXJXJXJXJXJXJXJXJXJXJXJXJX.X",
".XJXJXJXJXJXJXJXJXJXJXJXJXJXFXY                           G SXJXJXJXJXJXJXJX&X#                           ' JXJXJXJXJXJXJXJXJXJXJXJXJXJX.X",
".XJXJXJXJXJXJXJXJXJXJXJXJXJXJXlXd                       i hXJXJXJXJXJXJXJXJXJXl.                        c MXJXJXJXJXJXJXJXJXJXJXJXJXJXJX.X",
".XJXJXJXJXJXJXJXJXJXJXJXJXJXJXJXeX6                   3 9XJXJXJXJXJXJXJXJXJXJXJX:.                    q iXJXJXJXJXJXJXJXJXJXJXJXJXJXJXJX.X",
".XJXJXJXJXJXJXJXJXJXJXJXJXJXJXJXJX:X-               & $XJXJXJXJXJXJXJXJXJXJXJXJXFX(                 < 4XJXJXJXJXJXJXJXJXJXJXJXJXJXJXJXJX.X",
".XJXJXJXJXJXJXJXJXJXJXJXJXJXJXJXJXJX!.o           X R.JXJXJXJXJXJXJXJXJXJXJXJXJXJXBXC             % +XJXJXJXJXJXJXJXJXJXJXJXJXJXJXJXJXJX.X",
".XJXJXJXJXJXJXJXJXJXJXJXJXJXJXJXJXJXJXt.          w.JXJXJXJXJXJXJXJXJXJXJXJXJXJXJXJXgXq           B.JXJXJXJXJXJXJXJXJXJXJXJXJXJXJXJXJXJX.X",
".XJXJXJXJXJXJXJXJXJXJXJXJXJXJXJXJXJXJXHXR       P FXJXJXJXJXJXJXJXJXJXJXJXJXJXJXJXJXJX&X#       +.JXJXJXJXJXJXJXJXJXJXJXJXJXJXJXJXJXJXJX.X",
".XJXJXJXJXJXJXJXJXJXJXJXJXJXJXJXJXJXJXJXsX>   & eXJXJXJXJXJXJXJXJXJXJXJXJXJXJXJXJXJXJXJX7.    w nXJXJXJXJXJXJXJXJXJXJXJXJXJXJXJXJXJXJXJX.X",
".XJXJXJXJXJXJXJXJXJXJXJXJXJXJXJXJXJXJXJXJXs.  w.JXJXJXJXJXJXJXJXJXJXJXJXJXJXJXJXJXJXJXJXNXu   Y.JXJXJXJXJXJXJXJXJXJXJXJXJXJXJXJXJXJXJXJX.X",
".XJXJXJXJXJXJXJXJXJXJXJXJXJXJXJXJXJXJXJXJXbX1 hXJXJXJXJXJXJXJXJXJXJXJXJXJXJXJXJXJXJXJXJXJXz.a HXJXJXJXJXJXJXJXJXJXJXJXJXJXJXJXJXJXJXJXJX.X",
".XJXJXJXJXJXJXJXJXJXJXJXJXJXJXJXJXJXJXJXJXJXE.JXJXJXJXJXJXJXJXJXJXJXJXJXJXJXJXJXJXJXJXJXJXcXk.JXJXJXJXJXJXJXJXJXJXJXJXJXJXJXJXJXJXJXJXJX.X",
".XJXJXJXJXJXJXJXJXJXJXJXJXJXJXJXJXJXJXJXJXJXJXJXJXJXJXJXJXJXJXJXJXJXJXJXJXJXJXJXJXJXJXJXJXJXFXJXJXJXJXJXJXJXJXJXJXJXJXJXJXJXJXJXJXJXJXJX.X",
".XJXJXJXJXJXJXJXJXJXJXJXJXJXJXJXJXJXJXJXJXJX*XJXJXJXJXJXJXJXJXJXJXJXJXJXJXJXJXJXJXJXJXJXJXJXsXJXJXJXJXJXJXJXJXJXJXJXJXJXJXJXJXJXJXJXJXJX.X",
".XJXJXJXJXJXJXJXJXJXJXJXJXJXJXJXJXJXJXJXJXZXe xXJXJXJXJXJXJXJXJXJXJXJXJXJXJXJXJXJXJXJXJXJX7Xo.JXJXJXJXJXJXJXJXJXJXJXJXJXJXJXJXJXJXJXJXJX.X",
".XJXJXJXJXJXJXJXJXJXJXJXJXJXJXJXJXJXJXJXJXD.  h.JXJXJXJXJXJXJXJXJXJXJXJXJXJXJXJXJXJXJXJXJX<.- cXJXJXJXJXJXJXJXJXJXJXJXJXJXJXJXJXJXJXJXJX.X",
".XJXJXJXJXJXJXJXJXJXJXJXJXJXJXJXJXJXJXJXbX0   : sXJXJXJXJXJXJXJXJXJXJXJXJXJXJXJXJXJXJXJXqX%   -.JXJXJXJXJXJXJXJXJXJXJXJXJXJXJXJXJXJXJXJX.X",
".XJXJXJXJXJXJXJXJXJXJXJXJXJXJXJXJXJXJXJX*.      _ JXJXJXJXJXJXJXJXJXJXJXJXJXJXJXJXJXJXHXU     o ;XJXJXJXJXJXJXJXJXJXJXJXJXJXJXJXJXJXJXJX.X",
".XJXJXJXJXJXJXJXJXJXJXJXJXJXJXJXJXJXJXK.          l.JXJXJXJXJXJXJXJXJXJXJXJXJXJXJXJXJXs.        t kXJXJXJXJXJXJXJXJXJXJXJXJXJXJXJXJXJXJX.X",
".XJXJXJXJXJXJXJXJXJXJXJXJXJXJXJXJXJX<X-           @ OXJXJXJXJXJXJXJXJXJXJXJXJXJXJXJX[.O           R FXJXJXJXJXJXJXJXJXJXJXJXJXJXJXJXJXJX.X",
".XJXJXJXJXJXJXJXJXJXJXJXJXJXJXJXJXaXw               > 1XJXJXJXJXJXJXJXJXJXJXJXJXJX5X<               $.JXJXJXJXJXJXJXJXJXJXJXJXJXJXJXJXJX.X",
".XJXJXJXJXJXJXJXJXJXJXJXJXJXJXJXxXj                   t dXJXJXJXJXJXJXJXJXJXJXJXsXt                   f.JXJXJXJXJXJXJXJXJXJXJXJXJXJXJXJX.X",
".XJXJXJXJXJXJXJXJXJXJXJXJXJXJXCXF                       v nXJXJXJXJXJXJXJXJXJXbXx                     . F.JXJXJXJXJXJXJXJXJXJXJXJXJXJXJX.X",
".XJXJXJXJXJXJXJXJXJXJXJXJXJXJX@.                          ! HXJXJXJXJXJXJXJXFXT                         % :XJXJXJXJXJXJXJXJXJXJXJXJXJXJX.X",
".XJXJXJXJXJXJXJXJXJXJXJXJXJXG.                              z.JXJXJXJXJXJXJXr.                            t zXJXJXJXJXJXJXJXJXJXJXJXJXJX.X",
".XJXJXJXJXJXJXJXJXJXJXJXJXnX8                               , kXJXJXJXJXJXwX$                               ;.JXJXJXJXJXJXJXJXJXJXJXJXJX.X",
".XJXJXJXJXJXJXJXJXJXJXJXJXx.                                  i.JXJXJXJXJX|                                 # dXJXJXJXJXJXJXJXJXJXJXJXJX.X",
".XJXJXJXJXJXJXJXJXJXJXJXJX+.                                  _ JXHXwXJXJXw                                   P.JXJXJXJXJXJXJXJXJXJXJXJX.X",
".XJXJXJXJXJXJXJXJXJXJXJXJX>.                X                 X.JX{.#.JXJXq                                   P.JXJXJXJXJXJXJXJXJXJXJXJX.X",
".XJXJXJXJXJXJXJXJXJXJXJXJXT.                O.                Z.JX] : cXJXR               . B                 8XJXJXJXJXJXJXJXJXJXJXJXJX.X",
".XJXJXJXJXJXJXJXJXJXJXJXJXDXn             i ZXk             f ZX-XX   =.JX_.              R ].              I JXJXJXJXJXJXJXJXJXJXJXJXJX.X",
".XJXJXJXJXJXJXJXJXJXJXJXJXJXdXD         0 <XJX6Xy         N yXZXz     o =XJXa.o         0 eXJX&.          z gXJXJXJXJXJXJXJXJXJXJXJXJXJX.X",
".XJXJXJXJXJXJXJXJXJXJXJXJXJXJXJX$Xi.8.S.mXJXJXJXNXH.9.y.oXHXJX&.        e jXJX<X-.D K 7.gXJXJXJXU.) C / V.ZXJXJXJXJXJXJXJXJXJXJXJXJXJXJX.X",
".XJXJXJXJXJXJXJXJXJXJXJXJXJXJXJXJXJXJXJXJXJXJXJXJXJXJXJXJXJXZ.            P SXJXJXJXJXJXJXJXJXJXJXJXJXJXJXJXJXJXJXJXJXJXJXJXJXJXJXJXJXJX.X",
".XJXJXJXJXJXJXJXJXJXJXJXJXJXJXJXJXJXJXJXJXJXJXJXJXJXJXJXJXoX$               O.JXJXJXJXJXJXJXJXJXJXJXJXJXJXJXJXJXJXJXJXJXJXJXJXJXJXJXJXJX.X",
".XJXJXJXJXJXJXJXJXJXJXJXJXJXJXJXJXJXJXJXJXJXJXJXJXJXJXJX2X,                   y.JXJXJXJXJXJXJXJXJXJXJXJXJXJXJXJXJXJXJXJXJXJXJXJXJXJXJXJX.X",
".XJXJXJXJXJXJXJXJXJXJXJXJXJXJXJXJXJXJXJXJXJXJXJXJXJXJXpXe                     . A.JXJXJXJXJXJXJXJXJXJXJXJXJXJXJXJXJXJXJXJXJXJXJXJXJXJXJX.X",
".XJXJXJXJXJXJXJXJXJXJXJXJXJXJXJXJXJXJXJXJXJXJXJXJXJXBXx                         $ =XJXJXJXJXJXJXJXJXJXJXJXJXJXJXJXJXJXJXJXmXSXJXJXJXJXJX.X",
".XJXJXJXJXJXJXJXJXJXJXJXJXJXJXJXJXJXJXJXJXJXJXJXJXJXO.                            e lXJXJXJXJXJXJXJXJXJXJXJXJXJXJXJXJXJXJXB.E.JXJXJXJXJX.X",
".XJXJXJXJXJXJXJXJXJXJXJXJXJXJXJXJXJXJXJXJXJXJXJXJX&X.                               :.JXJXJXJXJXJXJXJXJXJXJXJXJXJXJXJXJXCXa j SXJXJXJXJX.X",
".XJXJXJXJXJXJXJXJXJXJXJXJXJXJXJXJXJXJXJXJXJXJXJXJXI                                 # jXJXJXJXJXJXJXJXJXJXJXJXJXJXJXJXJX%.    8.JXJXJXJX.X",
".XJXJXJXJXJXJXJXJXJXJXJXJXJXJXJXJXJXJXJXJXJXH.JXJX;                                   ~.JXHX,XJXJXJXJXJXJXJXJXJXJXJXJXN.      . H.JXJXJX.X",
".XJXJXJXJXJXJXJXJXJXJXJXJXJXJXJXJXJXJXJXJXcX- uXJX,                                   _.JX@XQ JXJXJXJXJXJXJXJXJXJXJX].@         & ;XJXJX.X",
".XJXJXJXJXJXJXJXJXJXJXJXJXJXJXJXJXJXJXJXJXu.  <.JXK               % G               o jXJX[ O rXJXJXJXJXJXJXJXJXJXeX3             8 iXJX.X",
".XJXJXJXJXJXJXJXJXJXJXJXJXJXJXJXJXJXJXJXuX-   O <X_..             +.`.              +.JX#X.   U JXJXJXJXJXJXJXJXZXf                 V HX.X",
".XJXJXJXJXJXJXJXJXJXJXJXJXJXJXJXJXJXJXFXI       m ZXx.@         x zXJX1.          E NXBXj       I.JXJXJXJXJXJXJXA.                    /..X",
".XJXJXJXJXJXJXJXJXJXJXJXJXJXJXJXJXJXJX0.          %.JXeXw.` | m.NXJXJXJX].&.) ;.`.JXJXo.        ; 5XJXJXJXJXJXJX9.                    l..X",
".XJXJXJXJXJXJXJXJXJXJXJXJXJXJXJXJXJXY.X             m.JXJXJXJXJXJXJXJXJXJXJXJXJXJXJXv.            h vXJXJXJXJXJX^.        m y       . :X.X",
".XJXJXJXJXJXJXJXJXJXJXJXJXJXJXJXJX-X=               o E.JXJXJXJXJXJXJXJXJXJXJXJXJX^.O               G ZXJXJXJXJXJX4.O   3 >X[.-   % a.JX.X",
".XJXJXJXJXJXJXJXJXJXJXJXJXJXJXJXqX5                   * *XJXJXJXJXJXJXJXJXJXJXJX:X-                    .HXJXJXJXJXJXlX,XmXJXJXvX,XcXJXJX.X",
".XJXJXJXJXJXJXJXJXJXJXJXJXJXJXgXu                       8 yXJXJXJXJXJXJXJXJXJXwX6                       0.JXJXJXJXJXD.y = V P $ + X $ $ .X",
".XJXJXJXJXJXJXJXJXJXJXJXJXJXDXK                           z NXJXJXJXJXJXJXJXmXg                           P.JXJXJX;X> $XAXr.p SXe.Q JXJX.X",
".XJXJXJXJXJXJXJXJXJXJXJXJXJXw.                              ,.JXJXJXJXJXJXJX}                             ; qXJXJX&.o.JXJXSX2 {.e.Q JXJX.X",
".XJXJXJXJXJXJXJXJXJXJXJXJXaX=                               # 0XJXJXJXJXJX%X.                               ^ JXJXS j.JXJXJXC l.e.Q JXJX.X",
".XJXJXJXJXJXJXJXJXJXJXJXJXu.                                  5.JXJXJXJXJXR                                   7XJXc Z.JXJXJXR u.e.Q JXJX.X",
".XJXJXJXJXJXJXJXJXJXJXJXJXO.                                  ( JXJXJXJXJX7                                   G.JXA b.JXJXJXH l.e.Q JXJX.X",
".XJXJXJXJXJXJXJXJXJXJXJXJX5.                &                 %.JXJXJXJXJXu                 .                 T.JX@.-.JXJXHX9 '.e.Q JX-X.X",
".XJXJXJXJXJXJXJXJXJXJXJXJX@X                f.                !.JXJXJXJXJX{               % _               o dXJXoX1 >XSXd.e ZXe.D ( =..X",
".XJXJXJXJXJXJXJXJXJXJXJXJXJX`             S JXR             T HXJXJXJXJXJX3X%             #.3XO             %.JXJXJXx.q * M ,XJXe.: V.JX.X",
".XJXJXJXJXJXJXJXJXJXJXJXJXJXCX1.&       K hXJXzXE       # *.MXJXJXJXJXJXJXJX/.3         A bXJXM.O       . | ZXJXJXJXJXJXJXJXJXJXJXJXJXJX.X",
".XJXJXJXJXJXJXJXJXJXJXJXJXJXJXJXvX].R.6XJXJXJXJXJX0XE.`.xXJXJXJXJXJXJXJXJXJXJXnXD.1.6.R.DXJXJXJXqXa.>.i.1XJXJXJXJXJXJXJXJXJXJXJXJXJXJXJX.X",
"|.GXJXJXJXJXJXJXJXJXJXJXJXJXJXJXJXJXJXJXJXJXJXJXJXJXJXJXJXJXJXJXJXJXJXJXJXJXJXJXJXJXJXJXJXJXJXJXJXJXJXJXJXJXJXJXJXJXJXJXJXJXJXJXJXJXJXGX X",
"VX}..XXXXXXXXXXXXXXXXXXXXXXXXXXXXXXXXXXXXXXXXXXXXXXXXXXXXXXXXXXXXXXXXXXXXXXXXXXXXXXXXXXXXXXXXXXXXXXXXXXXXXXXXXXXXXXXXXXXXXXXXXXXXXXX.X}.VX"
};
