/* XPM */
static const char *three_hearts[] = {
/* columns rows colors chars-per-pixel */
"69 100 202 2 ",
"   c #DF0000",
".  c #DF0101",
"X  c #DF0202",
"o  c #DF0303",
"O  c #DF0404",
"+  c #E00505",
"@  c #E00606",
"#  c #E00707",
"$  c #E00808",
"%  c #E00909",
"&  c #E00A0A",
"*  c #E00B0B",
"=  c #E10C0C",
"-  c #E10D0D",
";  c #E10E0E",
":  c #E10F0F",
">  c #E11010",
",  c #E11111",
"<  c #E11212",
"1  c #E11313",
"2  c #E21414",
"3  c #E21515",
"4  c #E21616",
"5  c #E21919",
"6  c #E21A1A",
"7  c #E21B1B",
"8  c #E31C1C",
"9  c #E31D1D",
"0  c #E31E1E",
"q  c #E31F1F",
"w  c #E32121",
"e  c #E32222",
"r  c #E32323",
"t  c #E42424",
"y  c #E42525",
"u  c #E42626",
"i  c #E42727",
"p  c #E42828",
"a  c #E42A2A",
"s  c #E52C2C",
"d  c #E52D2D",
"f  c #E52F2F",
"g  c #E53030",
"h  c #E53131",
"j  c #E53232",
"k  c #E53333",
"l  c #E63434",
"z  c #E63636",
"x  c #E63838",
"c  c #E63939",
"v  c #E63A3A",
"b  c #E73C3C",
"n  c #E73D3D",
"m  c #E73E3E",
"M  c #E73F3F",
"N  c #E74040",
"B  c #E74343",
"V  c #E84444",
"C  c #E84545",
"Z  c #E84646",
"A  c #E84848",
"S  c #E84949",
"D  c #E84A4A",
"F  c #E84B4B",
"G  c #E94C4C",
"H  c #E94D4D",
"J  c #E94E4E",
"K  c #E94F4F",
"L  c #E95151",
"P  c #E95353",
"I  c #EA5454",
"U  c #EA5757",
"Y  c #EA5858",
"T  c #EA5959",
"R  c #EB5C5C",
"E  c #EB6161",
"W  c #EB6363",
"Q  c #EC6464",
"!  c #EC6565",
"~  c #EC6666",
"^  c #EC6868",
"/  c #EC6969",
"(  c #EC6A6A",
")  c #ED6D6D",
"_  c #ED6F6F",
"`  c #ED7171",
"'  c #ED7272",
"]  c #EE7676",
"[  c #EE7878",
"{  c #EE7A7A",
"}  c #EE7B7B",
"|  c #EF7D7D",
" . c #EF7E7E",
".. c #EF7F7F",
"X. c #EF8181",
"o. c #EF8282",
"O. c #EF8383",
"+. c #F08585",
"@. c #F08787",
"#. c #F08888",
"$. c #F08A8A",
"%. c #F08B8B",
"&. c #F18F8F",
"*. c #F19090",
"=. c #F19191",
"-. c #F19393",
";. c #F29494",
":. c #F29595",
">. c #F29696",
",. c #F29898",
"<. c #F29A9A",
"1. c #F29B9B",
"2. c #F39C9C",
"3. c #F39D9D",
"4. c #F39E9E",
"5. c #F39F9F",
"6. c #F3A0A0",
"7. c #F3A1A1",
"8. c #F3A2A2",
"9. c #F4A5A5",
"0. c #F4A6A6",
"q. c #F4A7A7",
"w. c #F4A8A8",
"e. c #F4AAAA",
"r. c #F4ABAB",
"t. c #F5ACAC",
"y. c #F5ADAD",
"u. c #F5AEAE",
"i. c #F5AFAF",
"p. c #F5B0B0",
"a. c #F5B1B1",
"s. c #F5B2B2",
"d. c #F5B3B3",
"f. c #F6B4B4",
"g. c #F6B6B6",
"h. c #F6B7B7",
"j. c #F6B9B9",
"k. c #F6BABA",
"l. c #F6BBBB",
"z. c #F7BCBC",
"x. c #F7BDBD",
"c. c #F7BEBE",
"v. c gray76",
"b. c #C3C3C3",
"n. c gray77",
"m. c #CBCBCB",
"M. c gray80",
"N. c #F7C1C1",
"B. c #F7C2C2",
"V. c #F8C4C4",
"C. c #F8C5C5",
"Z. c #F8C8C8",
"A. c #F8C9C9",
"S. c #F8CACA",
"D. c #F8CBCB",
"F. c #F9CCCC",
"G. c #F9CDCD",
"H. c #F9CFCF",
"J. c #F9D0D0",
"K. c #F9D1D1",
"L. c #F9D2D2",
"P. c #F9D3D3",
"I. c #FAD4D4",
"U. c #FAD5D5",
"Y. c #FAD6D6",
"T. c #FAD8D8",
"R. c #FADADA",
"E. c #FADBDB",
"W. c #FBDCDC",
"Q. c #FBDDDD",
"!. c #FBDEDE",
"~. c #FBDFDF",
"^. c #FBE0E0",
"/. c #FBE1E1",
"(. c #FBE3E3",
"). c #FCE4E4",
"_. c #FCE5E5",
"`. c #FCE6E6",
"'. c #FCE8E8",
"]. c #FCE9E9",
"[. c #FCEAEA",
"{. c #FDECEC",
"}. c #FDEDED",
"|. c #FDEEEE",
" X c #FDEFEF",
".X c #FDF0F0",
"XX c #FDF1F1",
"oX c #FDF2F2",
"OX c #FDF3F3",
"+X c #FEF4F4",
"@X c #FEF5F5",
"#X c #FEF6F6",
"$X c gray98",
"%X c #FEF8F8",
"&X c #FEF9F9",
"*X c #FEFAFA",
"=X c #FEFBFB",
"-X c #FFFCFC",
";X c #FFFDFD",
":X c #FEFEFE",
">X c #FFFEFE",
",X c white",
/* pixels */
"$Xv.m.M.M.M.M.M.M.M.M.M.M.M.M.M.M.M.M.M.M.M.M.M.M.M.M.M.M.M.M.M.M.M.M.M.M.M.M.M.M.M.M.M.M.M.M.M.M.M.M.M.M.M.M.M.M.M.M.M.M.M.M.M.M.M.m.v.$X",
"b.:X,X,X,X,X,X,X,X,X,X,X,X,X,X,X,X,X,X,X,X,X,X,X,X,X,X,X,X,X,X,X,X,X,X,X,X,X,X,X,X,X,X,X,X,X,X,X,X,X,X,X,X,X,X,X,X,X,X,X,X,X,X,X,X,X,X:Xn.",
"m.,X,X,X,X,X,X,X,X,X,X,X,X,X,X,X,X,X,X,X,X,X,X,X,X,X,X,X,X,X,X,X,X,X,X,X,X,X,X,X,X,X,X,X,X,X,X,X,X,X,X,X,X,X,X,X,X,X,X,X,X,X,X,X,X,X,X,Xm.",
"m.,X,X,X,Xj.j - 0 #.,X,X,X,X,X,X,X,X,X,X,X,X,X,X,X,X,X,X,X,X,X,X,X,X,X,X,X,X,X,X,X,X,X,X,X,X,X,X,X,X,X,X,X,X,X,X,X,X,X,X,X,X,X,X,X,X,X,Xm.",
"m.,X,X,X`.& t.>XL.> f.,X,X,X,X,X,X,X,X,X,X,X,X,X,X,X,X,X,X,X,X,X,X,X,X,X,X,X,X,X,X,X,X,X,X,X,X,X,X,X,X,X,X,X,X,X,X,X,X,X,X,X,X,X,X,X,X,Xm.",
"m.,X,X,X_.0.,X,X,XB %.,X,X,X,X,X,X,X,X,X,X,X,X,X,X,X,X,X,X,X,X,X,X,X,X,X,X,X,X,X,X,X,X,X,X,X,X,X,X,X,X,X,X,X,X,X,X,X,X,X,X,X,X,X,X,X,X,Xm.",
"m.,X,X,X,X,X,X=Xj.2 P.,X,X,X,X,X,X,X,X,X,X,X,X,X,X,X,X,X,X,X,X,X,X,X,X,X,X,X,X,X,X,X,X,X,X,X,X,X,X,X,X,X,X,X,X,X,X,X,X,X,X,X,X,X,X,X,X,Xm.",
"m.,X,X,X,X,Xu.o ; 6.,X,X,X,X,X,X,X,X,X,X,X,X,X,X,X,X,X,X,X,X,X,X,X,X,X,X,X,X,X,X,X,X,X,X,X,X,X,X,X,X,X,X,X,X,X,X,X,X,X,X,X,X,X,X,X,X,X,Xm.",
"m.,X,X,X,X,X,X-XH.i ,.,X,X,X,X,X,X,X,X,X,X,X,X,X,X,X,X,X,X,X,X,X,X,X,X,X,X,X,X,X,X,X,X,X,X,X,X,X,X,X,X,X,X,X,X,X,X,X,X,X,X,X,X,X,X,X,X,Xm.",
"m.,X,X,XU.t.,X,X,X .G ,X,X,X,X,X,X,X,X,X,X,X,X,X,X,X,X,X,X,X,X,X,X,X,X,X,X,X,X,X,X,X,X,X,X,X,X,X,X,X,X,X,X,X,X,X,X,X,X,X,X,X,X,X,X,X,X,Xm.",
"m.,X,X,XZ.% x.,X_.f  .,X,X,X,X,X,X,X,X,X,X,X,X,X,X,X,Xu.m # @ f 0.,X,X-X@.e X ; K A.,X,X,X,X,X,X,X,X,X,X,X,X,X,X,X,X,X,X,X,X,X,X,X,X,X,Xm.",
"m.,X,X,X,X8.a > 6 ) %X,X,X,X,X,X,X,X,X,X,X,X,X,X,X,X[             -.,XE           O q.,X,X,X,X,X,X,X,X,X,X,X,X,X,X,X,X,X,X,X,X,X,X,X,X,Xm.",
"m.,X,X,X,X,X,X,X,X,X,X,X,X,X,X,X,X,X,X,X,X,X,X,X,XV.              : N.              - [.,X,X,X,X,X,X,X,X,X,X,X,X,X,X,X,X,X,X,X,X,X,X,X,Xm.",
"m.,XOX@.T { +X,X1.Y ' W.,X,X,X,X,X,X,X,X,X,X,X,X,X^                 9                 <.,X,X,X,X,X,X,X,X,X,X,X,X,X,X,X,X,X,X,X,X,X,X,X,Xm.",
"m.*Xz       H ;.      - E.,X,X,X,X,X,X,X,X,X,X,X,XC                                   ] ,X,X,X,X,X,X,X,X,X,X,X,X,X,X,X,X,X,X,X,X,X,X,X,Xm.",
"m.N.          2         { ,X,X,X,X,X,X,X,X,X,X,X,XI                                   @.,X,X,X,X,X,X,X,X,X,X,X,X,X,X,X,X,X,X,X,X,X,X,X,Xm.",
"m.p.                    ^ ,X,X,X,X,X,X,X,X,X,X,X,Xw.                                o T.,X,X,X,X,X,X,X,X,X,X,X,X,X,X,X,X,X,X,X,X,X,X,X,Xm.",
"m..X1                   z.,X,X,X,X,X,X,X,X,X,X,X,X;Xk                               ~ ,X,X,X,X,X,X,X,X,X,X,X,X,X,X,X,X,X,X,X,X,X,X,X,X,Xm.",
"m.,Xe..               ! ,X,X,X,X,X,X,X,X,X,X,X,X,X,XP.*                           t  X,X,X,X,X,X,X,X,X,X,X,X,X,X,X,X,X,X,X,X,X,X,X,X,X,Xm.",
"m.,X,X .            n &X,X,X,X,X,X,X,X,X,X,X,X,X,X,X,X9..                       - K.,X,X,X,X,X,X,X,X,X,X,X,X,X,X,X,X,X,X,X,X,X,X,X,X,X,Xm.",
"m.,X,X>XP         r {.,X,X,X,X,X,X,X,X,X,X,X,X,X,X,X,X,Xo.                    o a.,X,X,X,X,X,X,X,X,X,X,X,X,X,X,X,X,X,X,X,X,X,X,X,X,X,X,Xm.",
"m.,X,X,X#Xl     - P.,X,X,X,X,X,X,X,X,X,X,X,X,X,X,X,X,X,X,XQ                   2.,X,X,X,X,X,X,X,X,X,X,X,X,X,X,X,X,X,X,X,X,X,X,X,X,X,X,X,Xm.",
"m.,X,X,X,X^.-   u.,X,X,X,X,X,X,X,X,X,X,X,X,X,X,X,X,X,X,X,X-XJ               X.,X,X,X,X,X,X,X,X,X,X,X,X,X,X,X,X,X,X,X,X,X,X,X,X,X,X,X,X,Xm.",
"m.,X,X,X,X,X$.A ,X,X,X,X,X,X,X,X,X,X,X,X,X,X,X,X,X,X,X,X,X,XoXp           Y ,X,X,X,X,X,X,X,X,X,X,X,X,X,X,X,X,X,X,X,X,X,X,X,X,X,X,X,X,X,Xm.",
"m.,X,X,X,X,X Xl.,X,X,X,X,X,X,X,X,X,X,X,X,X,X,X,X,X,X,X,X,X,X,XT.;       i XX,X,X,X,X,X,X,X,X,X,X,X,X,X,X,X,X,X,X,X,X,X,X,X,X,X,X,X,X,X,Xm.",
"m.,X,X,X,X,X,X,X,X,X,X,X,X,X,X,X,X,X,X,X,X,X,X,X,X,X,X,X,X,X,X,X>.    X A.,X,X,X,X,X,X,X,X,X,X,X,X,X,X,X,X,X,X,X,X,X,X,X,X,X,X,X,X,X,X,Xm.",
"m.,X,X,X,X,X,X,X,X,X,X,X,X,X,X,X,X,X,X,X,X,X,X,X,X,X,X,X,X,X,X,X;Xx   ) ,X,X,X,X,X,X,X,X,X,X,X,X,X,X,X,X,X,X,X,X,X,X,X,X,X,X,X,X,X,X,X,Xm.",
"m.,X,X,X,X,X,X,X,X,X,X,X,X,X,X,X,X,X,X,X,X,X,X,X,X,X,X,X,X,X,X,X,Xh.+ '.,X,X,X,X,X,X,X,X,X,X,X,X,X,X,X,X,X,X,X,X,X,X,X,X,X,X,X,X,X,X,X,Xm.",
"m.,X,X,X,X,X,X,X,X,X,X,X,X,X,X,X,X,X,X,X,X,X,X,X,X,X,X,X,X,X,X,X,X;X) ,X,X,X,X,X,X,X,X,X,X,X,X,X,X,X,X,X,X,X,X,X,X,X,X,X,X,X,X,X,X,X,X,Xm.",
"m.,X,X,X,X,X,X,X,X,X,X,X,X,X,X,X,X,X,X,X,X,X,X,X,X,X,X,X,X,X,X,X,X,X%X,X,X,X,X,X,X,X,X,X,X,X,X,X,X,X,X,X,X,X,X,X,X,X,X,X,X,X,X,X,X,X,X,Xm.",
"m.,X,X,X,X,X,X,X,X,X,X,X,X,X,X,X,X,X,X,X,X,X,X,X,X,X,X,X,X,X,X,X,X,X,X,X,X,X,X,X,X,X,X,X,X,X,X,X,X,X,X,X,X,X,X,X,X,X,X,X,X,X,X,X,X,X,X,Xm.",
"m.,X,X,X,X,X,X,X,X,X,X,X,X,X,X,X,X,X,X,X,X,X,X,X,X,X,X,X,X,X,X,X,X,X,X,X,X,X,X,X,X,X,X,X,X,X,X,X,X,X,X,X,X,X,X,X,X,X,X,X,X,X,X,X,X,X,X,Xm.",
"m.,X,X,X,X,X,X,X,X,X,X,X,X,X,X,X,X,X,X,X,X,X,X,X,X,X,X,X,X,X,X,X,X,X,X,X,X,X,X,X,X,X,X,X,X,X,X,X,X,X,X,X,X,X,X,X,X,X,X,X,X,X,X,X,X,X,X,Xm.",
"m.,X,X,X,X,X,X,X,X,X,X,X,X,X,X,X,X,X,X,X,X,X,X,X,X,X,X,X,X,X,X,X,X,X,X,X,X,X,X,X,X,X,X,X,X,X,X,X,X,X,X,X,X,X,X,X,X,X,X,X,X,X,X,X,X,X,X,Xm.",
"m.,X,X,X,X,X,X,X,X,X,X,X,X,X,X,X,X,X,X,X,X,X,X,X,X,X,X,X,X,X,X,X,X,X,X,X,X,X,X,X,X,X,X,X,X,X,X,X,X,X,X,X,X,X,X,X,X,X,X,X,X,X,X,X,X,X,X,Xm.",
"m.,X,X,X,X,X,X,X,X,X,X,X,X,X,X,X,X,X,X,X,X,X,X,X,X,X,X,X,X,X,X,X,X,X,X,X,X,X,X,X,X,X,X,X,X,X,X,X,X,X,X,X,X,X,X,X,X,X,X,X,X,X,X,X,X,X,X,Xm.",
"m.,X,X,X,X,X,X,X,X,X,X,X,X,X,X,X,X,X,X,X,X,X,X,X,X,X,X,X,X,X,X,X,X,X,X,X,X,X,X,X,X,X,X,X,X,X,X,X,X,X,X,X,X,X,X,X,X,X,X,X,X,X,X,X,X,X,X,Xm.",
"m.,X,X,X,X,X,X,X,X,X,X,X,X,X,X,X,X,X,X,X,X,X,X,X,X,X,X,X,X,X,X,X,X,X,X,X,X,X,X,X,X,X,X,X,X,X,X,X,X,X,X,X,X,X,X,X,X,X,X,X,X,X,X,X,X,X,X,Xm.",
"m.,X,X,X,X,X,X,X,X,X,X,X,X,X,X,X,X,X,X,X,X,X,X,X,X,X,X,X,X,X,X,X,X,X,X,X,X,X,X,X,X,X,X,X,X,X,X,X,X,X,X,X,X,X,X,X,X,X,X,X,X,X,X,X,X,X,X,Xm.",
"m.,X,X,X,X,X,X,X,X,X,X,X,X,X,X,X,X,X,X,X,X,X,X,X,X,X,X+X5./ W *.}.,X,X,X~.O.E _ i.-X,X,X,X,X,X,X,X,X,X,X,X,X,X,X,X,X,X,X,X,X,X,X,X,X,X,Xm.",
"m.,X,X,X,X,X,X,X,X,X,X,X,X,X,X,X,X,X,X,X,X,X,X,X,X,XZ.7         5 P.,Xa.%         j (.,X,X,X,X,X,X,X,X,X,X,X,X,X,X,X,X,X,X,X,X,X,X,X,X,Xm.",
"m.,X,X,X,X,X,X,X,X,X,X,X,X,X,X,X,X,X,X,X,X,X,X,X,X[.1             g |.;             k -X,X,X,X,X,X,X,X,X,X,X,X,X,X,X,X,X,X,X,X,X,X,X,X,Xm.",
"m.,X,X,X,X,X,X,X,X,X,X,X,X,X,X,X,X,X,X,X,X,X,X,X,XO.                L                 g.,X,X,X,X,X,X,X,X,X,X,X,X,X,X,X,X,X,X,X,X,X,X,X,Xm.",
"m.,X,X,X,X,X,X,X,X,X,X,X,X,X,X,X,X,X,X,X,X,X,X,X,XG                                   ..,X,X,X,X,X,X,X,X,X,X,X,X,X,X,X,X,X,X,X,X,X,X,X,Xm.",
"m.,X,X,X,X,X,X,X,X,X,X,X,X,X,X,X,X,X,X,X,X,X,X,X,XZ                                   [ ,X,X,X,X,X,X,X,X,X,X,X,X,X,X,X,X,X,X,X,X,X,X,X,Xm.",
"m.,X,X,X,X,X,X,X,X,X,X,X,X,X,X,X,X,X,X,X,X,X,X,X,X..                                  s.,X,X,X,X,X,X,X,X,X,X,X,X,X,X,X,X,X,X,X,X,X,X,X,Xm.",
"m.,X,X,X,X,X,X,X,X,X,X,X,X,X,X,X,X,X,X,X,X,X,X,X,X|.<                               g ;X,X,X,X,X,X,X,X,X,X,X,X,X,X,X,X,X,X,X,X,X,X,X,X,Xm.",
"m.,X,X,X,X,X,X,X,X,X,X,X,X,X,X,X,X,X,X,X,X,X,X,X,X,X:.                            + C.,X,X,X,X,X,X,X,X,X,X,X,X,X,X,X,X,X,X,X,X,X,X,X,X,Xm.",
"m.,X,X,X,X,X,X,X,X,X,X,X,X,X,X,X,X,X,X,X,X,X,X,X,X,X,XY                           &.,X,X,X,X,X,X,X,X,X,X,X,X,X,X,X,X,X,X,X,X,X,X,X,X,X,Xm.",
"m.,X,X,X,X,X,X,X,X,X,X,X,X,X,X,X,X,X,X,X,X,X,X,X,X,X,X#Xc                       Q ,X,X,X,X,X,X,X,X,X,X,X,X,X,X,X,X,X,X,X,X,X,X,X,X,X,X,Xm.",
"m.,X,X,X,X,X,X,X,X,X,X,X,X,X,X,X,X,X,X,X,X,X,X,X,X,X,X,X[.r                   F =X,X,X,X,X,X,X,X,X,X,X,X,X,X,X,X,X,X,X,X,X,X,X,X,X,X,X,Xm.",
"m.,X,X,X,X,X,X,X,X,X,X,X,X,X,X,X,X,X,X,X,X,X,X,X,X,X,X,X,XW.4               l OX,X,X,X,X,X,X,X,X,X,X,X,X,X,X,X,X,X,X,X,X,X,X,X,X,X,X,X,Xm.",
"m.,X,X,X,X,X,X,X,X,X,X,X,X,X,X,X,X,X,X,X,X,X,X,X,X,X,X,X,X,XV.@           q ].,X,X,X,X,X,X,X,X,X,X,X,X,X,X,X,X,X,X,X,X,X,X,X,X,X,X,X,X,Xm.",
"m.,X,X,X,X,X,X,X,X,X,X,X,X,X,X,X,X,X,X,X,X,X,X,X,X,X,X,X,X,X,X>.        # S.,X,X,X,X,X,X,X,X,X,X,X,X,X,X,X,X,X,X,X,X,X,X,X,X,X,X,X,X,X,Xm.",
"m.,X,X,X,X,X,X,X,X,X,X,X,X,X,X,X,X,X,X,X,X,X,X,X,X,X,X,X,X,X,X,XU       =.,X,X,X,X,X,X,X,X,X,X,X,X,X,X,X,X,X,X,X,X,X,X,X,X,X,X,X,X,X,X,Xm.",
"m.,X,X,X,X,X,X,X,X,X,X,X,X,X,X,X,X,X,X,X,X,X,X,X,X,X,X,X,X,X,X,X'.>   k -X,X,X,X,X,X,X,X,X,X,X,X,X,X,X,X,X,X,X,X,X,X,X,X,X,X,X,X,X,X,X,Xm.",
"m.,X,X,X,X,X,X,X,X,X,X,X,X,X,X,X,X,X,X,X,X,X,X,X,X,X,X,X,X,X,X,X,X%.  B.,X,X,X,X,X,X,X,X,X,X,X,X,X,X,X,X,X,X,X,X,X,X,X,X,X,X,X,X,X,X,X,Xm.",
"m.,X,X,X,X,X,X,X,X,X,X,X,X,X,X,X,X,X,X,X,X,X,X,X,X,X,X,X,X,X,X,X,X}.f ,X,X,X,X,X,X,X,X,X,X,X,X,X,X,X,X,X,X,X,X,X,X,X,X,X,X,X,X,X,X,X,X,Xm.",
"m.,X,X,X,X,X,X,X,X,X,X,X,X,X,X,X,X,X,X,X,X,X,X,X,X,X,X,X,X,X,X,X,X,XY.,X,X,X,X,X,X,X,X,X,X,X,X,X,X,X,X,X,X,X,X,X,X,X,X,X,X,X,X,X,X,X,X,Xm.",
"m.,X,X,X,X,X,X,X,X,X,X,X,X,X,X,X,X,X,X,X,X,X,X,X,X,X,X,X,X,X,X,X,X,X,X,X,X,X,X,X,X,X,X,X,X,X,X,X,X,X,X,X,X,X,X,X,X,X,X,X,X,X,X,X,X,X,X,Xm.",
"m.,X,X,X,X,X,X,X,X,X,X,X,X,X,X,X,X,X,X,X,X,X,X,X,X,X,X,X,X,X,X,X,X,X,X,X,X,X,X,X,X,X,X,X,X,X,X,X,X,X,X,X,X,X,X,X,X,X,X,X,X,X,X,X,X,X,X,Xm.",
"m.,X,X,X,X,X,X,X,X,X,X,X,X,X,X,X,X,X,X,X,X,X,X,X,X,X,X,X,X,X,X,X,X,X,X,X,X,X,X,X,X,X,X,X,X,X,X,X,X,X,X,X,X,X,X,X,X,X,X,X,X,X,X,X,X,X,X,Xm.",
"m.,X,X,X,X,X,X,X,X,X,X,X,X,X,X,X,X,X,X,X,X,X,X,X,X,X,X,X,X,X,X,X,X,X,X,X,X,X,X,X,X,X,X,X,X,X,X,X,X,X,X,X,X,X,X,X,X,X,X,X,X,X,X,X,X,X,X,Xm.",
"m.,X,X,X,X,X,X,X,X,X,X,X,X,X,X,X,X,X,X,X,X,X,X,X,X,X,X,X,X,X,X,X,X,X,X,X,X,X,X,X,X,X,X,X,X,X,X,X,X,X,X,X,X,X,X,X,X,X,X,X,X,X,X,X,X,X,X,Xm.",
"m.,X,X,X,X,X,X,X,X,X,X,X,X,X,X,X,X,X,X,X,X,X,X,X,X,X,X,X,X,X,X,X,X,X,X,X,X,X,X,X,X,X,X,X,X,X,X,X,X,X,X,X,X,X,X,X,X,X,X,X,X,X,X,X,X,X,X,Xm.",
"m.,X,X,X,X,X,X,X,X,X,X,X,X,X,X,X,X,X,X,X,X,X,X,X,X,X,X,X,X,X,X,X,X,X,X,X,X,X,X,X,X,X,X,X,X,X,X,X,X,X,X,X,X,X,X,X,X,X,X,X,X,X,X,X,X,X,X,Xm.",
"m.,X,X,X,X,X,X,X,X,X,X,X,X,X,X,X,X,X,X,X,X,X,X,X,X,X,X,X,X,X,X,X,X,X,X,X,X,X,X,X,X,X,X,X,X,X,X,X,X,X,X,X,X,X,X,X,X,X,X,X,X,X,X,X,X,X,X,Xm.",
"m.,X,X,X,X,X,X,X,X,X,X,X,X,X,X,X,X,X,X,X,X,X,X,X,X,X,X,X,X,X,X,X,X,X,X,X,X,X,X,X,X,X,X,X,X,X,X,X,X,X,X,X,X,X,X,X,X,X,X,X,X,X,X,X,X,X,X,Xm.",
"m.,X,X,X,X,X,X,X,X,X,X,X,X,X,X,X,X,X,X,X,X,X,X,X,X,X,X,X,X,X,X,X,X,X,X,X,X,X,X,X,X,X,X,X,X,X,X,X,X,X,X,X,X,X,X,X,X,X,X,X,X,X,X,X,X,X,X,Xm.",
"m.,X,X,X,X,X,X,X,X,X,X,X,X,X,X,X,X,X,X,X,X,X,X,X,X,X,X,X,X,X,X,X,X,X).,X,X,X,X,X,X,X,X,X,X,X,X,X,X,X,X,X,X,X,X,X,X,X,X,X,X,X,X,X,X,X,X,Xm.",
"m.,X,X,X,X,X,X,X,X,X,X,X,X,X,X,X,X,X,X,X,X,X,X,X,X,X,X,X,X,X,X,X,X+XN ,X,X,X,X,X,X,X,X,X,X,X,X,X,X,X,X,X,X,X,X,X,X,X,X,X,X,X,X,X,X,X,X,Xm.",
"m.,X,X,X,X,X,X,X,X,X,X,X,X,X,X,X,X,X,X,X,X,X,X,X,X,X,X,X,X,X,X,X,X3.  D.,X,X,X,X,X,X,X,X,X,X,X,X,X,X,X,X,X,X,X,X,X,X,X,X,X,X,X,X,X,X,X,Xm.",
"m.,X,X,X,X,X,X,X,X,X,X,X,X,X,X,X,X,X,X,X,X,X,X,X,X,X,X,X,X,X,X,XoX8   b >X,X,X,X,X,X,X,X,X,X,X,X,X,X,X,X,X,X,X,X,X,X,X,X,X,X,X,X,X,X,X,Xm.",
"m.,X,X,X,X,X,X,X,X,X,X,X,X,X,X,X,X,X,X,X,X,X,X,X,X,X,X,X,X,X,X,X`       3.,X,X,X,X,X,X,X,X,X,X,X,X,X,X,X,X,X,X,X,X,X,X,X,X,X,X,X,X,X,X,Xm.",
"m.,X,X,X,X,X,X,X,X,X,X,X,X,X,X,X,X,X,X,X,X,X,X,X,X,X,X,X,X,X,Xd.X       * P.,X,X,X,X,X,X,X,X,X,X,X,X,X,X,X,X,X,X,X,X,X,X,X+X=X,X,X,X,X,Xm.",
"m.,X,X,X,X,X,X,X,X,X,X,X,X,X,X,X,X,X,X,X,X,X,X,X,X,X,X,X,X,XR.>           u  X,X,X,X,X,X,X,X,X,X,X,X,X,X,X,X,X,X,X,X,X,X,X3.a.,X,X,X,X,Xm.",
"m.,X,X,X,X,X,X,X,X,X,X,X,X,X,X,X,X,X,X,X,X,X,X,X,X,X,X,X,X{.u               M %X,X,X,X,X,X,X,X,X,X,X,X,X,X,X,X,X,X,X,X,X%Xu d =X,X,X,X,Xm.",
"m.,X,X,X,X,X,X,X,X,X,X,X,X,X,X,X,X,X,X,X,X,X,X,X,X,X,X,X@Xx                   R >X,X,X,X,X,X,X,X,X,X,X,X,X,X,X,X,X,X,X,X(     | ,X,X,X,Xm.",
"m.,X,X,X,X,X,X,X,X,X,X,X,X,X,X,X,X,X,X,X,X,X,X,X,X,X,X-XL                       { ,X,X,X,X,X,X,X,X,X,X,X,X,X,X,X,X,X,X2.      . 0.,X,X,Xm.",
"m.,X,X,X,X,X,X,X,X,X,X,X,X,X,X,X,X,X,X,X,X,X,X,X,X,X,X'                           8.,X,X,X,X,X,X,X,X,X,X,X,X,X,X,X,Xx.+         % D.,X,Xm.",
"m.,X,X,X,X,X,X,X,X,X,X,X,X,X,X,X,X,X,X,X,X,X,X,X,X,Xt..                           & L.,X,X,X,X,X,X,X,X,X,X,X,X,X,X!.2             5 (.,Xm.",
"m.,X,X,X,X,X,X,X,X,X,X,X,X,X,X,X,X,X,X,X,X,X,X,X,XOX5                               m ,X,X,X,X,X,X,X,X,X,X,X,X,X&Xa                 v >Xm.",
"m.,X,X,X,X,X,X,X,X,X,X,X,X,X,X,X,X,X,X,X,X,X,X,X,X$.                                  z.,X,X,X,X,X,X,X,X,X,X,X,X7.                    h.m.",
"m.,X,X,X,X,X,X,X,X,X,X,X,X,X,X,X,X,X,X,X,X,X,X,X,XS                                   } ,X,X,X,X,X,X,X,X,X,X,X,X .                    -.m.",
"m.,X,X,X,X,X,X,X,X,X,X,X,X,X,X,X,X,X,X,X,X,X,X,X,XD                                   | ,X,X,X,X,X,X,X,X,X,X,X,Xg.        z w       . F.m.",
"m.,X,X,X,X,X,X,X,X,X,X,X,X,X,X,X,X,X,X,X,X,X,X,X,X}                 m                 y.,X,X,X,X,X,X,X,X,X,X,X,X,X[ O   2 G.c.=   $ $.,Xm.",
"m.,X,X,X,X,X,X,X,X,X,X,X,X,X,X,X,X,X,X,X,X,X,X,X,X/.&             t ).#             y %X,X,X,X,X,X,X,X,X,X,X,X,X,X,X}.H.+X,X,XXXH..X,X,Xm.",
"m.,X,X,X,X,X,X,X,X,X,X,X,X,X,X,X,X,X,X,X,X,X,X,X,X,Xd.-         - V.,X1.o         q I.,X,X,X,X,X,X,X,X,X,X,X,X,X,X,X,X,X,X,X,X,X,X,X,X,Xm.",
"m.,X,X,X,X,X,X,X,X,X,X,X,X,X,X,X,X,X,X,X,X,X,X,X,X,X,X_.o.F A ' Q.,X,X,XZ.~ V L -.oX,X,X,X,X,X,X,X,X,X,X,X,X,X,X,X,X,X%X) 7 > s q.,X,X,Xm.",
"m.,X,X,X,X,X,X,X,X,X,X,X,X,X,X,X,X,X,X,X,X,X,X,X,X,X,X,X,X,X,X,X,X,X,X,X,X,X,X,X,X,X,X,X,X,X,X,X,X,X,X,X,X,X,X,X,X,X,X .f _.,Xz.% S.,X,Xm.",
"m.,X,X,X,X,X,X,X,X,X,X,X,X,X,X,X,X,X,X,X,X,X,X,X,X,X,X,X,X,X,X,X,X,X,X,X,X,X,X,X,X,X,X,X,X,X,X,X,X,X,X,X,X,X,X,X,X,X,XF ..,X,X,Xr.U.,X,Xm.",
"m.,X,X,X,X,X,X,X,X,X,X,X,X,X,X,X,X,X,X,X,X,X,X,X,X,X,X,X,X,X,X,X,X,X,X,X,X,X,X,X,X,X,X,X,X,X,X,X,X,X,X,X,X,X,X,X,X,X,X>.p J.-X,X,X,X,X,Xm.",
"m.,X,X,X,X,X,X,X,X,X,X,X,X,X,X,X,X,X,X,X,X,X,X,X,X,X,X,X,X,X,X,X,X,X,X,X,X,X,X,X,X,X,X,X,X,X,X,X,X,X,X,X,X,X,X,X,X,X,X,X4.; o u.,X,X,X,Xm.",
"m.,X,X,X,X,X,X,X,X,X,X,X,X,X,X,X,X,X,X,X,X,X,X,X,X,X,X,X,X,X,X,X,X,X,X,X,X,X,X,X,X,X,X,X,X,X,X,X,X,X,X,X,X,X,X,X,X,X,XP.3 k.=X,X,X,X,X,Xm.",
"m.,X,X,X,X,X,X,X,X,X,X,X,X,X,X,X,X,X,X,X,X,X,X,X,X,X,X,X,X,X,X,X,X,X,X,X,X,X,X,X,X,X,X,X,X,X,X,X,X,X,X,X,X,X,X,X,X,X,X%.V ,X,X,Xq.`.,X,Xm.",
"m.,X,X,X,X,X,X,X,X,X,X,X,X,X,X,X,X,X,X,X,X,X,X,X,X,X,X,X,X,X,X,X,X,X,X,X,X,X,X,X,X,X,X,X,X,X,X,X,X,X,X,X,X,X,X,X,X,X,Xd., I.>Xu.& `.,X,Xm.",
"m.,X,X,X,X,X,X,X,X,X,X,X,X,X,X,X,X,X,X,X,X,X,X,X,X,X,X,X,X,X,X,X,X,X,X,X,X,X,X,X,X,X,X,X,X,X,X,X,X,X,X,X,X,X,X,X,X,X,X,X+.0 = h j.,X,X,Xm.",
"m.,X,X,X,X,X,X,X,X,X,X,X,X,X,X,X,X,X,X,X,X,X,X,X,X,X,X,X,X,X,X,X,X,X,X,X,X,X,X,X,X,X,X,X,X,X,X,X,X,X,X,X,X,X,X,X,X,X,X,X,X,X,X,X,X,X,X,Xm.",
"b.:X,X,X,X,X,X,X,X,X,X,X,X,X,X,X,X,X,X,X,X,X,X,X,X,X,X,X,X,X,X,X,X,X,X,X,X,X,X,X,X,X,X,X,X,X,X,X,X,X,X,X,X,X,X,X,X,X,X,X,X,X,X,X,X,X,X:Xn.",
"$Xv.m.M.M.M.M.M.M.M.M.M.M.M.M.M.M.M.M.M.M.M.M.M.M.M.M.M.M.M.M.M.M.M.M.M.M.M.M.M.M.M.M.M.M.M.M.M.M.M.M.M.M.M.M.M.M.M.M.M.M.M.M.M.M.M.m.v.$X"
};
